<svg width="29" height="28" viewBox="0 0 29 28" fill="none" xmlns="http://www.w3.org/2000/svg">
<path d="M14.7167 2.33325C8.27672 2.33325 3.05005 7.55992 3.05005 13.9999C3.05005 20.4399 8.27672 25.6666 14.7167 25.6666C21.1567 25.6666 26.3834 20.4399 26.3834 13.9999C26.3834 7.55992 21.1567 2.33325 14.7167 2.33325ZM19.4184 14.6183L15.9184 18.1183C15.7434 18.2933 15.5217 18.3749 15.3 18.3749C15.0784 18.3749 14.8567 18.2933 14.6817 18.1183C14.3434 17.7799 14.3434 17.2199 14.6817 16.8816L16.6884 14.8749H10.6334C10.155 14.8749 9.75838 14.4783 9.75838 13.9999C9.75838 13.5216 10.155 13.1249 10.6334 13.1249H16.6884L14.6817 11.1183C14.3434 10.7799 14.3434 10.2199 14.6817 9.88159C15.02 9.54325 15.58 9.54325 15.9184 9.88159L19.4184 13.3816C19.7567 13.7199 19.7567 14.2799 19.4184 14.6183Z" fill="white"/>
</svg>
