<svg width="22" height="22" viewBox="0 0 22 22" fill="none" xmlns="http://www.w3.org/2000/svg">
<path d="M15.0002 21.75H7.00023C2.38023 21.75 1.52023 19.6 1.30023 17.51L0.550227 9.5C0.440227 8.45 0.410228 6.9 1.45023 5.74C2.35023 4.74 3.84023 4.26 6.00023 4.26H16.0002C18.1702 4.26 19.6602 4.75 20.5502 5.74C21.5902 6.9 21.5602 8.45 21.4502 9.51L20.7002 17.5C20.4802 19.6 19.6202 21.75 15.0002 21.75ZM6.00023 5.75C4.31023 5.75 3.15023 6.08 2.56023 6.74C2.07023 7.28 1.91023 8.11 2.04023 9.35L2.79023 17.36C2.96023 18.94 3.39023 20.25 7.00023 20.25H15.0002C18.6002 20.25 19.0402 18.94 19.2102 17.35L19.9602 9.36C20.0902 8.11 19.9302 7.28 19.4402 6.74C18.8502 6.08 17.6902 5.75 16.0002 5.75H6.00023Z" fill="#505050"/>
<path d="M15.0002 5.75C14.5902 5.75 14.2502 5.41 14.2502 5V4.2C14.2502 2.42 14.2502 1.75 11.8002 1.75H10.2002C7.75023 1.75 7.75023 2.42 7.75023 4.2V5C7.75023 5.41 7.41023 5.75 7.00023 5.75C6.59023 5.75 6.25023 5.41 6.25023 5V4.2C6.25023 2.44 6.25023 0.25 10.2002 0.25H11.8002C15.7502 0.25 15.7502 2.44 15.7502 4.2V5C15.7502 5.41 15.4102 5.75 15.0002 5.75Z" fill="#505050"/>
<path d="M11.0002 15.75C8.25023 15.75 8.25023 14.05 8.25023 13.03V12C8.25023 10.59 8.59023 10.25 10.0002 10.25H12.0002C13.4102 10.25 13.7502 10.59 13.7502 12V13C13.7502 14.04 13.7502 15.75 11.0002 15.75ZM9.75023 11.75C9.75023 11.83 9.75023 11.92 9.75023 12V13.03C9.75023 14.06 9.75023 14.25 11.0002 14.25C12.2502 14.25 12.2502 14.09 12.2502 13.02V12C12.2502 11.92 12.2502 11.83 12.2502 11.75C12.1702 11.75 12.0802 11.75 12.0002 11.75H10.0002C9.92023 11.75 9.83023 11.75 9.75023 11.75Z" fill="#505050"/>
<path d="M13.0002 13.77C12.6302 13.77 12.3002 13.49 12.2602 13.11C12.2102 12.7 12.5002 12.32 12.9102 12.27C15.5502 11.94 18.0802 10.94 20.2102 9.39C20.5402 9.14 21.0102 9.22 21.2602 9.56C21.5002 9.89 21.4302 10.36 21.0902 10.61C18.7502 12.31 15.9902 13.4 13.0902 13.77C13.0602 13.77 13.0302 13.77 13.0002 13.77Z" fill="#505050"/>
<path d="M9.00023 13.78C8.97023 13.78 8.94023 13.78 8.91023 13.78C6.17023 13.47 3.50023 12.47 1.19023 10.89C0.850228 10.66 0.760228 10.19 0.990228 9.85C1.22023 9.51 1.69023 9.42 2.03023 9.65C4.14023 11.09 6.57023 12 9.07023 12.29C9.48023 12.34 9.78023 12.71 9.73023 13.12C9.70023 13.5 9.38023 13.78 9.00023 13.78Z" fill="#505050"/>
</svg>
