<svg width="37" height="32" viewBox="0 0 37 32" fill="none" xmlns="http://www.w3.org/2000/svg">
<g clip-path="url(#clip0_1025_40110)">
<path d="M8.75776 30.3512V6.8127C8.74881 6.68875 8.77154 6.56456 8.82381 6.45182C8.87608 6.33907 8.95616 6.24148 9.05654 6.16821C9.15691 6.09495 9.27428 6.04842 9.39759 6.033C9.5209 6.01759 9.6461 6.03379 9.76142 6.0801L23.6076 10.2706C23.7599 10.3133 23.8943 10.4042 23.9907 10.5296C24.0871 10.6551 24.1403 10.8083 24.1424 10.9665V30.3512C24.1424 30.5455 24.0652 30.7318 23.9278 30.8692C23.7904 31.0066 23.6041 31.0838 23.4098 31.0838H9.52699C9.42775 31.0887 9.32853 31.0735 9.23538 31.0389C9.14222 31.0043 9.05708 30.9511 8.98512 30.8826C8.91316 30.814 8.8559 30.7316 8.81682 30.6402C8.77773 30.5489 8.75764 30.4505 8.75776 30.3512Z" fill="url(#paint0_linear_1025_40110)"/>
<path d="M30.9923 16.1825V4.72644C30.994 4.62123 30.971 4.51698 30.9251 4.4211C30.8793 4.32523 30.8116 4.24008 30.7269 4.17172C30.6422 4.10336 30.5426 4.05346 30.4352 4.02559C30.3278 3.99771 30.2152 3.99254 30.1054 4.01044L20.6293 5.54984C20.4513 5.57882 20.2901 5.66688 20.1748 5.79815C20.0594 5.92941 19.9975 6.09527 20.0001 6.26584V6.58089C19.9997 6.73099 20.0492 6.87742 20.1417 6.99948C20.2342 7.12154 20.365 7.21305 20.5156 7.26109L27.4445 9.45922C27.6014 9.50904 27.7367 9.60599 27.8298 9.73528C27.9229 9.86457 27.9686 10.0191 27.96 10.1752V15.9032C27.9549 16.0668 28.0094 16.2271 28.1142 16.3573C28.219 16.4876 28.3679 16.58 28.5361 16.6192L30.0523 16.9772C30.1732 17.0067 30.2999 17.0076 30.4211 16.9797C30.5424 16.9518 30.6545 16.8961 30.7475 16.8175C30.8405 16.7388 30.9115 16.6397 30.9542 16.529C30.997 16.4182 31.01 16.2992 30.9923 16.1825Z" fill="url(#paint1_linear_1025_40110)"/>
<path d="M30.0048 7.78906H26.3418V9.25426H30.0048V7.78906Z" fill="url(#paint2_linear_1025_40110)"/>
<path d="M33.1168 21.9766H30.5527V23.4418H33.1168V21.9766Z" fill="url(#paint3_linear_1025_40110)"/>
<path d="M5.27895 21.9766H2.71484V23.4418H5.27895V21.9766Z" fill="url(#paint4_linear_1025_40110)"/>
<path d="M30.0048 5.125H26.3418V6.5902H30.0048V5.125Z" fill="url(#paint5_linear_1025_40110)"/>
<path d="M33.1168 25.6406H30.5527V27.1058H33.1168V25.6406Z" fill="url(#paint6_linear_1025_40110)"/>
<path d="M5.27895 25.6406H2.71484V27.1058H5.27895V25.6406Z" fill="url(#paint7_linear_1025_40110)"/>
<path d="M20.5 23.7578H15.5V31.0838H20.5V23.7578Z" fill="white"/>
<path d="M8.75781 2.19531L8.77979 31.0891H9.49041H14.6406H15.3732H16.1058H20.5014H21.234H21.9226H21.9666H27.8054V10.0634L8.75781 2.19531Z" stroke="#0C4578" stroke-width="1.25" stroke-linejoin="round"/>
<path d="M27.7031 15.582L27.7178 31.0912H28.0181H30.2233H30.5383H30.8533H32.7361H33.0511H33.3442H33.3588H35.8643V19.8091L27.7031 15.582Z" stroke="#0C4578" stroke-width="1.25" stroke-linejoin="round"/>
<path d="M9.07719 15.582L9.06254 31.0912H8.76217H6.55704H6.24202H5.927H4.04422H3.7292H3.43616H3.41418H0.916016V19.8091L9.07719 15.582Z" stroke="#0C4578" stroke-width="1.25" stroke-linejoin="round"/>
<path d="M18.832 6.02762V3.47817L32.3851 0.914062V18.1302" stroke="#0C4578" stroke-width="1.25" stroke-linejoin="round"/>
<path d="M20.4158 30.3336V31H21V30.3336H20.4158ZM15 30.3336V31H15.6053V30.3336H15ZM16.7895 23.0033V24.3361H19.2105V23.0033H16.7895ZM19.8 25.0025V30.3336H21V25.0025H19.8ZM15.5895 29.6672V31H20.4V29.6672H15.5895ZM15 25.0025V30.3336H16.2053V25.0025H15ZM19.2105 23.0033V24.3361C19.3602 24.325 19.5073 24.3885 19.6204 24.5131C19.7335 24.6376 19.8037 24.8133 19.8158 25.0025H21C20.9689 24.4384 20.7637 23.9125 20.4289 23.5385C20.094 23.1644 19.6564 22.9721 19.2105 23.0033ZM15.8737 23.2898C15.6201 23.4498 15.4052 23.6932 15.2515 23.9945C15.0977 24.2958 15.0109 24.644 15 25.0025H16.2053C16.2056 24.9172 16.2197 24.833 16.2469 24.755C16.2741 24.6771 16.3136 24.607 16.3632 24.5493C16.4794 24.4137 16.6314 24.3377 16.7895 24.3361V23.0033C16.4706 23.0057 16.1568 23.1039 15.8737 23.2898Z" fill="#0C4578"/>
<path d="M20.4798 10.9883V12.4535H24.1428V10.9883H20.4798ZM23.7765 12.0872V14.285H25.2417V12.0872H23.7765ZM20.4798 13.9187V15.3839H24.1428V13.9187H20.4798ZM19.3809 12.0872V14.285H20.8461V12.0872H19.3809ZM20.4798 13.9187V14.285H20.8461C20.8461 14.1878 20.8075 14.0947 20.7388 14.026C20.6701 13.9573 20.5769 13.9187 20.4798 13.9187ZM20.4798 15.3839V14.285H19.3809C19.3809 14.5764 19.4966 14.8559 19.7027 15.062C19.9088 15.2681 20.1883 15.3839 20.4798 15.3839ZM24.1428 14.285V15.3839C24.4342 15.3839 24.7137 15.2681 24.9198 15.062C25.1259 14.8559 25.2417 14.5764 25.2417 14.285H24.1428ZM23.7765 14.285H24.1428V13.9187C24.0481 13.9186 23.9571 13.9552 23.8888 14.0207C23.8205 14.0863 23.7803 14.1757 23.7765 14.2703V14.285ZM24.1428 10.9883V12.0872H25.2417C25.2417 11.7957 25.1259 11.5162 24.9198 11.3101C24.7137 11.1041 24.4342 10.9883 24.1428 10.9883ZM24.1428 12.4535V12.0872H23.7765C23.7765 12.1843 23.8151 12.2775 23.8838 12.3462C23.9524 12.4149 24.0456 12.4535 24.1428 12.4535ZM20.4798 12.0872V12.4535C20.5769 12.4535 20.6701 12.4149 20.7388 12.3462C20.8075 12.2775 20.8461 12.1843 20.8461 12.0872H20.4798ZM20.4798 10.9883C20.1883 10.9883 19.9088 11.1041 19.7027 11.3101C19.4966 11.5162 19.3809 11.7957 19.3809 12.0872H20.4798V10.9883Z" fill="#0C4578"/>
<path d="M12.4212 10.9883V12.4535H16.0842V10.9883H12.4212ZM15.7179 12.0872V14.285H17.1831V12.0872H15.7179ZM12.4212 13.9187V15.3839H16.0842V13.9187H12.4212ZM11.3223 12.0872V14.285H12.7875V12.0872H11.3223ZM12.4212 13.9187V14.285H12.7875C12.7875 14.1878 12.7489 14.0947 12.6802 14.026C12.6115 13.9573 12.5183 13.9187 12.4212 13.9187ZM12.4212 15.3839V14.285H11.3223C11.3223 14.5764 11.438 14.8559 11.6441 15.062C11.8502 15.2681 12.1297 15.3839 12.4212 15.3839ZM16.0842 14.285V15.3839C16.3756 15.3839 16.6551 15.2681 16.8612 15.062C17.0673 14.8559 17.1831 14.5764 17.1831 14.285H16.0842ZM15.7179 14.285H16.0842V13.9187C15.9895 13.9186 15.8985 13.9552 15.8302 14.0207C15.7619 14.0863 15.7217 14.1757 15.7179 14.2703V14.285ZM16.5384 11.0908C16.3965 11.0233 16.2413 10.9882 16.0842 10.9883V12.0872H17.1831C17.187 11.8739 17.1279 11.6643 17.0132 11.4845C16.8985 11.3046 16.7334 11.1626 16.5384 11.0762V11.0908ZM15.9743 12.4535H16.0842V12.0872H15.7179C15.7165 12.1675 15.7406 12.2461 15.7867 12.3119C15.8327 12.3777 15.8984 12.4272 15.9743 12.4535ZM12.4212 12.1018V12.4535C12.5183 12.4535 12.6115 12.4149 12.6802 12.3462C12.7489 12.2775 12.7875 12.1843 12.7875 12.0872L12.4212 12.1018ZM12.4212 11.0029C12.1297 11.0029 11.8502 11.1187 11.6441 11.3248C11.438 11.5309 11.3223 11.8104 11.3223 12.1018H12.4212V11.0029Z" fill="#0C4578"/>
<path d="M20.4798 16.8477V18.3129H24.1428V16.8477H20.4798ZM23.7765 17.9466V20.1444H25.2417V17.9466H23.7765ZM20.4798 19.7781V21.2433H24.1428V19.7781H20.4798ZM19.3809 17.9466V20.1444H20.8461V17.9466H19.3809ZM20.4798 19.7781V20.1444H20.8461C20.8461 20.0472 20.8075 19.954 20.7388 19.8853C20.6701 19.8167 20.5769 19.7781 20.4798 19.7781ZM20.4798 21.2433V20.1444H19.3809C19.3809 20.4358 19.4966 20.7153 19.7027 20.9214C19.9088 21.1275 20.1883 21.2433 20.4798 21.2433ZM24.1428 20.1444V21.2433C24.4342 21.2433 24.7137 21.1275 24.9198 20.9214C25.1259 20.7153 25.2417 20.4358 25.2417 20.1444H24.1428ZM23.7765 20.1444H24.1428V19.7781C24.0481 19.778 23.9571 19.8146 23.8888 19.8801C23.8205 19.9457 23.7803 20.0351 23.7765 20.1297V20.1444ZM24.1428 16.8477V17.9466H25.2417C25.2417 17.6551 25.1259 17.3756 24.9198 17.1695C24.7137 16.9634 24.4342 16.8477 24.1428 16.8477ZM24.1428 18.3129V17.9466H23.7765C23.7765 18.0437 23.8151 18.1369 23.8838 18.2056C23.9524 18.2743 24.0456 18.3129 24.1428 18.3129ZM20.4798 17.9466V18.3129C20.5769 18.3129 20.6701 18.2743 20.7388 18.2056C20.8075 18.1369 20.8461 18.0437 20.8461 17.9466H20.4798ZM20.4798 16.8477C20.1883 16.8477 19.9088 16.9634 19.7027 17.1695C19.4966 17.3756 19.3809 17.6551 19.3809 17.9466H20.4798V16.8477Z" fill="#0C4578"/>
<path d="M12.4212 16.8477V18.3129H16.0842V16.8477H12.4212ZM15.7179 17.9466V20.1444H17.1831V17.9466H15.7179ZM12.4212 19.7781V21.2433H16.0842V19.7781H12.4212ZM11.3223 17.9466V20.1444H12.7875V17.9466H11.3223ZM12.4212 19.7781V20.1444H12.7875C12.7875 20.0472 12.7489 19.954 12.6802 19.8853C12.6115 19.8167 12.5183 19.7781 12.4212 19.7781ZM12.4212 21.2433V20.1444H11.3223C11.3223 20.4358 11.438 20.7153 11.6441 20.9214C11.8502 21.1275 12.1297 21.2433 12.4212 21.2433ZM16.0842 20.1444V21.2433C16.3756 21.2433 16.6551 21.1275 16.8612 20.9214C17.0673 20.7153 17.1831 20.4358 17.1831 20.1444H16.0842ZM15.7179 20.1444H16.0842V19.7781C15.9895 19.778 15.8985 19.8146 15.8302 19.8801C15.7619 19.9457 15.7217 20.0351 15.7179 20.1297V20.1444ZM16.0842 16.8477V17.9466H17.1831C17.1831 17.6551 17.0673 17.3756 16.8612 17.1695C16.6551 16.9634 16.3756 16.8477 16.0842 16.8477ZM16.0842 18.3129V17.9466H15.7179C15.7179 18.0437 15.7565 18.1369 15.8252 18.2056C15.8939 18.2743 15.987 18.3129 16.0842 18.3129ZM12.4212 17.9466V18.3129C12.5183 18.3129 12.6115 18.2743 12.6802 18.2056C12.7489 18.1369 12.7875 18.0437 12.7875 17.9466H12.4212ZM12.4212 16.8477C12.1297 16.8477 11.8502 16.9634 11.6441 17.1695C11.438 17.3756 11.3223 17.6551 11.3223 17.9466H12.4212V16.8477Z" fill="#0C4578"/>
</g>
<defs>
<linearGradient id="paint0_linear_1025_40110" x1="8.75776" y1="18.5856" x2="24.1424" y2="18.5856" gradientUnits="userSpaceOnUse">
<stop stop-color="#176AB4"/>
<stop offset="1" stop-color="#B1FFC7"/>
</linearGradient>
<linearGradient id="paint1_linear_1025_40110" x1="20.0001" y1="10.4545" x2="30.9923" y2="10.4545" gradientUnits="userSpaceOnUse">
<stop stop-color="#176AB4"/>
<stop offset="1" stop-color="#B1FFC7"/>
</linearGradient>
<linearGradient id="paint2_linear_1025_40110" x1="26.3418" y1="8.52166" x2="30.0048" y2="8.52166" gradientUnits="userSpaceOnUse">
<stop stop-color="#C21500"/>
<stop offset="0.52" stop-color="#F37429"/>
<stop offset="1" stop-color="#FFD1B0"/>
</linearGradient>
<linearGradient id="paint3_linear_1025_40110" x1="30.5527" y1="22.7092" x2="33.1168" y2="22.7092" gradientUnits="userSpaceOnUse">
<stop stop-color="#C21500"/>
<stop offset="0.52" stop-color="#F37429"/>
<stop offset="1" stop-color="#FFD1B0"/>
</linearGradient>
<linearGradient id="paint4_linear_1025_40110" x1="2.71484" y1="22.7092" x2="5.27895" y2="22.7092" gradientUnits="userSpaceOnUse">
<stop stop-color="#C21500"/>
<stop offset="0.52" stop-color="#F37429"/>
<stop offset="1" stop-color="#FFD1B0"/>
</linearGradient>
<linearGradient id="paint5_linear_1025_40110" x1="26.3418" y1="5.8576" x2="30.0048" y2="5.8576" gradientUnits="userSpaceOnUse">
<stop stop-color="#C21500"/>
<stop offset="0.52" stop-color="#F37429"/>
<stop offset="1" stop-color="#FFD1B0"/>
</linearGradient>
<linearGradient id="paint6_linear_1025_40110" x1="30.5527" y1="26.3732" x2="33.1168" y2="26.3732" gradientUnits="userSpaceOnUse">
<stop stop-color="#C21500"/>
<stop offset="0.52" stop-color="#F37429"/>
<stop offset="1" stop-color="#FFD1B0"/>
</linearGradient>
<linearGradient id="paint7_linear_1025_40110" x1="2.71484" y1="26.3732" x2="5.27895" y2="26.3732" gradientUnits="userSpaceOnUse">
<stop stop-color="#C21500"/>
<stop offset="0.52" stop-color="#F37429"/>
<stop offset="1" stop-color="#FFD1B0"/>
</linearGradient>
<clipPath id="clip0_1025_40110">
<rect width="37" height="32" fill="white"/>
</clipPath>
</defs>
</svg>
