<svg width="26" height="32" viewBox="0 0 26 32" fill="none" xmlns="http://www.w3.org/2000/svg">
<g clip-path="url(#clip0_1025_40056)">
<path d="M23.2358 4.96484V22.9696C22.4349 22.3819 21.4443 22.0359 20.3685 22.0359C17.6766 22.0359 15.4917 24.2208 15.4917 26.9175C15.4917 28.3535 16.1126 29.6426 17.1031 30.5336H13.2832V14.2113C13.2832 13.0786 13.6624 11.998 14.3401 11.1023C14.7192 10.5999 15.1932 10.1592 15.7477 9.80371L15.9183 9.6947L23.2358 4.96484Z" fill="url(#paint0_linear_1025_40056)"/>
<path d="M3.81445 14.3555V30.1469H16.8382" stroke="#0C4578" stroke-width="1.25" stroke-linejoin="round"/>
<path d="M12.2363 4.43359H23.2695V22.8791" stroke="#0C4578" stroke-width="1.25" stroke-linejoin="round"/>
<path d="M12.2364 0.59375H0.980469V14.3568H12.2364V0.59375Z" stroke="#0C4578" stroke-width="1.25" stroke-linejoin="round"/>
<path d="M20.1424 31.4098C22.8358 31.4098 25.0192 29.2264 25.0192 26.533C25.0192 23.8397 22.8358 21.6562 20.1424 21.6562C17.449 21.6562 15.2656 23.8397 15.2656 26.533C15.2656 29.2264 17.449 31.4098 20.1424 31.4098Z" stroke="#0C4578" stroke-width="1.25" stroke-miterlimit="10"/>
<path d="M5.24683 1.92188H9.53593C9.97195 1.92188 10.3274 2.27733 10.3274 2.71334V6.82235C10.3274 7.47164 9.80134 8.00244 9.14731 8.00244H2.96247C2.68759 8.00244 2.46484 7.7797 2.46484 7.50481V4.70861C2.46484 3.17306 3.71129 1.92661 5.24683 1.92661V1.92188Z" fill="url(#paint1_linear_1025_40056)"/>
<path d="M20.7774 9H15C14.6624 9 14.3887 9.22386 14.3887 9.5C14.3887 9.77614 14.6624 10 15 10H20.7774C21.115 10 21.3887 9.77614 21.3887 9.5C21.3887 9.22386 21.115 9 20.7774 9Z" fill="#0C4578"/>
<path d="M20.7746 12H16.0027C15.6636 12 15.3887 12.2239 15.3887 12.5C15.3887 12.7761 15.6636 13 16.0027 13H20.7746C21.1138 13 21.3887 12.7761 21.3887 12.5C21.3887 12.2239 21.1138 12 20.7746 12Z" fill="#0C4578"/>
<path d="M20.69 15H18.0873C17.7015 15 17.3887 15.2239 17.3887 15.5C17.3887 15.7761 17.7015 16 18.0873 16H20.69C21.0759 16 21.3887 15.7761 21.3887 15.5C21.3887 15.2239 21.0759 15 20.69 15Z" fill="#0C4578"/>
<path d="M15.6728 20H6.10454C5.70918 20 5.38867 20.2239 5.38867 20.5C5.38867 20.7761 5.70918 21 6.10454 21H15.6728C16.0682 21 16.3887 20.7761 16.3887 20.5C16.3887 20.2239 16.0682 20 15.6728 20Z" fill="#0C4578"/>
<path d="M12.7863 23H5.99103C5.65836 23 5.38867 23.2239 5.38867 23.5C5.38867 23.7761 5.65836 24 5.99103 24H12.7863C13.119 24 13.3887 23.7761 13.3887 23.5C13.3887 23.2239 13.119 23 12.7863 23Z" fill="#0C4578"/>
<path d="M12.69 26H6.0873C5.70146 26 5.38867 26.2239 5.38867 26.5C5.38867 26.7761 5.70146 27 6.0873 27H12.69C13.0759 27 13.3887 26.7761 13.3887 26.5C13.3887 26.2239 13.0759 26 12.69 26Z" fill="#0C4578"/>
<path d="M18.6577 24.0781H22.0558V25.045H18.3828V24.3483C18.3828 24.1966 18.506 24.0781 18.653 24.0781H18.6577Z" fill="#0C4578"/>
<path d="M18.3828 26.3711H21.7809C21.9326 26.3711 22.0511 26.4943 22.0511 26.6412V27.3379H18.653C18.5013 27.3379 18.3828 27.2147 18.3828 27.0678V26.3711Z" fill="#0C4578"/>
<path d="M18.3828 28.3789H22.0558V29.0756C22.0558 29.2272 21.9326 29.3457 21.7857 29.3457H18.3876V28.3789H18.3828Z" fill="#0C4578"/>
<path d="M19.4121 24.0781V27.0544H18.6586C18.5069 27.0544 18.3884 26.9312 18.3884 26.7843V24.353C18.3884 24.2013 18.5116 24.0829 18.6586 24.0829H19.4121V24.0781Z" fill="#0C4578"/>
<path d="M22.0566 26.646V29.0773C22.0566 29.2289 21.9334 29.3474 21.7865 29.3474H20.9808V26.3711H21.7865C21.9382 26.3711 22.0566 26.4943 22.0566 26.6412V26.646Z" fill="#0C4578"/>
<path d="M22.061 24.5977H20.9805V25.5645H22.061V24.5977Z" fill="#0C4578"/>
<path d="M20.8197 23.1094H19.7676V24.0762H20.8197V23.1094Z" fill="#0C4578"/>
<path d="M20.8197 29.3477H19.7676V30.3145H20.8197V29.3477Z" fill="#0C4578"/>
<path d="M19.4065 27.8594H18.3828V28.8262H19.4065V27.8594Z" fill="#0C4578"/>
<path d="M4.12269 9.80078H3.02316C2.83994 9.80078 2.69141 9.94825 2.69141 10.1302C2.69141 10.3121 2.83994 10.4595 3.02316 10.4595H4.12269C4.30591 10.4595 4.45444 10.3121 4.45444 10.1302C4.45444 9.94825 4.30591 9.80078 4.12269 9.80078Z" fill="#0C4578"/>
<path d="M6.89026 9.80078H5.79074C5.60752 9.80078 5.45898 9.94825 5.45898 10.1302C5.45898 10.3121 5.60752 10.4595 5.79074 10.4595H6.89026C7.07349 10.4595 7.22202 10.3121 7.22202 10.1302C7.22202 9.94825 7.07349 9.80078 6.89026 9.80078Z" fill="#0C4578"/>
<path d="M9.9469 9.80078H8.84738C8.66416 9.80078 8.51562 9.94825 8.51562 10.1302C8.51562 10.3121 8.66416 10.4595 8.84738 10.4595H9.9469C10.1301 10.4595 10.2787 10.3121 10.2787 10.1302C10.2787 9.94825 10.1301 9.80078 9.9469 9.80078Z" fill="#0C4578"/>
<path d="M4.12269 11.668H3.02316C2.83994 11.668 2.69141 11.8154 2.69141 11.9974C2.69141 12.1793 2.83994 12.3267 3.02316 12.3267H4.12269C4.30591 12.3267 4.45444 12.1793 4.45444 11.9974C4.45444 11.8154 4.30591 11.668 4.12269 11.668Z" fill="#0C4578"/>
<path d="M6.89026 11.668H5.79074C5.60752 11.668 5.45898 11.8154 5.45898 11.9974C5.45898 12.1793 5.60752 12.3267 5.79074 12.3267H6.89026C7.07349 12.3267 7.22202 12.1793 7.22202 11.9974C7.22202 11.8154 7.07349 11.668 6.89026 11.668Z" fill="#0C4578"/>
<path d="M9.9469 11.668H8.84738C8.66416 11.668 8.51562 11.8154 8.51562 11.9974C8.51562 12.1793 8.66416 12.3267 8.84738 12.3267H9.9469C10.1301 12.3267 10.2787 12.1793 10.2787 11.9974C10.2787 11.8154 10.1301 11.668 9.9469 11.668Z" fill="#0C4578"/>
<path d="M10.3274 2.34766H2.78711V7.86424H10.3274V2.34766Z" stroke="#0C4578" stroke-width="1.25" stroke-linejoin="round"/>
</g>
<defs>
<linearGradient id="paint0_linear_1025_40056" x1="13.2832" y1="17.7468" x2="23.2358" y2="17.7468" gradientUnits="userSpaceOnUse">
<stop stop-color="#176AB4"/>
<stop offset="1" stop-color="#B1FFC7"/>
</linearGradient>
<linearGradient id="paint1_linear_1025_40056" x1="2.46484" y1="4.95979" x2="10.3274" y2="4.95979" gradientUnits="userSpaceOnUse">
<stop stop-color="#C21500"/>
<stop offset="0.52" stop-color="#F37429"/>
<stop offset="1" stop-color="#FFD1B0"/>
</linearGradient>
<clipPath id="clip0_1025_40056">
<rect width="25.2227" height="32" fill="white" transform="translate(0.388672)"/>
</clipPath>
</defs>
</svg>
