<svg width="988" height="264" viewBox="0 0 988 264" fill="none" xmlns="http://www.w3.org/2000/svg">
<g clip-path="url(#clip0_1310_15529)">
<path style="mix-blend-mode:multiply" opacity="0.5" d="M131.517 260.562C202.402 260.562 259.865 202.931 259.865 131.84C259.865 60.7496 202.402 3.11914 131.517 3.11914C60.633 3.11914 3.16992 60.7496 3.16992 131.84C3.16992 202.931 60.633 260.562 131.517 260.562Z" fill="url(#paint0_radial_1310_15529)"/>
<path d="M131.517 240.695C191.462 240.695 240.057 191.958 240.057 131.839C240.057 71.7191 191.462 22.9824 131.517 22.9824C71.5716 22.9824 22.9766 71.7191 22.9766 131.839C22.9766 191.958 71.5716 240.695 131.517 240.695Z" fill="url(#paint1_radial_1310_15529)"/>
<path d="M211.73 103.507C206.63 88.9498 197.689 76.0522 185.86 66.1873C174.031 56.3223 159.756 49.8592 144.554 47.486C129.353 45.1128 113.794 46.9184 99.535 52.7105C85.2757 58.5026 72.8494 68.0645 63.5791 80.3781C54.3088 92.6917 48.5415 107.296 46.8913 122.636C45.241 137.977 47.7696 153.479 54.2078 167.492C60.6459 181.505 70.7527 193.505 83.4521 202.214C96.1514 210.924 110.968 216.016 126.324 216.949C128.098 217.063 129.867 217.118 131.633 217.116C145.215 217.088 158.593 213.8 170.649 207.526C182.705 201.252 193.087 192.174 200.929 181.052C208.77 169.93 213.843 157.086 215.722 143.595C217.601 130.104 216.232 116.358 211.73 103.507ZM213.518 136.869C210.752 182.221 171.711 216.862 126.498 214.081C105.185 212.784 85.2131 203.216 70.8132 187.404C56.4133 171.593 48.7169 150.78 49.3546 129.375C49.9922 107.971 58.9138 87.6559 74.2292 72.7348C89.5446 57.8138 110.051 49.4588 131.403 49.4399C133.104 49.4399 134.798 49.4929 136.53 49.5951C181.747 52.3686 216.283 91.5197 213.518 136.869Z" fill="url(#paint2_linear_1310_15529)"/>
<path d="M209.055 104.453C204.128 90.3756 195.486 77.9022 184.05 68.3609C172.614 58.8196 158.812 52.5676 144.113 50.2706C129.415 47.9737 114.37 49.7178 100.582 55.3172C86.7933 60.9167 74.7772 70.1618 65.8131 82.0681C56.8489 93.9745 51.2724 108.096 49.6773 122.929C48.0823 137.763 50.5283 152.752 56.7551 166.301C62.9819 179.851 72.7561 191.453 85.0371 199.872C97.3181 208.291 111.646 213.212 126.495 214.111C128.215 214.217 129.921 214.27 131.63 214.27C144.758 214.242 157.689 211.062 169.341 204.997C180.994 198.932 191.029 190.157 198.609 179.407C206.188 168.656 211.092 156.242 212.909 143.202C214.727 130.162 213.405 116.876 209.055 104.453ZM210.783 136.702C208.112 180.538 170.373 214.028 126.649 211.341C106.06 210.067 86.7729 200.809 72.8695 185.525C58.966 170.242 51.5374 150.132 52.1555 129.453C52.7737 108.774 61.3902 89.1468 76.1815 74.726C90.9729 60.3052 110.778 52.222 131.407 52.187C133.052 52.187 134.704 52.2375 136.364 52.3384C180.073 55.0211 213.458 92.8629 210.783 136.702Z" fill="url(#paint3_linear_1310_15529)"/>
<path d="M187.676 188.161C218.692 157.055 218.692 106.621 187.676 75.5148C156.66 44.4084 106.373 44.4084 75.3568 75.5148C44.3407 106.621 44.3407 157.055 75.3568 188.161C106.373 219.267 156.66 219.267 187.676 188.161Z" fill="white"/>
<path d="M28.2963 204.845C28.0929 204.545 27.8319 204.289 27.5285 204.091C27.2252 203.893 26.8855 203.758 26.5295 203.694C26.1734 203.629 25.8081 203.637 25.455 203.716C25.1018 203.795 24.7679 203.943 24.4728 204.153C24.1777 204.363 23.9273 204.63 23.7362 204.938C23.5452 205.246 23.4174 205.59 23.3603 205.948C23.3032 206.306 23.3179 206.672 23.4036 207.025C23.4893 207.377 23.6443 207.709 23.8594 208.001L24.0933 208.334C24.5111 208.924 25.1455 209.323 25.8569 209.444C26.5683 209.565 27.2986 209.398 27.8869 208.979C28.4753 208.56 28.8736 207.924 28.9942 207.21C29.1149 206.497 28.9479 205.764 28.5302 205.174L28.2963 204.845Z" fill="#505050"/>
<path d="M12.4767 89.847L12.6087 89.4686C12.8504 88.7867 12.812 88.0365 12.5021 87.3829C12.1922 86.7294 11.6361 86.2261 10.9562 85.9837C10.2763 85.7414 9.52824 85.7798 8.8766 86.0906C8.22495 86.4014 7.72311 86.9591 7.48146 87.641L7.34564 88.0194C7.22179 88.3585 7.16631 88.7189 7.18241 89.0796C7.1985 89.4404 7.28585 89.7944 7.43939 90.121C7.59294 90.4477 7.80961 90.7405 8.07686 90.9825C8.34411 91.2245 8.6566 91.4109 8.99623 91.5309C9.33585 91.6509 9.69585 91.702 10.0553 91.6814C10.4148 91.6607 10.7666 91.5687 11.0904 91.4107C11.4142 91.2526 11.7034 91.0317 11.9414 90.7607C12.1793 90.4897 12.3613 90.1739 12.4767 89.8319V89.847Z" fill="#505050"/>
<path d="M16.3543 183.894C16.2079 183.567 15.9987 183.273 15.7387 183.027C15.4786 182.781 15.1729 182.589 14.8388 182.461C14.5048 182.334 14.149 182.274 13.7918 182.284C13.4345 182.295 13.0829 182.376 12.7569 182.523C12.4309 182.67 12.1369 182.879 11.8917 183.14C11.6466 183.401 11.455 183.708 11.328 184.043C11.201 184.378 11.1411 184.734 11.1516 185.093C11.1621 185.451 11.2428 185.804 11.3892 186.131L11.5628 186.509C11.7114 186.835 11.9227 187.129 12.1845 187.373C12.4463 187.618 12.7535 187.808 13.0886 187.933C13.4237 188.058 13.7801 188.116 14.1375 188.103C14.4949 188.09 14.8462 188.007 15.1715 187.858C15.4967 187.709 15.7896 187.497 16.0332 187.234C16.2768 186.972 16.4665 186.664 16.5914 186.328C16.7163 185.992 16.7739 185.634 16.7611 185.276C16.7482 184.917 16.6651 184.565 16.5165 184.239L16.3543 183.894Z" fill="#505050"/>
<path d="M5.4553 137.439V137.061C5.42929 136.335 5.11695 135.65 4.587 135.155C4.05706 134.661 3.35291 134.398 2.62946 134.424C1.90602 134.45 1.22254 134.763 0.729388 135.294C0.236232 135.826 -0.0262039 136.532 -0.000187984 137.258V137.67C0.0290047 138.373 0.327919 139.038 0.834115 139.525C1.34031 140.012 2.01464 140.284 2.71624 140.285H2.8332C3.19214 140.272 3.54504 140.188 3.87152 140.038C4.198 139.888 4.49161 139.675 4.73538 139.41C4.97916 139.145 5.16829 138.835 5.29185 138.497C5.41541 138.159 5.47097 137.799 5.4553 137.439Z" fill="#505050"/>
<path d="M8.64692 160.989C8.58822 160.619 8.45399 160.265 8.25261 159.949C8.05124 159.633 7.78704 159.362 7.47653 159.152C7.16602 158.943 6.81586 158.801 6.44793 158.734C6.08 158.666 5.70221 158.676 5.33814 158.762C4.97407 158.848 4.63156 159.008 4.33199 159.232C4.03243 159.457 3.78224 159.741 3.59707 160.067C3.4119 160.393 3.29572 160.753 3.25579 161.126C3.21585 161.499 3.25302 161.876 3.36498 162.234L3.4593 162.632C3.59935 163.229 3.93622 163.762 4.41545 164.143C4.89468 164.525 5.48826 164.734 6.10027 164.735C6.31123 164.734 6.52137 164.709 6.72656 164.66C7.07431 164.578 7.40254 164.428 7.69246 164.219C7.98238 164.009 8.2283 163.745 8.41613 163.44C8.60397 163.135 8.73004 162.796 8.78712 162.443C8.8442 162.089 8.83117 161.728 8.74878 161.379L8.64692 160.989Z" fill="#505050"/>
<path d="M3.61532 115.603C3.74649 115.623 3.87887 115.633 4.01147 115.634C4.66441 115.632 5.2952 115.396 5.78894 114.967C6.28269 114.539 6.60653 113.947 6.70148 113.299L6.75808 112.921C6.85239 112.211 6.66465 111.492 6.23538 110.92C5.80611 110.348 5.16973 109.968 4.46357 109.862C3.7574 109.756 3.03808 109.933 2.46082 110.355C1.88356 110.776 1.49466 111.408 1.37804 112.115L1.31768 112.523C1.21733 113.237 1.40264 113.961 1.83314 114.538C2.26364 115.116 2.90434 115.498 3.61532 115.603Z" fill="#505050"/>
<path d="M107.717 256.312L107.34 256.236C106.989 256.167 106.628 256.169 106.278 256.24C105.928 256.311 105.595 256.451 105.298 256.651C105.002 256.852 104.748 257.109 104.551 257.407C104.353 257.706 104.216 258.041 104.148 258.393C104.08 258.745 104.081 259.106 104.152 259.458C104.223 259.809 104.362 260.143 104.562 260.44C104.762 260.737 105.018 260.992 105.316 261.19C105.614 261.388 105.948 261.525 106.298 261.594L106.71 261.67C106.877 261.702 107.048 261.719 107.219 261.719C107.895 261.716 108.545 261.46 109.043 261.003C109.542 260.545 109.853 259.918 109.915 259.243C109.978 258.569 109.788 257.895 109.382 257.353C108.977 256.811 108.384 256.44 107.721 256.312H107.717Z" fill="#505050"/>
<path d="M84.5971 249.543L84.2386 249.399C83.9061 249.254 83.548 249.177 83.1853 249.172C82.8226 249.168 82.4626 249.236 82.1267 249.373C81.7907 249.51 81.4854 249.713 81.2289 249.97C80.9723 250.228 80.7696 250.534 80.6328 250.871C80.4959 251.207 80.4276 251.568 80.4318 251.932C80.4361 252.296 80.5129 252.655 80.6576 252.989C80.8024 253.322 81.0122 253.623 81.2747 253.874C81.5372 254.125 81.8471 254.321 82.1862 254.45L82.5635 254.609C82.8952 254.743 83.2498 254.809 83.6071 254.805C83.9644 254.8 84.3173 254.726 84.6457 254.584C84.9742 254.443 85.2717 254.239 85.5213 253.982C85.7709 253.726 85.9677 253.423 86.1005 253.09C86.2333 252.758 86.2995 252.402 86.2952 252.044C86.2909 251.685 86.2163 251.331 86.0757 251.002C85.935 250.672 85.731 250.374 85.4754 250.124C85.2197 249.873 84.9174 249.676 84.5857 249.543H84.5971Z" fill="#505050"/>
<path d="M44.0176 223.174C43.4968 222.672 42.7986 222.398 42.0765 222.413C41.3545 222.427 40.6678 222.729 40.1675 223.251C39.6672 223.774 39.3942 224.474 39.4088 225.198C39.4233 225.922 39.724 226.611 40.2448 227.113L40.5391 227.393C41.0604 227.894 41.7591 228.168 42.4815 228.153C43.2039 228.138 43.8908 227.836 44.3911 227.313C44.8914 226.79 45.1642 226.089 45.1493 225.365C45.1345 224.64 44.8332 223.952 44.3119 223.45L44.0176 223.174Z" fill="#505050"/>
<path d="M63.2031 238.446L62.8749 238.23C62.27 237.836 61.5337 237.698 60.8279 237.848C60.1222 237.998 59.5047 238.424 59.1115 239.03C58.7183 239.637 58.5814 240.375 58.731 241.083C58.8807 241.791 59.3046 242.41 59.9094 242.805L60.2528 243.028C60.5526 243.233 60.8904 243.376 61.2462 243.448C61.602 243.52 61.9686 243.52 62.3244 243.448C62.6802 243.376 63.018 243.233 63.3179 243.028C63.6178 242.823 63.8737 242.56 64.0707 242.254C64.2676 241.948 64.4015 241.606 64.4644 241.247C64.5274 240.889 64.5182 240.521 64.4374 240.166C64.3565 239.811 64.2057 239.476 63.9937 239.181C63.7817 238.885 63.5129 238.635 63.2031 238.446Z" fill="#505050"/>
<path d="M353.678 129.27H314.101H274.525C273.951 126.314 272.471 123.611 270.291 121.539C268.111 119.467 265.34 118.13 262.365 117.715C258.849 85.3716 243.55 55.4694 219.401 33.7449C195.253 12.0204 163.956 0.00377552 131.516 0.00048486C114.225 -0.0466703 97.0958 3.34619 81.1207 9.98269C65.1456 16.6192 50.6416 26.3675 38.4482 38.6634C30.5849 46.5437 23.7402 55.3838 18.075 64.976C17.8864 65.2846 17.7609 65.6277 17.7058 65.9853C17.6506 66.343 17.667 66.7081 17.754 67.0593C17.8409 67.4106 17.9967 67.741 18.2122 68.0313C18.4277 68.3216 18.6986 68.566 19.0092 68.7502C19.3198 68.9345 19.6639 69.0549 20.0214 69.1045C20.3788 69.154 20.7425 69.1318 21.0913 69.039C21.4402 68.9462 21.7671 68.7848 22.0531 68.5641C22.339 68.3433 22.5784 68.0677 22.7571 67.7533C28.1913 58.5539 34.7585 50.0771 42.3041 42.5229C54.0196 30.7714 67.9286 21.4494 83.2367 15.0894C98.5448 8.72945 114.952 5.45598 131.522 5.45598C148.091 5.45598 164.499 8.72945 179.807 15.0894C195.115 21.4494 209.024 30.7714 220.739 42.5229C241.331 63.1901 253.808 89.234 256.928 118.01C253.816 118.789 251.054 120.589 249.079 123.124C247.105 125.66 246.033 128.784 246.033 132C246.033 135.217 247.105 138.341 249.079 140.877C251.054 143.412 253.816 145.212 256.928 145.991C253.808 174.767 241.331 200.818 220.732 221.478C209.045 233.269 195.142 242.618 179.828 248.983C164.514 255.348 148.093 258.603 131.516 258.559C130.795 258.559 130.103 258.847 129.593 259.358C129.082 259.87 128.796 260.564 128.796 261.288C128.796 262.011 129.082 262.705 129.593 263.217C130.103 263.728 130.795 264.016 131.516 264.016C163.976 264.071 195.307 252.073 219.469 230.333C243.63 208.593 258.911 178.652 262.365 146.282C265.34 145.868 268.111 144.531 270.291 142.459C272.471 140.387 273.952 137.684 274.525 134.727H353.678C354.4 134.727 355.092 134.439 355.602 133.928C356.112 133.416 356.398 132.722 356.398 131.999C356.398 131.275 356.112 130.581 355.602 130.07C355.092 129.558 354.4 129.27 353.678 129.27ZM269.348 132.018C269.344 134.394 268.399 136.672 266.72 138.351C265.042 140.029 262.768 140.97 260.398 140.968C258.028 140.966 255.756 140.02 254.081 138.339C252.406 136.657 251.465 134.377 251.465 132C251.465 129.624 252.406 127.344 254.081 125.662C255.756 123.981 258.028 123.035 260.398 123.033C262.768 123.031 265.042 123.972 266.72 125.65C268.399 127.329 269.344 129.607 269.348 131.983C269.348 131.983 269.348 132.01 269.348 132.018Z" fill="#505050"/>
<path d="M261.156 136.631C263.698 136.215 265.423 133.812 265.009 131.263C264.595 128.714 262.199 126.983 259.657 127.399C257.115 127.814 255.39 130.217 255.804 132.766C256.218 135.316 258.614 137.046 261.156 136.631Z" fill="#505050"/>
<path d="M365.335 136.676C367.911 136.676 369.998 134.582 369.998 131.999C369.998 129.416 367.911 127.322 365.335 127.322C362.76 127.322 360.672 129.416 360.672 131.999C360.672 134.582 362.76 136.676 365.335 136.676Z" fill="#505050"/>
</g>
<g clip-path="url(#clip1_1310_15529)">
<path style="mix-blend-mode:multiply" opacity="0.5" d="M493.973 259.573C564.716 259.573 622.065 202.161 622.065 131.339C622.065 60.5177 564.716 3.10547 493.973 3.10547C423.23 3.10547 365.881 60.5177 365.881 131.339C365.881 202.161 423.23 259.573 493.973 259.573Z" fill="url(#paint4_radial_1310_15529)"/>
<path d="M493.973 239.785C553.798 239.785 602.297 191.232 602.297 131.34C602.297 71.4485 553.798 22.8965 493.973 22.8965C434.147 22.8965 385.648 71.4485 385.648 131.34C385.648 191.232 434.147 239.785 493.973 239.785Z" fill="url(#paint5_radial_1310_15529)"/>
<path d="M574.026 103.114C568.936 88.6114 560.013 75.762 548.207 65.934C536.4 56.106 522.152 49.6674 506.98 47.3038C491.808 44.9402 476.28 46.74 462.048 52.5116C447.817 58.2832 435.416 67.8105 426.164 80.0791C416.913 92.3477 411.159 106.898 409.514 122.182C407.869 137.465 410.395 152.909 416.823 166.869C423.251 180.829 433.341 192.782 446.017 201.456C458.694 210.13 473.483 215.2 488.81 216.127C490.583 216.24 492.345 216.293 494.107 216.293C507.662 216.266 521.014 212.99 533.046 206.739C545.078 200.489 555.44 191.446 563.266 180.366C571.091 169.285 576.154 156.49 578.029 143.051C579.904 129.611 578.538 115.917 574.045 103.114H574.026ZM575.814 136.35C573.051 181.531 534.087 216.04 488.964 213.27C467.694 211.977 447.761 202.446 433.39 186.694C419.019 170.942 411.338 150.208 411.974 128.885C412.61 107.561 421.514 87.3233 436.799 72.4588C452.084 57.5942 472.549 49.2709 493.859 49.2521C495.557 49.2521 497.248 49.3049 498.976 49.4067C544.103 52.1697 578.571 91.1725 575.814 136.35Z" fill="url(#paint6_linear_1310_15529)"/>
<path d="M571.356 104.056C566.439 90.0325 557.814 77.6064 546.401 68.1012C534.988 58.596 521.213 52.3676 506.544 50.0794C491.874 47.7911 476.86 49.5286 463.099 55.1069C449.338 60.6851 437.345 69.8952 428.399 81.7565C419.453 93.6177 413.887 107.686 412.296 122.463C410.704 137.24 413.145 152.173 419.359 165.671C425.574 179.169 435.328 190.727 447.585 199.114C459.841 207.501 474.141 212.404 488.96 213.299C490.677 213.405 492.385 213.458 494.085 213.458C507.187 213.43 520.092 210.262 531.721 204.22C543.351 198.178 553.366 189.436 560.931 178.726C568.495 168.016 573.389 155.649 575.203 142.659C577.016 129.668 575.697 116.432 571.356 104.056ZM573.085 136.184C570.415 179.853 532.751 213.216 489.118 210.54C468.571 209.271 449.324 200.049 435.448 184.825C421.572 169.602 414.157 149.571 414.772 128.971C415.386 108.372 423.982 88.8194 438.74 74.4518C453.499 60.0841 473.262 52.0282 493.847 51.9885C495.489 51.9885 497.138 52.0388 498.795 52.1393C542.431 54.8119 575.75 92.5104 573.085 136.184Z" fill="url(#paint7_linear_1310_15529)"/>
<g filter="url(#filter0_d_1310_15529)">
<path d="M550.143 187.11C581.097 156.121 581.097 105.879 550.143 74.8902C519.189 43.9017 469.002 43.9017 438.048 74.8902C407.093 105.879 407.093 156.121 438.048 187.11C469.002 218.098 519.189 218.098 550.143 187.11Z" fill="white"/>
</g>
<path d="M493.785 5.43558H494.162C494.882 5.43558 495.572 5.14924 496.081 4.63956C496.59 4.12987 496.876 3.43859 496.876 2.71779C496.876 1.99699 496.59 1.30571 496.081 0.796023C495.572 0.286338 494.882 0 494.162 0L493.785 0C493.065 0 492.375 0.286338 491.865 0.796023C491.356 1.30571 491.07 1.99699 491.07 2.71779C491.07 3.43859 491.356 4.12987 491.865 4.63956C492.375 5.14924 493.065 5.43558 493.785 5.43558Z" fill="#505050"/>
<path d="M591.332 51.5089C591.795 52.0467 592.449 52.3819 593.156 52.4429C593.862 52.5039 594.564 52.2858 595.112 51.8353C595.66 51.3848 596.01 50.7376 596.088 50.0321C596.165 49.3266 595.964 48.6187 595.527 48.0599L595.282 47.7621C594.823 47.2067 594.162 46.8568 593.445 46.7893C592.727 46.7218 592.013 46.9422 591.458 47.4021C590.904 47.862 590.554 48.5236 590.487 49.2415C590.419 49.9594 590.639 50.6746 591.099 51.23L591.332 51.5089Z" fill="#505050"/>
<path d="M515.92 7.32791L516.297 7.39199C516.455 7.41888 516.615 7.43275 516.775 7.43346C517.454 7.43302 518.108 7.17802 518.608 6.71872C519.108 6.25942 519.419 5.62915 519.478 4.95217C519.537 4.27518 519.34 3.60061 518.927 3.06143C518.514 2.52225 517.914 2.15759 517.246 2.03934L516.869 1.97149C516.16 1.84552 515.429 2.00688 514.839 2.42007C514.248 2.83326 513.845 3.46444 513.719 4.17474C513.594 4.88505 513.755 5.6163 514.168 6.20764C514.58 6.79897 515.211 7.20194 515.92 7.32791Z" fill="#505050"/>
<path d="M537.352 13.0717L537.691 13.1961C537.992 13.3097 538.311 13.3671 538.632 13.3657C539.274 13.3725 539.898 13.1512 540.392 12.7412C540.887 12.3311 541.22 11.7587 541.333 11.1259C541.446 10.493 541.331 9.84055 541.009 9.28445C540.687 8.72835 540.178 8.3046 539.573 8.08848L539.197 7.95655C538.859 7.82121 538.498 7.75513 538.134 7.76224C537.771 7.76934 537.412 7.84949 537.08 7.99793C536.748 8.14636 536.45 8.36006 536.202 8.62633C535.954 8.8926 535.762 9.20603 535.637 9.548C535.512 9.88997 535.458 10.2535 535.476 10.6171C535.495 10.9806 535.586 11.3368 535.744 11.6644C535.903 11.992 536.125 12.2844 536.399 12.5242C536.673 12.764 536.991 12.9464 537.337 13.0604L537.352 13.0717Z" fill="#505050"/>
<path d="M575.507 35.4065L575.785 35.6439C576.334 36.1128 577.047 36.3441 577.767 36.2868C578.486 36.2295 579.154 35.8885 579.622 35.3386C580.09 34.7888 580.321 34.0752 580.264 33.3548C580.207 32.6345 579.866 31.9664 579.317 31.4975L579.027 31.2864C578.755 31.055 578.44 30.8795 578.101 30.7699C577.761 30.6602 577.403 30.6187 577.047 30.6476C576.691 30.6764 576.345 30.7752 576.027 30.9382C575.709 31.1011 575.427 31.3251 575.196 31.5974C574.965 31.8697 574.789 32.1848 574.68 32.5249C574.57 32.865 574.529 33.2234 574.558 33.5795C574.587 33.9357 574.685 34.2827 574.848 34.6007C575.011 34.9186 575.235 35.2014 575.507 35.4328V35.4065Z" fill="#505050"/>
<path d="M449.324 13.3787C449.646 13.3773 449.964 13.3199 450.266 13.2091L450.605 13.0809C451.281 12.831 451.83 12.3224 452.131 11.6671C452.433 11.0118 452.462 10.2634 452.212 9.5866C451.963 8.90978 451.455 8.35997 450.8 8.05812C450.145 7.75627 449.398 7.7271 448.722 7.97703L448.364 8.10896C447.764 8.32907 447.26 8.75415 446.941 9.30945C446.623 9.86474 446.51 10.5147 446.623 11.145C446.736 11.7753 447.067 12.3455 447.558 12.7554C448.05 13.1654 448.67 13.3887 449.309 13.3862L449.324 13.3787Z" fill="#505050"/>
<path d="M557.421 22.5374L557.73 22.7183C558.037 22.913 558.38 23.044 558.739 23.1034C559.097 23.1629 559.464 23.1496 559.818 23.0644C560.171 22.9791 560.504 22.8236 560.796 22.6072C561.089 22.3907 561.335 22.1177 561.519 21.8043C561.704 21.4909 561.824 21.1435 561.873 20.7828C561.921 20.422 561.896 20.0552 561.8 19.7041C561.704 19.3531 561.539 19.0249 561.314 18.7391C561.088 18.4533 560.808 18.2157 560.49 18.0404L560.162 17.8444C559.854 17.6642 559.514 17.5465 559.161 17.4979C558.807 17.4494 558.448 17.4709 558.103 17.5614C557.758 17.6519 557.434 17.8095 557.15 18.0253C556.866 18.241 556.627 18.5106 556.447 18.8188C556.267 19.1269 556.15 19.4675 556.101 19.8212C556.053 20.1748 556.074 20.5346 556.165 20.8799C556.255 21.2252 556.413 21.5493 556.628 21.8337C556.844 22.1181 557.113 22.3572 557.421 22.5374Z" fill="#505050"/>
<path d="M471.196 7.4375C471.356 7.43852 471.516 7.42464 471.674 7.39604L472.051 7.33195C472.408 7.27714 472.751 7.15147 473.059 6.9623C473.367 6.77314 473.634 6.52428 473.845 6.23034C474.056 5.9364 474.206 5.60329 474.286 5.25054C474.367 4.89779 474.376 4.53251 474.313 4.17612C474.251 3.81973 474.118 3.4794 473.923 3.17511C473.727 2.87081 473.473 2.60866 473.175 2.40405C472.877 2.19943 472.541 2.05646 472.187 1.98352C471.833 1.91059 471.468 1.90915 471.113 1.9793L470.737 2.04338C470.068 2.16163 469.468 2.52629 469.055 3.06547C468.642 3.60465 468.445 4.27923 468.504 4.95621C468.564 5.63319 468.874 6.26346 469.374 6.72276C469.874 7.18206 470.528 7.43706 471.207 7.4375H471.196Z" fill="#505050"/>
<path d="M428.844 23.1102C429.328 23.1105 429.803 22.9802 430.219 22.7333L430.531 22.5486C430.85 22.3743 431.131 22.1377 431.357 21.8529C431.582 21.568 431.749 21.2406 431.846 20.8902C431.943 20.5397 431.969 20.1733 431.922 19.8126C431.876 19.4519 431.757 19.1043 431.573 18.7904C431.39 18.4765 431.145 18.2026 430.854 17.9851C430.563 17.7675 430.231 17.6107 429.878 17.5239C429.526 17.4371 429.159 17.422 428.8 17.4796C428.441 17.5373 428.098 17.6664 427.79 17.8594L427.462 18.0516C426.949 18.3546 426.55 18.8181 426.326 19.3707C426.102 19.9232 426.066 20.5342 426.223 21.1094C426.38 21.6846 426.722 22.1921 427.196 22.5536C427.669 22.9152 428.249 23.1108 428.844 23.1102Z" fill="#505050"/>
<path d="M392.795 51.9168C393.071 52.1434 393.389 52.3133 393.73 52.417C394.071 52.5207 394.429 52.556 394.784 52.521C395.139 52.486 395.484 52.3813 395.798 52.213C396.113 52.0446 396.391 51.8159 396.617 51.5399L396.847 51.2609C397.075 50.9862 397.246 50.6692 397.351 50.3282C397.457 49.9871 397.494 49.6286 397.461 49.2732C397.428 48.9177 397.325 48.5723 397.159 48.2565C396.992 47.9408 396.766 47.661 396.491 47.433C396.217 47.2051 395.9 47.0334 395.559 46.928C395.219 46.8225 394.861 46.7853 394.506 46.8183C394.151 46.8514 393.805 46.9542 393.49 47.1208C393.175 47.2874 392.895 47.5145 392.667 47.7892L392.423 48.087C392.196 48.3628 392.025 48.6808 391.921 49.0226C391.817 49.3645 391.781 49.7236 391.816 50.0793C391.85 50.4351 391.955 50.7805 392.123 51.0958C392.291 51.4111 392.519 51.6901 392.795 51.9168Z" fill="#505050"/>
<path d="M410.402 36.3223C411.05 36.3213 411.676 36.0887 412.168 35.6664L412.443 35.4289C412.715 35.1975 412.938 34.9147 413.101 34.5968C413.264 34.2788 413.363 33.9318 413.391 33.5756C413.42 33.2195 413.379 32.8611 413.269 32.521C413.16 32.1809 412.984 31.8658 412.753 31.5935C412.522 31.3212 412.24 31.0972 411.922 30.9343C411.604 30.7713 411.258 30.6725 410.902 30.6437C410.546 30.6148 410.188 30.6563 409.849 30.766C409.509 30.8756 409.194 31.0511 408.922 31.2825L408.632 31.5313C408.21 31.8927 407.909 32.375 407.769 32.9131C407.629 33.4513 407.658 34.0195 407.851 34.5409C408.044 35.0624 408.392 35.512 408.848 35.8292C409.304 36.1464 409.846 36.3159 410.402 36.3148V36.3223Z" fill="#505050"/>
<path d="M715.711 128.781H636.715C636.143 125.836 634.666 123.143 632.491 121.079C630.316 119.015 627.551 117.683 624.583 117.269C622.734 99.6048 617.276 82.5104 608.547 67.0481C608.191 66.4202 607.6 65.9597 606.905 65.7678C606.21 65.5759 605.467 65.6683 604.84 66.0247C604.213 66.3811 603.753 66.9723 603.561 67.6682C603.369 68.3642 603.462 69.1079 603.818 69.7357C612.133 84.4697 617.349 100.751 619.146 117.578C616.041 118.354 613.283 120.148 611.313 122.673C609.343 125.199 608.273 128.311 608.273 131.516C608.273 134.72 609.343 137.832 611.313 140.358C613.283 142.883 616.041 144.677 619.146 145.453C616.036 174.12 603.577 200.077 583.018 220.654C571.326 232.361 557.445 241.648 542.168 247.983C526.891 254.319 510.516 257.58 493.98 257.58C477.444 257.58 461.069 254.319 445.792 247.983C430.515 241.648 416.634 232.361 404.942 220.654C384.383 200.077 371.928 174.12 368.814 145.453C371.919 144.677 374.676 142.883 376.647 140.358C378.617 137.832 379.687 134.72 379.687 131.516C379.687 128.311 378.617 125.199 376.647 122.673C374.676 120.148 371.919 118.354 368.814 117.578C370.617 100.75 375.839 84.4693 384.157 69.7357C384.339 69.4245 384.458 69.0801 384.505 68.7226C384.553 68.3651 384.529 68.0017 384.435 67.6535C384.342 67.3053 384.179 66.9793 383.958 66.6945C383.737 66.4098 383.462 66.1719 383.148 65.9948C382.834 65.8177 382.488 65.7049 382.13 65.6629C381.772 65.621 381.41 65.6508 381.064 65.7506C380.717 65.8504 380.394 66.0182 380.114 66.2442C379.833 66.4702 379.6 66.7499 379.428 67.0669C370.704 82.5245 365.246 99.6118 363.392 117.269C359.96 117.744 356.815 119.447 354.539 122.063C352.263 124.678 351.01 128.03 351.01 131.499C351.01 134.967 352.263 138.319 354.539 140.934C356.815 143.55 359.96 145.253 363.392 145.728C366.902 177.95 382.172 207.739 406.274 229.382C430.375 251.025 461.611 262.996 493.988 263C526.381 263.058 557.65 251.108 581.764 229.453C605.878 207.799 621.13 177.974 624.58 145.728C627.549 145.315 630.314 143.983 632.49 141.919C634.666 139.855 636.143 137.162 636.715 134.216H715.711C716.431 134.216 717.122 133.93 717.631 133.42C718.14 132.911 718.426 132.219 718.426 131.499C718.426 130.778 718.14 130.086 717.631 129.577C717.122 129.067 716.431 128.781 715.711 128.781ZM356.43 131.499C356.43 129.732 356.953 128.006 357.933 126.537C358.913 125.069 360.306 123.924 361.936 123.248C363.566 122.573 365.36 122.396 367.09 122.74C368.82 123.085 370.41 123.935 371.657 125.184C372.904 126.433 373.754 128.024 374.098 129.756C374.442 131.489 374.266 133.284 373.591 134.916C372.915 136.548 371.772 137.942 370.305 138.923C368.838 139.905 367.114 140.428 365.35 140.428C362.985 140.425 360.718 139.484 359.046 137.81C357.373 136.136 356.433 133.866 356.43 131.499ZM622.637 140.428C620.872 140.428 619.148 139.905 617.681 138.923C616.214 137.942 615.071 136.548 614.396 134.916C613.721 133.284 613.544 131.489 613.888 129.756C614.232 128.024 615.082 126.433 616.329 125.184C617.577 123.935 619.166 123.085 620.897 122.74C622.627 122.396 624.42 122.573 626.05 123.248C627.68 123.924 629.073 125.069 630.053 126.537C631.034 128.006 631.557 129.732 631.557 131.499C631.555 133.868 630.613 136.14 628.938 137.815C627.263 139.489 624.992 140.429 622.625 140.428H622.637Z" fill="#505050"/>
<path d="M622.625 136.158C625.195 136.158 627.279 134.072 627.279 131.499C627.279 128.926 625.195 126.84 622.625 126.84C620.054 126.84 617.971 128.926 617.971 131.499C617.971 134.072 620.054 136.158 622.625 136.158Z" fill="#505050"/>
<path d="M731.646 133.281C732.63 130.904 731.502 128.178 729.127 127.194C726.753 126.209 724.03 127.338 723.047 129.715C722.063 132.092 723.191 134.818 725.565 135.802C727.94 136.787 730.662 135.658 731.646 133.281Z" fill="#505050"/>
</g>
<g clip-path="url(#clip2_1310_15529)">
<path style="mix-blend-mode:multiply" opacity="0.5" d="M856.394 259.573C927.338 259.573 984.849 202.161 984.849 131.339C984.849 60.5177 927.338 3.10547 856.394 3.10547C785.451 3.10547 727.939 60.5177 727.939 131.339C727.939 202.161 785.451 259.573 856.394 259.573Z" fill="url(#paint8_radial_1310_15529)"/>
<path d="M856.393 239.783C916.388 239.783 965.023 191.231 965.023 131.339C965.023 71.4466 916.388 22.8945 856.393 22.8945C796.397 22.8945 747.762 71.4466 747.762 131.339C747.762 191.231 796.397 239.783 856.393 239.783Z" fill="url(#paint9_radial_1310_15529)"/>
<path d="M936.678 103.113C931.574 88.6111 922.626 75.7625 910.787 65.9349C898.948 56.1072 884.661 49.6686 869.447 47.3044C854.233 44.9402 838.661 46.7389 824.39 52.5091C810.119 58.2793 797.682 67.805 788.404 80.0719C779.126 92.3388 773.354 106.888 771.702 122.17C770.051 137.452 772.581 152.896 779.025 166.856C785.468 180.816 795.584 192.771 808.294 201.447C821.004 210.123 835.833 215.196 851.202 216.126C852.979 216.239 854.75 216.294 856.514 216.291C870.108 216.264 883.498 212.989 895.563 206.738C907.629 200.488 918.021 191.445 925.869 180.364C933.717 169.284 938.793 156.489 940.674 143.05C942.554 129.61 941.184 115.916 936.678 103.113ZM938.468 136.348C935.7 181.529 896.623 216.039 851.375 213.268C830.045 211.976 810.056 202.444 795.644 186.693C781.232 170.941 773.529 150.207 774.168 128.884C774.806 107.56 783.735 87.3222 799.063 72.4576C814.391 57.5931 834.914 49.2697 856.284 49.251C857.987 49.251 859.705 49.3037 861.419 49.4055C906.667 52.1685 941.236 91.1713 938.468 136.348Z" fill="url(#paint10_linear_1310_15529)"/>
<path d="M934.001 104.056C929.07 90.0325 920.421 77.6064 908.975 68.1012C897.53 58.596 883.716 52.3676 869.005 50.0794C854.294 47.7911 839.237 49.5286 825.437 55.1069C811.637 60.6851 799.611 69.8953 790.639 81.7565C781.668 93.6177 776.087 107.686 774.49 122.463C772.894 137.24 775.342 152.173 781.574 165.671C787.806 179.169 797.588 190.727 809.88 199.114C822.171 207.501 836.511 212.404 851.372 213.299C853.089 213.405 854.8 213.458 856.507 213.458C869.647 213.43 882.589 210.263 894.252 204.221C905.914 198.179 915.959 189.438 923.545 178.728C931.131 168.018 936.039 155.651 937.858 142.66C939.678 129.669 938.355 116.432 934.001 104.056ZM935.731 136.184C933.054 179.853 895.283 213.216 851.527 210.54C830.922 209.271 811.62 200.049 797.705 184.825C783.79 169.602 776.353 149.571 776.97 128.971C777.586 108.372 786.206 88.8194 801.006 74.4518C815.806 60.0841 835.625 52.0282 856.269 51.9885C857.921 51.9885 859.575 52.0388 861.231 52.1393C904.994 54.8119 938.427 92.5104 935.731 136.184Z" fill="url(#paint11_linear_1310_15529)"/>
<g filter="url(#filter1_d_1310_15529)">
<path d="M912.6 187.45C943.642 156.461 943.642 106.219 912.6 75.2301C881.558 44.2415 831.229 44.2415 800.187 75.2301C769.145 106.219 769.145 156.461 800.187 187.45C831.229 218.438 881.558 218.438 912.6 187.45Z" fill="white"/>
</g>
<path d="M981.385 113.363C981.478 114.01 981.801 114.603 982.295 115.031C982.79 115.46 983.422 115.696 984.077 115.697C984.204 115.697 984.33 115.688 984.455 115.67C984.809 115.619 985.149 115.5 985.456 115.317C985.763 115.135 986.031 114.895 986.245 114.609C986.459 114.323 986.615 113.998 986.703 113.653C986.791 113.307 986.809 112.947 986.758 112.594L986.702 112.191C986.653 111.835 986.535 111.492 986.353 111.183C986.171 110.873 985.93 110.602 985.643 110.386C985.356 110.169 985.028 110.012 984.68 109.923C984.332 109.834 983.969 109.814 983.613 109.866C983.257 109.918 982.915 110.039 982.606 110.223C982.297 110.408 982.028 110.651 981.815 110.94C981.601 111.229 981.446 111.557 981.36 111.906C981.274 112.254 981.258 112.616 981.313 112.971L981.385 113.363Z" fill="#505050"/>
<path d="M903.627 248.486L903.25 248.629C902.917 248.761 902.614 248.957 902.358 249.206C902.102 249.455 901.897 249.751 901.755 250.079C901.614 250.407 901.539 250.759 901.533 251.116C901.528 251.473 901.594 251.828 901.726 252.159C901.858 252.491 902.054 252.793 902.304 253.049C902.553 253.305 902.85 253.51 903.179 253.651C903.507 253.792 903.86 253.867 904.217 253.872C904.575 253.878 904.93 253.812 905.262 253.68L905.64 253.53C906.31 253.26 906.845 252.736 907.128 252.073C907.411 251.409 907.418 250.661 907.148 249.992C906.878 249.323 906.353 248.789 905.689 248.506C905.024 248.224 904.274 248.217 903.605 248.486H903.627Z" fill="#505050"/>
<path d="M924.96 237.412L924.632 237.623C924.325 237.814 924.06 238.063 923.851 238.357C923.643 238.651 923.494 238.983 923.415 239.335C923.337 239.687 923.328 240.05 923.392 240.405C923.455 240.76 923.588 241.098 923.784 241.401C923.979 241.704 924.233 241.965 924.53 242.169C924.828 242.373 925.163 242.516 925.516 242.59C925.87 242.663 926.234 242.666 926.589 242.598C926.943 242.529 927.28 242.391 927.581 242.192L927.928 241.969C928.533 241.576 928.958 240.959 929.107 240.254C929.257 239.549 929.12 238.813 928.727 238.209C928.333 237.605 927.715 237.181 927.009 237.032C926.302 236.882 925.565 237.019 924.96 237.412Z" fill="#505050"/>
<path d="M943.807 222.478L943.516 222.753C942.996 223.253 942.696 223.939 942.682 224.659C942.668 225.38 942.942 226.077 943.443 226.596C943.943 227.115 944.63 227.415 945.352 227.429C946.074 227.442 946.772 227.169 947.292 226.67L947.575 226.398C948.096 225.898 948.397 225.212 948.411 224.491C948.425 223.77 948.152 223.073 947.651 222.553C947.15 222.033 946.463 221.733 945.741 221.719C945.019 221.705 944.32 221.978 943.799 222.478H943.807Z" fill="#505050"/>
<path d="M880.563 255.272L880.185 255.343C879.516 255.467 878.918 255.835 878.508 256.377C878.098 256.918 877.905 257.594 877.969 258.27C878.032 258.945 878.347 259.573 878.851 260.029C879.354 260.485 880.011 260.737 880.691 260.734C880.862 260.734 881.033 260.718 881.201 260.685L881.605 260.609C882.314 260.473 882.939 260.061 883.344 259.464C883.749 258.867 883.899 258.134 883.763 257.426C883.626 256.718 883.213 256.094 882.615 255.69C882.017 255.286 881.283 255.135 880.574 255.272H880.563Z" fill="#505050"/>
<path d="M980.864 88.2585L980.724 87.8816C980.606 87.5447 980.422 87.2344 980.184 86.9684C979.945 86.7024 979.657 86.4858 979.335 86.3311C979.012 86.1764 978.663 86.0865 978.306 86.0667C977.949 86.0469 977.591 86.0974 977.254 86.2155C976.916 86.3335 976.606 86.5168 976.339 86.7548C976.073 86.9928 975.856 87.2808 975.701 87.6025C975.546 87.9242 975.456 88.2732 975.436 88.6296C975.416 88.986 975.467 89.3428 975.585 89.6796L975.713 90.0566C975.899 90.5913 976.246 91.055 976.708 91.3834C977.169 91.7117 977.722 91.8883 978.288 91.8885C978.589 91.8901 978.888 91.8404 979.172 91.7415C979.513 91.6255 979.828 91.4429 980.099 91.2045C980.369 90.9661 980.589 90.6766 980.746 90.3526C980.904 90.0287 980.995 89.6768 981.015 89.3173C981.035 88.9579 980.984 88.598 980.864 88.2585Z" fill="#505050"/>
<path d="M982.555 158.738C982.207 158.655 981.846 158.642 981.493 158.698C981.139 158.755 980.801 158.88 980.496 159.068C980.191 159.255 979.926 159.5 979.717 159.79C979.507 160.079 979.356 160.407 979.274 160.755L979.183 161.132C979.099 161.479 979.085 161.839 979.141 162.192C979.196 162.544 979.321 162.883 979.507 163.187C979.694 163.492 979.939 163.756 980.228 163.967C980.517 164.177 980.845 164.328 981.192 164.411C981.402 164.462 981.618 164.488 981.834 164.487C982.445 164.486 983.037 164.28 983.516 163.903C983.996 163.526 984.334 162.999 984.477 162.406L984.572 162.007C984.737 161.306 984.618 160.569 984.24 159.956C983.862 159.344 983.256 158.906 982.555 158.738Z" fill="#505050"/>
<path d="M975.117 182.126C974.792 181.978 974.44 181.896 974.083 181.884C973.726 181.872 973.37 181.931 973.035 182.057C972.7 182.182 972.394 182.373 972.133 182.617C971.872 182.861 971.662 183.154 971.515 183.479L971.353 183.834C971.187 184.16 971.089 184.516 971.065 184.882C971.04 185.247 971.09 185.613 971.211 185.959C971.332 186.304 971.521 186.622 971.768 186.892C972.015 187.163 972.314 187.381 972.647 187.533C972.981 187.686 973.341 187.769 973.708 187.779C974.074 187.789 974.439 187.725 974.78 187.591C975.121 187.456 975.431 187.255 975.692 186.998C975.954 186.741 976.16 186.434 976.299 186.095L976.473 185.718C976.62 185.394 976.702 185.043 976.714 184.687C976.725 184.33 976.666 183.975 976.541 183.642C976.415 183.308 976.224 183.003 975.98 182.743C975.736 182.482 975.443 182.273 975.117 182.126Z" fill="#505050"/>
<path d="M985.391 134.366C985.034 134.35 984.677 134.405 984.341 134.527C984.005 134.65 983.696 134.837 983.433 135.079C983.169 135.32 982.956 135.612 982.806 135.936C982.655 136.26 982.57 136.61 982.556 136.967V137.363C982.539 137.719 982.594 138.076 982.715 138.411C982.837 138.747 983.024 139.056 983.265 139.319C983.507 139.583 983.798 139.796 984.121 139.948C984.445 140.099 984.796 140.185 985.153 140.201H985.248C985.948 140.201 986.622 139.93 987.128 139.447C987.633 138.963 987.933 138.303 987.963 137.604V137.193C987.993 136.479 987.739 135.782 987.258 135.253C986.777 134.724 986.106 134.405 985.391 134.366Z" fill="#505050"/>
<path d="M963.348 203.653C963.056 203.444 962.725 203.294 962.374 203.214C962.023 203.133 961.66 203.123 961.305 203.183C960.95 203.244 960.611 203.375 960.307 203.567C960.003 203.76 959.741 204.011 959.535 204.305L959.304 204.629C959.063 204.917 958.885 205.251 958.779 205.61C958.674 205.97 958.644 206.348 958.692 206.719C958.74 207.091 958.864 207.449 959.057 207.77C959.25 208.091 959.507 208.37 959.813 208.587C960.119 208.804 960.466 208.956 960.834 209.033C961.201 209.11 961.58 209.11 961.948 209.034C962.315 208.957 962.663 208.806 962.969 208.589C963.275 208.372 963.533 208.094 963.726 207.773L963.964 207.441C964.385 206.857 964.557 206.13 964.442 205.42C964.327 204.71 963.933 204.074 963.348 203.653Z" fill="#505050"/>
<path d="M949.539 38.5158C934.554 23.5954 916.192 12.494 896.004 6.14931C875.817 -0.19541 854.396 -1.59716 833.551 2.06246C812.707 5.72207 793.05 14.3356 776.242 27.1755C759.434 40.0154 745.968 56.7046 736.982 75.8336C730.857 88.9099 726.955 102.912 725.435 117.268C721.988 117.737 718.829 119.438 716.542 122.054C714.254 124.67 712.994 128.025 712.994 131.497C712.994 134.97 714.254 138.325 716.542 140.941C718.829 143.557 721.988 145.258 725.435 145.727C728.953 177.948 744.266 207.738 768.434 229.38C792.603 251.023 823.926 262.995 856.393 262.999C857.115 262.999 857.808 262.713 858.318 262.203C858.829 261.694 859.116 261.002 859.116 260.281C859.116 259.561 858.829 258.869 858.318 258.36C857.808 257.85 857.115 257.564 856.393 257.564C839.802 257.607 823.368 254.364 808.041 248.023C792.714 241.682 778.799 232.369 767.103 220.623C746.486 200.042 733.995 174.089 730.876 145.422C733.991 144.646 736.756 142.852 738.731 140.327C740.707 137.801 741.781 134.689 741.781 131.484C741.781 128.28 740.707 125.167 738.731 122.642C736.756 120.116 733.991 118.323 730.876 117.547C733.995 88.8986 746.486 62.9231 767.103 42.3456C778.829 30.6357 792.75 21.3467 808.073 15.0091C823.396 8.67158 839.819 5.40963 856.404 5.40963C872.99 5.40963 889.413 8.67158 904.736 15.0091C920.059 21.3467 933.98 30.6357 945.706 42.3456C953.411 50.0258 960.097 58.6619 965.598 68.0421C965.778 68.3502 966.018 68.6199 966.303 68.8356C966.588 69.0513 966.912 69.2089 967.258 69.2994C967.604 69.3899 967.965 69.4115 968.319 69.3629C968.673 69.3144 969.014 69.1967 969.323 69.0165C969.632 68.8363 969.902 68.5972 970.118 68.3128C970.334 68.0284 970.492 67.7043 970.582 67.359C970.673 67.0137 970.695 66.654 970.646 66.3003C970.597 65.9467 970.48 65.606 970.299 65.2979C964.556 55.5204 957.578 46.5194 949.539 38.5158ZM736.336 131.497C736.336 133.264 735.812 134.99 734.829 136.459C733.846 137.927 732.449 139.072 730.814 139.748C729.18 140.423 727.381 140.6 725.646 140.256C723.911 139.911 722.317 139.061 721.066 137.812C719.815 136.563 718.963 134.972 718.618 133.24C718.272 131.507 718.45 129.712 719.127 128.08C719.804 126.448 720.95 125.054 722.421 124.072C723.892 123.091 725.622 122.568 727.391 122.568C729.763 122.57 732.037 123.511 733.714 125.185C735.391 126.859 736.334 129.13 736.336 131.497Z" fill="#505050"/>
</g>
<defs>
<filter id="filter0_d_1310_15529" x="394.832" y="35.6484" width="198.527" height="198.703" filterUnits="userSpaceOnUse" color-interpolation-filters="sRGB">
<feFlood flood-opacity="0" result="BackgroundImageFix"/>
<feColorMatrix in="SourceAlpha" type="matrix" values="0 0 0 0 0 0 0 0 0 0 0 0 0 0 0 0 0 0 127 0" result="hardAlpha"/>
<feOffset dy="4"/>
<feGaussianBlur stdDeviation="10"/>
<feComposite in2="hardAlpha" operator="out"/>
<feColorMatrix type="matrix" values="0 0 0 0 0 0 0 0 0 0 0 0 0 0 0 0 0 0 0.2 0"/>
<feBlend mode="normal" in2="BackgroundImageFix" result="effect1_dropShadow_1310_15529"/>
<feBlend mode="normal" in="SourceGraphic" in2="effect1_dropShadow_1310_15529" result="shape"/>
</filter>
<filter id="filter1_d_1310_15529" x="756.906" y="35.9883" width="198.975" height="198.703" filterUnits="userSpaceOnUse" color-interpolation-filters="sRGB">
<feFlood flood-opacity="0" result="BackgroundImageFix"/>
<feColorMatrix in="SourceAlpha" type="matrix" values="0 0 0 0 0 0 0 0 0 0 0 0 0 0 0 0 0 0 127 0" result="hardAlpha"/>
<feOffset dy="4"/>
<feGaussianBlur stdDeviation="10"/>
<feComposite in2="hardAlpha" operator="out"/>
<feColorMatrix type="matrix" values="0 0 0 0 0 0 0 0 0 0 0 0 0 0 0 0 0 0 0.2 0"/>
<feBlend mode="normal" in2="BackgroundImageFix" result="effect1_dropShadow_1310_15529"/>
<feBlend mode="normal" in="SourceGraphic" in2="effect1_dropShadow_1310_15529" result="shape"/>
</filter>
<radialGradient id="paint0_radial_1310_15529" cx="0" cy="0" r="1" gradientUnits="userSpaceOnUse" gradientTransform="translate(131.517 131.84) scale(128.347 128.721)">
<stop stop-color="#ABABAB"/>
<stop offset="0.1" stop-color="#B6B6B6"/>
<stop offset="0.49" stop-color="#DEDEDE"/>
<stop offset="0.81" stop-color="#F6F6F6"/>
<stop offset="1" stop-color="white"/>
</radialGradient>
<radialGradient id="paint1_radial_1310_15529" cx="0" cy="0" r="1" gradientUnits="userSpaceOnUse" gradientTransform="translate(131.517 131.839) scale(108.54 108.856)">
<stop stop-color="white"/>
<stop offset="0.75" stop-color="#FDFDFD"/>
<stop offset="1" stop-color="#F7F7F7"/>
</radialGradient>
<linearGradient id="paint2_linear_1310_15529" x1="131.516" y1="46.5643" x2="131.516" y2="217.116" gradientUnits="userSpaceOnUse">
<stop stop-color="white"/>
<stop offset="1" stop-color="#505050"/>
</linearGradient>
<linearGradient id="paint3_linear_1310_15529" x1="131.516" y1="49.4059" x2="131.516" y2="214.27" gradientUnits="userSpaceOnUse">
<stop stop-color="white"/>
<stop offset="1" stop-color="#505050"/>
</linearGradient>
<radialGradient id="paint4_radial_1310_15529" cx="0" cy="0" r="1" gradientUnits="userSpaceOnUse" gradientTransform="translate(493.973 131.339) scale(128.092 128.234)">
<stop stop-color="#FFC300"/>
<stop offset="0.17" stop-color="#FFD039"/>
<stop offset="0.4" stop-color="#FFE17F"/>
<stop offset="0.6" stop-color="#FFEEB6"/>
<stop offset="0.78" stop-color="#FFF7DE"/>
<stop offset="0.92" stop-color="#FFFDF6"/>
<stop offset="1" stop-color="white"/>
</radialGradient>
<radialGradient id="paint5_radial_1310_15529" cx="0" cy="0" r="1" gradientUnits="userSpaceOnUse" gradientTransform="translate(493.973 131.34) scale(108.324 108.444)">
<stop stop-color="white"/>
<stop offset="0.75" stop-color="#FDFDFD"/>
<stop offset="1" stop-color="#F7F7F7"/>
</radialGradient>
<linearGradient id="paint6_linear_1310_15529" x1="493.972" y1="46.3873" x2="493.972" y2="216.293" gradientUnits="userSpaceOnUse">
<stop stop-color="white"/>
<stop offset="1" stop-color="#505050"/>
</linearGradient>
<linearGradient id="paint7_linear_1310_15529" x1="493.972" y1="49.218" x2="493.972" y2="213.458" gradientUnits="userSpaceOnUse">
<stop stop-color="white"/>
<stop offset="1" stop-color="#505050"/>
</linearGradient>
<radialGradient id="paint8_radial_1310_15529" cx="0" cy="0" r="1" gradientUnits="userSpaceOnUse" gradientTransform="translate(856.394 131.339) scale(128.455 128.234)">
<stop stop-color="#5FB3E9"/>
<stop offset="0.15" stop-color="#7FC2ED"/>
<stop offset="0.44" stop-color="#B6DCF5"/>
<stop offset="0.69" stop-color="#DEEFFA"/>
<stop offset="0.88" stop-color="#F6FBFE"/>
<stop offset="1" stop-color="white"/>
</radialGradient>
<radialGradient id="paint9_radial_1310_15529" cx="0" cy="0" r="1" gradientUnits="userSpaceOnUse" gradientTransform="translate(856.393 131.339) scale(108.631 108.444)">
<stop stop-color="white"/>
<stop offset="0.75" stop-color="#FDFDFD"/>
<stop offset="1" stop-color="#F7F7F7"/>
</radialGradient>
<linearGradient id="paint10_linear_1310_15529" x1="856.394" y1="46.3862" x2="856.394" y2="216.291" gradientUnits="userSpaceOnUse">
<stop stop-color="white"/>
<stop offset="1" stop-color="#505050"/>
</linearGradient>
<linearGradient id="paint11_linear_1310_15529" x1="856.394" y1="49.218" x2="856.394" y2="213.458" gradientUnits="userSpaceOnUse">
<stop stop-color="white"/>
<stop offset="1" stop-color="#505050"/>
</linearGradient>
<clipPath id="clip0_1310_15529">
<rect width="370" height="264" fill="white"/>
</clipPath>
<clipPath id="clip1_1310_15529">
<rect width="381" height="263" fill="white" transform="translate(351)"/>
</clipPath>
<clipPath id="clip2_1310_15529">
<rect width="275" height="263" fill="white" transform="translate(713)"/>
</clipPath>
</defs>
</svg>
