<svg width="988" height="264" viewBox="0 0 988 264" fill="none" xmlns="http://www.w3.org/2000/svg">
<g clip-path="url(#clip0_664_18624)">
<path style="mix-blend-mode:multiply" opacity="0.5" d="M131.517 260.56C202.402 260.56 259.865 202.929 259.865 131.839C259.865 60.7477 202.402 3.11719 131.517 3.11719C60.633 3.11719 3.16988 60.7477 3.16988 131.839C3.16988 202.929 60.633 260.56 131.517 260.56Z" fill="url(#paint0_radial_664_18624)"/>
<path d="M131.517 240.697C191.462 240.697 240.057 191.96 240.057 131.841C240.057 71.721 191.462 22.9844 131.517 22.9844C71.5715 22.9844 22.9764 71.721 22.9764 131.841C22.9764 191.96 71.5715 240.697 131.517 240.697Z" fill="url(#paint1_radial_664_18624)"/>
<path d="M211.73 103.505C206.63 88.9478 197.689 76.0503 185.86 66.1853C174.031 56.3203 159.756 49.8572 144.554 47.484C129.353 45.1108 113.794 46.9164 99.535 52.7085C85.2756 58.5007 72.8493 68.0625 63.579 80.3761C54.3087 92.6897 48.5414 107.294 46.8912 122.634C45.241 137.975 47.7695 153.477 54.2077 167.49C60.6459 181.503 70.7527 193.503 83.452 202.212C96.1514 210.922 110.968 216.014 126.324 216.947C128.098 217.061 129.867 217.116 131.633 217.114C145.215 217.086 158.593 213.798 170.649 207.524C182.705 201.25 193.087 192.172 200.929 181.05C208.77 169.928 213.843 157.084 215.722 143.593C217.601 130.102 216.232 116.356 211.73 103.505ZM213.518 136.867C210.752 182.219 171.711 216.86 126.498 214.079C105.185 212.782 85.213 203.214 70.8132 187.402C56.4133 171.591 48.7169 150.778 49.3545 129.374C49.9922 107.969 58.9138 87.654 74.2292 72.7329C89.5446 57.8118 110.051 49.4568 131.403 49.438C133.104 49.438 134.798 49.491 136.53 49.5931C181.747 52.3667 216.283 91.5177 213.518 136.867Z" fill="url(#paint2_linear_664_18624)"/>
<path d="M209.055 104.451C204.128 90.3736 195.486 77.9003 184.05 68.359C172.614 58.8176 158.812 52.5656 144.113 50.2687C129.415 47.9717 114.37 49.7158 100.582 55.3153C86.7934 60.9147 74.7773 70.1599 65.8132 82.0662C56.8491 93.9725 51.2726 108.094 49.6775 122.927C48.0824 137.761 50.5285 152.75 56.7553 166.3C62.982 179.849 72.7563 191.451 85.0373 199.87C97.3182 208.289 111.646 213.21 126.495 214.109C128.215 214.215 129.921 214.268 131.63 214.268C144.758 214.24 157.689 211.06 169.341 204.995C180.994 198.93 191.029 190.155 198.609 179.405C206.189 168.654 211.092 156.24 212.909 143.2C214.727 130.16 213.405 116.874 209.055 104.451ZM210.783 136.7C208.112 180.536 170.373 214.026 126.65 211.34C106.06 210.065 86.773 200.807 72.8696 185.523C58.9662 170.24 51.5375 150.13 52.1557 129.451C52.7738 108.772 61.3903 89.1448 76.1817 74.724C90.973 60.3033 110.779 52.2201 131.407 52.1851C133.052 52.1851 134.705 52.2355 136.365 52.3364C180.073 55.0191 213.458 92.861 210.783 136.7Z" fill="url(#paint3_linear_664_18624)"/>
<path d="M187.676 188.163C218.692 157.057 218.692 106.623 187.676 75.5167C156.66 44.4103 106.373 44.4103 75.3567 75.5167C44.3407 106.623 44.3407 157.057 75.3567 188.163C106.373 219.269 156.66 219.269 187.676 188.163Z" fill="white"/>
<path d="M28.2961 204.843C28.0928 204.543 27.8318 204.287 27.5284 204.089C27.225 203.891 26.8854 203.756 26.5293 203.692C26.1733 203.627 25.808 203.635 25.4548 203.714C25.1017 203.793 24.7678 203.941 24.4726 204.151C24.1775 204.361 23.9271 204.628 23.7361 204.936C23.5451 205.244 23.4173 205.588 23.3601 205.946C23.303 206.304 23.3177 206.67 23.4035 207.023C23.4892 207.375 23.6441 207.707 23.8593 207.999L24.0932 208.332C24.511 208.922 25.1453 209.321 25.8568 209.442C26.5682 209.563 27.2984 209.396 27.8868 208.977C28.4751 208.558 28.8734 207.922 28.9941 207.208C29.1147 206.495 28.9478 205.762 28.53 205.172L28.2961 204.843Z" fill="#0751A0"/>
<path d="M12.4767 89.8489L12.6087 89.4706C12.8504 88.7887 12.8121 88.0384 12.5021 87.3849C12.1922 86.7313 11.6362 86.228 10.9563 85.9857C10.2763 85.7433 9.52828 85.7818 8.87663 86.0926C8.22499 86.4034 7.72314 86.9611 7.48149 87.643L7.34567 88.0214C7.22183 88.3605 7.16635 88.7208 7.18244 89.0816C7.19854 89.4424 7.28589 89.7963 7.43943 90.123C7.59297 90.4496 7.80965 90.7425 8.0769 90.9845C8.34414 91.2265 8.65664 91.4129 8.99626 91.5328C9.33589 91.6528 9.69588 91.704 10.0554 91.6833C10.4149 91.6627 10.7667 91.5707 11.0904 91.4126C11.4142 91.2546 11.7034 91.0336 11.9414 90.7626C12.1794 90.4916 12.3613 90.1759 12.4767 89.8338V89.8489Z" fill="#0751A0"/>
<path d="M16.3542 183.892C16.2078 183.565 15.9986 183.271 15.7386 183.025C15.4786 182.779 15.1728 182.587 14.8388 182.459C14.5047 182.332 14.1489 182.272 13.7917 182.282C13.4345 182.293 13.0828 182.374 12.7568 182.521C12.4308 182.668 12.1369 182.877 11.8917 183.138C11.6465 183.399 11.455 183.706 11.328 184.041C11.201 184.376 11.141 184.732 11.1515 185.091C11.162 185.449 11.2428 185.802 11.3892 186.129L11.5627 186.507C11.7114 186.833 11.9226 187.127 12.1844 187.371C12.4462 187.616 12.7534 187.806 13.0885 187.931C13.4236 188.056 13.78 188.114 14.1374 188.101C14.4948 188.088 14.8462 188.005 15.1714 187.856C15.4967 187.707 15.7895 187.495 16.0331 187.232C16.2768 186.97 16.4664 186.662 16.5913 186.326C16.7162 185.99 16.7739 185.632 16.761 185.274C16.7482 184.915 16.6651 184.563 16.5164 184.237L16.3542 183.892Z" fill="#0751A0"/>
<path d="M5.45549 137.439V137.061C5.42947 136.335 5.11713 135.65 4.58719 135.155C4.05724 134.661 3.35309 134.398 2.62965 134.424C1.9062 134.45 1.22273 134.763 0.729571 135.294C0.236416 135.826 -0.0260208 136.532 -4.87852e-06 137.258V137.67C0.0291879 138.373 0.328102 139.038 0.834298 139.525C1.34049 140.012 2.01482 140.284 2.71642 140.285H2.83338C3.19233 140.272 3.54522 140.188 3.87171 140.038C4.19819 139.888 4.49179 139.675 4.73557 139.41C4.97934 139.145 5.16847 138.835 5.29203 138.497C5.4156 138.159 5.47115 137.799 5.45549 137.439Z" fill="#0751A0"/>
<path d="M8.64687 160.991C8.58817 160.621 8.45394 160.267 8.25257 159.951C8.05119 159.634 7.787 159.363 7.47649 159.154C7.16597 158.945 6.81582 158.803 6.44789 158.736C6.07996 158.668 5.70216 158.678 5.33809 158.764C4.97403 158.85 4.63151 159.01 4.33195 159.234C4.03238 159.459 3.7822 159.743 3.59703 160.069C3.41186 160.395 3.29568 160.755 3.25574 161.128C3.21581 161.501 3.25298 161.878 3.36493 162.236L3.45925 162.634C3.59931 163.231 3.93617 163.764 4.4154 164.145C4.89463 164.527 5.48822 164.736 6.10022 164.737C6.31118 164.736 6.52132 164.711 6.72651 164.662C7.07426 164.58 7.40249 164.43 7.69241 164.221C7.98233 164.011 8.22825 163.747 8.41609 163.442C8.60392 163.137 8.72999 162.798 8.78707 162.445C8.84415 162.091 8.83113 161.73 8.74874 161.381L8.64687 160.991Z" fill="#0751A0"/>
<path d="M3.61528 115.603C3.74644 115.623 3.87882 115.633 4.01142 115.634C4.66436 115.632 5.29515 115.396 5.7889 114.967C6.28264 114.539 6.60648 113.947 6.70144 113.299L6.75803 112.921C6.85234 112.211 6.6646 111.492 6.23533 110.92C5.80607 110.348 5.16968 109.968 4.46352 109.862C3.75736 109.756 3.03803 109.933 2.46077 110.355C1.88352 110.776 1.49462 111.408 1.378 112.115L1.31763 112.523C1.21728 113.237 1.4026 113.961 1.8331 114.538C2.26359 115.116 2.9043 115.498 3.61528 115.603Z" fill="#0751A0"/>
<path d="M107.717 256.314L107.34 256.238C106.989 256.169 106.628 256.171 106.278 256.242C105.928 256.313 105.595 256.453 105.298 256.653C105.002 256.854 104.748 257.11 104.55 257.409C104.353 257.708 104.216 258.043 104.148 258.395C104.08 258.746 104.081 259.108 104.152 259.46C104.223 259.811 104.362 260.145 104.562 260.442C104.762 260.739 105.018 260.994 105.316 261.192C105.614 261.39 105.948 261.527 106.298 261.596L106.71 261.671C106.877 261.704 107.048 261.721 107.219 261.721C107.895 261.718 108.545 261.462 109.043 261.005C109.542 260.547 109.853 259.92 109.915 259.245C109.978 258.571 109.788 257.897 109.382 257.355C108.976 256.813 108.384 256.442 107.721 256.314H107.717Z" fill="#0751A0"/>
<path d="M84.597 249.543L84.2386 249.399C83.9061 249.254 83.5479 249.177 83.1852 249.172C82.8225 249.168 82.4626 249.236 82.1266 249.373C81.7906 249.51 81.4854 249.713 81.2288 249.97C80.9723 250.228 80.7696 250.534 80.6327 250.871C80.4958 251.207 80.4275 251.568 80.4318 251.932C80.4361 252.296 80.5128 252.655 80.6576 252.989C80.8023 253.322 81.0121 253.623 81.2746 253.874C81.5371 254.125 81.8471 254.321 82.1862 254.45L82.5635 254.609C82.8952 254.743 83.2498 254.809 83.607 254.805C83.9643 254.8 84.3173 254.726 84.6457 254.584C84.9741 254.443 85.2717 254.239 85.5213 253.982C85.7709 253.726 85.9677 253.423 86.1005 253.09C86.2333 252.758 86.2994 252.402 86.2951 252.044C86.2909 251.685 86.2163 251.331 86.0756 251.002C85.935 250.672 85.731 250.374 85.4753 250.124C85.2197 249.873 84.9174 249.676 84.5857 249.543H84.597Z" fill="#0751A0"/>
<path d="M44.0174 223.172C43.4966 222.67 42.7984 222.396 42.0763 222.411C41.3543 222.425 40.6676 222.727 40.1673 223.249C39.667 223.772 39.3941 224.472 39.4086 225.196C39.4231 225.92 39.7238 226.609 40.2446 227.111L40.5389 227.391C41.0602 227.892 41.7589 228.166 42.4813 228.151C43.2037 228.136 43.8906 227.834 44.3909 227.311C44.8913 226.788 45.164 226.088 45.1491 225.363C45.1343 224.639 44.833 223.95 44.3117 223.448L44.0174 223.172Z" fill="#0751A0"/>
<path d="M63.2031 238.446L62.8748 238.23C62.27 237.836 61.5336 237.698 60.8279 237.848C60.1221 237.998 59.5047 238.424 59.1114 239.03C58.7182 239.637 58.5814 240.375 58.731 241.083C58.8806 241.791 59.3045 242.41 59.9094 242.805L60.2527 243.028C60.5526 243.233 60.8904 243.376 61.2462 243.448C61.6019 243.52 61.9685 243.52 62.3243 243.448C62.6801 243.376 63.0179 243.233 63.3178 243.028C63.6178 242.823 63.8737 242.56 64.0706 242.254C64.2675 241.948 64.4014 241.606 64.4644 241.247C64.5274 240.889 64.5182 240.521 64.4373 240.166C64.3565 239.811 64.2056 239.476 63.9936 239.181C63.7817 238.885 63.5129 238.635 63.2031 238.446Z" fill="#0751A0"/>
<path d="M353.678 129.27H314.101H274.525C273.951 126.314 272.471 123.611 270.291 121.539C268.111 119.467 265.34 118.13 262.365 117.715C258.849 85.3716 243.55 55.4694 219.401 33.7449C195.253 12.0204 163.956 0.00377552 131.516 0.00048486C114.225 -0.0466703 97.0958 3.34619 81.1207 9.98269C65.1456 16.6192 50.6416 26.3675 38.4482 38.6634C30.5848 46.5437 23.7401 55.3838 18.075 64.976C17.8864 65.2846 17.7608 65.6277 17.7057 65.9853C17.6506 66.343 17.667 66.7081 17.7539 67.0593C17.8409 67.4106 17.9966 67.741 18.2121 68.0313C18.4276 68.3216 18.6986 68.566 19.0092 68.7502C19.3198 68.9345 19.6638 69.0549 20.0213 69.1045C20.3788 69.154 20.7425 69.1318 21.0913 69.039C21.4401 68.9462 21.767 68.7848 22.053 68.5641C22.339 68.3433 22.5783 68.0677 22.7571 67.7533C28.1912 58.5539 34.7585 50.0771 42.304 42.5229C54.0196 30.7714 67.9286 21.4494 83.2366 15.0894C98.5447 8.72945 114.952 5.45598 131.522 5.45598C148.091 5.45598 164.499 8.72945 179.807 15.0894C195.115 21.4494 209.024 30.7714 220.739 42.5229C241.331 63.1901 253.808 89.234 256.928 118.01C253.816 118.789 251.054 120.589 249.079 123.124C247.105 125.66 246.033 128.784 246.033 132C246.033 135.217 247.105 138.341 249.079 140.877C251.054 143.412 253.816 145.212 256.928 145.991C253.808 174.767 241.331 200.818 220.732 221.478C209.045 233.269 195.142 242.618 179.828 248.983C164.514 255.348 148.093 258.603 131.516 258.559C130.795 258.559 130.103 258.847 129.593 259.358C129.082 259.87 128.796 260.564 128.796 261.288C128.796 262.011 129.082 262.705 129.593 263.217C130.103 263.728 130.795 264.016 131.516 264.016C163.976 264.071 195.307 252.073 219.469 230.333C243.63 208.593 258.911 178.652 262.365 146.282C265.34 145.868 268.111 144.531 270.291 142.459C272.471 140.387 273.952 137.684 274.525 134.727H353.678C354.4 134.727 355.092 134.439 355.602 133.928C356.112 133.416 356.398 132.722 356.398 131.999C356.398 131.275 356.112 130.581 355.602 130.07C355.092 129.558 354.4 129.27 353.678 129.27ZM269.348 132.018C269.344 134.394 268.399 136.672 266.72 138.351C265.042 140.029 262.768 140.97 260.398 140.968C258.028 140.966 255.756 140.02 254.081 138.339C252.406 136.657 251.465 134.377 251.465 132C251.465 129.624 252.406 127.344 254.081 125.662C255.756 123.981 258.028 123.035 260.398 123.033C262.768 123.031 265.042 123.972 266.72 125.65C268.399 127.329 269.344 129.607 269.348 131.983C269.348 131.983 269.348 132.01 269.348 132.018Z" fill="#0751A0"/>
<path d="M261.156 136.633C263.698 136.217 265.423 133.814 265.009 131.265C264.595 128.715 262.199 126.985 259.657 127.401C257.115 127.816 255.39 130.219 255.804 132.768C256.218 135.318 258.614 137.048 261.156 136.633Z" fill="#0751A0"/>
<path d="M365.336 136.674C367.912 136.674 370 134.58 370 131.997C370 129.414 367.912 127.32 365.336 127.32C362.761 127.32 360.673 129.414 360.673 131.997C360.673 134.58 362.761 136.674 365.336 136.674Z" fill="#0751A0"/>
</g>
<g clip-path="url(#clip1_664_18624)">
<path style="mix-blend-mode:multiply" opacity="0.5" d="M493.973 259.573C564.716 259.573 622.065 202.161 622.065 131.339C622.065 60.5177 564.716 3.10547 493.973 3.10547C423.23 3.10547 365.881 60.5177 365.881 131.339C365.881 202.161 423.23 259.573 493.973 259.573Z" fill="url(#paint4_radial_664_18624)"/>
<path d="M493.972 239.783C553.798 239.783 602.297 191.231 602.297 131.339C602.297 71.4466 553.798 22.8945 493.972 22.8945C434.147 22.8945 385.648 71.4466 385.648 131.339C385.648 191.231 434.147 239.783 493.972 239.783Z" fill="url(#paint5_radial_664_18624)"/>
<path d="M574.026 103.114C568.936 88.6114 560.013 75.762 548.207 65.934C536.4 56.106 522.152 49.6674 506.98 47.3038C491.808 44.9402 476.28 46.74 462.048 52.5116C447.817 58.2832 435.416 67.8105 426.164 80.0791C416.913 92.3477 411.159 106.898 409.514 122.182C407.869 137.465 410.395 152.909 416.823 166.869C423.251 180.829 433.341 192.782 446.017 201.456C458.694 210.13 473.483 215.2 488.81 216.127C490.583 216.24 492.345 216.293 494.107 216.293C507.662 216.266 521.014 212.99 533.046 206.739C545.078 200.489 555.44 191.446 563.266 180.366C571.091 169.285 576.154 156.49 578.029 143.051C579.904 129.611 578.538 115.917 574.045 103.114H574.026ZM575.814 136.35C573.051 181.531 534.087 216.04 488.964 213.27C467.694 211.977 447.761 202.446 433.39 186.694C419.019 170.942 411.338 150.208 411.974 128.885C412.611 107.561 421.514 87.3233 436.799 72.4588C452.084 57.5942 472.549 49.2709 493.859 49.2521C495.557 49.2521 497.248 49.3049 498.976 49.4067C544.103 52.1697 578.571 91.1725 575.814 136.35Z" fill="url(#paint6_linear_664_18624)"/>
<path d="M571.356 104.058C566.439 90.0344 557.814 77.6083 546.401 68.1031C534.988 58.5979 521.213 52.3696 506.544 50.0813C491.874 47.7931 476.86 49.5306 463.099 55.1088C449.338 60.6871 437.345 69.8972 428.399 81.7584C419.453 93.6196 413.887 107.688 412.296 122.465C410.704 137.242 413.145 152.175 419.359 165.673C425.574 179.171 435.328 190.729 447.585 199.116C459.841 207.503 474.141 212.406 488.96 213.301C490.677 213.407 492.385 213.46 494.085 213.46C507.187 213.432 520.092 210.264 531.721 204.222C543.351 198.18 553.366 189.438 560.931 178.728C568.495 168.018 573.389 155.651 575.203 142.661C577.016 129.67 575.698 116.434 571.356 104.058ZM573.085 136.185C570.415 179.855 532.751 213.218 489.118 210.542C468.571 209.273 449.324 200.051 435.448 184.827C421.572 169.603 414.157 149.573 414.772 128.973C415.386 108.374 423.982 88.8214 438.74 74.4537C453.499 60.0861 473.262 52.0301 493.847 51.9905C495.489 51.9905 497.138 52.0407 498.795 52.1413C542.431 54.8138 575.75 92.5123 573.085 136.185Z" fill="url(#paint7_linear_664_18624)"/>
<g filter="url(#filter0_d_664_18624)">
<path d="M550.022 187.45C580.976 156.461 580.976 106.219 550.022 75.2301C519.068 44.2415 468.881 44.2415 437.927 75.2301C406.972 106.219 406.972 156.461 437.927 187.45C468.881 218.438 519.068 218.438 550.022 187.45Z" fill="white"/>
</g>
<path d="M493.785 5.43558H494.162C494.882 5.43558 495.572 5.14924 496.081 4.63956C496.59 4.12987 496.876 3.43859 496.876 2.71779C496.876 1.99699 496.59 1.30571 496.081 0.796023C495.572 0.286338 494.882 0 494.162 0L493.785 0C493.065 0 492.375 0.286338 491.865 0.796023C491.356 1.30571 491.07 1.99699 491.07 2.71779C491.07 3.43859 491.356 4.12987 491.865 4.63956C492.375 5.14924 493.065 5.43558 493.785 5.43558Z" fill="#F37124"/>
<path d="M591.332 51.5089C591.795 52.0467 592.449 52.3819 593.156 52.4429C593.862 52.5039 594.564 52.2858 595.112 51.8353C595.66 51.3848 596.01 50.7376 596.087 50.0321C596.165 49.3266 595.964 48.6187 595.526 48.0599L595.282 47.7621C594.822 47.2067 594.161 46.8568 593.444 46.7893C592.727 46.7218 592.013 46.9422 591.458 47.4021C590.903 47.862 590.554 48.5236 590.486 49.2415C590.419 49.9594 590.639 50.6746 591.098 51.23L591.332 51.5089Z" fill="#F37124"/>
<path d="M515.92 7.32791L516.297 7.39199C516.455 7.41888 516.615 7.43275 516.775 7.43346C517.454 7.43302 518.108 7.17802 518.608 6.71872C519.109 6.25942 519.419 5.62915 519.478 4.95217C519.537 4.27518 519.341 3.60061 518.927 3.06143C518.514 2.52225 517.914 2.15759 517.246 2.03934L516.869 1.97149C516.16 1.84552 515.429 2.00688 514.839 2.42007C514.248 2.83326 513.845 3.46444 513.72 4.17474C513.594 4.88505 513.755 5.6163 514.168 6.20764C514.58 6.79897 515.211 7.20194 515.92 7.32791Z" fill="#F37124"/>
<path d="M537.352 13.0717L537.691 13.1961C537.992 13.3097 538.311 13.3671 538.632 13.3657C539.274 13.3725 539.898 13.1512 540.392 12.7412C540.887 12.3311 541.22 11.7587 541.333 11.1259C541.446 10.493 541.331 9.84055 541.009 9.28445C540.687 8.72835 540.178 8.3046 539.573 8.08848L539.197 7.95655C538.859 7.82121 538.498 7.75513 538.134 7.76224C537.771 7.76934 537.412 7.84949 537.08 7.99793C536.748 8.14636 536.45 8.36006 536.202 8.62633C535.954 8.8926 535.762 9.20603 535.637 9.548C535.512 9.88997 535.458 10.2535 535.476 10.6171C535.495 10.9806 535.586 11.3368 535.744 11.6644C535.903 11.992 536.125 12.2844 536.399 12.5242C536.673 12.764 536.991 12.9464 537.337 13.0604L537.352 13.0717Z" fill="#F37124"/>
<path d="M575.506 35.4084L575.785 35.6459C576.334 36.1148 577.047 36.346 577.767 36.2887C578.486 36.2315 579.154 35.8904 579.622 35.3406C580.09 34.7907 580.321 34.0771 580.264 33.3568C580.207 32.6364 579.866 31.9683 579.317 31.4995L579.027 31.2884C578.755 31.057 578.44 30.8814 578.1 30.7718C577.761 30.6622 577.403 30.6206 577.047 30.6495C576.691 30.6784 576.345 30.7771 576.027 30.9401C575.709 31.1031 575.427 31.3271 575.196 31.5994C574.965 31.8716 574.789 32.1868 574.68 32.5269C574.57 32.867 574.529 33.2253 574.558 33.5815C574.586 33.9376 574.685 34.2846 574.848 34.6026C575.011 34.9206 575.234 35.2034 575.506 35.4348V35.4084Z" fill="#F37124"/>
<path d="M449.324 13.3787C449.646 13.3773 449.964 13.3199 450.266 13.2091L450.605 13.0809C451.281 12.831 451.83 12.3224 452.131 11.6671C452.433 11.0118 452.462 10.2634 452.212 9.5866C451.963 8.90978 451.455 8.35997 450.8 8.05812C450.146 7.75627 449.398 7.7271 448.722 7.97703L448.364 8.10896C447.764 8.32907 447.26 8.75415 446.941 9.30945C446.623 9.86474 446.51 10.5147 446.623 11.145C446.736 11.7753 447.067 12.3455 447.558 12.7554C448.05 13.1654 448.67 13.3887 449.309 13.3862L449.324 13.3787Z" fill="#F37124"/>
<path d="M557.421 22.5374L557.73 22.7183C558.037 22.913 558.38 23.044 558.739 23.1034C559.097 23.1629 559.464 23.1496 559.818 23.0644C560.171 22.9791 560.504 22.8236 560.796 22.6072C561.089 22.3907 561.335 22.1177 561.519 21.8043C561.704 21.4909 561.824 21.1435 561.873 20.7828C561.921 20.422 561.896 20.0552 561.8 19.7041C561.704 19.3531 561.539 19.0249 561.314 18.7391C561.088 18.4533 560.808 18.2157 560.49 18.0404L560.162 17.8444C559.854 17.6642 559.514 17.5465 559.161 17.4979C558.807 17.4494 558.448 17.4709 558.103 17.5614C557.758 17.6519 557.434 17.8095 557.15 18.0253C556.866 18.241 556.627 18.5106 556.447 18.8188C556.267 19.1269 556.15 19.4675 556.101 19.8212C556.053 20.1748 556.074 20.5346 556.165 20.8799C556.255 21.2252 556.413 21.5493 556.628 21.8337C556.844 22.1181 557.113 22.3572 557.421 22.5374Z" fill="#F37124"/>
<path d="M471.196 7.43555C471.356 7.43657 471.517 7.42269 471.674 7.39408L472.051 7.33C472.408 7.27519 472.751 7.14952 473.059 6.96035C473.367 6.77118 473.634 6.52233 473.845 6.22839C474.056 5.93445 474.206 5.60133 474.286 5.24858C474.367 4.89584 474.376 4.53055 474.314 4.17416C474.251 3.81777 474.118 3.47745 473.923 3.17315C473.727 2.86886 473.473 2.60671 473.175 2.40209C472.877 2.19748 472.541 2.05451 472.187 1.98157C471.833 1.90863 471.468 1.9072 471.113 1.97735L470.737 2.04143C470.068 2.15968 469.468 2.52434 469.055 3.06352C468.642 3.6027 468.446 4.27728 468.505 4.95426C468.564 5.63124 468.874 6.26151 469.374 6.72081C469.875 7.18011 470.529 7.43511 471.207 7.43555H471.196Z" fill="#F37124"/>
<path d="M428.844 23.1102C429.328 23.1105 429.803 22.9802 430.219 22.7333L430.531 22.5486C430.85 22.3743 431.131 22.1377 431.357 21.8529C431.583 21.568 431.749 21.2406 431.846 20.8902C431.943 20.5397 431.969 20.1733 431.922 19.8126C431.876 19.4519 431.757 19.1043 431.573 18.7904C431.39 18.4765 431.145 18.2026 430.854 17.9851C430.563 17.7675 430.231 17.6107 429.878 17.5239C429.526 17.4371 429.159 17.422 428.8 17.4796C428.441 17.5373 428.098 17.6664 427.79 17.8594L427.462 18.0516C426.949 18.3546 426.55 18.8181 426.326 19.3707C426.102 19.9232 426.066 20.5342 426.223 21.1094C426.38 21.6846 426.722 22.1921 427.196 22.5536C427.669 22.9152 428.249 23.1108 428.844 23.1102Z" fill="#F37124"/>
<path d="M392.796 51.9188C393.071 52.1453 393.389 52.3153 393.73 52.419C394.071 52.5226 394.43 52.558 394.784 52.523C395.139 52.488 395.484 52.3833 395.798 52.2149C396.113 52.0466 396.391 51.8179 396.617 51.5418L396.847 51.2629C397.075 50.9881 397.246 50.6712 397.351 50.3301C397.457 49.9891 397.494 49.6306 397.461 49.2751C397.428 48.9197 397.325 48.5742 397.159 48.2585C396.992 47.9428 396.766 47.6629 396.491 47.435C396.217 47.207 395.9 47.0354 395.559 46.9299C395.219 46.8245 394.861 46.7872 394.506 46.8203C394.151 46.8534 393.806 46.9561 393.49 47.1227C393.175 47.2893 392.895 47.5164 392.668 47.7912L392.423 48.089C392.196 48.3648 392.025 48.6827 391.921 49.0246C391.817 49.3664 391.781 49.7255 391.816 50.0813C391.85 50.437 391.955 50.7824 392.123 51.0977C392.291 51.413 392.52 51.692 392.796 51.9188Z" fill="#F37124"/>
<path d="M410.402 36.3243C411.05 36.3233 411.676 36.0907 412.168 35.6684L412.443 35.4309C412.715 35.1995 412.938 34.9167 413.101 34.5987C413.264 34.2807 413.363 33.9337 413.392 33.5776C413.42 33.2214 413.379 32.8631 413.269 32.523C413.16 32.1829 412.985 31.8677 412.753 31.5955C412.522 31.3232 412.24 31.0992 411.922 30.9362C411.604 30.7732 411.258 30.6745 410.902 30.6456C410.546 30.6167 410.188 30.6583 409.849 30.7679C409.509 30.8775 409.194 31.0531 408.922 31.2845L408.632 31.5333C408.21 31.8946 407.909 32.3769 407.769 32.9151C407.629 33.4533 407.658 34.0214 407.851 34.5429C408.044 35.0643 408.392 35.514 408.848 35.8312C409.304 36.1484 409.846 36.3178 410.402 36.3167V36.3243Z" fill="#F37124"/>
<path d="M715.711 128.781H636.715C636.143 125.836 634.666 123.143 632.491 121.079C630.316 119.015 627.551 117.683 624.583 117.269C622.734 99.6048 617.276 82.5104 608.547 67.0481C608.191 66.4202 607.6 65.9597 606.905 65.7678C606.21 65.5759 605.467 65.6683 604.84 66.0247C604.213 66.3811 603.753 66.9723 603.561 67.6682C603.369 68.3642 603.462 69.1079 603.818 69.7357C612.133 84.4697 617.349 100.751 619.146 117.578C616.041 118.354 613.283 120.148 611.313 122.673C609.343 125.199 608.273 128.311 608.273 131.516C608.273 134.72 609.343 137.832 611.313 140.358C613.283 142.883 616.041 144.677 619.146 145.453C616.036 174.12 603.577 200.077 583.018 220.654C571.326 232.361 557.445 241.648 542.168 247.983C526.891 254.319 510.516 257.58 493.98 257.58C477.444 257.58 461.069 254.319 445.792 247.983C430.515 241.648 416.634 232.361 404.942 220.654C384.383 200.077 371.928 174.12 368.814 145.453C371.919 144.677 374.676 142.883 376.647 140.358C378.617 137.832 379.687 134.72 379.687 131.516C379.687 128.311 378.617 125.199 376.647 122.673C374.676 120.148 371.919 118.354 368.814 117.578C370.617 100.75 375.839 84.4693 384.157 69.7357C384.339 69.4245 384.458 69.0801 384.505 68.7226C384.553 68.3651 384.529 68.0017 384.435 67.6535C384.341 67.3053 384.179 66.9793 383.958 66.6945C383.737 66.4098 383.462 66.1719 383.148 65.9948C382.834 65.8177 382.488 65.7049 382.13 65.6629C381.772 65.621 381.41 65.6508 381.063 65.7506C380.717 65.8504 380.394 66.0182 380.114 66.2442C379.833 66.4702 379.6 66.7499 379.428 67.0669C370.704 82.5245 365.246 99.6118 363.392 117.269C359.959 117.744 356.815 119.447 354.539 122.063C352.263 124.678 351.01 128.03 351.01 131.499C351.01 134.967 352.263 138.319 354.539 140.934C356.815 143.55 359.959 145.253 363.392 145.728C366.902 177.95 382.172 207.739 406.274 229.382C430.375 251.025 461.611 262.996 493.987 263C526.381 263.058 557.65 251.108 581.764 229.453C605.878 207.799 621.13 177.974 624.58 145.728C627.549 145.315 630.314 143.983 632.49 141.919C634.666 139.855 636.143 137.162 636.715 134.216H715.711C716.431 134.216 717.122 133.93 717.631 133.42C718.14 132.911 718.426 132.219 718.426 131.499C718.426 130.778 718.14 130.086 717.631 129.577C717.122 129.067 716.431 128.781 715.711 128.781ZM356.43 131.499C356.43 129.732 356.953 128.006 357.933 126.537C358.913 125.069 360.306 123.924 361.936 123.248C363.566 122.573 365.359 122.396 367.09 122.74C368.82 123.085 370.409 123.935 371.657 125.184C372.904 126.433 373.754 128.024 374.098 129.756C374.442 131.489 374.266 133.284 373.591 134.916C372.915 136.548 371.772 137.942 370.305 138.923C368.838 139.905 367.114 140.428 365.35 140.428C362.985 140.425 360.718 139.484 359.045 137.81C357.373 136.136 356.433 133.866 356.43 131.499ZM622.637 140.428C620.872 140.428 619.148 139.905 617.681 138.923C616.214 137.942 615.071 136.548 614.396 134.916C613.721 133.284 613.544 131.489 613.888 129.756C614.232 128.024 615.082 126.433 616.329 125.184C617.577 123.935 619.166 123.085 620.896 122.74C622.627 122.396 624.42 122.573 626.05 123.248C627.68 123.924 629.073 125.069 630.053 126.537C631.034 128.006 631.557 129.732 631.557 131.499C631.555 133.868 630.613 136.14 628.938 137.815C627.263 139.489 624.992 140.429 622.625 140.428H622.637Z" fill="#F37124"/>
<path d="M622.625 136.158C625.195 136.158 627.279 134.072 627.279 131.499C627.279 128.926 625.195 126.84 622.625 126.84C620.054 126.84 617.971 128.926 617.971 131.499C617.971 134.072 620.054 136.158 622.625 136.158Z" fill="#F37124"/>
<path d="M731.646 133.281C732.63 130.904 731.502 128.178 729.127 127.194C726.753 126.209 724.03 127.338 723.047 129.715C722.063 132.092 723.191 134.818 725.565 135.802C727.94 136.787 730.662 135.658 731.646 133.281Z" fill="#F37124"/>
</g>
<g clip-path="url(#clip2_664_18624)">
<path style="mix-blend-mode:multiply" opacity="0.5" d="M856.394 259.577C927.338 259.577 984.849 202.165 984.849 131.343C984.849 60.5216 927.338 3.10938 856.394 3.10938C785.451 3.10938 727.939 60.5216 727.939 131.343C727.939 202.165 785.451 259.577 856.394 259.577Z" fill="url(#paint8_radial_664_18624)"/>
<path d="M856.393 239.786C916.388 239.786 965.023 191.234 965.023 131.342C965.023 71.4505 916.388 22.8984 856.393 22.8984C796.397 22.8984 747.762 71.4505 747.762 131.342C747.762 191.234 796.397 239.786 856.393 239.786Z" fill="url(#paint9_radial_664_18624)"/>
<path d="M936.678 103.117C931.574 88.615 922.626 75.7664 910.787 65.9388C898.948 56.1111 884.661 49.6725 869.447 47.3083C854.233 44.9441 838.661 46.7428 824.39 52.513C810.119 58.2832 797.682 67.8089 788.404 80.0758C779.126 92.3427 773.354 106.892 771.702 122.174C770.051 137.456 772.581 152.899 779.025 166.86C785.468 180.82 795.584 192.774 808.294 201.451C821.004 210.127 835.833 215.2 851.202 216.129C852.979 216.243 854.75 216.298 856.514 216.295C870.108 216.268 883.498 212.993 895.563 206.742C907.629 200.492 918.021 191.448 925.869 180.368C933.717 169.288 938.793 156.493 940.674 143.053C942.554 129.614 941.184 115.92 936.678 103.117ZM938.468 136.352C935.7 181.533 896.623 216.043 851.375 213.272C830.045 211.98 810.056 202.448 795.644 186.697C781.232 170.945 773.529 150.211 774.168 128.888C774.806 107.564 783.735 87.3261 799.063 72.4615C814.391 57.597 834.914 49.2736 856.284 49.2549C857.987 49.2549 859.705 49.3076 861.419 49.4094C906.667 52.1724 941.236 91.1752 938.468 136.352Z" fill="url(#paint10_linear_664_18624)"/>
<path d="M934.001 104.058C929.07 90.0344 920.421 77.6083 908.975 68.1031C897.53 58.5979 883.716 52.3696 869.005 50.0813C854.294 47.7931 839.237 49.5306 825.437 55.1088C811.637 60.6871 799.611 69.8972 790.639 81.7584C781.668 93.6196 776.087 107.688 774.49 122.465C772.894 137.242 775.342 152.175 781.574 165.673C787.806 179.171 797.588 190.729 809.88 199.116C822.171 207.503 836.511 212.406 851.372 213.301C853.089 213.407 854.8 213.46 856.507 213.46C869.647 213.432 882.589 210.265 894.252 204.223C905.914 198.181 915.959 189.44 923.545 178.73C931.131 168.02 936.039 155.653 937.858 142.662C939.678 129.671 938.355 116.434 934.001 104.058ZM935.731 136.185C933.054 179.855 895.283 213.218 851.527 210.542C830.922 209.273 811.62 200.051 797.705 184.827C783.79 169.603 776.353 149.573 776.97 128.973C777.586 108.374 786.206 88.8214 801.006 74.4537C815.806 60.0861 835.625 52.0301 856.269 51.9905C857.921 51.9905 859.575 52.0407 861.231 52.1413C904.994 54.8138 938.427 92.5123 935.731 136.185Z" fill="url(#paint11_linear_664_18624)"/>
<g filter="url(#filter1_d_664_18624)">
<path d="M912.6 187.454C943.642 156.465 943.642 106.223 912.6 75.234C881.558 44.2454 831.229 44.2454 800.187 75.234C769.145 106.223 769.145 156.465 800.187 187.454C831.229 218.442 881.558 218.442 912.6 187.454Z" fill="white"/>
</g>
<path d="M981.385 113.365C981.478 114.012 981.801 114.604 982.295 115.033C982.79 115.462 983.422 115.698 984.077 115.699C984.204 115.699 984.33 115.69 984.455 115.672C984.809 115.621 985.149 115.501 985.456 115.319C985.763 115.137 986.031 114.896 986.245 114.611C986.459 114.325 986.615 114 986.703 113.655C986.791 113.309 986.809 112.949 986.758 112.596L986.702 112.193C986.653 111.837 986.535 111.494 986.353 111.185C986.171 110.875 985.93 110.604 985.643 110.388C985.356 110.171 985.028 110.014 984.68 109.925C984.332 109.836 983.969 109.816 983.613 109.868C983.257 109.92 982.915 110.041 982.606 110.225C982.297 110.41 982.028 110.653 981.815 110.942C981.601 111.231 981.446 111.559 981.36 111.908C981.274 112.256 981.258 112.618 981.313 112.973L981.385 113.365Z" fill="#52B848"/>
<path d="M903.627 248.49L903.25 248.633C902.917 248.765 902.614 248.961 902.358 249.21C902.102 249.459 901.897 249.755 901.755 250.083C901.614 250.411 901.539 250.763 901.533 251.12C901.528 251.477 901.594 251.832 901.726 252.163C901.858 252.495 902.054 252.797 902.304 253.053C902.553 253.309 902.85 253.514 903.179 253.655C903.507 253.796 903.86 253.871 904.217 253.876C904.575 253.881 904.93 253.816 905.262 253.684L905.64 253.533C906.31 253.264 906.845 252.74 907.128 252.077C907.411 251.413 907.418 250.665 907.148 249.996C906.878 249.327 906.353 248.793 905.689 248.51C905.024 248.228 904.274 248.22 903.605 248.49H903.627Z" fill="#52B848"/>
<path d="M924.96 237.416L924.632 237.627C924.325 237.818 924.06 238.067 923.851 238.361C923.643 238.655 923.494 238.987 923.415 239.339C923.337 239.69 923.328 240.054 923.392 240.409C923.455 240.764 923.588 241.102 923.784 241.405C923.979 241.708 924.233 241.969 924.53 242.173C924.828 242.377 925.163 242.52 925.516 242.594C925.87 242.667 926.234 242.67 926.589 242.601C926.943 242.533 927.28 242.395 927.581 242.195L927.928 241.973C928.533 241.58 928.958 240.963 929.107 240.258C929.257 239.553 929.12 238.817 928.727 238.213C928.333 237.609 927.715 237.185 927.009 237.036C926.302 236.886 925.565 237.023 924.96 237.416Z" fill="#52B848"/>
<path d="M943.807 222.478L943.516 222.753C942.996 223.253 942.696 223.939 942.682 224.659C942.668 225.38 942.942 226.077 943.442 226.596C943.943 227.115 944.63 227.415 945.352 227.429C946.074 227.442 946.772 227.169 947.292 226.67L947.575 226.398C948.096 225.898 948.397 225.212 948.411 224.491C948.425 223.77 948.152 223.073 947.651 222.553C947.15 222.033 946.463 221.733 945.741 221.719C945.018 221.705 944.32 221.978 943.799 222.478H943.807Z" fill="#52B848"/>
<path d="M880.563 255.276L880.185 255.347C879.516 255.471 878.918 255.839 878.508 256.381C878.098 256.922 877.905 257.598 877.969 258.273C878.032 258.949 878.347 259.577 878.851 260.033C879.354 260.489 880.011 260.741 880.691 260.738C880.862 260.738 881.033 260.722 881.201 260.689L881.605 260.613C882.314 260.477 882.939 260.065 883.344 259.468C883.749 258.871 883.899 258.138 883.763 257.43C883.626 256.722 883.213 256.098 882.615 255.694C882.017 255.29 881.283 255.139 880.574 255.276H880.563Z" fill="#52B848"/>
<path d="M980.864 88.2585L980.724 87.8816C980.606 87.5447 980.422 87.2344 980.184 86.9684C979.945 86.7024 979.657 86.4858 979.335 86.3311C979.012 86.1764 978.663 86.0865 978.306 86.0667C977.949 86.0469 977.591 86.0974 977.254 86.2155C976.916 86.3335 976.606 86.5168 976.339 86.7548C976.073 86.9928 975.856 87.2808 975.701 87.6025C975.546 87.9242 975.456 88.2732 975.436 88.6296C975.416 88.986 975.467 89.3428 975.585 89.6796L975.713 90.0566C975.899 90.5913 976.246 91.055 976.708 91.3834C977.169 91.7117 977.722 91.8883 978.288 91.8885C978.589 91.8901 978.888 91.8404 979.172 91.7415C979.513 91.6255 979.828 91.4429 980.099 91.2045C980.369 90.9661 980.589 90.6766 980.746 90.3526C980.904 90.0287 980.995 89.6768 981.015 89.3173C981.035 88.9579 980.984 88.598 980.864 88.2585Z" fill="#52B848"/>
<path d="M982.555 158.742C982.207 158.659 981.846 158.646 981.493 158.702C981.139 158.759 980.801 158.884 980.496 159.071C980.191 159.259 979.926 159.504 979.717 159.794C979.507 160.083 979.356 160.411 979.274 160.759L979.183 161.136C979.099 161.483 979.085 161.843 979.141 162.196C979.196 162.548 979.321 162.886 979.507 163.191C979.694 163.496 979.939 163.76 980.228 163.97C980.517 164.181 980.845 164.332 981.192 164.415C981.402 164.466 981.618 164.491 981.834 164.491C982.445 164.49 983.037 164.284 983.516 163.907C983.996 163.53 984.334 163.002 984.477 162.41L984.572 162.01C984.737 161.31 984.618 160.573 984.24 159.96C983.862 159.348 983.256 158.91 982.555 158.742Z" fill="#52B848"/>
<path d="M975.117 182.126C974.792 181.978 974.44 181.896 974.083 181.884C973.726 181.872 973.369 181.931 973.035 182.057C972.7 182.182 972.394 182.373 972.133 182.617C971.872 182.861 971.662 183.154 971.515 183.479L971.353 183.834C971.187 184.16 971.089 184.516 971.064 184.882C971.04 185.247 971.09 185.613 971.211 185.959C971.332 186.304 971.521 186.622 971.768 186.892C972.015 187.163 972.314 187.381 972.647 187.533C972.98 187.686 973.341 187.769 973.708 187.779C974.074 187.789 974.439 187.725 974.78 187.591C975.121 187.456 975.431 187.255 975.692 186.998C975.953 186.741 976.16 186.434 976.299 186.095L976.473 185.718C976.62 185.394 976.702 185.043 976.713 184.687C976.725 184.33 976.666 183.975 976.54 183.642C976.415 183.308 976.224 183.003 975.98 182.743C975.736 182.482 975.442 182.273 975.117 182.126Z" fill="#52B848"/>
<path d="M985.391 134.37C985.034 134.354 984.677 134.409 984.341 134.531C984.005 134.654 983.696 134.841 983.433 135.083C983.169 135.324 982.956 135.615 982.806 135.939C982.655 136.263 982.57 136.614 982.556 136.971V137.367C982.539 137.723 982.594 138.08 982.715 138.415C982.837 138.751 983.024 139.06 983.265 139.323C983.507 139.587 983.798 139.8 984.121 139.952C984.445 140.103 984.796 140.189 985.153 140.205H985.248C985.948 140.205 986.622 139.934 987.128 139.45C987.633 138.967 987.933 138.306 987.963 137.608V137.197C987.993 136.483 987.739 135.786 987.258 135.257C986.777 134.727 986.106 134.409 985.391 134.37Z" fill="#52B848"/>
<path d="M963.348 203.653C963.056 203.444 962.725 203.294 962.374 203.214C962.023 203.133 961.66 203.123 961.305 203.183C960.95 203.244 960.611 203.375 960.307 203.567C960.003 203.76 959.741 204.011 959.535 204.305L959.304 204.629C959.063 204.917 958.885 205.251 958.779 205.61C958.674 205.97 958.644 206.348 958.692 206.719C958.74 207.091 958.864 207.449 959.057 207.77C959.25 208.091 959.507 208.37 959.813 208.587C960.119 208.804 960.466 208.956 960.834 209.033C961.201 209.11 961.58 209.11 961.948 209.034C962.315 208.957 962.663 208.806 962.969 208.589C963.275 208.372 963.533 208.094 963.726 207.773L963.964 207.441C964.385 206.857 964.557 206.13 964.442 205.42C964.327 204.71 963.933 204.074 963.348 203.653Z" fill="#52B848"/>
<path d="M949.539 38.5177C934.554 23.5973 916.192 12.496 896.004 6.15127C875.817 -0.193457 854.396 -1.5952 833.551 2.06441C812.707 5.72402 793.05 14.3375 776.242 27.1774C759.434 40.0173 745.968 56.7065 736.982 75.8355C730.857 88.9118 726.955 102.914 725.435 117.27C721.988 117.739 718.829 119.439 716.542 122.056C714.254 124.672 712.994 128.027 712.994 131.499C712.994 134.972 714.254 138.327 716.542 140.943C718.829 143.559 721.988 145.26 725.435 145.729C728.953 177.95 744.266 207.739 768.434 229.382C792.603 251.025 823.926 262.997 856.393 263.001C857.115 263.001 857.808 262.715 858.318 262.205C858.829 261.696 859.116 261.004 859.116 260.283C859.116 259.563 858.829 258.871 858.318 258.362C857.808 257.852 857.115 257.566 856.393 257.566C839.802 257.609 823.368 254.366 808.041 248.025C792.714 241.684 778.799 232.371 767.103 220.625C746.486 200.043 733.995 174.091 730.876 145.424C733.991 144.648 736.756 142.854 738.731 140.329C740.707 137.803 741.781 134.691 741.781 131.486C741.781 128.282 740.707 125.169 738.731 122.644C736.756 120.118 733.991 118.325 730.876 117.549C733.995 88.9005 746.486 62.9251 767.103 42.3475C778.829 30.6377 792.75 21.3487 808.073 15.0111C823.396 8.67353 839.819 5.41158 856.404 5.41158C872.99 5.41158 889.413 8.67353 904.736 15.0111C920.059 21.3487 933.98 30.6377 945.706 42.3475C953.411 50.0277 960.097 58.6638 965.598 68.044C965.778 68.3522 966.018 68.6218 966.303 68.8376C966.588 69.0533 966.912 69.2109 967.258 69.3014C967.604 69.3919 967.965 69.4134 968.319 69.3649C968.673 69.3164 969.014 69.1986 969.323 69.0184C969.632 68.8383 969.902 68.5991 970.118 68.3147C970.334 68.0304 970.492 67.7063 970.582 67.361C970.673 67.0157 970.695 66.6559 970.646 66.3023C970.597 65.9486 970.48 65.608 970.299 65.2999C964.556 55.5223 957.578 46.5214 949.539 38.5177ZM736.336 131.499C736.336 133.266 735.812 134.992 734.829 136.461C733.846 137.929 732.449 139.074 730.814 139.749C729.18 140.425 727.381 140.602 725.646 140.258C723.911 139.913 722.317 139.063 721.066 137.814C719.815 136.565 718.963 134.974 718.618 133.241C718.272 131.509 718.45 129.714 719.127 128.082C719.804 126.45 720.95 125.056 722.421 124.074C723.892 123.093 725.622 122.569 727.391 122.569C729.763 122.571 732.037 123.513 733.714 125.187C735.391 126.861 736.334 129.132 736.336 131.499Z" fill="#52B848"/>
</g>
<defs>
<filter id="filter0_d_664_18624" x="394.711" y="35.9883" width="198.527" height="198.703" filterUnits="userSpaceOnUse" color-interpolation-filters="sRGB">
<feFlood flood-opacity="0" result="BackgroundImageFix"/>
<feColorMatrix in="SourceAlpha" type="matrix" values="0 0 0 0 0 0 0 0 0 0 0 0 0 0 0 0 0 0 127 0" result="hardAlpha"/>
<feOffset dy="4"/>
<feGaussianBlur stdDeviation="10"/>
<feComposite in2="hardAlpha" operator="out"/>
<feColorMatrix type="matrix" values="0 0 0 0 0 0 0 0 0 0 0 0 0 0 0 0 0 0 0.2 0"/>
<feBlend mode="normal" in2="BackgroundImageFix" result="effect1_dropShadow_664_18624"/>
<feBlend mode="normal" in="SourceGraphic" in2="effect1_dropShadow_664_18624" result="shape"/>
</filter>
<filter id="filter1_d_664_18624" x="756.906" y="35.9922" width="198.976" height="198.703" filterUnits="userSpaceOnUse" color-interpolation-filters="sRGB">
<feFlood flood-opacity="0" result="BackgroundImageFix"/>
<feColorMatrix in="SourceAlpha" type="matrix" values="0 0 0 0 0 0 0 0 0 0 0 0 0 0 0 0 0 0 127 0" result="hardAlpha"/>
<feOffset dy="4"/>
<feGaussianBlur stdDeviation="10"/>
<feComposite in2="hardAlpha" operator="out"/>
<feColorMatrix type="matrix" values="0 0 0 0 0 0 0 0 0 0 0 0 0 0 0 0 0 0 0.2 0"/>
<feBlend mode="normal" in2="BackgroundImageFix" result="effect1_dropShadow_664_18624"/>
<feBlend mode="normal" in="SourceGraphic" in2="effect1_dropShadow_664_18624" result="shape"/>
</filter>
<radialGradient id="paint0_radial_664_18624" cx="0" cy="0" r="1" gradientUnits="userSpaceOnUse" gradientTransform="translate(131.517 131.839) scale(128.347 128.721)">
<stop stop-color="#ABABAB"/>
<stop offset="0.1" stop-color="#B6B6B6"/>
<stop offset="0.49" stop-color="#DEDEDE"/>
<stop offset="0.81" stop-color="#F6F6F6"/>
<stop offset="1" stop-color="white"/>
</radialGradient>
<radialGradient id="paint1_radial_664_18624" cx="0" cy="0" r="1" gradientUnits="userSpaceOnUse" gradientTransform="translate(131.517 131.841) scale(108.54 108.856)">
<stop stop-color="white"/>
<stop offset="0.75" stop-color="#FDFDFD"/>
<stop offset="1" stop-color="#F7F7F7"/>
</radialGradient>
<linearGradient id="paint2_linear_664_18624" x1="131.516" y1="46.5623" x2="131.516" y2="217.114" gradientUnits="userSpaceOnUse">
<stop stop-color="white"/>
<stop offset="1" stop-color="#0751A0"/>
</linearGradient>
<linearGradient id="paint3_linear_664_18624" x1="131.517" y1="49.404" x2="131.517" y2="214.268" gradientUnits="userSpaceOnUse">
<stop stop-color="white"/>
<stop offset="1" stop-color="#0751A0"/>
</linearGradient>
<radialGradient id="paint4_radial_664_18624" cx="0" cy="0" r="1" gradientUnits="userSpaceOnUse" gradientTransform="translate(493.973 131.339) scale(128.092 128.234)">
<stop stop-color="#FFC300"/>
<stop offset="0.17" stop-color="#FFD039"/>
<stop offset="0.4" stop-color="#FFE17F"/>
<stop offset="0.6" stop-color="#FFEEB6"/>
<stop offset="0.78" stop-color="#FFF7DE"/>
<stop offset="0.92" stop-color="#FFFDF6"/>
<stop offset="1" stop-color="white"/>
</radialGradient>
<radialGradient id="paint5_radial_664_18624" cx="0" cy="0" r="1" gradientUnits="userSpaceOnUse" gradientTransform="translate(493.972 131.339) scale(108.324 108.444)">
<stop stop-color="white"/>
<stop offset="0.75" stop-color="#FDFDFD"/>
<stop offset="1" stop-color="#F7F7F7"/>
</radialGradient>
<linearGradient id="paint6_linear_664_18624" x1="493.972" y1="46.3873" x2="493.972" y2="216.293" gradientUnits="userSpaceOnUse">
<stop stop-color="white"/>
<stop offset="1" stop-color="#F37124"/>
</linearGradient>
<linearGradient id="paint7_linear_664_18624" x1="493.972" y1="49.2199" x2="493.972" y2="213.46" gradientUnits="userSpaceOnUse">
<stop stop-color="white"/>
<stop offset="1" stop-color="#F37124"/>
</linearGradient>
<radialGradient id="paint8_radial_664_18624" cx="0" cy="0" r="1" gradientUnits="userSpaceOnUse" gradientTransform="translate(856.394 131.343) scale(128.455 128.234)">
<stop stop-color="#5FB3E9"/>
<stop offset="0.15" stop-color="#7FC2ED"/>
<stop offset="0.44" stop-color="#B6DCF5"/>
<stop offset="0.69" stop-color="#DEEFFA"/>
<stop offset="0.88" stop-color="#F6FBFE"/>
<stop offset="1" stop-color="white"/>
</radialGradient>
<radialGradient id="paint9_radial_664_18624" cx="0" cy="0" r="1" gradientUnits="userSpaceOnUse" gradientTransform="translate(856.393 131.342) scale(108.631 108.444)">
<stop stop-color="white"/>
<stop offset="0.75" stop-color="#FDFDFD"/>
<stop offset="1" stop-color="#F7F7F7"/>
</radialGradient>
<linearGradient id="paint10_linear_664_18624" x1="856.394" y1="46.3901" x2="856.394" y2="216.295" gradientUnits="userSpaceOnUse">
<stop stop-color="white"/>
<stop offset="1" stop-color="#52B848"/>
</linearGradient>
<linearGradient id="paint11_linear_664_18624" x1="856.394" y1="49.2199" x2="856.394" y2="213.46" gradientUnits="userSpaceOnUse">
<stop stop-color="white"/>
<stop offset="1" stop-color="#52B848"/>
</linearGradient>
<clipPath id="clip0_664_18624">
<rect width="370" height="264" fill="white"/>
</clipPath>
<clipPath id="clip1_664_18624">
<rect width="381" height="263" fill="white" transform="translate(351)"/>
</clipPath>
<clipPath id="clip2_664_18624">
<rect width="275" height="263" fill="white" transform="translate(713)"/>
</clipPath>
</defs>
</svg>
