<svg width="24" height="24" viewBox="0 0 24 24" fill="none" xmlns="http://www.w3.org/2000/svg">
<path d="M14.8457 14.0389L14.4814 14.4225C14.4814 14.4225 13.6153 15.3344 11.2513 12.8455C8.88727 10.3566 9.75334 9.44484 9.75334 9.44484L9.9828 9.20327C10.548 8.60818 10.6013 7.65275 10.1082 6.95526L9.09939 5.52847C8.48901 4.66518 7.30955 4.55114 6.60994 5.28769L5.35426 6.60969C5.00736 6.97491 4.7749 7.44834 4.80309 7.97353C4.87521 9.31715 5.44935 12.208 8.65307 15.5809C12.0505 19.1578 15.2383 19.2999 16.5418 19.1713C16.9541 19.1306 17.3127 18.9082 17.6017 18.604L18.7381 17.4075C19.5052 16.5999 19.289 15.2153 18.3074 14.6504L16.779 13.7706C16.1346 13.3997 15.3494 13.5087 14.8457 14.0389Z" fill="#0751A0"/>
<path d="M13.0076 3.90426C13.0605 3.57714 13.3698 3.35524 13.6969 3.4082C13.7171 3.41208 13.7823 3.42425 13.8164 3.43186C13.8847 3.44706 13.9799 3.47047 14.0986 3.50505C14.3361 3.5742 14.6677 3.68812 15.0658 3.87063C15.8629 4.23604 16.9235 4.87524 18.0241 5.97588C19.1248 7.07652 19.764 8.13717 20.1294 8.93419C20.3119 9.33229 20.4258 9.66397 20.495 9.90139C20.5296 10.0201 20.553 10.1153 20.5682 10.1836C20.5758 10.2177 20.5813 10.2451 20.5852 10.2654L20.5898 10.2903C20.6428 10.6175 20.4229 10.9395 20.0958 10.9924C19.7696 11.0452 19.4623 10.8244 19.4081 10.4988C19.4064 10.4901 19.4018 10.4666 19.3969 10.4445C19.387 10.4002 19.3699 10.3299 19.3429 10.237C19.2887 10.0511 19.1947 9.77484 19.0386 9.43429C18.7267 8.75405 18.1659 7.8147 17.1756 6.82441C16.1853 5.83412 15.246 5.27332 14.5657 4.96146C14.2252 4.80533 13.9489 4.71131 13.7631 4.65717C13.6701 4.6301 13.5533 4.60329 13.509 4.59343C13.1834 4.53917 12.9548 4.23043 13.0076 3.90426Z" fill="#0751A0"/>
<path fill-rule="evenodd" clip-rule="evenodd" d="M13.1886 6.66383C13.2796 6.34521 13.6117 6.16071 13.9303 6.25175L13.7655 6.82866C13.9303 6.25175 13.9303 6.25175 13.9303 6.25175L13.9315 6.25208L13.9327 6.25243L13.9354 6.25321L13.9416 6.25506L13.9574 6.25999C13.9695 6.26385 13.9845 6.26887 14.0025 6.27525C14.0384 6.288 14.0859 6.30613 14.1442 6.33109C14.2607 6.38104 14.42 6.45818 14.6156 6.57394C15.0071 6.80569 15.5417 7.19063 16.1697 7.81861C16.7976 8.44659 17.1826 8.98114 17.4143 9.37271C17.5301 9.56832 17.6072 9.72757 17.6572 9.84412C17.6821 9.90236 17.7003 9.94985 17.713 9.98578C17.7194 10.0037 17.7244 10.0188 17.7283 10.0309L17.7332 10.0467L17.7351 10.0529L17.7358 10.0556L17.7362 10.0568C17.7362 10.0568 17.7365 10.0579 17.1596 10.2228L17.7365 10.0579C17.8276 10.3766 17.6431 10.7087 17.3244 10.7997C17.0085 10.8899 16.6794 10.7093 16.5851 10.3957L16.5821 10.3871C16.5779 10.375 16.569 10.3514 16.5542 10.3168C16.5246 10.2478 16.4709 10.1348 16.3816 9.98389C16.2033 9.6825 15.8811 9.2271 15.3211 8.66714C14.7612 8.10718 14.3058 7.78501 14.0044 7.60664C13.8535 7.51734 13.7405 7.46367 13.6715 7.43406C13.6369 7.41925 13.6132 7.41043 13.6012 7.40616L13.5926 7.4032C13.2789 7.3089 13.0983 6.97974 13.1886 6.66383Z" fill="#0751A0"/>
</svg>
