<svg width="34" height="32" viewBox="0 0 34 32" fill="none" xmlns="http://www.w3.org/2000/svg">
<g clip-path="url(#clip0_1025_40040)">
<path d="M32.4022 12.7066C32.0314 14.461 30.9301 16.0604 29.231 17.0234L28.1352 17.6433C28.1961 17.1894 28.2293 16.719 28.2293 16.2431C28.2293 10.1995 23.2317 5.30152 17.0719 5.30152C10.9121 5.30152 5.9145 10.1995 5.9145 16.2375C5.9145 20.7924 8.74259 24.6886 12.7716 26.3378L10.0764 27.8653L9.46206 28.214C9.25729 28.3302 9.04698 28.4354 8.83114 28.5239C8.56549 28.6457 8.29984 28.7398 8.02865 28.8117L3.88337 24.4506L5.2393 23.3493L3.88337 19.2649H1.59766V13.1659L3.31333 13.2379L5.10094 8.95977L3.95532 7.37139L8.22235 3.1431L9.27389 4.47689L14.0556 2.94386V1.22266H19.8944V2.94386L23.9512 4.40495L25.7056 2.94386L30.0446 7.2607L28.6111 8.88782L30.4707 12.7066H32.4022Z" fill="url(#paint0_linear_1025_40040)"/>
<path d="M13.9889 0.691406H19.8222V2.44582L23.8789 3.93457L25.6388 2.44582L29.9723 6.84568L28.5444 8.506L30.404 12.3967H32.4739V18.6617L30.6862 18.7391L28.6164 22.9453L29.9723 24.589L25.7495 28.9501L24.2663 27.6828L20.3258 29.4372V31.3078H13.9889V29.4372L9.5669 27.6828L8.22204 29.094L3.81111 24.3732L5.17257 23.2497L3.81111 19.0878H1.52539V12.8671L3.24106 12.9391L5.02868 8.57795L3.88305 6.95637L8.15562 2.63952L9.20716 4.00099L13.9889 2.44582V0.691406Z" stroke="#0C4578" stroke-width="1.25" stroke-linejoin="round"/>
<path d="M16.9992 27.1585C23.1612 27.1585 28.1566 22.1632 28.1566 16.0011C28.1566 9.83908 23.1612 4.84375 16.9992 4.84375C10.8371 4.84375 5.8418 9.83908 5.8418 16.0011C5.8418 22.1632 10.8371 27.1585 16.9992 27.1585Z" stroke="#0C4578" stroke-width="1.25" stroke-miterlimit="10"/>
<path d="M15.8537 11.8645L10.4023 13.9122V15.2294H23.2754V13.962L17.8627 11.87C17.2152 11.6209 16.4957 11.6154 15.8482 11.8589L15.8537 11.8645Z" fill="url(#paint1_linear_1025_40040)"/>
<path d="M16.3027 20.5152V15.2852H17.9465V20.5152" stroke="#0C4578" stroke-miterlimit="10"/>
<path d="M20.293 20.5152V15.2852H21.9533V20.5152" stroke="#0C4578" stroke-miterlimit="10"/>
<path d="M12.0957 20.5152V15.2852H13.8335V20.5152" stroke="#0C4578" stroke-miterlimit="10"/>
<path d="M17.0222 9.70312L10.3145 13.3226V15.2874H23.6856V13.4001L17.0222 9.70312Z" stroke="#0C4578" stroke-linejoin="round"/>
<path d="M23.1751 20.5156H10.8223V22.0265H23.1751V20.5156Z" stroke="#0C4578" stroke-linejoin="round"/>
</g>
<defs>
<linearGradient id="paint0_linear_1025_40040" x1="1.59766" y1="15.02" x2="32.4022" y2="15.02" gradientUnits="userSpaceOnUse">
<stop stop-color="#176AB4"/>
<stop offset="1" stop-color="#B1FFC7"/>
</linearGradient>
<linearGradient id="paint1_linear_1025_40040" x1="10.4023" y1="13.4584" x2="23.2754" y2="13.4584" gradientUnits="userSpaceOnUse">
<stop stop-color="#C21500"/>
<stop offset="0.52" stop-color="#F37429"/>
<stop offset="1" stop-color="#FFD1B0"/>
</linearGradient>
<clipPath id="clip0_1025_40040">
<rect width="32.3321" height="32" fill="white" transform="translate(0.833984)"/>
</clipPath>
</defs>
</svg>
