<svg width="24" height="24" viewBox="0 0 24 24" fill="none" xmlns="http://www.w3.org/2000/svg">
<path d="M18 1.99707H6C4.34 1.99707 3 3.32707 3 4.96707V15.8771C3 17.5171 4.34 18.8471 6 18.8471H6.76C7.56 18.8471 8.32 19.1571 8.88 19.7171L10.59 21.4071C11.37 22.1771 12.64 22.1771 13.42 21.4071L15.13 19.7171C15.69 19.1571 16.46 18.8471 17.25 18.8471H18C19.66 18.8471 21 17.5171 21 15.8771V4.96707C21 3.32707 19.66 1.99707 18 1.99707ZM12 5.74707C13.29 5.74707 14.33 6.78707 14.33 8.07707C14.33 9.36707 13.29 10.4071 12 10.4071C10.71 10.4071 9.67 9.35707 9.67 8.07707C9.67 6.78707 10.71 5.74707 12 5.74707ZM14.68 15.0571H9.32C8.51 15.0571 8.04 14.1571 8.49 13.4871C9.17 12.4771 10.49 11.7971 12 11.7971C13.51 11.7971 14.83 12.4771 15.51 13.4871C15.96 14.1571 15.48 15.0571 14.68 15.0571Z" fill="#505050"/>
</svg>
