<svg width="468" height="490" viewBox="0 0 468 490" fill="none" xmlns="http://www.w3.org/2000/svg">
<g filter="url(#filter0_d_653_18623)">
<path d="M247.631 344L218 368.531L254 382L247.631 344L218 368.531L254 382L247.631 344Z" fill="white"/>
<path d="M281 466V381.542C250.222 380.845 220.851 368.502 198.799 347L139 406.719C176.968 444.004 227.816 465.232 281 466Z" fill="white"/>
</g>
<g filter="url(#filter1_d_653_18623)">
<path d="M249.927 168L254 129L218 144.999L249.927 168L254 129L218 144.999L249.927 168Z" fill="white"/>
<path d="M198.789 168C220.839 146.488 250.215 134.136 281 133.431V49C227.812 49.7751 176.964 71.0097 139 108.3L198.789 168Z" fill="white"/>
</g>
<g filter="url(#filter2_d_653_18623)">
<path d="M327.129 166L359 143.761L324 127L327.129 166L359 143.761L324 127L327.129 166Z" fill="white"/>
<path d="M286 133.654C317.404 134.103 347.481 146.369 370.218 168L430 108.142C391.469 70.5761 339.856 49.3778 286 49V133.654Z" fill="white"/>
</g>
<g filter="url(#filter3_d_653_18623)">
<path d="M198 291.452L160 288L176.14 324L198 291.452L160 288L176.14 324L198 291.452Z" fill="white"/>
<path d="M195 343.846C173.633 321.499 161.384 291.945 160.663 261H76C76.641 314.504 97.7982 365.708 135.086 404L195 343.846Z" fill="white"/>
</g>
<g filter="url(#filter4_d_653_18623)">
<path d="M199 223.528L173.895 193L160 230L199 223.528L173.895 193L160 230L199 223.528Z" fill="white"/>
<path d="M160.675 255C161.484 223.997 173.705 194.381 195 171.818L135.111 112C97.7715 150.305 76.6067 201.493 76 254.962L160.675 255Z" fill="white"/>
</g>
<path d="M367.849 276.793C377.908 233.36 350.853 189.996 307.42 179.936C263.987 169.877 220.623 196.932 210.564 240.365C200.504 283.798 227.559 327.162 270.992 337.222C314.425 347.281 357.789 320.226 367.849 276.793Z" fill="url(#paint0_linear_653_18623)"/>
<path d="M359.31 274.914C368.334 236.195 344.262 197.492 305.544 188.468C266.825 179.443 228.122 203.515 219.098 242.234C210.073 280.952 234.145 319.656 272.864 328.68C311.582 337.704 350.286 313.632 359.31 274.914Z" fill="white"/>
<path d="M263.638 226.671L257.675 232.644L260.55 238.504C259.477 240.067 258.529 241.712 257.713 243.423L251.184 243.862L249.013 251.994L254.436 255.633C254.344 256.588 254.302 257.547 254.31 258.506C254.31 259.46 254.31 260.426 254.423 261.38L249 265.006L251.172 273.15L257.713 273.589C258.518 275.304 259.462 276.949 260.537 278.508L257.662 284.369L263.626 290.342L269.489 287.455C271.055 288.534 272.705 289.487 274.422 290.304L274.849 296.817L282.997 299L286.638 293.579C287.567 293.579 288.533 293.679 289.475 293.679C290.416 293.679 291.408 293.679 292.362 293.554L296.003 298.975L304.138 296.791L304.59 290.279C306.301 289.456 307.946 288.504 309.511 287.43L315.374 290.317L321.338 284.343L318.463 278.483C319.535 276.92 320.484 275.275 321.3 273.564L327.816 273.125L330 264.981L324.577 261.355C324.639 260.414 324.69 259.447 324.677 258.506C324.664 257.565 324.677 256.586 324.564 255.633L330 252.031L327.828 243.875L321.312 243.448C320.483 241.739 319.526 240.095 318.45 238.529L321.338 232.669L315.349 226.671L309.474 229.557C307.91 228.485 306.264 227.537 304.553 226.721L304.126 220.196L295.978 218.013L292.337 223.446C291.383 223.371 290.416 223.321 289.45 223.333C288.483 223.346 287.542 223.333 286.6 223.421L282.972 218L274.862 220.196L274.422 226.734C272.706 227.536 271.06 228.48 269.501 229.557L263.638 226.671ZM307.955 240.035C311.603 243.684 314.088 248.333 315.094 253.393C316.099 258.453 315.582 263.698 313.606 268.464C311.63 273.23 308.285 277.303 303.993 280.169C299.701 283.035 294.655 284.565 289.494 284.565C284.332 284.565 279.287 283.035 274.995 280.169C270.703 277.303 267.358 273.23 265.382 268.464C263.406 263.698 262.888 258.453 263.894 253.393C264.9 248.333 267.384 243.684 271.033 240.035C273.457 237.611 276.334 235.688 279.502 234.376C282.67 233.064 286.065 232.389 289.494 232.389C292.923 232.389 296.318 233.064 299.485 234.376C302.653 235.688 305.531 237.611 307.955 240.035Z" fill="url(#paint1_linear_653_18623)"/>
<path d="M78 52H160V86" stroke="#0751A0" stroke-linecap="round" stroke-dasharray="5 5"/>
<path d="M259 1H341V55" stroke="#0751A0" stroke-linecap="round" stroke-dasharray="5 5"/>
<path d="M1 166H83V198.5" stroke="#0751A0" stroke-linecap="round" stroke-dasharray="5 5"/>
<path d="M4 349H86V325" stroke="#0751A0" stroke-linecap="round" stroke-dasharray="5 5"/>
<path d="M117 474H199V450" stroke="#0751A0" stroke-linecap="round" stroke-dasharray="5 5"/>
<g clip-path="url(#clip0_653_18623)">
<mask id="mask0_653_18623" style="mask-type:luminance" maskUnits="userSpaceOnUse" x="429" y="-1" width="39" height="39">
<path d="M467.632 -0.363281H429.994V37.2743H467.632V-0.363281Z" fill="white"/>
</mask>
<g mask="url(#mask0_653_18623)">
<path d="M467.624 30.2275V33.6746C467.451 33.8707 467.447 34.1431 467.33 34.3666C466.712 35.5104 465.742 36.0005 464.47 36.0005C454.031 36.0005 443.593 36.0005 433.156 36.0005C433.094 36.0005 433.034 36.0005 432.973 36.0005C431.573 35.9623 430.568 35.2164 430.118 33.8893C430.093 33.8148 430.103 33.7119 430 33.6786V30.2275C430.223 29.8138 430.481 29.4434 430.99 29.3385C431.265 29.2797 431.664 29.4365 431.788 29.2326C431.911 29.0288 431.761 28.673 431.761 28.3828C431.761 21.8335 431.761 15.2842 431.761 8.73485C431.756 8.53975 431.768 8.34455 431.798 8.15166C432.035 6.87747 433.063 6.04631 434.415 6.04533C438.858 6.04141 443.301 6.04337 447.745 6.05121C448.071 6.05969 448.389 5.94491 448.635 5.72972C450.532 4.17629 452.699 2.98489 455.027 2.21492C457.342 1.43865 459.732 1.07893 462.162 1.0015C463.017 0.974058 463.376 1.32103 463.338 2.17768C463.299 3.34992 463.186 4.51858 463.001 5.67679C462.968 5.87282 462.918 6.03749 463.248 6.04925C464.887 6.1061 465.867 7.13917 465.867 8.76915C465.867 15.3035 465.867 21.8404 465.867 28.3799C465.867 28.5994 465.886 28.8229 465.817 29.0356C465.749 29.2483 465.842 29.3238 466.047 29.3052C466.793 29.2375 467.32 29.5414 467.624 30.2275ZM446.308 7.85272C446.169 7.77528 446.045 7.80665 445.927 7.80665C442.144 7.80665 438.36 7.80665 434.576 7.80665C433.769 7.80469 433.523 8.04874 433.523 8.8505C433.523 15.3195 433.523 21.7845 433.523 28.2456C433.523 29.0778 433.752 29.3052 434.593 29.3052H463.025C463.885 29.3052 464.103 29.0846 464.103 28.2162V8.89559C464.103 8.79758 464.103 8.69956 464.103 8.60155C464.083 8.14284 463.809 7.84978 463.352 7.81057C463.195 7.79587 463.034 7.81841 462.876 7.80175C462.64 7.77822 462.539 7.86742 462.474 8.10363C461.411 12.0144 459.352 15.3195 456.351 18.0423C456.263 18.1133 456.193 18.2043 456.146 18.3077C456.1 18.4111 456.079 18.5241 456.085 18.6373C456.097 19.9114 456.085 21.1788 456.095 22.45C456.101 22.6201 456.072 22.7896 456.012 22.9487C455.951 23.1078 455.86 23.2534 455.744 23.3772C453.891 25.4851 451.489 27.0361 448.806 27.8565C448.022 28.1006 447.502 27.7154 447.5 26.893C447.5 25.8541 447.49 24.8151 447.5 23.7771C447.5 23.4831 447.428 23.4556 447.17 23.5546C446.371 23.8604 445.564 24.1427 444.76 24.4368C444.547 24.5142 444.322 24.5632 444.115 24.475C443.908 24.3868 443.821 24.475 443.713 24.6406C442.26 26.9165 440.118 27.8477 437.479 27.7889C436.839 27.7742 436.514 27.4439 436.493 26.8087C436.464 26.0386 436.543 25.2682 436.728 24.5201C437.155 22.8235 438.15 21.5424 439.611 20.6073C439.798 20.4878 439.914 20.3947 439.807 20.1506C439.718 19.9546 439.779 19.7419 439.851 19.5429C440.135 18.7637 440.414 17.9825 440.702 17.2043C440.849 16.8122 440.856 16.8122 440.447 16.8122C439.431 16.8122 438.415 16.8122 437.398 16.8122C436.548 16.8122 436.18 16.3025 436.435 15.4861C437.257 12.8012 438.815 10.4006 440.933 8.55646C441.176 8.33092 441.499 8.21019 441.831 8.22027C443.106 8.23105 444.38 8.22027 445.654 8.23105C445.958 8.23889 446.167 8.15166 446.308 7.85272ZM454.106 4.43985C454.029 4.47024 453.916 4.51042 453.806 4.55943C452.473 5.14907 451.217 5.89815 450.066 6.79024C447.231 8.98576 445.2 11.8135 443.601 14.9823C443.467 15.2499 443.628 15.2479 443.798 15.2989C446.469 16.0928 448.204 17.8244 449 20.4936C449.08 20.7583 449.142 20.7877 449.384 20.6652C451.096 19.8183 452.713 18.7929 454.209 17.6061C456.6 15.6802 458.488 13.3592 459.75 10.5491C459.819 10.3972 459.894 10.2551 459.864 10.059C459.74 9.18775 459.458 8.34642 459.032 7.57631C457.95 5.68954 456.248 4.76036 454.106 4.43985ZM448.797 34.2363H464.338C464.485 34.2408 464.633 34.2376 464.779 34.2265C465.422 34.1608 465.85 33.6991 465.858 33.0503C465.865 32.4877 465.851 31.9251 465.864 31.3635C465.87 31.1439 465.814 31.0694 465.581 31.0694C463.487 31.0773 461.393 31.0773 459.298 31.0694C459.221 31.0583 459.143 31.0778 459.079 31.1238C459.016 31.1697 458.974 31.2385 458.96 31.3154C458.796 31.8525 458.619 32.3857 458.443 32.918C458.266 33.4502 457.995 33.658 457.445 33.658C451.689 33.658 445.933 33.658 440.177 33.658C439.645 33.658 439.357 33.4472 439.191 32.9493C439.011 32.4191 438.837 31.8839 438.675 31.3488C438.617 31.1606 438.541 31.0694 438.323 31.0704C436.232 31.0782 434.138 31.0782 432.041 31.0704C431.845 31.0704 431.754 31.1096 431.76 31.3311C431.775 31.9192 431.754 32.5073 431.768 33.0954C431.77 33.3739 431.874 33.6421 432.06 33.849C432.247 34.0559 432.503 34.1871 432.78 34.2176C432.938 34.2353 433.097 34.2422 433.256 34.2382L448.797 34.2363ZM447.415 21.4258C447.41 21.3807 447.408 21.3562 447.403 21.3277C447.186 20.2292 446.646 19.2204 445.853 18.43C445.06 17.6397 444.049 17.1038 442.95 16.8906C442.782 16.8583 442.703 16.9249 442.648 17.072C442.347 17.8708 442.047 18.6706 441.736 19.4655C441.704 19.5302 441.695 19.6041 441.712 19.6746C441.728 19.745 441.768 19.8076 441.825 19.8517C442.702 20.7201 443.577 21.5921 444.448 22.4677C444.488 22.5222 444.544 22.5616 444.609 22.5794C444.674 22.5973 444.743 22.5924 444.804 22.5657C445.613 22.253 446.424 21.9482 447.236 21.6404C447.343 21.5993 447.441 21.5473 447.415 21.4258ZM454.322 19.7693C454.28 19.7756 454.238 19.7868 454.198 19.8026C452.702 20.8654 451.115 21.7924 449.454 22.5725C449.266 22.6598 449.258 22.7931 449.258 22.9577C449.258 23.7997 449.266 24.6426 449.258 25.4855C449.258 25.7531 449.298 25.8305 449.578 25.71C451.317 24.9705 452.881 23.8743 454.168 22.4922C454.215 22.4533 454.253 22.4052 454.28 22.3509C454.308 22.2966 454.323 22.2372 454.326 22.1766C454.32 21.3836 454.322 20.5917 454.322 19.7693ZM444.589 9.99041C443.699 9.99041 442.896 9.99041 442.092 9.99041C442.037 9.99554 441.984 10.0115 441.935 10.0374C441.887 10.0633 441.844 10.0987 441.809 10.1414C440.414 11.4324 439.309 13.0054 438.568 14.7559C438.47 14.9774 438.493 15.0499 438.756 15.0499C439.624 15.0382 440.493 15.0382 441.362 15.0499C441.446 15.0585 441.531 15.0382 441.602 14.9922C441.673 14.9463 441.727 14.8774 441.754 14.797C441.981 14.324 442.218 13.8551 442.464 13.3905C443.098 12.2122 443.808 11.0764 444.589 9.99041ZM447.756 31.0773H440.993C440.883 31.0773 440.773 31.0773 440.663 31.0831C440.573 31.088 440.506 31.1086 440.499 31.2292C440.491 31.3169 440.502 31.4053 440.531 31.4886C440.559 31.5719 440.606 31.648 440.666 31.7119C440.727 31.7759 440.8 31.8261 440.882 31.8593C440.964 31.8926 441.051 31.9079 441.139 31.9045H456.484C456.557 31.9045 456.631 31.9045 456.704 31.9045C456.9 31.8908 457.184 31.4585 457.134 31.2027C457.084 30.9469 456.872 31.0841 456.742 31.0831C454.099 31.0753 451.456 31.0733 448.813 31.0773H447.756ZM438.507 25.9893C440.374 25.7756 441.643 24.821 442.491 23.2567C442.566 23.1185 442.524 23.0381 442.426 22.942C442.069 22.5918 441.715 22.2399 441.364 21.8864C441.256 21.7767 441.161 21.7384 441.014 21.8178C439.471 22.6519 438.529 23.9045 438.306 25.6619C438.281 25.856 438.279 26.0452 438.507 25.9893ZM457.154 3.46657C458.803 4.30851 460.025 5.55232 460.878 7.27933C461.22 5.90233 461.436 4.49728 461.523 3.08137C461.538 2.8481 461.453 2.77752 461.229 2.80105C460.72 2.85496 460.207 2.8873 459.698 2.95101C458.836 3.04554 457.985 3.21809 457.154 3.46657Z" fill="white"/>
<path d="M458.207 8.99885C458.209 9.5713 458.041 10.1315 457.724 10.6083C457.407 11.085 456.956 11.4569 456.427 11.6767C455.899 11.8965 455.317 11.9542 454.755 11.8427C454.194 11.7311 453.678 11.4552 453.274 11.05C452.869 10.6448 452.594 10.1285 452.484 9.56684C452.374 9.00514 452.432 8.42329 452.653 7.89516C452.874 7.36703 453.247 6.91643 453.724 6.60057C454.202 6.28471 454.762 6.11784 455.335 6.12114C456.095 6.12958 456.821 6.43565 457.358 6.97368C457.895 7.5117 458.2 8.23878 458.207 8.99885ZM456.442 8.98807C456.439 8.76691 456.37 8.55167 456.245 8.36942C456.12 8.18717 455.943 8.04605 455.738 7.96382C455.533 7.88159 455.308 7.86192 455.091 7.90729C454.875 7.95265 454.677 8.06103 454.521 8.21878C454.366 8.37653 454.262 8.57661 454.22 8.79384C454.178 9.01107 454.202 9.23576 454.288 9.43962C454.373 9.64349 454.518 9.81743 454.702 9.93957C454.886 10.0617 455.103 10.1266 455.324 10.126C455.621 10.1186 455.904 9.99566 456.112 9.78322C456.321 9.57077 456.438 9.28555 456.439 8.98807H456.442Z" fill="white"/>
<path d="M452.07 11.2891C452.492 11.2891 452.757 11.4371 452.921 11.7409C453.086 12.0448 453.101 12.4054 452.855 12.6671C452.243 13.315 451.619 13.9472 450.969 14.5529C450.635 14.8617 450.117 14.7823 449.811 14.4549C449.505 14.1276 449.469 13.6434 449.772 13.3219C450.365 12.6907 450.988 12.0879 451.606 11.4812C451.73 11.359 451.896 11.2901 452.07 11.2891Z" fill="white"/>
<path d="M449.752 15.4584C449.749 15.6919 449.655 15.915 449.49 16.0806C449.326 16.2463 449.103 16.3416 448.87 16.3464C448.63 16.3386 448.402 16.2389 448.234 16.068C448.065 15.8971 447.969 15.6679 447.965 15.428C447.97 15.2 448.062 14.9826 448.223 14.8208C448.384 14.6589 448.601 14.5651 448.829 14.5586C449.068 14.5631 449.297 14.6586 449.468 14.8258C449.64 14.9929 449.741 15.2191 449.752 15.4584Z" fill="white"/>
</g>
</g>
<defs>
<filter id="filter0_d_653_18623" x="119" y="328" width="182" height="162" filterUnits="userSpaceOnUse" color-interpolation-filters="sRGB">
<feFlood flood-opacity="0" result="BackgroundImageFix"/>
<feColorMatrix in="SourceAlpha" type="matrix" values="0 0 0 0 0 0 0 0 0 0 0 0 0 0 0 0 0 0 127 0" result="hardAlpha"/>
<feOffset dy="4"/>
<feGaussianBlur stdDeviation="10"/>
<feComposite in2="hardAlpha" operator="out"/>
<feColorMatrix type="matrix" values="0 0 0 0 0 0 0 0 0 0 0 0 0 0 0 0 0 0 0.1 0"/>
<feBlend mode="normal" in2="BackgroundImageFix" result="effect1_dropShadow_653_18623"/>
<feBlend mode="normal" in="SourceGraphic" in2="effect1_dropShadow_653_18623" result="shape"/>
</filter>
<filter id="filter1_d_653_18623" x="119" y="33" width="182" height="159" filterUnits="userSpaceOnUse" color-interpolation-filters="sRGB">
<feFlood flood-opacity="0" result="BackgroundImageFix"/>
<feColorMatrix in="SourceAlpha" type="matrix" values="0 0 0 0 0 0 0 0 0 0 0 0 0 0 0 0 0 0 127 0" result="hardAlpha"/>
<feOffset dy="4"/>
<feGaussianBlur stdDeviation="10"/>
<feComposite in2="hardAlpha" operator="out"/>
<feColorMatrix type="matrix" values="0 0 0 0 0 0 0 0 0 0 0 0 0 0 0 0 0 0 0.1 0"/>
<feBlend mode="normal" in2="BackgroundImageFix" result="effect1_dropShadow_653_18623"/>
<feBlend mode="normal" in="SourceGraphic" in2="effect1_dropShadow_653_18623" result="shape"/>
</filter>
<filter id="filter2_d_653_18623" x="266" y="33" width="184" height="159" filterUnits="userSpaceOnUse" color-interpolation-filters="sRGB">
<feFlood flood-opacity="0" result="BackgroundImageFix"/>
<feColorMatrix in="SourceAlpha" type="matrix" values="0 0 0 0 0 0 0 0 0 0 0 0 0 0 0 0 0 0 127 0" result="hardAlpha"/>
<feOffset dy="4"/>
<feGaussianBlur stdDeviation="10"/>
<feComposite in2="hardAlpha" operator="out"/>
<feColorMatrix type="matrix" values="0 0 0 0 0 0 0 0 0 0 0 0 0 0 0 0 0 0 0.1 0"/>
<feBlend mode="normal" in2="BackgroundImageFix" result="effect1_dropShadow_653_18623"/>
<feBlend mode="normal" in="SourceGraphic" in2="effect1_dropShadow_653_18623" result="shape"/>
</filter>
<filter id="filter3_d_653_18623" x="56" y="245" width="162" height="183" filterUnits="userSpaceOnUse" color-interpolation-filters="sRGB">
<feFlood flood-opacity="0" result="BackgroundImageFix"/>
<feColorMatrix in="SourceAlpha" type="matrix" values="0 0 0 0 0 0 0 0 0 0 0 0 0 0 0 0 0 0 127 0" result="hardAlpha"/>
<feOffset dy="4"/>
<feGaussianBlur stdDeviation="10"/>
<feComposite in2="hardAlpha" operator="out"/>
<feColorMatrix type="matrix" values="0 0 0 0 0 0 0 0 0 0 0 0 0 0 0 0 0 0 0.1 0"/>
<feBlend mode="normal" in2="BackgroundImageFix" result="effect1_dropShadow_653_18623"/>
<feBlend mode="normal" in="SourceGraphic" in2="effect1_dropShadow_653_18623" result="shape"/>
</filter>
<filter id="filter4_d_653_18623" x="56" y="96" width="163" height="183" filterUnits="userSpaceOnUse" color-interpolation-filters="sRGB">
<feFlood flood-opacity="0" result="BackgroundImageFix"/>
<feColorMatrix in="SourceAlpha" type="matrix" values="0 0 0 0 0 0 0 0 0 0 0 0 0 0 0 0 0 0 127 0" result="hardAlpha"/>
<feOffset dy="4"/>
<feGaussianBlur stdDeviation="10"/>
<feComposite in2="hardAlpha" operator="out"/>
<feColorMatrix type="matrix" values="0 0 0 0 0 0 0 0 0 0 0 0 0 0 0 0 0 0 0.1 0"/>
<feBlend mode="normal" in2="BackgroundImageFix" result="effect1_dropShadow_653_18623"/>
<feBlend mode="normal" in="SourceGraphic" in2="effect1_dropShadow_653_18623" result="shape"/>
</filter>
<linearGradient id="paint0_linear_653_18623" x1="210.564" y1="240.365" x2="367.849" y2="276.793" gradientUnits="userSpaceOnUse">
<stop stop-color="#448AF4"/>
<stop offset="1" stop-color="#0052CF"/>
</linearGradient>
<linearGradient id="paint1_linear_653_18623" x1="289.5" y1="218" x2="289.5" y2="299" gradientUnits="userSpaceOnUse">
<stop stop-color="#448AF4"/>
<stop offset="1" stop-color="#0052CF"/>
</linearGradient>
<clipPath id="clip0_653_18623">
<rect width="37.6238" height="35" fill="white" transform="translate(430 1)"/>
</clipPath>
</defs>
</svg>
