<svg width="30" height="30" viewBox="0 0 30 30" fill="none" xmlns="http://www.w3.org/2000/svg">
<path d="M25 9C25 10.6569 23.6569 12 22 12C20.3431 12 19 10.6569 19 9C19 7.34315 20.3431 6 22 6C23.6569 6 25 7.34315 25 9Z" fill="white"/>
<path fill-rule="evenodd" clip-rule="evenodd" d="M17 8H13C9.22876 8 7.34315 8 6.17157 9.17157C5 10.3431 5 12.2288 5 16C5 19.7712 5 21.6569 6.17157 22.8284C7.34315 24 9.22876 24 13 24H17C20.7712 24 22.6569 24 23.8284 22.8284C25 21.6569 25 19.7712 25 16C25 14.5466 25 13.3733 24.9329 12.413C24.1453 13.0905 23.1205 13.5 22 13.5C21.5213 13.5 21.0601 13.4253 20.6274 13.2868L19.2837 14.4066C18.3973 15.1452 17.6789 15.7439 17.0448 16.1517C16.3843 16.5765 15.7411 16.8449 15 16.8449C14.2589 16.8449 13.6157 16.5765 12.9552 16.1517C12.3211 15.7439 11.6027 15.1452 10.7164 14.4066L8.51986 12.5762C8.20165 12.311 8.15866 11.8381 8.42383 11.5199C8.68901 11.2017 9.16193 11.1587 9.48014 11.4238L11.639 13.2229C12.572 14.0004 13.2197 14.5384 13.7666 14.8901C14.2959 15.2306 14.6549 15.3449 15 15.3449C15.3451 15.3449 15.7041 15.2306 16.2334 14.8901C16.7803 14.5384 17.428 14.0004 18.361 13.2229L19.2004 12.5234C18.1643 11.6989 17.5 10.427 17.5 9C17.5 8.65638 17.5385 8.32175 17.6115 8.0002C17.4133 8 17.2096 8 17 8Z" fill="white"/>
</svg>
