<svg width="25" height="24" viewBox="0 0 25 24" fill="none" xmlns="http://www.w3.org/2000/svg">
<path d="M12.498 12.2496C12.058 12.2496 11.618 12.1396 11.218 11.9296L4.70805 8.41961C4.11805 8.09961 3.74805 7.46961 3.74805 6.76961C3.74805 6.06961 4.11805 5.43961 4.70805 5.11961L11.218 1.60961C12.018 1.17961 12.978 1.17961 13.768 1.60961L20.278 5.11961C20.868 5.43961 21.238 6.06961 21.238 6.76961C21.238 7.46961 20.868 8.09961 20.278 8.41961L13.768 11.9296C13.378 12.1496 12.938 12.2496 12.498 12.2496ZM12.498 2.77961C12.308 2.77961 12.108 2.82961 11.928 2.92961L5.42805 6.42961C5.25805 6.51961 5.24805 6.70961 5.24805 6.76961C5.24805 6.82961 5.25805 7.01961 5.42805 7.09961L11.938 10.6096C12.298 10.7996 12.708 10.7996 13.068 10.6096L19.578 7.09961C19.738 7.00961 19.758 6.81961 19.758 6.76961C19.758 6.70961 19.748 6.51961 19.578 6.43961L13.068 2.92961C12.888 2.82961 12.688 2.77961 12.498 2.77961Z" fill="#505050"/>
<path d="M10.282 22.7198C10.002 22.7198 9.71195 22.6498 9.45195 22.5198L3.39195 19.4998C2.38195 18.9898 1.75195 17.9698 1.75195 16.8398V11.1198C1.75195 10.4698 2.08195 9.87977 2.63195 9.53977C3.19195 9.19977 3.86195 9.16977 4.44195 9.45977L10.502 12.4798C11.512 12.9898 12.142 13.9998 12.142 15.1398V20.8598C12.142 21.5098 11.812 22.0998 11.262 22.4398C10.962 22.6298 10.622 22.7198 10.282 22.7198ZM3.61195 10.7598C3.53195 10.7598 3.46195 10.7898 3.42195 10.8098C3.36195 10.8498 3.25195 10.9398 3.25195 11.1198V16.8398C3.25195 17.3998 3.56195 17.9098 4.06195 18.1598L10.112 21.1898C10.272 21.2698 10.402 21.2098 10.462 21.1798C10.522 21.1398 10.632 21.0498 10.632 20.8698V15.1498C10.632 14.5898 10.322 14.0798 9.82195 13.8298L3.77195 10.7998C3.71195 10.7698 3.66195 10.7598 3.61195 10.7598Z" fill="#505050"/>
<path d="M14.7213 22.72C14.3813 22.72 14.0413 22.63 13.7413 22.44C13.1913 22.1 12.8613 21.51 12.8613 20.86V15.14C12.8613 14.01 13.4913 12.99 14.5013 12.48L20.5513 9.45C21.1313 9.16 21.8113 9.19 22.3613 9.53C22.9113 9.87 23.2413 10.46 23.2413 11.11V16.83C23.2413 17.96 22.6113 18.98 21.6013 19.49L15.5513 22.52C15.2913 22.66 15.0013 22.72 14.7213 22.72ZM21.3913 10.76C21.3413 10.76 21.2913 10.77 21.2313 10.8L15.1813 13.83C14.6813 14.08 14.3713 14.58 14.3713 15.15V20.87C14.3713 21.05 14.4813 21.14 14.5413 21.18C14.6013 21.22 14.7313 21.27 14.8913 21.19L20.9413 18.16C21.4413 17.91 21.7513 17.4 21.7513 16.84V11.12C21.7513 10.94 21.6413 10.85 21.5813 10.81C21.5413 10.79 21.4713 10.76 21.3913 10.76Z" fill="#505050"/>
</svg>
