<svg width="51" height="50" viewBox="0 0 51 50" fill="none" xmlns="http://www.w3.org/2000/svg">
<g clip-path="url(#clip0_91_13314)">
<path d="M-0.0195312 45.7496C0.173235 44.8777 0.643418 44.0917 1.3205 43.5096C1.77512 43.1368 2.31283 42.879 2.88818 42.758C3.46354 42.637 4.05959 42.6565 4.62585 42.8146C5.19212 42.9728 5.71197 43.265 6.14136 43.6666C6.57075 44.0683 6.89702 44.5674 7.09265 45.1218C7.28828 45.6763 7.34747 46.2697 7.2652 46.8518C7.18293 47.434 6.96167 47.9878 6.62006 48.4663C6.27845 48.9448 5.8266 49.334 5.30273 49.6009C4.77887 49.8677 4.19839 50.0045 3.61047 49.9996C2.82193 49.9888 2.05758 49.7256 1.4295 49.2487C0.801428 48.7718 0.342676 48.1062 0.120483 47.3496C0.120483 47.2096 0.0304688 47.0796 -0.0195312 46.9396V45.7496ZM3.64044 48.7496C4.12387 48.7475 4.59584 48.602 4.9964 48.3313C5.39696 48.0607 5.70809 47.6771 5.89032 47.2293C6.07255 46.7816 6.11763 46.2898 6.0199 45.8163C5.92217 45.3429 5.68601 44.9091 5.34137 44.5701C4.99673 44.2311 4.55916 44.0021 4.08417 43.9122C3.60918 43.8222 3.11817 43.8755 2.67346 44.065C2.22875 44.2546 1.8504 44.572 1.58636 44.9769C1.32233 45.3819 1.18455 45.8562 1.19049 46.3396C1.19838 46.9894 1.46208 47.61 1.92444 48.0668C2.3868 48.5235 3.01054 48.7796 3.66046 48.7796L3.64044 48.7496Z" fill="#0751A0"/>
<path d="M47.8599 24.6814C47.8638 29.0832 46.5626 33.3873 44.1209 37.0497C41.6791 40.7121 38.2063 43.5683 34.1415 45.2574C30.0767 46.9464 25.6024 47.3924 21.2841 46.539C16.9659 45.6856 12.9976 43.5711 9.88086 40.4628C6.76416 37.3545 4.63897 33.3919 3.77393 29.076C2.90889 24.7601 3.34286 20.2846 5.02094 16.2152C6.69902 12.1459 9.54592 8.6654 13.2017 6.21375C16.8575 3.7621 21.1581 2.44935 25.5599 2.44144C28.4848 2.43619 31.382 3.00741 34.0861 4.12247C36.7901 5.23754 39.2478 6.87457 41.3189 8.94001C43.3899 11.0054 45.0335 13.4588 46.1559 16.1598C47.2782 18.8608 47.8572 21.7565 47.8599 24.6814ZM46.6498 24.6814C46.6597 20.5139 45.4323 16.4372 43.1231 12.9679C40.8139 9.4986 37.5269 6.79281 33.6785 5.1934C29.8301 3.59398 25.5935 3.1729 21.5055 3.98353C17.4175 4.79415 13.6622 6.79999 10.7153 9.74689C7.76843 12.6938 5.76259 16.4491 4.95197 20.5371C4.14135 24.625 4.56239 28.8616 6.16181 32.7101C7.76123 36.5585 10.467 39.8455 13.9363 42.1547C17.4057 44.4639 21.4823 45.6913 25.6498 45.6814C31.206 45.6604 36.5292 43.4467 40.4618 39.5216C44.3944 35.5965 46.6183 30.2776 46.6498 24.7214V24.6814Z" fill="#0751A0"/>
<path d="M46.98 7.30816C46.2545 7.31411 45.5435 7.10426 44.9375 6.70529C44.3314 6.30631 43.8577 5.73619 43.5763 5.06738C43.295 4.39856 43.2188 3.66121 43.3575 2.949C43.4961 2.23679 43.8433 1.58188 44.3549 1.06741C44.8666 0.552939 45.5196 0.202134 46.2311 0.0595946C46.9425 -0.0829445 47.6802 -0.0107802 48.3506 0.26687C49.0209 0.54452 49.5937 1.01515 49.996 1.61898C50.3983 2.22282 50.612 2.93259 50.61 3.65817C50.6074 4.62195 50.2248 5.54581 49.5452 6.22918C48.8655 6.91255 47.9438 7.30026 46.98 7.30816ZM46.98 6.09817C47.4613 6.09422 47.9307 5.948 48.3291 5.67794C48.7275 5.40788 49.0371 5.02604 49.219 4.58044C49.4009 4.13483 49.447 3.64539 49.3514 3.17367C49.2558 2.70195 49.0228 2.26905 48.6818 1.92941C48.3408 1.58977 47.907 1.35855 47.4349 1.26489C46.9628 1.17122 46.4735 1.21929 46.0286 1.40301C45.5838 1.58673 45.2032 1.89792 44.9347 2.29742C44.6663 2.69691 44.522 3.16686 44.52 3.64816C44.5253 4.29804 44.7864 4.91967 45.2469 5.37829C45.7074 5.83691 46.3301 6.09556 46.98 6.09817Z" fill="#0751A0"/>
<path d="M27.3303 3.68841C23.1216 3.35065 18.9089 4.28937 15.2418 6.38207C11.5747 8.47477 8.62364 11.6243 6.77361 15.4195C4.92359 19.2148 4.26061 23.4797 4.87109 27.6575C5.48157 31.8353 7.3372 35.7321 10.1959 38.8393C13.0545 41.9465 16.7834 44.1199 20.8959 45.0758C25.0085 46.0317 29.3137 45.7258 33.2497 44.1979C37.1857 42.67 40.5698 39.9911 42.9603 36.5109C45.3508 33.0306 46.6367 28.9106 46.6503 24.6884C46.6441 19.4048 44.6558 14.3157 41.0784 10.4273C37.5011 6.53889 32.5951 4.13413 27.3303 3.68841ZM25.6103 39.8984C23.5768 39.9505 21.5534 39.595 19.6594 38.8528C17.7655 38.1106 16.0392 36.9967 14.5825 35.5769C13.1258 34.157 11.9681 32.4599 11.1777 30.5856C10.3872 28.7112 9.97991 26.6976 9.97991 24.6634C9.97991 22.6292 10.3872 20.6156 11.1777 18.7413C11.9681 16.8669 13.1258 15.1698 14.5825 13.75C16.0392 12.3301 17.7655 11.2163 19.6594 10.4741C21.5534 9.73185 23.5768 9.37629 25.6103 9.4284C26.1818 9.42624 26.7529 9.45964 27.3203 9.5284C31.0421 9.94606 34.4795 11.7204 36.9757 14.5124C39.4719 17.3044 40.8519 20.9183 40.8519 24.6634C40.8519 28.4086 39.4719 32.0224 36.9757 34.8144C34.4795 37.6064 31.0421 39.3807 27.3203 39.7984C26.7529 39.8672 26.1818 39.9006 25.6103 39.8984Z" fill="url(#paint0_linear_91_13314)"/>
<path d="M49.3899 3.66147C49.4584 3.41623 49.4667 3.15807 49.414 2.90897C49.3612 2.65986 49.249 2.42719 49.087 2.23077C48.9249 2.03436 48.7178 1.88001 48.4833 1.78088C48.2487 1.68176 47.9937 1.64079 47.7399 1.66147C47.2388 1.66139 46.7498 1.8163 46.34 2.10495C45.9303 2.3936 45.6199 2.80187 45.4512 3.27383C45.2826 3.7458 45.2641 4.25837 45.3981 4.7413C45.5321 5.22424 45.8121 5.65391 46.1999 5.97147C46.4452 6.05174 46.7018 6.09225 46.9599 6.09146C47.6012 6.08116 48.2133 5.82185 48.6668 5.36835C49.1203 4.91485 49.3796 4.30273 49.3899 3.66147Z" fill="url(#paint1_linear_91_13314)"/>
<path d="M40.8403 24.7114C40.8344 27.7247 39.9353 30.6687 38.2567 33.1711C36.578 35.6736 34.1952 37.6223 31.4094 38.7709C28.6235 39.9195 25.5597 40.2164 22.6052 39.6242C19.6506 39.0319 16.9379 37.5771 14.8099 35.4436C12.682 33.31 11.2343 30.5935 10.6498 27.6374C10.0653 24.6813 10.3703 21.6183 11.5262 18.8355C12.6821 16.0527 14.637 13.6749 17.1439 12.0029C19.6507 10.3308 22.597 9.43944 25.6104 9.44141C27.6138 9.4414 29.5975 9.83665 31.4479 10.6045C33.2983 11.3724 34.979 12.4978 36.3937 13.9163C37.8085 15.3348 38.9295 17.0184 39.6925 18.8709C40.4555 20.7233 40.8456 22.708 40.8403 24.7114ZM39.6304 24.7114C39.6304 21.9425 38.8093 19.2357 37.2709 16.9334C35.7326 14.6311 33.5461 12.8367 30.9879 11.7771C28.4298 10.7175 25.6148 10.4402 22.8991 10.9804C20.1834 11.5206 17.6888 12.854 15.7308 14.8119C13.7729 16.7699 12.4396 19.2644 11.8994 21.9801C11.3592 24.6959 11.6364 27.5108 12.696 30.069C13.7557 32.6271 15.5501 34.8137 17.8524 36.352C20.1546 37.8903 22.8614 38.7114 25.6304 38.7114C29.3399 38.7114 32.8978 37.2392 35.5228 34.618C38.1477 31.9968 39.6251 28.441 39.6304 24.7314V24.7114Z" fill="#0751A0"/>
<path d="M19.98 21.4392C19.98 20.4392 19.98 19.5292 20.12 18.5892C20.3324 17.2412 21.0174 16.0127 22.0523 15.1233C23.0873 14.234 24.4048 13.7417 25.7694 13.7345C27.134 13.7272 28.4568 14.2056 29.5011 15.084C30.5454 15.9624 31.2433 17.1835 31.4699 18.5292C31.5999 19.4792 31.58 20.4592 31.62 21.4592L31.9699 21.5492C32.4116 21.6301 32.8115 21.8618 33.1014 22.2046C33.3914 22.5475 33.5534 22.9802 33.56 23.4292C33.56 26.4559 33.56 29.4859 33.56 32.5192C33.5608 32.7949 33.5044 33.0679 33.3947 33.3209C33.2849 33.5739 33.1241 33.8014 32.9222 33.9892C32.7203 34.177 32.4817 34.3211 32.2215 34.4123C31.9612 34.5035 31.6849 34.5399 31.41 34.5192H20.25C19.9443 34.554 19.6347 34.5196 19.3441 34.4185C19.0535 34.3174 18.7894 34.1522 18.5714 33.9352C18.3534 33.7181 18.187 33.4547 18.0846 33.1646C17.9822 32.8745 17.9465 32.565 17.98 32.2592C17.98 29.5925 17.98 26.9259 17.98 24.2592C17.98 22.3692 18.26 21.9792 19.98 21.4392ZM30.29 21.4392C30.3451 20.5534 30.3451 19.665 30.29 18.7792C30.1213 17.6603 29.5337 16.6474 28.6462 15.9455C27.7587 15.2437 26.6376 14.9054 25.51 14.9992C21.99 15.3792 20.83 18.2992 21.35 21.4392H30.29ZM19.29 26.2492C19.29 26.4192 19.29 26.5492 19.29 26.6792V32.2092C19.29 32.9792 19.56 33.2092 20.29 33.2092H31.2799C32.0499 33.2092 32.2799 32.9392 32.2799 32.2092C32.2799 30.3692 32.2799 28.5192 32.2799 26.6792C32.2799 26.5392 32.2799 26.3992 32.2799 26.2492H19.29ZM19.29 24.9792H32.42C32.42 24.4792 32.42 23.9792 32.42 23.5592C32.4268 23.4432 32.408 23.327 32.3648 23.2191C32.3216 23.1112 32.2551 23.0142 32.1701 22.9349C32.0851 22.8557 31.9837 22.7961 31.873 22.7605C31.7624 22.725 31.6452 22.7143 31.5299 22.7292C31.0899 22.7292 30.6399 22.7292 30.1999 22.7292H20.2799C19.6099 22.7292 19.2799 23.0092 19.2799 23.6692C19.1699 24.0692 19.18 24.4992 19.18 24.9592L19.29 24.9792Z" fill="#0751A0"/>
<path d="M25.7596 31.7084H21.6495C20.9695 31.7084 20.7695 31.5085 20.7695 30.8285C20.7695 29.9585 20.7695 29.0884 20.7695 28.2084C20.7695 27.6184 20.9796 27.3984 21.5696 27.3984H29.9196C30.5096 27.3984 30.7196 27.6085 30.7296 28.1985C30.7296 29.0785 30.7296 29.9485 30.7296 30.8185C30.7296 31.5085 30.5296 31.7084 29.8596 31.7084H25.7596ZM22.0295 30.4384H29.4796V28.6685H22.0295V30.4384Z" fill="#0751A0"/>
<path d="M32.2804 26.2297H20.6004C20.1423 28.5405 20.1423 30.9188 20.6004 33.2297H31.2804C32.0504 33.2297 32.2804 32.9597 32.2804 32.2297C32.2804 30.3897 32.2804 28.5397 32.2804 26.6997C32.3104 26.5197 32.2904 26.3797 32.2804 26.2297ZM30.7304 30.8197C30.7304 31.5097 30.5304 31.7097 29.8604 31.7097H21.6504C20.9704 31.7097 20.7704 31.5097 20.7704 30.8297C20.7704 29.9597 20.7704 29.0897 20.7704 28.2097C20.7704 27.6197 20.9804 27.3997 21.5704 27.3997H29.9204C30.5104 27.3997 30.7204 27.6097 30.7304 28.1997C30.7404 29.0797 30.7304 29.9497 30.7304 30.8197ZM32.3104 24.9597H20.9804C21.2672 24.1506 21.6789 23.3914 22.2004 22.7097H30.1004C30.5404 22.7097 30.9904 22.7097 31.4304 22.7097C31.5457 22.6947 31.6628 22.7055 31.7735 22.741C31.8841 22.7766 31.9855 22.8361 32.0705 22.9154C32.1555 22.9946 32.2221 23.0917 32.2652 23.1996C32.3084 23.3075 32.3273 23.4236 32.3204 23.5397C32.3304 23.9997 32.3104 24.4397 32.3104 24.9597Z" fill="url(#paint2_linear_91_13314)"/>
</g>
<defs>
<linearGradient id="paint0_linear_91_13314" x1="7.9903" y1="24.6584" x2="46.6503" y2="24.6584" gradientUnits="userSpaceOnUse">
<stop stop-color="#176AB4"/>
<stop offset="1" stop-color="#B1FFC7"/>
</linearGradient>
<linearGradient id="paint1_linear_91_13314" x1="45.3099" y1="3.89146" x2="49.3899" y2="3.89146" gradientUnits="userSpaceOnUse">
<stop stop-color="#C21500"/>
<stop offset="0.52" stop-color="#F37429"/>
<stop offset="1" stop-color="#FFD1B0"/>
</linearGradient>
<linearGradient id="paint2_linear_91_13314" x1="20.2404" y1="27.9697" x2="32.3204" y2="27.9697" gradientUnits="userSpaceOnUse">
<stop stop-color="#C21500"/>
<stop offset="0.52" stop-color="#F37429"/>
<stop offset="1" stop-color="#FFD1B0"/>
</linearGradient>
<clipPath id="clip0_91_13314">
<rect width="50.61" height="50" fill="white"/>
</clipPath>
</defs>
</svg>
