<svg width="42" height="50" viewBox="0 0 42 50" fill="none" xmlns="http://www.w3.org/2000/svg">
<g clip-path="url(#clip0_91_13298)">
<path d="M6.6209 37.0511C5.77085 36.1799 5.20586 35.0709 5.0009 33.8711C4.80692 32.4772 5.1567 31.062 5.97771 29.9189C6.79872 28.7759 8.02805 27.9925 9.41094 27.7311C9.86411 27.6593 10.3221 27.6226 10.7809 27.6211H36.0809C37.0809 27.6211 37.2809 27.8111 37.2809 28.8211C37.2809 31.4111 37.2809 33.9811 37.2809 36.5611C37.2809 36.9911 37.381 37.1111 37.811 37.0911C38.811 37.0911 39.811 37.0911 40.811 37.0911C41.551 37.0911 41.811 37.3211 41.811 38.0911V49.0911C41.811 49.7911 41.5709 50.0411 40.8909 50.0411H27.061C26.461 50.0411 26.0609 49.7311 26.1209 49.2711C26.1809 48.8111 26.5009 48.5511 27.1209 48.5511H39.7409C40.1909 48.5511 40.3509 48.4711 40.3509 47.9711C40.3509 45.0311 40.3509 42.0844 40.3509 39.1311C40.3509 38.7011 40.251 38.5911 39.821 38.6011C38.521 38.6011 37.2209 38.6011 35.9209 38.6011C35.5109 38.6011 35.4109 38.7211 35.4109 39.1211C35.4109 40.8911 35.4109 42.6711 35.4109 44.4511C35.4109 45.2711 35.1809 45.5011 34.3509 45.5011H29.6509C28.8309 45.5011 28.6509 45.2711 28.6509 44.4511C28.6509 42.6711 28.6509 40.8911 28.6509 39.1111C28.6509 38.7111 28.5409 38.6011 28.1409 38.6011H6.63091C5.43174 38.6726 4.29846 39.1734 3.43828 40.012C2.5781 40.8506 2.04856 41.9709 1.94658 43.1678C1.84461 44.3648 2.17693 45.5584 2.88286 46.5304C3.58879 47.5024 4.62115 48.1878 5.79094 48.4611C6.18887 48.5111 6.58996 48.5312 6.99089 48.5211H20.9909C21.2021 48.5128 21.4136 48.5296 21.6209 48.5711C21.7824 48.61 21.9244 48.7059 22.0209 48.8411C22.1115 48.9763 22.1505 49.1395 22.1309 49.3011C22.13 49.4793 22.0623 49.6506 21.941 49.7811C21.8819 49.8446 21.8108 49.8959 21.7319 49.9319C21.6529 49.9679 21.5676 49.988 21.4809 49.9911C21.3477 50.0011 21.214 50.0011 21.0809 49.9911C16.2809 49.9911 11.481 49.9911 6.68096 49.9911C5.49838 50.0187 4.33096 49.721 3.30596 49.1306C2.28096 48.5402 1.43768 47.6796 0.868214 46.6428C0.298748 45.606 0.0248518 44.4327 0.0764655 43.251C0.128079 42.0692 0.503249 40.9243 1.16094 39.9411C1.70657 39.1221 2.43157 38.4381 3.28093 37.9411C4.1243 37.4515 5.06826 37.1608 6.04094 37.0911L6.6209 37.0511ZM22.801 37.0511H35.191C35.711 37.0511 35.811 36.9111 35.811 36.4211C35.811 34.1611 35.811 31.9111 35.811 29.6511C35.811 29.1811 35.7109 29.0511 35.2209 29.0511C30.2209 29.0511 25.2209 29.0511 20.2209 29.0511H10.5309C9.88323 29.0389 9.24224 29.1843 8.66314 29.4747C8.08403 29.765 7.58409 30.1917 7.20635 30.718C6.8286 31.2443 6.58434 31.8544 6.49456 32.496C6.40477 33.1376 6.47222 33.7913 6.69097 34.4011C6.99966 35.2221 7.5659 35.921 8.30498 36.3933C9.04407 36.8656 9.91623 37.0858 10.7909 37.0211L22.801 37.0511ZM33.8709 41.2311C33.8709 40.4611 33.8709 39.7011 33.8709 38.9411C33.8709 38.6411 33.8009 38.5311 33.4909 38.5411C32.4909 38.5411 31.4209 38.5411 30.3909 38.5411C30.0709 38.5411 30.0209 38.6611 30.0209 38.9411C30.0209 40.4678 30.0209 41.9978 30.0209 43.5311C30.0209 43.8311 30.091 43.9611 30.431 43.9611C31.431 43.9611 32.431 43.9611 33.431 43.9611C33.781 43.9611 33.8309 43.8211 33.8309 43.5311C33.8909 42.8111 33.8909 42.0311 33.8909 41.2711L33.8709 41.2311Z" fill="#0751A0"/>
<path d="M37.8901 13.2395L34.5801 15.0095C34.503 15.0399 34.4393 15.0965 34.4001 15.1695C34.3711 15.2503 34.3711 15.3387 34.4001 15.4195C34.4001 15.7995 34.4001 16.1795 34.4001 16.5595C34.3916 16.7498 34.3091 16.9292 34.1702 17.0595C34.032 17.189 33.8495 17.2606 33.6602 17.2595C33.5677 17.2608 33.476 17.2438 33.3901 17.2095C33.3043 17.1752 33.2262 17.1242 33.1602 17.0595C33.0212 16.9292 32.9387 16.7498 32.9302 16.5595C32.8902 15.9835 32.8902 15.4055 32.9302 14.8295C32.9499 14.6011 32.9004 14.3721 32.788 14.1723C32.6756 13.9725 32.5056 13.8112 32.3002 13.7095C31.3333 13.1299 30.2695 12.7301 29.1602 12.5295C24.7223 11.5463 20.1132 11.6423 15.7201 12.8095C14.9409 13.0138 14.2033 13.3522 13.5402 13.8095C13.3676 13.9137 13.226 14.0622 13.1301 14.2395C13.0393 14.4185 13.0011 14.6197 13.0201 14.8195C13.0501 15.3524 13.0501 15.8866 13.0201 16.4195C13.0201 16.9495 12.7101 17.3095 12.2501 17.2895C12.1418 17.2966 12.0334 17.2777 11.9338 17.2344C11.8343 17.191 11.7466 17.1244 11.6781 17.0403C11.6096 16.9561 11.5622 16.8567 11.5399 16.7504C11.5177 16.6442 11.5212 16.5341 11.5502 16.4295C11.7402 15.3795 11.2201 14.8995 10.3301 14.4295C8.33008 13.4295 6.43009 12.3495 4.47009 11.3095C4.14009 11.1295 3.85012 10.9395 3.87012 10.4995C3.89012 10.0595 4.1701 9.91951 4.4801 9.74951C10.3934 6.58284 16.3034 3.39952 22.2101 0.199524C22.4387 0.0489853 22.7064 -0.03125 22.9801 -0.03125C23.2538 -0.03125 23.5215 0.0489853 23.7501 0.199524C29.5301 3.32619 35.3201 6.44618 41.1201 9.55951L41.2701 9.6395C41.6401 9.8395 42.0702 9.99951 42.0702 10.4995C42.0702 10.9995 41.6502 11.1795 41.2902 11.3895C40.6802 11.7395 39.8101 11.8895 39.5201 12.4595C39.2301 13.0295 39.4402 13.7995 39.4302 14.4595V19.4595C39.4302 19.9195 39.3202 20.3095 38.8102 20.4595C38.3002 20.6095 37.9502 20.2195 37.9502 19.6095V13.2195L37.8901 13.2395ZM6.14014 10.5595L11.4601 13.4295C11.6101 13.5095 11.7201 13.5595 11.8501 13.4295C12.708 12.412 13.8918 11.723 15.2002 11.4795C20.077 10.1904 25.1983 10.1389 30.1001 11.3295C31.63 11.54 33.0307 12.3008 34.0402 13.4695C34.1502 13.6195 34.2601 13.5595 34.3901 13.4695L39.7002 10.5995L39.3301 10.3695L23.3301 1.72952C23.2096 1.648 23.0653 1.60926 22.9202 1.61951C22.7799 1.62157 22.6436 1.66698 22.5302 1.74951C19.3435 3.47618 16.1568 5.19284 12.9701 6.89951L6.13013 10.5795L6.14014 10.5595Z" fill="#0751A0"/>
<path d="M21.8896 24.6611C19.4226 24.6423 16.9735 24.2408 14.6296 23.471C13.8783 23.2377 13.1718 22.8793 12.5396 22.4111C12.2123 22.2268 11.9406 21.9578 11.7532 21.6323C11.5659 21.3068 11.4697 20.9368 11.4748 20.5612C11.4799 20.1856 11.5861 19.8184 11.7823 19.4981C11.9785 19.1778 12.2573 18.9163 12.5895 18.741C13.7434 17.9517 15.0587 17.429 16.4396 17.211C21.0974 16.2364 25.9159 16.3356 30.5296 17.501C31.5386 17.7393 32.4882 18.1817 33.3197 18.801C33.6311 18.981 33.8897 19.2398 34.0695 19.5513C34.2493 19.8629 34.3439 20.2163 34.3439 20.5761C34.3439 20.9358 34.2493 21.2892 34.0695 21.6007C33.8897 21.9123 33.6311 22.1711 33.3197 22.3511C32.0859 23.2283 30.6652 23.8068 29.1696 24.0411C26.7743 24.523 24.3319 24.731 21.8896 24.6611ZM22.9796 17.971C20.528 17.9411 18.0844 18.2542 15.7196 18.901C14.865 19.1136 14.06 19.4907 13.3496 20.0111C12.8396 20.4211 12.8396 20.751 13.3496 21.171C13.8917 21.5995 14.5139 21.9157 15.1796 22.1011C19.9305 23.4993 24.9702 23.5926 29.7696 22.371C30.7717 22.182 31.7144 21.7569 32.5196 21.1311C32.9796 20.7411 32.9796 20.451 32.5196 20.051C31.9955 19.6292 31.3943 19.3134 30.7496 19.121C28.2092 18.3144 25.5546 17.926 22.8896 17.971H22.9796Z" fill="#0751A0"/>
<path d="M15.3001 44.2716H7.8001C7.61963 44.2634 7.44863 44.1886 7.32012 44.0616C7.19533 43.9285 7.12403 43.754 7.12005 43.5716C7.11084 43.3924 7.17186 43.2166 7.29009 43.0816C7.40724 42.9443 7.57109 42.8552 7.75006 42.8316C7.92306 42.8165 8.09707 42.8165 8.27007 42.8316H22.6501C23.2601 42.8316 23.6501 43.1216 23.6501 43.5816C23.6501 44.0416 23.3001 44.3016 22.6501 44.3016L15.3001 44.2716Z" fill="#0751A0"/>
<path d="M24.2203 50.0018C23.7303 49.9518 23.4603 49.7118 23.4603 49.2618C23.4403 49.1696 23.4403 49.0741 23.4603 48.9818C23.498 48.8895 23.5523 48.8047 23.6204 48.7318C23.6937 48.6668 23.7784 48.6159 23.8704 48.5818C23.9631 48.5672 24.0576 48.5672 24.1504 48.5818C24.2465 48.5665 24.3444 48.5665 24.4404 48.5818C24.533 48.6133 24.6158 48.6684 24.6804 48.7418C24.7485 48.8089 24.7998 48.8912 24.8303 48.9818C24.85 49.0775 24.85 49.1761 24.8303 49.2718C24.8443 49.4491 24.7883 49.6248 24.6743 49.7613C24.5603 49.8977 24.3973 49.9841 24.2203 50.0018Z" fill="#0751A0"/>
<path d="M26.7302 33.8098H20.4902C19.8402 33.8098 19.4902 33.5898 19.4902 33.1198C19.4902 32.6498 19.8102 32.3398 20.4902 32.3398H32.9802C33.6802 32.3398 34.0802 32.6998 33.9802 33.2198C33.8802 33.7398 33.5103 33.8198 33.0603 33.8098H26.7302Z" fill="#0751A0"/>
<path d="M13.7598 37.0905H35.1998C35.7198 37.0905 35.8198 36.9505 35.8198 36.4605C35.8198 34.2005 35.8198 31.9506 35.8198 29.6906C35.8198 29.2206 35.7198 29.0905 35.2298 29.0905C30.2298 29.0905 25.2298 29.0905 20.2298 29.0905H13.5398C12.8921 29.0784 12.2511 29.2238 11.672 29.5141C11.0929 29.8045 10.593 30.2311 10.2152 30.7574C9.83748 31.2837 9.59323 31.8939 9.50344 32.5354C9.41365 33.177 9.4811 33.8308 9.69985 34.4406C10.0001 35.2611 10.5577 35.9626 11.2894 36.4402C12.0212 36.9178 12.8877 37.1459 13.7598 37.0905ZM20.4898 32.3705H32.9798C33.6798 32.3705 34.0698 32.7305 33.9798 33.2505C33.8898 33.7705 33.5198 33.8405 33.0698 33.8405H20.4898C19.8498 33.8405 19.4898 33.6205 19.4898 33.1405C19.4898 32.6605 19.8298 32.3705 20.4898 32.3705Z" fill="url(#paint0_linear_91_13298)"/>
<path d="M21.6914 10.4901C24.5217 10.3819 27.3536 10.6544 30.1113 11.3001C31.6409 11.5185 33.0401 12.2821 34.0514 13.4502C34.1614 13.5902 34.2814 13.5302 34.4014 13.4502L39.7213 10.5801L39.3413 10.3502L26.4813 3.41016C24.087 5.11908 22.387 7.63191 21.6914 10.4901Z" fill="url(#paint1_linear_91_13298)"/>
</g>
<defs>
<linearGradient id="paint0_linear_91_13298" x1="9.42979" y1="33.1105" x2="35.8198" y2="33.1105" gradientUnits="userSpaceOnUse">
<stop stop-color="#176AB4"/>
<stop offset="1" stop-color="#B1FFC7"/>
</linearGradient>
<linearGradient id="paint1_linear_91_13298" x1="21.6914" y1="8.48016" x2="39.7213" y2="8.48016" gradientUnits="userSpaceOnUse">
<stop stop-color="#C21500"/>
<stop offset="0.52" stop-color="#F37429"/>
<stop offset="1" stop-color="#FFD1B0"/>
</linearGradient>
<clipPath id="clip0_91_13298">
<rect width="41.97" height="50" fill="white"/>
</clipPath>
</defs>
</svg>
