<svg width="51" height="41" viewBox="0 0 51 41" fill="none" xmlns="http://www.w3.org/2000/svg">
<g clip-path="url(#clip0_91_13283)">
<path d="M30.6007 28.6602C30.2398 28.4662 29.9268 28.194 29.6845 27.8636C29.4423 27.5331 29.277 27.1527 29.2007 26.7502C29.1604 26.3065 29.2011 25.8593 29.3207 25.4302C30.1126 22.0646 30.4091 18.6014 30.2007 15.1502C30.1665 14.5181 30.2444 13.8851 30.4306 13.2801C30.824 11.9296 31.6855 10.7633 32.8607 9.99016C34.2654 9.00411 35.9173 8.42924 37.6307 8.33015C38.0707 8.33015 38.2407 8.20015 38.2307 7.72015C38.2307 6.40015 38.2307 5.08015 38.2307 3.72015C38.2307 2.17015 37.5207 1.47015 35.9807 1.47015H30.2906C30.131 1.48513 29.9703 1.48513 29.8106 1.47015C29.7213 1.46094 29.6346 1.43411 29.5556 1.3912C29.4767 1.34829 29.407 1.29015 29.3507 1.22015C29.292 1.1537 29.2476 1.07596 29.2201 0.991697C29.1926 0.907431 29.1825 0.81843 29.1906 0.730161C29.1761 0.64075 29.1761 0.549568 29.1906 0.460157C29.2313 0.380864 29.2817 0.306958 29.3407 0.240156C29.4039 0.176729 29.4785 0.125825 29.5606 0.0901467C29.6437 0.0581934 29.7317 0.0412752 29.8207 0.0401589H36.1007C36.5852 0.00433608 37.0719 0.0734053 37.5273 0.242658C37.9828 0.411911 38.3963 0.677363 38.7398 1.02093C39.0834 1.3645 39.3489 1.77811 39.5182 2.23356C39.6874 2.68901 39.7565 3.1756 39.7207 3.66015C39.7207 5.05015 39.7207 6.44015 39.7207 7.84015C39.7207 8.20015 39.8307 8.29015 40.1907 8.33015C41.9741 8.50819 43.6668 9.20333 45.0606 10.3302C45.81 10.9316 46.4007 11.7076 46.7807 12.5901C47.1608 13.475 47.3087 14.4422 47.2107 15.4002C47.0207 18.5376 47.28 21.6861 47.9807 24.7502C48.167 25.3555 48.2548 25.9869 48.2407 26.6202C48.1673 27.0828 47.9786 27.5195 47.692 27.89C47.4054 28.2605 47.03 28.5529 46.6007 28.7402C47.0807 29.0202 47.6007 29.2801 48.0007 29.5601C48.1399 29.6346 48.2624 29.7367 48.3607 29.8602C48.454 29.9883 48.5187 30.1349 48.5506 30.2902C48.9006 32.3602 49.5007 34.3702 49.9707 36.4102C50.0916 36.8533 50.1093 37.3182 50.0222 37.7692C49.9351 38.2202 49.7455 38.6452 49.4682 39.0113C49.1909 39.3775 48.8333 39.6751 48.4228 39.8813C48.0123 40.0874 47.56 40.1965 47.1007 40.2002C41.3607 40.2402 35.6174 40.2402 29.8707 40.2002C29.41 40.1958 28.9565 40.0853 28.5454 39.8774C28.1343 39.6695 27.7766 39.3698 27.5 39.0013C27.2234 38.6329 27.0354 38.2057 26.9505 37.7528C26.8657 37.3 26.8863 36.8337 27.0107 36.3902C27.2107 35.5602 27.4207 34.7402 27.6507 33.8602H3.65073C2.85471 33.9077 2.06736 33.673 1.42722 33.1975C0.787086 32.7219 0.33515 32.036 0.150732 31.2602C0.0839801 30.911 0.0570629 30.5554 0.0706543 30.2001V3.66015C0.0290289 3.17036 0.0954642 2.67739 0.265112 2.21603C0.43476 1.75467 0.703573 1.33614 1.05259 0.989988C1.4016 0.643834 1.82227 0.378474 2.28501 0.212629C2.74775 0.0467837 3.24125 -0.015506 3.73069 0.0301491H24.5307C24.7 0.0314983 24.8617 0.0998156 24.9807 0.220152C25.0422 0.275999 25.0917 0.343845 25.1261 0.419508C25.1605 0.495171 25.179 0.577057 25.1806 0.660154C25.21 0.831601 25.1705 1.0077 25.0707 1.15016C24.9724 1.28807 24.8263 1.38434 24.6607 1.42015C24.461 1.46806 24.2561 1.49158 24.0506 1.49016H3.75071C3.4183 1.45758 3.08289 1.50401 2.77183 1.62565C2.46076 1.7473 2.1828 1.94072 1.96067 2.19015C1.67067 2.55209 1.52143 3.00676 1.54062 3.47015V30.4002C1.52295 30.6674 1.56258 30.9353 1.65684 31.1859C1.75109 31.4366 1.89789 31.6643 2.08726 31.8536C2.27662 32.043 2.50419 32.1897 2.75486 32.284C3.00552 32.3782 3.27341 32.4178 3.54063 32.4002C4.17063 32.4002 4.80064 32.4002 5.43064 32.4002C5.78064 32.4002 5.92073 32.3302 5.90073 31.9402C5.90073 31.2402 5.90073 30.5302 5.90073 29.8302C5.90073 29.1302 6.18062 28.9402 6.79063 28.9302H15.6007C16.2207 28.9302 16.4807 29.2102 16.4807 29.8202C16.4807 30.4302 16.4807 31.3102 16.4807 32.0502C16.4807 32.3202 16.5607 32.3901 16.8307 32.3901H27.6407C27.9207 32.3901 28.0407 32.3101 28.0907 32.0301C28.2218 31.5679 28.3187 31.0966 28.3807 30.6202C28.3955 30.3516 28.4848 30.0925 28.6384 29.8717C28.792 29.651 29.004 29.4773 29.2507 29.3702L30.6007 28.6602ZM31.7107 16.9302C32.3208 16.8426 32.9252 16.7191 33.5207 16.5601C34.7411 16.4395 35.93 16.1008 37.0307 15.5601C37.7484 15.2344 38.3462 14.6925 38.7407 14.0102C38.792 13.8608 38.8853 13.7295 39.0095 13.6319C39.1337 13.5343 39.2834 13.4747 39.4407 13.4602C39.6052 13.4703 39.7635 13.5275 39.8965 13.625C40.0294 13.7225 40.1315 13.8562 40.1907 14.0102C40.4888 14.5796 40.8996 15.0825 41.3982 15.4882C41.8967 15.8939 42.4725 16.194 43.0907 16.3702C43.9092 16.6476 44.7591 16.8222 45.6207 16.8902C45.6207 16.4102 45.6207 15.8901 45.7007 15.4501C45.788 14.6237 45.6479 13.7892 45.2954 13.0366C44.9429 12.284 44.3915 11.6421 43.7007 11.1802C42.2011 10.2086 40.4524 9.69166 38.6656 9.69166C36.8788 9.69166 35.1303 10.2086 33.6307 11.1802C33.1229 11.5262 32.6908 11.9719 32.3607 12.4902C32.0296 13.0089 31.8115 13.5915 31.7207 14.2001C31.6582 15.0923 31.6549 15.9876 31.7107 16.8802V16.9302ZM39.4507 15.5502C38.0571 16.8562 36.2788 17.677 34.3807 17.8902C34.0407 17.9501 34.0107 18.0902 34.0207 18.3602C34.0207 19.1702 34.0207 19.9901 34.0207 20.8101C34.0511 21.934 34.4875 23.0087 35.2494 23.8355C36.0112 24.6623 37.0467 25.185 38.1643 25.307C39.2819 25.429 40.4058 25.142 41.3281 24.4991C42.2504 23.8562 42.9085 22.9009 43.1806 21.8101C43.342 20.5972 43.3889 19.3719 43.3207 18.1502C43.3207 17.9402 43.1707 17.9302 43.0307 17.8902C41.6082 17.5062 40.3507 16.6667 39.4507 15.5002V15.5502ZM30.8807 30.1502C31.5587 30.4707 32.1329 30.9754 32.5378 31.6066C32.9427 32.2379 33.162 32.9702 33.1706 33.7201C33.1706 35.2802 33.1706 36.8002 33.1706 38.3502C33.1706 38.6602 33.1707 38.8201 33.5807 38.8101C34.8007 38.8101 36.0307 38.8101 37.2607 38.8101C37.5607 38.8101 37.6307 38.7201 37.6307 38.4301C37.6307 37.4301 37.6307 36.4301 37.6307 35.4301C37.6343 35.2442 37.5782 35.0619 37.4707 34.9102L33.7007 29.3202C33.5707 29.1302 33.4607 29.0401 33.2207 29.1402C32.5007 29.4601 31.7407 29.7502 30.8807 30.1002V30.1502ZM45.7407 30.0402C44.9707 29.7402 44.3007 29.4802 43.6407 29.1902C43.589 29.1559 43.5303 29.1336 43.469 29.1247C43.4076 29.1159 43.3451 29.1207 43.2859 29.1388C43.2266 29.157 43.172 29.1881 43.1262 29.2298C43.0804 29.2715 43.0444 29.3229 43.0207 29.3802C41.8007 31.2302 40.5707 33.0402 39.3307 34.8802C39.1993 35.0576 39.1229 35.2697 39.1107 35.4901C39.1107 36.4901 39.1107 37.4901 39.1107 38.4901C39.1107 38.7301 39.1707 38.8602 39.4507 38.8602C40.5907 38.8602 41.7207 38.8602 42.8407 38.8602C43.1207 38.8602 43.1907 38.7601 43.1907 38.5001C43.1907 37.7402 43.1907 36.9801 43.1907 36.2201C43.1907 35.6801 43.1907 35.1402 43.1907 34.6002C43.0574 33.6723 43.2354 32.7264 43.6968 31.9104C44.1581 31.0944 44.8769 30.4543 45.7407 30.0901V30.0402ZM44.6407 36.0402C44.6407 36.8002 44.6407 37.5602 44.6407 38.3202C44.6407 38.7302 44.7607 38.8201 45.1407 38.8101C45.7507 38.8101 46.3607 38.8101 46.9807 38.8101C47.2291 38.8226 47.4769 38.775 47.7031 38.6715C47.9293 38.568 48.1273 38.4115 48.2803 38.2154C48.4332 38.0192 48.5368 37.7892 48.5821 37.5446C48.6275 37.3 48.6132 37.0481 48.5406 36.8101C48.1306 35.0501 47.6707 33.2901 47.2707 31.5301C47.1907 31.1801 47.0507 31.1802 46.7807 31.2502C46.1909 31.3594 45.6575 31.6708 45.2724 32.1307C44.8874 32.5906 44.6745 33.1703 44.6706 33.7701C44.6706 34.5301 44.6706 35.2902 44.6706 36.0502L44.6407 36.0402ZM31.7507 36.0402C31.7507 35.2102 31.8107 34.3702 31.7507 33.5402C31.7311 33.0442 31.5601 32.566 31.2607 32.1701C30.9555 31.7767 30.5418 31.4812 30.0707 31.3202C29.8507 31.2402 29.7306 31.2502 29.6706 31.5002C29.2406 33.3202 28.7807 35.1301 28.3907 36.9601C28.3456 37.1793 28.3505 37.4058 28.4049 37.6228C28.4593 37.8398 28.5618 38.0418 28.7049 38.2137C28.8481 38.3857 29.0281 38.5232 29.2317 38.616C29.4352 38.7089 29.657 38.7547 29.8807 38.7501C30.4007 38.7501 30.8806 38.7501 31.4406 38.7501C31.7406 38.7501 31.8106 38.6402 31.8106 38.3602C31.8106 37.5802 31.8106 36.8001 31.8106 36.0201L31.7507 36.0402ZM41.4807 26.4302C41.4007 26.7402 41.5607 26.8702 41.8607 26.9702C42.4665 27.1368 43.0584 27.3508 43.6307 27.6102C44.0531 27.7974 44.5194 27.8628 44.977 27.7992C45.4346 27.7356 45.8654 27.5455 46.2207 27.2502C46.4229 27.1299 46.5807 26.9475 46.6706 26.7302C46.7461 26.5098 46.7461 26.2705 46.6706 26.0502C46.3806 24.4302 46.0007 22.8202 45.8307 21.1802C45.8307 21.0502 45.8307 20.7202 45.6307 20.8302C45.4307 20.9402 44.8007 20.6902 44.7207 21.3002C44.6217 22.2455 44.2995 23.1537 43.7807 23.9501C43.2807 24.749 42.5944 25.4146 41.7807 25.8902C41.6759 25.9347 41.5883 26.0119 41.5307 26.1102C41.4906 26.213 41.4906 26.3273 41.5307 26.4302H41.4807ZM35.3907 26.3602C35.3907 25.8102 35.3907 25.8102 35.0307 25.5301C34.4017 25.0782 33.8709 24.5033 33.4707 23.8401C33.0764 23.1805 32.8149 22.4501 32.7007 21.6902C32.6207 21.1602 32.4607 20.8802 31.9107 20.7902C31.6707 20.7902 31.5607 20.7101 31.5307 21.0002C31.3407 22.7702 30.9307 24.5002 30.6307 26.2502C30.6005 26.3784 30.6005 26.5119 30.6307 26.6402C30.6616 26.7688 30.7273 26.8864 30.8207 26.9802C31.1063 27.2987 31.4779 27.5278 31.8907 27.6402C32.3055 27.7604 32.746 27.7604 33.1607 27.6402C33.7307 27.4302 34.3007 27.2102 34.8807 27.0402C35.2607 26.9202 35.4707 26.7402 35.3707 26.3802L35.3907 26.3602ZM11.1007 32.4002H13.4406C13.9306 32.4002 14.6107 32.6202 14.8707 32.2902C15.1307 31.9602 14.8707 31.2902 14.9607 30.8302C15.0507 30.3702 14.8407 30.3802 14.4907 30.3802C12.5907 30.3802 10.7006 30.3802 8.80063 30.3802C8.32063 30.3802 7.66069 30.1702 7.36069 30.4702C7.06069 30.7702 7.36072 31.4201 7.26072 31.9201C7.16072 32.4202 7.39072 32.4002 7.76072 32.4002C8.89072 32.3702 10.0107 32.4002 11.1007 32.4002ZM41.8006 28.5502C41.2406 28.1502 40.9007 28.2402 40.5807 28.8202C40.1607 29.5502 39.6506 30.2402 39.1706 30.9402C38.6906 31.6402 38.1707 31.6802 37.6607 30.9402C37.1507 30.2002 36.5407 29.2901 35.9807 28.4501C35.6807 28.0101 35.3707 28.3801 35.1207 28.4501C34.8707 28.5201 35.1207 28.7802 35.1907 28.9002C36.0406 30.1802 36.8907 31.4602 37.7607 32.7302L38.3707 33.6202C39.5407 31.8602 40.6606 30.1902 41.7906 28.5102L41.8006 28.5502ZM38.3907 29.5502C38.9207 28.7502 39.3907 28.0401 39.8807 27.3101C40.0007 27.1201 40.1707 26.6902 39.7207 26.7402C38.7147 26.8637 37.6942 26.782 36.7207 26.5002C36.9007 27.7702 37.8707 28.5002 38.3707 29.5502H38.3907ZM44.7207 18.8902C44.9107 19.0802 44.5007 19.5201 44.9807 19.5301C45.0601 19.5442 45.1413 19.5442 45.2207 19.5301C45.2933 19.5022 45.3584 19.4577 45.4107 19.4002C45.4689 19.3405 45.5132 19.2688 45.5406 19.1902C45.556 19.1143 45.556 19.0361 45.5406 18.9602C45.5551 18.8808 45.5551 18.7995 45.5406 18.7202C45.5104 18.6458 45.4664 18.5779 45.4107 18.5202C45.3584 18.4626 45.2933 18.4181 45.2207 18.3902C45.1418 18.3714 45.0596 18.3714 44.9807 18.3902C44.5707 18.3902 44.9107 18.8002 44.7407 18.9902L44.7207 18.8902ZM32.5406 18.2902C32.1806 18.3502 31.9407 18.4802 31.8807 18.8202C31.8408 18.9265 31.8408 19.0438 31.8807 19.1502C31.922 19.2513 31.9959 19.3358 32.0907 19.3902C32.2007 19.4701 32.3106 19.5502 32.4407 19.4802C32.5707 19.4102 32.5107 19.2802 32.5107 19.1802C32.5107 18.8902 32.5107 18.6001 32.5107 18.2801L32.5406 18.2902Z" fill="#0751A0"/>
<path d="M15.6905 21.3H24.5005C24.7205 21.2708 24.9443 21.2983 25.1506 21.38C25.28 21.4396 25.3881 21.5373 25.4605 21.66C25.5231 21.787 25.5475 21.9294 25.5306 22.07C25.5302 22.2092 25.4806 22.3438 25.3906 22.45C25.3045 22.5588 25.1849 22.6361 25.0505 22.67C24.8479 22.6948 24.6431 22.6948 24.4405 22.67H6.70049C6.21049 22.67 5.90053 22.48 5.86053 21.98C5.82053 21.48 6.17051 21.25 6.72051 21.25L15.6905 21.3Z" fill="#0751A0"/>
<path d="M24.9806 1.13937C24.883 1.278 24.7365 1.37449 24.5706 1.40938C24.3717 1.46219 24.1662 1.48578 23.9606 1.47939H17.0405C14.1905 3.90939 8.85054 10.1194 11.5405 21.3194H24.4806C24.7005 21.2901 24.9243 21.3177 25.1306 21.3994C25.2627 21.4599 25.3714 21.5617 25.4406 21.6894C25.5041 21.8125 25.5286 21.952 25.5106 22.0894C25.512 22.2289 25.4622 22.3641 25.3706 22.4694C25.2846 22.5781 25.1651 22.6555 25.0306 22.6894C24.8294 22.7259 24.625 22.7426 24.4205 22.7394H11.9205C12.5485 24.8746 13.3582 26.9522 14.3406 28.9494H15.5306C16.1506 28.9494 16.4107 29.2194 16.4107 29.8294C16.4107 30.4394 16.4107 31.3194 16.4107 32.0594C16.4107 32.3294 16.4906 32.4094 16.7506 32.4094H27.5706C27.8506 32.4094 27.9706 32.3194 28.0206 32.0494C28.1508 31.5869 28.2476 31.1157 28.3106 30.6394C28.3236 30.3691 28.4119 30.1078 28.5657 29.8852C28.7194 29.6625 28.9324 29.4873 29.1806 29.3794L30.5806 28.6394C30.2214 28.4432 29.9098 28.1704 29.6679 27.8403C29.4259 27.5102 29.2595 27.1309 29.1806 26.7294C29.1349 26.2858 29.1756 25.8375 29.3005 25.4094C30.0925 22.0404 30.3889 18.5739 30.1806 15.1194C30.142 14.4872 30.2201 13.8534 30.4107 13.2494C30.8103 11.902 31.6703 10.7376 32.8406 9.95938C34.2475 8.97756 35.8981 8.40313 37.6106 8.29938C38.0406 8.29938 38.2206 8.17937 38.2006 7.69937C38.2006 6.37937 38.2006 5.05937 38.2006 3.69937C38.2006 2.14937 37.5006 1.43938 35.9606 1.43938H30.2706C30.1079 1.45946 29.9434 1.45946 29.7806 1.43938C29.6034 1.41751 29.4399 1.33227 29.3206 1.19937C29.207 1.05878 29.1531 0.87925 29.1705 0.699371C29.1554 0.613366 29.1554 0.525383 29.1705 0.439377C29.1847 0.408793 29.2052 0.381533 29.2306 0.359375H24.9406C25.0077 0.453014 25.0459 0.564263 25.0505 0.679382C25.0868 0.83603 25.0618 1.00059 24.9806 1.13937Z" fill="url(#paint0_linear_91_13283)"/>
<path d="M43.2001 21.7483C43.3648 20.539 43.415 19.317 43.3501 18.0983C43.3501 17.8783 43.2001 17.8683 43.0601 17.8383C41.6354 17.4696 40.3709 16.6441 39.4601 15.4883C38.5321 16.4166 37.3771 17.0855 36.1101 17.4283C35.6535 18.2696 35.413 19.2111 35.4102 20.1683C35.412 21.2367 35.715 22.2829 36.2845 23.1868C36.8541 24.0906 37.6671 24.8156 38.6301 25.2783C39.6805 25.3002 40.7066 24.9619 41.538 24.3197C42.3694 23.6775 42.9559 22.7701 43.2001 21.7483Z" fill="url(#paint1_linear_91_13283)"/>
<path d="M28.039 0.661545C28.0543 0.754251 28.0543 0.848837 28.039 0.941543C28.0007 1.02825 27.9503 1.10906 27.8891 1.18155C27.8226 1.24816 27.7448 1.30233 27.6592 1.34154C27.5727 1.37345 27.4813 1.39036 27.3891 1.39154C26.9491 1.39154 26.7092 1.15155 26.6592 0.711548C26.6397 0.622605 26.6397 0.530486 26.6592 0.441543C26.6923 0.35743 26.7396 0.279638 26.7991 0.211548C26.8651 0.146854 26.9433 0.0958637 27.0292 0.0615386C27.1175 0.0367788 27.2108 0.0367788 27.2991 0.0615386C27.388 0.0420262 27.4801 0.0420262 27.5691 0.0615386C27.6574 0.0921802 27.7389 0.139731 27.8091 0.201538C27.8785 0.261655 27.9333 0.336923 27.9691 0.421539C28.0054 0.497192 28.0289 0.578266 28.039 0.661545Z" fill="#0751A0"/>
<path d="M11.4386 13.3007H6.80859C6.20859 13.3007 5.80859 13.0408 5.80859 12.6008C5.80859 12.1608 6.14865 11.8708 6.73865 11.8708H16.0986C16.266 11.8484 16.4363 11.8764 16.5876 11.9512C16.739 12.026 16.8647 12.1442 16.9486 12.2908C17.0092 12.397 17.0371 12.5187 17.0287 12.6407C17.017 12.7753 16.9676 12.9039 16.8862 13.0118C16.8049 13.1197 16.6948 13.2025 16.5686 13.2507C16.4342 13.3124 16.2857 13.3366 16.1387 13.3208C14.5987 13.2908 13.0186 13.3007 11.4386 13.3007Z" fill="#0751A0"/>
<path d="M11.4504 16.1984H16.1004C16.7304 16.1984 17.1004 16.4784 17.1004 16.9284C17.1004 17.3784 16.7304 17.6384 16.1004 17.6384H6.84042C6.44042 17.6384 6.10039 17.5684 5.94039 17.1484C5.78039 16.7284 6.11045 16.1484 6.75045 16.1484L11.4504 16.1984Z" fill="#0751A0"/>
</g>
<defs>
<linearGradient id="paint0_linear_91_13283" x1="10.8005" y1="16.3694" x2="39.1106" y2="16.3694" gradientUnits="userSpaceOnUse">
<stop stop-color="#176AB4"/>
<stop offset="1" stop-color="#B1FFC7"/>
</linearGradient>
<linearGradient id="paint1_linear_91_13283" x1="35.4102" y1="20.3883" x2="43.3601" y2="20.3883" gradientUnits="userSpaceOnUse">
<stop stop-color="#C21500"/>
<stop offset="0.52" stop-color="#F37429"/>
<stop offset="1" stop-color="#FFD1B0"/>
</linearGradient>
<clipPath id="clip0_91_13283">
<rect width="50.02" height="40.21" fill="white"/>
</clipPath>
</defs>
</svg>
