<svg width="54" height="51" viewBox="0 0 54 51" fill="none" xmlns="http://www.w3.org/2000/svg">
<g clip-path="url(#clip0_91_13266)">
<path d="M34.2796 16.7288C34.2303 16.5994 34.1475 16.4855 34.0396 16.3987C31.9396 14.3987 29.853 12.4221 27.7796 10.4688C24.5596 12.9088 17.0996 21.2388 20.0396 44.5988C20.2389 44.5741 20.4405 44.5741 20.6397 44.5988C21.1697 44.6688 21.3097 44.4888 21.2997 43.9488C21.2997 39.2088 21.2997 34.4688 21.2997 29.7388C21.2997 28.7388 21.5096 28.5388 22.5196 28.5388H30.7197C31.6697 28.5388 31.8996 28.7687 31.8996 29.7188V42.7188C31.8996 43.3288 31.6296 44.1687 32.0196 44.4987C32.4096 44.8288 33.1997 44.5688 33.8197 44.6088C34.2297 44.6088 34.3597 44.5387 34.3597 44.0887C34.3597 35.1087 34.3597 26.1321 34.3597 17.1588C34.3624 17.0115 34.3351 16.8652 34.2796 16.7288Z" fill="url(#paint0_linear_91_13266)"/>
<path d="M26.5394 50.0105H0.889501C0.666719 50.0105 0.453037 49.922 0.295507 49.7644C0.137976 49.6069 0.0494131 49.3933 0.0494131 49.1705C0.0494131 48.9477 0.137976 48.734 0.295507 48.5765C0.453037 48.419 0.666719 48.3305 0.889501 48.3305C1.6395 48.3305 2.39939 48.3305 3.14939 48.3305C3.61939 48.3305 3.76938 48.2405 3.76938 47.7405C3.76938 41.7405 3.76938 35.7738 3.76938 29.8405C3.76938 29.4105 3.68946 29.2405 3.21946 29.2705C2.50946 29.2705 1.78944 29.2705 1.07944 29.2705C0.209442 29.2705 -0.170558 28.7905 0.0794424 27.9805C1.41278 24.0205 2.74611 20.0638 4.07944 16.1105C4.27944 15.5305 4.69949 15.4205 5.24949 15.4205C9.13949 15.4205 13.0394 15.4205 16.9394 15.4205C17.1506 15.4271 17.3611 15.3932 17.5594 15.3205C17.7569 15.2481 17.9373 15.1357 18.0895 14.9905C20.5561 12.7438 23.0394 10.5171 25.5394 8.31046C25.6656 8.21165 25.7624 8.08025 25.8194 7.93045C25.8802 7.78168 25.9043 7.62046 25.8895 7.46045V1.19046C25.8895 0.26046 26.1594 -0.00953125 27.0694 -0.0195312H33.2694C34.1694 -0.0195312 34.4094 0.250452 34.4094 1.15045V4.70047C34.4094 5.60047 34.1594 5.85047 33.2694 5.86047H28.1095C27.6895 5.86047 27.5994 5.96047 27.5494 6.39047C27.4831 6.88261 27.5471 7.38351 27.7348 7.84323C27.9226 8.30295 28.2276 8.70542 28.6195 9.01047C30.8195 11.0105 32.9294 13.0105 35.0594 15.0705C35.182 15.1899 35.3287 15.2819 35.4895 15.3405C35.6487 15.4018 35.819 15.4291 35.9895 15.4205H47.6195C48.6195 15.4205 48.7194 15.4205 49.0494 16.4205C50.3361 20.2005 51.6194 23.9771 52.8994 27.7505C53.2594 28.8205 52.9694 29.2505 51.8294 29.2505C51.1694 29.2505 50.4994 29.2505 49.8294 29.2505C49.4094 29.2505 49.2994 29.3605 49.2994 29.7805C49.2994 32.8605 49.2994 35.9405 49.2994 39.0205C49.2994 40.0205 49.0695 40.3505 48.4995 40.3705C47.9295 40.3905 47.6295 39.9605 47.6295 38.9905V29.8505C47.6295 29.4105 47.5294 29.2705 47.0694 29.2805C43.5394 29.2805 39.9995 29.2805 36.4695 29.2805C36.0595 29.2805 35.9394 29.3805 35.9394 29.8105C35.9394 34.5505 35.9394 39.2871 35.9394 44.0205C35.9394 44.4305 36.0295 44.5905 36.4695 44.5605C36.9857 44.5305 37.5032 44.5305 38.0194 44.5605C38.7494 44.5605 39.0194 44.8505 39.0194 45.5605V47.8505C39.0194 48.1505 39.0194 48.3205 39.4294 48.3105H47.1794C47.5394 48.3105 47.6095 48.1805 47.5995 47.8605C47.5995 46.8605 47.5995 45.9205 47.5995 44.9505C47.5995 44.2705 47.9194 43.8905 48.4394 43.8705C48.9594 43.8505 49.2794 44.2305 49.2894 44.9405C49.2894 45.9405 49.2894 46.8805 49.2894 47.8405C49.2894 48.2105 49.4094 48.3305 49.7694 48.3205C50.4994 48.3205 51.2294 48.3205 51.9594 48.3205C52.6894 48.3205 53.0494 48.6205 53.0694 49.1405C53.0894 49.6605 52.6894 50.0005 51.9494 50.0005L26.5394 50.0105ZM18.7794 30.5105V42.7205C18.7794 43.2905 18.5795 44.0704 18.8695 44.4005C19.1595 44.7305 19.9995 44.4605 20.5895 44.5405C21.1795 44.6205 21.2595 44.4205 21.2595 43.8805C21.2595 39.1405 21.2595 34.4105 21.2595 29.6705C21.2595 28.6705 21.4595 28.4705 22.4795 28.4705H30.6794C31.6794 28.4705 31.8495 28.7005 31.8495 29.6605V42.6605C31.8495 43.2705 31.5895 44.1205 31.9695 44.4405C32.3495 44.7605 33.1594 44.5205 33.7794 44.5605C34.1794 44.5605 34.3094 44.4805 34.3094 44.0405C34.3094 35.0605 34.3094 26.0805 34.3094 17.1005C34.3162 16.9636 34.2923 16.8269 34.2395 16.7005C34.19 16.5738 34.1112 16.4607 34.0095 16.3705C31.6962 14.2038 29.3961 12.0305 27.1095 9.85046C26.8495 9.60046 26.7094 9.54046 26.4094 9.85046C24.0427 12.0105 21.6562 14.1505 19.2495 16.2705C19.0969 16.3993 18.9741 16.5596 18.8895 16.7405C18.8081 16.9226 18.7704 17.1212 18.7794 17.3205C18.8294 21.6805 18.8294 26.0905 18.8294 30.5105H18.7794ZM1.98948 27.6005H16.5194C16.7894 27.6005 17.1095 27.7305 17.1095 27.2005C17.1095 23.9705 17.1095 20.7405 17.1095 17.5105C17.1095 17.2105 17.0194 17.1105 16.7094 17.1105H5.92942C5.81653 17.0967 5.70258 17.1252 5.60947 17.1905C5.56237 17.2228 5.52221 17.2643 5.49131 17.3123C5.4604 17.3604 5.43931 17.4142 5.42942 17.4705C4.29942 20.8505 3.15948 24.1605 1.98948 27.6005ZM51.0494 27.6005C51.0542 27.5305 51.0542 27.4604 51.0494 27.3905C49.9294 24.0805 48.7994 20.7704 47.6894 17.4604C47.6674 17.3475 47.6031 17.2473 47.5095 17.1805C47.4112 17.1188 47.2942 17.094 47.1794 17.1105H36.4594C36.0694 17.1105 36.0095 17.2505 36.0095 17.5905C36.0095 20.7771 36.0095 23.9638 36.0095 27.1505C36.0095 27.5205 36.1195 27.6205 36.4795 27.6105C37.7495 27.6105 39.0194 27.6105 40.2894 27.6105L51.0494 27.6005ZM5.42942 38.7705V47.7705C5.42942 48.2005 5.51948 48.3505 5.98948 48.3505C8.47614 48.3505 10.9728 48.3505 13.4795 48.3505C13.9595 48.3505 14.0494 48.1905 14.0194 47.7705C14.0194 47.0105 14.0194 46.2605 14.0194 45.5105C13.99 45.3784 13.9935 45.2411 14.0293 45.1106C14.0651 44.9801 14.1321 44.8604 14.2248 44.7618C14.3175 44.6632 14.433 44.5888 14.561 44.545C14.689 44.5012 14.8258 44.4893 14.9594 44.5105C15.4794 44.5105 15.9595 44.5105 16.5095 44.5105C17.0595 44.5105 17.1295 44.4305 17.1195 43.9205C17.1195 39.2138 17.1195 34.5005 17.1195 29.7805C17.1195 29.3205 16.9794 29.2205 16.5494 29.2205C13.0361 29.2205 9.52605 29.2205 6.01938 29.2205C5.52938 29.2205 5.41942 29.3505 5.42942 29.8305C5.44942 32.8505 5.42942 35.8505 5.42942 38.7705ZM26.5394 46.2005H17.1894C15.6794 46.2005 15.7094 46.2005 15.6694 47.6805C15.6694 48.2405 15.8295 48.3305 16.3495 48.3305C22.8395 48.3305 29.3494 48.3305 35.8294 48.3305C36.3294 48.3305 37.0094 48.5705 37.2994 48.2205C37.5894 47.8705 37.2994 47.2805 37.3994 46.7905C37.4994 46.3005 37.2494 46.2104 36.7994 46.2104C33.3794 46.2104 29.9594 46.2005 26.5394 46.2005ZM30.1694 37.3505V30.7005C30.1694 30.2505 30.0495 30.1105 29.5995 30.1405C29.0402 30.1805 28.4787 30.1805 27.9194 30.1405C27.4494 30.1405 27.3495 30.2905 27.3595 30.7305C27.3595 35.1305 27.3595 39.5371 27.3595 43.9505C27.3595 44.3805 27.4294 44.5805 27.9094 44.5405C28.4887 44.5005 29.0701 44.5005 29.6494 44.5405C30.0994 44.5405 30.1694 44.3905 30.1594 44.0005C30.1494 41.7805 30.1694 39.5605 30.1694 37.3505ZM22.9194 37.2905V44.0105C22.9194 44.4305 23.0294 44.5605 23.4494 44.5405C24.0324 44.5104 24.6165 44.5104 25.1994 44.5405C25.5794 44.5405 25.7294 44.4705 25.7094 44.0505C25.6894 43.6305 25.7094 42.9805 25.7094 42.4505V30.7605C25.7094 30.2805 25.5895 30.1205 25.0995 30.1605C24.5669 30.2005 24.0321 30.2005 23.4995 30.1605C23.0495 30.1605 22.9194 30.2605 22.9294 30.7205C22.9494 32.9005 22.9194 35.0905 22.9194 37.2905ZM30.1694 4.20047H30.7495C31.4095 4.20047 32.3094 4.49047 32.6594 4.07047C33.0094 3.65047 32.7495 2.80047 32.7595 2.14047V2.08047C32.7595 1.75047 32.6495 1.68045 32.3495 1.68045H28.0394C27.7094 1.68045 27.5795 1.77045 27.5895 2.12045C27.6195 2.67672 27.6195 3.2342 27.5895 3.79047C27.5895 4.16047 27.7394 4.21045 28.0494 4.21045H30.1694V4.20047Z" fill="#0751A0"/>
<path d="M37.9297 37.4213V33.4213C37.9297 32.5813 38.2197 32.2912 39.0597 32.2812H45.0597C45.8897 32.2812 46.1697 32.5912 46.1697 33.4312V41.4312C46.1697 42.2712 45.8797 42.5612 45.0497 42.5612H39.1097C38.2197 42.5612 37.9397 42.2913 37.9297 41.4113V37.4213ZM42.1198 33.9513C41.4298 33.9513 40.7397 33.9513 40.0597 33.9513C39.6797 33.9513 39.5797 34.0712 39.5897 34.4312C39.5897 35.1312 39.5897 35.8412 39.5897 36.5612C39.5897 36.9012 39.6897 37.0113 40.0297 37.0013H44.0297C44.3797 37.0013 44.4697 36.8912 44.4597 36.5612C44.4597 35.8346 44.4597 35.1046 44.4597 34.3712C44.4597 34.0712 44.3797 33.9513 44.0597 33.9713H42.0597L42.1198 33.9513ZM42.0497 38.6212H41.3497C40.7897 38.6212 40.0497 38.3812 39.7297 38.7112C39.4097 39.0412 39.6597 39.8613 39.5997 40.4513C39.5997 40.8113 39.6797 40.9313 40.0597 40.9213C40.9597 40.9213 41.8598 40.9213 42.7598 40.9213C43.3198 40.9213 44.0598 41.1113 44.3798 40.8313C44.6998 40.5513 44.4498 39.7413 44.5098 39.1713C44.5098 38.7613 44.4297 38.5912 43.9797 38.6212C43.3497 38.6212 42.6897 38.6212 42.0497 38.6212Z" fill="#0751A0"/>
<path d="M48.5493 41.2595C48.6566 41.2588 48.7627 41.2827 48.8593 41.3295C48.9547 41.3708 49.04 41.4322 49.1093 41.5095C49.1778 41.5897 49.2318 41.681 49.2693 41.7795C49.2887 41.8819 49.2887 41.9871 49.2693 42.0895C49.2893 42.1952 49.2893 42.3038 49.2693 42.4095C49.2309 42.5122 49.1694 42.6046 49.0893 42.6795C49.0107 42.7552 48.9144 42.8101 48.8093 42.8395C48.7047 42.8695 48.5939 42.8695 48.4894 42.8395C48.3842 42.8646 48.2745 42.8646 48.1693 42.8395C48.0666 42.8011 47.9742 42.7395 47.8993 42.6595C47.8223 42.584 47.7641 42.4916 47.7293 42.3895C47.71 42.2837 47.71 42.1753 47.7293 42.0695C47.7234 41.9607 47.7406 41.8519 47.7799 41.7503C47.8191 41.6487 47.8796 41.5566 47.9571 41.48C48.0346 41.4034 48.1275 41.3442 48.2296 41.3062C48.3317 41.2682 48.4406 41.2523 48.5493 41.2595Z" fill="#0751A0"/>
<path d="M26.5695 16.3281C27.0984 16.3265 27.6223 16.432 28.1095 16.6381C28.8425 16.9439 29.4679 17.461 29.906 18.1235C30.3441 18.786 30.5751 19.5639 30.5695 20.3581C30.5685 20.8879 30.4597 21.4118 30.2495 21.8981C30.0491 22.3857 29.7529 22.8281 29.3784 23.1991C29.004 23.5701 28.5588 23.8622 28.0695 24.0581C27.5813 24.2588 27.0572 24.3575 26.5294 24.3481C26.0026 24.3459 25.4814 24.2397 24.9957 24.0354C24.5101 23.8312 24.0696 23.5331 23.6995 23.1581C23.3253 22.7849 23.0298 22.3403 22.8306 21.8507C22.6313 21.3612 22.5323 20.8366 22.5394 20.3081C22.5428 19.7829 22.6482 19.2633 22.8495 18.7781C23.0529 18.2932 23.3522 17.8544 23.7295 17.4881C24.1013 17.1154 24.543 16.8197 25.0294 16.6181C25.5203 16.4268 26.0426 16.3285 26.5695 16.3281ZM28.8895 20.3281C28.8864 19.8633 28.7511 19.409 28.4995 19.0181C28.236 18.6357 27.868 18.3371 27.4394 18.1581C27.0082 17.9824 26.5348 17.937 26.078 18.0276C25.6212 18.1183 25.201 18.341 24.8695 18.6681C24.5437 19.0011 24.3214 19.4214 24.2295 19.8781C24.1403 20.3353 24.1891 20.8087 24.3695 21.2381C24.5451 21.666 24.8446 22.0317 25.2295 22.2881C25.6167 22.5486 26.0727 22.6878 26.5394 22.6881C26.8516 22.6884 27.1609 22.6272 27.4495 22.5081C27.7329 22.388 27.9909 22.2149 28.2095 21.9981C28.4287 21.7777 28.6021 21.516 28.7195 21.2281C28.84 20.9403 28.898 20.6301 28.8895 20.3181V20.3281Z" fill="#0751A0"/>
<path d="M7.03906 37.4312V33.4312C7.03906 32.5812 7.29916 32.2912 8.13916 32.2812H14.1392C14.9692 32.2812 15.2592 32.5813 15.2592 33.4213V41.4213C15.2592 42.2613 14.969 42.5612 14.149 42.5612H8.14905C7.31905 42.5612 7.03906 42.2712 7.03906 41.4312V37.4312ZM11.1791 33.9513H9.10913C8.80913 33.9513 8.6891 34.0313 8.6991 34.3513C8.6991 35.0846 8.6991 35.8146 8.6991 36.5413C8.6991 36.8713 8.78915 36.9913 9.12915 36.9913C10.4892 36.9913 11.8391 36.9913 13.1991 36.9913C13.4991 36.9913 13.6191 36.9112 13.6191 36.5912C13.6191 35.8612 13.6191 35.1213 13.6191 34.3913C13.6191 34.0613 13.5191 33.9413 13.1791 33.9513C12.5091 33.9713 11.8291 33.9513 11.1791 33.9513ZM11.1791 40.9513H13.2391C13.4991 40.9513 13.6291 40.8912 13.6191 40.5912C13.6191 40.0712 13.6191 39.5913 13.6191 39.0513C13.6191 38.7413 13.4991 38.6512 13.1991 38.6512H9.0791C8.8091 38.6512 8.69911 38.7413 8.70911 39.0213C8.70911 39.5313 8.70911 40.0212 8.70911 40.5612C8.70911 40.8812 8.81913 40.9613 9.10913 40.9513H11.1891H11.1791Z" fill="#0751A0"/>
<path d="M11.1392 40.9094H13.2091C13.4691 40.9094 13.5991 40.8494 13.5891 40.5494C13.5891 40.0294 13.5891 39.5494 13.5891 39.0094C13.5891 38.6994 13.4791 38.6094 13.1791 38.6094H10.1191C10.2409 39.4327 10.545 40.2185 11.0092 40.9094H11.1392Z" fill="url(#paint1_linear_91_13266)"/>
<path d="M13.1698 36.9898C13.4598 36.9898 13.5898 36.9098 13.5798 36.5898C13.5798 35.8598 13.5798 35.1198 13.5798 34.3898C13.5798 34.0598 13.4898 33.9398 13.1498 33.9498H11.3899C10.6683 34.7985 10.2157 35.8429 10.0898 36.9498L13.1698 36.9898Z" fill="url(#paint2_linear_91_13266)"/>
<path d="M44.0604 36.9898C44.3604 36.9898 44.4905 36.9098 44.4805 36.5898C44.4805 35.8598 44.4805 35.1198 44.4805 34.3898C44.4805 34.0598 44.3804 33.9398 44.0404 33.9498H42.2804C41.5588 34.7985 41.1063 35.8429 40.9805 36.9498L44.0604 36.9898Z" fill="url(#paint3_linear_91_13266)"/>
</g>
<defs>
<linearGradient id="paint0_linear_91_13266" x1="19.3696" y1="27.5488" x2="34.3497" y2="27.5488" gradientUnits="userSpaceOnUse">
<stop stop-color="#176AB4"/>
<stop offset="1" stop-color="#B1FFC7"/>
</linearGradient>
<linearGradient id="paint1_linear_91_13266" x1="10.0991" y1="39.7594" x2="13.5891" y2="39.7594" gradientUnits="userSpaceOnUse">
<stop stop-color="#C21500"/>
<stop offset="0.52" stop-color="#F37429"/>
<stop offset="1" stop-color="#FFD1B0"/>
</linearGradient>
<linearGradient id="paint2_linear_91_13266" x1="10.0898" y1="35.4698" x2="13.5798" y2="35.4698" gradientUnits="userSpaceOnUse">
<stop stop-color="#C21500"/>
<stop offset="0.52" stop-color="#F37429"/>
<stop offset="1" stop-color="#FFD1B0"/>
</linearGradient>
<linearGradient id="paint3_linear_91_13266" x1="40.9805" y1="35.4698" x2="44.4805" y2="35.4698" gradientUnits="userSpaceOnUse">
<stop stop-color="#C21500"/>
<stop offset="0.52" stop-color="#F37429"/>
<stop offset="1" stop-color="#FFD1B0"/>
</linearGradient>
<clipPath id="clip0_91_13266">
<rect width="53.14" height="50.03" fill="white"/>
</clipPath>
</defs>
</svg>
