<svg width="54" height="54" viewBox="0 0 54 54" fill="none" xmlns="http://www.w3.org/2000/svg">
<circle cx="27" cy="27" r="21" fill="#24B24B"/>
<circle cx="27" cy="27" r="26.5" stroke="#24B24B"/>
<path d="M19.5419 35.693C19.7498 35.693 19.9199 35.5229 19.9199 35.315V27.9242C19.9199 27.7163 19.7498 27.5461 19.5419 27.5461H17.9276C17.7197 27.5461 17.5496 27.7163 17.5496 27.9242V35.315C17.5496 35.5229 17.7197 35.693 17.9276 35.693H19.5419Z" fill="white"/>
<path d="M22.5611 22.1867C22.383 22.2155 22.2522 22.3682 22.2522 22.5459V23.8967C22.2522 24.0743 22.383 24.2271 22.5573 24.2558L23.327 24.3794C23.4393 24.8297 23.6173 25.2542 23.857 25.6534L23.3996 26.2852C23.2945 26.4307 23.3122 26.6303 23.4393 26.7573L24.3904 27.7085C24.5178 27.8355 24.7174 27.8503 24.8588 27.7486L25.4905 27.2911C25.8901 27.5304 26.3185 27.7047 26.7683 27.8208L26.8919 28.5871C26.9211 28.7647 27.0734 28.8918 27.2515 28.8918H28.6019C28.7799 28.8918 28.9323 28.7647 28.9614 28.5871L29.0846 27.8208C29.5349 27.7047 29.9636 27.5304 30.359 27.2911L30.9907 27.7486C31.1359 27.8503 31.3359 27.8355 31.4625 27.7085L32.4141 26.7573C32.5411 26.6303 32.5555 26.4307 32.4538 26.2852L31.9963 25.6534C32.236 25.2542 32.4141 24.8297 32.5264 24.3794L33.2927 24.2558C33.4703 24.2271 33.5974 24.0743 33.5974 23.8967V22.5459C33.5974 22.3682 33.4703 22.2155 33.2927 22.1867L32.5264 22.0631C32.4141 21.6129 32.236 21.1846 31.9963 20.7853L32.4538 20.1536C32.5555 20.0119 32.5411 19.8123 32.4141 19.6852L31.4625 18.7303C31.3359 18.6071 31.1359 18.5889 30.9907 18.694L30.359 19.1514C29.9636 18.9117 29.5349 18.7341 29.0846 18.6214L28.9614 17.8517C28.9323 17.6774 28.7799 17.547 28.6019 17.547H27.2515C27.0734 17.547 26.9211 17.6774 26.8919 17.8517L26.7683 18.6214C26.3185 18.7341 25.8901 18.9117 25.4943 19.1514L24.8588 18.694C24.7136 18.5889 24.5178 18.6071 24.3904 18.7303L23.4393 19.6852C23.3122 19.8123 23.2945 20.0119 23.3996 20.1536L23.857 20.7853C23.6173 21.1846 23.4393 21.6129 23.327 22.0631L22.5611 22.1867ZM27.9263 21.1195C29.0831 21.1195 30.0248 22.062 30.0248 23.2211C30.0248 24.3775 29.0831 25.3226 27.9263 25.3226C26.7698 25.3226 25.8247 24.3775 25.8247 23.2211C25.8247 22.062 26.7698 21.1195 27.9263 21.1195Z" fill="white"/>
<path d="M20.6758 34.4568C21.4961 34.5286 22.5017 34.7139 23.0348 34.9861L25.08 36.037C25.6206 36.313 26.2028 36.4529 26.7888 36.4529C27.4428 36.4529 28.093 36.279 28.6828 35.935L35.7296 31.7916C36.0774 31.5988 36.3269 31.2699 36.4138 30.8843C36.5046 30.4987 36.4252 30.0904 36.1946 29.769C35.7976 29.2095 35.0377 29.0205 34.4253 29.3381L31.0115 31.0922C30.8792 31.5836 30.5655 32.0373 30.0135 32.3057C29.73 32.4418 29.4162 32.4985 29.1062 32.4985H25.5375C25.3295 32.4985 25.1594 32.3322 25.1594 32.1205C25.1594 31.9125 25.3295 31.7424 25.5375 31.7424H29.1251C29.386 31.7424 29.6506 31.6782 29.8585 31.5232C30.108 31.3417 30.2592 31.0809 30.3084 30.8087C30.4029 30.2907 29.9871 29.7879 29.4578 29.7842H29.4502H24.8985L22.8949 28.9222C22.8458 28.9033 22.7966 28.892 22.7475 28.892H20.6758V34.4568Z" fill="white"/>
</svg>
