<svg width="54" height="54" viewBox="0 0 54 54" fill="none" xmlns="http://www.w3.org/2000/svg">
<ellipse cx="26.5" cy="27" rx="20.5" ry="21" fill="#F37124"/>
<circle cx="27" cy="27" r="26.5" stroke="#F37124"/>
<g clip-path="url(#clip0_586_5044)">
<path d="M37.7206 39H26.993H16.2794C15.9701 39 15.717 38.7469 15.717 38.4376V33.826C15.717 33.5729 15.7311 31.1406 18.7258 29.9174C18.7539 29.8892 18.7961 29.8752 18.8383 29.8752L24.181 28.4411C24.3778 28.3708 24.6169 28.427 24.7715 28.5817L26.993 30.9437L29.2003 28.6098C29.3409 28.4551 29.5659 28.3708 29.7768 28.427L35.1336 29.8611C35.1617 29.8752 35.1898 29.8752 35.232 29.8892C38.1705 31.0703 38.2829 33.4042 38.2829 33.7979C38.2829 33.8119 38.2829 33.8119 38.2829 33.826V38.4376C38.2829 38.7469 38.0299 39 37.7206 39Z" fill="white"/>
<path fill-rule="evenodd" clip-rule="evenodd" d="M28.7645 17.2917L28.7364 17.2777V15.5624C28.7364 15.2531 28.4833 15 28.174 15H25.8119C25.5026 15 25.2496 15.2531 25.2496 15.5624V17.2777L25.2214 17.2917L24.0123 16.0826C23.8014 15.8576 23.4358 15.8576 23.2109 16.0826L21.5518 17.7417C21.3269 17.9666 21.3269 18.3181 21.5518 18.5431L22.761 19.7522L22.7469 19.7803H21.0316C20.7223 19.7803 20.4692 20.0334 20.4692 20.3427V22.7047C20.4692 23.0141 20.7223 23.2671 21.0316 23.2671H22.7469L22.761 23.2812V23.2953L21.5518 24.5044C21.3269 24.7293 21.3269 25.0949 21.5518 25.3058L23.2109 26.9789C23.4358 27.2039 23.7873 27.2039 24.0123 26.9789L25.2214 25.7698H25.2496V27.4991C25.2496 27.8084 25.5026 28.0615 25.8119 28.0615H28.174C28.4833 28.0615 28.7364 27.8084 28.7364 27.4991V25.7698H28.7645L29.9736 26.9789C30.1986 27.2039 30.5641 27.2039 30.775 26.9789L32.4481 25.3058C32.6731 25.0949 32.6731 24.7293 32.4481 24.5185L31.239 23.2953V23.2671H32.9684C33.2777 23.2671 33.5307 23.0141 33.5307 22.7047V20.3427C33.5307 20.0334 33.2777 19.7803 32.9684 19.7803H31.239V19.7663V19.7522L32.4481 18.5431C32.6731 18.3322 32.6731 17.9666 32.4481 17.7417L30.7891 16.0826C30.5641 15.8576 30.1986 15.8576 29.9877 16.0826L28.7645 17.2917ZM24.181 21.5237C24.181 19.9772 25.4464 18.7118 26.993 18.7118C28.5536 18.7118 29.819 19.9772 29.819 21.5237C29.819 23.0844 28.5536 24.3497 26.993 24.3497C25.4464 24.3497 24.181 23.0844 24.181 21.5237Z" fill="white"/>
</g>
<defs>
<clipPath id="clip0_586_5044">
<rect width="24" height="24" fill="white" transform="translate(15 15)"/>
</clipPath>
</defs>
</svg>
