<svg width="54" height="54" viewBox="0 0 54 54" fill="none" xmlns="http://www.w3.org/2000/svg">
<circle cx="27" cy="27" r="21" fill="#0751A0"/>
<circle cx="27" cy="27" r="26.5" stroke="#0751A0"/>
<path d="M37.5 23.8125C37.5 30.375 27.7697 35.6869 27.3553 35.9062C27.2461 35.965 27.124 35.9958 27 35.9958C26.876 35.9958 26.7539 35.965 26.6447 35.9062C26.2303 35.6869 16.5 30.375 16.5 23.8125C16.5017 22.2715 17.1147 20.794 18.2044 19.7044C19.294 18.6147 20.7715 18.0017 22.3125 18C24.2484 18 25.9434 18.8325 27 20.2397C28.0566 18.8325 29.7516 18 31.6875 18C33.2285 18.0017 34.706 18.6147 35.7956 19.7044C36.8853 20.794 37.4983 22.2715 37.5 23.8125Z" fill="white"/>
</svg>
