<svg width="25" height="24" viewBox="0 0 25 24" fill="none" xmlns="http://www.w3.org/2000/svg">
<path d="M16.5 22.75H8.5C4.85 22.75 2.75 20.65 2.75 17V7C2.75 3.35 4.85 1.25 8.5 1.25H16.5C20.15 1.25 22.25 3.35 22.25 7V17C22.25 20.65 20.15 22.75 16.5 22.75ZM8.5 2.75C5.64 2.75 4.25 4.14 4.25 7V17C4.25 19.86 5.64 21.25 8.5 21.25H16.5C19.36 21.25 20.75 19.86 20.75 17V7C20.75 4.14 19.36 2.75 16.5 2.75H8.5Z" fill="#505050"/>
<path d="M18.998 9.25H16.998C15.478 9.25 14.248 8.02 14.248 6.5V4.5C14.248 4.09 14.588 3.75 14.998 3.75C15.408 3.75 15.748 4.09 15.748 4.5V6.5C15.748 7.19 16.308 7.75 16.998 7.75H18.998C19.408 7.75 19.748 8.09 19.748 8.5C19.748 8.91 19.408 9.25 18.998 9.25Z" fill="#505050"/>
<path d="M12.502 13.75H8.50195C8.09195 13.75 7.75195 13.41 7.75195 13C7.75195 12.59 8.09195 12.25 8.50195 12.25H12.502C12.912 12.25 13.252 12.59 13.252 13C13.252 13.41 12.912 13.75 12.502 13.75Z" fill="#505050"/>
<path d="M16.502 17.75H8.50195C8.09195 17.75 7.75195 17.41 7.75195 17C7.75195 16.59 8.09195 16.25 8.50195 16.25H16.502C16.912 16.25 17.252 16.59 17.252 17C17.252 17.41 16.912 17.75 16.502 17.75Z" fill="#505050"/>
</svg>
