<svg width="24" height="24" viewBox="0 0 24 24" fill="none" xmlns="http://www.w3.org/2000/svg">
<path d="M20 7.20078C20 8.52626 18.9255 9.60078 17.6 9.60078C16.2745 9.60078 15.2 8.52626 15.2 7.20078C15.2 5.8753 16.2745 4.80078 17.6 4.80078C18.9255 4.80078 20 5.8753 20 7.20078Z" fill="#0751A0"/>
<path fill-rule="evenodd" clip-rule="evenodd" d="M13.6 6.40078H10.4C7.38301 6.40078 5.87452 6.40078 4.93726 7.33804C4 8.2753 4 9.78379 4 12.8008C4 15.8178 4 17.3263 4.93726 18.2635C5.87452 19.2008 7.38301 19.2008 10.4 19.2008H13.6C16.617 19.2008 18.1255 19.2008 19.0627 18.2635C20 17.3263 20 15.8178 20 12.8008C20 11.6381 20 10.6994 19.9464 9.93118C19.3162 10.4732 18.4964 10.8008 17.6 10.8008C17.2171 10.8008 16.8481 10.741 16.5019 10.6302L15.4269 11.526C14.7178 12.117 14.1431 12.5959 13.6359 12.9222C13.1075 13.262 12.5929 13.4767 12 13.4767C11.4071 13.4767 10.8925 13.262 10.3641 12.9222C9.85689 12.5959 9.28217 12.117 8.57308 11.526L6.81589 10.0617C6.56132 9.84958 6.52693 9.47124 6.73907 9.21667C6.95121 8.9621 7.32954 8.92771 7.58411 9.13985L9.31123 10.5791C10.0576 11.2011 10.5758 11.6315 11.0133 11.9129C11.4368 12.1853 11.7239 12.2767 12 12.2767C12.2761 12.2767 12.5632 12.1853 12.9867 11.9129C13.4242 11.6315 13.9424 11.2011 14.6888 10.5791L15.3604 10.0195C14.5314 9.35993 14 8.34241 14 7.20078C14 6.92588 14.0308 6.65818 14.0892 6.40094C13.9307 6.40078 13.7677 6.40078 13.6 6.40078Z" fill="#0751A0"/>
</svg>
