<svg width="40" height="40" viewBox="0 0 40 40" fill="none" xmlns="http://www.w3.org/2000/svg">
<path d="M20.0007 3.33398C10.8007 3.33398 3.33398 10.8007 3.33398 20.0007C3.33398 29.2007 10.8007 36.6673 20.0007 36.6673C29.2007 36.6673 36.6673 29.2007 36.6673 20.0007C36.6673 10.8007 29.2007 3.33398 20.0007 3.33398ZM26.7173 20.884L21.7173 25.884C21.4673 26.134 21.1507 26.2507 20.834 26.2507C20.5173 26.2507 20.2007 26.134 19.9507 25.884C19.4673 25.4007 19.4673 24.6007 19.9507 24.1173L22.8173 21.2507H14.1673C13.484 21.2507 12.9173 20.684 12.9173 20.0007C12.9173 19.3173 13.484 18.7507 14.1673 18.7507H22.8173L19.9507 15.884C19.4673 15.4007 19.4673 14.6007 19.9507 14.1173C20.434 13.634 21.234 13.634 21.7173 14.1173L26.7173 19.1173C27.2007 19.6007 27.2007 20.4007 26.7173 20.884Z" fill="white"/>
</svg>
