<svg width="41" height="40" viewBox="0 0 41 40" fill="none" xmlns="http://www.w3.org/2000/svg">
<path d="M20.1491 3.33301C10.9491 3.33301 3.48242 10.7997 3.48242 19.9997C3.48242 29.1997 10.9491 36.6663 20.1491 36.6663C29.3491 36.6663 36.8158 29.1997 36.8158 19.9997C36.8158 10.7997 29.3491 3.33301 20.1491 3.33301ZM26.8658 20.883L21.8658 25.883C21.6158 26.133 21.2991 26.2497 20.9824 26.2497C20.6658 26.2497 20.3491 26.133 20.0991 25.883C19.6158 25.3997 19.6158 24.5997 20.0991 24.1163L22.9658 21.2497H14.3158C13.6324 21.2497 13.0658 20.683 13.0658 19.9997C13.0658 19.3163 13.6324 18.7497 14.3158 18.7497H22.9658L20.0991 15.883C19.6158 15.3997 19.6158 14.5997 20.0991 14.1163C20.5824 13.633 21.3824 13.633 21.8658 14.1163L26.8658 19.1163C27.3491 19.5997 27.3491 20.3997 26.8658 20.883Z" fill="url(#gradient-bg)"/>
<defs>
<linearGradient id="gradient-bg" x1="20.1491" y1="3.33301" x2="20.1491" y2="36.6663" gradientUnits="userSpaceOnUse">
<stop stop-color="#F09819"/>
<stop offset="1" stop-color="#FF512F"/>
</linearGradient>
</defs>
</svg>
