<svg width="75" height="74" viewBox="0 0 75 74" fill="none" xmlns="http://www.w3.org/2000/svg">
<path d="M56.7563 71.0615C64.9524 71.0615 71.5967 64.4173 71.5967 56.2212C71.5967 48.0251 64.9524 41.3809 56.7563 41.3809C48.5603 41.3809 41.916 48.0251 41.916 56.2212C41.916 64.4173 48.5603 71.0615 56.7563 71.0615Z" fill="url(#paint0_linear_1025_40464)"/>
<path d="M66.965 34.1088C66.965 36.8584 66.626 39.5515 65.9668 42.1128C63.7822 40.964 61.2963 40.3237 58.6597 40.3237C49.94 40.3237 42.8777 47.386 42.8777 56.1056C42.8777 59.6274 44.0265 62.8667 45.9663 65.4844C45.2695 65.3714 44.5538 65.2208 43.857 65.0324C35.7024 63.0362 28.6965 58.0266 24.139 51.2656C23.1597 49.8531 22.2934 48.3653 21.54 46.7834C19.4684 42.4141 18.3008 37.5176 18.3008 32.3574C18.3008 18.986 26.0599 7.46028 37.3408 2.01758C53.9326 3.35471 66.9462 17.2157 66.9462 34.1277L66.965 34.1088Z" fill="url(#paint1_linear_1025_40464)"/>
<path d="M64.9675 42.3401C64.9675 42.3401 64.9675 42.2647 65.0052 42.2271C65.6644 39.6658 66.0034 36.9915 66.0034 34.2231C66.0034 17.3111 52.9898 3.4313 36.398 2.113C35.5317 2.03767 34.6466 2 33.7614 2C15.9455 2 1.51953 16.426 1.51953 34.2231C1.51953 52.0202 15.9455 66.465 33.7426 66.465C36.9254 66.465 39.9763 66.013 42.8954 65.1279C42.9519 65.1279 42.9707 65.1279 43.0272 65.0902" stroke="#0C4578" stroke-width="2.5" stroke-linejoin="round"/>
<path d="M48.565 32.8129C48.565 28.6131 47.0772 24.9407 43.8568 22.1158C42.256 20.6656 40.4669 19.7428 38.5459 19.2343C35.5515 18.3492 32.4064 18.5187 29.525 19.724C27.8677 20.402 26.3234 21.4566 24.9862 22.8691C20.052 27.9728 19.0539 37.0503 25.8149 43.5476C25.4947 43.7548 25.2122 43.9243 24.9862 44.0373C23.3854 44.8283 21.9353 45.7699 20.5982 46.8622C17.7544 49.1222 15.551 52.0789 14.0067 55.6572C13.7807 56.3352 13.4417 56.9943 13.291 57.71C14.6658 58.8211 16.1159 59.8192 17.6602 60.5914C18.4889 56.919 20.278 53.7927 23.1971 51.3256C23.9693 50.6476 24.8167 50.0261 25.7584 49.4611C26.3234 49.1222 26.8507 48.7832 27.4157 48.576C30.5608 46.9752 33.7812 46.4102 36.9451 46.8434C38.6589 47.0694 40.335 47.5967 41.9923 48.4253C42.8022 46.8434 43.8568 45.4309 45.1374 44.2256C44.7043 43.9808 44.2711 43.7359 43.838 43.4723C46.9454 40.5909 48.6027 37.0503 48.6027 32.7752L48.565 32.8129ZM36.7191 41.5137C36.1165 41.6832 35.495 41.7208 34.8358 41.7208C31.6343 41.7208 28.7905 39.894 27.3027 37.2386C26.474 35.9015 26.0409 34.3572 26.0409 32.6999C26.0409 30.4964 26.8695 28.4436 28.2632 26.8805C29.864 24.9407 32.2557 23.7354 34.8923 23.7731C35.8905 23.7731 36.851 23.9991 37.7361 24.3757C41.1637 25.5434 43.5931 28.9145 43.5931 32.794C43.5366 37.0126 40.5987 40.6097 36.738 41.4948L36.7191 41.5137Z" fill="#0C4578"/>
<path d="M73.4611 56.2195C73.4611 56.6903 73.4611 57.1799 73.4046 57.6508C72.689 65.6924 65.9279 72.0014 57.698 72.0014C52.5001 72.0014 47.886 69.4967 45.0046 65.5982C43.0648 62.9805 41.916 59.7412 41.916 56.2195C41.916 47.4998 48.9783 40.4375 57.698 40.4375C60.3157 40.4375 62.8205 41.0778 65.0051 42.2266C70.0524 44.8444 73.4799 50.1364 73.4799 56.2195H73.4611Z" stroke="#0C4578" stroke-width="2.5" stroke-linejoin="round"/>
<path d="M59.7682 47.6673C59.7682 46.5232 58.8407 45.5957 57.6966 45.5957C56.5525 45.5957 55.625 46.5232 55.625 47.6673V58.9106C55.625 60.0547 56.5525 60.9822 57.6966 60.9822C58.8407 60.9822 59.7682 60.0547 59.7682 58.9106V47.6673Z" fill="#0C4578"/>
<path d="M57.6993 68.1251C58.9786 68.1251 60.0157 67.088 60.0157 65.8086C60.0157 64.5293 58.9786 63.4922 57.6993 63.4922C56.4199 63.4922 55.3828 64.5293 55.3828 65.8086C55.3828 67.088 56.4199 68.1251 57.6993 68.1251Z" fill="#0C4578"/>
<defs>
<linearGradient id="paint0_linear_1025_40464" x1="41.916" y1="56.2212" x2="71.5778" y2="56.2212" gradientUnits="userSpaceOnUse">
<stop stop-color="#C21500"/>
<stop offset="0.52" stop-color="#F37429"/>
<stop offset="1" stop-color="#FFD1B0"/>
</linearGradient>
<linearGradient id="paint1_linear_1025_40464" x1="18.3196" y1="33.7322" x2="66.965" y2="33.7322" gradientUnits="userSpaceOnUse">
<stop stop-color="#176AB4"/>
<stop offset="1" stop-color="#B1FFC7"/>
</linearGradient>
</defs>
</svg>
