<svg width="25" height="24" viewBox="0 0 25 24" fill="none" xmlns="http://www.w3.org/2000/svg">
<path d="M21.5 16.25H15.5C15.09 16.25 14.75 15.91 14.75 15.5C14.75 15.09 15.09 14.75 15.5 14.75H21.5C21.91 14.75 22.25 15.09 22.25 15.5C22.25 15.91 21.91 16.25 21.5 16.25Z" fill="#505050"/>
<path d="M21.5 20.25H15.5C15.09 20.25 14.75 19.91 14.75 19.5C14.75 19.09 15.09 18.75 15.5 18.75H21.5C21.91 18.75 22.25 19.09 22.25 19.5C22.25 19.91 21.91 20.25 21.5 20.25Z" fill="#505050"/>
<path d="M22.5 8.52V3.98C22.5 2.57 21.86 2 20.27 2H16.23C14.64 2 14 2.57 14 3.98V8.51C14 9.93 14.64 10.49 16.23 10.49H20.27C21.86 10.5 22.5 9.93 22.5 8.52Z" fill="#505050"/>
<path d="M11.001 8.52V3.98C11.001 2.57 10.361 2 8.77098 2H4.73098C3.14098 2 2.50098 2.57 2.50098 3.98V8.51C2.50098 9.93 3.14098 10.49 4.73098 10.49H8.77098C10.361 10.5 11.001 9.93 11.001 8.52Z" fill="#505050"/>
<path d="M11.001 19.77V15.73C11.001 14.14 10.361 13.5 8.77098 13.5H4.73098C3.14098 13.5 2.50098 14.14 2.50098 15.73V19.77C2.50098 21.36 3.14098 22 4.73098 22H8.77098C10.361 22 11.001 21.36 11.001 19.77Z" fill="#505050"/>
</svg>
