<svg width="30" height="30" viewBox="0 0 30 30" fill="none" xmlns="http://www.w3.org/2000/svg">
<path d="M18.5562 17.5477L18.1007 18.0272C18.1007 18.0272 17.0181 19.167 14.0631 16.0559C11.1081 12.9448 12.1907 11.8051 12.1907 11.8051L12.4775 11.5031C13.1841 10.7592 13.2507 9.56497 12.6342 8.6931L11.3733 6.90961C10.6103 5.8305 9.13596 5.68795 8.26145 6.60864L6.69185 8.26114C6.25823 8.71766 5.96765 9.30945 6.00289 9.96594C6.09304 11.6455 6.81071 15.259 10.8154 19.4752C15.0621 23.9462 19.0468 24.1239 20.6763 23.9631C21.1917 23.9122 21.6399 23.6343 22.0011 23.254L23.4217 21.7584C24.3806 20.7489 24.1102 19.0182 22.8833 18.312L20.9728 17.2123C20.1672 16.7486 19.1858 16.8848 18.5562 17.5477Z" fill="white"/>
<path d="M16.2595 4.87983C16.3257 4.47094 16.7122 4.19357 17.1211 4.25976C17.1464 4.26461 17.2279 4.27983 17.2705 4.28933C17.3559 4.30834 17.4749 4.33759 17.6233 4.38082C17.9201 4.46726 18.3347 4.60967 18.8323 4.8378C19.8286 5.29456 21.1544 6.09356 22.5302 7.46936C23.906 8.84516 24.705 10.171 25.1617 11.1673C25.3899 11.6649 25.5323 12.0795 25.6187 12.3763C25.6619 12.5247 25.6912 12.6437 25.7102 12.729C25.7197 12.7717 25.7267 12.8059 25.7315 12.8313L25.7373 12.8624C25.8034 13.2713 25.5286 13.6739 25.1197 13.7401C24.712 13.8061 24.3279 13.53 24.2601 13.1231C24.258 13.1121 24.2522 13.0828 24.2461 13.0551C24.2337 12.9997 24.2124 12.9119 24.1786 12.7957C24.1109 12.5634 23.9934 12.2181 23.7982 11.7924C23.4084 10.9421 22.7074 9.76789 21.4695 8.53002C20.2317 7.29216 19.0575 6.59117 18.2072 6.20134C17.7815 6.00618 17.4362 5.88865 17.2038 5.82097C17.0877 5.78714 16.9417 5.75363 16.8863 5.7413C16.4793 5.67347 16.1935 5.28755 16.2595 4.87983Z" fill="white"/>
<path fill-rule="evenodd" clip-rule="evenodd" d="M16.4857 8.3293C16.5995 7.93102 17.0146 7.7004 17.4129 7.81419L17.2069 8.53534C17.4129 7.81419 17.4129 7.81419 17.4129 7.81419L17.4144 7.81461L17.4159 7.81505L17.4192 7.81602L17.427 7.81834L17.4468 7.8245C17.4618 7.82932 17.4807 7.8356 17.5031 7.84357C17.548 7.85951 17.6074 7.88217 17.6802 7.91337C17.8259 7.97581 18.0249 8.07223 18.2695 8.21694C18.7589 8.50662 19.4271 8.9878 20.2121 9.77277C20.9971 10.5577 21.4782 11.2259 21.7679 11.7154C21.9126 11.9599 22.009 12.159 22.0715 12.3047C22.1027 12.3775 22.1254 12.4368 22.1413 12.4817C22.1493 12.5042 22.1555 12.523 22.1604 12.5381L22.1665 12.5579L22.1688 12.5656L22.1698 12.569L22.1702 12.5705C22.1702 12.5705 22.1707 12.5719 21.4495 12.778L22.1707 12.5719C22.2845 12.9702 22.0538 13.3853 21.6556 13.4991C21.2607 13.6119 20.8492 13.3862 20.7313 12.9941L20.7276 12.9833C20.7223 12.9683 20.7113 12.9387 20.6928 12.8955C20.6558 12.8092 20.5887 12.668 20.4771 12.4794C20.2541 12.1026 19.8514 11.5334 19.1514 10.8334C18.4515 10.1335 17.8822 9.73078 17.5055 9.50781C17.3169 9.39619 17.1757 9.32909 17.0893 9.29209C17.0461 9.27358 17.0165 9.26254 17.0015 9.25721L16.9907 9.25352C16.5987 9.13564 16.3729 8.72419 16.4857 8.3293Z" fill="white"/>
</svg>
