<svg width="24" height="24" viewBox="0 0 24 24" fill="none" xmlns="http://www.w3.org/2000/svg">
<path d="M11.9984 12.2501C11.5584 12.2501 11.1184 12.1401 10.7184 11.9301L4.20841 8.4201C3.61841 8.1001 3.24841 7.4701 3.24841 6.7701C3.24841 6.0701 3.61841 5.4401 4.20841 5.1201L10.7184 1.6101C11.5184 1.1801 12.4784 1.1801 13.2684 1.6101L19.7784 5.1201C20.3684 5.4401 20.7384 6.0701 20.7384 6.7701C20.7384 7.4701 20.3684 8.1001 19.7784 8.4201L13.2684 11.9301C12.8784 12.1501 12.4384 12.2501 11.9984 12.2501ZM11.9984 2.7801C11.8084 2.7801 11.6084 2.8301 11.4284 2.9301L4.92841 6.4301C4.75841 6.5201 4.74841 6.7101 4.74841 6.7701C4.74841 6.8301 4.75841 7.0201 4.92841 7.1001L11.4384 10.6101C11.7984 10.8001 12.2084 10.8001 12.5684 10.6101L19.0784 7.1001C19.2384 7.0101 19.2584 6.8201 19.2584 6.7701C19.2584 6.7101 19.2484 6.5201 19.0784 6.4401L12.5684 2.9301C12.3884 2.8301 12.1884 2.7801 11.9984 2.7801Z" fill="#505050"/>
<path d="M9.78159 22.72C9.50159 22.72 9.21159 22.65 8.95159 22.52L2.89159 19.5C1.88159 18.99 1.25159 17.97 1.25159 16.84V11.12C1.25159 10.47 1.58159 9.87997 2.13159 9.53997C2.69159 9.19997 3.36159 9.16997 3.94159 9.45997L10.0016 12.48C11.0116 12.99 11.6416 14 11.6416 15.14V20.86C11.6416 21.51 11.3116 22.1 10.7616 22.44C10.4616 22.63 10.1216 22.72 9.78159 22.72ZM3.11159 10.76C3.03159 10.76 2.96159 10.79 2.92159 10.81C2.86159 10.85 2.75159 10.94 2.75159 11.12V16.84C2.75159 17.4 3.06159 17.91 3.56159 18.16L9.61159 21.19C9.77159 21.27 9.90159 21.21 9.96159 21.18C10.0216 21.14 10.1316 21.05 10.1316 20.87V15.15C10.1316 14.59 9.82159 14.08 9.32159 13.83L3.27159 10.8C3.21159 10.77 3.16159 10.76 3.11159 10.76Z" fill="#505050"/>
<path d="M14.221 22.72C13.881 22.72 13.541 22.63 13.241 22.44C12.691 22.1 12.361 21.51 12.361 20.86V15.14C12.361 14.01 12.991 12.99 14.001 12.48L20.051 9.45C20.631 9.16 21.311 9.19 21.861 9.53C22.411 9.87 22.741 10.46 22.741 11.11V16.83C22.741 17.96 22.111 18.98 21.101 19.49L15.051 22.52C14.791 22.66 14.501 22.72 14.221 22.72ZM20.891 10.76C20.841 10.76 20.791 10.77 20.731 10.8L14.681 13.83C14.181 14.08 13.871 14.58 13.871 15.15V20.87C13.871 21.05 13.981 21.14 14.041 21.18C14.101 21.22 14.231 21.27 14.391 21.19L20.441 18.16C20.941 17.91 21.251 17.4 21.251 16.84V11.12C21.251 10.94 21.141 10.85 21.081 10.81C21.041 10.79 20.971 10.76 20.891 10.76Z" fill="#505050"/>
</svg>
