<svg width="24" height="24" viewBox="0 0 24 24" fill="none" xmlns="http://www.w3.org/2000/svg">
<path d="M12.1504 19.35C11.7404 19.35 11.4004 19.01 11.4004 18.6V16.5C11.4004 16.09 11.7404 15.75 12.1504 15.75C12.5604 15.75 12.9004 16.09 12.9004 16.5V18.6C12.9004 19.01 12.5604 19.35 12.1504 19.35Z" fill="#505050"/>
<path d="M17.8984 22.75H6.39844V21C6.39844 19.48 7.62844 18.25 9.14844 18.25H15.1484C16.6684 18.25 17.8984 19.48 17.8984 21V22.75ZM7.89844 21.25H16.3984V21C16.3984 20.31 15.8384 19.75 15.1484 19.75H9.14844C8.45844 19.75 7.89844 20.31 7.89844 21V21.25Z" fill="#505050"/>
<path d="M18.1504 22.75H6.15039C5.74039 22.75 5.40039 22.41 5.40039 22C5.40039 21.59 5.74039 21.25 6.15039 21.25H18.1504C18.5604 21.25 18.9004 21.59 18.9004 22C18.9004 22.41 18.5604 22.75 18.1504 22.75Z" fill="#505050"/>
<path d="M18.4317 12.4401C18.2217 12.4401 18.0117 12.3501 17.8617 12.1801C17.6717 11.9601 17.6217 11.6501 17.7417 11.3901C18.0817 10.6101 18.2517 9.78006 18.2517 8.91006V5.91006C18.2517 5.56006 18.1917 5.22006 18.0717 4.86006C18.0617 4.83006 18.0517 4.79006 18.0417 4.75006C18.0117 4.60006 18.0017 4.45006 18.0017 4.31006C18.0017 3.90006 18.3417 3.56006 18.7517 3.56006H19.3517C21.1417 3.56006 22.6017 5.06006 22.6017 6.91006C22.6017 8.44006 21.9717 9.95006 20.8817 11.0401C20.8617 11.0601 20.8017 11.1101 20.7917 11.1201C20.2017 11.6101 19.5317 12.1601 18.6317 12.4101C18.5617 12.4301 18.5017 12.4401 18.4317 12.4401ZM19.6817 5.09006C19.7317 5.36006 19.7517 5.64006 19.7517 5.91006V8.91006C19.7517 9.32006 19.7217 9.71006 19.6617 10.1101C19.7217 10.0601 19.7717 10.0201 19.8317 9.97006C20.6317 9.17006 21.1017 8.05006 21.1017 6.91006C21.1017 6.01006 20.4917 5.25006 19.6817 5.09006Z" fill="#505050"/>
<path d="M5.58137 12.4001C5.50137 12.4001 5.43137 12.3901 5.35137 12.3601C4.53137 12.1001 3.76137 11.6201 3.12137 10.9801C1.97137 9.7101 1.40137 8.3201 1.40137 6.8501C1.40137 5.0301 2.83137 3.6001 4.65137 3.6001H5.30137C5.55137 3.6001 5.79137 3.7301 5.93137 3.9401C6.07137 4.1501 6.09137 4.4201 5.99137 4.6501C5.83137 5.0101 5.75137 5.4201 5.75137 5.8501V8.8501C5.75137 9.7101 5.92137 10.5501 6.27137 11.3501C6.39137 11.6201 6.33137 11.9301 6.14137 12.1501C5.99137 12.3101 5.79137 12.4001 5.58137 12.4001ZM4.30137 5.1301C3.49137 5.2901 2.90137 5.9901 2.90137 6.8501C2.90137 7.9401 3.34137 8.9901 4.21137 9.9501C4.25137 10.0001 4.30137 10.0401 4.35137 10.0801C4.28137 9.6701 4.25137 9.2601 4.25137 8.8501V5.8501C4.25137 5.6101 4.27137 5.3701 4.30137 5.1301Z" fill="#505050"/>
<path d="M12.002 16.75C7.73195 16.75 4.25195 13.27 4.25195 9V6C4.25195 3.38 6.38195 1.25 9.00195 1.25H15.002C17.622 1.25 19.752 3.38 19.752 6V9C19.752 13.27 16.272 16.75 12.002 16.75ZM9.00195 2.75C7.21195 2.75 5.75195 4.21 5.75195 6V9C5.75195 12.45 8.55195 15.25 12.002 15.25C15.452 15.25 18.252 12.45 18.252 9V6C18.252 4.21 16.792 2.75 15.002 2.75H9.00195Z" fill="#505050"/>
</svg>
