<svg width="20" height="14" viewBox="0 0 20 14" fill="none" xmlns="http://www.w3.org/2000/svg">
<path d="M12.43 13.8191C12.24 13.8191 12.05 13.7491 11.9 13.5991C11.61 13.3091 11.61 12.8291 11.9 12.5391L17.44 6.99914L11.9 1.45914C11.61 1.16914 11.61 0.689141 11.9 0.399141C12.19 0.109141 12.67 0.109141 12.96 0.399141L19.03 6.46914C19.32 6.75914 19.32 7.23914 19.03 7.52914L12.96 13.5991C12.81 13.7491 12.62 13.8191 12.43 13.8191Z" fill="white"/>
<path d="M18.33 7.74914H1.5C1.09 7.74914 0.75 7.40914 0.75 6.99914C0.75 6.58914 1.09 6.24914 1.5 6.24914H18.33C18.74 6.24914 19.08 6.58914 19.08 6.99914C19.08 7.40914 18.74 7.74914 18.33 7.74914Z" fill="white"/>
</svg>
