<svg width="25" height="24" viewBox="0 0 25 24" fill="none" xmlns="http://www.w3.org/2000/svg">
<path d="M16.5002 22.75H8.50023C3.88023 22.75 3.02023 20.6 2.80023 18.51L2.05023 10.5C1.94023 9.45 1.91023 7.9 2.95023 6.74C3.85023 5.74 5.34023 5.26 7.50023 5.26H17.5002C19.6702 5.26 21.1602 5.75 22.0502 6.74C23.0902 7.9 23.0602 9.45 22.9502 10.51L22.2002 18.5C21.9802 20.6 21.1202 22.75 16.5002 22.75ZM7.50023 6.75C5.81023 6.75 4.65023 7.08 4.06023 7.74C3.57023 8.28 3.41023 9.11 3.54023 10.35L4.29023 18.36C4.46023 19.94 4.89023 21.25 8.50023 21.25H16.5002C20.1002 21.25 20.5402 19.94 20.7102 18.35L21.4602 10.36C21.5902 9.11 21.4302 8.28 20.9402 7.74C20.3502 7.08 19.1902 6.75 17.5002 6.75H7.50023Z" fill="#505050"/>
<path d="M16.5002 6.75C16.0902 6.75 15.7502 6.41 15.7502 6V5.2C15.7502 3.42 15.7502 2.75 13.3002 2.75H11.7002C9.25023 2.75 9.25023 3.42 9.25023 5.2V6C9.25023 6.41 8.91023 6.75 8.50023 6.75C8.09023 6.75 7.75023 6.41 7.75023 6V5.2C7.75023 3.44 7.75023 1.25 11.7002 1.25H13.3002C17.2502 1.25 17.2502 3.44 17.2502 5.2V6C17.2502 6.41 16.9102 6.75 16.5002 6.75Z" fill="#505050"/>
<path d="M12.5002 16.75C9.75023 16.75 9.75023 15.05 9.75023 14.03V13C9.75023 11.59 10.0902 11.25 11.5002 11.25H13.5002C14.9102 11.25 15.2502 11.59 15.2502 13V14C15.2502 15.04 15.2502 16.75 12.5002 16.75ZM11.2502 12.75C11.2502 12.83 11.2502 12.92 11.2502 13V14.03C11.2502 15.06 11.2502 15.25 12.5002 15.25C13.7502 15.25 13.7502 15.09 13.7502 14.02V13C13.7502 12.92 13.7502 12.83 13.7502 12.75C13.6702 12.75 13.5802 12.75 13.5002 12.75H11.5002C11.4202 12.75 11.3302 12.75 11.2502 12.75Z" fill="#505050"/>
<path d="M14.5002 14.77C14.1302 14.77 13.8002 14.49 13.7602 14.11C13.7102 13.7 14.0002 13.32 14.4102 13.27C17.0502 12.94 19.5802 11.94 21.7102 10.39C22.0402 10.14 22.5102 10.22 22.7602 10.56C23.0002 10.89 22.9302 11.36 22.5902 11.61C20.2502 13.31 17.4902 14.4 14.5902 14.77C14.5602 14.77 14.5302 14.77 14.5002 14.77Z" fill="#505050"/>
<path d="M10.5002 14.78C10.4702 14.78 10.4402 14.78 10.4102 14.78C7.67023 14.47 5.00023 13.47 2.69023 11.89C2.35023 11.66 2.26023 11.19 2.49023 10.85C2.72023 10.51 3.19023 10.42 3.53023 10.65C5.64023 12.09 8.07023 13 10.5702 13.29C10.9802 13.34 11.2802 13.71 11.2302 14.12C11.2002 14.5 10.8802 14.78 10.5002 14.78Z" fill="#505050"/>
</svg>
