<svg width="25" height="24" viewBox="0 0 25 24" fill="none" xmlns="http://www.w3.org/2000/svg">
<path d="M15.502 22.75H9.50195C4.07195 22.75 1.75195 20.43 1.75195 15V9C1.75195 3.57 4.07195 1.25 9.50195 1.25H15.502C20.932 1.25 23.252 3.57 23.252 9V15C23.252 20.43 20.932 22.75 15.502 22.75ZM9.50195 2.75C4.89195 2.75 3.25195 4.39 3.25195 9V15C3.25195 19.61 4.89195 21.25 9.50195 21.25H15.502C20.112 21.25 21.752 19.61 21.752 15V9C21.752 4.39 20.112 2.75 15.502 2.75H9.50195Z" fill="#505050"/>
<path d="M9.30974 18.2503C9.23974 18.2503 9.15974 18.2503 9.08974 18.2303L7.89974 18.0703C7.17974 17.9703 6.54974 17.3503 6.43974 16.6103L6.26974 15.4003C6.19974 14.9203 6.39974 14.3103 6.74974 13.9503L9.02974 11.6703C8.68974 10.0503 9.17974 8.37031 10.3697 7.19031C12.2797 5.28031 15.3997 5.28031 17.3097 7.19031C18.2397 8.12031 18.7497 9.35031 18.7497 10.6603C18.7497 11.9703 18.2397 13.2103 17.3097 14.1303C16.1197 15.3103 14.4397 15.8003 12.8297 15.4603L10.5397 17.7403C10.2497 18.0503 9.75974 18.2503 9.30974 18.2503ZM13.8397 7.25031C12.9697 7.25031 12.0897 7.58031 11.4297 8.25031C10.5297 9.15031 10.2097 10.4603 10.5797 11.6803C10.6597 11.9503 10.5897 12.2303 10.3897 12.4303L7.80974 15.0103C7.78974 15.0403 7.74974 15.1503 7.74974 15.1903L7.91974 16.3903C7.92974 16.4503 8.03974 16.5603 8.09974 16.5703L9.29974 16.7403C9.34974 16.7303 9.44974 16.7103 9.47974 16.6803L12.0697 14.0903C12.2697 13.8903 12.5597 13.8303 12.8197 13.9103C14.0297 14.2903 15.3397 13.9703 16.2397 13.0703C16.8797 12.4303 17.2397 11.5703 17.2397 10.6603C17.2397 9.75031 16.8897 8.89031 16.2397 8.25031C15.5897 7.59031 14.7097 7.25031 13.8397 7.25031Z" fill="#505050"/>
<path d="M10.9503 17.0294C10.7603 17.0294 10.5703 16.9594 10.4203 16.8094L9.56027 15.9494C9.27027 15.6594 9.27027 15.1794 9.56027 14.8894C9.85027 14.5994 10.3303 14.5994 10.6203 14.8894L11.4803 15.7494C11.7703 16.0394 11.7703 16.5194 11.4803 16.8094C11.3403 16.9594 11.1503 17.0294 10.9503 17.0294Z" fill="#505050"/>
<path d="M13.8801 11.7996C13.7401 11.7996 13.6101 11.7796 13.4901 11.7296C13.3701 11.6796 13.2601 11.5996 13.1701 11.5096C12.9801 11.3196 12.8701 11.0696 12.8701 10.7996C12.8701 10.5396 12.9801 10.2796 13.1701 10.0996C13.4001 9.85963 13.7501 9.74963 14.0701 9.81963C14.1301 9.83963 14.2001 9.84963 14.2601 9.87963C14.3201 9.90963 14.3801 9.93963 14.4301 9.96963C14.4801 10.0096 14.5401 10.0496 14.5801 10.0996C14.7701 10.2796 14.8801 10.5396 14.8801 10.7996C14.8801 10.9396 14.8501 11.0596 14.8001 11.1896C14.7501 11.3096 14.6801 11.4196 14.5801 11.5096C14.3901 11.6996 14.1401 11.7996 13.8801 11.7996Z" fill="#505050"/>
</svg>
