<svg width="36" height="37" viewBox="0 0 36 37" fill="none" xmlns="http://www.w3.org/2000/svg">
<path d="M30 3.66667V7.66667H31.3333V3.66667H30ZM30 7.66667C30 7.84348 30.0702 8.01305 30.1953 8.13807C30.3203 8.26309 30.4899 8.33333 30.6667 8.33333C30.8435 8.33333 31.013 8.26309 31.1381 8.13807C31.2631 8.01305 31.3333 7.84348 31.3333 7.66667H30ZM31.3333 3.66667C31.3333 3.48986 31.2631 3.32029 31.1381 3.19526C31.013 3.07024 30.8435 3 30.6667 3C30.4899 3 30.3203 3.07024 30.1953 3.19526C30.0702 3.32029 30 3.48986 30 3.66667H31.3333Z" fill="white"/>
<path d="M18.8412 2.52636C18.5816 2.39193 18.2936 2.32176 18.0012 2.32176C17.7089 2.32176 17.4208 2.39193 17.1612 2.52636L16.5479 1.34636C16.9958 1.10991 17.4947 0.986328 18.0012 0.986328C18.5078 0.986328 19.0066 1.10991 19.4546 1.34636L18.8412 2.52636ZM17.1612 2.52636L4.97457 8.92636L4.36123 7.73969L16.5479 1.34636L17.1612 2.52636ZM31.0279 8.92636L18.8412 2.52636L19.4546 1.34636L31.6412 7.73969L31.0279 8.92636ZM4.97457 8.92636C4.8172 9.00769 4.63398 9.02318 4.4652 8.96942C4.29641 8.91566 4.1559 8.79706 4.07457 8.63969C3.99323 8.48233 3.97774 8.29911 4.0315 8.13032C4.08526 7.96154 4.20387 7.82103 4.36123 7.73969L4.97457 8.92636ZM31.6412 7.73969C31.7986 7.82103 31.9172 7.96154 31.971 8.13032C32.0247 8.29911 32.0092 8.48233 31.9279 8.63969C31.8466 8.79706 31.7061 8.91566 31.5373 8.96942C31.3685 9.02318 31.1853 9.00769 31.0279 8.92636L31.6412 7.73969Z" fill="white"/>
<path d="M13.2815 11.668C12.7646 11.6676 12.2677 11.8673 11.8948 12.2252C11.522 12.5831 11.3022 13.0715 11.2815 13.588L12.6148 13.6413C12.6148 13.4645 12.6851 13.2949 12.8101 13.1699C12.9351 13.0449 13.1047 12.9746 13.2815 12.9746V11.668ZM14.0548 13.0013C14.2316 13.0013 14.4012 13.0715 14.5262 13.1966C14.6513 13.3216 14.7215 13.4912 14.7215 13.668L16.0548 13.6146C16.0342 13.0982 15.8143 12.6098 15.4415 12.2519C15.0686 11.8939 14.5717 11.6942 14.0548 11.6946V13.0013ZM15.2748 27.0013C15.2748 27.1781 15.2046 27.3477 15.0796 27.4727C14.9545 27.5977 14.785 27.668 14.6082 27.668V29.0013C14.8777 29.0015 15.1445 28.9473 15.3925 28.8418C15.6405 28.7363 15.8646 28.5818 16.0514 28.3875C16.2382 28.1932 16.3838 27.9632 16.4795 27.7113C16.5752 27.4593 16.6189 27.1906 16.6082 26.9213L15.2748 27.0013ZM12.7282 27.668C12.5514 27.668 12.3818 27.5977 12.2568 27.4727C12.1317 27.3477 12.0615 27.1781 12.0615 27.0013L10.7282 26.948C10.7174 27.2173 10.7611 27.486 10.8568 27.7379C10.9525 27.9899 11.0981 28.2199 11.2849 28.4142C11.4717 28.6085 11.6958 28.763 11.9439 28.8685C12.1919 28.9739 12.4586 29.0282 12.7282 29.028V27.668ZM12.0615 27.0013L12.6148 13.668L11.2815 13.6146L10.7282 26.948L12.0615 27.0013ZM14.6082 27.668H12.7282V29.0013H14.6082V27.668ZM14.7215 13.668L15.2748 27.0013L16.6082 26.948L16.0548 13.6146L14.7215 13.668ZM13.2815 13.0013H14.0548V11.668H13.2815V13.0013Z" fill="white"/>
<path d="M21.2815 11.668C20.7646 11.6676 20.2677 11.8673 19.8948 12.2252C19.522 12.5831 19.3022 13.0715 19.2815 13.588L20.6148 13.6413C20.6148 13.4645 20.6851 13.2949 20.8101 13.1699C20.9351 13.0449 21.1047 12.9746 21.2815 12.9746V11.668ZM22.0548 13.0013C22.2316 13.0013 22.4012 13.0715 22.5262 13.1966C22.6513 13.3216 22.7215 13.4912 22.7215 13.668L24.0548 13.6146C24.0342 13.0982 23.8143 12.6098 23.4415 12.2519C23.0686 11.8939 22.5717 11.6942 22.0548 11.6946V13.0013ZM23.2748 27.0013C23.2748 27.1781 23.2046 27.3477 23.0796 27.4727C22.9545 27.5977 22.785 27.668 22.6082 27.668V29.0013C22.8777 29.0015 23.1445 28.9473 23.3925 28.8418C23.6405 28.7363 23.8646 28.5818 24.0514 28.3875C24.2382 28.1932 24.3838 27.9632 24.4795 27.7113C24.5752 27.4593 24.6189 27.1906 24.6082 26.9213L23.2748 27.0013ZM20.7282 27.668C20.5514 27.668 20.3818 27.5977 20.2568 27.4727C20.1317 27.3477 20.0615 27.1781 20.0615 27.0013L18.7282 26.948C18.7174 27.2173 18.7611 27.486 18.8568 27.7379C18.9525 27.9899 19.0981 28.2199 19.2849 28.4142C19.4717 28.6085 19.6958 28.763 19.9439 28.8685C20.1919 28.9739 20.4586 29.0282 20.7282 29.028V27.668ZM20.0615 27.0013L20.6148 13.668L19.2815 13.6146L18.7282 26.948L20.0615 27.0013ZM22.6082 27.668H20.7282V29.0013H22.6082V27.668ZM22.7215 13.668L23.2748 27.0013L24.6082 26.948L24.0548 13.6146L22.7215 13.668ZM21.2815 13.0013H22.0548V11.668H21.2815V13.0013Z" fill="white"/>
<path d="M30.4146 34.3333C30.305 34.3333 30.1999 34.2898 30.1224 34.2123C30.0448 34.1348 30.0013 34.0296 30.0013 33.92H31.3346C31.3346 33.7992 31.3108 33.6796 31.2646 33.5679C31.2184 33.4563 31.1506 33.3549 31.0652 33.2695C30.9797 33.184 30.8783 33.1163 30.7667 33.07C30.6551 33.0238 30.5354 33 30.4146 33V34.3333ZM28.9146 36.3333C29.2321 36.3342 29.5467 36.2724 29.8402 36.1515C30.1338 36.0307 30.4006 35.853 30.6254 35.6288C30.8502 35.4047 31.0286 35.1383 31.1503 34.8451C31.272 34.5519 31.3346 34.2375 31.3346 33.92H30.0013C29.9995 34.207 29.8843 34.4817 29.6807 34.6841C29.4771 34.8864 29.2017 35 28.9146 35V36.3333ZM7.0813 35C6.79541 34.9983 6.52172 34.8839 6.31956 34.6817C6.1174 34.4796 6.00305 34.2059 6.0013 33.92H4.66797C4.66797 34.5601 4.92223 35.1739 5.37482 35.6265C5.82741 36.0791 6.44125 36.3333 7.0813 36.3333V35ZM6.0013 33.92C6.0013 34.0296 5.95775 34.1348 5.88024 34.2123C5.80272 34.2898 5.69759 34.3333 5.58797 34.3333V33C5.46715 33 5.34752 33.0238 5.2359 33.07C5.12428 33.1163 5.02286 33.184 4.93743 33.2695C4.852 33.3549 4.78423 33.4563 4.738 33.5679C4.69177 33.6796 4.66797 33.7992 4.66797 33.92H6.0013ZM5.58797 34.3333H30.4146V33H5.58797V34.3333ZM28.9213 35H7.0813V36.3333H28.9146L28.9213 35Z" fill="white"/>
<path d="M34.168 33C34.1238 33 34.0814 33.0176 34.0501 33.0488C34.0189 33.0801 34.0013 33.1225 34.0013 33.1667H35.3346C35.3346 33.4761 35.2117 33.7728 34.9929 33.9916C34.7741 34.2104 34.4774 34.3333 34.168 34.3333V33ZM31.168 29C31.7151 29 32.257 29.1078 32.7625 29.3172C33.268 29.5266 33.7273 29.8335 34.1142 30.2204C34.5012 30.6073 34.8081 31.0666 35.0175 31.5722C35.2269 32.0777 35.3346 32.6195 35.3346 33.1667H34.0013C34.0013 32.4152 33.7028 31.6946 33.1714 31.1632C32.6401 30.6318 31.9194 30.3333 31.168 30.3333V29ZM4.83463 30.3333C4.08319 30.3333 3.36252 30.6318 2.83117 31.1632C2.29981 31.6946 2.0013 32.4152 2.0013 33.1667H0.667969C0.667969 32.0616 1.10696 31.0018 1.88836 30.2204C2.66976 29.439 3.72957 29 4.83463 29V30.3333ZM2.0013 33.1667C2.0013 33.1225 1.98374 33.0801 1.95249 33.0488C1.92123 33.0176 1.87884 33 1.83464 33V34.3333C1.52522 34.3333 1.22847 34.2104 1.00968 33.9916C0.790885 33.7728 0.667969 33.4761 0.667969 33.1667H2.0013ZM1.83464 33H34.168V34.3333H1.83464V33ZM31.168 30.3333H4.83463V29H31.168V30.3333Z" fill="white"/>
<path d="M3.00001 10.3346C3.08841 10.3346 3.1732 10.3698 3.23571 10.4323C3.29822 10.4948 3.33334 10.5796 3.33334 10.668H2.00001C2.00001 10.9332 2.10536 11.1875 2.2929 11.3751C2.48044 11.5626 2.73479 11.668 3.00001 11.668V10.3346ZM5.00001 7.66798C4.6058 7.6671 4.21529 7.74409 3.85092 7.89455C3.48654 8.045 3.15548 8.26595 2.87673 8.5447C2.59798 8.82345 2.37703 9.15451 2.22658 9.51889C2.07613 9.88326 1.99913 10.2738 2.00001 10.668H3.33334C3.33334 10.2259 3.50894 9.80203 3.8215 9.48946C4.13406 9.1769 4.55798 9.00131 5.00001 9.00131V7.66798ZM31 9.00131C31.442 9.00131 31.866 9.1769 32.1785 9.48946C32.4911 9.80203 32.6667 10.2259 32.6667 10.668H34C34.0009 10.2738 33.9239 9.88326 33.7734 9.51889C33.623 9.15451 33.402 8.82345 33.1233 8.5447C32.8445 8.26595 32.5135 8.045 32.1491 7.89455C31.7847 7.74409 31.3942 7.6671 31 7.66798V9.00131ZM32.6667 10.668C32.6667 10.5796 32.7018 10.4948 32.7643 10.4323C32.8268 10.3698 32.9116 10.3346 33 10.3346V11.668C33.2652 11.668 33.5196 11.5626 33.7071 11.3751C33.8947 11.1875 34 10.9332 34 10.668H32.6667ZM33 10.3346H3.00001V11.668H33V10.3346ZM5.00001 9.00131H31V7.66798H5.00001V9.00131Z" fill="white"/>
<path d="M30.9613 27.668C31.0603 27.668 31.1553 27.6286 31.2253 27.5586C31.2953 27.4886 31.3346 27.3936 31.3346 27.2946H32.668C32.6689 27.519 32.6253 27.7413 32.5399 27.9488C32.4544 28.1562 32.3287 28.3447 32.1701 28.5034C32.0114 28.6621 31.8229 28.7877 31.6155 28.8732C31.408 28.9586 31.1857 29.0022 30.9613 29.0013V27.668ZM27.9213 11.668C29.1802 11.668 30.3875 12.1681 31.2777 13.0582C32.1679 13.9484 32.668 15.1557 32.668 16.4146H31.3346C31.3346 15.5094 30.975 14.6412 30.3349 14.001C29.6948 13.3609 28.8266 13.0013 27.9213 13.0013V11.668ZM27.9213 13.0013C27.942 12.9998 27.9615 12.9908 27.9762 12.9762C27.9908 12.9615 27.9998 12.942 28.0013 12.9213H26.668C26.668 12.5889 26.8 12.2701 27.0351 12.0351C27.2701 11.8 27.5889 11.668 27.9213 11.668V13.0013ZM28.0013 24.708C28.0013 25.493 28.3132 26.2459 28.8683 26.801C29.4234 27.3561 30.1763 27.668 30.9613 27.668V29.0013C29.8232 28.9995 28.7322 28.5466 27.9274 27.7419C27.1226 26.9371 26.6697 25.8461 26.668 24.708H28.0013ZM31.3346 27.2946V16.4146H32.668V27.2946H31.3346ZM28.0013 12.9213V24.708H26.668V12.9213H28.0013Z" fill="white"/>
<path d="M4.37465 27.668C4.27564 27.668 4.18068 27.6287 4.11066 27.5586C4.04065 27.4886 4.00132 27.3937 4.00132 27.2947H2.66798C2.6671 27.519 2.71064 27.7414 2.7961 27.9488C2.88155 28.1563 3.00723 28.3448 3.16589 28.5034C3.32454 28.6621 3.51303 28.7878 3.72049 28.8732C3.92795 28.9587 4.15028 29.0022 4.37465 29.0013V27.668ZM7.57465 11.668C6.27386 11.6698 5.02686 12.1873 4.10706 13.1071C3.18726 14.0269 2.66975 15.2739 2.66798 16.5747H4.00132C4.00132 15.6269 4.37779 14.7181 5.04792 14.0479C5.71805 13.3778 6.62694 13.0013 7.57465 13.0013V11.668ZM7.57465 13.0013C7.511 13.0013 7.44995 12.976 7.40494 12.931C7.35994 12.886 7.33465 12.825 7.33465 12.7613H8.66798C8.66887 12.6175 8.64119 12.4749 8.58656 12.3419C8.53193 12.2088 8.45143 12.0879 8.34973 11.9862C8.24802 11.8845 8.12714 11.804 7.9941 11.7494C7.86105 11.6948 7.71848 11.6671 7.57465 11.668V13.0013ZM7.33465 24.708C7.33465 25.493 7.02279 26.2459 6.46769 26.801C5.91258 27.3561 5.15969 27.668 4.37465 27.668V29.0013C5.51277 28.9996 6.60377 28.5467 7.40855 27.7419C8.21332 26.9371 8.66622 25.8461 8.66798 24.708H7.33465ZM4.00132 27.2947V16.5747H2.66798V27.2947H4.00132ZM7.33465 12.7613V24.708H8.66798V12.7613H7.33465Z" fill="white"/>
<path d="M31.3333 1.66732H30C30 1.3137 30.1405 0.974559 30.3905 0.72451C30.6406 0.474462 30.9797 0.333986 31.3333 0.333986V1.66732ZM31.3333 5.61399C30.9797 5.61399 30.6406 5.47351 30.3905 5.22346C30.1405 4.97341 30 4.63428 30 4.28065H31.3333V5.61399ZM34.7533 3.40065C34.9398 3.59064 35.0651 3.83209 35.1132 4.09393C35.1613 4.35577 35.1298 4.62599 35.023 4.86982C34.9161 5.11365 34.7388 5.3199 34.5137 5.46203C34.2886 5.60417 34.0261 5.67566 33.76 5.66732V4.33399L34.7533 3.40065ZM33.8 0.333986C34.0604 0.333606 34.3152 0.409473 34.5329 0.552222C34.7507 0.694971 34.9219 0.898356 35.0254 1.13728C35.1289 1.3762 35.1602 1.6402 35.1154 1.89669C35.0706 2.15319 34.9517 2.39096 34.7733 2.58065L33.8 1.66732V0.333986ZM33.4 3.91399C33.1675 3.66671 33.0381 3.34007 33.0381 3.00065C33.0381 2.66124 33.1675 2.3346 33.4 2.08732L34.38 3.00065L33.4 3.91399ZM31.3333 1.66732V4.28065H30V1.66732H31.3333ZM31.3333 4.28065H33.78V5.61399H31.3333V4.28065ZM33.4 2.08732L33.8 1.66732L34.7733 2.58065L34.38 3.00065L33.4 2.08732ZM33.78 4.33399L33.4 3.93399L34.38 3.00065L34.7533 3.40065L33.78 4.33399ZM33.78 1.66732H31.3333V0.333986H33.8L33.78 1.66732Z" fill="white"/>
</svg>
