<svg width="40" height="40" viewBox="0 0 40 40" fill="none" xmlns="http://www.w3.org/2000/svg">
<g clip-path="url(#clip0_168_13686)">
<path d="M5.28287 15.0939C5.28287 14.1807 6.30929 12.8297 9.05646 12.8297V11.3203C5.93193 11.3203 3.77344 12.9505 3.77344 15.0939H5.28287ZM9.05646 12.8297C9.25662 12.8297 9.44859 12.7502 9.59012 12.6087C9.73166 12.4672 9.81117 12.2752 9.81117 12.075C9.81117 11.8749 9.73166 11.6829 9.59012 11.5414C9.44859 11.3998 9.25662 11.3203 9.05646 11.3203V12.8297ZM3.77344 15.0939C3.77344 15.2941 3.85295 15.486 3.99449 15.6276C4.13603 15.7691 4.32799 15.8486 4.52815 15.8486C4.72832 15.8486 4.92028 15.7691 5.06182 15.6276C5.20336 15.486 5.28287 15.2941 5.28287 15.0939H3.77344Z" fill="white"/>
<path d="M12.8291 15.0939C12.8291 14.1807 11.8027 12.8297 9.0555 12.8297V11.3203C12.18 11.3203 14.3385 12.9505 14.3385 15.0939H12.8291ZM9.0555 12.8297C8.85533 12.8297 8.66337 12.7502 8.52183 12.6087C8.3803 12.4672 8.30078 12.2752 8.30078 12.075C8.30078 11.8749 8.3803 11.6829 8.52183 11.5414C8.66337 11.3998 8.85533 11.3203 9.0555 11.3203V12.8297ZM14.3385 15.0939C14.3385 15.2941 14.259 15.486 14.1175 15.6276C13.9759 15.7691 13.784 15.8486 13.5838 15.8486C13.3836 15.8486 13.1917 15.7691 13.0501 15.6276C12.9086 15.486 12.8291 15.2941 12.8291 15.0939H14.3385Z" fill="white"/>
<path d="M9.05709 7.54654C9.50531 7.60151 9.91422 7.82971 10.1963 8.18233C10.4784 8.53496 10.6113 8.98398 10.5665 9.43334H12.076C12.1234 8.58327 11.8326 7.74895 11.267 7.11261C10.7013 6.47627 9.90686 6.08962 9.05709 6.03711V7.54654ZM7.54766 9.43334C7.50289 8.98398 7.63577 8.53496 7.91787 8.18233C8.19997 7.82971 8.60887 7.60151 9.05709 7.54654V6.03711C8.20732 6.08962 7.41285 6.47627 6.84722 7.11261C6.28158 7.74895 5.99074 8.58327 6.03822 9.43334H7.54766ZM9.05709 11.3201C8.60887 11.2652 8.19997 11.037 7.91787 10.6843C7.63577 10.3317 7.50289 9.88269 7.54766 9.43334H6.03822C5.99074 10.2834 6.28158 11.1177 6.84722 11.7541C7.41285 12.3904 8.20732 12.7771 9.05709 12.8296V11.3201ZM10.5665 9.43334C10.6113 9.88269 10.4784 10.3317 10.1963 10.6843C9.91422 11.037 9.50531 11.2652 9.05709 11.3201V12.8296C9.90686 12.7771 10.7013 12.3904 11.267 11.7541C11.8326 11.1177 12.1234 10.2834 12.076 9.43334H10.5665Z" fill="white"/>
<path d="M28.6794 30.9434H27.1699V39.6226H28.6794V30.9434Z" fill="white"/>
<path d="M22.6422 31.6969V30.1875C22.2419 30.1875 21.858 30.3465 21.5749 30.6296C21.2918 30.9127 21.1328 31.2966 21.1328 31.6969H22.6422ZM34.7177 31.6969C34.7177 31.2966 34.5587 30.9127 34.2756 30.6296C33.9925 30.3465 33.6086 30.1875 33.2083 30.1875V31.6969H34.7177ZM22.6422 31.6969H33.2083V30.1875H22.6422V31.6969ZM33.2083 31.6969V38.8667H34.7177V31.6969H33.2083ZM22.6422 39.2441V31.6969H21.1328V39.2441H22.6422Z" fill="white"/>
<path d="M5.2832 24.9057C5.2832 23.1043 5.99883 21.3766 7.27267 20.1027C8.5465 18.8289 10.2742 18.1133 12.0757 18.1133V19.6227C10.6745 19.6227 9.33076 20.1793 8.34 21.1701C7.34924 22.1608 6.79264 23.5046 6.79264 24.9057H5.2832ZM6.79264 38.4906V40.0001C6.39231 40.0001 6.00838 39.841 5.72531 39.558C5.44223 39.2749 5.2832 38.891 5.2832 38.4906H6.79264ZM16.604 19.6227H12.0757V18.1133H16.604V19.6227ZM15.8492 39.2454V18.868H17.3587V39.2454H15.8492ZM6.79264 38.4906H16.604V40.0001H6.79264V38.4906ZM6.79264 24.9057V38.4906H5.2832V24.9057H6.79264ZM16.604 39.2454H17.3587V40.0001H16.604V39.2454ZM16.604 18.868V18.1133H17.3587V18.868H16.604Z" fill="white"/>
<path d="M38.4911 11.32V9.81055C38.8914 9.81055 39.2754 9.96958 39.5585 10.2527C39.8415 10.5357 40.0006 10.9197 40.0006 11.32H38.4911ZM15.8496 18.1124C15.8496 15.9106 16.7243 13.799 18.2812 12.2421C19.8381 10.6852 21.9497 9.81055 24.1515 9.81055V11.32C22.35 11.32 20.6223 12.0356 19.3485 13.3094C18.0747 14.5833 17.359 16.311 17.359 18.1124H15.8496ZM31.6987 38.4898C33.5001 38.4898 35.2278 37.7742 36.5017 36.5003C37.7755 35.2265 38.4911 33.4988 38.4911 31.6973H40.0006C40.0006 33.8991 39.1259 36.0108 37.569 37.5677C36.0121 39.1246 33.9005 39.9992 31.6987 39.9992V38.4898ZM38.4911 11.32H24.1515V9.81055H38.4911V11.32ZM38.4911 31.6973V11.32H40.0006V31.6973H38.4911ZM16.6043 38.4898H31.6987V39.9992H16.6043V38.4898ZM17.359 18.1124V39.2445H15.8496V18.1124H17.359ZM16.6043 39.2445V39.9992H15.8496V39.2445H16.6043Z" fill="white"/>
<mask id="mask0_168_13686" style="mask-type:luminance" maskUnits="userSpaceOnUse" x="21" y="22" width="6" height="6">
<path d="M24.9064 22.6406H22.6422C21.8086 22.6406 21.1328 23.3164 21.1328 24.1501V25.6595C21.1328 26.4931 21.8086 27.1689 22.6422 27.1689H24.9064C25.74 27.1689 26.4158 26.4931 26.4158 25.6595V24.1501C26.4158 23.3164 25.74 22.6406 24.9064 22.6406Z" fill="white"/>
</mask>
<g mask="url(#mask0_168_13686)">
<path d="M22.6419 21.1309C21.8413 21.1309 21.0734 21.4489 20.5073 22.0151C19.9411 22.5812 19.623 23.3491 19.623 24.1497H22.6419V21.1309ZM24.9061 24.1497H27.9249C27.9249 23.3491 27.6069 22.5812 27.0407 22.0151C26.4746 21.4489 25.7067 21.1309 24.9061 21.1309V24.1497ZM24.9061 25.6592V28.678C25.7067 28.678 26.4746 28.36 27.0407 27.7938C27.6069 27.2277 27.9249 26.4598 27.9249 25.6592H24.9061ZM22.6419 25.6592H19.623C19.623 26.4598 19.9411 27.2277 20.5073 27.7938C21.0734 28.36 21.8413 28.678 22.6419 28.678V25.6592ZM22.6419 25.6592V24.1497H19.623V25.6592H22.6419ZM24.9061 25.6592H22.6419V28.678H24.9061V25.6592ZM24.9061 24.1497V25.6592H27.9249V24.1497H24.9061ZM22.6419 24.1497H24.9061V21.1309H22.6419V24.1497Z" fill="white"/>
</g>
<mask id="mask1_168_13686" style="mask-type:luminance" maskUnits="userSpaceOnUse" x="29" y="22" width="6" height="6">
<path d="M33.2072 22.6406H30.943C30.1094 22.6406 29.4336 23.3164 29.4336 24.1501V25.6595C29.4336 26.4931 30.1094 27.1689 30.943 27.1689H33.2072C34.0408 27.1689 34.7166 26.4931 34.7166 25.6595V24.1501C34.7166 23.3164 34.0408 22.6406 33.2072 22.6406Z" fill="white"/>
</mask>
<g mask="url(#mask1_168_13686)">
<path d="M30.9427 21.1309C30.142 21.1309 29.3742 21.4489 28.808 22.0151C28.2419 22.5812 27.9238 23.3491 27.9238 24.1497H30.9427V21.1309ZM33.2068 24.1497H36.2257C36.2257 23.3491 35.9077 22.5812 35.3415 22.0151C34.7754 21.4489 34.0075 21.1309 33.2068 21.1309V24.1497ZM33.2068 25.6592V28.678C34.0075 28.678 34.7754 28.36 35.3415 27.7938C35.9077 27.2277 36.2257 26.4598 36.2257 25.6592H33.2068ZM30.9427 25.6592H27.9238C27.9238 26.4598 28.2419 27.2277 28.808 27.7938C29.3742 28.36 30.142 28.678 30.9427 28.678V25.6592ZM30.9427 25.6592V24.1497H27.9238V25.6592H30.9427ZM33.2068 25.6592H30.9427V28.678H33.2068V25.6592ZM33.2068 24.1497V25.6592H36.2257V24.1497H33.2068ZM30.9427 24.1497H33.2068V21.1309H30.9427V24.1497Z" fill="white"/>
</g>
<mask id="mask2_168_13686" style="mask-type:luminance" maskUnits="userSpaceOnUse" x="21" y="15" width="6" height="6">
<path d="M24.9064 15.8477H22.6422C21.8086 15.8477 21.1328 16.5235 21.1328 17.3571V18.8665C21.1328 19.7002 21.8086 20.376 22.6422 20.376H24.9064C25.74 20.376 26.4158 19.7002 26.4158 18.8665V17.3571C26.4158 16.5235 25.74 15.8477 24.9064 15.8477Z" fill="white"/>
</mask>
<g mask="url(#mask2_168_13686)">
<path d="M22.6419 14.3379C21.8413 14.3379 21.0734 14.6559 20.5073 15.2221C19.9411 15.7882 19.623 16.5561 19.623 17.3568H22.6419V14.3379ZM24.9061 17.3568H27.9249C27.9249 16.5561 27.6069 15.7882 27.0407 15.2221C26.4746 14.6559 25.7067 14.3379 24.9061 14.3379V17.3568ZM24.9061 18.8662V21.8851C25.7067 21.8851 26.4746 21.567 27.0407 21.0009C27.6069 20.4347 27.9249 19.6668 27.9249 18.8662H24.9061ZM22.6419 18.8662H19.623C19.623 19.6668 19.9411 20.4347 20.5073 21.0009C21.0734 21.567 21.8413 21.8851 22.6419 21.8851V18.8662ZM22.6419 18.8662V17.3568H19.623V18.8662H22.6419ZM24.9061 18.8662H22.6419V21.8851H24.9061V18.8662ZM24.9061 17.3568V18.8662H27.9249V17.3568H24.9061ZM22.6419 17.3568H24.9061V14.3379H22.6419V17.3568Z" fill="white"/>
</g>
<mask id="mask3_168_13686" style="mask-type:luminance" maskUnits="userSpaceOnUse" x="9" y="22" width="5" height="6">
<path d="M12.0755 22.6406H10.5661C9.73244 22.6406 9.05664 23.3164 9.05664 24.1501V25.6595C9.05664 26.4931 9.73244 27.1689 10.5661 27.1689H12.0755C12.9091 27.1689 13.5849 26.4931 13.5849 25.6595V24.1501C13.5849 23.3164 12.9091 22.6406 12.0755 22.6406Z" fill="white"/>
</mask>
<g mask="url(#mask3_168_13686)">
<path d="M10.5657 21.1309C9.76509 21.1309 8.99723 21.4489 8.43108 22.0151C7.86493 22.5812 7.54688 23.3491 7.54688 24.1497H10.5657V21.1309ZM12.0752 24.1497H15.094C15.094 23.3491 14.776 22.5812 14.2098 22.0151C13.6437 21.4489 12.8758 21.1309 12.0752 21.1309V24.1497ZM12.0752 25.6592V28.678C12.8758 28.678 13.6437 28.36 14.2098 27.7938C14.776 27.2277 15.094 26.4598 15.094 25.6592H12.0752ZM10.5657 25.6592H7.54688C7.54688 26.4598 7.86493 27.2277 8.43108 27.7938C8.99723 28.36 9.76509 28.678 10.5657 28.678V25.6592ZM10.5657 25.6592V24.1497H7.54688V25.6592H10.5657ZM12.0752 25.6592H10.5657V28.678H12.0752V25.6592ZM12.0752 24.1497V25.6592H15.094V24.1497H12.0752ZM10.5657 24.1497H12.0752V21.1309H10.5657V24.1497Z" fill="white"/>
</g>
<mask id="mask4_168_13686" style="mask-type:luminance" maskUnits="userSpaceOnUse" x="9" y="29" width="5" height="5">
<path d="M12.0755 29.4336H10.5661C9.73244 29.4336 9.05664 30.1094 9.05664 30.943V32.4525C9.05664 33.2861 9.73244 33.9619 10.5661 33.9619H12.0755C12.9091 33.9619 13.5849 33.2861 13.5849 32.4525V30.943C13.5849 30.1094 12.9091 29.4336 12.0755 29.4336Z" fill="white"/>
</mask>
<g mask="url(#mask4_168_13686)">
<path d="M10.5657 27.9238C9.76509 27.9238 8.99723 28.2419 8.43108 28.808C7.86493 29.3742 7.54688 30.142 7.54688 30.9427H10.5657V27.9238ZM12.0752 30.9427H15.094C15.094 30.142 14.776 29.3742 14.2098 28.808C13.6437 28.2419 12.8758 27.9238 12.0752 27.9238V30.9427ZM12.0752 32.4521V35.471C12.8758 35.471 13.6437 35.1529 14.2098 34.5868C14.776 34.0206 15.094 33.2528 15.094 32.4521H12.0752ZM10.5657 32.4521H7.54688C7.54688 33.2528 7.86493 34.0206 8.43108 34.5868C8.99723 35.1529 9.76509 35.471 10.5657 35.471V32.4521ZM10.5657 32.4521V30.9427H7.54688V32.4521H10.5657ZM12.0752 32.4521H10.5657V35.471H12.0752V32.4521ZM12.0752 30.9427V32.4521H15.094V30.9427H12.0752ZM10.5657 30.9427H12.0752V27.9238H10.5657V30.9427Z" fill="white"/>
</g>
<mask id="mask5_168_13686" style="mask-type:luminance" maskUnits="userSpaceOnUse" x="29" y="15" width="6" height="6">
<path d="M33.2072 15.8477H30.943C30.1094 15.8477 29.4336 16.5235 29.4336 17.3571V18.8665C29.4336 19.7002 30.1094 20.376 30.943 20.376H33.2072C34.0408 20.376 34.7166 19.7002 34.7166 18.8665V17.3571C34.7166 16.5235 34.0408 15.8477 33.2072 15.8477Z" fill="white"/>
</mask>
<g mask="url(#mask5_168_13686)">
<path d="M30.9427 14.3379C30.142 14.3379 29.3742 14.6559 28.808 15.2221C28.2419 15.7882 27.9238 16.5561 27.9238 17.3568H30.9427V14.3379ZM33.2068 17.3568H36.2257C36.2257 16.5561 35.9077 15.7882 35.3415 15.2221C34.7754 14.6559 34.0075 14.3379 33.2068 14.3379V17.3568ZM33.2068 18.8662V21.8851C34.0075 21.8851 34.7754 21.567 35.3415 21.0009C35.9077 20.4347 36.2257 19.6668 36.2257 18.8662H33.2068ZM30.9427 18.8662H27.9238C27.9238 19.6668 28.2419 20.4347 28.808 21.0009C29.3742 21.567 30.142 21.8851 30.9427 21.8851V18.8662ZM30.9427 18.8662V17.3568H27.9238V18.8662H30.9427ZM33.2068 18.8662H30.9427V21.8851H33.2068V18.8662ZM33.2068 17.3568V18.8662H36.2257V17.3568H33.2068ZM30.9427 17.3568H33.2068V14.3379H30.9427V17.3568Z" fill="white"/>
</g>
<mask id="mask6_168_13686" style="mask-type:luminance" maskUnits="userSpaceOnUse" x="0" y="1" width="17" height="17">
<path d="M14.6072 15.36C17.7756 12.1915 17.7756 7.05455 14.6072 3.88614C11.4388 0.717738 6.30179 0.717738 3.13339 3.88614C-0.0350161 7.05455 -0.0350161 12.1915 3.13339 15.36C6.30179 18.5284 11.4388 18.5284 14.6072 15.36Z" fill="white"/>
</mask>
<g mask="url(#mask6_168_13686)">
<path d="M8.86873 3.01887C9.7356 3.01887 10.594 3.18973 11.3947 3.5217C12.1955 3.85366 12.923 4.34021 13.5356 4.95353C14.1483 5.56684 14.634 6.29489 14.965 7.09606C15.2961 7.89722 15.466 8.75578 15.465 9.62264H18.4838C18.4848 8.35933 18.2368 7.10821 17.7541 5.94079C17.2713 4.77336 16.5632 3.71251 15.6703 2.81886C14.7774 1.92522 13.7171 1.2163 12.55 0.732627C11.383 0.248951 10.132 -3.8917e-07 8.86873 0V3.01887ZM2.26496 9.62264C2.26496 7.87121 2.96071 6.19152 4.19916 4.95307C5.43761 3.71462 7.1173 3.01887 8.86873 3.01887V0C6.31665 0 3.8691 1.01381 2.0645 2.81841C0.259905 4.623 -0.753906 7.07056 -0.753906 9.62264H2.26496ZM8.86873 16.2189C8.00187 16.2199 7.14331 16.05 6.34215 15.7189C5.54099 15.3879 4.81293 14.9022 4.19962 14.2895C3.5863 13.6769 3.09975 12.9494 2.76779 12.1487C2.43583 11.3479 2.26496 10.4895 2.26496 9.62264H-0.753906C-0.753907 10.8859 -0.504955 12.1369 -0.0212795 13.3039C0.462396 14.471 1.17131 15.5313 2.06496 16.4242C2.9586 17.3172 4.01945 18.0252 5.18688 18.508C6.35431 18.9908 7.60543 19.2387 8.86873 19.2377V16.2189ZM15.465 9.62264C15.465 11.3721 14.77 13.0498 13.533 14.2869C12.2959 15.5239 10.6182 16.2189 8.86873 16.2189V19.2377C11.4188 19.2377 13.8645 18.2247 15.6676 16.4215C17.4708 14.6184 18.4838 12.1727 18.4838 9.62264H15.465Z" fill="white"/>
</g>
</g>
<defs>
<clipPath id="clip0_168_13686">
<rect width="40" height="40" fill="white"/>
</clipPath>
</defs>
</svg>
