<svg width="25" height="24" viewBox="0 0 25 24" fill="none" xmlns="http://www.w3.org/2000/svg">
<path d="M12.6504 19.35C12.2404 19.35 11.9004 19.01 11.9004 18.6V16.5C11.9004 16.09 12.2404 15.75 12.6504 15.75C13.0604 15.75 13.4004 16.09 13.4004 16.5V18.6C13.4004 19.01 13.0604 19.35 12.6504 19.35Z" fill="#505050"/>
<path d="M18.3984 22.75H6.89844V21C6.89844 19.48 8.12844 18.25 9.64844 18.25H15.6484C17.1684 18.25 18.3984 19.48 18.3984 21V22.75ZM8.39844 21.25H16.8984V21C16.8984 20.31 16.3384 19.75 15.6484 19.75H9.64844C8.95844 19.75 8.39844 20.31 8.39844 21V21.25Z" fill="#505050"/>
<path d="M18.6504 22.75H6.65039C6.24039 22.75 5.90039 22.41 5.90039 22C5.90039 21.59 6.24039 21.25 6.65039 21.25H18.6504C19.0604 21.25 19.4004 21.59 19.4004 22C19.4004 22.41 19.0604 22.75 18.6504 22.75Z" fill="#505050"/>
<path d="M18.9317 12.4405C18.7217 12.4405 18.5117 12.3505 18.3617 12.1805C18.1717 11.9605 18.1217 11.6505 18.2417 11.3905C18.5817 10.6105 18.7517 9.78055 18.7517 8.91055V5.91055C18.7517 5.56055 18.6917 5.22055 18.5717 4.86055C18.5617 4.83055 18.5517 4.79055 18.5417 4.75055C18.5117 4.60055 18.5017 4.45055 18.5017 4.31055C18.5017 3.90055 18.8417 3.56055 19.2517 3.56055H19.8517C21.6417 3.56055 23.1017 5.06055 23.1017 6.91055C23.1017 8.44055 22.4717 9.95055 21.3817 11.0405C21.3617 11.0605 21.3017 11.1105 21.2917 11.1205C20.7017 11.6105 20.0317 12.1605 19.1317 12.4105C19.0617 12.4305 19.0017 12.4405 18.9317 12.4405ZM20.1817 5.09055C20.2317 5.36055 20.2517 5.64055 20.2517 5.91055V8.91055C20.2517 9.32055 20.2217 9.71055 20.1617 10.1105C20.2217 10.0605 20.2717 10.0205 20.3317 9.97055C21.1317 9.17055 21.6017 8.05055 21.6017 6.91055C21.6017 6.01055 20.9917 5.25055 20.1817 5.09055Z" fill="#505050"/>
<path d="M6.08137 12.3996C6.00137 12.3996 5.93137 12.3896 5.85137 12.3596C5.03137 12.0996 4.26137 11.6196 3.62137 10.9796C2.47137 9.70961 1.90137 8.31961 1.90137 6.84961C1.90137 5.02961 3.33137 3.59961 5.15137 3.59961H5.80137C6.05137 3.59961 6.29137 3.72961 6.43137 3.93961C6.57137 4.14961 6.59137 4.41961 6.49137 4.64961C6.33137 5.00961 6.25137 5.41961 6.25137 5.84961V8.84961C6.25137 9.70961 6.42137 10.5496 6.77137 11.3496C6.89137 11.6196 6.83137 11.9296 6.64137 12.1496C6.49137 12.3096 6.29137 12.3996 6.08137 12.3996ZM4.80137 5.12961C3.99137 5.28961 3.40137 5.98961 3.40137 6.84961C3.40137 7.93961 3.84137 8.98961 4.71137 9.94961C4.75137 9.99961 4.80137 10.0396 4.85137 10.0796C4.78137 9.66961 4.75137 9.25961 4.75137 8.84961V5.84961C4.75137 5.60961 4.77137 5.36961 4.80137 5.12961Z" fill="#505050"/>
<path d="M12.502 16.75C8.23195 16.75 4.75195 13.27 4.75195 9V6C4.75195 3.38 6.88195 1.25 9.50195 1.25H15.502C18.122 1.25 20.252 3.38 20.252 6V9C20.252 13.27 16.772 16.75 12.502 16.75ZM9.50195 2.75C7.71195 2.75 6.25195 4.21 6.25195 6V9C6.25195 12.45 9.05195 15.25 12.502 15.25C15.952 15.25 18.752 12.45 18.752 9V6C18.752 4.21 17.292 2.75 15.502 2.75H9.50195Z" fill="#505050"/>
</svg>
