<svg width="40" height="32" viewBox="0 0 40 32" fill="none" xmlns="http://www.w3.org/2000/svg">
<g clip-path="url(#clip0_1025_40015)">
<path d="M22.59 10.4767C22.59 10.5722 22.59 10.6676 22.59 10.7571C22.5244 13.7215 21.3792 16.4174 19.5242 18.4693C18.5997 19.4952 17.5022 20.36 16.2735 21.0102C14.5975 21.9108 12.6829 22.4178 10.6489 22.4178C10.3328 22.4178 10.0167 22.4059 9.70653 22.3761C8.5673 22.2926 7.46981 22.042 6.44987 21.6544V10.7571H4.94679V8.74102H1.54102L17.8422 0.945312C20.2937 2.8003 22.0055 5.56787 22.4588 8.74699C22.5483 9.31363 22.59 9.89219 22.59 10.4767Z" fill="url(#paint0_linear_1025_40015)"/>
<path d="M30.393 26.7117C33.0349 26.7117 35.1766 24.57 35.1766 21.9281C35.1766 19.2862 33.0349 17.1445 30.393 17.1445C27.7511 17.1445 25.6094 19.2862 25.6094 21.9281C25.6094 24.57 27.7511 26.7117 30.393 26.7117Z" fill="url(#paint1_linear_1025_40015)"/>
<path d="M28.6035 23.4023H31.2995V23.7721C31.2995 23.963 31.1444 24.1121 30.9595 24.1121H28.6035V23.4023Z" fill="white"/>
<path d="M29.3613 20.2422V22.4252H28.9498C28.7589 22.4252 28.6098 22.2701 28.6098 22.0852V20.5881C28.6098 20.3973 28.7649 20.2482 28.9498 20.2482H29.3613V20.2422Z" fill="white"/>
<path d="M28.9494 20.2422H31.3054V20.952H28.6094V20.5822C28.6094 20.3913 28.7645 20.2422 28.9494 20.2422Z" fill="white"/>
<path d="M28.6035 21.9297H30.9595C31.1504 21.9297 31.2995 22.0848 31.2995 22.2697V22.6395H28.9435C28.7526 22.6395 28.6035 22.4844 28.6035 22.2995V21.9297Z" fill="white"/>
<path d="M31.3047 22.2678V23.7649C31.3047 23.9558 31.1496 24.1049 30.9647 24.1049H30.5174V21.9219H30.9647C31.1556 21.9219 31.3047 22.077 31.3047 22.2619V22.2678Z" fill="white"/>
<path d="M31.305 20.6211H30.5117V21.3309H31.305V20.6211Z" fill="white"/>
<path d="M30.3984 19.5312H29.623V20.241H30.3984V19.5312Z" fill="white"/>
<path d="M30.3984 24.1133H29.623V24.8231H30.3984V24.1133Z" fill="white"/>
<path d="M29.3551 23.0195H28.6035V23.7293H29.3551V23.0195Z" fill="white"/>
<path d="M35.761 21.6227C35.761 18.3362 33.0889 15.6641 29.8024 15.6641C26.5159 15.6641 23.8438 18.3362 23.8438 21.6227C23.8438 24.9092 26.5159 27.5813 29.8024 27.5813C33.0889 27.5813 35.761 24.9092 35.761 21.6227ZM25.0367 21.6227C25.0367 18.9983 27.172 16.857 29.8024 16.857C32.4328 16.857 34.5681 18.9923 34.5681 21.6227C34.5681 24.2531 32.4328 26.3884 29.8024 26.3884C27.172 26.3884 25.0367 24.2531 25.0367 21.6227Z" fill="#0C4578"/>
<path d="M35.9208 14.7697C35.6762 14.555 35.3005 14.5729 35.0798 14.8234C34.865 15.068 34.8889 15.4497 35.1335 15.6644C36.8632 17.1914 37.8593 19.3923 37.8593 21.7006C37.8593 26.1323 34.2507 29.7409 29.819 29.7409C28.6619 29.7409 27.5465 29.5023 26.5087 29.0311C26.2045 28.8939 25.8526 29.0311 25.7213 29.3293C25.5842 29.6275 25.7213 29.9854 26.0196 30.1166C27.2125 30.6594 28.4949 30.9338 29.825 30.9338C34.9187 30.9338 39.0582 26.7944 39.0582 21.7006C39.0582 19.0464 37.9189 16.5174 35.9267 14.7697H35.9208Z" fill="#0C4578"/>
<path d="M21.7796 21.7009C21.7796 18.3548 23.8851 15.3188 27.0225 14.1557C27.9172 13.8276 28.8596 13.6606 29.8199 13.6606C29.8914 13.6606 29.963 13.6606 30.0525 13.6606C31.2633 13.6964 32.4145 13.9887 33.4821 14.5374C33.7804 14.6865 34.1323 14.5732 34.2873 14.281C34.4365 13.9887 34.3231 13.6308 34.0309 13.4757C32.9751 12.933 31.8419 12.6228 30.6728 12.5154V11.3583H31.5854C31.9134 11.3583 32.1818 11.0899 32.1818 10.7618V9.34228H34.9792C35.2596 9.34228 35.4982 9.15141 35.5638 8.87704C35.6234 8.60267 35.4922 8.3283 35.2417 8.20901L18.511 0.210498C18.35 0.132959 18.1591 0.132959 17.9981 0.210498L1.28529 8.20901C1.03478 8.3283 0.897596 8.60863 0.963206 8.87704C1.02285 9.15141 1.2674 9.34228 1.54774 9.34228H4.33916V10.7618C4.33916 11.0899 4.60757 11.3583 4.93562 11.3583H5.84224V24.7249H4.35109C4.02304 24.7249 3.75463 24.9934 3.75463 25.3214V26.741H1.54177C1.21372 26.741 0.945312 27.0094 0.945312 27.3374V30.3376C0.945312 30.6657 1.21372 30.9341 1.54177 30.9341H24.3563V29.7412H2.13823V27.9339H23.0262C23.3483 28.2798 23.6823 28.6139 24.0581 28.9121C24.1654 29.0016 24.2967 29.0433 24.4279 29.0433C24.6009 29.0433 24.7738 28.9658 24.8931 28.8167C25.0959 28.5602 25.0542 28.1844 24.7977 27.9756C22.8771 26.4427 21.7736 24.1583 21.7736 21.6949L21.7796 21.7009ZM20.5867 21.7009C20.5867 22.7507 20.7597 23.7646 21.0937 24.7249H20.1155V11.3583H26.2173V13.1954C22.8353 14.6329 20.5867 17.9969 20.5867 21.7009ZM10.2918 24.7249V11.3583H15.6719V24.7249H10.2918ZM16.8648 24.7249V11.3583H18.9226V24.7249H16.8648ZM29.4739 12.4677C28.7761 12.4856 28.0842 12.587 27.4161 12.7779V11.3583H29.4739V12.4677ZM18.2545 1.40938L32.3429 8.14936H4.17215L18.2545 1.40938ZM5.52611 9.34228H30.977V10.1654H5.52611V9.34228ZM7.02919 11.3583H9.09294V24.7249H7.02919V11.3583ZM4.94158 25.9179H16.2564H19.5071H21.5947C21.7379 26.1982 21.8989 26.4726 22.0719 26.741H4.94755V25.9179H4.94158Z" fill="#0C4578"/>
<path d="M34.639 14.5541L32.9689 14.9298L31.2988 15.3056L32.2114 13.3969L33.13 11.4883L33.8815 13.0212L34.639 14.5541Z" fill="#0C4578"/>
<path d="M25.1445 28.9351L25.902 30.468L26.6595 32.0009L27.5721 30.0923L28.4847 28.1836L26.8146 28.5594L25.1445 28.9351Z" fill="#0C4578"/>
</g>
<defs>
<linearGradient id="paint0_linear_1025_40015" x1="1.54102" y1="11.6816" x2="22.59" y2="11.6816" gradientUnits="userSpaceOnUse">
<stop stop-color="#176AB4"/>
<stop offset="1" stop-color="#B1FFC7"/>
</linearGradient>
<linearGradient id="paint1_linear_1025_40015" x1="25.6094" y1="21.9281" x2="35.1825" y2="21.9281" gradientUnits="userSpaceOnUse">
<stop stop-color="#C21500"/>
<stop offset="0.52" stop-color="#F37429"/>
<stop offset="1" stop-color="#FFD1B0"/>
</linearGradient>
<clipPath id="clip0_1025_40015">
<rect width="38.406" height="32" fill="white" transform="translate(0.796875)"/>
</clipPath>
</defs>
</svg>
