<svg width="114" height="100" viewBox="0 0 114 100" fill="none" xmlns="http://www.w3.org/2000/svg">
<path d="M43.0117 25.5258C43.6242 24.4922 44.2947 23.4942 45.0201 22.5365C50.5804 15.1406 58.7773 10.1722 67.9066 8.66451C69.104 8.45403 70.3127 8.31367 71.5264 8.24414C73.6417 12.0086 74.2119 16.4477 73.1166 20.6245C72.0213 24.8014 69.3463 28.3894 65.6559 30.6315C61.9655 32.8737 57.5485 33.5945 53.3367 32.6419C49.125 31.6893 45.4481 29.1378 43.0818 25.5258H43.0117Z" fill="url(#paint0_linear_4_13096)"/>
<path d="M98.6867 69.7813C97.8932 70.6092 97.051 71.3891 96.1645 72.1167L95.1136 69.9681L92.7782 74.4754C88.0983 77.467 82.7763 79.3077 77.2481 79.8467C76.0337 79.9635 74.7726 80.0335 73.5115 80.0335C71.45 79.9992 69.3951 79.7883 67.3696 79.403C66.2124 79.2068 65.0665 78.9496 63.9366 78.6323L63.7264 77.3712C63.6869 77.1138 63.7086 76.8506 63.7897 76.6031C63.8709 76.3556 64.0092 76.1307 64.1935 75.9467L70.242 70.0616L61.8348 68.8472C61.5738 68.8053 61.3261 68.7034 61.1113 68.5493C60.8965 68.3953 60.7204 68.1935 60.597 67.9597L56.8371 60.3231L53.0538 67.9597C52.9357 68.1929 52.7641 68.3948 52.553 68.5491C52.342 68.7033 52.0975 68.8054 51.8394 68.8472L48.0562 69.3843C47.1311 68.4754 46.2652 67.5081 45.4639 66.4885C41.1498 61.135 38.4808 54.6452 37.7806 47.8056C37.6638 46.5912 37.5938 45.4702 37.5938 44.1391C37.5938 43.7888 37.5938 43.4385 37.5938 43.0882C41.399 39.2286 46.2686 36.5913 51.5803 35.5133C56.892 34.4353 62.4045 34.9655 67.4133 37.0362C72.4221 39.1069 76.6998 42.6241 79.6996 47.1382C82.6994 51.6523 84.2852 56.9583 84.2542 62.3782V75.9934L88.9249 75.3161L93.5956 65.5076C93.7443 65.2558 93.956 65.0472 94.2099 64.9022C94.4638 64.7573 94.7512 64.681 95.0435 64.681C95.3359 64.681 95.6232 64.7573 95.8772 64.9022C96.1311 65.0472 96.3428 65.2558 96.4915 65.5076L98.6867 69.7813Z" fill="url(#paint1_linear_4_13096)"/>
<path d="M75.5195 68.45C75.6122 68.738 75.6219 69.0462 75.5475 69.3394C75.4732 69.6326 75.3178 69.899 75.0992 70.1081L67.2524 77.7447L67.556 79.4962L69.1207 88.5574C69.167 88.8566 69.1306 89.1627 69.0153 89.4427C68.9001 89.7226 68.7103 89.9657 68.4668 90.1455C68.2244 90.3265 67.936 90.4356 67.6345 90.4604C67.333 90.4852 67.0306 90.4246 66.7619 90.2856L57.0469 85.1711L49.4336 89.188C49.7798 87.6914 50.2405 86.2236 50.8115 84.7975C53.3235 78.3666 57.7709 72.8746 63.5392 69.0805C65.026 68.0958 66.5877 67.2291 68.2099 66.4883L74.165 67.3524C74.4733 67.3833 74.7657 67.5037 75.0064 67.6987C75.247 67.8937 75.4254 68.1549 75.5195 68.45Z" fill="url(#paint2_linear_4_13096)"/>
<path d="M105.483 87.2958L107.352 98.1085C107.401 98.4078 107.365 98.7148 107.25 98.9953C107.134 99.2757 106.943 99.5185 106.698 99.6965C106.421 99.9002 106.084 100.007 105.74 100C105.48 99.9965 105.224 99.9325 104.993 99.8133L95.2778 94.7222L85.6328 99.8133C85.3648 99.9504 85.0645 100.012 84.7642 99.9914C84.4638 99.9708 84.1747 99.8689 83.928 99.6965C83.6863 99.515 83.498 99.2717 83.383 98.9923C83.2679 98.7128 83.2303 98.4075 83.2741 98.1085L85.0956 87.2958L77.4824 79.846L77.2488 79.6591C77.0305 79.4449 76.8757 79.1745 76.8015 78.8777C76.7273 78.581 76.7366 78.2695 76.8285 77.9777C76.9241 77.692 77.0969 77.4383 77.3277 77.2446C77.5585 77.0509 77.8383 76.9247 78.1363 76.8801L81.0321 76.4597V63.6152H81.9195C82.7369 63.6152 83.5543 63.6152 84.2549 63.6152V75.9226L88.9256 75.2453L93.5963 65.6937C95.0454 66.2672 96.4503 66.9463 97.8 67.7255L98.8742 69.8973L101.607 75.4321L108.052 76.3663C109.362 77.9906 110.505 79.7432 111.462 81.5975L105.483 87.2958Z" fill="url(#paint3_linear_4_13096)"/>
<path d="M75.5208 68.45C75.43 68.1615 75.2586 67.9049 75.027 67.7105C74.7953 67.516 74.5129 67.3918 74.213 67.3524L68.2578 66.4883L63.3769 65.7877L58.5661 56.0492C58.4174 55.7975 58.2057 55.5888 57.9518 55.4438C57.6979 55.2989 57.4106 55.2227 57.1182 55.2227C56.8258 55.2227 56.5385 55.2989 56.2846 55.4438C56.0306 55.5888 55.8189 55.7975 55.6703 56.0492L50.8127 65.8811L45.745 66.605L39.8832 67.3524C39.5998 67.4116 39.3376 67.5461 39.1241 67.7418C38.9107 67.9374 38.7539 68.187 38.6703 68.4642C38.5866 68.7414 38.5792 69.036 38.6488 69.3171C38.7184 69.5981 38.8625 69.8553 39.0659 70.0614L46.8893 77.7447L45.0677 88.5574C45.0187 88.8567 45.0539 89.1638 45.1693 89.4442C45.2848 89.7247 45.476 89.9675 45.7216 90.1454C45.9988 90.3491 46.3353 90.4558 46.6791 90.449C46.9407 90.4566 47.1992 90.3919 47.4264 90.2622L49.4582 89.188L57.0715 85.1711L66.7866 90.2856C67.0552 90.4246 67.3576 90.4852 67.6591 90.4604C67.9606 90.4356 68.249 90.3265 68.4914 90.1454C68.735 89.9657 68.9247 89.7226 69.0399 89.4427C69.1552 89.1627 69.1916 88.8566 69.1453 88.5574L67.5572 79.4028L67.2536 77.6513L75.1004 70.0614C75.3106 69.8565 75.4608 69.5982 75.5349 69.3142C75.609 69.0302 75.6041 68.7314 75.5208 68.45ZM64.3811 76.0399C64.1969 76.224 64.0586 76.4489 63.9774 76.6964C63.8963 76.9439 63.8746 77.207 63.9141 77.4645L64.1242 78.7255L65.362 85.8717L58.7529 82.3921L58.5661 82.2286L57.8888 81.8783C57.6566 81.7631 57.4008 81.7031 57.1415 81.7031C56.8822 81.7031 56.6265 81.7631 56.3942 81.8783L50.9061 84.7741L48.8744 85.8484L50.2989 77.4411C50.3488 77.1835 50.332 76.9175 50.2503 76.6682C50.1685 76.4189 50.0245 76.1946 49.8319 76.0165L43.6665 70.0614L48.3372 69.3841L52.1205 68.847C52.3786 68.8053 52.6231 68.7031 52.8341 68.5489C53.0452 68.3947 53.2168 68.1927 53.3349 67.9596L57.1182 60.3229L60.9015 67.9829C61.0249 68.2167 61.2009 68.4185 61.4157 68.5725C61.6305 68.7265 61.8782 68.8285 62.1392 68.8703L63.6105 69.0805L70.6165 70.0847L64.3811 76.0399Z" fill="white"/>
<path d="M113.75 77.9788C113.655 77.6931 113.482 77.4394 113.251 77.2457C113.02 77.052 112.74 76.9258 112.443 76.8812L108.052 76.2506L101.606 75.3165L98.8741 69.7817L97.7998 67.7266L96.7489 65.6248C96.6003 65.373 96.3885 65.1643 96.1346 65.0194C95.8807 64.8744 95.5934 64.7982 95.301 64.7982C95.0086 64.7982 94.7213 64.8744 94.4674 65.0194C94.2135 65.1643 94.0017 65.373 93.8531 65.6248V65.8817L89.1824 75.4333L84.5116 76.1105V62.3786C84.5116 55.1505 81.6403 48.2184 76.5292 43.1074C71.4182 37.9964 64.4861 35.125 57.258 35.125C50.0299 35.125 43.0978 37.9964 37.9868 43.1074C32.8758 48.2184 30.0044 55.1505 30.0044 62.3786V76.0171L25.1702 75.3165L20.3127 65.508C20.164 65.2562 19.9523 65.0476 19.6984 64.9026C19.4444 64.7577 19.1571 64.6814 18.8647 64.6814C18.5724 64.6814 18.285 64.7577 18.0311 64.9026C17.7772 65.0476 17.5655 65.2562 17.4168 65.508L12.5593 75.3165L1.5831 76.8812C1.28274 76.9256 1.00068 77.0528 0.768543 77.2485C0.536405 77.4442 0.363359 77.7007 0.268799 77.9892C0.174239 78.2778 0.161903 78.5869 0.233173 78.8821C0.304443 79.1772 0.456502 79.4467 0.672308 79.6603L8.49576 87.2969L6.67418 98.0862C6.62887 98.3186 6.63611 98.5582 6.69535 98.7875C6.7546 99.0167 6.86437 99.2298 7.01661 99.4112C7.16885 99.5925 7.35972 99.7375 7.57524 99.8356C7.79076 99.9336 8.02548 99.9822 8.26222 99.9779C8.52243 99.9743 8.77824 99.9103 9.00953 99.791L18.6779 94.7L28.3696 99.791C28.6419 99.9277 28.9457 99.989 29.2497 99.9685C29.5536 99.9479 29.8465 99.8464 30.0978 99.6743C30.3412 99.4953 30.5294 99.2515 30.6409 98.9707C30.7524 98.6899 30.7827 98.3834 30.7284 98.0862L28.8834 87.2735L36.7302 79.6369C36.9445 79.4202 37.095 79.1486 37.165 78.852C37.2351 78.5553 37.222 78.2451 37.1272 77.9555C37.0316 77.6697 36.8588 77.416 36.628 77.2223C36.3972 77.0286 36.1174 76.9025 35.8194 76.8578L33.0637 76.4608V62.4487C33.0637 56.0815 35.5931 49.9751 40.0953 45.4728C44.5976 40.9706 50.704 38.4412 57.0712 38.4412C63.4384 38.4412 69.5448 40.9706 74.047 45.4728C78.5493 49.9751 81.0787 56.0815 81.0787 62.4487V76.4608L78.1828 76.8812C77.8849 76.9258 77.605 77.052 77.3742 77.2457C77.1435 77.4394 76.9707 77.6931 76.875 77.9788C76.7832 78.2706 76.7738 78.5821 76.848 78.8788C76.9222 79.1756 77.077 79.446 77.2954 79.6603L77.4822 79.8471L85.0955 87.2969L83.2739 98.0862C83.2301 98.3853 83.2677 98.6906 83.3828 98.97C83.4979 99.2495 83.6862 99.4928 83.9278 99.6743C84.1746 99.8467 84.4637 99.9486 84.764 99.9692C85.0643 99.9898 85.3646 99.9282 85.6326 99.791L95.2776 94.7L104.993 99.791C105.224 99.9103 105.48 99.9743 105.74 99.9779C106.084 99.9846 106.42 99.878 106.698 99.6743C106.943 99.4963 107.134 99.2535 107.25 98.973C107.365 98.6926 107.4 98.3855 107.351 98.0862L105.483 87.2735L111.462 81.4585L113.33 79.6369C113.544 79.4248 113.696 79.1584 113.77 78.8662C113.845 78.5741 113.838 78.2673 113.75 77.9788ZM26.0109 85.5687C25.8201 85.7481 25.6773 85.9725 25.5957 86.2214C25.5141 86.4703 25.4963 86.7357 25.5439 86.9933L26.9918 95.4239L20.3594 91.9442L20.0791 91.7574L19.4019 91.4305C19.1754 91.3098 18.9228 91.2467 18.6662 91.2467C18.4097 91.2467 18.157 91.3098 17.9306 91.4305L10.4107 95.4006L11.8587 86.9933C11.9001 86.7358 11.8793 86.4721 11.7981 86.2243C11.7168 85.9765 11.5774 85.7517 11.3916 85.5687L5.27296 79.6369L13.6802 78.3992C13.9444 78.3668 14.1962 78.2686 14.4124 78.1135C14.6287 77.9584 14.8026 77.7515 14.918 77.5117L18.6779 69.8751L22.4612 77.5117C22.571 77.7511 22.7402 77.9583 22.9528 78.1136C23.1654 78.269 23.4142 78.3673 23.6756 78.3992L32.1062 79.6369L26.0109 85.5687ZM102.611 85.5687C102.429 85.7549 102.293 85.98 102.212 86.2269C102.131 86.4738 102.108 86.7359 102.144 86.9933L103.592 95.4239L96.9825 91.9442L96.7022 91.7574L95.9315 91.4305C95.7009 91.3097 95.4445 91.2467 95.1842 91.2467C94.9239 91.2467 94.6675 91.3097 94.4369 91.4305L86.9404 95.4006L88.3416 86.9699C88.3892 86.7124 88.3714 86.447 88.2898 86.1981C88.2082 85.9492 88.0654 85.7247 87.8746 85.5454L81.9194 79.6369L90.3267 78.3992C90.588 78.3673 90.8369 78.269 91.0495 78.1136C91.2621 77.9583 91.4313 77.7511 91.5411 77.5117L93.0824 74.3824L95.4178 69.8751L96.4687 72.0236L99.1777 77.5117C99.2965 77.749 99.4713 77.9538 99.6869 78.1084C99.9025 78.263 100.153 78.3628 100.415 78.3992L108.846 79.6369L102.611 85.5687Z" fill="white"/>
<path d="M71.4569 8.24467C69.6131 5.08129 66.778 2.61385 63.3904 1.22425C60.0028 -0.165339 56.2516 -0.399599 52.7175 0.557731C49.1834 1.51506 46.0633 3.6106 43.8402 6.52001C41.6172 9.42941 40.4151 12.9905 40.42 16.652C40.4122 19.7979 41.3122 22.8792 43.0122 25.5263C45.3785 29.1383 49.0555 31.6898 53.2672 32.6424C57.4789 33.595 61.8959 32.8742 65.5863 30.6321C69.2767 28.39 71.9518 24.8019 73.0471 20.6251C74.1423 16.4482 73.5722 12.0092 71.4569 8.24467ZM57.0711 30.0803C54.5572 30.0793 52.0943 29.3716 49.9635 28.0377C47.8327 26.7039 46.1199 24.7978 45.0206 22.5371C44.1106 20.709 43.6388 18.694 43.6428 16.652C43.6489 13.0924 45.0657 9.68049 47.5826 7.16353C50.0996 4.64657 53.5116 3.22983 57.0711 3.22365C60.6325 3.22365 64.048 4.63842 66.5663 7.15671C69.0846 9.67501 70.4994 13.0906 70.4994 16.652C70.4994 20.2134 69.0846 23.6289 66.5663 26.1472C64.048 28.6655 60.6325 30.0803 57.0711 30.0803Z" fill="white"/>
<defs>
<linearGradient id="paint0_linear_4_13096" x1="43.0117" y1="20.785" x2="73.745" y2="20.785" gradientUnits="userSpaceOnUse">
<stop stop-color="#176AB4"/>
<stop offset="1" stop-color="#B1FFC7"/>
</linearGradient>
<linearGradient id="paint1_linear_4_13096" x1="37.6405" y1="57.5674" x2="98.6867" y2="57.5674" gradientUnits="userSpaceOnUse">
<stop stop-color="#176AB4"/>
<stop offset="1" stop-color="#B1FFC7"/>
</linearGradient>
<linearGradient id="paint2_linear_4_13096" x1="49.4336" y1="78.4687" x2="75.5896" y2="78.4687" gradientUnits="userSpaceOnUse">
<stop stop-color="#C21500"/>
<stop offset="0.52" stop-color="#F37429"/>
<stop offset="1" stop-color="#FFD1B0"/>
</linearGradient>
<linearGradient id="paint3_linear_4_13096" x1="76.8051" y1="81.7843" x2="111.462" y2="81.7843" gradientUnits="userSpaceOnUse">
<stop stop-color="#C21500"/>
<stop offset="0.52" stop-color="#F37429"/>
<stop offset="1" stop-color="#FFD1B0"/>
</linearGradient>
</defs>
</svg>
