<svg width="100" height="100" viewBox="0 0 100 100" fill="none" xmlns="http://www.w3.org/2000/svg">
<path d="M63.2351 54.4046C62.4737 56.7046 61.1057 58.7565 59.2755 60.344C58.9274 60.6606 58.5568 60.9518 58.1668 61.2151C55.894 62.8099 53.1825 63.6607 50.406 63.6503C46.8003 63.645 43.3438 62.2103 40.7942 59.6607C38.2446 57.1111 36.8099 53.6547 36.8047 50.049C36.8088 49.1032 36.915 48.1606 37.1215 47.2377C37.3317 45.9526 37.7461 44.7094 38.3489 43.5552C39.4576 43.5552 40.6059 43.7136 41.7344 43.7532C42.192 43.7599 42.6361 43.5978 42.9817 43.2978C44.3053 42.0769 45.5301 40.7529 46.6443 39.3382C47.1128 38.5524 47.7406 37.8734 48.4873 37.3449C49.2341 36.8164 50.0832 36.45 50.9801 36.2695C51.572 36.2854 52.1615 36.3516 52.7421 36.4675C52.9861 36.5426 53.2243 36.6352 53.4549 36.7447C55.989 37.9722 56.7017 40.3875 55.593 43.8522C55.4545 44.2481 55.3753 44.6243 55.1575 45.3964C56.187 45.3964 56.9393 45.3964 57.6916 45.3964C59.1458 45.4561 60.5231 46.0659 61.5448 47.1023C62.5666 48.1388 63.1566 49.5246 63.1955 50.9795C63.2153 52.2268 63.2351 53.3157 63.2351 54.4046Z" fill="url(#paint0_linear_4_13135)"/>
<path d="M65.789 50.4253C65.7503 48.9684 65.161 47.5803 64.1397 46.5407C63.1184 45.501 61.741 44.887 60.2851 44.8224C59.5328 44.8224 58.7804 44.8224 57.7509 44.8224C57.9687 44.0701 58.0479 43.6741 58.1865 43.2782C59.2952 39.8135 58.5825 37.3388 56.0483 36.1707C55.8177 36.0612 55.5795 35.9686 55.3356 35.8935C54.7692 35.7022 54.1683 35.6347 53.5736 35.6955C52.6784 35.8806 51.8312 36.2488 51.085 36.7769C50.3389 37.3049 49.71 37.9815 49.2378 38.7642C48.1291 40.1836 46.904 41.5081 45.5751 42.7238C45.2295 43.0238 44.7855 43.1859 44.3279 43.1792C43.1994 43.1792 42.0511 43.0604 40.9424 42.9812C39.8337 42.902 38.9626 42.8426 37.9133 42.8426C37.4046 42.7728 36.8867 42.8202 36.3992 42.9813C35.9117 43.1424 35.4675 43.413 35.1006 43.7722C34.7338 44.1314 34.4539 44.5698 34.2826 45.0538C34.1113 45.5378 34.0529 46.0546 34.1121 46.5647C34.1121 51.1842 34.1121 55.8038 34.1121 60.4233C34.0409 60.9357 34.0888 61.4576 34.2521 61.9484C34.4154 62.4393 34.6896 62.8859 35.0534 63.2536C35.4173 63.6213 35.861 63.9001 36.3501 64.0685C36.8392 64.2369 37.3606 64.2903 37.8737 64.2245C40.3286 64.2245 42.942 64.9175 45.2188 63.294C45.3376 63.195 45.6741 63.294 45.8919 63.294C50.5049 64.9175 55.2762 64.1255 59.9683 64.1453C60.7465 64.1656 61.5205 64.0245 62.2416 63.7311C62.9627 63.4377 63.6152 62.9982 64.1582 62.4403C64.7012 61.8825 65.1228 61.2183 65.3967 60.4896C65.6705 59.7608 65.7906 58.9833 65.7494 58.2059C65.7494 56.7409 65.7494 55.256 65.7494 53.791C65.789 52.6031 65.789 51.4746 65.789 50.4253ZM42.4272 60.5223H37.8737V46.4657H42.4272V60.5223ZM60.7405 60.5223C60.5255 60.6036 60.2971 60.6438 60.0673 60.6411C56.3255 60.6411 52.5243 60.6411 48.8022 60.4035C46.2483 60.2055 46.1295 59.8294 46.1295 57.1962V52.8011C46.1395 52.7421 46.1395 52.6818 46.1295 52.6229C45.7335 49.0592 46.1295 45.9113 49.6733 43.8127C50.9206 43.1 51.6531 41.4172 52.6826 40.2887C53.2439 39.8947 53.8757 39.6124 54.5437 39.4572C54.7218 40.0907 55.1772 40.843 54.9792 41.3182C54.4645 42.7238 53.6132 43.9909 52.9994 45.2778C52.742 45.8321 52.3857 46.6637 52.643 47.0596C52.8341 47.3686 53.0879 47.634 53.388 47.8386C53.6881 48.0432 54.0279 48.1825 54.3853 48.2475C55.9691 48.4257 57.6124 48.2475 59.216 48.2475C61.5522 48.2475 62.2253 48.9206 62.2253 51.1974C62.2253 53.4742 62.2253 55.6322 62.2253 57.8298C62.2528 58.3803 62.1296 58.9279 61.8689 59.4136C61.7714 59.6596 61.6191 59.8802 61.4235 60.0586C61.228 60.237 60.9944 60.3685 60.7405 60.4431V60.5223Z" fill="white"/>
<path d="M97.287 42.4663V56.5229L89.7637 57.7108L83.8243 70.8369L89.7637 78.9937L78.8352 89.7441L72.0643 83.8046L59.1757 89.7441L59.4133 98.871H58.6016C51.5919 96.7239 45.1723 92.9878 39.8428 87.9536C34.5133 82.9195 30.4178 76.7231 27.875 69.847C31.5594 74.0797 36.3947 77.1501 41.7924 78.6846C47.1902 80.2191 52.9176 80.1514 58.2776 78.4899C63.6376 76.8283 68.399 73.6445 71.9823 69.326C75.5657 65.0074 77.8164 59.7404 78.4606 54.1659C79.1049 48.5913 78.1148 42.9498 75.6108 37.9277C73.1069 32.9057 69.1971 28.7199 64.3574 25.8796C59.5177 23.0393 53.9567 21.6671 48.3512 21.93C42.7457 22.1929 37.3376 24.0796 32.7849 27.3604C38.7589 18.2393 47.695 11.4568 58.0868 8.15625V10.1361L69.9657 16.907L78.2215 9.89848L88.2789 19.8965L82.7948 27.7167L88.2789 42.4861L97.287 42.4663Z" fill="url(#paint1_linear_4_13135)"/>
<path d="M97.5646 39.5961H89.9423L85.2898 27.1035L90.1799 20.1544C90.4523 19.772 90.58 19.3053 90.5401 18.8375C90.5002 18.3696 90.2954 17.9312 89.9621 17.6005L79.8849 7.64205C79.535 7.29153 79.0664 7.08488 78.5716 7.06289C78.0769 7.0409 77.5918 7.20516 77.2122 7.52326L69.9661 13.7003L60.3442 8.1766V1.97981C60.3442 1.45473 60.1356 0.951157 59.7644 0.579872C59.3931 0.208586 58.8895 0 58.3644 0L42.526 0C42.0009 0 41.4973 0.208586 41.126 0.579872C40.7548 0.951157 40.5462 1.45473 40.5462 1.97981V9.04771L28.311 13.8586L22.9655 8.29539C22.7798 8.10594 22.5579 7.95573 22.3131 7.8537C22.0682 7.75167 21.8053 7.6999 21.54 7.70145C21.2731 7.68718 21.0064 7.73316 20.7596 7.83597C20.5129 7.93878 20.2924 8.0958 20.1146 8.29539L8.88907 19.7981C8.57388 20.1275 8.38206 20.5556 8.34599 21.0101C8.30992 21.4646 8.43181 21.9176 8.69109 22.2926L14.0168 29.9545L8.37432 39.5961H2.4349C1.90982 39.5961 1.40625 39.8047 1.03497 40.176C0.663681 40.5473 0.455094 41.0508 0.455094 41.5759V57.553C0.453083 58.0486 0.637037 58.5269 0.970609 58.8935C1.30418 59.2601 1.76311 59.4882 2.25672 59.5328L10.6709 60.3247L14.1158 71.0156L8.84947 76.7571C8.50424 77.1243 8.31204 77.6093 8.31204 78.1133C8.31204 78.6172 8.50424 79.1022 8.84947 79.4694L19.3622 90.3386C19.6989 90.6844 20.1502 90.8954 20.6315 90.9319C21.1127 90.9683 21.5907 90.8277 21.9756 90.5365L29.0435 85.1911L39.8532 90.6157L40.0512 97.6638C40.0512 98.1889 40.2598 98.6925 40.6311 99.0638C41.0024 99.4351 41.5059 99.6436 42.031 99.6436L59.6117 100.059C60.1339 100.052 60.632 99.8385 60.9976 99.4655C61.1894 99.2775 61.341 99.0524 61.4431 98.8039C61.5453 98.5554 61.5957 98.2888 61.5915 98.0202L61.3935 90.2L71.9261 85.3098L77.7071 90.4375C78.0743 90.7828 78.5593 90.975 79.0633 90.975C79.5673 90.975 80.0523 90.7828 80.4195 90.4375L91.5262 79.5486C91.8616 79.2142 92.066 78.7707 92.1023 78.2984C92.1386 77.8262 92.0045 77.3566 91.7242 76.9749L86.3787 69.7486L91.4074 58.6617L97.8814 57.6322C98.3498 57.5563 98.7755 57.3146 99.0807 56.9512C99.3859 56.5878 99.5505 56.1269 99.5444 55.6524V41.5759C99.5444 41.0508 99.3358 40.5473 98.9645 40.176C98.5932 39.8047 98.0897 39.5961 97.5646 39.5961ZM95.5848 53.9299L89.7443 54.8802C89.4196 54.9288 89.1121 55.0574 88.8495 55.2544C88.5868 55.4514 88.3773 55.7106 88.2397 56.0087L82.3003 69.1348C82.1556 69.4529 82.0977 69.8037 82.1325 70.1514C82.1673 70.4991 82.2935 70.8315 82.4983 71.1146L87.4478 77.8856L79.0336 86.1414L73.7079 81.4294C73.4089 81.1726 73.0399 81.0109 72.6484 80.9651C72.2569 80.9192 71.8606 80.9913 71.5103 81.1721L58.6218 87.1115C58.2719 87.2733 57.9769 87.5337 57.7729 87.8607C57.569 88.1878 57.4649 88.5673 57.4735 88.9527L57.6517 96.0008L44.0108 95.6642L43.793 89.3486C43.7812 88.9932 43.6738 88.6475 43.4822 88.3479C43.2906 88.0483 43.0219 87.8059 42.7042 87.646L29.7562 81.1721C29.4257 81.0081 29.0559 80.9397 28.6886 80.9747C28.3213 81.0097 27.9711 81.1466 27.6774 81.37L21.0253 86.3987L13.1061 78.1429L17.8972 72.9163C18.1381 72.6541 18.3039 72.3319 18.377 71.9835C18.4502 71.635 18.4281 71.2734 18.3129 70.9365L14.0366 57.9093C13.9179 57.5398 13.6932 57.2133 13.3905 56.9704C13.0878 56.7276 12.7204 56.579 12.3339 56.5433L4.41471 55.7909V43.5557H9.52261C9.87147 43.5571 10.2145 43.4663 10.517 43.2925C10.8194 43.1186 11.0706 42.868 11.245 42.5658L18.0754 30.687C18.2615 30.3609 18.351 29.9885 18.3334 29.6134C18.3159 29.2383 18.1921 28.876 17.9764 28.5686L12.8685 21.3423L21.5202 12.4332L26.3708 17.4817C26.6447 17.7631 26.9962 17.9566 27.3805 18.0377C27.7647 18.1188 28.1644 18.0837 28.5287 17.937L43.0803 12.2154C43.4425 12.0712 43.7541 11.8234 43.9759 11.5029C44.1978 11.1824 44.3202 10.8035 44.3276 10.4138L44.4068 3.95961H56.3846V9.32489C56.3832 9.67375 56.4741 10.0168 56.6479 10.3193C56.8217 10.6217 57.0724 10.8729 57.3745 11.0473L69.2534 17.8183C69.6066 18.0175 70.0125 18.1034 70.4161 18.0645C70.8198 18.0255 71.2017 17.8636 71.5103 17.6005L78.4397 11.6611L85.9827 19.2635L81.449 25.7375C81.2652 25.9993 81.1475 26.3018 81.1062 26.619C81.0648 26.9362 81.1009 27.2587 81.2114 27.5589L86.6954 42.3283C86.837 42.7072 87.0913 43.0337 87.424 43.2637C87.7567 43.4938 88.1519 43.6164 88.5565 43.6151H95.5848V53.9299Z" fill="white"/>
<path d="M49.9497 19.0664C43.8303 19.0742 37.8507 20.8963 32.7667 24.3021C27.6827 27.7079 23.7226 32.5447 21.3872 38.2009C19.0517 43.8571 18.4457 50.0787 19.6458 56.0792C20.8459 62.0798 23.7981 67.5898 28.1293 71.9127C32.4605 76.2356 37.9762 79.1773 43.979 80.3658C49.9819 81.5544 56.2024 80.9365 61.854 78.5901C67.5057 76.2438 72.3349 72.2745 75.731 67.184C79.127 62.0935 80.9376 56.1104 80.9337 49.991C80.9232 41.7822 77.6535 33.9135 71.8435 28.1146C66.0334 22.3157 58.1585 19.0612 49.9497 19.0664ZM49.9497 76.9757C44.6143 76.9679 39.401 75.3786 34.9686 72.4088C30.5362 69.4389 27.0836 65.2217 25.0473 60.2902C23.0109 55.3587 22.4822 49.9342 23.5279 44.7023C24.5736 39.4704 27.1467 34.6659 30.9222 30.8959C34.6976 27.126 39.5059 24.5599 44.7394 23.5219C49.9728 22.4839 55.3965 23.0206 60.325 25.0641C65.2536 27.1077 69.4657 30.5664 72.429 35.0032C75.3924 39.4399 76.9741 44.6556 76.9741 49.991C76.9715 53.5373 76.2704 57.0483 74.9109 60.3237C73.5514 63.599 71.5601 66.5745 69.0506 69.0803C66.5412 71.5861 63.5627 73.573 60.2854 74.9277C57.0081 76.2824 53.496 76.9783 49.9497 76.9757Z" fill="white"/>
<defs>
<linearGradient id="paint0_linear_4_13135" x1="36.7651" y1="49.9896" x2="63.2351" y2="49.9896" gradientUnits="userSpaceOnUse">
<stop stop-color="#C21500"/>
<stop offset="0.52" stop-color="#F37429"/>
<stop offset="1" stop-color="#FFD1B0"/>
</linearGradient>
<linearGradient id="paint1_linear_4_13135" x1="27.875" y1="53.5136" x2="97.287" y2="53.5136" gradientUnits="userSpaceOnUse">
<stop stop-color="#176AB4"/>
<stop offset="1" stop-color="#B1FFC7"/>
</linearGradient>
</defs>
</svg>
