<svg width="100" height="100" viewBox="0 0 100 100" fill="none" xmlns="http://www.w3.org/2000/svg">
<path d="M99.4053 64.0614C98.9961 63.1454 98.2165 63.048 97.1835 63.4378C97.32 62.8726 97.4174 62.4633 97.5149 62.093C100.457 51.0635 99.4859 39.3552 94.7669 28.9611C94.2601 27.8697 93.539 27.4994 92.701 27.8697C91.8629 28.24 91.6486 29.039 92.1358 30.1304C95.8925 38.3224 97.1663 47.4356 95.7998 56.3436C95.4685 58.468 94.9423 60.5728 94.455 62.9116C93.656 61.6642 92.9543 61.3134 92.2332 61.7032C91.5121 62.093 91.3172 62.9895 91.5706 63.8276C91.9409 65.1334 92.3112 66.4391 92.701 67.7254C93.0908 69.0117 94.0847 69.4015 95.2736 68.5635C96.4624 67.7254 97.4564 66.9264 98.5673 66.1273C99.3079 65.5816 99.8536 64.9579 99.4053 64.0614ZM82.0598 68.7389C79.1636 68.7466 76.3346 69.6122 73.93 71.2264C71.5254 72.8407 69.653 75.1312 68.5491 77.8087C67.4452 80.4863 67.1594 83.4309 67.7277 86.2708C68.296 89.1107 69.693 91.7185 71.7423 93.7651C73.7916 95.8116 76.4013 97.2052 79.2419 97.7697C82.0825 98.3343 85.0267 98.0445 87.7029 96.9371C90.379 95.8297 92.667 93.9542 94.278 91.5475C95.8891 89.1407 96.7509 86.3106 96.7548 83.4144C96.7445 79.522 95.1923 75.7923 92.4381 73.0417C89.684 70.2912 85.9522 68.744 82.0598 68.7389ZM91.2783 76.1059C92.629 77.7839 93.474 79.812 93.7144 81.9527H89.1734C88.998 80.7249 88.8031 79.6335 88.7252 78.5226C88.7227 78.337 88.7616 78.1533 88.8392 77.9847C88.9167 77.8161 89.0309 77.6669 89.1734 77.5481C89.843 77.0222 90.5461 76.5404 91.2783 76.1059ZM87.2829 72.8317L89.0954 73.9426L87.8481 74.7611C87.5753 74.0985 87.3414 73.5333 87.088 72.9681L87.2829 72.8317ZM77.2264 72.6368L76.3494 74.8196L75.0241 74.0595C75.7647 73.5138 76.3494 73.1435 77.2264 72.6368ZM72.8998 76.0084C73.6793 76.4957 74.4394 76.9439 75.1605 77.4312C75.2659 77.5204 75.3515 77.6306 75.4119 77.7548C75.4723 77.8789 75.5062 78.0143 75.5113 78.1523C75.3944 79.3606 75.1995 80.5689 75.0241 81.8163H70.4441C70.6973 79.6871 71.5487 77.6734 72.8998 76.0084ZM70.4441 84.8371H75.0241C75.1995 86.0844 75.3944 87.3123 75.5113 88.5596C75.5113 88.774 75.297 89.1053 75.1021 89.2417C74.4394 89.69 73.7183 90.0993 72.9193 90.606C71.5666 88.985 70.7076 87.0098 70.4441 84.9151V84.8371ZM75.0046 92.7498L76.3494 91.8923C76.6222 92.5939 76.8951 93.2176 77.2459 94.0751L75.0046 92.7498ZM82.8004 94.5428C82.668 94.6826 82.5041 94.7887 82.3223 94.8523C82.1406 94.9159 81.9463 94.9352 81.7556 94.9085C81.5649 94.8818 81.3834 94.8099 81.2261 94.6989C81.0688 94.5878 80.9404 94.4407 80.8514 94.27C80.0914 93.2175 79.4677 92.0677 78.7856 90.9568L79.0389 90.606H84.8857C84.6396 92.117 83.9394 93.5173 82.8783 94.6208L82.8004 94.5428ZM85.8212 87.7021H78.4153C78.3178 86.8835 78.2204 85.948 78.084 84.8566H86.211C86.0161 85.948 85.9187 86.903 85.8212 87.7021ZM78.0255 81.8552C78.1424 80.8028 78.2399 79.9063 78.3373 79.0098H85.8212C85.8212 79.8283 86.0161 80.7833 86.1331 81.8552H78.0255ZM86.9711 94.0946L87.8481 91.9897L89.0954 92.8083C88.3938 93.276 87.8091 93.5489 86.9711 94.1141V94.0946ZM91.2783 90.645C90.5182 90.1772 89.7581 89.7679 89.0954 89.2612C88.9743 89.145 88.8775 89.006 88.8106 88.8521C88.7437 88.6982 88.708 88.5325 88.7057 88.3647C88.7057 87.2538 88.998 86.1429 89.1539 84.9151H93.7144C93.4593 87.0225 92.6149 89.0153 91.2783 90.6644V90.645ZM95.1761 3.60539H75.4139C75.1725 3.61037 74.9424 3.70847 74.7717 3.87919C74.601 4.0499 74.5029 4.28001 74.4979 4.52139V24.3031C74.503 24.5427 74.6018 24.7707 74.773 24.9383C74.9442 25.1058 75.1743 25.1997 75.4139 25.1996H95.1566C95.3981 25.1998 95.6304 25.1066 95.8047 24.9395C95.9791 24.7724 96.0821 24.5444 96.0921 24.3031V4.54088C96.087 4.29616 95.9862 4.0632 95.8113 3.89195C95.6364 3.7207 95.4014 3.62482 95.1566 3.62488L95.1761 3.60539ZM82.6055 5.55433H87.3024V11.4791L85.9382 10.2318C85.7753 10.1005 85.5724 10.0289 85.3632 10.0289C85.154 10.0289 84.9511 10.1005 84.7883 10.2318L82.8394 11.5376L82.586 11.6935L82.6055 5.55433ZM94.2991 23.4456H76.3494V5.47637H80.7345V13.4475C80.7435 13.5908 80.7834 13.7304 80.8514 13.8568C80.9393 14.0229 81.0751 14.1588 81.2412 14.2466C81.4104 14.3129 81.5983 14.3129 81.7674 14.2466C81.914 14.2405 82.0558 14.1932 82.1767 14.1102L85.1976 11.9858L87.5753 14.2466C87.6604 14.3293 87.761 14.3943 87.8714 14.4377C87.9819 14.4812 88.0998 14.5024 88.2184 14.5C88.3413 14.5163 88.4658 14.5163 88.5887 14.5C88.749 14.422 88.8837 14.2999 88.9769 14.1479C89.0701 13.996 89.118 13.8206 89.1149 13.6424V5.47637H94.2406L94.2991 23.4456ZM42.8861 35.9188C43.2272 34.7636 43.1372 33.5239 42.6328 32.4302C41.5219 29.955 38.462 28.5323 36.0843 27.6553C35.5971 28.6298 35.1683 29.6042 34.7591 30.6372C32.0011 37.3656 30.5907 44.5699 30.6078 51.8416C30.5944 55.3341 30.9207 58.8196 31.5823 62.2489C31.7772 63.3208 32.0111 64.3928 32.2644 65.4452C34.235 65.4211 36.1818 65.0105 37.9943 64.2368C38.7599 63.9103 39.4231 63.383 39.9137 62.7106C40.4042 62.0382 40.704 61.2457 40.7813 60.4169C40.8527 59.6631 40.725 58.9037 40.411 58.2146L40.1186 57.8054C38.0333 55.6615 35.1294 51.7052 35.4997 50.0096C36.2018 48.071 37.1728 46.2406 38.3841 44.5721C40.2693 41.8856 41.7653 38.9461 42.8277 35.8408L42.8861 35.9188ZM49.9998 20.6976C46.0815 20.6704 42.1998 21.4534 38.5985 22.9973C37.702 24.4785 36.8834 25.9987 36.1428 27.5383C40.0272 25.0984 44.498 23.7518 49.0838 23.6405C48.0919 25.4104 47.2697 27.2702 46.6281 29.1949C44.8156 34.7494 46.6281 37.1076 48.3432 38.1211C49.333 38.7162 50.4626 39.0389 51.6174 39.0566C52.2266 39.0531 52.8316 38.9545 53.4104 38.7642C55.1485 38.03 56.5707 36.7045 57.4252 35.0223C58.9026 35.11 60.3825 34.898 61.7758 34.399C63.1691 33.8999 64.4471 33.1241 65.5328 32.1183C66.0675 31.4461 66.4708 30.6791 66.7216 29.8576C69.017 31.8354 70.9437 34.2042 72.4125 36.8543C68.8046 38.3834 64.8005 38.7114 60.9918 37.7898C57.2303 37.0881 55.4568 38.238 54.5992 39.3099C54.046 40.1602 53.737 41.1461 53.7061 42.16C53.6751 43.174 53.9234 44.1769 54.4238 45.0593C54.9456 46.3469 55.7865 47.4805 56.8673 48.3533C57.9482 49.2262 59.2334 49.8096 60.602 50.0486C61.86 50.1765 63.0744 50.5799 64.159 51.2299C65.2435 51.88 66.1717 52.7609 66.8776 53.81C67.041 54.0241 67.1582 54.2697 67.222 54.5313C67.2857 54.793 67.2945 55.065 67.2479 55.3302C66.137 57.6299 67.6766 60.183 71.7889 62.8726C69.9191 65.9432 67.438 68.5967 64.4999 70.6683C64.7142 70.1616 64.9091 69.6549 65.0845 69.1092C65.7049 67.7956 66.0004 66.3521 65.9462 64.9004C65.8919 63.4487 65.4894 62.0313 64.7727 60.7677C63.233 58.4875 60.2707 57.2207 56.0025 56.9868C47.7 56.5191 42.9641 57.9223 41.9896 61.138C41.249 63.5547 42.9836 66.3612 46.5306 68.4855C48.4487 69.6693 50.0904 71.2511 51.3445 73.124C51.7694 73.7482 52.1535 74.3992 52.4944 75.0729C51.6564 75.0729 50.7793 75.1899 49.9023 75.1899C43.8792 75.1989 38.0465 73.0798 33.4338 69.2066C33.96 70.8437 34.5837 72.4419 35.2463 74.001C39.6636 76.6464 44.7145 78.0472 49.8633 78.0548C53.9746 78.0734 58.0398 77.1886 61.7713 75.4627C61.7713 75.4627 61.7713 75.4627 61.7713 75.3263C67.7199 72.5993 72.5583 67.9219 75.4849 62.069C78.4115 56.2161 79.2507 49.539 77.8634 43.144C76.4761 36.7489 72.9457 31.0197 67.8569 26.9055C62.7682 22.7914 56.4266 20.5392 49.8828 20.5222L49.9998 20.6976ZM71.0483 4.79424C70.3077 3.66386 69.5281 2.55296 68.7875 1.40309C68.3003 0.643002 67.6571 0.136278 66.8386 0.565045C66.02 0.993811 65.8641 1.79288 66.2539 2.78683L65.7277 2.65041C64.4804 2.22164 63.233 1.87083 61.9857 1.559C60.6604 2.22164 59.3741 2.90377 58.0878 3.66386L58.9259 3.81977C61.0307 4.22905 63.0576 4.85271 65.4159 5.45688C64.305 6.04156 63.7593 6.66522 64.1685 7.60071C64.5778 8.5362 65.4353 8.57518 66.3319 8.32182C67.5402 8.00999 68.7875 7.75663 70.0153 7.46428C71.516 6.99654 71.8863 6.11952 70.9898 4.71628L71.0483 4.79424ZM67.5792 93.5489C66.9945 92.7888 66.2539 92.9057 65.4743 93.1981C61.0867 94.7654 56.487 95.6591 51.8318 95.8486C52.9816 96.7646 54.1705 97.6221 55.3788 98.4212C55.9635 98.4212 56.5677 98.2653 57.1524 98.1678C60.3486 97.6027 63.4864 96.6282 66.6242 95.7707C66.8695 95.7456 67.1037 95.6554 67.3025 95.5095C67.5013 95.3635 67.6575 95.1671 67.7548 94.9405C67.8522 94.7139 67.8873 94.4655 67.8564 94.2208C67.8255 93.9761 67.7298 93.7441 67.5792 93.5489Z" fill="url(#paint0_linear_4_13119)"/>
<path d="M95.1568 3.625H75.414C75.1727 3.62998 74.9426 3.72808 74.7718 3.8988C74.6011 4.06952 74.503 4.29962 74.498 4.541V24.3032C74.5031 24.5428 74.6019 24.7708 74.7731 24.9384C74.9444 25.106 75.1744 25.1998 75.414 25.1997H95.1568C95.3983 25.2 95.6305 25.1068 95.8049 24.9397C95.9792 24.7726 96.0822 24.5445 96.0923 24.3032V4.541C96.0872 4.29629 95.9864 4.06332 95.8115 3.89207C95.6366 3.72083 95.4016 3.62495 95.1568 3.625ZM82.5861 5.57394H87.2831V11.4792L85.9188 10.2319C85.756 10.1006 85.5531 10.029 85.3439 10.029C85.1347 10.029 84.9318 10.1006 84.7689 10.2319L82.82 11.5377L82.5861 11.6936V5.57394ZM94.2798 23.4652H76.3495V5.47649H80.7346V13.4476C80.7436 13.5909 80.7835 13.7305 80.8516 13.8569C80.9394 14.0231 81.0752 14.1589 81.2414 14.2467C81.4105 14.313 81.5984 14.313 81.7676 14.2467C81.9141 14.2406 82.056 14.1934 82.1769 14.1103L85.1977 11.9859L87.5754 14.2467C87.6605 14.3294 87.7612 14.3944 87.8716 14.4379C87.982 14.4814 88.0999 14.5025 88.2186 14.5001C88.3415 14.5164 88.466 14.5164 88.5889 14.5001C88.7492 14.4221 88.8838 14.3 88.9771 14.1481C89.0703 13.9961 89.1182 13.8208 89.1151 13.6425V5.47649H94.2408L94.2798 23.4652Z" fill="white" stroke="white" stroke-width="0.41" stroke-miterlimit="10"/>
<path d="M82.0584 68.7402C79.1622 68.7479 76.3333 69.6136 73.9287 71.2278C71.5241 72.842 69.6516 75.1325 68.5477 77.8101C67.4439 80.4877 67.158 83.4323 67.7264 86.2722C68.2947 89.112 69.6917 91.7199 71.7409 93.7664C73.7902 95.813 76.3999 97.2065 79.2405 97.7711C82.0812 98.3356 85.0254 98.0459 87.7015 96.9385C90.3776 95.831 92.6656 93.9556 94.2767 91.5488C95.8877 89.142 96.7496 86.3119 96.7534 83.4157C96.7431 79.5233 95.191 75.7936 92.4368 73.0431C89.6826 70.2926 85.9508 68.7454 82.0584 68.7402ZM91.2769 76.1072C92.6277 77.7853 93.4727 79.8133 93.7131 81.954H89.1721C88.9967 80.7262 88.8018 79.6348 88.7238 78.5239C88.7213 78.3384 88.7603 78.1546 88.8378 77.986C88.9154 77.8174 89.0296 77.6683 89.1721 77.5494C89.8416 77.0235 90.5447 76.5418 91.2769 76.1072ZM87.2816 72.833L89.0941 73.9439L87.8468 74.7625C87.5739 74.0998 87.3401 73.5346 87.0867 72.9694L87.2816 72.833ZM77.2251 72.6381L76.348 74.8209L75.0228 74.0608C75.7634 73.5151 76.348 73.1448 77.2251 72.6381ZM72.8984 76.0098C73.678 76.497 74.4381 76.9453 75.1592 77.4325C75.2645 77.5217 75.3501 77.6319 75.4105 77.7561C75.4709 77.8803 75.5048 78.0156 75.51 78.1536C75.3931 79.3619 75.1982 80.5703 75.0228 81.8176H70.4428C70.6959 79.6885 71.5474 77.6747 72.8984 76.0098ZM70.4428 84.8385H75.0228C75.1982 86.0858 75.3931 87.3136 75.51 88.5609C75.51 88.7753 75.2956 89.1066 75.1007 89.2431C74.4381 89.6913 73.717 90.1006 72.9179 90.6073C71.5653 88.9863 70.7062 87.0112 70.4428 84.9164V84.8385ZM75.0033 92.7511L76.348 91.8936C76.6209 92.5952 76.8938 93.2189 77.2446 94.0764L75.0033 92.7511ZM82.799 94.5442C82.6666 94.6839 82.5027 94.7901 82.321 94.8537C82.1393 94.9173 81.9449 94.9365 81.7543 94.9098C81.5636 94.8832 81.382 94.8113 81.2248 94.7002C81.0675 94.5891 80.939 94.4421 80.8501 94.2713C80.09 93.2189 79.4663 92.069 78.7842 90.9581L79.0376 90.6073H84.8844C84.6382 92.1183 83.9381 93.5186 82.877 94.6221L82.799 94.5442ZM85.8199 87.7034H78.4139C78.3165 86.8848 78.219 85.9494 78.0826 84.858H86.2097C86.0148 85.9494 85.9173 86.9043 85.8199 87.7034ZM78.0241 81.8566C78.1411 80.8042 78.2385 79.9076 78.336 79.0111H85.8199C85.8199 79.8297 86.0148 80.7847 86.1317 81.8566H78.0241ZM86.9698 94.0959L87.8468 91.9911L89.0941 92.8096C88.3925 93.2774 87.8078 93.5502 86.9698 94.1154V94.0959ZM91.2769 90.6463C90.5168 90.1785 89.7567 89.7693 89.0941 89.2625C88.973 89.1464 88.8762 89.0073 88.8092 88.8534C88.7423 88.6995 88.7067 88.5338 88.7043 88.366C88.7043 87.2551 88.9966 86.1442 89.1526 84.9164H93.7131C93.458 87.0239 92.6136 89.0166 91.2769 90.6658V90.6463Z" fill="white"/>
<path d="M49.9399 20.621C46.0216 20.5938 42.14 21.3768 38.5386 22.9207C32.4578 25.5235 27.4606 30.1435 24.3897 36.0019C21.3187 41.8602 20.362 48.5983 21.6807 55.0799C22.9995 61.5615 26.5131 67.3901 31.629 71.5827C36.7449 75.7753 43.1501 78.0754 49.7645 78.0951C53.8758 78.1138 57.941 77.2289 61.6725 75.5031C61.6725 75.5031 61.6725 75.5031 61.6725 75.3666C67.6211 72.6397 72.4594 67.9623 75.3861 62.1094C78.3127 56.2565 79.1518 49.5794 77.7646 43.1843C76.3773 36.7892 72.8469 31.06 67.7581 26.9459C62.6694 22.8317 56.3278 20.5795 49.784 20.5625L49.9399 20.621ZM52.7074 23.6613C56.7297 24.1174 60.5885 25.5127 63.9723 27.7346C63.889 28.5191 63.5695 29.2598 63.0563 29.8589C61.3997 31.8079 57.7941 31.8079 56.5663 31.652L55.319 31.5155L54.8707 32.6654C54.3932 33.935 53.463 34.9832 52.2592 35.6083C51.8588 35.724 51.4376 35.749 51.0263 35.6816C50.6151 35.6141 50.224 35.456 49.8815 35.2185C48.5562 34.4584 49.0239 32.0223 49.6281 30.0928C50.4202 27.8444 51.4526 25.6881 52.7074 23.6613ZM27.3712 62.0749C24.4433 56.9325 23.3777 50.938 24.354 45.1016C25.3303 39.2653 28.2888 33.9439 32.7308 30.0343C33.3913 30.1669 34.0423 30.3426 34.6797 30.5606C36.65 30.9726 38.4028 32.088 39.6106 33.6983C39.7561 34.1148 39.7561 34.5682 39.6106 34.9846C38.6188 37.7586 37.248 40.3821 35.5373 42.7804C34.103 44.7559 32.9913 46.9464 32.2436 49.2704C31.425 53.0708 36.005 58.2744 37.4667 59.8141C37.5642 60.3013 37.2134 60.7691 36.3948 61.1784C34.8179 61.8191 33.1267 62.1308 31.425 62.0944C30.3531 62.1918 28.9694 62.1918 27.3322 62.0749H27.3712ZM62.1013 67.9217C61.4154 69.8232 60.4921 71.6306 59.3533 73.3008C58.1807 73.7652 56.9756 74.143 55.7478 74.4311C55.2476 73.3115 54.6544 72.2358 53.9742 71.2154C52.4507 68.9465 50.4566 67.0322 48.1274 65.6025C45.9251 64.2967 44.7947 62.6985 45.0286 61.9774C45.2625 61.2563 47.8351 59.7167 55.7672 60.0285C58.9635 60.2039 61.0878 61.003 62.0428 62.3867C62.4892 63.2577 62.7236 64.2219 62.727 65.2006C62.7304 66.1793 62.5027 67.145 62.0623 68.0191L62.1013 67.9217ZM64.5765 70.4943C64.7908 69.9876 64.9857 69.4808 65.1611 68.9351C65.7405 67.6386 66.0071 66.2241 65.9394 64.8057C65.8717 63.3872 65.4716 62.0045 64.7713 60.7691C63.2317 58.4888 60.2693 57.222 56.0011 56.9881C47.6986 56.5204 42.9627 57.9236 41.9883 61.1394C41.2477 63.5561 42.9822 66.3625 46.5293 68.4869C48.4474 69.6707 50.089 71.2525 51.3432 73.1254C51.768 73.7496 52.1521 74.4006 52.493 75.0743C51.655 75.0743 50.778 75.1912 49.9009 75.1912C43.8778 75.2003 38.0451 73.0812 33.4324 69.208C32.046 68.0435 30.7853 66.7371 29.671 65.3101H30.548C31.1457 65.3101 31.7303 65.3101 32.302 65.3101C34.2726 65.286 36.2194 64.8755 38.0319 64.1018C38.7716 63.781 39.4144 63.2723 39.8965 62.626C40.3786 61.9798 40.6832 61.2187 40.7799 60.4183C40.8513 59.6644 40.7236 58.905 40.4096 58.216L40.1173 57.8067C38.0319 55.6629 35.128 51.7065 35.4983 50.0109C36.2005 48.0723 37.1714 46.242 38.3827 44.5734C40.2679 41.8869 41.7639 38.9474 42.8263 35.8422C43.1674 34.687 43.0773 33.4473 42.5729 32.3536C41.462 29.8784 38.4022 28.4557 36.0245 27.5787L36.1609 27.4812C40.0453 25.0413 44.5161 23.6947 49.1019 23.5834C48.11 25.3533 47.2878 27.2131 46.6462 29.1378C44.8337 34.6923 46.6462 37.0505 48.3613 38.064C49.3511 38.6591 50.4807 38.9818 51.6355 38.9995C52.2448 38.996 52.8497 38.8974 53.4285 38.7071C55.1666 37.9729 56.5888 36.6474 57.4433 34.9652C58.9207 35.0529 60.4006 34.8409 61.7939 34.3418C63.1873 33.8428 64.4652 33.067 65.5509 32.0612C66.0723 31.405 66.4687 30.6585 66.7203 29.8589C69.0156 31.8367 70.9424 34.2056 72.4112 36.8556C68.8032 38.3847 64.7991 38.7127 60.9904 37.7911C57.229 37.0895 55.4554 38.2394 54.5979 39.3113C54.0446 40.1615 53.7356 41.1475 53.7047 42.1614C53.6738 43.1753 53.9221 44.1783 54.4225 45.0606C54.9443 46.3482 55.7851 47.4818 56.866 48.3547C57.9468 49.2275 59.232 49.8109 60.6006 50.0499C61.8586 50.1779 63.073 50.5812 64.1576 51.2313C65.2422 51.8814 66.1703 52.7622 66.8762 53.8114C67.0396 54.0254 67.1569 54.271 67.2206 54.5327C67.2843 54.7943 67.2931 55.0663 67.2465 55.3316C66.1356 57.6313 67.6753 60.1844 71.7875 62.8739C69.9206 65.9126 67.4537 68.5387 64.5375 70.5917L64.5765 70.4943ZM70.2284 56.6373C70.5382 55.8977 70.6561 55.0918 70.5709 54.2945C70.4857 53.4971 70.2003 52.7342 69.7411 52.0768C68.7678 50.573 67.462 49.313 65.9245 48.3938C64.387 47.4747 62.6589 46.9211 60.8735 46.7757C60.0969 46.5683 59.3809 46.179 58.7845 45.6402C58.188 45.1014 57.7283 44.4284 57.4433 43.6769C57.2193 43.3196 57.0831 42.9144 57.0458 42.4943C57.0085 42.0743 57.0713 41.6514 57.229 41.2602C57.5408 40.8704 58.5542 40.5781 60.4837 40.9289C64.9675 41.9694 69.6668 41.546 73.8924 39.7206C75.1923 42.9516 75.8196 46.4138 75.7358 49.8955C75.6521 53.3772 74.859 56.8053 73.4051 59.97C70.6182 58.1965 70.0724 56.9687 70.1894 56.7348L70.2284 56.6373Z" fill="white"/>
<path d="M31.3668 79.5954L30.3728 79.4005C30.1194 79.3614 29.8804 79.2572 29.6793 79.098C29.4783 78.9389 29.3219 78.7302 29.2257 78.4926C29.1294 78.2549 29.0965 77.9963 29.1302 77.742C29.1639 77.4878 29.263 77.2467 29.4179 77.0423C29.7882 76.4576 30.139 75.8534 30.5288 75.2103C30.3546 74.808 30.1321 74.4284 29.8661 74.0799C28.8722 73.0275 27.8197 71.9945 26.7673 70.9811C26.5124 70.6972 26.159 70.521 25.7788 70.4884C25.3987 70.4559 25.0204 70.5693 24.7209 70.8057C24.4126 71.0687 24.072 71.2913 23.7075 71.4683C23.3194 71.6009 22.907 71.6475 22.4991 71.6047C21.2518 71.4293 21.4077 70.3574 21.2518 69.5389C21.2404 69.318 21.1832 69.1019 21.0839 68.9042C20.9846 68.7065 20.8454 68.5317 20.675 68.3906C20.5046 68.2495 20.3068 68.1454 20.0941 68.0847C19.8814 68.0241 19.6584 68.0082 19.4393 68.0382C18.075 68.0382 16.7108 68.0382 15.3465 68.0382C15.1426 68.0167 14.9365 68.0362 14.7403 68.0954C14.544 68.1547 14.3616 68.2525 14.2036 68.3832C14.0457 68.5139 13.9155 68.6749 13.8206 68.8566C13.7257 69.0383 13.668 69.2371 13.651 69.4414C13.6305 69.8198 13.5584 70.1935 13.4366 70.5523C13.2509 70.9135 12.9921 71.2321 12.6765 71.4878C11.741 72.1894 11.1173 71.4878 10.4352 70.9616C9.3438 70.2795 8.81759 70.2989 7.92107 71.1955C7.02456 72.092 6.42039 72.6961 5.6798 73.4367C4.21809 74.8984 4.12065 75.1518 5.34848 76.7889C5.62005 77.072 5.77169 77.4491 5.77169 77.8413C5.77169 78.2336 5.62005 78.6107 5.34848 78.8938C4.89221 79.2506 4.34557 79.4733 3.76984 79.5369C2.40558 79.9072 2.11324 80.1606 2.09375 81.6028C2.09375 82.6552 2.09375 83.7271 2.09375 84.7795C2.09375 86.7285 2.24966 87.0208 4.21809 87.2937C4.60953 87.2883 4.98758 87.4361 5.27158 87.7055C5.55558 87.975 5.72305 88.3447 5.73826 88.7359C5.66282 89.3179 5.43414 89.8694 5.07562 90.334C4.35452 91.6008 4.35452 92.0101 5.32899 93.0041L7.41435 95.1089C8.9735 96.6681 9.16839 96.7265 10.9224 95.4402C11.2099 95.1773 11.5853 95.0315 11.9749 95.0315C12.3644 95.0315 12.7399 95.1773 13.0273 95.4402C13.3387 95.8559 13.5338 96.3469 13.5925 96.863C13.9238 98.4806 14.2161 98.8119 15.8338 98.8119H19.5367C19.7396 98.8333 19.9447 98.8137 20.1398 98.7543C20.3349 98.6948 20.516 98.5967 20.6724 98.4658C20.8288 98.3348 20.9572 98.1738 21.0501 97.9921C21.1429 97.8105 21.1983 97.6121 21.2128 97.4087C21.2283 97.0594 21.3076 96.7159 21.4467 96.3952C21.6521 95.9804 21.9446 95.6147 22.3042 95.3233C23.1813 94.6217 23.8049 95.3233 24.4286 95.83C25.0522 96.3367 25.9682 96.6291 26.7283 95.83C27.8002 94.7776 28.8722 93.7057 29.9051 92.6338C30.1795 92.393 30.3492 92.0548 30.3783 91.6909C30.4075 91.327 30.2936 90.9662 30.061 90.6848C29.7847 90.3322 29.5432 89.9536 29.3399 89.5544C29.2134 89.2054 29.1733 88.8309 29.223 88.463C29.3594 87.2547 30.4118 87.3521 31.1719 87.1573C32.4387 86.8649 32.77 86.4946 32.77 85.2083C32.77 83.922 32.77 82.6162 32.77 81.3104C32.7983 80.8997 32.6689 80.4936 32.4082 80.1749C32.1475 79.8562 31.775 79.649 31.3668 79.5954ZM28.7747 84.6431C28.3606 84.6568 27.9616 84.8021 27.6357 85.0579C27.3098 85.3138 27.0738 85.6668 26.9622 86.0658C26.7949 86.5883 26.5863 87.0966 26.3385 87.586C25.99 88.0736 25.8227 88.6675 25.8654 89.2653C25.9081 89.863 26.1582 90.4272 26.5724 90.8602C27.1571 91.5034 26.475 91.8152 26.1436 92.1855C25.8123 92.5558 25.442 92.9846 24.8768 92.4779C24.4707 92.0812 23.9389 91.8388 23.3731 91.7926C22.8073 91.7463 22.2432 91.8991 21.778 92.2245C21.2986 92.4741 20.796 92.6765 20.2773 92.8287C19.8421 92.9484 19.4548 93.2001 19.1686 93.5492C18.8824 93.8982 18.7114 94.3274 18.6792 94.7776C18.6792 95.4792 18.3284 95.8105 17.5683 95.791C16.8082 95.7716 16.282 95.791 16.243 94.8556C16.2257 94.3384 16.0329 93.8425 15.6965 93.4494C15.36 93.0562 14.8998 92.7892 14.3915 92.6922C13.9417 92.5473 13.5049 92.3648 13.0858 92.1465C12.6353 91.8332 12.0904 91.6854 11.5434 91.728C10.9963 91.7706 10.4809 92.0011 10.0844 92.3804C9.42176 93.0041 9.07095 92.3804 8.66167 92.0296C8.25239 91.6788 7.8821 91.25 8.40831 90.6848C8.77626 90.3027 9.00211 89.8061 9.04822 89.2776C9.09432 88.7492 8.95789 88.2209 8.66167 87.7809C8.40435 87.2641 8.18295 86.7301 7.99903 86.1828C7.89746 85.7346 7.65197 85.3319 7.30005 85.0363C6.94813 84.7407 6.50913 84.5684 6.05009 84.5457C5.34848 84.5457 5.09511 84.1949 5.13409 83.5127C5.17307 82.8306 4.99767 82.1875 5.99163 82.129C6.52057 82.1 7.02367 81.8909 7.41725 81.5363C7.81083 81.1818 8.07116 80.7031 8.15495 80.1801C8.43796 79.547 8.67886 78.8959 8.87605 78.2311C9.06114 77.584 9.00576 76.8917 8.72014 76.2822C7.97954 75.3467 8.15495 74.7425 9.01248 74.1189C9.1489 74.1189 9.26584 73.9045 9.57767 73.6316C10.9809 75.3467 12.5011 74.6061 14.0992 73.9435C15.327 73.4367 16.243 72.8326 16.36 71.3903C16.36 70.4938 17.1201 70.8446 17.6073 70.7862C18.0945 70.7277 18.6207 70.7862 18.6597 71.4488C18.6838 72.0473 18.9144 72.619 19.3124 73.0667C19.7103 73.5143 20.251 73.8104 20.8425 73.9045C21.2305 74.0318 21.6084 74.1881 21.9729 74.3722C22.4033 74.6555 22.9169 74.7846 23.4301 74.7386C23.9433 74.6926 24.4257 74.4741 24.7989 74.1189C25.403 73.5537 25.7928 73.924 26.2411 74.3722C26.6893 74.8205 27.0986 75.1518 26.5139 75.7949C26.1474 76.1825 25.9244 76.6837 25.8818 77.2154C25.8393 77.7472 25.9798 78.2775 26.2801 78.7184C26.5196 79.2048 26.7279 79.7061 26.9037 80.219C27.0067 80.6701 27.2515 81.0763 27.6023 81.3779C27.953 81.6796 28.3913 81.8609 28.8527 81.8951C29.6907 81.8951 29.8661 82.4408 29.8466 83.2009C29.8271 83.961 29.5348 84.5652 28.7747 84.6431Z" fill="white"/>
<path d="M23.1426 13.1168L22.3825 12.7075C25.189 9.10196 25.1111 5.24306 22.2461 2.53404C20.9834 1.34023 19.3206 0.660612 17.5831 0.62817C15.8457 0.595729 14.1587 1.2128 12.8522 2.35863C9.83139 5.00919 9.69496 8.86809 12.5404 12.7465L12.0142 12.9998C10.0801 13.8757 8.38716 15.2074 7.08036 16.8808C5.77356 18.5542 4.89186 20.5194 4.51078 22.6081C4.08202 24.7519 4.58874 25.3366 6.75206 25.3366H29.1259C29.3402 25.3324 29.5509 25.2811 29.7432 25.1863C29.9354 25.0916 30.1045 24.9557 30.2384 24.7883C30.3723 24.6209 30.4677 24.4262 30.518 24.2178C30.5682 24.0094 30.572 23.7926 30.5291 23.5826C30.2971 21.3516 29.4961 19.2175 28.2027 17.385C26.9094 15.5524 25.167 14.0827 23.1426 13.1168ZM17.5297 3.528C18.5273 3.66124 19.4414 4.15572 20.0989 4.91778C20.7564 5.67984 21.1116 6.65656 21.0971 7.66294C21.0827 8.66932 20.6997 9.63548 20.0207 10.3784C19.3417 11.1213 18.4138 11.5894 17.4128 11.694C16.8771 11.6941 16.3468 11.5879 15.8524 11.3818C15.358 11.1756 14.9094 10.8735 14.5324 10.493C14.1555 10.1124 13.8577 9.6609 13.6563 9.16457C13.4549 8.66823 13.3538 8.1369 13.359 7.60128C13.3588 7.05807 13.4673 6.52031 13.6781 6.01966C13.8888 5.519 14.1976 5.06557 14.5862 4.68602C14.9749 4.30648 15.4355 4.00851 15.941 3.80963C16.4465 3.61076 16.9866 3.515 17.5297 3.528ZM7.785 22.3158C7.99938 18.8077 12.4625 14.9878 16.6527 14.7929C19.0241 14.5779 21.3942 15.218 23.335 16.5977C25.2757 17.9773 26.6591 20.0054 27.2354 22.3158H7.785Z" fill="white"/>
<path d="M69.8786 7.38716C68.6507 7.6795 67.4034 7.93286 66.1951 8.24469C65.2985 8.49805 64.4605 8.49805 64.0317 7.52358C63.603 6.54911 64.1682 5.96443 65.2791 5.37975C62.9208 4.77558 60.8939 4.15192 58.7891 3.74264L57.9511 3.58673C48.1278 1.82833 37.9991 3.30556 29.0873 7.79643C28.0154 8.34214 27.1383 8.20571 26.768 7.42613C26.3977 6.64656 26.6316 5.82801 27.6061 5.34077C32.0608 3.04277 36.8484 1.45786 41.7944 0.643831C48.4606 -0.436136 55.2767 -0.151026 61.8294 1.48187C63.0768 1.7937 64.3241 2.14451 65.5714 2.57328L66.0976 2.7097C65.7078 1.71575 65.7468 0.916682 66.6823 0.487915C67.6178 0.0591491 68.222 0.487915 68.6312 1.32596C69.3718 2.47583 70.1514 3.58673 70.892 4.71711C71.6326 5.84749 71.5157 6.99737 69.8786 7.38716Z" fill="white"/>
<path d="M98.567 66.089C97.4561 66.888 96.3842 67.7066 95.2733 68.5251C94.1624 69.3437 93.11 69.0514 92.7007 67.6871C92.2914 66.3228 91.9406 65.056 91.5703 63.7892C91.317 62.9512 91.317 62.1521 92.233 61.6649C93.149 61.1776 93.6557 61.6649 94.4548 62.8732C94.942 60.5345 95.4682 58.4296 95.7995 56.3053C97.1495 47.3769 95.8484 38.2487 92.0576 30.0531C91.5703 28.9617 91.7847 28.1042 92.6228 27.7923C93.4608 27.4805 94.1819 27.7923 94.6886 28.8837C99.4077 39.2779 100.379 50.9862 97.4366 62.0157C97.4366 62.386 97.2417 62.7953 97.1053 63.3605C98.1383 62.9707 98.9178 63.0681 99.3271 63.9841C99.7364 64.9001 99.3076 65.5822 98.567 66.089Z" fill="white"/>
<path d="M5.68051 67.1611C6.47957 66.5764 6.34315 65.8358 6.0703 65.0367C3.45189 57.8726 2.68761 50.1627 3.84851 42.624C4.27727 39.759 5.07634 36.9525 5.79745 34.1266C6.20672 34.3605 6.28468 34.6723 6.46008 34.7502C7.00579 34.9256 7.68792 35.2765 8.09719 35.0816C8.34292 34.9331 8.54693 34.7247 8.6901 34.4759C8.83327 34.227 8.91091 33.9459 8.91575 33.6588C8.64476 32.0137 8.27377 30.3865 7.80485 28.7865C7.76539 28.5806 7.67694 28.3873 7.54699 28.2228C7.41705 28.0584 7.24941 27.9276 7.05827 27.8416C6.86712 27.7556 6.65807 27.7168 6.44879 27.7286C6.23952 27.7405 6.03616 27.8025 5.85591 27.9095C4.27519 28.8046 2.75794 29.8074 1.31489 30.9108C1.13956 31.1332 1.02274 31.396 0.975078 31.6752C0.927417 31.9543 0.950437 32.241 1.04204 32.509C1.19795 32.8988 1.91906 33.0936 2.40629 33.308C2.5817 33.308 2.85455 33.308 3.16638 33.1521L3.01046 33.6978C0.409405 41.3839 -0.213938 49.6013 1.19795 57.5918C1.81363 60.5206 2.58125 63.4155 3.4977 66.2646C3.53015 66.5013 3.6242 66.7253 3.77045 66.9143C3.91669 67.1032 4.10999 67.2505 4.33101 67.3412C4.55202 67.432 4.793 67.4632 5.02984 67.4315C5.26667 67.3999 5.49104 67.3067 5.68051 67.1611Z" fill="white"/>
<path d="M66.7207 95.7126C63.5829 96.5701 60.4452 97.5446 57.2489 98.1098C56.6642 98.1098 56.06 98.3047 55.4754 98.3632C50.1047 99.0391 44.6574 98.7753 39.3771 97.5836C39.1956 97.5676 39.013 97.5676 38.8314 97.5836C39.2797 98.4996 39.3187 99.2987 38.4416 99.8054C37.5646 100.312 36.863 99.8054 36.2783 99.1038C35.4013 98.0318 34.5048 97.0184 33.6473 95.966C32.7897 94.9135 32.9846 93.8611 34.3489 93.3349L38.1103 92.0291C38.9289 91.7368 39.7474 91.5809 40.2931 92.4579C40.8388 93.3349 40.4101 94.0755 39.3187 94.7771C41.6964 95.1279 43.7817 95.5177 45.9061 95.7126C47.9085 95.8875 49.9206 95.9266 51.9283 95.8295C56.5836 95.64 61.1833 94.7464 65.5709 93.179C66.3504 92.8867 67.091 92.7697 67.6757 93.5298C67.8164 93.7249 67.9038 93.9533 67.9292 94.1925C67.9547 94.4316 67.9174 94.6733 67.821 94.8937C67.7246 95.114 67.5724 95.3054 67.3795 95.4491C67.1865 95.5927 66.9595 95.6835 66.7207 95.7126Z" fill="white"/>
<path d="M17.4521 74.7617C15.1571 74.7617 12.9561 75.6734 11.3333 77.2962C9.71051 78.919 8.79883 81.12 8.79883 83.415C8.79883 85.71 9.71051 87.911 11.3333 89.5338C12.9561 91.1566 15.1571 92.0683 17.4521 92.0683C19.7471 92.0683 21.9481 91.1566 23.5709 89.5338C25.1937 87.911 26.1054 85.71 26.1054 83.415C26.1054 81.12 25.1937 78.919 23.5709 77.2962C21.9481 75.6734 19.7471 74.7617 17.4521 74.7617ZM17.4521 89.0669C16.3241 89.0785 15.2182 88.7546 14.2746 88.1364C13.3311 87.5181 12.5926 86.6335 12.1529 85.5947C11.7132 84.5559 11.5921 83.4098 11.8051 82.3021C12.018 81.1943 12.5553 80.1748 13.3488 79.3731C14.1424 78.5713 15.1562 78.0235 16.2617 77.7991C17.3672 77.5748 18.5144 77.684 19.5577 78.113C20.601 78.5419 21.4933 79.2712 22.1212 80.2083C22.7492 81.1454 23.0845 82.248 23.0845 83.376C23.0848 84.8686 22.4986 86.3015 21.4523 87.366C20.4061 88.4305 18.9835 89.0414 17.4911 89.0669H17.4521Z" fill="white"/>
<defs>
<linearGradient id="paint0_linear_4_13119" x1="30.5494" y1="49.347" x2="99.5418" y2="49.347" gradientUnits="userSpaceOnUse">
<stop stop-color="#176AB4"/>
<stop offset="1" stop-color="#B1FFC7"/>
</linearGradient>
</defs>
</svg>
