<svg width="90" height="100" viewBox="0 0 90 100" fill="none" xmlns="http://www.w3.org/2000/svg">
<g clip-path="url(#clip0_4_13107)">
<path d="M86.8311 48.258C86.8062 47.8415 86.687 47.4361 86.4824 47.0725C86.3922 46.912 86.2871 46.7602 86.1686 46.6192C86.0085 46.4269 85.8089 46.2713 85.5832 46.163C85.3576 46.0547 85.1113 45.9962 84.8611 45.9916H84.6519C84.3332 46.0266 84.0117 46.0266 83.6931 45.9916C82.4204 45.8696 81.8102 45.0502 81.5138 43.638C81.3329 43.1553 81.1233 42.6837 80.8862 42.2259C81.2406 41.9812 81.5784 41.7133 81.8974 41.4239C82.2606 41.182 82.5584 40.8541 82.7644 40.4694C82.9703 40.0846 83.0781 39.655 83.0781 39.2186C83.0781 38.7822 82.9703 38.3525 82.7644 37.9678C82.5584 37.5831 82.2606 37.2552 81.8974 37.0132L81.1652 36.403C80.7642 35.9846 80.3458 35.5836 79.9274 35.1652C79.6887 34.8306 79.3736 34.5578 79.0081 34.3695C78.6427 34.1813 78.2376 34.0831 77.8266 34.0831C77.4156 34.0831 77.0105 34.1813 76.645 34.3695C76.2796 34.5578 75.9645 34.8306 75.7258 35.1652C75.3772 35.4965 74.9587 36.0718 74.7147 36.0369C73.6272 35.7696 72.5742 35.3776 71.5766 34.8689C71.2802 34.6771 71.2802 33.8577 71.2628 33.3521C71.2628 31.2601 70.3562 30.3535 68.299 30.3535H67.776C65.8097 31.2477 63.9835 32.4221 62.3541 33.8403C62.3541 34.2064 62.3541 34.5551 62.2321 34.6248C61.7396 34.9423 61.2204 35.2164 60.6805 35.4442C59.8913 36.3293 59.1632 37.2671 58.5013 38.251C56.0867 41.8355 54.7379 46.0311 54.6114 50.3512C54.4848 54.6712 55.5858 58.9386 57.7865 62.6583C58.1995 63.3433 58.6476 64.0067 59.1289 64.6457C60.1826 64.9371 61.1914 65.3711 62.1275 65.9358C62.4413 66.1276 62.3541 67.0167 62.3716 67.5746C62.3611 67.7778 62.3611 67.9815 62.3716 68.1848C63.2853 68.9994 64.2715 69.7288 65.3179 70.364C66.4685 70.364 67.6366 70.364 68.8046 70.364C69.4934 70.3937 70.1693 70.1705 70.7049 69.7364C70.8999 69.5249 71.0462 69.2732 71.1335 68.9992C71.2209 68.7251 71.2472 68.4352 71.2105 68.1499C71.0536 66.4065 71.873 65.8312 73.3025 65.2384C73.7355 64.9618 74.2587 64.8635 74.7625 64.9643C75.2663 65.065 75.7116 65.357 76.0048 65.7789C76.2327 66.0755 76.5258 66.3157 76.8613 66.481C77.1968 66.6463 77.5659 66.7322 77.9399 66.7322C78.314 66.7322 78.683 66.6463 79.0185 66.481C79.3541 66.3157 79.6471 66.0755 79.8751 65.7789C80.6247 65.0815 81.3395 64.3493 82.0543 63.6171C82.643 63.1117 83.017 62.4011 83.1003 61.6297C83.109 61.5252 83.109 61.4203 83.1003 61.3159C82.9374 60.6458 82.5794 60.0391 82.0717 59.5725C81.723 59.2064 81.0606 58.7531 81.1303 58.4567C81.4053 57.3423 81.8274 56.2694 82.3855 55.2663C82.5773 54.9874 83.4141 54.9874 83.9197 54.9874C85.6631 54.9874 86.7963 54.1157 86.866 52.5641C86.866 52.1108 86.866 51.6401 86.866 51.1868C86.8834 50.1234 86.8834 49.182 86.8311 48.258ZM58.0654 48.5892C58.1246 48.3004 58.2003 48.0152 58.2921 47.735C58.4284 47.2823 58.6095 46.8443 58.8325 46.4274C58.8896 46.3019 58.9536 46.1797 59.0243 46.0613C59.11 45.8855 59.2091 45.7164 59.3207 45.5557C59.4078 45.4163 59.5124 45.3117 59.5822 45.1722C59.9884 44.5944 60.4691 44.0727 61.0117 43.6206C61.1748 43.4675 61.3496 43.3276 61.5348 43.2022C61.7097 43.0642 61.8964 42.9417 62.0926 42.8361C62.3154 42.6913 62.5484 42.5631 62.79 42.4525C63.0409 42.309 63.3033 42.1866 63.5745 42.0864C63.655 42.0367 63.7435 42.0013 63.836 41.9818C64.1324 41.8598 64.4288 41.8075 64.7426 41.7029H65.2133C65.2998 41.6879 65.3883 41.6879 65.4748 41.7029C65.8895 41.6327 66.3094 41.5977 66.73 41.5983H67.5494H67.9678C68.1688 41.6204 68.3672 41.6613 68.5606 41.7203C68.727 41.7347 68.891 41.7699 69.0487 41.8249C69.0825 41.813 69.1195 41.813 69.1533 41.8249C69.2452 41.8051 69.3403 41.8051 69.4322 41.8249H69.5891H69.7112C69.8896 41.8841 70.0642 41.9539 70.2342 42.0341C70.5055 42.1408 70.7679 42.2691 71.0187 42.4177C71.2085 42.5114 71.3894 42.6223 71.5592 42.7489C71.6933 42.82 71.8215 42.9016 71.9427 42.993C72.2736 43.2198 72.5829 43.4766 72.8667 43.7601C73.0622 43.9119 73.2379 44.0876 73.3897 44.2831C73.3897 44.2831 73.3897 44.2831 73.4769 44.3703C73.564 44.4574 73.8778 44.8584 74.0871 45.1025L74.6101 45.9567C74.7727 46.2503 74.9182 46.553 75.0459 46.8633C75.3439 47.5209 75.538 48.2207 75.6212 48.9379C75.6558 49.3614 75.6558 49.787 75.6212 50.2106C75.6212 50.4372 75.6212 50.6813 75.6212 50.9253C75.6212 51.1694 75.6212 51.4832 75.4992 51.7796C75.4609 52.0956 75.3848 52.4058 75.2725 52.7036C75.2346 52.9221 75.1641 53.1337 75.0633 53.3312C74.9883 53.5925 74.883 53.8441 74.7495 54.0809C74.6544 54.3066 74.5376 54.5226 74.4009 54.7259C74.3658 54.8223 74.3125 54.9111 74.244 54.9874C74.1437 55.1719 74.027 55.3469 73.8953 55.5104C73.8579 55.5702 73.8108 55.6232 73.7558 55.6673C73.6479 55.8501 73.5192 56.0197 73.3723 56.1729L73.1805 56.3647C73.095 56.4708 72.9953 56.5647 72.8841 56.6436C72.6732 56.8652 72.4395 57.0639 72.1868 57.2364C71.9162 57.4749 71.6176 57.6798 71.2977 57.8465L71.0536 57.986L70.3562 58.3347H70.147C69.7109 58.5082 69.2621 58.6481 68.8046 58.7531H68.5606C67.987 58.8698 67.4023 58.9225 66.8172 58.91H66.2767L65.4748 59.2761C65.3183 59.2595 65.1605 59.2595 65.0041 59.2761H64.7774H64.4462L63.7314 58.7705C63.5745 58.7705 63.435 58.6485 63.2956 58.6136H63.191C62.3358 58.2621 61.5505 57.7602 60.8723 57.1318L60.7328 57.0097C60.7328 57.0097 60.3493 56.6436 60.1749 56.417C60.0277 56.2597 59.8936 56.0906 59.7739 55.9114C59.5457 55.6658 59.3522 55.3901 59.1986 55.092C59.0592 54.8828 58.9197 54.6213 58.7802 54.3772C58.6407 54.1332 58.5536 53.8193 58.449 53.5404C58.2452 52.973 58.0877 52.3899 57.9783 51.797C57.9783 51.5704 57.9783 51.3786 57.9783 51.1694C57.9783 50.9602 57.9783 50.7859 57.9783 50.5941C57.9271 49.9247 57.9564 49.2516 58.0654 48.5892Z" fill="url(#paint0_linear_4_13107)"/>
<path d="M86.832 48.258C86.8071 47.8415 86.6878 47.4361 86.4833 47.0725C86.393 46.912 86.288 46.7602 86.1695 46.6192C86.0094 46.4269 85.8097 46.2713 85.5841 46.163C85.3585 46.0547 85.1122 45.9962 84.862 45.9916H84.6528C84.3341 46.0266 84.0126 46.0266 83.6939 45.9916C82.4213 45.8696 81.8111 45.0502 81.5147 43.638C81.3338 43.1553 81.1242 42.6837 80.8871 42.2259C81.2415 41.9812 81.5793 41.7133 81.8983 41.4239C82.2614 41.182 82.5593 40.8541 82.7652 40.4694C82.9712 40.0846 83.079 39.655 83.079 39.2186C83.079 38.7822 82.9712 38.3525 82.7652 37.9678C82.5593 37.5831 82.2614 37.2552 81.8983 37.0132L81.166 36.403C80.7651 35.9846 80.3466 35.5836 79.9282 35.1652C79.6896 34.8306 79.3744 34.5578 79.009 34.3695C78.6436 34.1813 78.2385 34.0831 77.8275 34.0831C77.4164 34.0831 77.0113 34.1813 76.6459 34.3695C76.2805 34.5578 75.9654 34.8306 75.7267 35.1652C75.378 35.4965 74.9596 36.0718 74.7155 36.0369C73.6281 35.7696 72.5751 35.3776 71.5775 34.8689C71.2811 34.6771 71.2811 33.8577 71.2637 33.3521C71.2637 31.2601 70.3571 30.3535 68.2999 30.3535H65.2665C63.2267 30.3535 62.3725 31.2252 62.3376 33.2301C62.3376 33.4219 62.3376 33.6485 62.3376 33.8926C62.3376 34.1366 62.3376 34.6074 62.2155 34.6771C61.723 34.9946 61.2039 35.2687 60.6639 35.4965C60.1409 35.7231 59.6005 35.9323 59.06 36.1067C58.5196 36.281 58.1709 35.5662 57.7874 35.2001C57.5427 34.8685 57.2235 34.5989 56.8556 34.4132C56.4877 34.2275 56.0813 34.1307 55.6692 34.1307C55.257 34.1307 54.8507 34.2275 54.4827 34.4132C54.1148 34.5989 53.7957 34.8685 53.551 35.2001C52.7839 35.9672 52.0342 36.682 51.3195 37.4665C51.0536 37.6822 50.8392 37.9546 50.6919 38.2638C50.5446 38.5729 50.4682 38.911 50.4682 39.2534C50.4682 39.5959 50.5446 39.934 50.6919 40.2431C50.8392 40.5523 51.0536 40.8246 51.3195 41.0404C52.627 42.0864 52.3655 42.993 51.8425 44.3354C51.7366 44.859 51.4329 45.3217 50.9944 45.6269C50.556 45.9322 50.0167 46.0566 49.4889 45.9742C47.7455 45.8696 46.7692 46.8981 46.7344 48.7287C46.7344 49.5132 46.7344 50.2803 46.7344 51.0648C46.7344 51.3786 46.7344 51.7099 46.7344 52.0411C46.7344 53.9414 47.6584 54.8131 49.5761 54.8654C50.0817 54.8654 50.8836 54.7085 51.0579 54.8654C51.5925 55.737 52.0254 56.6671 52.348 57.6373C52.348 57.7768 52.4352 57.8988 52.4701 58.0209C52.4737 58.2215 52.3986 58.4155 52.2609 58.5613C52.0809 58.8187 51.8766 59.058 51.6507 59.2761C51.3053 59.521 51.0236 59.845 50.8292 60.2212C50.6348 60.5973 50.5333 61.0145 50.5333 61.4379C50.5333 61.8613 50.6348 62.2785 50.8292 62.6546C51.0236 63.0308 51.3053 63.3548 51.6507 63.5997L53.3941 65.3431C55.1374 67.0864 56.2183 67.0864 57.9791 65.3431C58.2755 65.0467 58.6939 64.5411 58.9206 64.576H59.1123C60.166 64.8673 61.1749 65.3014 62.1109 65.8661C62.4248 66.0578 62.3376 66.947 62.355 67.5048C62.3445 67.7081 62.3445 67.9118 62.355 68.115C62.376 68.4375 62.4631 68.7522 62.611 69.0395C62.7589 69.3268 62.9643 69.5805 63.2146 69.785C63.4648 69.9894 63.7544 70.1402 64.0655 70.2278C64.3765 70.3154 64.7022 70.338 65.0224 70.2942H65.3013C66.452 70.2942 67.62 70.2942 68.7881 70.2942C69.4739 70.3481 70.1558 70.1497 70.7058 69.7364C70.9008 69.5249 71.0471 69.2732 71.1344 68.9992C71.2218 68.7251 71.248 68.4352 71.2114 68.1499C71.0545 66.4065 71.8738 65.8312 73.3034 65.2385C73.7363 64.9618 74.2596 64.8635 74.7634 64.9643C75.2672 65.065 75.7124 65.357 76.0056 65.7789C76.2336 66.0755 76.5266 66.3157 76.8622 66.481C77.1977 66.6463 77.5668 66.7322 77.9408 66.7322C78.3148 66.7322 78.6839 66.6463 79.0194 66.481C79.3549 66.3157 79.648 66.0755 79.8759 65.7789C80.6256 65.0816 81.3404 64.3493 82.0552 63.6171C82.6439 63.1117 83.0179 62.4011 83.1012 61.6297C83.1098 61.5252 83.1098 61.4203 83.1012 61.3159C82.9383 60.6458 82.5803 60.0391 82.0726 59.5725C81.7239 59.2064 81.0614 58.7531 81.1312 58.4567C81.4062 57.3423 81.8283 56.2694 82.3864 55.2663C82.5782 54.9874 83.415 54.9874 83.9206 54.9874C85.6639 54.9874 86.7971 54.1157 86.8669 52.5641C86.8669 52.1108 86.8669 51.6401 86.8669 51.1869C86.8843 50.1234 86.8843 49.182 86.832 48.258ZM84.5482 52.6513C82.0377 52.1806 80.5907 53.1394 79.5621 55.6848C78.5335 58.2301 78.673 59.8863 80.9045 61.3682C79.9457 62.3619 79.074 63.2336 78.1151 64.175C78.0257 64.2934 77.9265 64.4042 77.8188 64.5062C77.4988 63.9814 77.0781 63.5252 76.581 63.1638C75.9021 62.7459 75.1205 62.5245 74.3233 62.5245C73.5261 62.5245 72.7445 62.7459 72.0656 63.1638C69.6075 64.175 68.5789 65.5174 69.1019 68.1325H64.5342C64.7365 67.458 64.7475 66.7406 64.5659 66.0603C64.3842 65.38 64.0172 64.7635 63.5056 64.2796C62.9117 63.8152 62.2464 63.4501 61.5356 63.1987C60.3802 62.5641 59.022 62.4076 57.7525 62.7629C56.9475 63.1103 56.2881 63.7265 55.8871 64.5062C55.3815 63.9658 54.9457 63.4428 54.4924 62.9198C54.4035 62.8009 54.3043 62.69 54.196 62.5885L53.4638 61.7343C53.3331 61.5753 53.1934 61.4239 53.0454 61.281C53.7818 60.8646 54.3417 60.1946 54.6208 59.396C54.8998 58.5973 54.879 57.7244 54.5621 56.94C54.5023 56.7141 54.4266 56.4927 54.3355 56.2775C54.2904 56.1048 54.2321 55.9357 54.1612 55.7719C53.1151 53.4009 51.9122 52.1631 49.1228 52.7559V48.0836C51.7902 48.659 53.1151 47.5083 54.1437 45.0327C55.1723 42.5571 55.0677 40.8661 52.6967 39.3842C53.8648 38.3556 54.8585 37.5188 56.0091 36.4902C56.2762 36.9525 56.6435 37.349 57.084 37.6507C57.5245 37.9524 58.0269 38.1515 58.5545 38.2336C59.598 38.3007 60.6403 38.0838 61.5705 37.606C63.9764 36.5774 65.0572 35.3047 64.5691 32.6548H69.189C69.0342 33.1307 68.9771 33.633 69.0212 34.1316C69.0654 34.6301 69.2098 35.1146 69.4459 35.5559C69.6821 35.9972 70.005 36.3862 70.3952 36.6995C70.7855 37.0129 71.2351 37.2441 71.7169 37.3793C71.8978 37.4769 72.0841 37.5642 72.2748 37.6408C74.733 38.652 76.4241 38.4428 77.9059 36.2461C78.9694 37.3445 79.8934 38.2859 80.9743 39.3668C78.7602 40.8486 78.6033 42.592 79.6493 45.0676C79.8411 45.486 80.0328 45.8696 80.2246 46.2357C80.5607 46.7942 80.9983 47.2849 81.5147 47.6827C81.6964 47.7906 81.8893 47.8783 82.09 47.9442C82.9056 48.2462 83.7946 48.2889 84.6354 48.0662L84.5482 52.6513Z" fill="white"/>
<path d="M77.7822 48.4839C77.6599 47.843 77.485 47.2132 77.2592 46.601C76.555 44.6614 75.3268 42.9551 73.711 41.6717C72.0952 40.3883 70.1551 39.5781 68.1065 39.3312C67.6732 39.2696 67.2365 39.2347 66.7989 39.2266C65.3314 39.2311 63.8792 39.5247 62.5251 40.0905C61.171 40.6564 59.9417 41.4834 58.9072 42.5243C57.8727 43.5652 57.0534 44.7997 56.4961 46.1573C55.9387 47.5149 55.6542 48.9689 55.6588 50.4365C55.6424 50.6453 55.6424 50.8552 55.6588 51.0641C55.7216 52.2959 56.005 53.5064 56.4956 54.638C57.5655 57.1598 59.5179 59.2051 61.9872 60.3911C63.5398 61.1498 65.2453 61.5434 66.9733 61.5418C69.7919 61.5083 72.4942 60.4125 74.54 58.4733C76.5858 56.5341 77.8246 53.8943 78.0089 51.0815C78.0089 50.8549 78.0089 50.6457 78.0089 50.419C77.988 49.7687 77.9122 49.1214 77.7822 48.4839ZM75.6902 51.0641C75.6902 51.343 75.6902 51.622 75.5681 51.9183C75.5298 52.2343 75.4538 52.5445 75.3415 52.8423C75.3036 53.0608 75.2331 53.2724 75.1323 53.4699C75.0573 53.7312 74.9519 53.9828 74.8185 54.2196C74.7233 54.4453 74.6065 54.6614 74.4698 54.8646C74.4347 54.961 74.3814 55.0498 74.3129 55.1261C74.2127 55.3106 74.096 55.4857 73.9642 55.6492C73.9269 55.7089 73.8797 55.762 73.8248 55.8061C73.7168 55.9888 73.5881 56.1584 73.4412 56.3116L73.2494 56.5034C73.1639 56.6096 73.0642 56.7034 72.9531 56.7823C72.7422 57.004 72.5084 57.2026 72.2557 57.3751C71.9851 57.6137 71.6865 57.8186 71.3666 57.9853L71.1225 58.1247L70.4252 58.4734H70.216C69.7798 58.6469 69.331 58.7868 68.8736 58.8918H68.6295C68.056 59.0086 67.4713 59.0612 66.8861 59.0487H66.3457L65.474 59.2754C65.3175 59.2588 65.1597 59.2588 65.0033 59.2754H64.7766H64.4454L63.7306 58.7698C63.5737 58.7698 63.4342 58.6478 63.2948 58.6129H63.1902C62.335 58.2614 61.5497 57.7595 60.8715 57.131L60.732 57.009C60.732 57.009 60.3485 56.6429 60.1741 56.4162C60.0269 56.259 59.8928 56.0899 59.7731 55.9107C59.5449 55.665 59.3514 55.3893 59.1978 55.0913C59.0584 54.8821 58.9189 54.6206 58.7794 54.3765C58.64 54.1324 58.5528 53.8186 58.4482 53.5397C58.2444 52.9722 58.0869 52.3892 57.9775 51.7963C57.9775 51.5697 57.9775 51.3779 57.9775 51.1687C57.9775 50.9595 57.9775 50.7851 57.9775 50.5934C57.9575 49.956 58.0101 49.3185 58.1344 48.6931C58.1936 48.4042 58.2692 48.119 58.361 47.8388C58.4974 47.3862 58.6784 46.9482 58.9015 46.5313C58.9585 46.4058 59.0225 46.2836 59.0932 46.1652C59.1789 45.9893 59.278 45.8203 59.3896 45.6596C59.4768 45.5201 59.5814 45.4155 59.6511 45.2761C60.0574 44.6983 60.538 44.1766 61.0807 43.7245C61.2437 43.5714 61.4186 43.4315 61.6037 43.3061C61.7787 43.168 61.9653 43.0455 62.1616 42.9399C62.3843 42.7952 62.6174 42.667 62.8589 42.5564C63.1099 42.4129 63.3723 42.2904 63.6434 42.1903C63.7239 42.1406 63.8124 42.1052 63.9049 42.0857C64.2013 41.9637 64.4977 41.9114 64.8115 41.8068H65.2822C65.3687 41.7918 65.4572 41.7918 65.5437 41.8068C65.9584 41.7366 66.3783 41.7016 66.7989 41.7022H67.6183H68.0367C68.2377 41.7243 68.4361 41.7651 68.6295 41.8242C68.7959 41.8386 68.9599 41.8737 69.1176 41.9288C69.1515 41.9168 69.1884 41.9168 69.2222 41.9288C69.3142 41.909 69.4093 41.909 69.5012 41.9288H69.6581H69.7801C69.9585 41.9879 70.1332 42.0578 70.3031 42.138C70.5745 42.2447 70.8368 42.3729 71.0877 42.5215C71.2775 42.6153 71.4584 42.7262 71.6281 42.8528C71.7622 42.9238 71.8905 43.0054 72.0116 43.0969C72.3425 43.3237 72.6518 43.5804 72.9356 43.8639C73.1311 44.0158 73.3068 44.1915 73.4586 44.387C73.4586 44.387 73.4586 44.387 73.5458 44.4741C73.633 44.5613 73.9468 44.9623 74.156 45.2063L74.679 46.0606C74.8416 46.3541 74.9871 46.6568 75.1148 46.9671C75.4129 47.6247 75.6069 48.3246 75.6902 49.0418C75.7248 49.4653 75.7248 49.8909 75.6902 50.3144C75.7076 50.5585 75.7076 50.82 75.6902 51.0641Z" fill="white"/>
<path d="M21.9957 55.3007C21.6433 55.2777 21.2965 55.2013 20.9671 55.0741C20.1555 54.7188 19.4167 54.2163 18.7879 53.5922C18.0822 52.5371 17.7931 51.2575 17.9767 50.0015C18.1603 48.7454 18.8034 47.6021 19.7816 46.7931C19.9086 46.6591 20.0069 46.5007 20.0707 46.3275C20.1345 46.1543 20.1623 45.9699 20.1525 45.7856C20.1427 45.6013 20.0955 45.4209 20.0138 45.2554C19.932 45.0899 19.8174 44.9428 19.677 44.823C19.1366 44.5092 18.5264 44.2826 17.9336 43.9862C17.3409 43.6898 16.905 43.376 16.3646 43.0448L14.4469 44.5964C14.3053 44.7452 14.1334 44.8618 13.9427 44.9381C13.7521 45.0145 13.5472 45.0489 13.342 45.039C13.1369 45.029 12.9363 44.975 12.7539 44.8806C12.5715 44.7862 12.4116 44.6536 12.2851 44.4918C11.117 43.3412 9.98384 42.1905 8.79835 41.0051C8.17073 40.36 8.01383 39.5929 8.65888 39.0002C8.98049 38.7466 9.2457 38.4288 9.4376 38.067C9.62949 37.7052 9.74385 37.3074 9.77338 36.8989C9.80291 36.4904 9.74696 36.0803 9.60909 35.6946C9.47123 35.309 9.25448 34.9563 8.97269 34.6592C8.21431 33.192 7.62925 31.6416 7.22931 30.0392C7.03754 29.4813 6.8632 29.1327 6.21815 29.1501C5.94851 29.1265 5.68065 29.0858 5.4162 29.0281C3.14981 28.6445 3.08008 28.5922 3.08008 26.2561C3.08008 25.0183 3.08008 23.7805 3.08008 22.5427C3.08008 21.3049 3.49849 20.9039 4.49221 20.9214C6.51453 20.9214 7.24674 19.9625 7.68259 18.0971C8.32611 16.2516 9.11906 14.4616 10.0536 12.7449C9.73977 12.344 9.26906 11.7686 8.81578 11.1759C8.65748 11.0326 8.53286 10.856 8.45086 10.6588C8.36887 10.4616 8.33153 10.2488 8.34153 10.0355C8.35153 9.82215 8.40862 9.6137 8.5087 9.42506C8.60878 9.23642 8.74937 9.07227 8.92038 8.94438C10.0536 7.81119 11.1693 6.67799 12.4071 5.56223C13.1219 4.84745 13.8541 4.72541 14.5515 5.56223C15.7718 6.86976 16.8004 6.74773 18.2823 5.82374C19.8204 5.00774 21.4544 4.38694 23.1463 3.97576C23.8088 3.76656 24.1052 3.52248 24.1575 2.86C24.2098 2.19752 24.2795 2.02318 24.3493 1.62221C24.541 0.43671 24.9246 0.105469 26.0926 0.105469H30.608C31.7063 0.105469 32.1944 0.454144 32.2467 1.5699C32.1983 2.27111 32.4269 2.96334 32.8832 3.49792C33.3396 4.03251 33.9874 4.36681 34.6875 4.42904C36.3831 4.94688 38.0104 5.66684 39.5341 6.57339C39.7223 6.73085 39.9599 6.81713 40.2052 6.81713C40.4506 6.81713 40.6882 6.73085 40.8765 6.57339C43.1951 4.67311 43.2126 4.69055 45.3221 6.80003L47.6233 9.11872C48.3381 9.85094 48.495 10.5134 47.7977 11.1759C46.3158 12.588 46.4727 13.8433 47.5013 15.5169C48.2568 17.0157 48.8416 18.5947 49.2447 20.224C49.419 20.7122 49.6108 20.9737 50.1512 21.0085C50.8127 21.0719 51.4704 21.1708 52.1212 21.3049C52.4742 21.3403 52.7999 21.5105 53.0305 21.78C53.2611 22.0496 53.3787 22.3977 53.359 22.7519C53.359 24.4953 53.359 26.1341 53.359 27.8077C53.3754 28.1463 53.2647 28.4789 53.0486 28.7401C52.8325 29.0013 52.5266 29.1724 52.191 29.2198H52.0166C49.8548 29.0455 49.0877 30.2484 48.6345 32.1836C48.2025 33.6528 47.5689 35.0551 46.7516 36.3502C46.3506 37.065 46.3332 37.5183 46.8737 38.0936C47.2106 38.4838 47.5194 38.8974 47.7977 39.3314C47.9253 39.4721 48.0228 39.6373 48.0843 39.817C48.1458 39.9967 48.1699 40.187 48.1552 40.3764C48.1405 40.5657 48.0873 40.7501 47.9988 40.9182C47.9104 41.0862 47.7885 41.2344 47.6408 41.3537L44.154 44.8405C44.0352 44.9804 43.8898 45.0956 43.7264 45.1792C43.563 45.2629 43.3846 45.3135 43.2016 45.3281C43.0185 45.3426 42.8344 45.3209 42.6598 45.2642C42.4852 45.2074 42.3235 45.1168 42.184 44.9974L39.9699 43.254C38.9239 43.7945 37.9127 44.3175 36.919 44.8753C36.7612 44.9788 36.63 45.1178 36.5359 45.2813C36.4418 45.4448 36.3875 45.6281 36.3773 45.8165C36.3671 46.0048 36.4014 46.1929 36.4773 46.3656C36.5532 46.5383 36.6687 46.6907 36.8144 46.8105C37.7837 47.6711 38.3988 48.8611 38.5406 50.1496C38.6823 51.438 38.3405 52.7332 37.5815 53.784C36.6242 54.5307 35.5827 55.1627 34.4783 55.6668C34.3655 57.237 33.6699 58.7084 32.5281 59.7922C31.3863 60.8759 29.8807 61.4938 28.3067 61.5246C25.0292 61.5769 22.6931 59.2756 21.9957 55.3007ZM33.5543 45.9388C33.7286 44.9102 33.9553 43.8816 34.0599 42.8356C34.3441 39.3954 35.7816 36.1519 38.1394 33.6306C39.4578 32.1619 40.4004 30.3953 40.8862 28.4823C41.372 26.5694 41.3866 24.5671 40.9288 22.6473C40.3092 19.6208 38.6395 16.9109 36.2148 14.9967C33.7902 13.0825 30.7667 12.0873 27.6791 12.1871C24.4712 12.4175 21.4586 13.8144 19.2102 16.1142C16.9619 18.4139 15.6333 21.4573 15.4755 24.6696C15.4155 26.4844 15.7262 28.2924 16.3887 29.983C17.0511 31.6736 18.0514 33.2114 19.3283 34.5023C20.7737 36.0477 21.7055 38.0025 21.9957 40.0985C22.2398 41.8419 22.5536 43.5852 22.8848 45.3286C22.8848 45.5553 23.1986 45.9039 23.373 45.9039C24.5062 45.9039 25.6394 45.9039 26.8597 45.9039C26.8694 45.7472 26.8694 45.59 26.8597 45.4332C26.8597 41.3886 26.8597 37.3614 26.8597 33.3168C26.8597 32.8112 26.6331 32.6717 26.2147 32.4974C25.0328 32.0199 24.0539 31.1462 23.4457 30.026C22.8375 28.9058 22.6379 27.609 22.8811 26.3578C23.1243 25.1066 23.7952 23.9789 24.7787 23.1681C25.7623 22.3574 26.9972 21.914 28.2718 21.914C29.5465 21.914 30.7814 22.3574 31.765 23.1681C32.7485 23.9789 33.4194 25.1066 33.6626 26.3578C33.9058 27.609 33.7062 28.9058 33.098 30.026C32.4898 31.1462 31.5109 32.0199 30.329 32.4974C30.1048 32.5659 29.9127 32.7128 29.7879 32.9113C29.663 33.1097 29.6138 33.3465 29.6491 33.5783C29.6491 37.3963 29.6491 41.2317 29.6491 45.0671C29.6491 45.3286 29.6491 45.5901 29.6491 45.8865L33.5543 45.9388ZM19.3458 41.6152C19.2352 39.4525 18.314 37.4109 16.7656 35.897C15.0009 34.0147 13.7375 31.7192 13.0917 29.2212C12.4459 26.7232 12.4383 24.103 13.0696 21.6013C13.9771 17.678 16.3582 14.2538 19.7202 12.0374C23.0821 9.82095 27.1676 8.98195 31.131 9.69403C35.1739 10.4833 38.7527 12.8108 41.1137 16.1863C43.4746 19.5618 44.4333 23.7219 43.7879 27.7903C43.2229 31.1795 41.621 34.3102 39.2028 36.7512C37.9418 38.0313 37.2236 39.7488 37.1979 41.5455C37.7384 41.2143 38.2265 40.9179 38.6972 40.6041C39.8479 39.8196 40.1268 39.8196 41.26 40.6912L42.8116 41.8419L44.9037 39.9416L43.7705 38.3551C43.0208 37.3614 43.0034 36.9779 43.7705 35.9318C45.2857 33.7133 46.3355 31.2105 46.8562 28.5748C47.1352 27.1452 47.3269 26.9883 48.7914 26.8314C49.217 26.8158 49.6389 26.7455 50.0466 26.6222C50.1866 26.5582 50.3108 26.4641 50.4102 26.3465C50.5097 26.229 50.582 26.091 50.6219 25.9423C50.7963 23.7456 50.7788 23.7456 48.5822 23.4318H48.3904C48.026 23.417 47.6792 23.2714 47.4134 23.0216C47.1477 22.7719 46.9808 22.4347 46.9434 22.072C46.432 19.1438 45.2703 16.3676 43.5438 13.9479C43.3165 13.6801 43.1918 13.3403 43.1918 12.989C43.1918 12.6378 43.3165 12.298 43.5438 12.0302L44.9037 10.2868L42.9685 8.2819L41.3297 9.58943C41.068 9.82225 40.7299 9.95087 40.3796 9.95087C40.0293 9.95087 39.6912 9.82225 39.4294 9.58943C37.0109 7.87927 34.2415 6.72982 31.3228 6.22472C30.9869 6.18914 30.674 6.0372 30.4384 5.79522C30.2028 5.55323 30.0593 5.23645 30.0327 4.89975C29.9281 4.16753 29.7886 3.43532 29.6665 2.73797H26.8771C26.7377 3.48762 26.5982 4.16753 26.511 4.84745C26.4987 5.19824 26.3561 5.53186 26.1112 5.78327C25.8662 6.03467 25.5364 6.18583 25.1861 6.20728C22.2289 6.60402 19.4371 7.80396 17.1142 9.6766C16.8683 9.8777 16.5603 9.98755 16.2426 9.98755C15.9248 9.98755 15.6169 9.8777 15.3709 9.6766L13.6275 8.35163L11.64 10.2345L12.9999 11.9779C13.2108 12.2193 13.327 12.529 13.327 12.8495C13.327 13.1701 13.2108 13.4798 12.9999 13.7212C11.2412 16.1399 10.1037 18.9537 9.68747 21.9151C9.64498 22.2466 9.49039 22.5535 9.24938 22.785C9.00836 23.0165 8.69542 23.1586 8.3625 23.1878C7.9785 23.2742 7.58764 23.3267 7.19444 23.3447C6.21815 23.3447 5.92178 23.7282 5.97408 24.7045C6.06125 26.291 5.97408 26.291 7.56055 26.5525L8.3625 26.6745C8.68776 26.7012 8.99477 26.8358 9.23482 27.0569C9.47486 27.278 9.63417 27.5729 9.68747 27.8949C10.1955 30.8157 11.3512 33.5857 13.0696 36.0016C13.2969 36.2694 13.4216 36.6092 13.4216 36.9604C13.4216 37.3117 13.2969 37.6515 13.0696 37.9193C12.6163 38.512 12.1805 39.1222 11.7795 39.6627L13.5752 41.8419L15.1442 40.5692C16.1903 39.7324 16.5738 39.7324 17.6198 40.5692C18.1428 40.8133 18.7007 41.162 19.3458 41.6152ZM28.1847 52.459H34.4085C34.6959 52.5024 34.989 52.4371 35.2308 52.2759C35.4726 52.1148 35.6456 51.8692 35.7161 51.5873C35.9601 50.5936 35.7161 49.3558 35.2279 49.0594C35.0699 48.981 34.8982 48.9337 34.7223 48.92C30.5034 48.92 26.2844 48.92 22.0654 48.92C21.6993 48.92 21.0717 49.1815 21.0194 49.4256C20.8543 50.2073 20.8543 51.0148 21.0194 51.7965C21.1937 52.5288 22.0131 52.4242 22.6407 52.4242L28.1847 52.459ZM28.3067 30.1613C29.0035 30.1613 29.6723 29.8869 30.1683 29.3975C30.6642 28.908 30.9475 28.2429 30.9566 27.5462C30.9021 26.8693 30.5947 26.2377 30.0956 25.7771C29.5965 25.3166 28.9423 25.0608 28.2631 25.0608C27.584 25.0608 26.9298 25.3166 26.4306 25.7771C25.9315 26.2377 25.6241 26.8693 25.5696 27.5462C25.5741 27.8987 25.6488 28.2468 25.7895 28.57C25.9301 28.8933 26.1339 29.1852 26.3888 29.4288C26.6437 29.6723 26.9446 29.8625 27.2739 29.9883C27.6033 30.1141 27.9544 30.1729 28.3067 30.1613ZM24.82 55.2833C24.82 56.208 25.1873 57.0949 25.8412 57.7488C26.4951 58.4027 27.382 58.77 28.3067 58.77C29.1871 58.7249 30.0137 58.3325 30.6052 57.6789C31.1967 57.0253 31.5049 56.1638 31.4622 55.2833H24.82Z" fill="white"/>
<path d="M16.0156 71.6184L24.4013 90.133C25.2785 89.8473 26.1989 89.7175 27.1209 89.7495C33.1181 91.4928 39.0979 93.1142 45.0254 94.9796C47.863 96.0101 50.991 95.8912 53.7423 94.6484C56.6188 93.306 59.6174 92.2251 62.5637 91.0396L81.5491 83.3687C82.0501 83.2337 82.517 82.9947 82.9195 82.6673C83.322 82.3399 83.651 81.9314 83.8852 81.4684C84.1693 80.9057 84.2732 80.2691 84.1828 79.6453C84.0923 79.0214 83.8119 78.4406 83.3796 77.9817C82.9341 77.4708 82.3388 77.1132 81.6785 76.9599C81.0181 76.8065 80.3262 76.8652 79.7011 77.1274C74.0526 79.08 68.4099 81.0675 62.7729 83.0898C62.592 83.1763 62.4316 83.3003 62.3023 83.4536C62.1731 83.6069 62.078 83.786 62.0233 83.9789C61.8211 84.8895 61.4111 85.7411 60.8253 86.467C60.2395 87.1929 59.4938 87.7735 58.6464 88.1634C57.799 88.5534 56.8729 88.7421 55.9405 88.7148C55.0081 88.6875 54.0947 88.4449 53.2715 88.0061L41.957 82.3576C40.6844 81.7125 39.3769 81.1023 38.1042 80.4224C37.9471 80.3512 37.8069 80.2476 37.6928 80.1183C37.5787 79.9889 37.4933 79.8369 37.4422 79.6722C37.3911 79.5074 37.3756 79.3338 37.3965 79.1626C37.4175 78.9914 37.4745 78.8266 37.5637 78.679C37.6344 78.5215 37.7381 78.3809 37.8679 78.267C37.9976 78.1531 38.1504 78.0684 38.3158 78.0188C38.4812 77.9692 38.6554 77.9558 38.8264 77.9794C38.9975 78.0031 39.1614 78.0633 39.3071 78.156L39.9347 78.4698C44.7929 80.9106 49.6686 83.3397 54.5616 85.7571C55.3703 86.18 56.3125 86.269 57.1861 86.0049C58.0596 85.7409 58.7948 85.145 59.2339 84.345C59.4111 83.9464 59.5065 83.5163 59.5144 83.0801C59.5223 82.644 59.4426 82.2107 59.2801 81.8059C59.1175 81.4011 58.8754 81.033 58.568 80.7235C58.2606 80.414 57.8942 80.1694 57.4905 80.004C50.4124 76.4475 43.3227 72.9085 36.2213 69.3869C34.6074 68.5665 32.7587 68.3324 30.9912 68.7244L23.8085 70.1365L16.0156 71.6184Z" fill="url(#paint1_linear_4_13107)"/>
<path d="M17.0962 67.9932C22.3263 66.9821 27.3472 66.0058 32.4204 64.9772C34.9249 64.4276 37.5423 64.7602 39.8298 65.9186L60.8375 76.3788C62.1814 77.037 63.2628 78.1308 63.9058 79.4821L73.9651 75.9953C76.4232 75.1411 78.864 74.2519 81.357 73.4325C82.2608 73.113 83.2301 73.0243 84.1768 73.1745C85.1236 73.3248 86.0178 73.7093 86.7782 74.293C87.5386 74.8767 88.1411 75.6412 88.5309 76.517C88.9208 77.3928 89.0856 78.3521 89.0104 79.3077C88.9757 80.4751 88.5822 81.6035 87.8835 82.5393C87.1848 83.4751 86.2147 84.1729 85.1052 84.5378L67.7935 91.5113C63.714 93.1676 59.5997 94.8063 55.5899 96.48C52.6979 97.5215 49.5262 97.4782 46.6638 96.3579C41.1024 94.6146 35.5062 93.0629 29.91 91.459C29.1717 91.3476 28.4239 91.3125 27.6785 91.3544L28.2712 92.6968C28.7768 93.8649 28.585 94.4402 27.4344 94.9458L20.025 98.2931L16.6603 99.6529C15.2482 100.281 14.7949 100.124 14.1673 98.7115C11.099 91.9472 8.03644 85.1945 4.97972 78.4535L1.26633 70.1724C0.708449 68.9346 0.90022 68.4291 2.13802 67.8712L12.9295 62.9897C14.1673 62.4318 14.6729 62.6236 15.2308 63.844C15.7886 65.0643 16.4337 66.5288 17.0962 67.9932ZM17.9504 70.5211L26.3186 89.0357C27.2129 88.7461 28.1512 88.6162 29.0906 88.6522C35.0704 90.3084 41.0501 92.0169 46.9951 93.8823C49.8318 94.9184 52.962 94.7995 55.7119 93.5511C58.6059 92.2087 61.6045 91.1278 64.5508 89.9423L83.5188 82.2715C84.0234 82.1396 84.4941 81.9021 84.8999 81.5744C85.3057 81.2468 85.6371 80.8367 85.8723 80.3712C86.1515 79.8073 86.2526 79.1718 86.1623 78.5491C86.072 77.9264 85.7946 77.3458 85.3667 76.8844C84.9212 76.3735 84.3259 76.016 83.6656 75.8626C83.0052 75.7093 82.3134 75.7679 81.6882 76.0302C76.0513 77.9711 70.4144 79.9411 64.7775 81.9402C64.5984 82.0294 64.4395 82.1542 64.3106 82.3072C64.1817 82.4601 64.0854 82.6378 64.0278 82.8293C63.8281 83.7473 63.4174 84.6062 62.8281 85.3379C62.2389 86.0696 61.4873 86.654 60.633 87.0448C59.7787 87.4356 58.8451 87.622 57.9062 87.5893C56.9673 87.5567 56.0489 87.3058 55.2238 86.8565L43.9267 81.2429C42.6366 80.5978 41.3465 79.9876 40.0739 79.3077C39.9168 79.2365 39.7765 79.1329 39.6624 79.0036C39.5483 78.8742 39.4629 78.7222 39.4119 78.5575C39.3608 78.3927 39.3452 78.2191 39.3662 78.0479C39.3871 77.8767 39.4441 77.7119 39.5334 77.5643C39.6017 77.4047 39.7042 77.262 39.8337 77.1464C39.9632 77.0307 40.1165 76.9449 40.2828 76.895C40.449 76.8451 40.6243 76.8324 40.796 76.8577C40.9678 76.8829 41.1319 76.9456 41.2768 77.0413L41.9044 77.3551L56.5313 84.6424C57.3417 85.0707 58.2882 85.1627 59.1658 84.8984C60.0435 84.6341 60.7818 84.0349 61.221 83.2303C61.3957 82.8314 61.4892 82.4016 61.4959 81.9661C61.5026 81.5306 61.4225 81.0982 61.2602 80.694C61.0979 80.2898 60.8566 79.9221 60.5506 79.6122C60.2445 79.3023 59.8798 79.0566 59.4776 78.8893C52.3995 75.3328 45.3156 71.7938 38.2259 68.2722C36.6115 67.4532 34.7633 67.2191 32.9958 67.6097L25.8131 69.0218L17.9504 70.5211ZM3.75936 70.0155C7.87372 79.0985 11.9184 88.0595 15.963 97.0727L25.1506 92.9235C21.0536 83.8754 17.009 74.897 12.9469 65.8663L3.75936 70.0155Z" fill="white"/>
</g>
<defs>
<linearGradient id="paint0_linear_4_13107" x1="54.5438" y1="50.4023" x2="86.8834" y2="50.4023" gradientUnits="userSpaceOnUse">
<stop stop-color="#C21500"/>
<stop offset="0.52" stop-color="#F37429"/>
<stop offset="1" stop-color="#FFD1B0"/>
</linearGradient>
<linearGradient id="paint1_linear_4_13107" x1="15.0643" y1="78.4472" x2="83.1851" y2="88.0452" gradientUnits="userSpaceOnUse">
<stop stop-color="#176AB4"/>
<stop offset="1" stop-color="#B1FFC7"/>
</linearGradient>
<clipPath id="clip0_4_13107">
<rect width="88.0579" height="100" fill="white" transform="translate(0.970703)"/>
</clipPath>
</defs>
</svg>
