<svg width="41" height="32" viewBox="0 0 41 32" fill="none" xmlns="http://www.w3.org/2000/svg">
<path d="M30.6973 21.6719H28.048C27.6043 21.6719 27.252 22.0308 27.252 22.468V24.0601C27.252 24.4973 27.6043 24.8562 28.048 24.8562H30.6973C31.1345 24.8562 31.4934 24.4973 31.4934 24.0601V22.468C31.4934 22.0308 31.1345 21.6719 30.6973 21.6719ZM28.309 22.7355H30.4298V23.7926H28.309V22.7355Z" fill="url(#paint0_linear_1025_40090)"/>
<path d="M30.6973 16.7969H28.048C27.6043 16.7969 27.252 17.1558 27.252 17.593V19.1851C27.252 19.6223 27.6043 19.9812 28.048 19.9812H30.6973C31.1345 19.9812 31.4934 19.6223 31.4934 19.1851V17.593C31.4934 17.1558 31.1345 16.7969 30.6973 16.7969ZM28.309 17.8605H30.4298V18.9176H28.309V17.8605Z" fill="url(#paint1_linear_1025_40090)"/>
<path d="M33.6794 4.49219V6.9718H36.159V9.78419H33.6794V12.2638H30.8605V9.78419H28.3809V6.9718H30.8605V4.49219H33.6794Z" fill="url(#paint2_linear_1025_40090)"/>
<path d="M33.1699 1.46912H25.8746V11.3419C25.8877 11.3941 25.9072 11.4463 25.9072 11.505V30.5327H36.55C36.0867 30.996 35.6038 31.4332 35.0883 31.8378H11.8779C11.3624 31.4332 10.8795 30.996 10.4162 30.5327C9.23513 29.3712 8.21066 28.0466 7.38195 26.598C6.87298 25.7236 6.43579 24.797 6.0769 23.8378C5.31996 21.815 4.90234 19.6225 4.90234 17.3321C4.90234 15.5376 5.15683 13.8019 5.6397 12.1575C5.75716 11.7138 5.90071 11.2831 6.06384 10.8525H24.5696V0.816591C24.5696 0.4577 24.8632 0.164062 25.2221 0.164062H30.5989L33.1699 1.46912Z" fill="url(#paint3_linear_1025_40090)"/>
<path d="M36.4987 21.6719H33.843C33.4058 21.6719 33.0469 22.0308 33.0469 22.468V24.0601C33.0469 24.4973 33.4058 24.8562 33.843 24.8562H36.4987C36.9359 24.8562 37.2883 24.4973 37.2883 24.0601V22.468C37.2883 22.0308 36.9359 21.6719 36.4987 21.6719ZM34.1105 22.7355H36.2312V23.7926H34.1105V22.7355Z" fill="url(#paint4_linear_1025_40090)"/>
<path d="M36.4987 16.7969H33.843C33.4058 16.7969 33.0469 17.1558 33.0469 17.593V19.1851C33.0469 19.6223 33.4058 19.9812 33.843 19.9812H36.4987C36.9359 19.9812 37.2883 19.6223 37.2883 19.1851V17.593C37.2883 17.1558 36.9359 16.7969 36.4987 16.7969ZM34.1105 17.8605H36.2312V18.9176H34.1105V17.8605Z" fill="url(#paint5_linear_1025_40090)"/>
<path d="M39.9691 8.76401V25.8929C39.5841 26.6433 39.1469 27.3611 38.6641 28.0397V6.61719L39.9691 8.76401Z" fill="url(#paint6_linear_1025_40090)"/>
<path d="M27.252 17.593H28.048V16.7969C27.6043 16.7969 27.252 17.1558 27.252 17.593ZM28.048 17.593V17.8605C28.1916 17.8605 28.309 17.743 28.309 17.593H28.048ZM30.4298 17.593C30.4298 17.743 30.5537 17.8605 30.6973 17.8605V17.593H30.4298ZM30.6973 16.7969V17.593H31.4934C31.4934 17.1558 31.1345 16.7969 30.6973 16.7969ZM30.4298 19.1851H30.6973V18.9176C30.5537 18.9176 30.4298 19.0416 30.4298 19.1851ZM30.6973 19.1851V19.9812C31.1345 19.9812 31.4934 19.6223 31.4934 19.1851H30.6973ZM27.252 19.1851C27.252 19.6223 27.6043 19.9812 28.048 19.9812V19.1851H27.252ZM28.048 18.9176V19.1851H28.309C28.309 19.0416 28.1916 18.9176 28.048 18.9176ZM27.252 17.593V19.1851H28.309V17.593H27.252ZM28.048 18.9176V19.9812H30.6973V18.9176H28.048ZM30.4298 17.593V19.1851H31.4934V17.593H30.4298ZM28.048 16.7969V17.8605H30.6973V16.7969H28.048Z" fill="#0C4578"/>
<path d="M27.252 22.468H28.048V21.6719C27.6043 21.6719 27.252 22.0308 27.252 22.468ZM28.048 22.468V22.7355C28.1916 22.7355 28.309 22.6115 28.309 22.468H28.048ZM30.4298 22.468C30.4298 22.6115 30.5537 22.7355 30.6973 22.7355V22.468H30.4298ZM30.6973 21.6719V22.468H31.4934C31.4934 22.0308 31.1345 21.6719 30.6973 21.6719ZM30.4298 24.0601H30.6973V23.7926C30.5537 23.7926 30.4298 23.91 30.4298 24.0601ZM30.6973 24.0601V24.8562C31.1345 24.8562 31.4934 24.4973 31.4934 24.0601H30.6973ZM27.252 24.0601C27.252 24.4973 27.6043 24.8562 28.048 24.8562V24.0601H27.252ZM28.048 23.7926V24.0601H28.309C28.309 23.91 28.1916 23.7926 28.048 23.7926ZM27.252 22.468V24.0601H28.309V22.468H27.252ZM28.048 23.7926V24.8562H30.6973V23.7926H28.048ZM30.4298 22.468V24.0601H31.4934V22.468H30.4298ZM28.048 21.6719V22.7355H30.6973V21.6719H28.048Z" fill="#0C4578"/>
<path d="M33.0469 17.593H33.843V16.7969C33.4058 16.7969 33.0469 17.1558 33.0469 17.593ZM33.843 17.593V17.8605C33.993 17.8605 34.1105 17.743 34.1105 17.593H33.843ZM36.2312 17.593C36.2312 17.743 36.3487 17.8605 36.4987 17.8605V17.593H36.2312ZM36.4987 16.7969V17.593H37.2883C37.2883 17.1558 36.9359 16.7969 36.4987 16.7969ZM36.2312 19.1851H36.4987V18.9176C36.3487 18.9176 36.2312 19.0416 36.2312 19.1851ZM36.4987 19.1851V19.9812C36.9359 19.9812 37.2883 19.6223 37.2883 19.1851H36.4987ZM33.0469 19.1851C33.0469 19.6223 33.4058 19.9812 33.843 19.9812V19.1851H33.0469ZM33.843 18.9176V19.1851H34.1105C34.1105 19.0416 33.993 18.9176 33.843 18.9176ZM33.0469 17.593V19.1851H34.1105V17.593H33.0469ZM36.2312 17.593V19.1851H37.2883V17.593H36.2312ZM33.843 16.7969V17.8605H36.4987V16.7969H33.843ZM33.843 18.9176V19.9812H36.4987V18.9176H33.843Z" fill="#0C4578"/>
<path d="M33.0469 22.468H33.843V21.6719C33.4058 21.6719 33.0469 22.0308 33.0469 22.468ZM33.843 22.468V22.7355C33.993 22.7355 34.1105 22.6115 34.1105 22.468H33.843ZM36.2312 22.468C36.2312 22.6115 36.3487 22.7355 36.4987 22.7355V22.468H36.2312ZM36.4987 21.6719V22.468H37.2883C37.2883 22.0308 36.9359 21.6719 36.4987 21.6719ZM36.2312 24.0601H36.4987V23.7926C36.3487 23.7926 36.2312 23.91 36.2312 24.0601ZM36.4987 24.0601V24.8562C36.9359 24.8562 37.2883 24.4973 37.2883 24.0601H36.4987ZM33.0469 24.0601C33.0469 24.4973 33.4058 24.8562 33.843 24.8562V24.0601H33.0469ZM33.843 23.7926V24.0601H34.1105C34.1105 23.91 33.993 23.7926 33.843 23.7926ZM33.0469 22.468V24.0601H34.1105V22.468H33.0469ZM33.843 23.7926V24.8562H36.4987V23.7926H33.843ZM36.2312 22.468V24.0601H37.2883V22.468H36.2312ZM33.843 21.6719V22.7355H36.4987V21.6719H33.843Z" fill="#0C4578"/>
<path d="M36.159 6.9718V9.78419H33.6794V12.2638H30.8605V9.78419H28.3809V6.9718H30.8605V4.49219H33.6794V6.9718H36.159Z" fill="url(#paint7_linear_1025_40090)"/>
<path d="M39.3171 0.164062H25.2224C24.8635 0.164062 24.5699 0.4577 24.5699 0.816591V10.8525H1.68573C1.32684 10.8525 1.0332 11.1461 1.0332 11.505V31.1853C1.0332 31.5442 1.32684 31.8378 1.68573 31.8378H39.3171C39.6759 31.8378 39.9696 31.5442 39.9696 31.1853V0.816591C39.9696 0.4577 39.6759 0.164062 39.3171 0.164062ZM12.9027 30.5327H7.38231V21.8802H12.9027V30.5327ZM19.565 30.5327H14.2078V21.8802H19.565V30.5327ZM24.5699 30.5327H20.8701V21.2277C20.8701 20.8688 20.5764 20.5752 20.2175 20.5752H6.72978C6.37089 20.5752 6.07725 20.8688 6.07725 21.2277V30.5327H2.33826V12.1575H24.5699V30.5327ZM38.6645 30.5327H25.9076V11.505C25.9076 11.4463 25.888 11.3941 25.875 11.3419V1.46912H38.6645V30.5327Z" fill="#0C4578"/>
<defs>
<linearGradient id="paint0_linear_1025_40090" x1="27.252" y1="23.264" x2="31.4934" y2="23.264" gradientUnits="userSpaceOnUse">
<stop stop-color="#176AB4"/>
<stop offset="1" stop-color="#B1FFC7"/>
</linearGradient>
<linearGradient id="paint1_linear_1025_40090" x1="0.870224" y1="18.389" x2="1.52275" y2="18.389" gradientUnits="userSpaceOnUse">
<stop stop-color="#176AB4"/>
<stop offset="1" stop-color="#B1FFC7"/>
</linearGradient>
<linearGradient id="paint2_linear_1025_40090" x1="28.3809" y1="8.38126" x2="36.159" y2="8.38126" gradientUnits="userSpaceOnUse">
<stop stop-color="#176AB4"/>
<stop offset="1" stop-color="#B1FFC7"/>
</linearGradient>
<linearGradient id="paint3_linear_1025_40090" x1="4.90234" y1="16.0009" x2="36.55" y2="16.0009" gradientUnits="userSpaceOnUse">
<stop stop-color="#176AB4"/>
<stop offset="1" stop-color="#B1FFC7"/>
</linearGradient>
<linearGradient id="paint4_linear_1025_40090" x1="33.0469" y1="0.00139707" x2="37.2883" y2="0.00139707" gradientUnits="userSpaceOnUse">
<stop stop-color="#176AB4"/>
<stop offset="1" stop-color="#B1FFC7"/>
</linearGradient>
<linearGradient id="paint5_linear_1025_40090" x1="33.0469" y1="18.389" x2="37.2883" y2="18.389" gradientUnits="userSpaceOnUse">
<stop stop-color="#176AB4"/>
<stop offset="1" stop-color="#B1FFC7"/>
</linearGradient>
<linearGradient id="paint6_linear_1025_40090" x1="38.6641" y1="17.3317" x2="39.9691" y2="17.3317" gradientUnits="userSpaceOnUse">
<stop stop-color="#176AB4"/>
<stop offset="1" stop-color="#B1FFC7"/>
</linearGradient>
<linearGradient id="paint7_linear_1025_40090" x1="28.3809" y1="8.38126" x2="36.159" y2="8.38126" gradientUnits="userSpaceOnUse">
<stop stop-color="#C21500"/>
<stop offset="0.52" stop-color="#F37429"/>
<stop offset="1" stop-color="#FFD1B0"/>
</linearGradient>
</defs>
</svg>
