<svg width="55" height="55" viewBox="0 0 55 55" fill="none" xmlns="http://www.w3.org/2000/svg">
<circle cx="27.5" cy="27.5" r="27.5" fill="white"/>
<g clip-path="url(#clip0_619_15277)">
<path d="M54.1817 26.5218V33.9604C53.5962 34.5895 52.9731 35.1825 52.3159 35.7362H49.6072L48.1179 38.404C47.0457 38.9143 45.9278 39.3225 44.7791 39.6233C44.239 39.7624 43.6989 39.8851 43.1424 39.9752C42.0138 40.1801 40.8689 40.2815 39.7218 40.2779C38.8211 40.2778 37.9215 40.2149 37.0295 40.0897C36.473 40.0161 35.9329 39.9179 35.3928 39.7951C34.7024 39.6466 34.0219 39.4552 33.3552 39.2223C32.7986 39.0359 32.2523 38.8201 31.7185 38.5758C30.751 38.1615 29.8202 37.666 28.9362 37.0946C28.478 36.8 28.0279 36.4809 27.5942 36.1372C26.6503 35.4009 25.7765 34.5791 24.9837 33.6822C24.9837 33.5185 24.9837 33.3467 24.9837 33.1748C24.9748 30.0106 26.0361 26.9363 27.9951 24.4514H24.64V33.2158L24.4272 32.9539C23.9104 32.3165 23.4348 31.6469 23.0033 30.949C21.3682 28.357 20.3673 25.416 20.0819 22.3647C20.0246 21.7755 20 21.1863 20 20.5889C19.9943 17.9751 20.5147 15.3869 21.5303 12.9784L25.5238 11.6282V6.88187C25.5358 6.85478 25.5558 6.83196 25.5811 6.81641H34.1817V10.9081L39.3699 13.985L44.3454 10.3025L49.82 16.0717L46.6367 19.656L49.0917 25.9735L54.1817 26.5218Z" fill="url(#paint0_linear_619_15277)"/>
<path d="M24.6381 30.6875V35.5975C24.4902 34.7875 24.4162 33.9658 24.4171 33.1425C24.413 33.0771 24.413 33.0115 24.4171 32.9461C24.4203 32.188 24.4942 31.4318 24.6381 30.6875Z" fill="url(#paint1_linear_619_15277)"/>
<path d="M42.4468 30.498C42.4468 30.2034 42.4468 29.9088 42.4468 29.6142C42.4893 27.9609 42.2004 26.3159 41.5971 24.776C40.9938 23.2362 40.0883 21.8327 38.934 20.6484C37.7797 19.464 36.3999 18.5227 34.8761 17.88C33.3523 17.2374 31.7152 16.9062 30.0614 16.9062C28.4076 16.9062 26.7705 17.2374 25.2467 17.88C23.7229 18.5227 22.3431 19.464 21.1888 20.6484C20.0345 21.8327 19.129 23.2362 18.5257 24.776C17.9224 26.3159 17.6335 27.9609 17.676 29.6142C17.676 29.876 17.676 30.1379 17.676 30.3916" stroke="#0C4578" stroke-width="1.3" stroke-miterlimit="10"/>
<path d="M44.7803 34.9669V43.4612C44.7803 43.6782 44.6941 43.8864 44.5406 44.0399C44.3872 44.1933 44.179 44.2795 43.962 44.2795H30.3695L30.0913 44.0586C29.5676 43.6248 29.0778 43.1515 28.6265 42.6429C28.471 42.471 28.3155 42.291 28.1682 42.111L27.9145 41.7673C27.5203 41.2485 27.1647 40.7015 26.8507 40.1306C25.7173 38.1473 25.0879 35.9163 25.0176 33.6331C25.0176 33.4694 25.0176 33.2975 25.0176 33.1257C25.0087 29.9614 26.07 26.8872 28.0291 24.4023C28.4781 23.8129 28.9793 23.2651 29.5266 22.7656H36.2615C36.4785 22.7656 36.6867 22.8518 36.8401 23.0053C36.9936 23.1588 37.0798 23.3669 37.0798 23.584V31.0389L44.2811 34.2141C44.4291 34.2767 44.5553 34.3815 44.644 34.5154C44.7328 34.6493 44.7802 34.8063 44.7803 34.9669Z" fill="url(#paint2_linear_619_15277)"/>
<path d="M29.5078 26.832H27.2246V29.1152H29.5078V26.832Z" fill="#0C4578"/>
<path d="M33.0605 26.832H30.7773V29.1152H33.0605V26.832Z" fill="#0C4578"/>
<path d="M29.4687 30.1953H27.1855V32.4785H29.4687V30.1953Z" fill="#0C4578"/>
<path d="M33.0214 30.1953H30.7383V32.4785H33.0214V30.1953Z" fill="#0C4578"/>
<path d="M30.0897 34.9414C29.2216 34.9414 28.389 35.2863 27.7751 35.9001C27.1613 36.514 26.8164 37.3466 26.8164 38.2147V43.2393C26.8164 43.4563 26.9026 43.6645 27.0561 43.8179C27.2096 43.9714 27.4177 44.0576 27.6347 44.0576H32.5447C32.7063 44.0568 32.864 44.0082 32.998 43.9179C33.1319 43.8276 33.2362 43.6997 33.2976 43.5502V43.493C33.31 43.4089 33.31 43.3234 33.2976 43.2393V38.2147C33.2978 37.3578 32.9619 36.535 32.3621 35.923C31.7623 35.311 30.9465 34.9585 30.0897 34.9414ZM31.7264 42.4209H28.4531V38.2147C28.4634 37.7927 28.6364 37.3911 28.9359 37.0936C29.2414 36.7863 29.6564 36.6126 30.0897 36.6108C30.5238 36.6108 30.9401 36.7832 31.247 37.0902C31.554 37.3971 31.7264 37.8134 31.7264 38.2475V42.4209Z" fill="#0C4578"/>
<path d="M44.2793 34.213L37.0289 31.0378V23.6074C37.0289 23.3904 36.9427 23.1822 36.7892 23.0287C36.6357 22.8753 36.4276 22.7891 36.2105 22.7891H23.821C23.604 22.7891 23.3958 22.8753 23.2424 23.0287C23.0889 23.1822 23.0027 23.3904 23.0027 23.6074V31.1197L18.6737 33.0018L18.1091 33.2473L15.8914 34.2211C15.745 34.285 15.6205 34.3903 15.5333 34.5241C15.446 34.6579 15.3998 34.8143 15.4004 34.974V43.4601C15.4004 43.6771 15.4866 43.8853 15.6401 44.0387C15.7935 44.1922 16.0017 44.2784 16.2187 44.2784H43.9601C44.1772 44.2784 44.3853 44.1922 44.5388 44.0387C44.6922 43.8853 44.7785 43.6771 44.7785 43.4601V34.9658C44.7783 34.8052 44.7309 34.6481 44.6422 34.5143C44.5534 34.3804 44.4272 34.2756 44.2793 34.213ZM23.0027 42.6418H17.0371V35.4977L19.492 34.4094L22.3071 33.1737L22.929 32.9036L23.0027 42.6418ZM35.4331 42.6418H24.6393V24.4257H35.3922L35.4331 42.6418ZM43.1827 42.6418H37.0289V32.8218L43.1418 35.4896L43.1827 42.6418Z" fill="#0C4578"/>
<path d="M53.2815 47.5215L47.4959 43.4299C47.3766 43.3446 47.2366 43.293 47.0905 43.2804C46.9444 43.2678 46.7976 43.2947 46.6654 43.3582C46.5333 43.4218 46.4206 43.5197 46.3393 43.6417C46.2579 43.7637 46.2108 43.9054 46.203 44.0518L46.0966 45.8767L7.3732 45.9994C7.15617 45.9994 6.94802 46.0857 6.79455 46.2391C6.64109 46.3926 6.55487 46.6007 6.55487 46.8178V49.862C6.55487 50.079 6.64109 50.2871 6.79455 50.4406C6.94802 50.5941 7.15617 50.6803 7.3732 50.6803H46.0966L46.1948 52.0551C46.2093 52.262 46.3019 52.4558 46.4538 52.5971C46.6058 52.7383 46.8057 52.8166 47.0131 52.8161C47.1736 52.8149 47.3301 52.7665 47.4632 52.677L53.2815 48.8718C53.3918 48.7992 53.483 48.701 53.5471 48.5856C53.6112 48.4702 53.6464 48.3409 53.6498 48.2089C53.6505 48.0728 53.6171 47.9386 53.5528 47.8186C53.4885 47.6985 53.3953 47.5964 53.2815 47.5215ZM47.7333 50.5494L47.6842 49.8129C47.6696 49.6059 47.5771 49.4122 47.4251 49.2709C47.2732 49.1296 47.0733 49.0513 46.8658 49.0518H8.19972V47.6361L46.8577 47.4888C47.0747 47.4888 47.2828 47.4026 47.4363 47.2491C47.5898 47.0957 47.676 46.8875 47.676 46.6705L47.7414 45.5575L51.3503 48.1271L47.7333 50.5494Z" fill="#0C4578"/>
<path d="M47.9133 38.764L48.1179 38.404L49.6072 35.7362H52.3159H54.1817V33.9604V26.5218L49.1081 25.9735L46.6203 19.656L49.8036 16.0717L44.329 10.3025L39.3536 13.985L34.1817 10.8999V6.81641H25.581H25.5238V6.88187V11.5955L21.5303 12.9457L18.7562 13.8868L15.4174 11.5955L10.0982 16.8737L13.2815 20.1552L9.89365 26.7264H5.81836V35.7362L10.0982 35.7771L12.3814 38.764" stroke="#0C4578" stroke-width="1.3" stroke-linejoin="round"/>
</g>
<defs>
<linearGradient id="paint0_linear_619_15277" x1="20" y1="23.5513" x2="54.1817" y2="23.5513" gradientUnits="userSpaceOnUse">
<stop stop-color="#176AB4"/>
<stop offset="1" stop-color="#B1FFC7"/>
</linearGradient>
<linearGradient id="paint1_linear_619_15277" x1="24.3762" y1="33.1507" x2="24.5972" y2="33.1507" gradientUnits="userSpaceOnUse">
<stop stop-color="#176AB4"/>
<stop offset="1" stop-color="#B1FFC7"/>
</linearGradient>
<linearGradient id="paint2_linear_619_15277" x1="24.9685" y1="33.5349" x2="44.7803" y2="33.5349" gradientUnits="userSpaceOnUse">
<stop stop-color="#C21500"/>
<stop offset="0.52" stop-color="#F37429"/>
<stop offset="1" stop-color="#FFD1B0"/>
</linearGradient>
<clipPath id="clip0_619_15277">
<rect width="50" height="46.8249" fill="white" transform="translate(5 6)"/>
</clipPath>
</defs>
</svg>
