<svg width="55" height="55" viewBox="0 0 55 55" fill="none" xmlns="http://www.w3.org/2000/svg">
<circle cx="27.5" cy="27.5" r="27.5" fill="white"/>
<g clip-path="url(#clip0_619_15294)">
<path d="M48.1693 18.7888H39.5107V12.8237C39.5112 12.6593 39.4621 12.4985 39.3698 12.362C39.2775 12.2254 39.1462 12.1194 38.9927 12.0575C38.8927 12.0381 38.7898 12.0381 38.6898 12.0575H21.0989C20.6982 12.5813 20.3268 13.1341 19.975 13.6967C18.5014 16.0847 17.564 18.7601 17.2267 21.5403C16.8894 24.3205 17.1601 27.1403 18.0205 29.8072C18.2061 30.3601 18.4114 30.913 18.6361 31.4561H21.8709V36.5483C22.4137 37.1254 22.9879 37.6726 23.5909 38.1875H37.3216L41.2307 41.815C41.3808 41.9574 41.5801 42.0372 41.7877 42.0381C41.9983 42.0377 42.2009 41.958 42.3545 41.815L46.2636 38.1875H48.14C48.3586 38.1875 48.5684 38.1019 48.7239 37.9494C48.8795 37.7969 48.9681 37.5897 48.9707 37.3727V19.5842C48.9634 19.3755 48.8766 19.1774 48.7279 19.0298C48.5791 18.8822 48.3795 18.7961 48.1693 18.7888ZM20.1411 21.4173C20.1373 21.0041 20.2572 20.599 20.4857 20.2535C20.7142 19.9081 21.041 19.6378 21.4246 19.4769C21.8081 19.3161 22.2312 19.2721 22.6401 19.3503C23.0489 19.4286 23.4251 19.6256 23.7209 19.9165C24.0168 20.2073 24.2188 20.5789 24.3015 20.9839C24.3842 21.389 24.3437 21.8092 24.1853 22.1914C24.0268 22.5736 23.7575 22.9004 23.4116 23.1304C23.0657 23.3605 22.6587 23.4833 22.2423 23.4833C21.6884 23.4833 21.1569 23.2663 20.7634 22.8794C20.3699 22.4925 20.1463 21.967 20.1411 21.4173ZM29.1223 21.4173C29.1184 21.0037 29.2386 20.5982 29.4675 20.2525C29.6965 19.9068 30.0238 19.6365 30.408 19.476C30.7921 19.3155 31.2157 19.272 31.6248 19.351C32.0339 19.4301 32.4101 19.6281 32.7056 19.9199C33.001 20.2118 33.2023 20.5842 33.2838 20.9899C33.3654 21.3956 33.3235 21.8162 33.1636 22.1982C33.0037 22.5802 32.7329 22.9063 32.3856 23.1352C32.0384 23.364 31.6304 23.4852 31.2136 23.4833C30.6607 23.4833 30.1302 23.2659 29.7383 22.8788C29.3463 22.4916 29.1249 21.9661 29.1223 21.4173Z" fill="url(#paint0_linear_619_15294)"/>
<path d="M48.1693 18.7888H39.5107V12.8237C39.5112 12.6593 39.4621 12.4985 39.3698 12.362C39.2775 12.2254 39.1462 12.1194 38.9927 12.0575C38.8927 12.0381 38.7898 12.0381 38.6898 12.0575H6.83068C6.62016 12.057 6.4173 12.1358 6.26309 12.278C6.10889 12.4203 6.01486 12.6153 6 12.8237V30.5638C5.9987 30.6729 6.01923 30.7811 6.0604 30.8823C6.10157 30.9834 6.16255 31.0755 6.23982 31.153C6.31708 31.2306 6.40909 31.2922 6.51052 31.3343C6.61194 31.3763 6.72076 31.3979 6.83068 31.3979H8.59954L12.5086 36.6938C12.5859 36.7987 12.6876 36.8834 12.805 36.9409C12.9224 36.9983 13.0521 37.0267 13.183 37.0235C13.3082 37.0202 13.4309 36.9877 13.5412 36.9288C13.6516 36.8698 13.7464 36.786 13.8182 36.6841L17.7273 31.3979H21.9002V37.3339C21.9028 37.5492 21.9901 37.755 22.1435 37.9072C22.2969 38.0595 22.5042 38.1461 22.7211 38.1487H37.2825L41.1916 41.7762C41.3417 41.9186 41.541 41.9984 41.7486 41.9993C41.9592 41.9989 42.1618 41.9192 42.3154 41.7762L46.2245 38.1487H48.1009C48.3195 38.1487 48.5294 38.0631 48.6849 37.9106C48.8404 37.7581 48.929 37.5509 48.9316 37.3339V19.5842C48.9251 19.3818 48.8438 19.189 48.7032 19.0423C48.5626 18.8956 48.3726 18.8054 48.1693 18.7888ZM19.027 29.749H17.3461C17.2173 29.7498 17.0904 29.7799 16.9751 29.8371C16.8599 29.8943 16.7595 29.977 16.6816 30.0788L13.183 34.8121L9.68431 30.0788C9.60803 29.9753 9.50792 29.8913 9.39232 29.834C9.27673 29.7766 9.149 29.7475 9.01977 29.749H7.65159V13.6385H37.8591V29.749H19.027ZM47.368 36.5386H45.9704C45.764 36.5358 45.5645 36.6123 45.4134 36.752L41.8073 40.0691L38.25 36.7326C38.0953 36.5912 37.8934 36.5117 37.6832 36.5095H23.5909V31.3979H38.6898C38.9084 31.3954 39.1172 31.3074 39.2708 31.1531C39.4245 30.9987 39.5107 30.7905 39.5107 30.5735V20.4086H47.3289L47.368 36.5386Z" fill="#0C4578"/>
<path d="M13.0274 18.4414C12.4475 18.4414 11.8807 18.6121 11.3986 18.9318C10.9164 19.2515 10.5407 19.706 10.3188 20.2377C10.0969 20.7694 10.0388 21.3544 10.1519 21.9189C10.265 22.4833 10.5443 23.0018 10.9543 23.4087C11.3643 23.8157 11.8867 24.0928 12.4554 24.2051C13.0241 24.3174 13.6136 24.2597 14.1494 24.0395C14.6851 23.8193 15.143 23.4463 15.4651 22.9678C15.7873 22.4893 15.9592 21.9267 15.9592 21.3512C15.9592 20.9691 15.8834 20.5907 15.736 20.2377C15.5887 19.8846 15.3728 19.5639 15.1005 19.2937C14.8283 19.0235 14.5051 18.8091 14.1494 18.6629C13.7937 18.5167 13.4124 18.4414 13.0274 18.4414ZM13.0274 22.6024C12.7761 22.6024 12.5305 22.5285 12.3216 22.3899C12.1126 22.2514 11.9498 22.0544 11.8537 21.824C11.7575 21.5936 11.7323 21.3401 11.7814 21.0955C11.8304 20.8509 11.9514 20.6262 12.1291 20.4499C12.3067 20.2736 12.5331 20.1535 12.7795 20.1048C13.026 20.0562 13.2814 20.0811 13.5136 20.1766C13.7457 20.272 13.9441 20.4336 14.0837 20.641C14.2233 20.8483 14.2979 21.0921 14.2979 21.3415C14.2979 21.6759 14.164 21.9966 13.9257 22.2331C13.6875 22.4696 13.3643 22.6024 13.0274 22.6024Z" fill="#0C4578"/>
<path d="M22.1739 18.4414C21.5941 18.4414 21.0273 18.6121 20.5451 18.9318C20.063 19.2515 19.6872 19.706 19.4653 20.2377C19.2434 20.7694 19.1853 21.3544 19.2985 21.9189C19.4116 22.4833 19.6908 23.0018 20.1008 23.4087C20.5109 23.8157 21.0333 24.0928 21.602 24.2051C22.1707 24.3174 22.7602 24.2597 23.2959 24.0395C23.8316 23.8193 24.2895 23.4463 24.6117 22.9678C24.9338 22.4893 25.1058 21.9267 25.1058 21.3512C25.1058 20.9691 25.0299 20.5907 24.8826 20.2377C24.7353 19.8846 24.5193 19.5639 24.2471 19.2937C23.9748 19.0235 23.6516 18.8091 23.2959 18.6629C22.9402 18.5167 22.559 18.4414 22.1739 18.4414ZM22.1739 22.6024C21.9227 22.6024 21.677 22.5285 21.4681 22.3899C21.2592 22.2514 21.0964 22.0544 21.0002 21.824C20.904 21.5936 20.8789 21.3401 20.9279 21.0955C20.9769 20.8509 21.0979 20.6262 21.2756 20.4499C21.4533 20.2736 21.6796 20.1535 21.9261 20.1048C22.1725 20.0562 22.428 20.0811 22.6601 20.1766C22.8923 20.272 23.0907 20.4336 23.2303 20.641C23.3699 20.8483 23.4444 21.0921 23.4444 21.3415C23.4444 21.6759 23.3105 21.9966 23.0723 22.2331C22.834 22.4696 22.5109 22.6024 22.1739 22.6024Z" fill="#0C4578"/>
<path d="M31.3224 18.4414C30.7425 18.4414 30.1757 18.6121 29.6936 18.9318C29.2114 19.2515 28.8356 19.706 28.6137 20.2377C28.3918 20.7694 28.3338 21.3544 28.4469 21.9189C28.56 22.4833 28.8393 23.0018 29.2493 23.4087C29.6593 23.8157 30.1817 24.0928 30.7504 24.2051C31.3191 24.3174 31.9086 24.2597 32.4443 24.0395C32.9801 23.8193 33.4379 23.4463 33.7601 22.9678C34.0823 22.4893 34.2542 21.9267 34.2542 21.3512C34.2542 20.9691 34.1784 20.5907 34.031 20.2377C33.8837 19.8846 33.6677 19.5639 33.3955 19.2937C33.1232 19.0235 32.8 18.8091 32.4443 18.6629C32.0886 18.5167 31.7074 18.4414 31.3224 18.4414ZM31.3224 22.6024C31.0711 22.6024 30.8255 22.5285 30.6166 22.3899C30.4076 22.2514 30.2448 22.0544 30.1486 21.824C30.0525 21.5936 30.0273 21.3401 30.0763 21.0955C30.1254 20.8509 30.2464 20.6262 30.424 20.4499C30.6017 20.2736 30.8281 20.1535 31.0745 20.1048C31.321 20.0562 31.5764 20.0811 31.8086 20.1766C32.0407 20.272 32.2391 20.4336 32.3787 20.641C32.5183 20.8483 32.5928 21.0921 32.5928 21.3415C32.5928 21.6759 32.459 21.9966 32.2207 22.2331C31.9825 22.4696 31.6593 22.6024 31.3224 22.6024Z" fill="#0C4578"/>
<path d="M13.0261 22.5999C13.7278 22.5999 14.2966 22.0354 14.2966 21.339C14.2966 20.6427 13.7278 20.0781 13.0261 20.0781C12.3245 20.0781 11.7557 20.6427 11.7557 21.339C11.7557 22.0354 12.3245 22.5999 13.0261 22.5999Z" fill="url(#paint1_linear_619_15294)"/>
<path d="M22.1748 22.5999C22.8765 22.5999 23.4453 22.0354 23.4453 21.339C23.4453 20.6427 22.8765 20.0781 22.1748 20.0781C21.4732 20.0781 20.9044 20.6427 20.9044 21.339C20.9044 22.0354 21.4732 22.5999 22.1748 22.5999Z" fill="url(#paint2_linear_619_15294)"/>
<path d="M31.3212 22.5999C32.0228 22.5999 32.5916 22.0354 32.5916 21.339C32.5916 20.6427 32.0228 20.0781 31.3212 20.0781C30.6195 20.0781 30.0507 20.6427 30.0507 21.339C30.0507 22.0354 30.6195 22.5999 31.3212 22.5999Z" fill="url(#paint3_linear_619_15294)"/>
</g>
<defs>
<linearGradient id="paint0_linear_619_15294" x1="17.1409" y1="26.9944" x2="49" y2="26.9944" gradientUnits="userSpaceOnUse">
<stop stop-color="#176AB4"/>
<stop offset="1" stop-color="#B1FFC7"/>
</linearGradient>
<linearGradient id="paint1_linear_619_15294" x1="11.7557" y1="21.339" x2="14.2966" y2="21.339" gradientUnits="userSpaceOnUse">
<stop stop-color="#C21500"/>
<stop offset="0.52" stop-color="#F37429"/>
<stop offset="1" stop-color="#FFD1B0"/>
</linearGradient>
<linearGradient id="paint2_linear_619_15294" x1="20.9044" y1="21.339" x2="23.4453" y2="21.339" gradientUnits="userSpaceOnUse">
<stop stop-color="#C21500"/>
<stop offset="0.52" stop-color="#F37429"/>
<stop offset="1" stop-color="#FFD1B0"/>
</linearGradient>
<linearGradient id="paint3_linear_619_15294" x1="30.0507" y1="21.339" x2="32.5916" y2="21.339" gradientUnits="userSpaceOnUse">
<stop stop-color="#C21500"/>
<stop offset="0.52" stop-color="#F37429"/>
<stop offset="1" stop-color="#FFD1B0"/>
</linearGradient>
<clipPath id="clip0_619_15294">
<rect width="43" height="30" fill="white" transform="translate(6 12)"/>
</clipPath>
</defs>
</svg>
