<svg width="55" height="55" viewBox="0 0 55 55" fill="none" xmlns="http://www.w3.org/2000/svg">
<circle cx="27.5" cy="27.5" r="27.5" fill="white"/>
<path d="M40.6319 45.5426L39.748 47.8157L39.0692 49.5442C38.8783 49.5295 38.6886 49.5032 38.5009 49.4653L37.7906 48.2498C37.2618 48.5103 36.7172 48.7549 36.1647 48.968C35.3589 48.7573 34.5679 48.4936 33.7969 48.1788C34.9177 47.8556 36.0084 47.4357 37.0566 46.9238L35.8016 44.8086L38.2168 45.1717L40.6319 45.5426Z" fill="url(#paint0_linear_619_15242)"/>
<path d="M50.7895 27.4137C50.7914 30.8151 50.0442 34.1753 48.601 37.2554C47.1578 40.3355 45.054 43.06 42.439 45.2354L41.484 44.0593C44.6203 41.4435 46.9537 37.9948 48.2153 34.1106C49.4769 30.2263 49.6154 26.0647 48.6148 22.1052C47.6142 18.1456 45.5153 14.5494 42.5598 11.7309C39.6043 8.91234 35.9126 6.9862 31.9102 6.17441C32.6488 5.79402 33.4076 5.45413 34.1833 5.15625C38.9786 6.58383 43.1851 9.52114 46.1771 13.5313C49.1691 17.5415 50.7867 22.4103 50.7895 27.4137Z" fill="url(#paint1_linear_619_15242)"/>
<path d="M38.7612 47.7763C38.4455 47.9499 38.1219 48.1236 37.7904 48.2814C37.2616 48.5419 36.717 48.7866 36.1645 48.9997C33.2903 50.187 30.2067 50.7843 27.097 50.756C23.9873 50.7277 20.915 50.0744 18.0629 48.835C15.2107 47.5956 12.6369 45.7953 10.4944 43.5412C8.35196 41.2871 6.68462 38.6253 5.59152 35.7139C4.49843 32.8025 4.00191 29.701 4.13147 26.5939C4.26103 23.4868 5.01404 20.4374 6.34572 17.6272C7.6774 14.8169 9.56056 12.3031 11.8832 10.2352C14.2059 8.16727 16.9207 6.58752 19.8661 5.58984L20.3792 7.02631C15.5924 8.75312 11.566 12.1092 9.00509 16.5065C6.44421 20.9038 5.51225 26.062 6.37247 31.0774C7.23268 36.0928 9.83022 40.6456 13.71 43.9383C17.5899 47.2309 22.5045 49.0534 27.5931 49.0865C29.6837 49.0865 31.7631 48.7807 33.7652 48.1788C34.886 47.8557 35.9767 47.4358 37.0248 46.9239C37.3642 46.766 37.6957 46.5924 38.0272 46.4109L38.7612 47.7763Z" fill="#0C4578"/>
<path d="M50.7878 27.4152C50.7897 30.8167 50.0425 34.1769 48.5993 37.257C47.1561 40.3371 45.0523 43.0616 42.4373 45.2369L41.4823 44.0609C44.6186 41.4451 46.952 37.9964 48.2136 34.1121C49.4753 30.2279 49.6138 26.0662 48.6132 22.1067C47.6125 18.1472 45.5136 14.551 42.5581 11.7325C39.6027 8.91392 35.911 6.98777 31.9085 6.17598C30.4947 5.8936 29.0566 5.75085 27.6149 5.74978C26.7092 5.75884 25.805 5.82474 24.9077 5.94709L24.2447 6.04181L24 4.5343C24.1894 4.5343 24.3788 4.47116 24.5762 4.45538C25.5802 4.31475 26.5931 4.24617 27.607 4.25017C33.7509 4.25434 39.6422 6.69578 43.9881 11.0387C48.334 15.3816 50.7795 21.2713 50.7878 27.4152Z" fill="#0C4578"/>
<path d="M40.6311 45.5426L39.7471 47.8157L39.0684 49.5442L38.8553 50.0888L38.5001 49.4653L37.7897 48.2498L37.332 47.4526L37.0241 46.9238L35.8008 44.8086L38.2159 45.1717L40.6311 45.5426Z" fill="#0C4578"/>
<path d="M20.9629 5.80428L23.1571 6.87769L25.3433 7.95899L24.6882 4.97555L24.0331 2L22.502 3.90214L20.9629 5.80428Z" fill="#0C4578"/>
<path d="M23.5903 28.0469H25.1689V31.4249H24.1823C23.7737 30.5085 23.5639 29.5159 23.5666 28.5125C23.5667 28.357 23.5746 28.2016 23.5903 28.0469Z" fill="url(#paint2_linear_619_15242)"/>
<path d="M28.8867 25.4961H26.3848V31.4156H28.8867V25.4961Z" fill="url(#paint3_linear_619_15242)"/>
<path d="M32.496 21.4933V31.4144H30.002V21.3828H31.9278C32.1192 21.4082 32.309 21.4451 32.496 21.4933Z" fill="url(#paint4_linear_619_15242)"/>
<path d="M25.1873 27.6758H22.6932C22.5969 27.6758 22.5046 27.714 22.4365 27.7821C22.3684 27.8502 22.3302 27.9426 22.3302 28.0388V31.4169C22.3291 31.4653 22.3377 31.5133 22.3555 31.5583C22.3733 31.6032 22.3999 31.6442 22.4337 31.6788C22.4675 31.7133 22.5079 31.7408 22.5524 31.7595C22.597 31.7782 22.6449 31.7879 22.6932 31.7879H25.1873C25.2857 31.7879 25.3801 31.7488 25.4496 31.6792C25.5192 31.6097 25.5583 31.5153 25.5583 31.4169V28.0467C25.5583 27.9484 25.5192 27.854 25.4496 27.7844C25.3801 27.7149 25.2857 27.6758 25.1873 27.6758ZM24.8243 31.0539H23.0563V28.4098H24.8243V31.0539Z" fill="#0C4578"/>
<path d="M28.8551 25.1329H26.3847C26.337 25.1329 26.2898 25.1423 26.2457 25.1605C26.2017 25.1788 26.1616 25.2055 26.1279 25.2392C26.0942 25.273 26.0675 25.313 26.0492 25.357C26.031 25.4011 26.0216 25.4483 26.0216 25.496V31.4155C26.0216 31.5125 26.0596 31.6057 26.1274 31.675C26.1953 31.7444 26.2876 31.7844 26.3847 31.7864H28.8551C28.9535 31.7864 29.0478 31.7474 29.1174 31.6778C29.1869 31.6082 29.226 31.5139 29.226 31.4155V25.496C29.226 25.4476 29.2164 25.3997 29.1977 25.3552C29.1789 25.3106 29.1515 25.2702 29.1169 25.2364C29.0824 25.2026 29.0414 25.176 28.9964 25.1582C28.9515 25.1405 28.9034 25.1318 28.8551 25.1329ZM28.492 31.0524H26.7556V25.859H28.5236L28.492 31.0524Z" fill="#0C4578"/>
<path d="M32.494 21.0117H29.9999C29.9015 21.0117 29.8071 21.0508 29.7376 21.1204C29.668 21.1899 29.6289 21.2843 29.6289 21.3827V31.4143C29.6289 31.5127 29.668 31.607 29.7376 31.6766C29.8071 31.7462 29.9015 31.7852 29.9999 31.7852H32.494C32.5423 31.7853 32.5902 31.7756 32.6347 31.7569C32.6793 31.7381 32.7197 31.7107 32.7535 31.6761C32.7873 31.6416 32.8139 31.6006 32.8317 31.5557C32.8495 31.5107 32.8581 31.4626 32.857 31.4143V21.3827C32.8581 21.3343 32.8495 21.2863 32.8317 21.2413C32.8139 21.1963 32.7873 21.1554 32.7535 21.1208C32.7197 21.0863 32.6793 21.0588 32.6347 21.0401C32.5902 21.0214 32.5423 21.0117 32.494 21.0117ZM32.1309 31.0512H30.3629V21.73H32.1309V31.0512Z" fill="#0C4578"/>
<path d="M45.7388 24.7779V30.1528L42.858 30.6106L40.5849 35.6382L42.858 38.7953L38.6749 42.9074L36.0861 40.6185L31.1531 42.9074L31.2242 46.3644H30.9164C28.2347 45.5438 25.7785 44.1155 23.7388 42.1908C21.6992 40.2661 20.131 37.8969 19.1562 35.2673C20.5661 36.8762 22.4127 38.0414 24.4718 38.6212C26.531 39.2011 28.7142 39.1707 30.7564 38.5339C32.7987 37.897 34.6122 36.681 35.9768 35.0335C37.3413 33.386 38.1983 31.3778 38.4438 29.2527C38.6892 27.1276 38.3124 24.9769 37.3592 23.0617C36.4061 21.1466 34.9175 19.5493 33.0741 18.4637C31.2308 17.3782 29.1119 16.851 26.9748 16.9463C24.8377 17.0416 22.7742 17.7552 21.0347 19.0004C23.3224 15.5109 26.7424 12.9159 30.719 11.6523V12.4416L35.2495 15.0304L38.4065 12.339L42.274 16.1354L40.1903 19.1267L42.274 24.7779H45.7388Z" fill="url(#paint5_linear_619_15242)"/>
<path d="M45.8389 23.697H42.9186L41.1428 18.9062L43.0133 16.2463C43.1096 16.0981 43.1534 15.9219 43.1377 15.7459C43.1219 15.5699 43.0476 15.4043 42.9265 15.2755L39.1143 11.4712C38.9828 11.3341 38.8031 11.2534 38.6132 11.2461C38.4233 11.2387 38.238 11.3053 38.0962 11.4318L35.318 13.7996L31.6321 11.6922V9.32443C31.6321 9.1151 31.5489 8.91434 31.4009 8.76633C31.2529 8.61831 31.0521 8.53516 30.8428 8.53516H24.7418C24.5324 8.53516 24.3317 8.61831 24.1837 8.76633C24.0356 8.91434 23.9525 9.1151 23.9525 9.32443V12.0316L19.3353 13.8469L17.291 11.7238C17.1473 11.577 16.9519 11.492 16.7465 11.487C16.644 11.4854 16.5425 11.5057 16.4485 11.5465C16.3546 11.5873 16.2705 11.6478 16.2019 11.7238L11.9082 16.0806C11.789 16.2087 11.7158 16.3729 11.7001 16.5472C11.6844 16.7215 11.7271 16.8961 11.8214 17.0435L13.8577 19.9717L11.7109 23.697H9.42992C9.2206 23.697 9.01984 23.7802 8.87183 23.9282C8.72381 24.0762 8.64065 24.277 8.64065 24.4863V30.5952C8.63902 30.7879 8.70795 30.9746 8.83444 31.12C8.96093 31.2654 9.13624 31.3595 9.32732 31.3845L12.5475 31.6923L13.8735 35.7807L11.8924 37.9118C11.7659 38.0558 11.6961 38.241 11.6961 38.4327C11.6961 38.6244 11.7659 38.8096 11.8924 38.9536L15.9177 43.1131C16.0496 43.2407 16.2218 43.3184 16.4047 43.3328C16.5876 43.3472 16.7699 43.2974 16.9201 43.192L19.6273 41.1399L23.7552 43.2157L23.8499 45.8992C23.863 46.0909 23.9456 46.2712 24.0822 46.4063C24.2188 46.5414 24.4 46.6221 24.5918 46.6332L31.3164 46.791C31.5141 46.7862 31.7028 46.7074 31.8452 46.5701C31.991 46.423 32.0732 46.2246 32.0741 46.0176L32.0109 43.042L36.0441 41.1715L38.2619 43.1367C38.4054 43.2611 38.589 43.3296 38.7789 43.3296C38.9688 43.3296 39.1524 43.2611 39.2959 43.1367L43.479 39.0246C43.6027 38.8938 43.678 38.7247 43.6923 38.5453C43.7067 38.3658 43.6593 38.1868 43.5579 38.0381L41.5453 35.2756L43.4711 31.0214L45.9415 30.6268C46.1161 30.5932 46.2741 30.5017 46.3902 30.367C46.5062 30.2324 46.5734 30.0625 46.5808 29.8849V24.4547C46.5733 24.2588 46.4932 24.0728 46.3561 23.9327C46.2189 23.7927 46.0346 23.7086 45.8389 23.697ZM45.0497 29.2219L42.816 29.5771C42.6938 29.5996 42.5787 29.6506 42.4799 29.7261C42.3812 29.8015 42.3016 29.8992 42.2477 30.0112L39.9983 34.9915C39.9354 35.117 39.9095 35.2578 39.9235 35.3975C39.9374 35.5373 39.9908 35.6701 40.0773 35.7807L41.9636 38.3695L38.7513 41.5266L36.6913 39.7113C36.5829 39.6219 36.4526 39.5631 36.3138 39.5409C36.1751 39.5187 36.0329 39.5339 35.902 39.585L30.9375 41.8581C30.8074 41.9237 30.6979 42.0241 30.6213 42.148C30.5447 42.272 30.5039 42.4148 30.5034 42.5606L30.5666 45.2599L25.3495 45.1336L25.2627 42.7184C25.2554 42.5824 25.213 42.4506 25.1397 42.3358C25.0664 42.221 24.9647 42.1271 24.8444 42.0633L19.8877 39.5771C19.7616 39.5183 19.6222 39.4939 19.4835 39.5064C19.3449 39.5189 19.2121 39.5678 19.0985 39.6482L16.557 41.574L13.4947 38.4169L15.3258 36.4122C15.4136 36.3124 15.4749 36.1922 15.5038 36.0625C15.5328 35.9328 15.5286 35.7979 15.4915 35.6702L13.913 30.69C13.8648 30.549 13.7777 30.4245 13.6618 30.3309C13.5459 30.2373 13.4059 30.1785 13.2579 30.1611L10.2271 29.877V25.2124H12.145C12.2772 25.2092 12.4065 25.1728 12.5209 25.1066C12.6354 25.0404 12.7314 24.9465 12.8001 24.8336L15.4363 20.3111C15.5055 20.1911 15.542 20.055 15.542 19.9164C15.542 19.7779 15.5055 19.6418 15.4363 19.5218L13.4789 16.712L16.7938 13.3102L18.5933 15.2124C18.6905 15.3199 18.817 15.3967 18.9573 15.4332C19.0975 15.4696 19.2454 15.4642 19.3826 15.4176L24.9549 13.2313C25.0927 13.1731 25.2111 13.0769 25.2964 12.9539C25.3816 12.8309 25.4301 12.6863 25.4363 12.5368V10.0663H30.022V12.1263C30.026 12.2593 30.0636 12.389 30.1312 12.5035C30.1988 12.6181 30.2943 12.7137 30.4087 12.7814L34.9312 15.3702C35.0677 15.4438 35.2228 15.4755 35.3772 15.4615C35.5316 15.4475 35.6784 15.3883 35.7994 15.2913L38.5066 13.0498L41.4111 15.9385L39.6747 18.401C39.6078 18.5023 39.5652 18.6177 39.5501 18.7382C39.5351 18.8586 39.548 18.9809 39.5879 19.0956L41.6874 24.7546C41.7443 24.8978 41.8419 25.0212 41.9681 25.1095C42.0944 25.1979 42.2437 25.2474 42.3977 25.2519H45.0812L45.0497 29.2219Z" fill="#0C4578"/>
<path d="M27.6398 15.8203C25.2983 15.8203 23.0093 16.5147 21.0624 17.8156C19.1155 19.1164 17.598 20.9654 16.702 23.1287C15.8059 25.2921 15.5715 27.6725 16.0283 29.969C16.4851 32.2656 17.6126 34.3751 19.2684 36.0308C20.9241 37.6865 23.0336 38.8141 25.3301 39.2709C27.6267 39.7277 30.0071 39.4933 32.1704 38.5972C34.3337 37.7011 36.1827 36.1837 37.4836 34.2368C38.7845 32.2899 39.4789 30.0009 39.4789 27.6594C39.4789 24.5194 38.2315 21.5081 36.0113 19.2879C33.791 17.0676 30.7797 15.8203 27.6398 15.8203ZM27.6398 37.983C25.598 37.983 23.602 37.3775 21.9043 36.2432C20.2066 35.1088 18.8834 33.4964 18.102 31.61C17.3207 29.7236 17.1162 27.6479 17.5146 25.6453C17.9129 23.6427 18.8961 21.8032 20.3399 20.3594C21.7837 18.9156 23.6232 17.9324 25.6258 17.5341C27.6284 17.1357 29.7041 17.3402 31.5905 18.1216C33.4769 18.9029 35.0893 20.2261 36.2236 21.9238C37.358 23.6216 37.9635 25.6175 37.9635 27.6594C37.9614 30.3967 36.873 33.0214 34.9374 34.957C33.0018 36.8926 30.3772 37.9809 27.6398 37.983Z" fill="#0C4578"/>
<defs>
<linearGradient id="paint0_linear_619_15242" x1="33.7653" y1="47.1764" x2="40.6319" y2="47.1764" gradientUnits="userSpaceOnUse">
<stop stop-color="#176AB4"/>
<stop offset="1" stop-color="#B1FFC7"/>
</linearGradient>
<linearGradient id="paint1_linear_619_15242" x1="31.8865" y1="25.2037" x2="50.7895" y2="25.2037" gradientUnits="userSpaceOnUse">
<stop stop-color="#176AB4"/>
<stop offset="1" stop-color="#B1FFC7"/>
</linearGradient>
<linearGradient id="paint2_linear_619_15242" x1="23.5666" y1="29.728" x2="25.1847" y2="29.728" gradientUnits="userSpaceOnUse">
<stop stop-color="#C21500"/>
<stop offset="0.52" stop-color="#F37429"/>
<stop offset="1" stop-color="#FFD1B0"/>
</linearGradient>
<linearGradient id="paint3_linear_619_15242" x1="26.3848" y1="28.4559" x2="28.8867" y2="28.4559" gradientUnits="userSpaceOnUse">
<stop stop-color="#C21500"/>
<stop offset="0.52" stop-color="#F37429"/>
<stop offset="1" stop-color="#FFD1B0"/>
</linearGradient>
<linearGradient id="paint4_linear_619_15242" x1="30.002" y1="26.4026" x2="32.496" y2="26.4026" gradientUnits="userSpaceOnUse">
<stop stop-color="#C21500"/>
<stop offset="0.52" stop-color="#F37429"/>
<stop offset="1" stop-color="#FFD1B0"/>
</linearGradient>
<linearGradient id="paint5_linear_619_15242" x1="19.172" y1="29.0084" x2="45.7388" y2="29.0084" gradientUnits="userSpaceOnUse">
<stop stop-color="#176AB4"/>
<stop offset="1" stop-color="#B1FFC7"/>
</linearGradient>
</defs>
</svg>
