<svg width="55" height="55" viewBox="0 0 55 55" fill="none" xmlns="http://www.w3.org/2000/svg">
<circle cx="27.5" cy="27.5" r="27.5" fill="white"/>
<g clip-path="url(#clip0_619_15262)">
<path d="M29.3183 27.0664C27.4535 27.0664 25.9373 28.2602 25.9373 29.7416V34.9176C25.9592 35.0934 26.0488 35.2537 26.1872 35.3644C26.3255 35.4751 26.5016 35.5274 26.678 35.5101H31.9498C32.1262 35.5274 32.3023 35.4751 32.4406 35.3644C32.579 35.2537 32.6687 35.0934 32.6905 34.9176V29.7416C32.6557 28.2602 31.1743 27.0664 29.3183 27.0664ZM31.2092 34.3337H27.4274V29.7416C27.4883 29.2944 27.7204 28.8883 28.0747 28.6088C28.429 28.3292 28.8779 28.198 29.327 28.2428C29.7746 28.2004 30.2214 28.3327 30.5738 28.612C30.9261 28.8913 31.1569 29.296 31.2179 29.7416L31.2092 34.3337Z" fill="#0C4578"/>
<path d="M29.3186 20.793C28.7675 20.7947 28.2292 20.9597 27.7718 21.2671C27.3144 21.5746 26.9583 22.0107 26.7486 22.5203C26.5389 23.03 26.4849 23.5904 26.5935 24.1307C26.7021 24.671 26.9683 25.1671 27.3587 25.5562C27.749 25.9453 28.2458 26.21 28.7865 26.3169C29.3272 26.4238 29.8874 26.368 30.3964 26.1567C30.9054 25.9454 31.3404 25.588 31.6464 25.1297C31.9524 24.6713 32.1157 24.1325 32.1157 23.5814C32.1134 22.8411 31.8177 22.1318 31.2934 21.6091C30.7691 21.0865 30.0589 20.793 29.3186 20.793ZM29.3186 25.0105C29.0359 25.0105 28.7596 24.9267 28.5246 24.7696C28.2896 24.6126 28.1065 24.3894 27.9983 24.1283C27.8901 23.8671 27.8618 23.5798 27.917 23.3026C27.9721 23.0254 28.1082 22.7708 28.3081 22.5709C28.5079 22.371 28.7626 22.2349 29.0398 22.1798C29.317 22.1246 29.6043 22.1529 29.8655 22.2611C30.1266 22.3693 30.3498 22.5524 30.5068 22.7874C30.6638 23.0225 30.7476 23.2988 30.7476 23.5814C30.7488 23.7694 30.7126 23.9557 30.6412 24.1296C30.5698 24.3035 30.4646 24.4615 30.3317 24.5945C30.1987 24.7274 30.0407 24.8326 29.8668 24.904C29.6929 24.9754 29.5066 25.0116 29.3186 25.0105Z" fill="#0C4578"/>
<path d="M33.8159 48.3627L31.4196 50.698L31.986 54.0005L29.215 52.5453C29.0743 51.863 29.0042 51.1681 29.0059 50.4714C29.0057 49.1011 29.2782 47.7444 29.8076 46.4805L30.5047 47.8921L33.8159 48.3627Z" fill="url(#paint0_linear_619_15262)"/>
<path d="M45.9363 47.2034L42.6948 48.0312L41.5358 51.1682L39.7495 48.3362L36.4121 48.2055L38.547 45.6349L37.6408 42.4195L40.7429 43.6568L43.5313 41.8008L43.3135 45.1382L45.9363 47.2034Z" fill="url(#paint1_linear_619_15262)"/>
<path d="M14.4695 41.8008L17.2492 43.6568L20.36 42.4195L19.4538 45.6349L21.5887 48.2054L18.2513 48.3449L16.4649 51.1682L15.306 48.0312L12.0645 47.2121L14.6873 45.1382L14.4695 41.8008Z" stroke="#0C4578" stroke-linejoin="round"/>
<path d="M31.4185 50.6988L31.9849 54.0014L29.2139 52.5462V52.5375L29.0222 52.4416L26.0682 54.0014L26.6259 50.6988L24.2383 48.3635L27.5408 47.8843L29.0222 44.8867L29.8064 46.4726L30.5035 47.8843L33.8148 48.3635L31.4185 50.6988Z" stroke="#0C4578" stroke-linejoin="round"/>
<path d="M45.9363 47.2034L42.6948 48.0312L41.5358 51.1682L39.7495 48.3362L36.4121 48.2054L38.547 45.6349L37.6408 42.4195L40.7429 43.6568L43.5313 41.8008L43.3135 45.1382L45.9363 47.2034Z" stroke="#0C4578" stroke-linejoin="round"/>
<path d="M47.747 20.5554V26.0364L44.854 26.4983L42.5013 31.6133L44.854 34.7938L40.593 38.9852L37.9788 36.6586L32.9509 38.9852L33.0468 42.5491H32.6547C29.921 41.7113 27.418 40.2529 25.3411 38.2878C23.2642 36.3228 21.6696 33.9043 20.6818 31.2212C22.1179 32.869 24.002 34.0638 26.1047 34.6604C28.2075 35.257 30.4384 35.2295 32.5258 34.5814C34.6133 33.9333 36.4674 32.6924 37.8625 31.0098C39.2576 29.3272 40.1336 27.2753 40.3839 25.104C40.6341 22.9326 40.2479 20.7352 39.2722 18.7794C38.2965 16.8235 36.7733 15.1933 34.888 14.0873C33.0028 12.9812 30.8367 12.447 28.6533 12.5495C26.47 12.6521 24.3635 13.387 22.5902 14.6649C24.9229 11.1092 28.4095 8.46583 32.4629 7.17969V7.97265L37.0813 10.5868L40.3141 7.84194L44.2353 11.737L42.1004 14.7782L44.2353 20.5554H47.747Z" fill="url(#paint2_linear_619_15262)"/>
<path d="M47.8529 19.4583H44.8554L43.1126 14.5786L44.9773 11.8425C45.0723 11.6921 45.1121 11.5134 45.0898 11.337C45.0676 11.1605 44.9847 10.9973 44.8554 10.8752L40.9341 6.98013C40.7922 6.84783 40.6053 6.77426 40.4113 6.77426C40.2172 6.77426 40.0304 6.84783 39.8885 6.98013L37.1 9.34158L33.3444 7.18926V4.77553C33.3455 4.6741 33.3265 4.57345 33.2885 4.47941C33.2505 4.38536 33.1942 4.2998 33.1229 4.22767C33.0516 4.15554 32.9666 4.09827 32.873 4.05919C32.7794 4.02011 32.679 3.99999 32.5776 4H26.3646C26.1619 4.00226 25.9682 4.08378 25.8249 4.2271C25.6816 4.37042 25.6 4.56415 25.5978 4.76682V7.52039L20.8923 9.36772L18.7748 7.20669C18.703 7.13127 18.6164 7.07146 18.5205 7.03098C18.4245 6.9905 18.3213 6.97023 18.2172 6.97142C18.1145 6.96517 18.0117 6.98232 17.9166 7.02157C17.8215 7.06081 17.7366 7.12113 17.6682 7.19798L13.3113 11.703C13.1751 11.8307 13.0896 12.0032 13.0704 12.1889C13.0512 12.3746 13.0996 12.561 13.2067 12.7138L15.2806 15.694L13.0934 19.4583H10.7755C10.6741 19.4572 10.5735 19.4762 10.4794 19.5142C10.3854 19.5522 10.2998 19.6085 10.2277 19.6798C10.1555 19.7512 10.0983 19.8361 10.0592 19.9297C10.0201 20.0233 10 20.1237 10 20.2252V26.4556C9.99921 26.6474 10.0704 26.8326 10.1994 26.9745C10.3285 27.1165 10.5061 27.2049 10.6971 27.2224L13.9822 27.5274L15.3242 31.6926L13.2764 33.9407C13.1416 34.0832 13.0664 34.2718 13.0664 34.4679C13.0664 34.664 13.1416 34.8527 13.2764 34.9951L17.3806 39.2388C17.5121 39.3733 17.6881 39.4554 17.8756 39.4698C18.0632 39.4842 18.2496 39.43 18.4001 39.3172L21.1537 37.2259L25.3625 39.3433L25.4584 42.0708C25.4649 42.2674 25.5459 42.4543 25.6851 42.5934C25.8242 42.7326 26.0111 42.8136 26.2077 42.8201L33.0655 42.9857C33.2681 42.9828 33.4617 42.9016 33.6058 42.7591C33.6816 42.6862 33.741 42.598 33.7801 42.5004C33.8192 42.4027 33.837 42.2978 33.8323 42.1927L33.7626 39.1429L37.8843 37.2346L40.1412 39.23C40.2836 39.3649 40.4722 39.44 40.6684 39.44C40.8645 39.44 41.0531 39.3649 41.1955 39.23L45.4566 35.0387C45.5911 34.9112 45.6743 34.7388 45.6903 34.5542C45.7064 34.3695 45.6542 34.1854 45.5437 34.0366L43.4873 31.222L45.4479 26.8651L47.9662 26.4643C48.1471 26.4355 48.312 26.3435 48.4316 26.2048C48.5513 26.066 48.6179 25.8894 48.6197 25.7062V20.2252C48.6197 20.1245 48.5999 20.0248 48.5614 19.9317C48.5228 19.8387 48.4663 19.7541 48.3951 19.6829C48.3239 19.6117 48.2394 19.5553 48.1464 19.5167C48.0533 19.4782 47.9536 19.4583 47.8529 19.4583ZM47.0861 25.0439L44.8031 25.4099C44.678 25.4275 44.5595 25.4767 44.4589 25.553C44.3582 25.6292 44.2787 25.73 44.228 25.8456L41.9014 30.9606C41.8465 31.0857 41.825 31.2228 41.8387 31.3587C41.8524 31.4945 41.901 31.6246 41.9798 31.7361L43.9143 34.3503L40.6379 37.5744L38.5378 35.7184C38.422 35.6122 38.2767 35.5436 38.1211 35.5218C37.9655 35.5 37.8069 35.526 37.6664 35.5964L32.656 37.984C32.5187 38.0479 32.4028 38.1502 32.3224 38.2786C32.242 38.4069 32.2005 38.5558 32.2029 38.7072L32.2726 41.4521L26.9571 41.3301L26.8961 38.8553C26.8906 38.7169 26.8481 38.5824 26.773 38.466C26.6979 38.3495 26.593 38.2553 26.4692 38.1931L21.4238 35.6312C21.2953 35.5659 21.1508 35.5385 21.0072 35.5524C20.8637 35.5663 20.7271 35.6209 20.6135 35.7097L17.9993 37.6703L14.8885 34.4461L16.7445 32.4158C16.837 32.3155 16.9017 32.1929 16.9323 32.0599C16.9628 31.927 16.9582 31.7883 16.9188 31.6577L15.298 26.5776C15.2523 26.4336 15.165 26.3063 15.0472 26.2117C14.9294 26.1172 14.7862 26.0595 14.6358 26.046L11.5424 25.7846V21.0007H13.5378C13.6732 21.0004 13.806 20.9639 13.9224 20.8949C14.0389 20.826 14.1347 20.7271 14.2001 20.6086L16.8665 16.0077C16.9437 15.8834 16.9846 15.74 16.9846 15.5938C16.9846 15.4475 16.9437 15.3041 16.8665 15.1799L14.8362 12.3217L18.2172 8.83618L20.1081 10.8142C20.2162 10.9316 20.3583 11.0123 20.5145 11.0451C20.6707 11.0779 20.8332 11.0612 20.9794 10.9972L26.6521 8.76647C26.7939 8.7099 26.9158 8.61275 27.0026 8.4872C27.0894 8.36164 27.1373 8.21326 27.1401 8.06065V5.54235H31.7846V7.64238C31.7849 7.77772 31.8214 7.91051 31.8904 8.02697C31.9593 8.14343 32.0582 8.2393 32.1767 8.30464L36.7863 10.9188C36.9219 10.9974 37.0784 11.032 37.2345 11.018C37.3905 11.0039 37.5384 10.9419 37.6577 10.8404L40.359 8.54862L43.313 11.4852L41.5702 13.9948C41.4976 14.0972 41.4509 14.2158 41.4342 14.3402C41.4175 14.4647 41.4313 14.5913 41.4744 14.7093L43.618 20.4692C43.6718 20.6176 43.7702 20.7458 43.8996 20.8363C44.0291 20.9268 44.1833 20.975 44.3412 20.9746H47.0774L47.0861 25.0439Z" fill="#0C4578"/>
<path d="M29.3189 11.4336C26.9333 11.4319 24.6007 12.1377 22.6163 13.4618C20.632 14.7859 19.0848 16.6688 18.1707 18.8724C17.2566 21.0759 17.0165 23.501 17.4809 25.841C17.9452 28.181 19.0931 30.3306 20.7794 32.0181C22.4657 33.7056 24.6145 34.8551 26.9542 35.3211C29.2938 35.7872 31.7191 35.5489 33.9233 34.6363C36.1275 33.7238 38.0115 32.178 39.337 30.1946C40.6626 28.2112 41.3701 25.8792 41.3701 23.4935C41.3655 20.298 40.0946 17.2345 37.8358 14.974C35.577 12.7136 32.5144 11.4405 29.3189 11.4336ZM29.3189 34.0111C27.2383 34.0129 25.204 33.3975 23.4732 32.2428C21.7425 31.0882 20.393 29.4462 19.5957 27.5245C18.7983 25.6028 18.5887 23.4878 18.9936 21.447C19.3984 19.4062 20.3994 17.5314 21.87 16.0596C23.3406 14.5878 25.2146 13.5852 27.2551 13.1787C29.2955 12.7722 31.4107 12.9799 33.333 13.7757C35.2554 14.5715 36.8985 15.9196 38.0546 17.6494C39.2107 19.3792 39.8278 21.413 39.8278 23.4935C39.8255 26.2808 38.7178 28.9533 36.7478 30.925C34.7777 32.8967 32.1061 34.0065 29.3189 34.0111Z" fill="#0C4578"/>
</g>
<defs>
<linearGradient id="paint0_linear_619_15262" x1="29.0059" y1="50.2361" x2="33.8159" y2="50.2361" gradientUnits="userSpaceOnUse">
<stop stop-color="#C21500"/>
<stop offset="0.52" stop-color="#F37429"/>
<stop offset="1" stop-color="#FFD1B0"/>
</linearGradient>
<linearGradient id="paint1_linear_619_15262" x1="36.4121" y1="46.4888" x2="45.9363" y2="46.4888" gradientUnits="userSpaceOnUse">
<stop stop-color="#C21500"/>
<stop offset="0.52" stop-color="#F37429"/>
<stop offset="1" stop-color="#FFD1B0"/>
</linearGradient>
<linearGradient id="paint2_linear_619_15262" x1="20.6906" y1="24.8601" x2="47.747" y2="24.8601" gradientUnits="userSpaceOnUse">
<stop stop-color="#176AB4"/>
<stop offset="1" stop-color="#B1FFC7"/>
</linearGradient>
<clipPath id="clip0_619_15262">
<rect width="37.9668" height="50" fill="white" transform="translate(10 4)"/>
</clipPath>
</defs>
</svg>
