<svg width="55" height="55" viewBox="0 0 55 55" fill="none" xmlns="http://www.w3.org/2000/svg">
<circle cx="27.5" cy="27.5" r="27.5" fill="white"/>
<g clip-path="url(#clip0_619_15307)">
<mask id="mask0_619_15307" style="mask-type:luminance" maskUnits="userSpaceOnUse" x="18" y="23" width="20" height="11">
<path d="M37.3344 23.3698V33.0901H33.0287C33.0261 33.1784 32.9892 33.2623 32.9257 33.3238C32.8623 33.3854 32.7774 33.4198 32.689 33.4198H21.3104C21.222 33.4198 21.1371 33.3854 21.0737 33.3238C21.0103 33.2623 20.9733 33.1784 20.9707 33.0901H19.6021C18.9347 31.8492 18.5076 30.4935 18.3434 29.0941C18.3434 28.7844 18.2834 28.4647 18.2734 28.155C18.2734 28.0351 18.2734 27.9153 18.2734 27.7954C18.2734 27.6755 18.2734 27.5856 18.2734 27.4857C18.2734 27.176 18.2734 26.8563 18.3434 26.5566C18.4133 26.2569 18.3933 26.0971 18.4333 25.8673C18.4732 25.6375 18.5631 25.2379 18.6431 24.9283C18.7921 24.3863 18.979 23.8555 19.2025 23.3398H21.3104V29.204L22.0796 28.8643L22.3094 28.7644L24.0776 27.9952V24.9782C24.0776 24.8898 24.112 24.8049 24.1736 24.7415C24.2351 24.6781 24.319 24.6411 24.4073 24.6385H29.5122C29.6005 24.6411 29.6844 24.6781 29.7459 24.7415C29.8075 24.8049 29.8419 24.8898 29.8419 24.9782V27.9752L32.689 29.214V23.3698H37.3344Z" fill="white"/>
</mask>
<g mask="url(#mask0_619_15307)">
<path d="M18.3636 23.3711H18.2637V33.431H18.3636V23.3711Z" fill="#C21500"/>
<path d="M18.4731 23.3711H18.3732V33.431H18.4731V23.3711Z" fill="#C31600"/>
<path d="M18.5726 23.3711H18.4727V33.431H18.5726V23.3711Z" fill="#C31701"/>
<path d="M18.6839 23.3711H18.584V33.431H18.6839V23.3711Z" fill="#C41801"/>
<path d="M18.7835 23.3711H18.6836V33.431H18.7835V23.3711Z" fill="#C41902"/>
<path d="M18.893 23.3711H18.7931V33.431H18.893V23.3711Z" fill="#C51A02"/>
<path d="M18.9944 23.3711H18.8945V33.431H18.9944V23.3711Z" fill="#C51B03"/>
<path d="M19.0921 23.3711H18.9922V33.431H19.0921V23.3711Z" fill="#C61C03"/>
<path d="M19.2034 23.3711H19.1035V33.431H19.2034V23.3711Z" fill="#C61D03"/>
<path d="M19.3011 23.3711H19.2012V33.431H19.3011V23.3711Z" fill="#C71E04"/>
<path d="M19.4104 23.3711H19.3105V33.431H19.4104V23.3711Z" fill="#C71F04"/>
<path d="M19.5118 23.3711H19.4119V33.431H19.5118V23.3711Z" fill="#C82005"/>
<path d="M19.6213 23.3711H19.5214V33.431H19.6213V23.3711Z" fill="#C82105"/>
<path d="M19.7229 23.3711H19.623V33.431H19.7229V23.3711Z" fill="#C92206"/>
<path d="M19.8225 23.3711H19.7226V33.431H19.8225V23.3711Z" fill="#C92306"/>
<path d="M19.932 23.3711H19.8321V33.431H19.932V23.3711Z" fill="#CA2407"/>
<path d="M20.0335 23.3711H19.9336V33.431H20.0335V23.3711Z" fill="#CA2507"/>
<path d="M20.1409 23.3711H20.041V33.431H20.1409V23.3711Z" fill="#CB2607"/>
<path d="M20.2427 23.3711H20.1428V33.431H20.2427V23.3711Z" fill="#CB2708"/>
<path d="M20.3519 23.3711H20.252V33.431H20.3519V23.3711Z" fill="#CC2808"/>
<path d="M20.4534 23.3711H20.3535V33.431H20.4534V23.3711Z" fill="#CC2909"/>
<path d="M20.5511 23.3711H20.4512V33.431H20.5511V23.3711Z" fill="#CD2A09"/>
<path d="M20.6604 23.3711H20.5605V33.431H20.6604V23.3711Z" fill="#CD2B0A"/>
<path d="M20.7601 23.3711H20.6602V33.431H20.7601V23.3711Z" fill="#CE2C0A"/>
<path d="M20.8694 23.3711H20.7695V33.431H20.8694V23.3711Z" fill="#CF2D0A"/>
<path d="M20.971 23.3711H20.8711V33.431H20.971V23.3711Z" fill="#CF2E0B"/>
<path d="M21.0802 23.3711H20.9803V33.431H21.0802V23.3711Z" fill="#D02F0B"/>
<path d="M21.18 23.3711H21.0801V33.431H21.18V23.3711Z" fill="#D0300C"/>
<path d="M21.2814 23.3711H21.1815V33.431H21.2814V23.3711Z" fill="#D1310C"/>
<path d="M21.3909 23.3711H21.291V33.431H21.3909V23.3711Z" fill="#D1320D"/>
<path d="M21.4925 23.3711H21.3926V33.431H21.4925V23.3711Z" fill="#D2330D"/>
<path d="M21.6019 23.3711H21.502V33.431H21.6019V23.3711Z" fill="#D2340E"/>
<path d="M21.7016 23.3711H21.6017V33.431H21.7016V23.3711Z" fill="#D3350E"/>
<path d="M21.8108 23.3711H21.7109V33.431H21.8108V23.3711Z" fill="#D3360E"/>
<path d="M21.9085 23.3711H21.8086V33.431H21.9085V23.3711Z" fill="#D4370F"/>
<path d="M22.0101 23.3711H21.9102V33.431H22.0101V23.3711Z" fill="#D4380F"/>
<path d="M22.1194 23.3711H22.0195V33.431H22.1194V23.3711Z" fill="#D53910"/>
<path d="M22.219 23.3711H22.1191V33.431H22.219V23.3711Z" fill="#D53A10"/>
<path d="M22.3284 23.3711H22.2285V33.431H22.3284V23.3711Z" fill="#D63B11"/>
<path d="M22.43 23.3711H22.3301V33.431H22.43V23.3711Z" fill="#D63C11"/>
<path d="M22.5394 23.3711H22.4395V33.431H22.5394V23.3711Z" fill="#D73D11"/>
<path d="M22.639 23.3711H22.5391V33.431H22.639V23.3711Z" fill="#D73E12"/>
<path d="M22.7403 23.3711H22.6404V33.431H22.7403V23.3711Z" fill="#D83F12"/>
<path d="M22.8498 23.3711H22.7499V33.431H22.8498V23.3711Z" fill="#D84013"/>
<path d="M22.9495 23.3711H22.8496V33.431H22.9495V23.3711Z" fill="#D94113"/>
<path d="M23.0608 23.3711H22.9609V33.431H23.0608V23.3711Z" fill="#D94214"/>
<path d="M23.1585 23.3711H23.0586V33.431H23.1585V23.3711Z" fill="#DA4314"/>
<path d="M23.2701 23.3711H23.1702V33.431H23.2701V23.3711Z" fill="#DB4515"/>
<path d="M23.3677 23.3711H23.2678V33.431H23.3677V23.3711Z" fill="#DB4615"/>
<path d="M23.469 23.3711H23.3691V33.431H23.469V23.3711Z" fill="#DC4715"/>
<path d="M23.5784 23.3711H23.4785V33.431H23.5784V23.3711Z" fill="#DC4816"/>
<path d="M23.6783 23.3711H23.5784V33.431H23.6783V23.3711Z" fill="#DD4916"/>
<path d="M23.7874 23.3711H23.6875V33.431H23.7874V23.3711Z" fill="#DD4A17"/>
<path d="M23.889 23.3711H23.7891V33.431H23.889V23.3711Z" fill="#DE4B17"/>
<path d="M23.9983 23.3711H23.8984V33.431H23.9983V23.3711Z" fill="#DE4C18"/>
<path d="M24.0979 23.3711H23.998V33.431H24.0979V23.3711Z" fill="#DF4D18"/>
<path d="M24.1956 23.3711H24.0957V33.431H24.1956V23.3711Z" fill="#DF4E18"/>
<path d="M24.3088 23.3711H24.2089V33.431H24.3088V23.3711Z" fill="#E04F19"/>
<path d="M24.4064 23.3711H24.3065V33.431H24.4064V23.3711Z" fill="#E05019"/>
<path d="M24.5198 23.3711H24.4199V33.431H24.5198V23.3711Z" fill="#E1511A"/>
<path d="M24.6175 23.3711H24.5176V33.431H24.6175V23.3711Z" fill="#E1521A"/>
<path d="M24.7269 23.3711H24.627V33.431H24.7269V23.3711Z" fill="#E2531B"/>
<path d="M24.8266 23.3711H24.7267V33.431H24.8266V23.3711Z" fill="#E2541B"/>
<path d="M24.9261 23.3711H24.8262V33.431H24.9261V23.3711Z" fill="#E3551B"/>
<path d="M25.0374 23.3711H24.9375V33.431H25.0374V23.3711Z" fill="#E3561C"/>
<path d="M25.137 23.3711H25.0371V33.431H25.137V23.3711Z" fill="#E4571C"/>
<path d="M25.2464 23.3711H25.1465V33.431H25.2464V23.3711Z" fill="#E4581D"/>
<path d="M25.3479 23.3711H25.248V33.431H25.3479V23.3711Z" fill="#E5591D"/>
<path d="M25.4573 23.3711H25.3574V33.431H25.4573V23.3711Z" fill="#E55A1E"/>
<path d="M25.5569 23.3711H25.457V33.431H25.5569V23.3711Z" fill="#E65B1E"/>
<path d="M25.6546 23.3711H25.5547V33.431H25.6546V23.3711Z" fill="#E65C1F"/>
<path d="M25.764 23.3711H25.6641V33.431H25.764V23.3711Z" fill="#E75D1F"/>
<path d="M25.8653 23.3711H25.7654V33.431H25.8653V23.3711Z" fill="#E85E1F"/>
<path d="M25.9748 23.3711H25.8749V33.431H25.9748V23.3711Z" fill="#E85F20"/>
<path d="M26.0745 23.3711H25.9746V33.431H26.0745V23.3711Z" fill="#E96020"/>
<path d="M26.1858 23.3711H26.0859V33.431H26.1858V23.3711Z" fill="#E96121"/>
<path d="M26.2856 23.3711H26.1857V33.431H26.2856V23.3711Z" fill="#EA6221"/>
<path d="M26.387 23.3711H26.2871V33.431H26.387V23.3711Z" fill="#EA6322"/>
<path d="M26.4964 23.3711H26.3965V33.431H26.4964V23.3711Z" fill="#EB6422"/>
<path d="M26.596 23.3711H26.4961V33.431H26.596V23.3711Z" fill="#EB6522"/>
<path d="M26.7054 23.3711H26.6055V33.431H26.7054V23.3711Z" fill="#EC6623"/>
<path d="M26.8069 23.3711H26.707V33.431H26.8069V23.3711Z" fill="#EC6723"/>
<path d="M26.9163 23.3711H26.8164V33.431H26.9163V23.3711Z" fill="#ED6824"/>
<path d="M27.014 23.3711H26.9141V33.431H27.014V23.3711Z" fill="#ED6924"/>
<path d="M27.1136 23.3711H27.0137V33.431H27.1136V23.3711Z" fill="#EE6A25"/>
<path d="M27.2229 23.3711H27.123V33.431H27.2229V23.3711Z" fill="#EE6B25"/>
<path d="M27.3246 23.3711H27.2247V33.431H27.3246V23.3711Z" fill="#EF6C26"/>
<path d="M27.4338 23.3711H27.3339V33.431H27.4338V23.3711Z" fill="#EF6D26"/>
<path d="M27.5335 23.3711H27.4336V33.431H27.5335V23.3711Z" fill="#F06E26"/>
<path d="M27.6448 23.3711H27.5449V33.431H27.6448V23.3711Z" fill="#F06F27"/>
<path d="M27.7442 23.3711H27.6443V33.431H27.7442V23.3711Z" fill="#F17027"/>
<path d="M27.846 23.3711H27.7461V33.431H27.846V23.3711Z" fill="#F17128"/>
<path d="M27.9554 23.3711H27.8555V33.431H27.9554V23.3711Z" fill="#F27228"/>
<path d="M28.0552 23.3711H27.9553V33.431H28.0552V23.3711Z" fill="#F27329"/>
<path d="M28.1644 23.3711H28.0645V33.431H28.1644V23.3711Z" fill="#F37429"/>
<path d="M28.232 23.3711H28.1621V33.431H28.232V23.3711Z" fill="#F37429"/>
<path d="M28.3043 23.3711H28.2344V33.431H28.3043V23.3711Z" fill="#F3752A"/>
<path d="M28.3744 23.3711H28.3045V33.431H28.3744V23.3711Z" fill="#F3752B"/>
<path d="M28.443 23.3711H28.373V33.431H28.443V23.3711Z" fill="#F3762C"/>
<path d="M28.5055 23.3711H28.4355V33.431H28.5055V23.3711Z" fill="#F3772D"/>
<path d="M28.5719 23.3711H28.502V33.431H28.5719V23.3711Z" fill="#F3772E"/>
<path d="M28.6441 23.3711H28.5742V33.431H28.6441V23.3711Z" fill="#F4782F"/>
<path d="M28.7125 23.3711H28.6426V33.431H28.7125V23.3711Z" fill="#F47930"/>
<path d="M28.7828 23.3711H28.7129V33.431H28.7828V23.3711Z" fill="#F47A31"/>
<path d="M28.8414 23.3711H28.7715V33.431H28.8414V23.3711Z" fill="#F47A32"/>
<path d="M28.9137 23.3711H28.8438V33.431H28.9137V23.3711Z" fill="#F47B33"/>
<path d="M28.9841 23.3711H28.9141V33.431H28.9841V23.3711Z" fill="#F47C34"/>
<path d="M29.0521 23.3711H28.9822V33.431H29.0521V23.3711Z" fill="#F47C35"/>
<path d="M29.1228 23.3711H29.0529V33.431H29.1228V23.3711Z" fill="#F47D36"/>
<path d="M29.1832 23.3711H29.1133V33.431H29.1832V23.3711Z" fill="#F47E37"/>
<path d="M29.2533 23.3711H29.1834V33.431H29.2533V23.3711Z" fill="#F47E38"/>
<path d="M29.3219 23.3711H29.252V33.431H29.3219V23.3711Z" fill="#F47F39"/>
<path d="M29.3922 23.3711H29.3223V33.431H29.3922V23.3711Z" fill="#F5803A"/>
<path d="M29.4625 23.3711H29.3926V33.431H29.4625V23.3711Z" fill="#F5803B"/>
<path d="M29.5231 23.3711H29.4531V33.431H29.5231V23.3711Z" fill="#F5813C"/>
<path d="M29.5934 23.3711H29.5234V33.431H29.5934V23.3711Z" fill="#F5823D"/>
<path d="M29.6617 23.3711H29.5918V33.431H29.6617V23.3711Z" fill="#F5833E"/>
<path d="M29.732 23.3711H29.6621V33.431H29.732V23.3711Z" fill="#F5833F"/>
<path d="M29.8004 23.3711H29.7305V33.431H29.8004V23.3711Z" fill="#F58440"/>
<path d="M29.863 23.3711H29.793V33.431H29.863V23.3711Z" fill="#F58541"/>
<path d="M29.931 23.3711H29.8611V33.431H29.931V23.3711Z" fill="#F58542"/>
<path d="M30.0016 23.3711H29.9316V33.431H30.0016V23.3711Z" fill="#F58643"/>
<path d="M30.0738 23.3711H30.0039V33.431H30.0738V23.3711Z" fill="#F58744"/>
<path d="M30.1402 23.3711H30.0703V33.431H30.1402V23.3711Z" fill="#F68745"/>
<path d="M30.2008 23.3711H30.1309V33.431H30.2008V23.3711Z" fill="#F68846"/>
<path d="M30.2711 23.3711H30.2012V33.431H30.2711V23.3711Z" fill="#F68947"/>
<path d="M30.3414 23.3711H30.2715V33.431H30.3414V23.3711Z" fill="#F68A48"/>
<path d="M30.4098 23.3711H30.3398V33.431H30.4098V23.3711Z" fill="#F68A49"/>
<path d="M30.482 23.3711H30.4121V33.431H30.482V23.3711Z" fill="#F68B4A"/>
<path d="M30.5406 23.3711H30.4707V33.431H30.5406V23.3711Z" fill="#F68C4B"/>
<path d="M30.6109 23.3711H30.541V33.431H30.6109V23.3711Z" fill="#F68C4C"/>
<path d="M30.6832 23.3711H30.6133V33.431H30.6832V23.3711Z" fill="#F68D4D"/>
<path d="M30.7516 23.3711H30.6816V33.431H30.7516V23.3711Z" fill="#F68E4E"/>
<path d="M30.8218 23.3711H30.7518V33.431H30.8218V23.3711Z" fill="#F68E4F"/>
<path d="M30.8805 23.3711H30.8105V33.431H30.8805V23.3711Z" fill="#F68F50"/>
<path d="M30.9527 23.3711H30.8828V33.431H30.9527V23.3711Z" fill="#F79051"/>
<path d="M31.0191 23.3711H30.9492V33.431H31.0191V23.3711Z" fill="#F79052"/>
<path d="M31.0914 23.3711H31.0215V33.431H31.0914V23.3711Z" fill="#F79153"/>
<path d="M31.1617 23.3711H31.0918V33.431H31.1617V23.3711Z" fill="#F79254"/>
<path d="M31.2203 23.3711H31.1504V33.431H31.2203V23.3711Z" fill="#F79355"/>
<path d="M31.2887 23.3711H31.2188V33.431H31.2887V23.3711Z" fill="#F79356"/>
<path d="M31.3609 23.3711H31.291V33.431H31.3609V23.3711Z" fill="#F79457"/>
<path d="M31.4314 23.3711H31.3615V33.431H31.4314V23.3711Z" fill="#F79558"/>
<path d="M31.4994 23.3711H31.4295V33.431H31.4994V23.3711Z" fill="#F79559"/>
<path d="M31.5621 23.3711H31.4922V33.431H31.5621V23.3711Z" fill="#F7965A"/>
<path d="M31.6305 23.3711H31.5605V33.431H31.6305V23.3711Z" fill="#F7975B"/>
<path d="M31.7007 23.3711H31.6307V33.431H31.7007V23.3711Z" fill="#F8975C"/>
<path d="M31.7691 23.3711H31.6992V33.431H31.7691V23.3711Z" fill="#F8985D"/>
<path d="M31.8395 23.3711H31.7695V33.431H31.8395V23.3711Z" fill="#F8995E"/>
<path d="M31.8981 23.3711H31.8281V33.431H31.8981V23.3711Z" fill="#F8995F"/>
<path d="M31.9703 23.3711H31.9004V33.431H31.9703V23.3711Z" fill="#F89A60"/>
<path d="M32.0406 23.3711H31.9707V33.431H32.0406V23.3711Z" fill="#F89B61"/>
<path d="M32.1091 23.3711H32.0391V33.431H32.1091V23.3711Z" fill="#F89C62"/>
<path d="M32.1793 23.3711H32.1094V33.431H32.1793V23.3711Z" fill="#F89C63"/>
<path d="M32.2399 23.3711H32.1699V33.431H32.2399V23.3711Z" fill="#F89D64"/>
<path d="M32.3103 23.3711H32.2404V33.431H32.3103V23.3711Z" fill="#F89E65"/>
<path d="M32.3783 23.3711H32.3084V33.431H32.3783V23.3711Z" fill="#F89E66"/>
<path d="M32.4488 23.3711H32.3789V33.431H32.4488V23.3711Z" fill="#F99F67"/>
<path d="M32.5211 23.3711H32.4512V33.431H32.5211V23.3711Z" fill="#F9A068"/>
<path d="M32.5797 23.3711H32.5098V33.431H32.5797V23.3711Z" fill="#F9A069"/>
<path d="M32.65 23.3711H32.5801V33.431H32.65V23.3711Z" fill="#F9A16A"/>
<path d="M32.7184 23.3711H32.6484V33.431H32.7184V23.3711Z" fill="#F9A26B"/>
<path d="M32.7906 23.3711H32.7207V33.431H32.7906V23.3711Z" fill="#F9A36D"/>
<path d="M32.857 23.3711H32.7871V33.431H32.857V23.3711Z" fill="#F9A36E"/>
<path d="M32.9195 23.3711H32.8496V33.431H32.9195V23.3711Z" fill="#F9A46F"/>
<path d="M32.988 23.3711H32.918V33.431H32.988V23.3711Z" fill="#F9A570"/>
<path d="M33.0582 23.3711H32.9883V33.431H33.0582V23.3711Z" fill="#F9A571"/>
<path d="M33.1305 23.3711H33.0605V33.431H33.1305V23.3711Z" fill="#F9A672"/>
<path d="M33.1988 23.3711H33.1289V33.431H33.1988V23.3711Z" fill="#FAA773"/>
<path d="M33.2572 23.3711H33.1873V33.431H33.2572V23.3711Z" fill="#FAA774"/>
<path d="M33.3277 23.3711H33.2578V33.431H33.3277V23.3711Z" fill="#FAA875"/>
<path d="M33.4 23.3711H33.3301V33.431H33.4V23.3711Z" fill="#FAA976"/>
<path d="M33.4664 23.3711H33.3965V33.431H33.4664V23.3711Z" fill="#FAA977"/>
<path d="M33.5387 23.3711H33.4688V33.431H33.5387V23.3711Z" fill="#FAAA78"/>
<path d="M33.5973 23.3711H33.5273V33.431H33.5973V23.3711Z" fill="#FAAB79"/>
<path d="M33.6676 23.3711H33.5977V33.431H33.6676V23.3711Z" fill="#FAAC7A"/>
<path d="M33.7396 23.3711H33.6697V33.431H33.7396V23.3711Z" fill="#FAAC7B"/>
<path d="M33.8082 23.3711H33.7383V33.431H33.8082V23.3711Z" fill="#FAAD7C"/>
<path d="M33.8787 23.3711H33.8088V33.431H33.8787V23.3711Z" fill="#FAAE7D"/>
<path d="M33.9371 23.3711H33.8672V33.431H33.9371V23.3711Z" fill="#FBAE7E"/>
<path d="M34.0094 23.3711H33.9395V33.431H34.0094V23.3711Z" fill="#FBAF7F"/>
<path d="M34.0777 23.3711H34.0078V33.431H34.0777V23.3711Z" fill="#FBB080"/>
<path d="M34.1481 23.3711H34.0781V33.431H34.1481V23.3711Z" fill="#FBB081"/>
<path d="M34.2184 23.3711H34.1484V33.431H34.2184V23.3711Z" fill="#FBB182"/>
<path d="M34.2789 23.3711H34.209V33.431H34.2789V23.3711Z" fill="#FBB283"/>
<path d="M34.3453 23.3711H34.2754V33.431H34.3453V23.3711Z" fill="#FBB284"/>
<path d="M34.4175 23.3711H34.3476V33.431H34.4175V23.3711Z" fill="#FBB385"/>
<path d="M34.4879 23.3711H34.418V33.431H34.4879V23.3711Z" fill="#FBB486"/>
<path d="M34.5564 23.3711H34.4865V33.431H34.5564V23.3711Z" fill="#FBB587"/>
<path d="M34.6185 23.3711H34.5486V33.431H34.6185V23.3711Z" fill="#FBB588"/>
<path d="M34.6871 23.3711H34.6172V33.431H34.6871V23.3711Z" fill="#FCB689"/>
<path d="M34.7576 23.3711H34.6877V33.431H34.7576V23.3711Z" fill="#FCB78A"/>
<path d="M34.8257 23.3711H34.7557V33.431H34.8257V23.3711Z" fill="#FCB78B"/>
<path d="M34.8961 23.3711H34.8262V33.431H34.8961V23.3711Z" fill="#FCB88C"/>
<path d="M34.9684 23.3711H34.8984V33.431H34.9684V23.3711Z" fill="#FCB98D"/>
<path d="M35.0269 23.3711H34.957V33.431H35.0269V23.3711Z" fill="#FCB98E"/>
<path d="M35.0973 23.3711H35.0273V33.431H35.0973V23.3711Z" fill="#FCBA8F"/>
<path d="M35.1656 23.3711H35.0957V33.431H35.1656V23.3711Z" fill="#FCBB90"/>
<path d="M35.2359 23.3711H35.166V33.431H35.2359V23.3711Z" fill="#FCBB91"/>
<path d="M35.308 23.3711H35.2381V33.431H35.308V23.3711Z" fill="#FCBC92"/>
<path d="M35.3668 23.3711H35.2969V33.431H35.3668V23.3711Z" fill="#FCBD93"/>
<path d="M35.4353 23.3711H35.3654V33.431H35.4353V23.3711Z" fill="#FCBE94"/>
<path d="M35.5055 23.3711H35.4355V33.431H35.5055V23.3711Z" fill="#FDBE95"/>
<path d="M35.5777 23.3711H35.5078V33.431H35.5777V23.3711Z" fill="#FDBF96"/>
<path d="M35.6461 23.3711H35.5762V33.431H35.6461V23.3711Z" fill="#FDC097"/>
<path d="M35.7067 23.3711H35.6367V33.431H35.7067V23.3711Z" fill="#FDC098"/>
<path d="M35.775 23.3711H35.7051V33.431H35.775V23.3711Z" fill="#FDC199"/>
<path d="M35.8473 23.3711H35.7773V33.431H35.8473V23.3711Z" fill="#FDC29A"/>
<path d="M35.9156 23.3711H35.8457V33.431H35.9156V23.3711Z" fill="#FDC29B"/>
<path d="M35.9859 23.3711H35.916V33.431H35.9859V23.3711Z" fill="#FDC39C"/>
<path d="M36.0445 23.3711H35.9746V33.431H36.0445V23.3711Z" fill="#FDC49D"/>
<path d="M36.1149 23.3711H36.0449V33.431H36.1149V23.3711Z" fill="#FDC59E"/>
<path d="M36.1869 23.3711H36.117V33.431H36.1869V23.3711Z" fill="#FDC59F"/>
<path d="M36.2555 23.3711H36.1855V33.431H36.2555V23.3711Z" fill="#FEC6A0"/>
<path d="M36.326 23.3711H36.2561V33.431H36.326V23.3711Z" fill="#FEC7A1"/>
<path d="M36.3863 23.3711H36.3164V33.431H36.3863V23.3711Z" fill="#FEC7A2"/>
<path d="M36.4567 23.3711H36.3867V33.431H36.4567V23.3711Z" fill="#FEC8A3"/>
<path d="M36.525 23.3711H36.4551V33.431H36.525V23.3711Z" fill="#FEC9A4"/>
<path d="M36.5953 23.3711H36.5254V33.431H36.5953V23.3711Z" fill="#FEC9A5"/>
<path d="M36.6656 23.3711H36.5957V33.431H36.6656V23.3711Z" fill="#FECAA6"/>
<path d="M36.7262 23.3711H36.6562V33.431H36.7262V23.3711Z" fill="#FECBA7"/>
<path d="M36.7966 23.3711H36.7266V33.431H36.7966V23.3711Z" fill="#FECBA8"/>
<path d="M36.8646 23.3711H36.7947V33.431H36.8646V23.3711Z" fill="#FECCA9"/>
<path d="M36.9352 23.3711H36.8652V33.431H36.9352V23.3711Z" fill="#FECDAA"/>
<path d="M37.0037 23.3711H36.9338V33.431H37.0037V23.3711Z" fill="#FFCEAB"/>
<path d="M37.0658 23.3711H36.9959V33.431H37.0658V23.3711Z" fill="#FFCEAC"/>
<path d="M37.1344 23.3711H37.0645V33.431H37.1344V23.3711Z" fill="#FFCFAD"/>
<path d="M37.2047 23.3711H37.1348V33.431H37.2047V23.3711Z" fill="#FFD0AE"/>
<path d="M37.275 23.3711H37.2051V33.431H37.275V23.3711Z" fill="#FFD0AF"/>
<path d="M37.3434 23.3711H37.2734V33.431H37.3434V23.3711Z" fill="#FFD1B0"/>
</g>
<path d="M26.7633 26.2656H25.8242V27.2047H26.7633V26.2656Z" fill="#0C4578"/>
<path d="M28.2223 26.2656H27.2832V27.2047H28.2223V26.2656Z" fill="#0C4578"/>
<path d="M26.7457 27.6445H25.8066V28.5836H26.7457V27.6445Z" fill="#0C4578"/>
<path d="M28.2027 27.6445H27.2637V28.5836H28.2027V27.6445Z" fill="#0C4578"/>
<path d="M18.7242 24.957H17.7852V25.8961H18.7242V24.957Z" fill="#0C4578"/>
<path d="M20.1832 24.957H19.2441V25.8961H20.1832V24.957Z" fill="#0C4578"/>
<path d="M18.7242 26.5859H17.7852V27.525H18.7242V26.5859Z" fill="#0C4578"/>
<path d="M20.1832 26.5859H19.2441V27.525H20.1832V26.5859Z" fill="#0C4578"/>
<path d="M18.7242 28.1836H17.7852V29.1227H18.7242V28.1836Z" fill="#0C4578"/>
<path d="M20.1832 28.1836H19.2441V29.1227H20.1832V28.1836Z" fill="#0C4578"/>
<path d="M34.8277 25.0469H33.8887V25.9859H34.8277V25.0469Z" fill="#0C4578"/>
<path d="M36.2867 25.0469H35.3477V25.9859H36.2867V25.0469Z" fill="#0C4578"/>
<path d="M34.8277 26.6758H33.8887V27.6148H34.8277V26.6758Z" fill="#0C4578"/>
<path d="M36.2867 26.6758H35.3477V27.6148H36.2867V26.6758Z" fill="#0C4578"/>
<path d="M34.8277 28.2734H33.8887V29.2125H34.8277V28.2734Z" fill="#0C4578"/>
<path d="M36.2867 28.2734H35.3477V29.2125H36.2867V28.2734Z" fill="#0C4578"/>
<path d="M26.9758 29.5938C26.7983 29.5963 26.623 29.6342 26.4603 29.7051C26.2975 29.7761 26.1505 29.8787 26.0278 30.007C25.9051 30.1353 25.8091 30.2867 25.7455 30.4524C25.6818 30.6182 25.6518 30.7949 25.6571 30.9724V32.9704C25.6571 33.0578 25.6918 33.1417 25.7537 33.2035C25.8155 33.2653 25.8993 33.3 25.9868 33.3H27.9848C28.0504 33.3014 28.115 33.2831 28.1701 33.2475C28.2253 33.2119 28.2686 33.1606 28.2945 33.1002C28.2994 33.0671 28.2994 33.0335 28.2945 33.0003V30.9724C28.2998 30.7949 28.2697 30.6182 28.2061 30.4524C28.1425 30.2867 28.0465 30.1353 27.9238 30.007C27.8011 29.8787 27.654 29.7761 27.4913 29.7051C27.3285 29.6342 27.1533 29.5963 26.9758 29.5938ZM26.3264 30.9724C26.3264 30.7949 26.3969 30.6246 26.5225 30.4991C26.648 30.3736 26.8182 30.303 26.9958 30.303C27.1733 30.303 27.3435 30.3736 27.469 30.4991C27.5946 30.6246 27.6651 30.7949 27.6651 30.9724V32.7006H26.3264V30.9724Z" fill="#0C4578"/>
<path d="M32.8208 29.2921L32.6909 29.2321L29.8438 27.9734V24.9764C29.8438 24.888 29.8094 24.8031 29.7479 24.7397C29.6863 24.6762 29.6025 24.6393 29.5141 24.6367H24.4092C24.3209 24.6393 24.237 24.6762 24.1755 24.7397C24.1139 24.8031 24.0795 24.888 24.0796 24.9764V28.0533L22.3113 28.8225L22.0815 28.9224L21.3123 29.2621L21.1725 29.322C21.1129 29.349 21.0623 29.3925 21.0269 29.4474C20.9915 29.5024 20.9726 29.5663 20.9727 29.6317V33.1182C20.9753 33.2066 21.0122 33.2904 21.0756 33.352C21.139 33.4135 21.2239 33.4479 21.3123 33.4479H32.6909C32.7793 33.4479 32.8642 33.4135 32.9277 33.352C32.9911 33.2904 33.028 33.2066 33.0306 33.1182V29.6018C33.0285 29.5356 33.0077 29.4713 32.9706 29.4165C32.9335 29.3617 32.8815 29.3185 32.8208 29.2921ZM24.0796 32.7486H21.642V29.8215L22.641 29.372L23.7998 28.8625L24.0596 28.7526L24.0796 32.7486ZM29.1745 32.7486H24.7489V25.2761H29.1745V32.7486ZM32.3513 32.7486H29.8438V28.7526L32.3513 29.8515V32.7486Z" fill="#0C4578"/>
<path d="M37.3346 33.4209H32.6893C32.6009 33.4209 32.516 33.3865 32.4526 33.3249C32.3891 33.2634 32.3522 33.1795 32.3496 33.0912V23.3709C32.3496 23.2808 32.3854 23.1944 32.4491 23.1307C32.5128 23.067 32.5992 23.0312 32.6893 23.0312H37.3346C37.4247 23.0312 37.5111 23.067 37.5748 23.1307C37.6385 23.1944 37.6743 23.2808 37.6743 23.3709V33.0912C37.6717 33.1795 37.6348 33.2634 37.5713 33.3249C37.5079 33.3865 37.423 33.4209 37.3346 33.4209ZM33.0189 32.7515H37.0149V23.7605H33.0189V32.7515Z" fill="#0C4578"/>
<path d="M21.3112 33.4209H16.6658C16.5775 33.4209 16.4925 33.3865 16.4291 33.3249C16.3657 33.2634 16.3288 33.1795 16.3262 33.0912V23.3709C16.3262 23.2808 16.362 23.1944 16.4257 23.1307C16.4894 23.067 16.5757 23.0312 16.6658 23.0312H21.3112C21.4013 23.0312 21.4877 23.067 21.5514 23.1307C21.6151 23.1944 21.6508 23.2808 21.6508 23.3709V33.0912C21.6482 33.1795 21.6113 33.2634 21.5479 33.3249C21.4845 33.3865 21.3996 33.4209 21.3112 33.4209ZM16.9855 32.7515H20.9815V23.7605H16.9855V32.7515Z" fill="#0C4578"/>
<path d="M50.8629 24.4299V31.5228L47.0667 32.1222L44.0697 38.7456L47.0667 42.8614L41.5522 48.286L38.1356 45.289L31.6321 48.286L31.752 52.8914H31.3424C27.8053 51.808 24.566 49.9228 21.8768 47.3826C19.1876 44.8424 17.121 41.7157 15.8379 38.2461C17.697 40.3819 20.1369 41.9312 22.8606 42.7055C25.5842 43.4798 28.4743 43.4456 31.1789 42.6072C33.8835 41.7688 36.2861 40.1623 38.0942 37.9831C39.9024 35.804 41.0381 33.1463 41.3632 30.3334C41.6882 27.5205 41.1886 24.6738 39.9252 22.1397C38.6617 19.6057 36.6889 17.4935 34.2467 16.0603C31.8046 14.6271 28.9986 13.9347 26.1701 14.0674C23.3416 14.2 20.6127 15.152 18.3154 16.8075C21.3299 12.205 25.839 8.78261 31.0826 7.11719V8.11619L37.0767 11.5328L41.2425 7.99631L46.3174 13.0413L43.5502 16.9873L46.3174 24.4399L50.8629 24.4299Z" fill="url(#paint0_linear_619_15307)"/>
<path d="M51.001 22.98H47.1549L44.8072 16.6763L47.2747 13.1698C47.4122 12.9769 47.4766 12.7413 47.4565 12.5053C47.4364 12.2692 47.333 12.048 47.1648 11.8811L42.0799 6.85614C41.9034 6.67927 41.6669 6.575 41.4173 6.5639C41.1676 6.55281 40.9228 6.63569 40.7313 6.7962L37.0749 9.91309L32.2198 7.12587V3.999C32.2198 3.73405 32.1145 3.47995 31.9272 3.2926C31.7398 3.10525 31.4857 3 31.2208 3H23.2288C22.9638 3 22.7097 3.10525 22.5224 3.2926C22.335 3.47995 22.2298 3.73405 22.2298 3.999V7.56543L16.056 9.99301L13.3587 7.18581C13.265 7.09022 13.153 7.01443 13.0294 6.96294C12.9059 6.91146 12.7732 6.88533 12.6394 6.88611C12.5047 6.87891 12.3701 6.90211 12.2456 6.95399C12.1211 7.00587 12.0098 7.0851 11.9201 7.18581L6.25575 12.99C6.09671 13.1562 5.99992 13.3723 5.98172 13.6016C5.96351 13.8309 6.02502 14.0595 6.15585 14.2488L8.84316 18.1149L5.99601 22.98H2.99901C2.73406 22.98 2.47996 23.0853 2.29261 23.2726C2.10526 23.46 2.00001 23.7141 2.00001 23.979V32.041C1.99899 32.291 2.09182 32.5324 2.26013 32.7174C2.42845 32.9023 2.66003 33.0175 2.9091 33.04L7.15485 33.4396L8.89312 38.8342L6.23577 41.7313C6.06157 41.9165 5.96459 42.1613 5.96459 42.4156C5.96459 42.6699 6.06157 42.9146 6.23577 43.0999L11.5405 48.5844C11.7103 48.7589 11.9381 48.8654 12.1809 48.8838C12.4237 48.9022 12.6649 48.8313 12.8591 48.6843L16.4256 45.987L21.8801 48.7243L21.98 52.2807C21.98 52.5457 22.0853 52.7998 22.2726 52.9871C22.46 53.1745 22.7141 53.2797 22.979 53.2797L31.8502 53.4895C32.1137 53.4858 32.365 53.378 32.5495 53.1898C32.6463 53.0949 32.7228 52.9814 32.7743 52.856C32.8258 52.7306 32.8513 52.5961 32.8492 52.4605L32.7493 48.5145L38.0639 46.047L40.981 48.6344C41.1663 48.8086 41.411 48.9056 41.6653 48.9056C41.9197 48.9056 42.1644 48.8086 42.3497 48.6344L47.9541 43.1399C48.1233 42.9711 48.2264 42.7473 48.2448 42.509C48.2631 42.2707 48.1954 42.0338 48.054 41.8412L45.3567 38.1948L47.8941 32.6004L51.1608 32.0809C51.3972 32.0426 51.612 31.9207 51.766 31.7373C51.9201 31.554 52.0031 31.3214 52 31.0819V23.979C52 23.7141 51.8948 23.46 51.7074 23.2726C51.5201 23.0853 51.266 22.98 51.001 22.98ZM50.002 30.2128L47.055 30.6923C46.8911 30.7168 46.7359 30.7817 46.6034 30.8811C46.4709 30.9805 46.3651 31.1113 46.2957 31.2617L43.2987 37.8851C43.2257 38.0456 43.1965 38.2226 43.214 38.3981C43.2316 38.5735 43.2953 38.7412 43.3986 38.8841L45.8961 42.3007L41.6504 46.4665L38.963 44.0889C38.8121 43.9593 38.626 43.8778 38.4284 43.8546C38.2309 43.8315 38.0309 43.8678 37.8542 43.959L31.3507 46.956C31.1741 47.0377 31.0253 47.1691 30.9223 47.3341C30.8194 47.4992 30.7669 47.6907 30.7712 47.8851L30.8611 51.4416L23.978 51.2717L23.8681 48.0849C23.8622 47.9056 23.808 47.7311 23.7113 47.58C23.6146 47.4288 23.479 47.3064 23.3187 47.2258L16.7852 43.959C16.6184 43.8763 16.4319 43.8418 16.2465 43.8595C16.0612 43.8771 15.8844 43.9462 15.7363 44.0589L12.3796 46.5964L8.38362 42.4306L10.8012 39.7932C10.9228 39.6609 11.0064 39.4983 11.0433 39.3225C11.0803 39.1467 11.0691 38.9642 11.011 38.7942L8.85316 32.2208C8.79328 32.0343 8.67992 31.8696 8.52717 31.747C8.37442 31.6245 8.18902 31.5495 7.99401 31.5315L3.99801 31.1518V24.978H6.57543C6.75147 24.9787 6.92456 24.9329 7.07719 24.8452C7.22981 24.7575 7.35655 24.631 7.44456 24.4785L10.8911 18.4845C10.985 18.3199 11.0302 18.1321 11.0213 17.9428C11.0125 17.7535 10.95 17.5707 10.8412 17.4156L8.26374 13.7692L12.6294 9.27373L15.0769 11.8212C15.2152 11.9632 15.3925 12.0608 15.5864 12.1017C15.7803 12.1426 15.982 12.125 16.1658 12.051L23.5085 9.16384C23.6913 9.09109 23.8485 8.96602 23.9604 8.8043C24.0724 8.64258 24.1341 8.45141 24.1379 8.25475L24.1778 4.998H30.2218V7.7053C30.2211 7.88133 30.2669 8.05442 30.3546 8.20705C30.4423 8.35967 30.5688 8.48641 30.7213 8.57443L36.7153 11.991C36.8935 12.0915 37.0983 12.1349 37.302 12.1152C37.5057 12.0956 37.6984 12.0139 37.8542 11.8811L41.3507 8.88412L45.1569 12.7203L42.8691 15.987C42.7764 16.1191 42.717 16.2717 42.6962 16.4318C42.6753 16.5919 42.6935 16.7546 42.7493 16.9061L45.5165 24.3586C45.5879 24.5499 45.7162 24.7146 45.8841 24.8307C46.052 24.9468 46.2514 25.0087 46.4556 25.008H50.002V30.2128Z" fill="#0C4578"/>
<path d="M26.975 12.6211C23.8872 12.625 20.8699 13.5444 18.3046 15.263C15.7392 16.9816 13.741 19.4222 12.5625 22.2763C11.3841 25.1303 11.0783 28.2698 11.6838 31.2976C12.2894 34.3254 13.7791 37.1058 15.9646 39.2871C18.1501 41.4684 20.9333 42.9528 23.9623 43.5525C26.9913 44.1522 30.1301 43.8404 32.9819 42.6565C35.8337 41.4726 38.2705 39.4697 39.9841 36.901C41.6978 34.3324 42.6114 31.3133 42.6094 28.2255C42.6041 24.0834 40.9543 20.1129 38.0225 17.1868C35.0908 14.2607 31.1171 12.6184 26.975 12.6211ZM26.975 41.8419C24.2828 41.8379 21.6522 41.036 19.4156 39.5374C17.179 38.0388 15.4369 35.9108 14.4094 33.4224C13.3819 30.934 13.1151 28.1968 13.6427 25.5568C14.1703 22.9168 15.4688 20.4925 17.3738 18.5902C19.2789 16.6879 21.7051 15.3931 24.3459 14.8693C26.9867 14.3455 29.7235 14.6163 32.2104 15.6475C34.6973 16.6787 36.8227 18.4239 38.318 20.6627C39.8133 22.9015 40.6114 25.5333 40.6114 28.2255C40.6101 30.0149 40.2563 31.7866 39.5703 33.4393C38.8843 35.092 37.8795 36.5935 36.6133 37.8579C35.347 39.1223 33.8441 40.1249 32.1904 40.8085C30.5366 41.492 28.7645 41.8432 26.975 41.8419Z" fill="#0C4578"/>
</g>
<defs>
<linearGradient id="paint0_linear_619_15307" x1="15.8379" y1="30.0043" x2="50.8629" y2="30.0043" gradientUnits="userSpaceOnUse">
<stop stop-color="#176AB4"/>
<stop offset="1" stop-color="#B1FFC7"/>
</linearGradient>
<clipPath id="clip0_619_15307">
<rect width="50" height="50.4595" fill="white" transform="translate(2 3)"/>
</clipPath>
</defs>
</svg>
