<svg width="32" height="32" viewBox="0 0 32 32" fill="none" xmlns="http://www.w3.org/2000/svg">
<path d="M8.58457 17.9293H6.86626C6.42418 17.9293 6.32422 17.8261 6.32422 17.3746C6.32422 16.4607 6.32422 15.5469 6.32422 14.633C6.32422 14.1566 6.41643 14.0629 6.88177 14.062C7.46086 14.062 8.04081 14.062 8.58802 14.062C8.85688 13.411 9.11282 12.7884 9.38686 12.1254C9.00252 11.7419 8.58544 11.3274 8.17007 10.9094C7.85812 10.5955 7.85899 10.445 8.17007 10.1286C8.82328 9.47443 9.47705 8.82086 10.1314 8.16786C10.4442 7.85655 10.5976 7.85741 10.913 8.17302C11.3232 8.58322 11.7282 8.99858 12.1143 9.38986L14.0601 8.58666C14.0601 8.01049 14.0601 7.40937 14.0601 6.80826C14.0601 6.44622 14.1816 6.3241 14.5409 6.32324C15.509 6.32324 16.4764 6.32324 17.4433 6.32324C17.8044 6.32324 17.925 6.44536 17.9267 6.80654C17.9267 7.40851 17.9267 8.01049 17.9267 8.58408L19.876 9.38814C20.2414 9.01836 20.6438 8.60644 21.0506 8.1971C21.3953 7.85311 21.5374 7.85311 21.8778 8.1885C22.5247 8.83347 23.1707 9.47959 23.8159 10.1268C24.1304 10.4433 24.1322 10.5981 23.8219 10.9094C23.4117 11.3205 22.9972 11.7255 22.6 12.1185L23.4031 14.062C23.9495 14.062 24.5294 14.062 25.1094 14.062C25.5739 14.062 25.6669 14.1575 25.6669 14.633C25.6669 15.5469 25.6669 16.4607 25.6669 17.3746C25.6669 17.8261 25.567 17.9284 25.1249 17.9293H23.4014L22.5974 19.8771C22.9895 20.2632 23.4135 20.6751 23.8305 21.0931C24.1261 21.388 24.1235 21.5514 23.8245 21.8524C23.1656 22.5163 22.5049 23.1779 21.8425 23.8372C21.5452 24.1322 21.3849 24.1279 21.0824 23.8286C20.6783 23.4279 20.2759 23.0245 19.876 22.6247C19.8614 22.6109 19.8398 22.6049 19.857 22.6143L17.9293 23.4081C17.9293 23.9688 17.9293 24.569 17.9293 25.1701C17.9293 25.5511 17.8113 25.6689 17.4304 25.6698C16.4738 25.6698 15.517 25.6698 14.5599 25.6698C14.1799 25.6698 14.0644 25.5511 14.0627 25.1684C14.0627 24.5776 14.0627 23.9868 14.0627 23.4072L12.1263 22.6057C11.7386 22.9962 11.3232 23.4158 10.9052 23.832C10.6036 24.1313 10.4425 24.133 10.1452 23.8372C9.47475 23.1699 8.80633 22.5005 8.13991 21.8292C7.86846 21.5566 7.86674 21.388 8.13474 21.1189C8.55872 20.6889 8.98873 20.2718 9.38944 19.8754L8.58457 17.9293ZM16.0231 11.4796C14.8207 11.4807 13.6677 11.9574 12.8168 12.8053C11.9659 13.6531 11.4864 14.803 11.4835 16.003C11.4835 18.471 13.525 20.5057 16.0068 20.51C18.455 20.5143 20.5085 18.4676 20.5137 16.0184C20.5189 13.5366 18.4877 11.4839 16.0231 11.4804V11.4796Z" fill="white"/>
<path d="M27.3431 4.66956C27.6654 4.33761 27.9739 3.99191 28.316 3.68318C28.4418 3.56967 28.6607 3.46905 28.8115 3.50173C28.9321 3.52753 29.07 3.7494 29.0941 3.90247C29.3814 5.44123 29.658 6.98199 29.924 8.52476C30.0154 9.05622 29.8292 9.21273 29.2984 9.11899C27.7791 8.84725 26.2564 8.58926 24.738 8.30633C24.5717 8.27537 24.3442 8.1481 24.2985 8.01308C24.2529 7.87807 24.3675 7.6476 24.4804 7.52119C24.7863 7.1772 25.1293 6.87192 25.5084 6.49955C24.9414 6.03002 24.4356 5.56564 23.884 5.16318C21.8743 3.68858 19.4883 2.80986 17.0004 2.62801C10.6959 2.12063 4.65164 6.21577 2.99537 12.6896C2.56887 14.3921 2.47206 16.1604 2.71014 17.8992C2.81354 18.7024 2.3189 19.3087 1.55281 19.3947C0.870312 19.4712 0.233484 18.9286 0.141277 18.1787C-0.401622 13.7748 0.612651 9.7674 3.31422 6.24157C5.79259 3.00983 9.07067 0.975167 13.0864 0.275159C18.4585 -0.662198 23.1516 0.804895 27.1328 4.53024C27.1647 4.55948 27.194 4.59044 27.2276 4.61624C27.2645 4.63722 27.3032 4.65506 27.3431 4.66956Z" fill="white"/>
<path d="M4.67974 27.3028C4.32298 27.6666 4.005 28.0175 3.65513 28.3348C3.53707 28.4406 3.32164 28.5248 3.18117 28.4913C3.06397 28.4646 2.9304 28.26 2.90627 28.1207C2.61903 26.5727 2.34126 25.0214 2.07297 23.4665C1.98162 22.9377 2.16862 22.7786 2.7029 22.8775C4.21268 23.1484 5.72418 23.4046 7.23137 23.6858C7.40372 23.7194 7.65362 23.8475 7.69843 23.9868C7.74324 24.1261 7.61226 24.3652 7.49161 24.5028C7.19948 24.8304 6.86857 25.1237 6.53077 25.4488C6.61177 25.5399 6.66779 25.6139 6.73414 25.6766C8.88333 27.713 11.4169 28.9952 14.364 29.2885C20.0972 29.85 24.5378 27.6417 27.5659 22.7528C29.1472 20.1996 29.6634 17.36 29.3067 14.369C29.2633 14.0731 29.2747 13.7717 29.3403 13.4798C29.4868 12.9251 30.0684 12.5536 30.6191 12.5975C31.2714 12.6491 31.7609 13.1178 31.8523 13.8014C32.9536 21.953 27.8021 29.6247 19.7878 31.5209C14.1632 32.8513 9.18839 31.4349 4.92448 27.5324L4.67974 27.3028Z" fill="white"/>
<path d="M12.2578 15.9789C12.2578 13.8918 13.9356 12.2501 16.0547 12.2561C18.0772 12.2621 19.7412 13.9511 19.7378 15.9969C19.7366 16.4871 19.6387 16.9722 19.4496 17.4245C19.2606 17.8769 18.9841 18.2877 18.636 18.6334C18.2878 18.9791 17.8749 19.253 17.4207 19.4395C16.9664 19.626 16.4799 19.7213 15.9887 19.7201C15.4976 19.719 15.0115 19.6213 14.5582 19.4326C14.1049 19.2439 13.6933 18.968 13.3468 18.6206C12.6472 17.919 12.2554 16.9687 12.2578 15.9789ZM16.0021 18.1881C16.437 18.1883 16.8621 18.0598 17.2237 17.8188C17.5854 17.5778 17.8673 17.2352 18.0338 16.8343C18.2003 16.4334 18.2439 15.9922 18.1591 15.5666C18.0743 15.141 17.8649 14.75 17.5574 14.4431C17.2499 14.1363 16.8581 13.9273 16.4316 13.8427C16.0051 13.7581 15.563 13.8016 15.1613 13.9678C14.7596 14.1339 14.4163 14.4152 14.1748 14.7761C13.9333 15.137 13.8045 15.5613 13.8047 15.9952C13.8029 17.1863 14.8112 18.1941 16.0021 18.1881Z" fill="white"/>
</svg>
