<svg width="33" height="32" viewBox="0 0 33 32" fill="none" xmlns="http://www.w3.org/2000/svg">
<path d="M32.0033 10.9991C30.2981 12.0794 28.9124 13.4827 27.7853 15.2063C26.6959 13.5137 25.2551 12.0754 23.5605 10.989C25.2442 9.90342 26.678 8.47249 27.7669 6.79102C28.149 7.29158 28.5011 7.77795 28.884 8.24097C29.7067 9.22459 30.6651 10.0861 31.7305 10.7997C31.8182 10.8516 31.9093 10.8973 32.0033 10.9365V10.9991Z" fill="white"/>
<path d="M19.3121 0C19.7701 0.614021 20.1955 1.25641 20.6928 1.83539C21.4887 2.76476 22.4347 3.53396 23.4992 4.22306C21.8063 5.31395 20.3666 6.75479 19.277 8.44863C18.1958 6.7647 16.766 5.3323 15.084 4.24809C15.6288 3.82345 16.176 3.43134 16.6833 2.99669C17.6894 2.12822 18.5679 1.14712 19.2495 0H19.3121Z" fill="white"/>
<path d="M21.5734 19.8055C22.0998 19.8055 22.5995 19.7804 23.0967 19.8055C24.6652 19.8981 25.9758 21.2546 25.9908 22.8272C26.0108 24.8678 26.0108 26.9087 25.9908 28.9499C25.975 30.5483 24.5967 31.9591 23 31.9791C20.4972 32.01 18.001 31.9908 15.5016 31.9858C15.3791 31.9782 15.2606 31.9398 15.157 31.874C14.5805 31.5403 14.0049 31.2066 13.4426 30.8512C13.3892 30.812 13.3447 30.7621 13.3119 30.7046C13.2792 30.6471 13.2589 30.5833 13.2524 30.5175C13.2424 27.3831 13.2457 24.2488 13.2399 21.1144C13.2327 21.0439 13.25 20.9731 13.2889 20.9139C13.3278 20.8546 13.3859 20.8105 13.4534 20.7891C14.0458 20.5113 14.6373 20.2284 15.2179 19.9273C15.4089 19.827 15.5804 19.6934 15.7243 19.5327C16.1056 19.1055 16.4752 18.6667 16.8247 18.2137C16.9317 18.068 16.9927 17.8937 16.9999 17.7131C17.0166 16.8488 17.0408 15.9829 16.9999 15.1202C16.954 14.195 17.538 13.3332 18.8753 13.5852C20.4655 13.8847 21.5316 15.1644 21.55 16.8063C21.56 17.724 21.55 18.6417 21.55 19.5552C21.5517 19.6203 21.5625 19.682 21.5734 19.8055Z" fill="white"/>
<path d="M12.2379 19.0271H6.28539V23.8141H1.51522e-05V23.4862C1.51522e-05 21.5819 1.51522e-05 19.6764 1.51522e-05 17.7698C-0.00141186 17.2591 0.0979696 16.753 0.292464 16.2808C0.486958 15.8085 0.772741 15.3792 1.13343 15.0176C1.49413 14.656 1.92264 14.3691 2.39441 14.1734C2.86618 13.9777 3.37194 13.877 3.8827 13.8771C5.37103 13.8727 6.85964 13.8727 8.34853 13.8771C9.35862 13.8811 10.3278 14.2765 11.0525 14.9801C11.7772 15.6838 12.2009 16.641 12.2345 17.6505C12.2504 18.0977 12.2379 18.544 12.2379 19.0271Z" fill="white"/>
<path d="M6.12436 2.9358C7.01527 2.93732 7.88565 3.2034 8.62512 3.70029C9.36459 4.19718 9.93982 4.9025 10.2779 5.72678C10.6159 6.55106 10.7015 7.45717 10.5239 8.33018C10.3462 9.2032 9.9133 10.0038 9.28 10.6304C8.6467 11.257 7.84157 11.6814 6.96672 11.8498C6.09187 12.0182 5.18672 11.923 4.36607 11.5762C3.54542 11.2294 2.84625 10.6467 2.35723 9.90202C1.86822 9.15732 1.61139 8.28416 1.61932 7.39329C1.62989 6.20612 2.10943 5.07128 2.95336 4.23626C3.79729 3.40124 4.93715 2.93377 6.12436 2.9358Z" fill="white"/>
<path d="M8.15039 30.7201V20.9133H11.3456V30.7201H8.15039Z" fill="white"/>
</svg>
