<svg width="32" height="27" viewBox="0 0 32 27" fill="none" xmlns="http://www.w3.org/2000/svg">
<path d="M0 6.62598H3.31083C3.31083 7.21514 3.31083 7.77431 3.31083 8.33264C3.31083 8.79098 3.42583 9.29681 3.26833 9.69348C3.11083 10.0901 2.67833 10.3468 2.37083 10.6668C2.30833 10.7318 2.22167 10.8151 2.22083 10.891C2.21 11.6685 2.21417 12.4468 2.21417 13.2376H3.31167C3.31167 12.6701 3.32083 12.1118 3.3075 11.5535C3.3025 11.3493 3.3475 11.1851 3.51583 11.0685C4.27 10.5435 4.52667 9.83598 4.41917 8.92431C4.34417 8.28764 4.405 7.63431 4.405 6.98848V6.64348H5.50833V14.3393H6.6225V6.64598H8.81417V9.92181H9.92583V6.65264H11.0333C11.0383 6.76014 11.0475 6.87098 11.0475 6.98098C11.0475 7.96014 11.0392 8.93931 11.0567 9.91848C11.0567 10.0726 11.1342 10.2851 11.2492 10.3693C12.0042 10.9168 12.2925 11.6343 12.1425 12.5493C12.1083 12.7618 12.1375 12.9843 12.1375 13.2276H13.2433C13.2433 12.7593 13.1992 12.2793 13.2533 11.811C13.3367 11.1093 13.1475 10.5535 12.5575 10.1443C12.185 9.88848 12.1008 9.53598 12.12 9.09514C12.155 8.28681 12.13 7.47598 12.13 6.64681H14.3083C14.435 7.30431 14.565 7.95264 14.68 8.60348C14.6898 8.70455 14.6679 8.80616 14.6175 8.89431C13.8375 10.3776 14.88 12.0743 16.4333 12.1368C16.4754 12.145 16.5167 12.157 16.5567 12.1726C16.4592 14.4068 17.2708 16.241 19.1467 17.6785H0.405833C0.270833 17.6785 0.135 17.6785 0 17.6851V6.62598ZM9.38667 12.1385C9.52743 12.1377 9.66241 12.0824 9.76326 11.9842C9.86411 11.886 9.92297 11.7525 9.9275 11.6118C9.92554 11.4656 9.8663 11.326 9.76253 11.223C9.65875 11.12 9.51871 11.0618 9.3725 11.061C9.23159 11.0635 9.09708 11.1203 8.99697 11.2194C8.89685 11.3186 8.83884 11.4526 8.835 11.5935C8.83408 11.6659 8.84777 11.7377 8.87526 11.8047C8.90274 11.8717 8.94345 11.9324 8.99495 11.9833C9.04645 12.0342 9.10769 12.0741 9.17499 12.1008C9.2423 12.1275 9.31429 12.1403 9.38667 12.1385ZM6.0625 15.4843C5.99279 15.4838 5.92365 15.4969 5.85904 15.5231C5.79443 15.5493 5.7356 15.5879 5.68592 15.6368C5.63624 15.6857 5.59668 15.744 5.5695 15.8081C5.54232 15.8723 5.52804 15.9413 5.5275 16.011C5.52673 16.0835 5.54038 16.1554 5.56766 16.2226C5.59494 16.2897 5.63531 16.3508 5.68642 16.4022C5.73752 16.4536 5.79834 16.4943 5.86534 16.522C5.93234 16.5497 6.00417 16.5638 6.07667 16.5635C6.21728 16.5571 6.35052 16.4988 6.45059 16.3998C6.55065 16.3008 6.61043 16.1682 6.61833 16.0276C6.61847 15.9552 6.60409 15.8835 6.57604 15.8167C6.548 15.7499 6.50686 15.6893 6.45505 15.6387C6.40324 15.5881 6.34182 15.5483 6.2744 15.5218C6.20698 15.4953 6.13493 15.4825 6.0625 15.4843ZM3.3125 14.9101C3.30665 14.7642 3.24405 14.6264 3.13804 14.526C3.03203 14.4256 2.891 14.3706 2.745 14.3726C2.60317 14.3753 2.46818 14.434 2.36961 14.536C2.27104 14.638 2.21694 14.775 2.21917 14.9168C2.21824 14.9892 2.23224 15.0611 2.26031 15.1279C2.28837 15.1947 2.32988 15.255 2.38226 15.305C2.43464 15.355 2.49677 15.3937 2.56477 15.4187C2.63277 15.4437 2.70518 15.4544 2.7775 15.4501C2.91844 15.4457 3.05224 15.387 3.15109 15.2865C3.24995 15.1859 3.30626 15.0511 3.30833 14.9101H3.3125ZM12.7067 15.4485C12.8474 15.4461 12.9817 15.3894 13.0815 15.2901C13.1813 15.1908 13.2387 15.0567 13.2417 14.916C13.2369 14.7745 13.1776 14.6404 13.0762 14.5417C12.9747 14.443 12.8389 14.3875 12.6974 14.3867C12.5558 14.386 12.4195 14.4401 12.317 14.5376C12.2145 14.6352 12.1537 14.7687 12.1475 14.9101C12.1479 14.9821 12.1627 15.0533 12.1909 15.1195C12.2192 15.1857 12.2603 15.2457 12.312 15.2958C12.3637 15.3459 12.4248 15.3852 12.4919 15.4114C12.5589 15.4377 12.6305 15.4503 12.7025 15.4485H12.7067Z" fill="white"/>
<path d="M32.0005 7.00009C31.9355 7.30175 31.8713 7.60342 31.8105 7.88675C31.4672 7.83842 31.1438 7.80342 30.8222 7.74009C30.7812 7.72667 30.7435 7.70494 30.7114 7.67625C30.6793 7.64757 30.6534 7.61256 30.6355 7.57342C29.9897 6.19425 28.9063 5.53009 27.3855 5.54092C25.7188 5.55259 24.0522 5.51009 22.3855 5.55425C21.0655 5.58925 19.9513 4.81259 19.8405 3.35175H18.7455C18.8047 3.71842 18.8613 4.06925 18.9205 4.43509C17.2063 4.84592 16.4647 5.98509 16.5547 7.70175L15.638 7.90842C15.1697 5.87425 15.5372 4.01759 16.8422 2.38759C18.1063 0.81342 19.7897 0.0350864 21.8122 0.0100864C23.103 -0.00574693 24.3955 -0.000746929 25.6847 0.0100864C28.8672 0.0334197 31.4872 2.33342 31.9422 5.48759C31.9558 5.53594 31.9754 5.58241 32.0005 5.62592V7.00009Z" fill="white"/>
<path d="M15.4375 26.5V23.19H15.7992C16.955 23.19 18.11 23.1975 19.2658 23.1817C19.4342 23.173 19.5943 23.1058 19.7183 22.9917C20.9567 21.7717 22.175 20.5317 23.4142 19.3134C24.3925 18.3509 25.9783 18.73 26.3958 20.0117C26.6067 20.66 26.495 21.2709 26.025 21.7517C24.6867 23.1217 23.3417 24.4867 21.9508 25.8025C21.6017 26.1359 21.0717 26.2734 20.625 26.5009L15.4375 26.5Z" fill="white"/>
<path d="M0 18.75C0.135 18.75 0.27 18.7608 0.405 18.7608H22.405C22.0125 19.155 21.6842 19.4942 21.3417 19.8192C21.2858 19.8717 21.1683 19.8742 21.0792 19.8742C14.0525 19.8742 7.02611 19.8742 0 19.8742L0 18.75Z" fill="white"/>
<path d="M3.3125 26.5001V25.4026H14.375V26.5001H3.3125Z" fill="white"/>
<path d="M22.875 26.5001C23.5156 25.8485 24.1567 25.1971 24.7983 24.546C25.3383 24.0001 25.8817 23.4626 26.5 22.8418V26.5001H22.875Z" fill="white"/>
<path d="M31.999 10.2502C31.8015 10.6269 31.5573 10.9519 31.1048 11.0377C31.0377 11.0461 30.97 11.0497 30.9023 11.0486V8.85107C31.4907 8.86441 31.7982 9.20691 31.999 9.68857V10.2502Z" fill="white"/>
<path d="M29.7497 10.8742C29.7497 11.7075 29.8097 12.5409 29.738 13.3692C29.5555 15.4617 27.6922 17.3784 25.6005 17.6084C24.288 17.7525 22.9522 17.815 21.6489 17.5642C19.3014 17.1125 17.6747 15.1209 17.6489 12.7309C17.628 10.9084 17.638 9.08586 17.6489 7.26336C17.6539 6.25336 18.3464 5.5517 19.3497 5.53003C19.4972 5.53413 19.6387 5.58953 19.7497 5.6867C20.3848 6.30245 21.2377 6.64188 22.1222 6.63086C23.8922 6.63086 25.6628 6.63086 27.4339 6.63086C28.8605 6.63086 29.7972 7.57086 29.8005 8.9992C29.8005 9.6242 29.8005 10.2492 29.8005 10.8742H29.7497ZM22.083 15.4509C22.848 15.4509 23.583 15.4559 24.3214 15.4509C24.5079 15.4487 24.6934 15.4238 24.8739 15.3767C25.8255 15.1267 26.5497 14.15 26.4347 13.2825H25.3964C25.2714 14.0275 24.8672 14.3717 24.1364 14.3742C23.9072 14.3742 23.6789 14.3742 23.4497 14.3742H22.083V15.4509ZM21.5097 9.39586C21.5111 9.25292 21.4842 9.11112 21.4303 8.97871C21.3764 8.8463 21.2968 8.72592 21.196 8.62457C21.0952 8.52322 20.9752 8.44293 20.8431 8.38835C20.711 8.33378 20.5693 8.30603 20.4264 8.3067C20.1371 8.30401 19.8584 8.41558 19.6509 8.61717C19.4433 8.81876 19.3237 9.0941 19.318 9.38336C19.3193 9.67683 19.4355 9.95811 19.6418 10.1669C19.8481 10.3756 20.1279 10.4952 20.4214 10.5C20.7107 10.4946 20.9863 10.3759 21.189 10.1694C21.3917 9.96295 21.5054 9.68521 21.5055 9.39586H21.5097ZM27.0514 8.3067C26.7622 8.30178 26.4829 8.41161 26.2746 8.61215C26.0663 8.81268 25.9458 9.08759 25.9397 9.3767C25.938 9.52071 25.9646 9.66366 26.0181 9.79739C26.0716 9.93111 26.1509 10.053 26.2515 10.1561C26.3521 10.2591 26.472 10.3414 26.6044 10.3981C26.7368 10.4548 26.879 10.4849 27.023 10.4867C27.1671 10.4884 27.31 10.4618 27.4437 10.4083C27.5775 10.3548 27.6993 10.2755 27.8024 10.1749C27.9055 10.0743 27.9877 9.95441 28.0445 9.82202C28.1012 9.68964 28.1313 9.54738 28.133 9.40336C28.1348 9.25977 28.108 9.11726 28.0542 8.98411C28.0004 8.85097 27.9207 8.72985 27.8196 8.62781C27.7186 8.52576 27.5983 8.44482 27.4657 8.38969C27.3331 8.33457 27.1908 8.30635 27.0472 8.3067H27.0514Z" fill="white"/>
<path d="M12.1368 21.0068C12.1368 21.441 12.1418 21.8552 12.1318 22.2693C12.129 22.3086 12.1183 22.3469 12.1002 22.3818C12.0822 22.4168 12.0572 22.4477 12.0268 22.4727C11.4034 22.906 11.0751 23.5002 11.0359 24.2793H6.64844V21.0068H12.1368Z" fill="white"/>
<path d="M14.3382 23.1985V24.2818H12.1523C12.1523 23.7302 12.5332 23.2535 13.0548 23.2035C13.474 23.1668 13.9007 23.1985 14.3382 23.1985Z" fill="white"/>
<path d="M16.5381 11.0426C15.8989 11.0151 15.4406 10.5493 15.4414 9.94759C15.4422 9.34592 15.8947 8.88676 16.5381 8.86426V11.0426Z" fill="white"/>
</svg>
