<svg width="33" height="32" viewBox="0 0 33 32" fill="none" xmlns="http://www.w3.org/2000/svg">
<path d="M22.2008 23.1925C18.7305 26.0768 13.648 26.3061 9.82658 23.1634C9.69374 23.3172 9.56363 23.4864 9.41441 23.6375C8.58917 24.4673 7.76301 25.2943 6.92775 26.1132C6.76852 26.2697 6.72576 26.3771 6.84586 26.5982C7.14423 27.1402 7.29951 27.7493 7.29703 28.368C7.29455 28.9866 7.13439 29.5945 6.83168 30.1341C6.52897 30.6736 6.0937 31.1271 5.567 31.4517C5.04029 31.7763 4.43953 31.9613 3.82147 31.9891C1.90256 32.0992 0.25206 30.648 0.020044 28.6481C-0.181946 26.8857 1.16739 25.1124 2.95345 24.783C3.80932 24.6192 4.6955 24.7592 5.45923 25.1788C5.54384 25.2243 5.71945 25.2343 5.77404 25.1788C6.73304 24.2434 7.68021 23.2926 8.6292 22.3464C8.69198 22.2836 8.7493 22.2154 8.81117 22.1517C5.65121 18.3803 6.0006 13.1576 8.81663 9.84936C8.75203 9.77839 8.68834 9.70105 8.61828 9.63099C7.71478 8.73478 6.80856 7.83765 5.91416 6.9296C5.73218 6.74763 5.61481 6.72033 5.36824 6.83861C4.00344 7.53375 2.65684 7.45095 1.43762 6.51197C0.243871 5.59119 -0.220161 4.33102 0.110121 2.85886C0.445861 1.35849 1.4267 0.403131 2.92707 0.0910467C4.38649 -0.214668 5.6412 0.256642 6.55106 1.44766C7.46093 2.63867 7.55192 3.96981 6.88044 5.31732C6.73941 5.59847 6.77671 5.73677 6.9878 5.94058C7.87674 6.80404 8.74657 7.6857 9.62641 8.56008C9.70557 8.63924 9.78837 8.71294 9.84751 8.76753C13.9829 5.7859 18.0827 5.77498 22.2581 8.78755C22.4683 8.56827 22.7048 8.31078 22.9505 8.05966C23.672 7.33176 24.3917 6.60387 25.126 5.89599C25.308 5.71402 25.3407 5.59665 25.2115 5.35553C23.9377 2.97714 25.59 0.114703 28.2923 6.00796e-05C30.2076 -0.0772786 31.8453 1.35394 32.0446 3.34928C32.2266 5.20813 30.9036 6.88866 29.083 7.21621C28.2373 7.3715 27.364 7.22873 26.6118 6.81223C26.5272 6.76674 26.3525 6.75673 26.2979 6.81223C25.277 7.81308 24.268 8.82667 23.2762 9.81479C26.2788 13.9419 26.2724 18.0345 23.2207 22.259C23.3365 22.3132 23.445 22.3817 23.5437 22.4628C24.4263 23.3321 25.3034 24.2067 26.1751 25.0869C26.3306 25.2443 26.4362 25.2907 26.66 25.1706C29.0411 23.8877 31.8645 25.4508 32.0601 28.1477C32.1975 30.0502 30.7699 31.7025 28.7527 31.9737C27.0094 32.2084 25.1851 30.8591 24.8457 29.0903C24.6709 28.226 24.8096 27.3277 25.237 26.5563C25.2825 26.4708 25.2952 26.2952 25.2424 26.2415C24.2389 25.2225 23.2235 24.2152 22.2008 23.1925ZM16.7598 19.6168C17.2356 19.6168 17.6442 19.6168 18.0518 19.6168C18.6887 19.6168 18.9407 19.3748 18.9444 18.736C18.9498 17.8868 18.9498 17.0355 18.9444 16.182C18.9444 15.5224 18.6969 15.2804 18.0345 15.2776C17.01 15.2776 15.9864 15.2776 14.9628 15.2776C14.8427 15.2776 14.7226 15.2658 14.6034 15.2594V13.8191C15.7771 13.8191 16.9235 13.8191 18.0709 13.8191C18.6168 13.8191 18.9453 13.5325 18.9362 13.0767C18.9271 12.6208 18.6204 12.3806 18.0736 12.3788C17.646 12.3788 17.2183 12.3788 16.7607 12.3788C16.7607 12.124 16.768 11.9239 16.7607 11.7182C16.7407 11.2287 16.4732 10.9348 16.051 10.9294C15.6152 10.923 15.3376 11.2242 15.3231 11.731C15.3158 11.9402 15.3231 12.1495 15.3231 12.3369C15.2806 12.3524 15.2372 12.3648 15.193 12.3742L14.0329 12.3788C13.3905 12.3788 13.144 12.6199 13.1394 13.2595C13.1339 14.1087 13.1339 14.9601 13.1394 15.8135C13.1394 16.4732 13.3869 16.7161 14.0493 16.7189C15.0729 16.7189 16.0965 16.7189 17.1201 16.7189C17.2402 16.7189 17.3603 16.7307 17.484 16.737V18.1755C16.3112 18.1755 15.1639 18.1755 14.0165 18.1755C13.4706 18.1755 13.1421 18.4603 13.1512 18.9171C13.1603 19.3738 13.466 19.614 14.012 19.6159C14.4396 19.6159 14.8682 19.6159 15.3276 19.6159C15.3276 19.8806 15.3185 20.0954 15.3276 20.3092C15.3513 20.7741 15.6243 21.0607 16.0337 21.0662C16.4586 21.0726 16.7407 20.7805 16.7616 20.2983C16.7661 20.0863 16.757 19.8724 16.757 19.6168H16.7598Z" fill="white"/>
</svg>
