<svg width="345" height="342" viewBox="0 0 345 342" fill="none" xmlns="http://www.w3.org/2000/svg">
<rect x="3.5" y="0.5" width="341" height="341" rx="170.5" fill="white" stroke="#1D2742" stroke-dasharray="5 10"/>
<rect x="9" y="68" width="30" height="30" rx="15" fill="url(#paint0_linear_354_15176)"/>
<rect x="12" y="71" width="24" height="24" rx="12" fill="white"/>
<rect x="18" y="77" width="12" height="12" rx="6" fill="url(#paint1_linear_354_15176)"/>
<rect x="301" y="68" width="30" height="30" rx="15" fill="url(#paint2_linear_354_15176)"/>
<rect x="304" y="71" width="24" height="24" rx="12" fill="white"/>
<rect x="310" y="77" width="12" height="12" rx="6" fill="url(#paint3_linear_354_15176)"/>
<rect y="224" width="30" height="30" rx="15" fill="url(#paint4_linear_354_15176)"/>
<rect x="3" y="227" width="24" height="24" rx="12" fill="white"/>
<rect x="9" y="233" width="12" height="12" rx="6" fill="url(#paint5_linear_354_15176)"/>
<rect x="315" y="224" width="30" height="30" rx="15" fill="url(#paint6_linear_354_15176)"/>
<rect x="318" y="227" width="24" height="24" rx="12" fill="white"/>
<rect x="324" y="233" width="12" height="12" rx="6" fill="url(#paint7_linear_354_15176)"/>
<defs>
<linearGradient id="paint0_linear_354_15176" x1="24" y1="68" x2="24" y2="98" gradientUnits="userSpaceOnUse">
<stop stop-color="#448AF4"/>
<stop offset="1" stop-color="#0052CF"/>
</linearGradient>
<linearGradient id="paint1_linear_354_15176" x1="24" y1="77" x2="24" y2="89" gradientUnits="userSpaceOnUse">
<stop stop-color="#448AF4"/>
<stop offset="1" stop-color="#0052CF"/>
</linearGradient>
<linearGradient id="paint2_linear_354_15176" x1="316" y1="68" x2="316" y2="98" gradientUnits="userSpaceOnUse">
<stop stop-color="#448AF4"/>
<stop offset="1" stop-color="#0052CF"/>
</linearGradient>
<linearGradient id="paint3_linear_354_15176" x1="316" y1="77" x2="316" y2="89" gradientUnits="userSpaceOnUse">
<stop stop-color="#448AF4"/>
<stop offset="1" stop-color="#0052CF"/>
</linearGradient>
<linearGradient id="paint4_linear_354_15176" x1="15" y1="224" x2="15" y2="254" gradientUnits="userSpaceOnUse">
<stop stop-color="#448AF4"/>
<stop offset="1" stop-color="#0052CF"/>
</linearGradient>
<linearGradient id="paint5_linear_354_15176" x1="15" y1="233" x2="15" y2="245" gradientUnits="userSpaceOnUse">
<stop stop-color="#448AF4"/>
<stop offset="1" stop-color="#0052CF"/>
</linearGradient>
<linearGradient id="paint6_linear_354_15176" x1="330" y1="224" x2="330" y2="254" gradientUnits="userSpaceOnUse">
<stop stop-color="#448AF4"/>
<stop offset="1" stop-color="#0052CF"/>
</linearGradient>
<linearGradient id="paint7_linear_354_15176" x1="330" y1="233" x2="330" y2="245" gradientUnits="userSpaceOnUse">
<stop stop-color="#448AF4"/>
<stop offset="1" stop-color="#0052CF"/>
</linearGradient>
</defs>
</svg>
