<svg width="54" height="54" viewBox="0 0 54 54" fill="none" xmlns="http://www.w3.org/2000/svg">
<circle cx="27" cy="27" r="21" fill="white"/>
<circle cx="27" cy="27" r="26.5" stroke="white"/>
<g clip-path="url(#clip0_1434_28529)">
<path d="M27.0946 15C27.3195 15.1075 27.3553 15.3012 27.3547 15.5285C27.3512 17.2548 27.3512 18.9811 27.3547 20.7074V20.9958H28.1515C28.1515 20.6611 28.1515 20.3281 28.1515 19.9975C28.1515 19.8255 28.1462 19.6535 28.1591 19.4826C28.1744 19.2759 28.3223 19.1303 28.5044 19.1432C28.6987 19.1573 28.8326 19.2659 28.8414 19.4667C28.8561 19.7944 28.852 20.1226 28.8543 20.4503C28.8543 20.6264 28.8543 20.8061 28.8543 20.9975H29.6399C29.6452 20.9306 29.6546 20.8636 29.6546 20.7967C29.6546 19.8983 29.6546 18.9999 29.6546 18.1015C29.6546 17.9712 29.6223 17.8966 29.4966 17.8302C29.2748 17.7185 29.0981 17.5337 28.9964 17.307C28.8947 17.0803 28.8742 16.8255 28.9383 16.5854C28.9978 16.3504 29.1334 16.1416 29.3239 15.9916C29.5144 15.8416 29.7491 15.7587 29.9915 15.7559C30.234 15.7531 30.4706 15.8305 30.6645 15.976C30.8584 16.1216 30.9988 16.3272 31.0638 16.5607C31.2029 17.064 30.9845 17.559 30.516 17.8379C30.4455 17.8796 30.3668 17.9817 30.3662 18.0563C30.3562 19.0017 30.3604 19.947 30.3609 20.8918C30.3651 20.9379 30.3715 20.9838 30.3803 21.0292C30.6739 21.0292 30.9675 21.0157 31.2611 21.0292C32.2005 21.0809 32.9967 21.8577 32.9908 22.9716C32.9908 23.1818 32.9908 23.3915 32.9908 23.6058C33.4294 23.6058 33.8551 23.624 34.2773 23.5946C34.4053 23.5858 34.5415 23.4631 34.6437 23.3598C35.3619 22.6544 36.0749 21.9425 36.7827 21.2242C36.8122 21.1896 36.8339 21.149 36.8461 21.1052C36.8584 21.0614 36.861 21.0154 36.8537 20.9705C36.6875 20.3504 36.9711 19.7627 37.5501 19.5724C38.1419 19.3769 38.7332 19.681 38.9516 20.2917C38.9664 20.3264 38.9833 20.3601 39.0021 20.3927V20.8625C38.983 20.8841 38.9667 20.9079 38.9534 20.9335C38.7085 21.57 38.1836 21.8307 37.5301 21.6557C37.485 21.6507 37.4392 21.6554 37.3961 21.6695C37.3529 21.6837 37.3133 21.7071 37.28 21.738C36.6171 22.3891 35.9471 23.035 35.3089 23.7103C34.8756 24.1695 34.3789 24.3979 33.7477 24.3486C33.5028 24.3298 33.255 24.3456 33.0084 24.3456V25.1466H33.275C33.6578 25.1466 34.0383 25.1425 34.4235 25.1466C34.7024 25.1507 34.8621 25.2834 34.865 25.4954C34.868 25.7073 34.7059 25.8406 34.4299 25.8477C34.2503 25.8524 34.0706 25.8477 33.8909 25.8477H33.0102V26.6498H33.2991C35.0253 26.6498 36.7515 26.6498 38.4778 26.6498C38.7027 26.6498 38.8988 26.6815 39.0062 26.9093V27.096C38.9005 27.3238 38.7044 27.3561 38.4778 27.3561C36.7515 27.3526 35.0253 27.3526 33.2991 27.3561H33.0108V28.1582C33.346 28.1582 33.679 28.1582 34.0089 28.1582C34.1804 28.1582 34.353 28.1535 34.5239 28.1659C34.7306 28.1817 34.8762 28.3297 34.8627 28.5117C34.8486 28.7061 34.74 28.84 34.5391 28.8488C34.1962 28.8634 33.8522 28.8587 33.5087 28.8617C33.3466 28.8617 33.1846 28.8617 33.0084 28.8617V29.6473C33.076 29.6526 33.1429 29.662 33.2098 29.662C34.1082 29.662 35.0065 29.662 35.9049 29.6649C35.9612 29.6719 36.0183 29.6602 36.0673 29.6315C36.1163 29.6029 36.1546 29.5589 36.1761 29.5064C36.2873 29.2841 36.4717 29.107 36.6982 29.0047C36.9247 28.9025 37.1795 28.8814 37.4197 28.9451C37.6551 29.0043 37.8642 29.1398 38.0145 29.3303C38.1648 29.5209 38.2478 29.7559 38.2506 29.9986C38.2533 30.2413 38.1757 30.4781 38.0297 30.672C37.8838 30.8659 37.6778 31.0061 37.4438 31.0707C36.9406 31.2098 36.4456 30.9914 36.1673 30.5222C36.1251 30.4518 36.0235 30.3737 35.9483 30.3731C35.0036 30.3631 34.0583 30.3666 33.1129 30.3678C33.0735 30.3712 33.0343 30.3767 32.9955 30.3842C32.9955 30.6103 33.0026 30.8346 32.9955 31.0578C32.9904 31.2294 32.9708 31.4003 32.9368 31.5686C32.8933 31.7735 32.7219 31.8927 32.5446 31.8557C32.3397 31.8129 32.251 31.6796 32.251 31.4688C32.2667 28.6503 32.2809 25.8318 32.2939 23.0133C32.2939 22.6475 32.2093 22.3169 31.9416 22.0533C31.8262 21.9415 31.6895 21.8541 31.5396 21.7964C31.3896 21.7386 31.2296 21.7118 31.0691 21.7174C28.3681 21.7174 25.6655 21.7174 22.961 21.7174C22.8289 21.7174 22.6974 21.7474 22.5653 21.7544C22.3304 21.7667 22.1842 21.661 22.1543 21.4649C22.1243 21.2688 22.25 21.0921 22.4866 21.0621C22.7643 21.0275 23.0467 21.0263 23.3268 21.0128C23.4196 21.0087 23.5124 21.0128 23.6169 21.0128C23.6169 20.5812 23.6345 20.1631 23.6057 19.748C23.5969 19.6182 23.4812 19.4785 23.3808 19.3763C22.6645 18.6509 21.9441 17.9318 21.2195 17.219C21.1849 17.1891 21.1441 17.1672 21.1001 17.1547C21.0561 17.1422 21.0099 17.1395 20.9647 17.1468C20.3358 17.3165 19.7422 17.0193 19.5596 16.4304C19.377 15.8414 19.6888 15.2619 20.3106 15.0452C20.3377 15.0329 20.3635 15.0177 20.3875 15H20.812C20.8302 15.0141 20.8499 15.0261 20.8707 15.0358C21.5565 15.266 21.8319 15.7857 21.6517 16.4815C21.6478 16.5266 21.6536 16.572 21.6686 16.6147C21.6836 16.6574 21.7074 16.6964 21.7386 16.7293C22.4279 17.4304 23.1223 18.1262 23.8218 18.8167C24.1741 19.1649 24.3573 19.573 24.3414 20.0721C24.332 20.3745 24.3414 20.6775 24.3414 20.9911H25.1423V20.6975C25.1423 20.3076 25.1364 19.9171 25.147 19.5266C25.1535 19.2835 25.2991 19.1361 25.4993 19.1367C25.6995 19.1373 25.8387 19.287 25.8445 19.5284C25.8528 19.8719 25.8445 20.2154 25.8445 20.5589C25.8445 20.7033 25.8445 20.8478 25.8445 20.9928H26.6466V20.6992C26.6466 18.9737 26.6466 17.2481 26.6466 15.5226C26.6466 15.2971 26.6818 15.1034 26.9073 14.9941L27.0946 15ZM21.0011 16.0945C20.998 15.9922 20.956 15.8949 20.8837 15.8225C20.8114 15.75 20.7141 15.7079 20.6118 15.7046C20.5057 15.7074 20.4047 15.7511 20.33 15.8266C20.2554 15.9021 20.2128 16.0036 20.2114 16.1098C20.2171 16.2119 20.2608 16.3082 20.3337 16.3799C20.4067 16.4515 20.5037 16.4934 20.6059 16.4973C20.6583 16.4969 20.7101 16.4861 20.7584 16.4656C20.8066 16.4451 20.8503 16.4153 20.887 16.3779C20.9237 16.3405 20.9527 16.2962 20.9723 16.2476C20.9918 16.1989 21.0016 16.1469 21.0011 16.0945ZM37.8983 21.0051C38.0003 21.0037 38.098 20.9634 38.1712 20.8923C38.2445 20.8212 38.2878 20.7249 38.2922 20.6229C38.2935 20.5709 38.2845 20.5192 38.2658 20.4707C38.2471 20.4222 38.219 20.3779 38.1832 20.3402C38.1473 20.3026 38.1044 20.2723 38.0569 20.2513C38.0094 20.2302 37.9582 20.2187 37.9062 20.2174C37.8542 20.2162 37.8025 20.2251 37.754 20.2439C37.7055 20.2626 37.6612 20.2907 37.6235 20.3265C37.5859 20.3624 37.5557 20.4053 37.5346 20.4528C37.5135 20.5003 37.502 20.5515 37.5008 20.6035C37.5003 20.656 37.5102 20.7081 37.53 20.7568C37.5498 20.8055 37.5789 20.8498 37.6159 20.8871C37.6528 20.9244 37.6968 20.9541 37.7453 20.9743C37.7937 20.9946 37.8457 21.0051 37.8983 21.0051ZM30.0133 16.458C29.9084 16.4557 29.8068 16.4951 29.7309 16.5677C29.6551 16.6402 29.6111 16.74 29.6088 16.8449C29.6065 16.9499 29.6459 17.0515 29.7185 17.1274C29.791 17.2032 29.8908 17.2472 29.9957 17.2495C30.0979 17.2505 30.1966 17.2121 30.2713 17.1424C30.3461 17.0727 30.3912 16.9769 30.3973 16.8749C30.4009 16.7689 30.3626 16.6658 30.2907 16.5878C30.2189 16.5098 30.1193 16.4632 30.0133 16.458ZM37.135 30.403C37.241 30.4031 37.3428 30.3616 37.4186 30.2875C37.4944 30.2135 37.5382 30.1127 37.5407 30.0067C37.5385 29.9045 37.4969 29.8071 37.4248 29.7347C37.3526 29.6623 37.2553 29.6205 37.1532 29.618C37.051 29.6151 36.9518 29.6521 36.8764 29.7211C36.8011 29.7902 36.7557 29.8859 36.7498 29.9879C36.7477 30.0405 36.756 30.093 36.7742 30.1423C36.7924 30.1917 36.8202 30.237 36.856 30.2756C36.8918 30.3142 36.9349 30.3453 36.9828 30.3672C37.0306 30.389 37.0824 30.4012 37.135 30.403Z" fill="#0751A0"/>
<path d="M23.6355 32.9932C22.8722 33.0144 22.1324 33.0261 21.554 32.4454C20.9757 31.8647 20.981 31.1307 21.0109 30.3785C20.5864 30.3785 20.1889 30.3574 19.7961 30.3897C19.6499 30.4014 19.4884 30.5106 19.3769 30.6198C18.6459 31.3356 17.9284 32.0655 17.2003 32.7848C17.1034 32.8799 17.1116 32.958 17.1469 33.0731C17.1896 33.2124 17.2042 33.3588 17.1897 33.5038C17.1753 33.6488 17.132 33.7895 17.0626 33.9176C16.9931 34.0457 16.8988 34.1586 16.7852 34.2499C16.6716 34.3411 16.5409 34.4087 16.4008 34.4489C16.2607 34.489 16.114 34.5008 15.9694 34.4836C15.8247 34.4663 15.6849 34.4204 15.5581 34.3485C15.4314 34.2766 15.3202 34.1802 15.2312 34.0648C15.1421 33.9495 15.077 33.8175 15.0395 33.6767C14.9996 33.5374 14.9884 33.3915 15.0064 33.2477C15.0244 33.1039 15.0713 32.9653 15.1443 32.8402C15.2174 32.715 15.315 32.6059 15.4313 32.5195C15.5476 32.4331 15.6802 32.3711 15.8211 32.3374C16.01 32.2943 16.2065 32.2971 16.3941 32.3456C16.5591 32.3902 16.6466 32.3532 16.7558 32.2428C17.431 31.5593 18.1192 30.8882 18.7903 30.2006C19.1573 29.8248 19.5841 29.6375 20.1085 29.6586C20.3962 29.6698 20.6839 29.6586 20.9892 29.6586V28.8577H19.6699C19.3105 28.8577 19.1373 28.7432 19.1338 28.5083C19.1303 28.2734 19.3041 28.156 19.6622 28.156C20.0985 28.156 20.5347 28.156 20.988 28.156V27.3539H20.6786C18.9751 27.3539 17.2723 27.3539 15.5703 27.3539C15.4686 27.3567 15.3669 27.349 15.2668 27.331C15.0906 27.2934 14.9761 27.1578 15.012 26.9951C15.0384 26.8742 15.1582 26.755 15.2668 26.6787C15.3378 26.6287 15.4635 26.6505 15.5645 26.6505C17.2672 26.6505 18.97 26.6505 20.6727 26.6505H20.988V25.8484H20.604C20.2447 25.8484 19.8853 25.8531 19.526 25.8449C19.2847 25.8396 19.1338 25.6975 19.1338 25.4996C19.1338 25.3017 19.2806 25.1561 19.5248 25.1473C19.9147 25.1367 20.3057 25.1432 20.6991 25.1426H20.9927V24.361C20.9293 24.3558 20.863 24.3452 20.7966 24.3446C19.8983 24.3446 18.9999 24.3446 18.1016 24.3446C17.973 24.3446 17.8955 24.3716 17.828 24.4996C17.7168 24.722 17.5326 24.8994 17.3061 25.0021C17.0797 25.1047 16.8248 25.1263 16.5844 25.0633C16.349 25.0043 16.1398 24.8691 15.9893 24.6788C15.8387 24.4885 15.7553 24.2538 15.7519 24.0112C15.7486 23.7686 15.8255 23.5317 15.9708 23.3373C16.116 23.143 16.3214 23.0021 16.555 22.9365C17.0576 22.7962 17.5532 23.0146 17.8332 23.4826C17.8755 23.5531 17.9765 23.6329 18.0511 23.6335C18.9964 23.6435 19.9417 23.64 20.887 23.6388C20.9264 23.6356 20.9656 23.6303 21.0045 23.6229C21.0045 23.421 20.9974 23.2201 21.0045 23.0205C21.0096 22.8255 21.0292 22.6312 21.0632 22.4392C21.1049 22.2319 21.274 22.118 21.4554 22.1526C21.6638 22.1926 21.749 22.3288 21.749 22.539C21.7329 25.3575 21.7192 28.177 21.7079 30.9974C21.7079 31.6263 22.0015 32.0725 22.5205 32.2258C22.6784 32.2697 22.8416 32.2912 23.0055 32.2898C25.6618 32.2933 28.3181 32.2933 30.9744 32.2898C31.1294 32.2898 31.2844 32.2604 31.44 32.2528C31.6748 32.2411 31.8199 32.3503 31.8475 32.5464C31.8751 32.7425 31.7553 32.9022 31.5339 32.9427C31.3568 32.9722 31.1779 32.989 30.9984 32.9932C30.7965 33.0015 30.5945 32.9932 30.3802 32.9932C30.3802 33.4213 30.3602 33.8323 30.3907 34.2404C30.4013 34.3772 30.5187 34.5258 30.6256 34.6332C31.3366 35.3578 32.0612 36.0695 32.7728 36.7941C32.8797 36.9027 32.9642 36.8792 33.0828 36.8452C33.223 36.8038 33.37 36.7908 33.5152 36.807C33.6604 36.8232 33.8009 36.8682 33.9285 36.9395C34.0561 37.0108 34.1681 37.1068 34.2581 37.222C34.348 37.3371 34.414 37.4691 34.4522 37.6102C34.4905 37.7512 34.5001 37.8985 34.4806 38.0433C34.4612 38.1881 34.4129 38.3276 34.3388 38.4535C34.2647 38.5795 34.1661 38.6893 34.049 38.7766C33.9318 38.8639 33.7984 38.9269 33.6565 38.962C33.5167 38.9999 33.3706 39.0092 33.2271 38.9893C33.0836 38.9693 32.9456 38.9206 32.8214 38.8459C32.6972 38.7712 32.5894 38.6722 32.5045 38.5549C32.4196 38.4375 32.3593 38.3041 32.3272 38.1628C32.2896 37.9728 32.2952 37.7767 32.3436 37.5891C32.3644 37.5291 32.3661 37.4642 32.3484 37.4032C32.3307 37.3422 32.2946 37.2882 32.245 37.2486C31.578 36.5897 30.9274 35.9133 30.2486 35.2656C29.8241 34.8593 29.6139 34.3919 29.6515 33.8047C29.668 33.5423 29.6515 33.2763 29.6515 33.0044H28.8559C28.8559 33.4154 28.8559 33.8218 28.8559 34.2252C28.858 34.3344 28.8533 34.4436 28.8418 34.5522C28.8172 34.7536 28.6874 34.8658 28.4931 34.8599C28.2987 34.854 28.1678 34.7372 28.1625 34.5334C28.1525 34.1195 28.1554 33.7055 28.1531 33.2915V33.005H27.3499V33.2862C27.3499 34.9973 27.3499 36.7084 27.3499 38.4194C27.3521 38.5208 27.3453 38.6222 27.3293 38.7224C27.3138 38.7989 27.2723 38.8676 27.2119 38.917C27.1515 38.9664 27.0759 38.9934 26.9979 38.9934C26.9198 38.9934 26.8442 38.9664 26.7838 38.917C26.7234 38.8676 26.6819 38.7989 26.6664 38.7224C26.6506 38.6224 26.6439 38.5212 26.6464 38.42C26.6464 36.7242 26.6464 35.0286 26.6464 33.3332V33.0114H25.8438C25.8438 33.4266 25.8438 33.8388 25.8438 34.251C25.8463 34.3602 25.8414 34.4695 25.8291 34.5781C25.8039 34.7613 25.6741 34.8534 25.5056 34.8587C25.3371 34.864 25.1938 34.7783 25.168 34.5974C25.1473 34.4193 25.1387 34.24 25.1422 34.0607C25.1386 33.7172 25.1422 33.3737 25.1422 33.0114H24.353C24.3483 33.0819 24.3401 33.15 24.3401 33.2181C24.3401 34.1089 24.3401 34.9996 24.3372 35.8904C24.3372 36.0296 24.3689 36.1088 24.5045 36.1805C24.7265 36.2932 24.9026 36.4794 25.0028 36.7073C25.103 36.9352 25.1211 37.1908 25.0541 37.4306C24.9925 37.6653 24.855 37.8731 24.663 38.0215C24.4711 38.1699 24.2353 38.2506 23.9927 38.251C23.75 38.2514 23.514 38.1715 23.3216 38.0237C23.1291 37.876 22.9909 37.6686 22.9286 37.4341C22.7976 36.9356 23.0131 36.4453 23.4705 36.1752C23.5392 36.1347 23.6279 36.0495 23.6285 35.9844C23.639 35.002 23.6355 34.0179 23.6355 32.9932ZM16.4945 33.3878C16.4898 33.2854 16.4455 33.1888 16.371 33.1183C16.2965 33.0478 16.1976 33.0089 16.0951 33.0099C15.9926 33.0108 15.8944 33.0514 15.8211 33.1232C15.7479 33.195 15.7054 33.2924 15.7024 33.3949C15.7072 33.4971 15.7494 33.5939 15.8212 33.6668C15.8929 33.7398 15.9891 33.7836 16.0911 33.79C16.1973 33.7881 16.2986 33.7451 16.3738 33.6702C16.449 33.5952 16.4923 33.494 16.4945 33.3878ZM33.3835 38.2979C33.4355 38.2983 33.4871 38.2885 33.5354 38.2689C33.5836 38.2494 33.6276 38.2206 33.6647 38.1841C33.7018 38.1476 33.7313 38.1041 33.7516 38.0562C33.7719 38.0083 33.7826 37.9568 33.783 37.9047C33.7835 37.8527 33.7736 37.8011 33.7541 37.7528C33.7346 37.7046 33.7057 37.6606 33.6692 37.6235C33.6327 37.5864 33.5893 37.5569 33.5414 37.5366C33.4934 37.5163 33.442 37.5056 33.3899 37.5052C33.2848 37.5043 33.1837 37.5452 33.1087 37.619C33.0338 37.6927 32.9912 37.7932 32.9904 37.8983C32.9895 38.0034 33.0305 38.1046 33.1042 38.1795C33.1779 38.2544 33.2784 38.297 33.3835 38.2979ZM17.2455 23.9964C17.2441 23.8902 17.2007 23.789 17.1247 23.7148C17.0488 23.6406 16.9465 23.5995 16.8404 23.6006C16.7384 23.606 16.6422 23.6495 16.5707 23.7225C16.4993 23.7954 16.4578 23.8926 16.4546 23.9946C16.4559 24.0967 16.4966 24.1944 16.5681 24.2672C16.6396 24.3401 16.7365 24.3825 16.8386 24.3857C16.8911 24.3877 16.9435 24.3792 16.9926 24.3606C17.0417 24.342 17.0866 24.3137 17.1246 24.2773C17.1626 24.241 17.1928 24.1974 17.2136 24.1492C17.2344 24.1009 17.2452 24.0489 17.2455 23.9964ZM24.0019 36.7553C23.8956 36.7541 23.7932 36.7949 23.7169 36.869C23.6407 36.943 23.5969 37.0442 23.595 37.1505C23.5982 37.2532 23.6398 37.351 23.7115 37.4246C23.7832 37.4982 23.8799 37.5422 23.9825 37.548C24.0848 37.5494 24.1837 37.5111 24.2583 37.4411C24.333 37.3711 24.3777 37.275 24.383 37.1728C24.3866 37.1201 24.3796 37.0672 24.3622 37.0173C24.3448 36.9674 24.3175 36.9215 24.2818 36.8825C24.2462 36.8434 24.203 36.812 24.1549 36.7902C24.1068 36.7683 24.0547 36.7565 24.0019 36.7553Z" fill="#0751A0"/>
<path d="M26.9938 30.5605C26.6921 30.875 26.2851 31.0671 25.8506 31.1001C24.9657 31.1735 24.1825 30.5353 24.1238 29.7731C24.1129 29.6906 24.0709 29.6154 24.0063 29.5629C23.2589 29.0039 23.0193 27.9857 23.5618 27.1666C23.5772 27.1354 23.5849 27.1011 23.5843 27.0663C23.5837 27.0316 23.5748 26.9975 23.5583 26.967C22.9506 26.129 23.317 24.9365 24.3997 24.526C24.4496 24.5067 24.4989 24.4849 24.5588 24.4603C24.4719 23.8202 24.7027 23.334 25.2852 23.0551C25.8976 22.7615 26.4671 22.879 26.9292 23.2642C27.2815 23.1379 27.5886 22.9706 27.9133 22.9218C28.8175 22.7897 29.5761 23.5542 29.4399 24.3352C29.414 24.4826 29.5156 24.4931 29.6096 24.5331C30.249 24.8014 30.66 25.2541 30.7193 25.967C30.7371 26.1581 30.7156 26.3509 30.6563 26.5334C30.5969 26.716 30.5008 26.8845 30.374 27.0286C30.2783 27.1413 30.2566 27.2142 30.3623 27.3422C30.9324 28.0421 30.8226 29.0015 30.108 29.5611C29.9653 29.6629 29.8657 29.8143 29.8286 29.9857C29.6612 30.6727 28.9009 31.1759 28.1845 31.1013C27.6584 31.0485 27.4788 30.968 26.9938 30.5605ZM24.3281 28.8818C24.3868 28.8113 24.4455 28.7391 24.5072 28.6721C24.654 28.5154 24.8624 28.496 25.008 28.6222C25.0429 28.651 25.0717 28.6865 25.0926 28.7266C25.1134 28.7667 25.1261 28.8107 25.1296 28.8558C25.1332 28.9009 25.1276 28.9462 25.1133 28.9891C25.099 29.032 25.0761 29.0716 25.0462 29.1055C24.9029 29.2893 24.7872 29.4748 24.8248 29.7226C24.8835 30.1184 25.2716 30.4126 25.7337 30.4096C26.1958 30.4067 26.5933 30.116 26.6274 29.7132C26.6462 29.4174 26.6462 29.1206 26.6274 28.8248C26.6151 28.55 26.4512 28.3674 26.2164 28.2376C26.1424 28.1953 26.0602 28.1666 25.9862 28.1231C25.947 28.1043 25.912 28.0778 25.8832 28.0453C25.8543 28.0127 25.8323 27.9747 25.8184 27.9335C25.8045 27.8923 25.799 27.8487 25.8022 27.8053C25.8054 27.762 25.8173 27.7197 25.8371 27.681C25.914 27.4978 26.0719 27.4373 26.2639 27.4925C26.3814 27.5265 26.4935 27.5812 26.6421 27.6405V27.3662C26.6421 26.8507 26.6391 26.3351 26.6421 25.819C26.6421 25.5254 26.7795 25.361 26.9991 25.3651C27.2187 25.3692 27.3355 25.5284 27.3437 25.8084C27.3437 25.9083 27.3437 26.0075 27.3437 26.1396C27.4163 26.1042 27.4913 26.0738 27.568 26.0486C27.7848 25.9888 28.0052 25.9432 28.228 25.9124C28.2728 25.9053 28.3187 25.9078 28.3625 25.9197C28.4064 25.9316 28.4472 25.9526 28.4824 25.9814C28.5175 26.0101 28.5462 26.046 28.5665 26.0866C28.5868 26.1273 28.5983 26.1717 28.6002 26.2171C28.619 26.4103 28.5098 26.5471 28.2978 26.5923C28.2444 26.6041 28.1898 26.6111 28.1358 26.6188C27.6126 26.6892 27.3472 26.9863 27.3449 27.5148C27.3418 28.1803 27.3418 28.8444 27.3449 29.5071C27.3449 29.951 27.5287 30.2153 27.9138 30.3497C28.299 30.4842 28.7605 30.375 29.0071 30.079C29.121 29.9476 29.1794 29.7772 29.1701 29.6036C29.1608 29.43 29.0845 29.2668 28.9572 29.1483C28.8498 29.0586 28.7314 28.9828 28.6049 28.9229C28.3701 28.7954 28.2826 28.6293 28.3642 28.4355C28.4458 28.2417 28.6683 28.1542 28.8985 28.2899C29.1997 28.466 29.4722 28.6945 29.7663 28.9064C30.1709 28.5159 30.1039 27.9364 29.5649 27.5618C29.2056 27.3122 29.1962 27.0738 29.5456 26.8378C29.8685 26.6193 30.0646 26.3381 30 25.9353C29.9337 25.5195 29.6542 25.2894 29.2714 25.1631C28.9684 25.0639 28.673 25.1109 28.3759 25.2007C28.2902 25.2312 28.1959 25.2267 28.1134 25.1881C28.031 25.1495 27.9671 25.08 27.9356 24.9946C27.8698 24.8073 27.9549 24.6241 28.1599 24.5419C28.2733 24.489 28.3944 24.4545 28.5186 24.4397C28.7488 24.4274 28.777 24.2818 28.7353 24.1191C28.7065 23.9914 28.641 23.8748 28.5468 23.7838C28.0976 23.4016 27.4617 23.6229 27.3396 24.1984C27.2967 24.4015 27.1975 24.529 26.9814 24.5249C26.7765 24.5202 26.6738 24.3968 26.645 24.2019C26.6415 24.179 26.6338 24.1561 26.6303 24.1332C26.5886 23.8332 26.3814 23.6928 26.1172 23.6259C25.9772 23.5837 25.8278 23.5856 25.689 23.6312C25.5501 23.6767 25.4286 23.7639 25.3409 23.8807C25.1648 24.1021 25.2282 24.3229 25.3697 24.5501C25.5306 24.8079 25.4032 25.0428 25.0978 25.0944C25.0209 25.1073 24.9423 25.1115 24.863 25.125C24.5324 25.1837 24.2623 25.3405 24.0844 25.6323C23.8907 25.9494 23.9265 26.3211 24.1637 26.5718C24.3398 26.5037 24.5113 26.4273 24.6886 26.371C24.9411 26.2905 25.1301 26.3669 25.1977 26.56C25.2711 26.7708 25.1618 26.9376 24.9082 27.0386C24.732 27.1108 24.54 27.1819 24.3897 27.2981C23.8566 27.7115 23.8261 28.4467 24.3281 28.8806V28.8818Z" fill="#0751A0"/>
</g>
<defs>
<clipPath id="clip0_1434_28529">
<rect width="24" height="24" fill="white" transform="translate(15 15)"/>
</clipPath>
</defs>
</svg>
