<svg width="54" height="54" viewBox="0 0 54 54" fill="none" xmlns="http://www.w3.org/2000/svg">
<circle cx="27" cy="27" r="21" fill="white"/>
<circle cx="27" cy="27" r="26.5" stroke="white"/>
<path d="M25.084 38.9996C24.6407 38.8053 24.4751 38.4635 24.5115 37.9879C24.5356 37.6703 24.5156 37.3491 24.5156 36.9897C24.3394 36.9897 24.1803 36.9933 24.02 36.9897C23.5503 36.9774 23.2297 36.6962 23.1909 36.2364C23.1728 35.9405 23.1739 35.6438 23.1945 35.348C23.2074 35.0627 23.3583 34.8566 23.599 34.7021C23.6326 34.6754 23.6604 34.6421 23.6806 34.6042C23.7007 34.5663 23.713 34.5247 23.7165 34.4819C23.7294 34.1696 23.7112 33.8566 23.7259 33.5425C23.7335 33.3828 23.6748 33.3076 23.5356 33.2454C22.436 32.7446 21.4703 31.9912 20.7172 31.0464C19.4753 29.4928 18.8723 27.7207 18.934 25.7267C18.972 24.051 19.5471 22.4318 20.5745 21.1074C21.7142 19.6166 23.2015 18.6401 25.0282 18.1951C26.4777 17.8367 28 17.9071 29.4102 18.3976C29.5635 18.4499 29.6891 18.4669 29.8477 18.3783C30.0767 18.2503 30.3045 18.3284 30.4936 18.4986C30.6094 18.6034 30.7197 18.7142 30.8241 18.8304C30.911 18.9261 30.9868 18.9672 31.1254 18.9097C31.2639 18.8521 31.2886 18.7687 31.2833 18.6407C31.2763 18.4845 31.2757 18.3278 31.2833 18.171C31.3021 17.8105 31.5405 17.5744 31.8987 17.5692C32.305 17.5629 32.7113 17.5629 33.1176 17.5692C33.4793 17.575 33.7095 17.8075 33.7236 18.1733C33.7294 18.3213 33.7312 18.4705 33.7236 18.6184C33.7171 18.7535 33.7371 18.8451 33.8868 18.9079C34.0365 18.9707 34.1164 18.9079 34.2056 18.8092C34.305 18.6991 34.4102 18.5944 34.5209 18.4957C34.7969 18.2608 35.0993 18.2544 35.3635 18.5033C35.6694 18.7934 35.9677 19.0946 36.2566 19.4035C36.485 19.646 36.4756 19.9765 36.249 20.2255C36.1498 20.3359 36.0441 20.441 35.936 20.5426C35.828 20.6442 35.7675 20.7146 35.8374 20.879C35.9073 21.0434 36.0206 21.0387 36.1539 21.037C36.2871 21.0352 36.4351 21.0329 36.576 21.037C36.9072 21.0487 37.1579 21.2783 37.1685 21.61C37.182 22.0393 37.1814 22.4697 37.1685 22.9018C37.1585 23.2471 36.909 23.4772 36.5631 23.489C36.4149 23.4966 36.2663 23.4966 36.118 23.489C35.976 23.4784 35.8937 23.5166 35.8333 23.6598C35.7728 23.8031 35.8162 23.873 35.9108 23.9605C36.0311 24.0715 36.1456 24.1889 36.256 24.3128C36.4715 24.5535 36.4827 24.8847 36.2631 25.119C35.9695 25.4331 35.6718 25.7443 35.3506 26.0285C35.2209 26.1459 35.0253 26.1853 34.8157 26.2798C34.7987 26.4777 34.7811 26.7325 34.7517 26.9844C34.7223 27.2363 34.572 27.369 34.3536 27.3414C34.1534 27.3161 34.0448 27.1529 34.06 26.9081C34.0812 26.5499 34.1023 26.1911 34.1187 25.833C34.1157 25.75 34.1062 25.6673 34.0906 25.5858C33.7383 25.6392 33.7277 25.6521 33.7265 25.9598C33.7265 26.1007 33.7306 26.2416 33.723 26.3814C33.7048 26.7178 33.4717 26.9515 33.1358 26.9568C32.7219 26.9644 32.3073 26.9633 31.8934 26.9568C31.5475 26.9521 31.3062 26.7219 31.2839 26.3737C31.2727 26.1976 31.2968 26.0126 31.2727 25.8359C31.2633 25.792 31.2442 25.7507 31.2168 25.7151C31.1894 25.6796 31.1543 25.6506 31.1142 25.6304C31.0713 25.6184 31.0264 25.616 30.9825 25.6232C30.9386 25.6304 30.8967 25.647 30.86 25.6721C30.7302 25.7695 30.6251 25.9034 30.5077 26.0138C30.2299 26.2663 29.9205 26.2763 29.6492 26.0208C29.3427 25.7314 29.0468 25.4302 28.7573 25.1231C28.6531 25.0146 28.5945 24.8702 28.5936 24.7197C28.5927 24.5693 28.6497 24.4242 28.7526 24.3145C28.8603 24.1901 28.9756 24.0724 29.0979 23.9622C29.2059 23.8659 29.2265 23.7785 29.1707 23.6375C29.1149 23.4966 29.0227 23.4831 28.8994 23.4872C28.7356 23.4919 28.5712 23.4931 28.4074 23.4872C28.2612 23.4822 28.1224 23.4219 28.0191 23.3185C27.9157 23.215 27.8555 23.0761 27.8507 22.93C27.8401 22.4849 27.8396 22.0393 27.8507 21.5942C27.8575 21.4482 27.9194 21.3102 28.0239 21.208C28.1284 21.1058 28.2677 21.047 28.4138 21.0434C28.5694 21.0358 28.7262 21.037 28.8835 21.0434C29.0133 21.0469 29.1143 21.0434 29.1771 20.8861C29.2323 20.7404 29.2012 20.6559 29.0955 20.5625C28.9912 20.4682 28.8916 20.3686 28.7972 20.2643C28.5318 19.9807 28.5289 19.6471 28.7972 19.37C28.8997 19.2741 29.0069 19.1833 29.1184 19.0981L29.0908 19.0136C28.7074 18.9284 28.3275 18.8163 27.9406 18.7623C26.3969 18.545 24.9196 18.7723 23.5368 19.5056C21.9432 20.3429 20.7883 21.6059 20.1412 23.2882C19.3192 25.4266 19.4472 27.5299 20.5481 29.5462C21.2928 30.937 22.4889 32.0328 23.9396 32.6529C24.3036 32.812 24.4633 33.0105 24.4299 33.4092C24.3988 33.7891 24.4234 34.1725 24.4234 34.5747H24.8838V32.0969C24.8421 32.0881 24.7916 32.0751 24.7399 32.0669C24.6029 32.0508 24.4764 31.9858 24.3835 31.8839C24.2906 31.782 24.2376 31.6499 24.2343 31.512C24.2246 31.1989 24.2246 30.8857 24.2343 30.5726C24.2336 30.4962 24.248 30.4204 24.2769 30.3497C24.3058 30.279 24.3485 30.2148 24.4025 30.1608C24.4566 30.1068 24.5208 30.0642 24.5916 30.0354C24.6623 30.0066 24.7381 29.9922 24.8145 29.993C25.1034 29.9848 25.3928 29.986 25.6817 29.993C26.034 30.0007 26.2759 30.2279 26.2918 30.5743C26.3053 30.8785 26.3053 31.1844 26.2918 31.4886C26.2759 31.8409 26.0839 32.0082 25.6242 32.0963V34.5777H26.6764V31.8667C26.6764 31.8121 26.6764 31.7575 26.6764 31.7029C26.6846 31.4445 26.8155 31.2919 27.0287 31.2966C27.2418 31.3013 27.3739 31.4516 27.3775 31.7105C27.3822 32.0851 27.3775 32.4603 27.3775 32.8355V34.5788H28.0821C28.0913 34.5359 28.0974 34.4923 28.1003 34.4485C28.1003 33.6358 28.1061 32.8232 28.0956 32.0106C28.0928 31.8871 28.0469 31.7684 27.9658 31.6753C27.1314 30.8198 26.2871 29.9725 25.4445 29.1252C25.4319 29.1163 25.4183 29.1088 25.404 29.1029C24.8597 29.3571 24.7622 29.3378 24.3306 28.9033C24.1932 28.7647 24.0529 28.6285 23.9196 28.4864C23.6707 28.2216 23.6654 27.8892 23.9108 27.6273C24.1034 27.4224 24.3013 27.2222 24.5056 27.029C24.7957 26.7542 25.1028 26.753 25.3981 27.0255C25.5584 27.1735 25.7076 27.3343 25.8614 27.4899C26.253 27.8863 26.2654 28.1394 25.8996 28.5756C25.9548 28.6343 26.0099 28.6931 26.0687 28.7518C26.8443 29.5339 27.6158 30.3201 28.4003 31.094C28.5351 31.218 28.6413 31.3698 28.7118 31.5389C28.7822 31.708 28.8152 31.8903 28.8084 32.0734C28.7943 32.8156 28.8043 33.5577 28.8043 34.2999V34.5712H29.2957V30.6836C28.7473 30.572 28.6193 30.4111 28.6187 29.838C28.6187 29.6272 28.6129 29.4159 28.6187 29.2051C28.6328 28.8122 28.8595 28.5833 29.2505 28.5709C29.5159 28.5621 29.7819 28.5627 30.0473 28.5709C30.4419 28.5821 30.6691 28.8058 30.6832 29.1992C30.6908 29.4253 30.6832 29.6519 30.6832 29.8785C30.6832 30.407 30.5423 30.5779 30.0279 30.6806V32.5807C30.4078 32.3458 30.7631 32.1532 31.0848 31.9195C32.0098 31.257 32.7631 30.3832 33.282 29.3706C33.3292 29.2722 33.3813 29.1761 33.4382 29.0829C33.5509 28.9115 33.7412 28.8592 33.905 28.9461C34.0782 29.0377 34.1463 29.2321 34.0354 29.4305C33.7929 29.8662 33.5609 30.3113 33.272 30.7164C32.4936 31.8102 31.4404 32.6792 30.2188 33.236C30.0614 33.3082 30.0015 33.3974 30.0103 33.5724C30.0262 33.876 30.0068 34.1819 30.0203 34.4861C30.0239 34.5285 30.0362 34.5697 30.0564 34.6072C30.0766 34.6446 30.1043 34.6776 30.1377 34.7039C30.4313 34.88 30.5441 35.1466 30.557 35.4672C30.5658 35.6933 30.5652 35.9205 30.557 36.1466C30.5382 36.6621 30.2076 36.9803 29.688 36.9903C29.5418 36.9933 29.3944 36.9903 29.2182 36.9903C29.2182 37.3426 29.2 37.6679 29.2223 37.9926C29.2552 38.4676 29.0914 38.8111 28.6416 38.9984L25.084 38.9996ZM31.9773 18.2878C32.0126 18.8233 32.0237 19.3066 31.3955 19.5702C30.7549 19.8397 30.439 19.4528 30.1213 19.1181L29.3445 19.8309C29.7614 20.1832 30.0855 20.5291 29.8312 21.1538C29.577 21.7786 29.072 21.751 28.5676 21.741V22.7809C29.0585 22.7809 29.5241 22.7262 29.7966 23.2911C30.1072 23.937 29.7966 24.3257 29.3562 24.6827L30.0972 25.436C30.4442 25.052 30.7672 24.6874 31.4066 24.9563C32.046 25.2252 31.9938 25.7196 31.9856 26.2316H33.0313C32.992 25.6826 33.0066 25.2088 33.6314 24.9475C34.2708 24.6792 34.5826 25.0861 34.9014 25.4096L35.6648 24.6944C35.2778 24.3421 34.9173 24.0074 35.1803 23.3751C35.4434 22.7427 35.9296 22.7603 36.4557 22.7844V21.7375C35.9161 21.7639 35.434 21.7615 35.1756 21.135C34.9138 20.4985 35.2966 20.1744 35.6689 19.8186L34.9179 19.0858C34.5826 19.451 34.2632 19.8333 33.6232 19.569C32.9832 19.3048 33.0078 18.8057 33.0231 18.2849L31.9773 18.2878ZM26.869 36.291H29.1865C29.8653 36.291 29.8653 36.291 29.8624 35.6122C29.8624 35.3057 29.8547 35.2993 29.5435 35.2993H24.5784C23.8633 35.2993 23.8685 35.2993 23.8738 36.0285C23.8738 36.2323 23.9472 36.2975 24.1498 36.2957C25.0564 36.2834 25.9618 36.2881 26.8672 36.2881L26.869 36.291ZM25.2378 37.9762C25.2073 38.2985 25.2073 38.2991 25.4956 38.2991H28.2553C28.5418 38.2991 28.5453 38.2938 28.4931 37.9762H25.2378ZM25.2308 37.2457H28.5189L28.5054 37.0109H25.229L25.2308 37.2457ZM24.9231 28.4969L25.3711 28.046L24.9472 27.6315L24.4974 28.0754L24.9231 28.4969ZM29.9616 29.9449V29.2755C29.7993 29.2691 29.6369 29.2711 29.4748 29.2814C29.4427 29.2884 29.4127 29.3033 29.3877 29.3247C29.3627 29.3461 29.3434 29.3734 29.3316 29.4041C29.3145 29.5803 29.3245 29.7564 29.3245 29.9449H29.9616ZM25.5784 31.3617V30.7158H24.946V31.3617H25.5784Z" fill="#0751A0"/>
<path d="M27.3793 26.5869V28.4946C27.3793 28.565 27.3829 28.6355 27.3793 28.7054C27.3617 28.9402 27.219 29.0829 27.013 29.0753C26.8069 29.0677 26.6824 28.9291 26.6806 28.6995C26.6747 28.0906 26.6806 27.4823 26.6777 26.8734V26.5863C26.6254 26.5722 26.5826 26.5569 26.5385 26.5487C26.1921 26.4853 26.0036 26.2792 25.9919 25.9263C25.9825 25.6456 25.9813 25.3644 25.9919 25.0837C26.0071 24.7003 26.2537 24.4713 26.6378 24.4672C26.9108 24.4672 27.1838 24.4619 27.4598 24.4672C27.5364 24.4659 27.6124 24.4798 27.6836 24.508C27.7548 24.5362 27.8197 24.5782 27.8746 24.6316C27.9296 24.6849 27.9734 24.7486 28.0037 24.8189C28.034 24.8893 28.0501 24.9649 28.0511 25.0414C28.0628 25.2669 28.0564 25.4936 28.0564 25.7196C28.0564 26.3162 27.9671 26.4336 27.3793 26.5869ZM27.3412 25.8365V25.1841H26.7029V25.8365H27.3412Z" fill="#0751A0"/>
<path d="M23.8049 23.6723C23.9294 23.6723 24.0544 23.6723 24.1789 23.6723C24.577 23.6793 24.8154 23.9071 24.8277 24.3117C24.836 24.5857 24.836 24.8584 24.8277 25.1296C24.8148 25.5213 24.587 25.7491 24.1959 25.762C23.9311 25.7708 23.6675 25.7702 23.4009 25.762C23.0087 25.7497 22.7785 25.523 22.7644 25.1337C22.755 24.8613 22.7562 24.5883 22.7644 24.3158C22.7756 23.9048 23.0157 23.6764 23.432 23.6699C23.5553 23.6711 23.6804 23.6723 23.8049 23.6723ZM24.1126 24.388H23.4837V25.0451H24.1126V24.388Z" fill="#0751A0"/>
<path d="M25.3848 23.0623C25.2445 23.0623 25.1042 23.0658 24.9644 23.0623C24.6209 23.0511 24.3819 22.8156 24.3731 22.4692C24.3655 22.1657 24.3649 21.8615 24.3731 21.5573C24.3723 21.483 24.3861 21.4093 24.4138 21.3403C24.4415 21.2713 24.4826 21.2085 24.5346 21.1554C24.5867 21.1023 24.6487 21.0601 24.7171 21.031C24.7855 21.0019 24.859 20.9866 24.9333 20.986C25.2369 20.9731 25.5416 20.9737 25.8446 20.986C25.9992 20.9851 26.1478 21.0455 26.2579 21.1541C26.368 21.2626 26.4305 21.4104 26.4317 21.565C26.4453 21.8685 26.4453 22.1733 26.4317 22.4769C26.4159 22.8292 26.1663 23.0576 25.8058 23.064C25.6655 23.0646 25.5252 23.0623 25.3848 23.0623ZM25.7201 21.6983H25.093V22.3442H25.7201V21.6983Z" fill="#0751A0"/>
<path d="M27.3781 15.848C27.3781 16.0041 27.3864 16.1603 27.3781 16.3177C27.3635 16.5332 27.2102 16.6823 27.0258 16.68C26.8415 16.6776 26.687 16.5267 26.6794 16.3065C26.672 15.9934 26.672 15.682 26.6794 15.3723C26.687 15.151 26.8274 15.0042 27.0188 15.0001C27.2102 14.996 27.3541 15.141 27.3775 15.3583C27.3784 15.3737 27.3784 15.3892 27.3775 15.4046C27.3775 15.5526 27.3775 15.7004 27.3775 15.848H27.3781Z" fill="#0751A0"/>
<path d="M17.2494 25.5286C16.9487 25.4916 16.6469 25.4622 16.3475 25.4164C16.1126 25.38 15.9764 25.2168 16.0034 25.026C16.0304 24.8351 16.2007 24.7019 16.4314 24.7253C16.7327 24.7559 17.0339 24.7905 17.3333 24.8351C17.5582 24.8686 17.6856 25.023 17.6662 25.2115C17.6469 25.41 17.4725 25.5433 17.2494 25.5286Z" fill="#0751A0"/>
<path d="M21.9718 18.0835C21.9189 18.1422 21.8544 18.2814 21.7504 18.3183C21.6465 18.3553 21.4568 18.3283 21.3981 18.2549C21.1616 17.9481 20.9501 17.6227 20.7657 17.282C20.7235 17.2027 20.8016 16.9931 20.8873 16.9297C20.973 16.8663 21.2132 16.8504 21.2601 16.9115C21.5138 17.2403 21.7299 17.5991 21.9559 17.9484C21.9671 17.9666 21.9618 17.9948 21.9718 18.0835Z" fill="#0751A0"/>
<path d="M17.0799 21.6348C17.2208 21.6841 17.303 21.7082 17.3811 21.7416C17.6383 21.8503 17.8978 21.9554 18.1503 22.0757C18.3535 22.1726 18.4263 22.3587 18.3452 22.5361C18.2548 22.7345 18.0845 22.7897 17.8984 22.7199C17.5866 22.6024 17.2813 22.465 16.9801 22.3212C16.8139 22.2419 16.7299 22.0828 16.8098 21.9137C16.8656 21.7956 16.9977 21.7152 17.0799 21.6348Z" fill="#0751A0"/>
<path d="M16.5353 28.5671C16.3093 28.5636 16.1766 28.4772 16.1384 28.2935C16.099 28.0997 16.183 27.9412 16.3733 27.8959C16.7126 27.8155 17.0573 27.7533 17.4026 27.7069C17.5957 27.681 17.7349 27.7903 17.7707 27.987C17.8065 28.1837 17.7149 28.3346 17.5247 28.3786C17.1847 28.4579 16.8389 28.5107 16.5353 28.5671Z" fill="#0751A0"/>
<path d="M23.5742 15.9249C23.5742 15.6701 23.657 15.5485 23.8296 15.5033C24.0023 15.4581 24.1608 15.5145 24.2183 15.6794C24.342 16.0307 24.447 16.3882 24.5331 16.7504C24.5736 16.9207 24.465 17.054 24.2982 17.1027C24.1314 17.1515 23.9653 17.1086 23.9036 16.9419C23.7721 16.5854 23.6693 16.2167 23.5742 15.9249Z" fill="#0751A0"/>
<path d="M19.8445 19.8925C19.8521 20.199 19.5621 20.3922 19.3424 20.2372C19.0463 20.0207 18.7645 19.7853 18.4987 19.5326C18.3695 19.4151 18.3813 19.2448 18.4834 19.1033C18.5856 18.9618 18.7629 18.906 18.8974 19.0053C19.2097 19.2354 19.4986 19.4985 19.7905 19.7557C19.831 19.7927 19.8357 19.8684 19.8445 19.8925Z" fill="#0751A0"/>
<path d="M17.4827 31.6223C17.3558 31.5049 17.2091 31.4321 17.1891 31.334C17.1644 31.2125 17.202 31.0029 17.2871 30.9483C17.6015 30.7496 17.9335 30.5804 18.2789 30.4427C18.3699 30.4063 18.5689 30.485 18.6312 30.5725C18.6934 30.66 18.7022 30.9042 18.6429 30.9436C18.2818 31.1843 17.8931 31.388 17.4827 31.6223Z" fill="#0751A0"/>
<path d="M20.0846 32.7266C20.1604 32.7888 20.2954 32.844 20.3295 32.9415C20.3676 33.0466 20.3606 33.2262 20.2931 33.302C20.0516 33.5646 19.7943 33.8123 19.5227 34.0436C19.3794 34.1692 19.2127 34.1375 19.0811 34.0072C18.9496 33.8768 18.925 33.7101 19.0418 33.5856C19.3013 33.3084 19.5855 33.0571 19.8638 32.7988C19.9049 32.7612 19.9783 32.7594 20.0846 32.7266Z" fill="#0751A0"/>
<path d="M30.0879 22.2724C30.0854 21.8926 30.1718 21.5176 30.3404 21.1773C30.509 20.837 30.755 20.541 31.0587 20.3129C31.3623 20.0849 31.7152 19.9312 32.089 19.8643C32.4628 19.7973 32.8471 19.8189 33.2111 19.9272C33.4724 20.0024 33.5869 20.1715 33.5246 20.3888C33.4659 20.5866 33.2833 20.6788 33.0285 20.6054C32.7968 20.5333 32.5524 20.511 32.3115 20.54C32.0706 20.5689 31.8385 20.6484 31.6304 20.7734C30.8977 21.1967 30.5847 22.1826 30.9341 22.9588C31.1058 23.3577 31.4226 23.6766 31.8205 23.851C32.2183 24.0254 32.6674 24.0423 33.0772 23.8983C33.8711 23.6358 34.369 22.7462 34.1928 21.916C34.1782 21.8473 34.1582 21.7798 34.1459 21.7111C34.1077 21.4932 34.2099 21.3182 34.3983 21.2754C34.5956 21.2308 34.7647 21.3306 34.8264 21.5425C34.9886 22.0616 34.971 22.6201 34.7765 23.1279C34.2985 24.3703 32.9246 25.0068 31.6927 24.56C31.2252 24.3858 30.8216 24.0738 30.535 23.6654C30.2485 23.257 30.0926 22.7713 30.0879 22.2724Z" fill="#0751A0"/>
<path d="M32.5048 21.0332C32.7482 21.0326 32.9864 21.1044 33.189 21.2395C33.3915 21.3745 33.5494 21.5667 33.6426 21.7916C33.7357 22.0166 33.7599 22.2642 33.7121 22.5029C33.6642 22.7416 33.5465 22.9607 33.3739 23.1324C33.2013 23.3041 32.9816 23.4207 32.7426 23.4672C32.5036 23.5138 32.2562 23.4883 32.0317 23.394C31.8073 23.2997 31.6159 23.1408 31.482 22.9375C31.348 22.7342 31.2775 22.4956 31.2793 22.2522C31.2806 21.9281 31.4103 21.6178 31.64 21.3893C31.8697 21.1608 32.1807 21.0327 32.5048 21.0332ZM32.5048 22.7836C32.6435 22.785 32.7771 22.7312 32.8762 22.6341C32.9753 22.5369 33.0318 22.4044 33.0332 22.2657C33.0346 22.1269 32.9808 21.9933 32.8837 21.8942C32.7866 21.7951 32.6541 21.7386 32.5153 21.7372C32.4466 21.7365 32.3785 21.7494 32.3147 21.775C32.251 21.8007 32.1929 21.8386 32.1438 21.8867C32.0447 21.9838 31.9883 22.1164 31.9869 22.2551C31.9855 22.3939 32.0392 22.5275 32.1364 22.6266C32.2335 22.7257 32.366 22.7822 32.5048 22.7836Z" fill="#0751A0"/>
</svg>
