<svg width="54" height="54" viewBox="0 0 54 54" fill="none" xmlns="http://www.w3.org/2000/svg">
<circle cx="27" cy="27" r="21" fill="white"/>
<circle cx="27" cy="27" r="26.5" stroke="white"/>
<path d="M27.7934 27.4359H38.3988C38.8942 27.4359 38.989 27.5396 38.989 28.0797C38.989 29.2402 38.9603 30.4013 38.9991 31.5603C39.0271 32.4096 38.4255 33.0227 37.6543 33.0141C35.0141 32.9855 32.3733 33.0034 29.7325 33.0034H29.4133V36.4324H30.4944C30.8589 36.4324 30.9911 36.5755 30.9918 36.9619C30.9918 37.4708 30.9918 37.9794 30.9918 38.4879C30.9918 38.8456 30.8549 39.0001 30.5291 39.0001C28.172 39.0001 25.8148 39.0001 23.4573 39.0001C23.1415 39.0001 22.9999 38.8477 22.9979 38.5115C22.9952 37.9763 22.9952 37.441 22.9979 36.9053C22.9979 36.5877 23.1461 36.436 23.4473 36.4332C23.8205 36.4296 24.1938 36.4332 24.5824 36.4332V33.0034H16.3067C15.4854 33.0026 15 32.4861 15 31.6111V16.831C15 15.956 15.4848 15.4402 16.3067 15.4395H27.2519C27.6793 15.4395 27.7934 15.5639 27.7934 16.029V27.4359ZM15.8013 18.8771V19.0846C15.8013 23.2518 15.8013 27.4196 15.8013 31.5882C15.8013 31.9982 15.9455 32.1513 16.3354 32.1513H37.6449C38.0489 32.1513 38.1898 32.0025 38.1911 31.5789C38.1911 30.8828 38.1911 30.1867 38.1911 29.4906V28.2958H37.872C34.4239 28.2958 30.9756 28.2958 27.527 28.2958C27.1137 28.2958 26.9929 28.1685 26.9929 27.7235V18.8771H15.8013ZM26.9842 16.2944H16.3495C16.2827 16.2944 16.1965 16.2708 16.1538 16.3066C16.0296 16.4074 15.836 16.5212 15.8246 16.6507C15.7839 17.0964 15.8086 17.5493 15.8086 17.9957H26.9842V16.2944ZM25.405 36.4131H28.5753V33.0177H27.3935C27.3935 33.4469 27.4002 33.8662 27.3935 34.2826C27.3868 34.6224 27.0723 34.842 26.8246 34.6603C26.7027 34.5532 26.625 34.399 26.6082 34.231C26.5789 33.8275 26.5982 33.4205 26.5982 33.0205H25.405V36.4131ZM30.1765 38.1337V37.3081H23.8078V38.1337H30.1765Z" fill="#0751A0"/>
<path d="M34.2668 19.2982C34.6621 19.2982 34.9946 19.3104 35.3252 19.2882C35.402 19.2832 35.4914 19.173 35.5408 19.0886C35.8226 18.6121 36.2239 18.3832 36.7427 18.4504C37.2308 18.5134 37.5674 18.8182 37.7303 19.3161C37.8265 19.6192 37.8133 19.9499 37.6935 20.2431C37.5736 20.5364 37.3557 20.771 37.0826 20.9008C36.8113 21.0353 36.5025 21.0544 36.2186 20.9541C35.9347 20.8538 35.6969 20.6417 35.5535 20.3606C35.4654 20.1832 35.3679 20.146 35.2056 20.1503C34.6394 20.1567 34.0705 20.1503 33.5063 20.1567C33.4155 20.1617 33.3248 20.1451 33.2407 20.108C33.1567 20.0708 33.0814 20.0142 33.0202 19.9421C32.6276 19.5043 32.2123 19.0886 31.8263 18.6465C31.7638 18.5718 31.686 18.5136 31.599 18.4763C31.512 18.4391 31.4182 18.4239 31.3249 18.4318C30.4268 18.4411 29.5281 18.4318 28.6133 18.4318V17.5812H29.2857C30.0869 17.5812 30.8849 17.5869 31.6841 17.5776C31.7748 17.5729 31.8653 17.5896 31.9492 17.6267C32.0331 17.6639 32.1084 17.7204 32.1695 17.7922C32.5561 18.2215 32.9521 18.6436 33.3627 19.0886C33.716 18.65 34.0558 18.2301 34.3944 17.8051C34.7329 17.3801 35.0694 16.9673 35.3959 16.5409C35.5355 16.3606 35.6944 16.2641 35.9141 16.2927C35.9635 16.2991 36.0142 16.2927 36.0643 16.2927C36.3982 16.317 36.6653 16.3041 36.885 15.9085C37.152 15.4277 37.7583 15.3154 38.2458 15.53C38.4863 15.6357 38.6883 15.8221 38.8216 16.0613C38.9549 16.3004 39.0122 16.5794 38.9849 16.8564C38.9442 17.3844 38.5582 17.8466 38.0501 17.9761C37.8044 18.0337 37.548 18.0075 37.3168 17.9013C37.0856 17.7951 36.8912 17.6141 36.7608 17.3837C36.5845 17.0754 36.073 17.0353 35.848 17.3122C35.3338 17.9596 34.821 18.6021 34.2668 19.2982ZM37.7804 17.1519C37.8845 17.1495 37.984 17.1054 38.0594 17.0284C38.1348 16.9513 38.1805 16.8469 38.1877 16.7355C38.1954 16.6757 38.1912 16.6147 38.1754 16.5567C38.1596 16.4986 38.1326 16.4448 38.096 16.3987C38.0595 16.3527 38.0143 16.3154 37.9634 16.2894C37.9124 16.2633 37.857 16.2491 37.8005 16.2477C37.7441 16.2462 37.6881 16.2575 37.636 16.2809C37.584 16.3042 37.5371 16.3391 37.4986 16.3832C37.46 16.4273 37.4305 16.4796 37.4121 16.5368C37.3937 16.5939 37.3868 16.6546 37.3917 16.7148C37.394 16.8264 37.4351 16.9332 37.507 17.0141C37.5789 17.0949 37.6764 17.1441 37.7804 17.1519ZM36.6012 19.2982C36.5217 19.2954 36.4433 19.318 36.3759 19.363C36.3084 19.4081 36.255 19.4736 36.2225 19.5513C36.1899 19.629 36.1796 19.7153 36.1929 19.7993C36.2063 19.8832 36.2426 19.961 36.2973 20.0228C36.352 20.0845 36.4227 20.1275 36.5002 20.1461C36.5778 20.1647 36.6588 20.1582 36.7329 20.1274C36.8069 20.0966 36.8708 20.0429 36.9163 19.9731C36.9618 19.9032 36.9869 19.8205 36.9884 19.7354C36.9867 19.6238 36.9459 19.517 36.8742 19.436C36.8025 19.3551 36.7051 19.3059 36.6012 19.2982Z" fill="#0751A0"/>
<path d="M28.6094 25.2928H28.8932C30.6499 25.2928 32.4067 25.2928 34.1628 25.2971C34.2359 25.3032 34.3093 25.2887 34.3755 25.2551C34.4418 25.2214 34.4988 25.1698 34.5407 25.1053C34.8185 24.7161 35.1056 24.3334 35.396 23.9549C35.4422 23.9072 35.4735 23.8453 35.4854 23.7778C35.4974 23.7102 35.4895 23.6404 35.4628 23.5779C35.3809 23.3317 35.3708 23.0647 35.4338 22.8123C35.4968 22.5599 35.6301 22.334 35.8158 22.1646C36.0015 21.9952 36.2309 21.8904 36.4735 21.864C36.7161 21.8376 36.9605 21.891 37.1742 22.0169C37.3879 22.1429 37.5607 22.3355 37.6698 22.5692C37.7789 22.8029 37.819 23.0667 37.7849 23.3254C37.7508 23.5842 37.644 23.8257 37.4787 24.0178C37.3135 24.21 37.0976 24.3438 36.8597 24.4013C36.6983 24.4455 36.5294 24.448 36.3669 24.4085C36.1799 24.3541 36.0831 24.4085 35.9723 24.5609C35.6438 25.0209 35.3099 25.4781 34.9547 25.9145C34.8469 26.0428 34.6978 26.1228 34.5374 26.1384C32.6063 26.1527 30.6746 26.1477 28.7429 26.147C28.7029 26.147 28.6635 26.142 28.6094 26.1377V25.2928ZM36.5906 23.5757C36.67 23.5766 36.7478 23.5521 36.8142 23.5055C36.8807 23.4588 36.9326 23.3921 36.9636 23.3137C36.9945 23.2354 37.003 23.1489 36.988 23.0654C36.973 22.9818 36.9352 22.9049 36.8793 22.8445C36.8234 22.784 36.7521 22.7427 36.6742 22.7258C36.5964 22.7089 36.5157 22.7171 36.4422 22.7495C36.3688 22.7818 36.306 22.8369 36.2618 22.9075C36.2176 22.9782 36.194 23.0614 36.194 23.1465C36.1979 23.2583 36.2407 23.3645 36.3142 23.4441C36.3876 23.5238 36.4862 23.571 36.5906 23.5764V23.5757Z" fill="#0751A0"/>
<path d="M28.6074 20.579V19.7398C28.6789 19.7348 28.7503 19.7255 28.8218 19.7255C29.7786 19.7255 30.7354 19.7154 31.6929 19.7333C31.861 19.7489 32.0208 19.8187 32.151 19.9336C32.355 20.117 32.5448 20.3178 32.7186 20.5339C32.7561 20.59 32.8103 20.6307 32.8724 20.6493C32.9344 20.6679 33.0005 20.6633 33.0598 20.6362C33.2108 20.5897 33.3689 20.5756 33.525 20.5946C33.6812 20.6136 33.8323 20.6654 33.9697 20.747C34.1072 20.8286 34.2283 20.9384 34.3262 21.0701C34.424 21.2018 34.4967 21.3529 34.5401 21.5148C34.5834 21.6766 34.5966 21.846 34.5789 22.0133C34.5611 22.1806 34.5128 22.3425 34.4367 22.4898C34.3605 22.6371 34.2581 22.7668 34.1351 22.8717C34.0122 22.9765 33.8712 23.0544 33.7201 23.1009C33.5164 23.1709 33.2984 23.1778 33.0912 23.1209C32.884 23.0639 32.696 22.9454 32.549 22.7789C32.2298 22.4412 32.1103 22.0184 32.2365 21.5548C32.2932 21.3473 32.2238 21.2486 32.1176 21.0977C31.8125 20.6684 31.4332 20.5346 30.9344 20.5675C30.2467 20.614 29.5542 20.579 28.8645 20.579H28.6074ZM33.7896 21.8667C33.7896 21.7816 33.7659 21.6984 33.7217 21.6277C33.6774 21.557 33.6145 21.502 33.541 21.4696C33.4675 21.4373 33.3866 21.4292 33.3088 21.4462C33.2309 21.4632 33.1596 21.5047 33.1038 21.5653C33.0479 21.6259 33.0102 21.7029 32.9954 21.7866C32.9805 21.8702 32.9892 21.9567 33.0204 22.035C33.0515 22.1134 33.1037 22.18 33.1703 22.2265C33.2368 22.2729 33.3148 22.2971 33.3943 22.296C33.4988 22.2901 33.5975 22.2424 33.6707 22.1622C33.7439 22.082 33.7864 21.9753 33.7896 21.8632V21.8667Z" fill="#0751A0"/>
<path d="M28.5996 16.7235V15.865H28.8667C29.7821 15.865 30.6982 15.865 31.6143 15.865C31.7666 15.865 31.8641 15.8385 31.9482 15.6718C32.0713 15.4203 32.2704 15.2209 32.513 15.1064C32.7556 14.9919 33.0273 14.969 33.2836 15.0415C33.5405 15.1085 33.7691 15.2654 33.9333 15.4874C34.0974 15.7094 34.1877 15.9838 34.1897 16.2671C34.198 16.5546 34.1149 16.8366 33.954 17.0669C33.7932 17.2972 33.5641 17.4622 33.3043 17.5348C33.0502 17.6128 32.779 17.5962 32.5348 17.4879C32.2906 17.3795 32.0878 17.1858 31.9596 16.9382C31.8667 16.7564 31.7653 16.7171 31.5903 16.7192C30.6916 16.7271 29.7922 16.7192 28.8927 16.7192L28.5996 16.7235ZM32.9959 15.87C32.8919 15.874 32.7931 15.9195 32.719 15.9976C32.6448 16.0758 32.6007 16.1808 32.5952 16.2921C32.6055 16.3968 32.6514 16.4939 32.7241 16.5647C32.7968 16.6356 32.8913 16.6753 32.9896 16.6764C33.0879 16.6774 33.1831 16.6397 33.2571 16.5705C33.3312 16.5012 33.3789 16.4052 33.3911 16.3007C33.3879 16.1887 33.3454 16.0822 33.2722 16.0022C33.1989 15.9223 33.1003 15.8748 32.9959 15.8693V15.87Z" fill="#0751A0"/>
<path d="M28.6016 24.0066V23.1724C28.6649 23.1625 28.7286 23.156 28.7925 23.153C29.1932 23.153 29.5938 23.1445 29.9911 23.153C30.164 23.1581 30.2675 23.1223 30.3603 22.9384C30.4878 22.6901 30.6903 22.4956 30.9345 22.3868C31.1787 22.278 31.4502 22.2614 31.7044 22.3396C31.9555 22.4141 32.1772 22.5739 32.3361 22.7951C32.4951 23.0162 32.5826 23.2867 32.5857 23.5658C32.5887 23.8449 32.507 24.1175 32.3529 24.3426C32.1987 24.5676 31.9805 24.7329 31.7311 24.8136C31.4786 24.8982 31.2067 24.888 30.9604 24.7846C30.714 24.6812 30.508 24.4907 30.3764 24.2448C30.2722 24.0445 30.1593 23.998 29.9677 24.0037C29.5203 24.0151 29.0723 24.0066 28.6016 24.0066ZM31.7919 23.5923C31.7943 23.5073 31.773 23.4234 31.7308 23.3513C31.6885 23.2792 31.6273 23.2222 31.5547 23.1875C31.4822 23.1528 31.4017 23.142 31.3234 23.1565C31.2451 23.171 31.1726 23.21 31.1151 23.2687C31.0576 23.3274 31.0177 23.4031 31.0004 23.4862C30.9831 23.5692 30.9893 23.6559 31.0181 23.7352C31.0469 23.8145 31.0971 23.8829 31.1622 23.9316C31.2273 23.9803 31.3045 24.0071 31.3839 24.0087C31.4882 24.0066 31.588 23.9627 31.6636 23.8856C31.7391 23.8085 31.7849 23.7039 31.7919 23.5923Z" fill="#0751A0"/>
<path d="M20.5981 25.7214C20.5981 25.1705 20.5981 24.6482 20.5981 24.1224C20.5981 23.7153 20.7256 23.5808 21.1075 23.5794C21.4574 23.5794 21.8066 23.5794 22.1972 23.5794V22.4611C22.1972 21.9825 22.3074 21.8659 22.7581 21.8659H23.7964V21.094C23.7964 20.7992 23.7964 20.5051 23.7964 20.2104C23.7998 19.8756 23.9413 19.726 24.2585 19.7246C24.7412 19.7246 25.2247 19.7246 25.7074 19.7246C26.0566 19.7246 26.1922 19.8677 26.1929 20.2397C26.1929 21.311 26.1929 22.382 26.1929 23.4527V29.1419H27.7733V29.9889H16.6191V29.1533H17.399C17.399 28.7341 17.399 28.3442 17.399 27.9535C17.399 27.5808 17.5326 27.4377 17.8811 27.4356C18.245 27.4356 18.6096 27.4356 18.9975 27.4356C18.9975 27.0192 18.9975 26.6293 18.9975 26.2386C18.9975 25.8666 19.1311 25.7235 19.481 25.7221C19.8462 25.7199 20.2081 25.7214 20.5981 25.7214ZM24.615 20.591V29.1276H25.3829V20.591H24.615ZM23.0125 22.7259V29.129H23.7777V22.7259H23.0125ZM22.1779 29.139V24.4501H21.41V29.1404L22.1779 29.139ZM20.5847 29.139V26.5964H19.8142V29.1397L20.5847 29.139ZM18.205 29.129H18.9862V28.3055H18.205V29.129Z" fill="#0751A0"/>
<path d="M28.6074 29.1602H29.3773V29.9901H28.6074V29.1602Z" fill="#0751A0"/>
<path d="M16.9964 17.1646C16.994 17.2499 16.968 17.3325 16.9217 17.4018C16.8753 17.4712 16.8108 17.5242 16.7362 17.554C16.6616 17.5839 16.5804 17.5893 16.503 17.5695C16.4256 17.5497 16.3554 17.5056 16.3014 17.4429C16.2475 17.3802 16.2122 17.3017 16.2 17.2174C16.1879 17.1331 16.1994 17.0469 16.2332 16.9696C16.267 16.8924 16.3215 16.8277 16.3898 16.7838C16.4581 16.74 16.537 16.7189 16.6165 16.7232C16.6687 16.7248 16.7201 16.7375 16.7676 16.7607C16.8152 16.7838 16.8579 16.8169 16.8933 16.8581C16.9287 16.8992 16.9561 16.9475 16.9738 17.0002C16.9915 17.0528 16.9992 17.1088 16.9964 17.1646Z" fill="#0751A0"/>
<path d="M18.1957 17.1631C18.1936 17.2484 18.1678 17.3311 18.1217 17.4006C18.0756 17.4701 18.0112 17.5234 17.9367 17.5535C17.8622 17.5836 17.7811 17.5893 17.7036 17.5698C17.6261 17.5503 17.5557 17.5065 17.5016 17.444C17.4474 17.3815 17.4118 17.3031 17.3994 17.2188C17.387 17.1346 17.3983 17.0483 17.4319 16.9709C17.4654 16.8936 17.5198 16.8287 17.5879 16.7846C17.656 16.7404 17.7349 16.7191 17.8144 16.7232C17.8666 16.7246 17.9179 16.7372 17.9655 16.7602C18.0131 16.7833 18.0559 16.8162 18.0914 16.8572C18.1269 16.8982 18.1544 16.9464 18.1723 16.9989C18.1902 17.0514 18.1982 17.1073 18.1957 17.1631Z" fill="#0751A0"/>
<path d="M18.9894 17.5811C18.9097 17.5801 18.8322 17.5536 18.7666 17.5051C18.7011 17.4565 18.6505 17.3882 18.6214 17.3087C18.5923 17.2292 18.586 17.1422 18.6033 17.0589C18.6205 16.9755 18.6606 16.8996 18.7184 16.8408C18.7761 16.782 18.8489 16.7429 18.9275 16.7287C19.006 16.7144 19.0868 16.7256 19.1594 16.7608C19.232 16.7959 19.2932 16.8535 19.3351 16.9261C19.377 16.9987 19.3978 17.083 19.3947 17.1683C19.394 17.2242 19.3829 17.2793 19.3621 17.3305C19.3412 17.3816 19.311 17.4278 19.2733 17.4663C19.2355 17.5047 19.1909 17.5347 19.1422 17.5544C19.0934 17.5742 19.0415 17.5832 18.9894 17.5811Z" fill="#0751A0"/>
</svg>
