<svg width="54" height="54" viewBox="0 0 54 54" fill="none" xmlns="http://www.w3.org/2000/svg">
<circle cx="27" cy="27" r="21" fill="white"/>
<circle cx="27" cy="27" r="26.5" stroke="white"/>
<path d="M15.0006 22.0371C15.0287 21.9657 15.0581 21.8938 15.0856 21.8218C15.147 21.6587 15.24 21.5094 15.3593 21.3825C15.4786 21.2557 15.6219 21.1538 15.7807 21.0827C15.9396 21.0116 16.111 20.9728 16.2849 20.9685C16.4588 20.9641 16.6319 20.9944 16.7941 21.0574C17.1176 21.184 17.3789 21.4321 17.5225 21.7488C17.6661 22.0656 17.6805 22.426 17.5627 22.7532C17.5346 22.8334 17.5184 22.9786 17.5596 23.0093C17.6484 23.0689 17.7563 23.0933 17.8621 23.0775C18.4832 22.9648 19.1012 22.8377 19.7199 22.7125C19.8492 22.6803 19.9849 22.6834 20.1126 22.7216C20.2404 22.7598 20.3555 22.8317 20.446 22.9298C20.7285 23.2208 21.0147 23.5075 21.3103 23.8061L22.1545 22.6575C21.4227 21.9269 20.6872 21.1958 19.9549 20.4577C19.8486 20.3507 19.778 20.4208 19.6905 20.4659C19.4002 20.6213 19.0743 20.6976 18.7454 20.6871C18.4164 20.6767 18.096 20.5799 17.8161 20.4064C17.5363 20.2329 17.3068 19.9888 17.1507 19.6986C16.9946 19.4083 16.9173 19.0821 16.9266 18.7526C16.9472 17.7604 17.7914 16.9372 18.7919 16.9335C19.2767 16.9307 19.7436 17.1162 20.0948 17.4509C20.446 17.7857 20.654 18.2437 20.6754 18.7288C20.6954 19.0734 20.616 19.4166 20.4466 19.7172C20.3898 19.8155 20.3735 19.885 20.4679 19.9789C21.1997 20.7044 21.9258 21.4362 22.6551 22.1654L23.8192 21.3441C23.5343 21.0593 23.2518 20.7682 22.9588 20.4884C22.7219 20.2618 22.6463 20.0052 22.7175 19.6828C22.8544 19.0568 22.9763 18.4308 23.0925 17.8048C23.0958 17.7617 23.0899 17.7184 23.0753 17.6777C23.0606 17.637 23.0375 17.5999 23.0075 17.5688C22.9675 17.5288 22.8556 17.5275 22.7907 17.5513C22.0408 17.8292 21.2503 17.4612 21.0203 16.7175C20.9653 16.5416 20.9478 16.3561 20.9689 16.1731C20.9901 15.99 21.0494 15.8134 21.1431 15.6548C21.2368 15.4962 21.3628 15.3591 21.5128 15.2524C21.6628 15.1457 21.8335 15.0718 22.0139 15.0355C22.2395 14.9805 22.4759 14.9896 22.6967 15.0617C22.9175 15.1337 23.1138 15.266 23.2637 15.4436C23.608 15.8299 23.7011 16.2843 23.5218 16.7732C23.4687 16.9203 23.4537 17.0236 23.5874 17.1325C23.8461 17.3497 23.858 17.6377 23.7936 17.9463C23.6686 18.5485 23.5437 19.1519 23.4356 19.7573C23.4307 19.8068 23.4358 19.8568 23.4507 19.9044C23.4655 19.9519 23.4897 19.996 23.5218 20.034C23.798 20.3307 24.0961 20.608 24.376 20.9022C24.4785 21.0105 24.5635 21.0136 24.7035 20.9698C25.0784 20.8496 25.4665 20.7526 25.8496 20.6499C25.9111 20.6356 25.9739 20.6275 26.037 20.6255C26.2695 20.6105 26.417 20.7169 26.4432 20.916C26.4713 21.1263 26.3482 21.2747 26.1214 21.3291C25.7508 21.4174 25.3684 21.4775 25.0159 21.6146C22.8713 22.4484 21.579 24.0071 21.2496 26.2844C20.8253 29.2303 22.9013 32.0654 25.8277 32.63C29.0347 33.2491 32.0373 31.2829 32.6879 28.0941C33.2903 25.1407 31.4887 22.1786 28.3923 21.4274C28.1654 21.3723 27.9324 21.3441 27.7049 21.2953C27.4868 21.2484 27.3606 21.085 27.3887 20.9022C27.3959 20.8514 27.4138 20.8027 27.4411 20.7593C27.4685 20.7159 27.5046 20.6788 27.5473 20.6505C27.59 20.6221 27.6382 20.6031 27.6887 20.5947C27.7392 20.5863 27.791 20.5887 27.8405 20.6017C28.3335 20.7119 28.8241 20.834 29.3103 20.9711C29.4415 21.0086 29.5209 21.0067 29.6171 20.9085C29.9033 20.6105 30.2051 20.3263 30.4888 20.0246C30.5181 19.9887 30.5398 19.9474 30.5526 19.903C30.5655 19.8585 30.5693 19.812 30.5638 19.766C30.4557 19.1682 30.3432 18.571 30.2114 17.9782C30.1339 17.6296 30.1639 17.326 30.4532 17.0881C30.5519 17.0067 30.5351 16.9335 30.4932 16.8264C30.4219 16.6547 30.3879 16.4698 30.3932 16.2839C30.3986 16.098 30.4433 15.9154 30.5243 15.7481C30.6053 15.5807 30.7209 15.4326 30.8633 15.3133C31.0057 15.194 31.1718 15.1064 31.3506 15.0561C32.1042 14.8427 32.8503 15.3065 33.0084 16.084C33.2022 17.0267 32.2998 17.8624 31.3699 17.6001C31.2656 17.5713 31.165 17.53 31.0675 17.4956C30.8988 17.587 30.88 17.7091 30.9194 17.8893C31.055 18.4972 31.1662 19.1106 31.2906 19.721C31.3236 19.8502 31.3213 19.986 31.2838 20.114C31.2463 20.242 31.175 20.3575 31.0775 20.4484C30.7757 20.7419 30.4763 21.038 30.1733 21.3354L31.3456 22.1629C32.0742 21.4324 32.806 20.6956 33.5434 19.9645C33.649 19.8599 33.5858 19.7898 33.539 19.7009C33.343 19.341 33.2696 18.9268 33.3299 18.5213C33.3902 18.1158 33.5808 17.741 33.873 17.4539C34.1651 17.1667 34.5428 16.9829 34.9487 16.9302C35.3546 16.8775 35.7665 16.9589 36.1221 17.162C36.4776 17.3651 36.7573 17.6788 36.9188 18.0556C37.0802 18.4323 37.1146 18.8515 37.0167 19.2496C36.9187 19.6477 36.6939 20.0029 36.3761 20.2614C36.0584 20.5199 35.6652 20.6675 35.2562 20.6818C34.9115 20.6904 34.5704 20.61 34.2657 20.4484C34.2279 20.4339 34.1872 20.4289 34.1471 20.4337C34.1069 20.4385 34.0685 20.453 34.0352 20.4759C33.3328 21.1645 32.6391 21.8637 31.9436 22.5598C31.9105 22.5924 31.8811 22.628 31.8505 22.66L32.6854 23.8036C32.9472 23.5407 33.2172 23.2847 33.4684 23.0105C33.7196 22.7363 34.0002 22.6449 34.3713 22.7313C34.97 22.8715 35.5762 22.9817 36.1836 23.0906C36.277 23.0995 36.3702 23.0712 36.4429 23.0118C36.4823 22.9792 36.481 22.8603 36.4573 22.7958C36.1848 22.0584 36.5279 21.2934 37.2509 21.043C37.9627 20.7926 38.7063 21.1739 38.9481 21.9069C38.9625 21.9507 38.9825 21.9927 39 22.0321V22.5479C38.99 22.5598 38.9738 22.5698 38.9713 22.5836C38.8175 23.3266 37.9533 23.855 37.1353 23.4938C37.0979 23.4867 37.0594 23.4886 37.023 23.4995C36.9866 23.5104 36.9533 23.5299 36.9259 23.5564C36.6822 23.8249 36.3929 23.8694 36.0511 23.798C35.4499 23.6678 34.8456 23.5476 34.2389 23.4399C34.1929 23.4347 34.1464 23.4388 34.1021 23.4519C34.0578 23.465 34.0165 23.4869 33.9808 23.5163C33.6846 23.7942 33.4059 24.0897 33.1134 24.3714C33.0291 24.4528 33.0066 24.5198 33.0509 24.6318C33.6717 26.2118 33.6717 27.7926 33.0509 29.3743C33.0066 29.4863 33.0297 29.5539 33.1134 29.6347C33.4059 29.9164 33.6852 30.2118 33.9814 30.4898C34.017 30.5193 34.0583 30.5412 34.1027 30.5542C34.147 30.5673 34.1936 30.5711 34.2395 30.5655C34.845 30.4553 35.4493 30.3383 36.0517 30.2074C36.3929 30.1329 36.6904 30.173 36.9184 30.4547C37.0122 30.5705 37.0959 30.5248 37.2022 30.4854C37.6702 30.312 38.1045 30.3833 38.5038 30.6819C38.7663 30.8779 38.8856 31.1639 38.9994 31.4544V31.9702C38.9819 32.0128 38.9619 32.0547 38.9475 32.0954C38.7069 32.8278 37.9627 33.2072 37.2503 32.9599C36.5279 32.7095 36.1848 31.9452 36.4566 31.2071C36.4804 31.1445 36.481 31.0237 36.4417 30.9912C36.3689 30.9319 36.2757 30.9038 36.1823 30.9129C35.5768 31.0225 34.9706 31.132 34.3701 31.2722C33.9989 31.3592 33.7183 31.2654 33.4671 30.9918C33.2159 30.7182 32.9453 30.4616 32.6841 30.1987L31.8436 31.353C32.5423 32.0497 33.2471 32.7477 33.9445 33.4532C34.0739 33.584 34.162 33.6253 34.3532 33.5277C35.5549 32.9117 37.0122 33.7599 37.0703 35.0926C37.0906 35.4817 36.9898 35.8674 36.7819 36.1967C36.574 36.5259 36.2692 36.7824 35.9095 36.9307C35.5499 37.0791 35.1532 37.1119 34.7741 37.0247C34.3951 36.9376 34.0524 36.7347 33.7933 36.4441C33.5362 36.1581 33.3741 35.7992 33.3293 35.417C33.2845 35.0347 33.3593 34.648 33.5434 34.3101C33.6165 34.1737 33.6058 34.0998 33.4965 33.994C32.8016 33.3086 32.1136 32.6168 31.4231 31.9283C31.3918 31.8976 31.3606 31.8707 31.3349 31.8513L30.1758 32.6707C30.4757 32.9668 30.7738 33.2641 31.0756 33.5577C31.1733 33.648 31.2448 33.7629 31.2828 33.8905C31.3207 34.0181 31.3236 34.1535 31.2912 34.2826C31.1662 34.9004 31.0412 35.5189 30.9269 36.1393C30.9112 36.2452 30.9355 36.3532 30.995 36.4422C31.0256 36.4835 31.1712 36.466 31.2518 36.4379C31.5185 36.3426 31.8083 36.3341 32.08 36.4137C32.3517 36.4933 32.5914 36.6569 32.7647 36.881C32.9368 37.1058 33.0319 37.3802 33.0357 37.6634C33.0396 37.9467 32.952 38.2236 32.786 38.4529C32.5829 38.7446 32.286 38.8867 31.9667 39H31.4512C31.4393 38.99 31.4287 38.9737 31.4156 38.9712C30.6657 38.8141 30.1451 37.9446 30.5038 37.1358C30.5115 37.0988 30.5103 37.0604 30.5002 37.0239C30.4901 36.9874 30.4714 36.9539 30.4457 36.9261C30.1764 36.6826 30.1333 36.3934 30.2039 36.0529C30.3351 35.4519 30.4538 34.8479 30.5619 34.2425C30.5675 34.1966 30.5636 34.1501 30.5506 34.1058C30.5376 34.0614 30.5157 34.0202 30.4863 33.9846C30.1972 33.6779 29.8987 33.3801 29.5908 33.0913C29.5548 33.0634 29.513 33.0439 29.4684 33.0343C29.4239 33.0246 29.3777 33.0251 29.3334 33.0356C27.7761 33.6044 26.2201 33.6044 24.6654 33.0356C24.6211 33.0247 24.575 33.0239 24.5304 33.0333C24.4858 33.0428 24.444 33.0622 24.4079 33.0901C24.1 33.378 23.8015 33.6758 23.5124 33.9834C23.4826 34.0188 23.4604 34.0599 23.4472 34.1043C23.434 34.1487 23.43 34.1953 23.4356 34.2413C23.5455 34.846 23.663 35.4501 23.793 36.051C23.8667 36.3915 23.828 36.6882 23.5474 36.9199C23.4506 37 23.4618 37.0726 23.5049 37.1809C23.6924 37.6541 23.6224 38.0961 23.3174 38.5042C23.1219 38.7678 22.8344 38.8848 22.5444 38.9994H22.0308C21.9683 38.9743 21.9058 38.9474 21.8377 38.9236C21.5704 38.8296 21.3405 38.6516 21.1823 38.4162C21.0241 38.1808 20.946 37.9005 20.9596 37.617C20.9733 37.3335 21.0779 37.0621 21.2579 36.8429C21.438 36.6238 21.6838 36.4688 21.9589 36.4009C22.2842 36.3205 22.6276 36.3615 22.925 36.5161C23.0794 36.4228 23.1237 36.3195 23.0831 36.1405C22.9513 35.5558 22.8619 34.9618 22.7257 34.3784C22.6394 34.009 22.7257 33.7273 23.0006 33.4744C23.2756 33.2215 23.5499 32.9336 23.8192 32.6657L22.6982 31.8744L20.3892 34.1831C20.5305 34.4033 20.624 34.6509 20.6634 34.9098C20.7028 35.1687 20.6873 35.433 20.6179 35.6854C20.3717 36.6582 19.3631 37.2541 18.3682 37.025C17.4159 36.8066 16.7778 35.8357 16.9609 34.8773C17.2059 33.599 18.5457 32.948 19.6993 33.5483C19.7899 33.5953 19.8599 33.6522 19.963 33.5483C20.6935 32.8122 21.4302 32.0823 22.1595 31.3574L21.3121 30.2037C21.0266 30.4916 20.7397 30.7758 20.4598 31.0657C20.2448 31.2879 19.9955 31.3549 19.693 31.291C19.0839 31.1629 18.4728 31.0431 17.8596 30.9317C17.7536 30.9161 17.6457 30.9409 17.5571 31.0012C17.5159 31.0325 17.534 31.1777 17.5627 31.2578C17.6602 31.5321 17.6659 31.8307 17.579 32.1085C17.4921 32.3863 17.3172 32.6283 17.0809 32.7978C16.5891 33.1439 15.9192 33.1402 15.4818 32.7251C15.2718 32.5261 15.1575 32.2244 15 31.974V31.4582C15.01 31.4463 15.0256 31.4356 15.0281 31.4225C15.1881 30.67 16.0561 30.1511 16.8653 30.5092C16.9024 30.517 16.9409 30.5158 16.9774 30.5057C17.0139 30.4955 17.0475 30.4768 17.0753 30.4509C17.3184 30.1818 17.6071 30.138 17.9502 30.2093C18.5513 30.3408 19.155 30.4597 19.7624 30.568C19.8083 30.5733 19.8548 30.5693 19.8992 30.5562C19.9435 30.5431 19.9848 30.5211 20.0205 30.4916C20.3167 30.2137 20.5954 29.9182 20.8885 29.6365C20.9728 29.5558 20.9953 29.4882 20.9509 29.3761C20.3294 27.7962 20.3294 26.2155 20.9509 24.6343C20.9953 24.5216 20.9716 24.4547 20.8885 24.3733C20.596 24.0922 20.3167 23.7961 20.0211 23.5188C19.9854 23.4891 19.9441 23.467 19.8996 23.4538C19.8551 23.4406 19.8085 23.4365 19.7624 23.4418C19.1575 23.552 18.5532 23.669 17.9502 23.7999C17.6096 23.8737 17.3109 23.8356 17.0828 23.5532C16.9897 23.4381 16.9066 23.4812 16.7997 23.5213C16.3317 23.6966 15.8974 23.6246 15.4974 23.326C15.235 23.1301 15.1144 22.8446 15.0019 22.5529L15.0006 22.0371ZM34.0264 35.1915C34.0242 35.4229 34.0905 35.6497 34.2169 35.8433C34.3433 36.0369 34.5241 36.1887 34.7365 36.2795C34.949 36.3702 35.1835 36.3959 35.4105 36.3532C35.6375 36.3105 35.8468 36.2014 36.0119 36.0396C36.177 35.8779 36.2906 35.6708 36.3383 35.4444C36.386 35.218 36.3656 34.9826 36.2798 34.7678C36.194 34.553 36.0466 34.3685 35.8562 34.2376C35.6658 34.1066 35.4409 34.0352 35.21 34.0322C34.8997 34.0294 34.601 34.1497 34.3792 34.367C34.1574 34.5843 34.0305 34.8808 34.0264 35.1915ZM35.1931 19.9801C35.4233 19.98 35.6484 19.9116 35.8398 19.7836C36.0313 19.6555 36.1807 19.4736 36.2691 19.2606C36.3575 19.0477 36.381 18.8133 36.3367 18.587C36.2923 18.3607 36.1821 18.1526 36.0198 17.9889C35.8576 17.8253 35.6506 17.7134 35.425 17.6674C35.1994 17.6214 34.9653 17.6433 34.7521 17.7304C34.5389 17.8175 34.3563 17.9659 34.2271 18.1568C34.098 18.3477 34.0281 18.5727 34.0264 18.8033C34.0269 19.1136 34.1498 19.4112 34.3683 19.6311C34.5869 19.8511 34.8833 19.9756 35.1931 19.9776V19.9801ZM19.9711 35.204C19.972 35.0503 19.9426 34.8979 19.8847 34.7556C19.8267 34.6132 19.7414 34.4837 19.6335 34.3744C19.5256 34.2651 19.3972 34.1781 19.2558 34.1185C19.1143 34.0589 18.9626 34.0277 18.8091 34.0269C18.6556 34.026 18.5035 34.0554 18.3614 34.1135C18.2193 34.1715 18.09 34.257 17.9809 34.3651C17.8717 34.4732 17.7849 34.6017 17.7254 34.7434C17.6659 34.8851 17.6348 35.0372 17.634 35.1909C17.6322 35.5014 17.7537 35.7998 17.9716 36.0205C18.1895 36.2413 18.486 36.3663 18.796 36.3681C19.1059 36.3698 19.4038 36.2481 19.6242 36.0298C19.8446 35.8115 19.9694 35.5145 19.9711 35.204ZM19.9711 18.8221C19.974 18.5907 19.9085 18.3637 19.7827 18.1697C19.6569 17.9756 19.4766 17.8233 19.2644 17.7319C19.0523 17.6404 18.8178 17.614 18.5907 17.656C18.3636 17.698 18.154 17.8064 17.9883 17.9676C17.8227 18.1288 17.7084 18.3356 17.66 18.5618C17.6116 18.788 17.6312 19.0235 17.7163 19.2386C17.8014 19.4536 17.9482 19.6386 18.1382 19.7702C18.3282 19.9017 18.5529 19.9739 18.7838 19.9776C19.0942 19.9815 19.3935 19.8619 19.6161 19.645C19.8387 19.4282 19.9663 19.1318 19.9711 18.8208V18.8221ZM16.3129 22.8934C16.3926 22.8956 16.4718 22.8818 16.5461 22.8527C16.6203 22.8237 16.6879 22.7801 16.745 22.7244C16.8021 22.6687 16.8475 22.6022 16.8784 22.5286C16.9094 22.4551 16.9254 22.3761 16.9253 22.2963C16.9261 22.2163 16.9112 22.137 16.8813 22.0628C16.8515 21.9887 16.8073 21.9212 16.7513 21.8642C16.6954 21.8072 16.6287 21.7618 16.5552 21.7307C16.4817 21.6996 16.4027 21.6833 16.3229 21.6828C16.1619 21.6834 16.0074 21.7465 15.892 21.859C15.7766 21.9715 15.7093 22.1244 15.7043 22.2856C15.7046 22.447 15.7689 22.6017 15.883 22.7157C15.9971 22.8297 16.1518 22.8936 16.3129 22.8934ZM37.6715 22.8934C37.8326 22.8968 37.9885 22.8359 38.1049 22.7242C38.2212 22.6124 38.2885 22.459 38.292 22.2975C38.2901 22.1362 38.2256 21.982 38.1123 21.8674C37.999 21.7528 37.8456 21.6868 37.6846 21.6834C37.6048 21.6823 37.5256 21.6969 37.4516 21.7265C37.3775 21.7562 37.31 21.8002 37.253 21.856C37.1959 21.9119 37.1505 21.9785 37.1192 22.052C37.088 22.1255 37.0716 22.2045 37.0709 22.2844C37.0692 22.3643 37.0835 22.4437 37.113 22.5179C37.1425 22.5922 37.1866 22.6597 37.2426 22.7165C37.2987 22.7734 37.3656 22.8183 37.4394 22.8487C37.5132 22.8791 37.5923 22.8943 37.6721 22.8934H37.6715ZM37.709 31.1157C37.549 31.1074 37.3923 31.1631 37.2734 31.2705C37.1544 31.378 37.083 31.5283 37.0747 31.6885C37.0664 31.8487 37.122 32.0057 37.2292 32.1248C37.3364 32.244 37.4865 32.3156 37.6465 32.3239C37.8074 32.331 37.9648 32.2748 38.085 32.1673C38.2053 32.0599 38.2789 31.9096 38.2901 31.7486C38.2966 31.5877 38.2391 31.4307 38.1303 31.3121C38.0215 31.1935 37.8702 31.1229 37.7096 31.1157H37.709ZM22.8869 37.7017C22.8908 37.6219 22.8786 37.5422 22.8512 37.4672C22.8237 37.3922 22.7815 37.3235 22.7271 37.2652C22.6727 37.2068 22.6071 37.16 22.5343 37.1274C22.4615 37.0949 22.3829 37.0773 22.3032 37.0757C22.2236 37.0731 22.1441 37.0863 22.0696 37.1146C21.995 37.1428 21.9267 37.1855 21.8687 37.2402C21.8106 37.295 21.7639 37.3606 21.7312 37.4335C21.6986 37.5064 21.6806 37.5849 21.6783 37.6648C21.6752 37.8262 21.735 37.9824 21.8451 38.1003C21.9551 38.2183 22.1067 38.2886 22.2676 38.2964C22.3473 38.2981 22.4265 38.2841 22.5007 38.2552C22.575 38.2262 22.6428 38.1829 22.7003 38.1277C22.7578 38.0724 22.8039 38.0064 22.8359 37.9333C22.868 37.8602 22.8853 37.7815 22.8869 37.7017ZM31.11 37.6804C31.1083 37.8418 31.1705 37.9973 31.2829 38.113C31.3953 38.2286 31.5488 38.295 31.7099 38.2976C31.871 38.2949 32.0247 38.2296 32.1386 38.1155C32.2525 38.0014 32.3177 37.8474 32.3204 37.6861C32.3209 37.6061 32.3056 37.5269 32.2755 37.4529C32.2453 37.3789 32.2008 37.3117 32.1446 37.2549C32.0884 37.1982 32.0216 37.1532 31.9479 37.1224C31.8743 37.0917 31.7953 37.0758 31.7155 37.0757C31.6358 37.0744 31.5566 37.0891 31.4826 37.119C31.4087 37.1489 31.3415 37.1933 31.285 37.2497C31.2285 37.3061 31.1839 37.3733 31.1539 37.4473C31.1238 37.5213 31.1089 37.6006 31.11 37.6804ZM22.8869 16.325C22.8879 16.1636 22.825 16.0084 22.7119 15.8934C22.5989 15.7784 22.445 15.713 22.2839 15.7115C22.1228 15.7153 21.9695 15.7815 21.8563 15.8963C21.7431 16.0111 21.6788 16.1655 21.6771 16.3269C21.6771 16.4068 21.6928 16.4858 21.7234 16.5596C21.754 16.6333 21.7988 16.7003 21.8553 16.7567C21.9118 16.813 21.9789 16.8577 22.0526 16.888C22.1264 16.9183 22.2054 16.9338 22.2851 16.9335C22.3648 16.9342 22.4439 16.919 22.5176 16.8886C22.5913 16.8582 22.6582 16.8133 22.7143 16.7566C22.7705 16.6999 22.8146 16.6325 22.8443 16.5583C22.8739 16.4842 22.8884 16.4048 22.8869 16.325ZM31.11 16.325C31.1088 16.4049 31.1236 16.4841 31.1535 16.5582C31.1834 16.6322 31.2278 16.6995 31.284 16.7561C31.3403 16.8127 31.4073 16.8574 31.4811 16.8877C31.5548 16.9179 31.6339 16.9331 31.7136 16.9322C31.7934 16.9324 31.8724 16.9167 31.9462 16.8862C32.0199 16.8557 32.0869 16.8109 32.1433 16.7543C32.1997 16.6978 32.2443 16.6306 32.2747 16.5567C32.3051 16.4829 32.3207 16.4037 32.3204 16.3238C32.3183 16.1625 32.2538 16.0083 32.1403 15.8938C32.0268 15.7793 31.8734 15.7135 31.7124 15.7103C31.5511 15.7124 31.3972 15.7784 31.2844 15.8938C31.1715 16.0092 31.1088 16.1647 31.11 16.3263V16.325ZM16.326 31.1145C16.165 31.1116 16.0093 31.1727 15.8929 31.2843C15.7766 31.3959 15.709 31.5491 15.7049 31.7104C15.7063 31.8718 15.7704 32.0262 15.8835 32.1411C15.9967 32.256 16.15 32.3222 16.311 32.3258C16.3908 32.3271 16.4701 32.3126 16.5443 32.2831C16.6185 32.2536 16.6861 32.2097 16.7433 32.1538C16.8004 32.098 16.846 32.0315 16.8773 31.9579C16.9087 31.8844 16.9252 31.8054 16.9259 31.7254C16.9276 31.6456 16.9133 31.5662 16.8839 31.492C16.8545 31.4178 16.8105 31.3502 16.7546 31.2933C16.6987 31.2363 16.632 31.1912 16.5584 31.1605C16.4848 31.1298 16.4058 31.1141 16.326 31.1145Z" fill="#0751A0"/>
<path d="M31.9585 27.0004C31.9432 27.8721 31.7018 28.7249 31.2579 29.4749C31.1148 29.7165 30.9317 29.7879 30.7386 29.6809C30.5455 29.5738 30.4999 29.3679 30.6474 29.1137C32.1272 26.576 30.6349 23.4379 27.7397 22.8908C25.4445 22.457 23.1355 24.0921 22.818 26.3963C22.7391 26.9481 22.7712 27.5101 22.9125 28.0493C23.0538 28.5884 23.3015 29.0937 23.6408 29.5355C23.9802 29.9772 24.4044 30.3465 24.8885 30.6214C25.3725 30.8963 25.9066 31.0714 26.4593 31.1363C27.5891 31.2734 28.6077 31.0036 29.5295 30.345C29.8132 30.1422 30.1456 30.2417 30.1431 30.5416C30.1349 30.615 30.1121 30.6861 30.076 30.7506C30.04 30.8151 29.9914 30.8718 29.9331 30.9172C29.0849 31.5564 28.0481 31.8943 26.9867 31.8774C24.4777 31.8637 22.3793 30.0189 22.0862 27.5688C21.7913 25.0961 23.4742 22.7537 25.9244 22.2285C28.6421 21.6457 31.2548 23.3277 31.8385 26.047C31.9053 26.3613 31.9197 26.683 31.9585 27.0004Z" fill="#0751A0"/>
<path d="M27.3729 24.9969V26.6188C27.5435 26.647 27.7091 26.6539 27.8609 26.704C28.3271 26.8598 28.5996 27.2048 28.6639 27.6786C28.7105 28.0192 28.7105 28.3646 28.6639 28.7052C28.5733 29.3431 28.1715 29.6498 27.3798 29.7431C27.3373 30.0098 27.426 30.381 26.9805 30.3929C26.7455 30.3985 26.668 30.2489 26.6243 29.7419C26.5686 29.7356 26.5099 29.7256 26.4512 29.7231C26.1432 29.7109 25.852 29.5792 25.6391 29.3558C25.4263 29.1325 25.3085 28.835 25.3107 28.5262C25.3107 28.304 25.4357 28.1506 25.6282 28.1325C25.8313 28.1131 25.9781 28.2458 26.0131 28.4811C26.0756 28.8899 26.2356 29.0345 26.6186 29.0057V27.3857C26.5593 27.3782 26.5005 27.37 26.4412 27.3638C25.7719 27.2943 25.3163 26.8004 25.3113 26.1299C25.3113 25.842 25.2895 25.5471 25.3401 25.2667C25.4507 24.6583 25.8781 24.3158 26.4999 24.2839C26.5374 24.2839 26.5743 24.2752 26.6086 24.2714C26.6961 23.7224 26.7674 23.6047 27.0055 23.6116C27.2435 23.6185 27.3048 23.7368 27.3804 24.2714C27.5023 24.2743 27.624 24.2843 27.7447 24.3014C28.2753 24.4066 28.6946 24.9456 28.6821 25.4946C28.6771 25.713 28.5465 25.8633 28.3521 25.8758C28.1578 25.8883 28.014 25.7581 27.9772 25.5378C27.9172 25.1177 27.7728 24.9831 27.3729 24.9969ZM26.623 25.0032C26.2543 24.975 26.0487 25.144 26.0231 25.504C26.0081 25.7142 26.0081 25.9253 26.0231 26.1356C26.0494 26.4999 26.2531 26.6633 26.623 26.6238V25.0032ZM27.3729 29.0095C27.7416 29.022 27.9384 28.8717 27.9709 28.5381C27.9934 28.3051 27.9934 28.0706 27.9709 27.8376C27.9366 27.4852 27.721 27.3368 27.3729 27.3944V29.0095Z" fill="#0751A0"/>
</svg>
