<svg width="53" height="44" viewBox="0 0 53 44" fill="none" xmlns="http://www.w3.org/2000/svg">
<mask id="mask0_1_16656" style="mask-type:luminance" maskUnits="userSpaceOnUse" x="6" y="3" width="10" height="10">
<path d="M14.5 3.61914H7.5C6.94772 3.61914 6.5 4.06686 6.5 4.61914V11.6191C6.5 12.1714 6.94772 12.6191 7.5 12.6191H14.5C15.0523 12.6191 15.5 12.1714 15.5 11.6191V4.61914C15.5 4.06686 15.0523 3.61914 14.5 3.61914Z" fill="white"/>
</mask>
<g mask="url(#mask0_1_16656)">
<path d="M7.5 2.61914C6.96957 2.61914 6.46086 2.82985 6.08579 3.20493C5.71071 3.58 5.5 4.08871 5.5 4.61914M7.5 2.61914V4.61914M7.5 2.61914H14.5M5.5 4.61914H7.5M5.5 4.61914V11.6191M7.5 4.61914V11.6191M7.5 4.61914H14.5M14.5 4.61914H16.5M14.5 4.61914V2.61914M14.5 4.61914V11.6191M16.5 4.61914C16.5 4.08871 16.2893 3.58 15.9142 3.20493C15.5391 2.82985 15.0304 2.61914 14.5 2.61914M16.5 4.61914V11.6191M14.5 11.6191V13.6191M14.5 11.6191H16.5M14.5 11.6191H7.5M14.5 13.6191C15.0304 13.6191 15.5391 13.4084 15.9142 13.0334C16.2893 12.6583 16.5 12.1496 16.5 11.6191M14.5 13.6191H7.5M7.5 11.6191H5.5M7.5 11.6191V13.6191M5.5 11.6191C5.5 12.1496 5.71071 12.6583 6.08579 13.0334C6.46086 13.4084 6.96957 13.6191 7.5 13.6191" stroke="#0C4578" stroke-miterlimit="10"/>
</g>
<path d="M14.5 3.61914H7.5C6.94772 3.61914 6.5 4.06686 6.5 4.61914V11.6191C6.5 12.1714 6.94772 12.6191 7.5 12.6191H14.5C15.0523 12.6191 15.5 12.1714 15.5 11.6191V4.61914C15.5 4.06686 15.0523 3.61914 14.5 3.61914Z" stroke="#0C4578" stroke-miterlimit="10"/>
<mask id="mask1_1_16656" style="mask-type:luminance" maskUnits="userSpaceOnUse" x="1" y="18" width="9" height="10">
<path d="M9 18.5098H2C1.44772 18.5098 1 18.9575 1 19.5098V26.5098C1 27.0621 1.44772 27.5098 2 27.5098H9C9.55229 27.5098 10 27.0621 10 26.5098V19.5098C10 18.9575 9.55229 18.5098 9 18.5098Z" fill="white"/>
</mask>
<g mask="url(#mask1_1_16656)">
<path d="M2 17.5098C1.46957 17.5098 0.960859 17.7205 0.585786 18.0956C0.210714 18.4706 0 18.9793 0 19.5098M2 17.5098V19.5098M2 17.5098H9M0 19.5098H2M0 19.5098V26.5098M2 19.5098V26.5098M2 19.5098H9M9 19.5098H11M9 19.5098V17.5098M9 19.5098V26.5098M11 19.5098C11 18.9793 10.7893 18.4706 10.4142 18.0956C10.0391 17.7205 9.53043 17.5098 9 17.5098M11 19.5098V26.5098M9 26.5098V28.5098M9 26.5098H11M9 26.5098H2M9 28.5098C9.53043 28.5098 10.0391 28.2991 10.4142 27.924C10.7893 27.5489 11 27.0402 11 26.5098M9 28.5098H2M2 26.5098H0M2 26.5098V28.5098M0 26.5098C0 27.0402 0.210714 27.5489 0.585786 27.924C0.960859 28.2991 1.46957 28.5098 2 28.5098" stroke="#0C4578" stroke-miterlimit="10"/>
</g>
<path d="M9 18.5098H2C1.44772 18.5098 1 18.9575 1 19.5098V26.5098C1 27.0621 1.44772 27.5098 2 27.5098H9C9.55229 27.5098 10 27.0621 10 26.5098V19.5098C10 18.9575 9.55229 18.5098 9 18.5098Z" stroke="#0C4578" stroke-miterlimit="10"/>
<mask id="mask2_1_16656" style="mask-type:luminance" maskUnits="userSpaceOnUse" x="6" y="33" width="10" height="10">
<path d="M14.5 33.8008H7.5C6.94772 33.8008 6.5 34.2485 6.5 34.8008V41.8008C6.5 42.3531 6.94772 42.8008 7.5 42.8008H14.5C15.0523 42.8008 15.5 42.3531 15.5 41.8008V34.8008C15.5 34.2485 15.0523 33.8008 14.5 33.8008Z" fill="white"/>
</mask>
<g mask="url(#mask2_1_16656)">
<path d="M7.5 32.8008C6.96957 32.8008 6.46086 33.0115 6.08579 33.3866C5.71071 33.7616 5.5 34.2703 5.5 34.8008M7.5 32.8008V34.8008M7.5 32.8008H14.5M5.5 34.8008H7.5M5.5 34.8008V41.8008M7.5 34.8008V41.8008M7.5 34.8008H14.5M14.5 34.8008H16.5M14.5 34.8008V32.8008M14.5 34.8008V41.8008M16.5 34.8008C16.5 34.2703 16.2893 33.7616 15.9142 33.3866C15.5391 33.0115 15.0304 32.8008 14.5 32.8008M16.5 34.8008V41.8008M14.5 41.8008V43.8008M14.5 41.8008H16.5M14.5 41.8008H7.5M14.5 43.8008C15.0304 43.8008 15.5391 43.5901 15.9142 43.215C16.2893 42.8399 16.5 42.3312 16.5 41.8008M14.5 43.8008H7.5M7.5 41.8008H5.5M7.5 41.8008V43.8008M5.5 41.8008C5.5 42.3312 5.71071 42.8399 6.08579 43.215C6.46086 43.5901 6.96957 43.8008 7.5 43.8008" stroke="#0C4578" stroke-miterlimit="10"/>
</g>
<path d="M14.5 33.8008H7.5C6.94772 33.8008 6.5 34.2485 6.5 34.8008V41.8008C6.5 42.3531 6.94772 42.8008 7.5 42.8008H14.5C15.0523 42.8008 15.5 42.3531 15.5 41.8008V34.8008C15.5 34.2485 15.0523 33.8008 14.5 33.8008Z" stroke="#0C4578" stroke-miterlimit="10"/>
<path d="M23 31.1797V35.1797H21V31.1797H23ZM23 35.1797C23 35.4449 22.8946 35.6993 22.7071 35.8868C22.5196 36.0743 22.2652 36.1797 22 36.1797C21.7348 36.1797 21.4804 36.0743 21.2929 35.8868C21.1054 35.6993 21 35.4449 21 35.1797H23ZM21 31.1797C21 30.9145 21.1054 30.6601 21.2929 30.4726C21.4804 30.285 21.7348 30.1797 22 30.1797C22.2652 30.1797 22.5196 30.285 22.7071 30.4726C22.8946 30.6601 23 30.9145 23 31.1797H21Z" fill="#0C4578"/>
<path d="M23 11.1797V15.1797H21V11.1797H23ZM23 15.1797C23 15.4449 22.8946 15.6993 22.7071 15.8868C22.5196 16.0743 22.2652 16.1797 22 16.1797C21.7348 16.1797 21.4804 16.0743 21.2929 15.8868C21.1054 15.6993 21 15.4449 21 15.1797H23ZM21 11.1797C21 10.9145 21.1054 10.6601 21.2929 10.4726C21.4804 10.285 21.7348 10.1797 22 10.1797C22.2652 10.1797 22.5196 10.285 22.7071 10.4726C22.8946 10.6601 23 10.9145 23 11.1797H21Z" fill="#0C4578"/>
<path d="M14.1602 17.1792V19.1792C13.7721 19.1823 13.3914 19.0723 13.0647 18.8628C12.738 18.6533 12.4793 18.3532 12.3202 17.9992L14.1602 17.1792ZM14.1602 17.1792H17.0002V19.1792H14.1602V17.1792ZM12.1002 12.2892L14.1602 17.1792L12.3202 17.9992L10.2602 13.0692L12.1002 12.2892ZM17.0002 17.1792C17.2654 17.1792 17.5198 17.2845 17.7073 17.4721C17.8948 17.6596 18.0002 17.914 18.0002 18.1792C18.0002 18.4444 17.8948 18.6988 17.7073 18.8863C17.5198 19.0738 17.2654 19.1792 17.0002 19.1792V17.1792ZM10.2602 13.0692C10.1686 12.8274 10.1742 12.5596 10.2757 12.3219C10.3773 12.0842 10.567 11.895 10.805 11.7942C11.043 11.6933 11.3109 11.6885 11.5523 11.7807C11.7938 11.873 11.9902 12.0553 12.1002 12.2892L10.2602 13.0692Z" fill="#0C4578"/>
<path d="M14.1602 29.1797V27.1797C13.7676 27.18 13.3838 27.2959 13.0566 27.5128C12.7294 27.7297 12.4733 28.0382 12.3202 28.3997L14.1602 29.1797ZM14.1602 29.1797H17.0002V27.1797H14.1602V29.1797ZM12.1002 34.0697L14.1602 29.1797L12.3202 28.3997L10.2602 33.2897L12.1002 34.0697ZM17.0002 29.1797C17.2654 29.1797 17.5198 29.0743 17.7073 28.8868C17.8948 28.6993 18.0002 28.4449 18.0002 28.1797C18.0002 27.9145 17.8948 27.6601 17.7073 27.4726C17.5198 27.285 17.2654 27.1797 17.0002 27.1797V29.1797ZM10.2602 33.2897C10.1686 33.5314 10.1742 33.7992 10.2757 34.037C10.3773 34.2747 10.567 34.4638 10.805 34.5647C11.043 34.6656 11.3109 34.6704 11.5523 34.5781C11.7938 34.4858 11.9902 34.3036 12.1002 34.0697L10.2602 33.2897Z" fill="#0C4578"/>
<path d="M17 22H11V24H17V22ZM11 22C10.7348 22 10.4804 22.1054 10.2929 22.2929C10.1054 22.4804 10 22.7348 10 23C10 23.2652 10.1054 23.5196 10.2929 23.7071C10.4804 23.8946 10.7348 24 11 24V22ZM17 24C17.2652 24 17.5196 23.8946 17.7071 23.7071C17.8946 23.5196 18 23.2652 18 23C18 22.7348 17.8946 22.4804 17.7071 22.2929C17.5196 22.1054 17.2652 22 17 22V24Z" fill="#0C4578"/>
<mask id="mask3_1_16656" style="mask-type:luminance" maskUnits="userSpaceOnUse" x="16" y="14" width="18" height="19">
<path d="M32 14.1797H18C16.8954 14.1797 16 15.0751 16 16.1797V30.1797C16 31.2843 16.8954 32.1797 18 32.1797H32C33.1046 32.1797 34 31.2843 34 30.1797V16.1797C34 15.0751 33.1046 14.1797 32 14.1797Z" fill="white"/>
</mask>
<g mask="url(#mask3_1_16656)">
<path d="M32 12.1797C33.0609 12.1797 34.0783 12.6011 34.8284 13.3513C35.5786 14.1014 36 15.1188 36 16.1797H32V12.1797ZM18 16.1797H14C14 15.1188 14.4214 14.1014 15.1716 13.3513C15.9217 12.6011 16.9391 12.1797 18 12.1797V16.1797ZM18 30.1797V34.1797C16.9391 34.1797 15.9217 33.7583 15.1716 33.0081C14.4214 32.258 14 31.2406 14 30.1797H18ZM32 30.1797H36C36 31.2406 35.5786 32.258 34.8284 33.0081C34.0783 33.7583 33.0609 34.1797 32 34.1797V30.1797ZM32 30.1797V16.1797H36V30.1797H32ZM18 30.1797H32V34.1797H18V30.1797ZM18 16.1797V30.1797H14V16.1797H18ZM32 16.1797H18V12.1797H32V16.1797Z" fill="#0C4578"/>
</g>
<mask id="mask4_1_16656" style="mask-type:luminance" maskUnits="userSpaceOnUse" x="19" y="17" width="12" height="12">
<path d="M23.7681 18.2299L20.2326 21.7655C19.4515 22.5465 19.4515 23.8129 20.2326 24.5939L23.7681 28.1294C24.5492 28.9105 25.8155 28.9105 26.5965 28.1294L30.1321 24.5939C30.9131 23.8129 30.9131 22.5465 30.1321 21.7655L26.5965 18.2299C25.8155 17.4489 24.5492 17.4489 23.7681 18.2299Z" fill="white"/>
</mask>
<g mask="url(#mask4_1_16656)">
<path d="M31.4999 20.3496C32.2479 21.0995 32.668 22.1154 32.668 23.1746C32.668 24.2338 32.2479 25.2498 31.4999 25.9996L28.6699 23.1696L31.4999 20.3496ZM25.1399 19.6496L22.3099 16.8196C22.6814 16.4477 23.1225 16.1527 23.6081 15.9514C24.0937 15.7501 24.6142 15.6465 25.1399 15.6465C25.6655 15.6465 26.186 15.7501 26.6716 15.9514C27.1572 16.1527 27.5984 16.4477 27.9699 16.8196L25.1399 19.6496ZM21.5999 23.1796L18.8099 25.9996C18.438 25.6281 18.1429 25.187 17.9416 24.7014C17.7403 24.2158 17.6367 23.6953 17.6367 23.1696C17.6367 22.644 17.7403 22.1235 17.9416 21.6379C18.1429 21.1523 18.438 20.7111 18.8099 20.3396L21.5999 23.1796ZM25.1399 26.7196L27.9699 29.5396C27.5984 29.9115 27.1572 30.2066 26.6716 30.4079C26.186 30.6092 25.6655 30.7128 25.1399 30.7128C24.6142 30.7128 24.0937 30.6092 23.6081 30.4079C23.1225 30.2066 22.6814 29.9115 22.3099 29.5396L25.1399 26.7196ZM25.1399 26.7196L28.6699 23.1796L31.4999 25.9996L27.9699 29.5296L25.1399 26.7196ZM21.5999 23.1796L25.1399 26.7196L22.3099 29.5396L18.8099 25.9996L21.5999 23.1796ZM25.1399 19.6496L21.5999 23.1796L18.7699 20.3496L22.3099 16.8196L25.1399 19.6496ZM28.6699 23.1796L25.1399 19.6496L27.9699 16.8196L31.4999 20.3496L28.6699 23.1796Z" fill="#0C4578"/>
</g>
<path d="M26 40.6807V8.55067C26.0055 8.3814 26.0504 8.21575 26.131 8.06685C26.2117 7.91795 26.326 7.78989 26.4648 7.69284C26.6036 7.59579 26.763 7.53241 26.9306 7.50773C27.0981 7.48305 27.2691 7.49775 27.43 7.55067L47.23 13.2807C47.4454 13.3315 47.6378 13.4523 47.7771 13.6243C47.9165 13.7962 47.9949 14.0094 48 14.2307V40.6807C47.9936 40.8186 47.96 40.9539 47.9012 41.0789C47.8425 41.2038 47.7596 41.316 47.6574 41.4089C47.5553 41.5017 47.4358 41.5736 47.3058 41.6202C47.1758 41.6668 47.0379 41.6874 46.9 41.6807H27.1C26.9621 41.6874 26.8242 41.6668 26.6942 41.6202C26.5642 41.5736 26.4447 41.5017 26.3426 41.4089C26.2404 41.316 26.1575 41.2038 26.0988 41.0789C26.04 40.9539 26.0064 40.8186 26 40.6807Z" fill="url(#paint0_linear_1_16656)"/>
<path d="M37 30.1797C36.2044 30.1797 35.4413 30.4958 34.8787 31.0584C34.3161 31.621 34 32.384 34 33.1797H36C36 32.9145 36.1054 32.6601 36.2929 32.4726C36.4804 32.285 36.7348 32.1797 37 32.1797V30.1797ZM41 32.1797C41.2652 32.1797 41.5196 32.285 41.7071 32.4726C41.8946 32.6601 42 32.9145 42 33.1797H44C44 32.384 43.6839 31.621 43.1213 31.0584C42.5587 30.4958 41.7956 30.1797 41 30.1797V32.1797ZM36 41.1797V33.1797H34V41.1797H36ZM43 40.1797H35V42.1797H43V40.1797ZM42 33.1797V41.1797H44V33.1797H42ZM37 32.1797H41V30.1797H37V32.1797ZM35 41.1797H34V42.1797H35V41.1797ZM43 41.1797V42.1797H44V41.1797H43Z" fill="#0C4578"/>
<path d="M41.5 13.1797C41.1022 13.1797 40.7206 13.3377 40.4393 13.619C40.158 13.9003 40 14.2819 40 14.6797H42C42 14.8123 41.9473 14.9395 41.8536 15.0332C41.7598 15.127 41.6326 15.1797 41.5 15.1797V13.1797ZM46.5 15.1797C46.3674 15.1797 46.2402 15.127 46.1464 15.0332C46.0527 14.9395 46 14.8123 46 14.6797H48C48 14.2819 47.842 13.9003 47.5607 13.619C47.2794 13.3377 46.8978 13.1797 46.5 13.1797V15.1797ZM46 17.6797C46 17.5471 46.0527 17.4199 46.1464 17.3261C46.2402 17.2324 46.3674 17.1797 46.5 17.1797V19.1797C46.8978 19.1797 47.2794 19.0217 47.5607 18.7403C47.842 18.459 48 18.0775 48 17.6797H46ZM41.5 17.1797C41.6326 17.1797 41.7598 17.2324 41.8536 17.3261C41.9473 17.4199 42 17.5471 42 17.6797H40C40 18.0775 40.158 18.459 40.4393 18.7403C40.7206 19.0217 41.1022 19.1797 41.5 19.1797V17.1797ZM42 17.6797V14.6797H40V17.6797H42ZM46.5 17.1797H41.5V19.1797H46.5V17.1797ZM46 14.6797V17.6797H48V14.6797H46ZM41.5 15.1797H46.5V13.1797H41.5V15.1797Z" fill="#0C4578"/>
<path d="M30.5 13.1797C30.1022 13.1797 29.7206 13.3377 29.4393 13.619C29.158 13.9003 29 14.2819 29 14.6797H31C31 14.8123 30.9473 14.9395 30.8536 15.0332C30.7598 15.127 30.6326 15.1797 30.5 15.1797V13.1797ZM35.5 15.1797C35.3674 15.1797 35.2402 15.127 35.1464 15.0332C35.0527 14.9395 35 14.8123 35 14.6797H37C37 14.2819 36.842 13.9003 36.5607 13.619C36.2794 13.3377 35.8978 13.1797 35.5 13.1797V15.1797ZM35 17.6797C35 17.5471 35.0527 17.4199 35.1464 17.3261C35.2402 17.2324 35.3674 17.1797 35.5 17.1797V19.1797C35.8978 19.1797 36.2794 19.0217 36.5607 18.7403C36.842 18.459 37 18.0775 37 17.6797H35ZM30.5 17.1797C30.6326 17.1797 30.7598 17.2324 30.8536 17.3261C30.9473 17.4199 31 17.5471 31 17.6797H29C29 18.0775 29.158 18.459 29.4393 18.7403C29.7206 19.0217 30.1022 19.1797 30.5 19.1797V17.1797ZM31 17.6797V14.6797H29V17.6797H31ZM35.5 17.1797H30.5V19.1797H35.5V17.1797ZM35 14.6797V17.6797H37V14.6797H35ZM30.5 15.1797H35.5V13.1797H30.5V15.1797Z" fill="#0C4578"/>
<path d="M41.5 21.1797C41.1022 21.1797 40.7206 21.3377 40.4393 21.619C40.158 21.9003 40 22.2819 40 22.6797H42C42 22.8123 41.9473 22.9395 41.8536 23.0332C41.7598 23.127 41.6326 23.1797 41.5 23.1797V21.1797ZM46.5 23.1797C46.3674 23.1797 46.2402 23.127 46.1464 23.0332C46.0527 22.9395 46 22.8123 46 22.6797H48C48 22.2819 47.842 21.9003 47.5607 21.619C47.2794 21.3377 46.8978 21.1797 46.5 21.1797V23.1797ZM46 25.6797C46 25.5471 46.0527 25.4199 46.1464 25.3261C46.2402 25.2324 46.3674 25.1797 46.5 25.1797V27.1797C46.8978 27.1797 47.2794 27.0217 47.5607 26.7403C47.842 26.459 48 26.0775 48 25.6797H46ZM41.5 25.1797C41.6326 25.1797 41.7598 25.2324 41.8536 25.3261C41.9473 25.4199 42 25.5471 42 25.6797H40C40 26.0775 40.158 26.459 40.4393 26.7403C40.7206 27.0217 41.1022 27.1797 41.5 27.1797V25.1797ZM42 25.6797V22.6797H40V25.6797H42ZM46.5 25.1797H41.5V27.1797H46.5V25.1797ZM46 22.6797V25.6797H48V22.6797H46ZM41.5 23.1797H46.5V21.1797H41.5V23.1797Z" fill="#0C4578"/>
<path d="M30.5 21.1797C30.1022 21.1797 29.7206 21.3377 29.4393 21.619C29.158 21.9003 29 22.2819 29 22.6797H31C31 22.8123 30.9473 22.9395 30.8536 23.0332C30.7598 23.127 30.6326 23.1797 30.5 23.1797V21.1797ZM35.5 23.1797C35.3674 23.1797 35.2402 23.127 35.1464 23.0332C35.0527 22.9395 35 22.8123 35 22.6797H37C37 22.2819 36.842 21.9003 36.5607 21.619C36.2794 21.3377 35.8978 21.1797 35.5 21.1797V23.1797ZM35 25.6797C35 25.5471 35.0527 25.4199 35.1464 25.3261C35.2402 25.2324 35.3674 25.1797 35.5 25.1797V27.1797C35.8978 27.1797 36.2794 27.0217 36.5607 26.7403C36.842 26.459 37 26.0775 37 25.6797H35ZM30.5 25.1797C30.6326 25.1797 30.7598 25.2324 30.8536 25.3261C30.9473 25.4199 31 25.5471 31 25.6797H29C29 26.0775 29.158 26.459 29.4393 26.7403C29.7206 27.0217 30.1022 27.1797 30.5 27.1797V25.1797ZM31 25.6797V22.6797H29V25.6797H31ZM35.5 25.1797H30.5V27.1797H35.5V25.1797ZM35 22.6797V25.6797H37V22.6797H35ZM30.5 23.1797H35.5V21.1797H30.5V23.1797Z" fill="#0C4578"/>
<path d="M52.9707 12.5V29.5H50.9707V12.5H52.9707ZM51.6607 13.7L25.6607 2.94L26.2907 0.54L52.2907 11.29L51.6607 13.7ZM26.9707 1.7V42.18H24.9707V1.74L26.9707 1.7ZM51.9707 12.46L52.2907 11.25L52.9707 11.54V12.46H51.9707ZM25.9707 1.7H24.9707V0L26.2907 0.54L25.9707 1.7Z" fill="#0C4578"/>
<path d="M26 41.1797H51.97" stroke="#0C4578" stroke-width="2" stroke-miterlimit="10"/>
<path d="M51.9707 28.1797V42.1797" stroke="#0C4578" stroke-width="2" stroke-miterlimit="10"/>
<defs>
<linearGradient id="paint0_linear_1_16656" x1="26" y1="24.6107" x2="48" y2="24.6107" gradientUnits="userSpaceOnUse">
<stop offset="0.3" stop-color="#176AB4"/>
<stop offset="0.7" stop-color="#9CECFB"/>
<stop offset="1" stop-color="#D3EAFF"/>
</linearGradient>
</defs>
</svg>
