<svg width="60" height="60" viewBox="0 0 60 60" fill="none" xmlns="http://www.w3.org/2000/svg">
<g clip-path="url(#clip0_1_16633)">
<path d="M54.2844 24.4776C54.2009 26.1101 54.1591 26.147 52.5055 26.1494C50.7585 26.1494 49.0139 26.1494 47.2694 26.1494C46.0998 26.1494 45.773 25.5348 46.3455 24.485C47.1981 24.1113 48.095 24.3449 48.9697 24.3055C49.8444 24.2662 50.6897 24.3203 51.5349 24.2834C51.8396 24.2687 52.3359 24.5293 52.3949 23.9269C52.4367 23.477 52.4735 23.0738 51.8838 22.8255C51.3258 22.6056 50.8382 22.2376 50.4737 21.7611C50.1091 21.2845 49.8814 20.7176 49.8149 20.1211C49.6864 19.2669 49.8722 18.3951 50.3378 17.6676C50.8034 16.9402 51.5172 16.4066 52.3465 16.1662C53.1757 15.9258 54.064 15.9949 54.8462 16.3605C55.6284 16.7262 56.2512 17.3637 56.599 18.1543C57.3091 19.7302 56.798 21.7561 55.2353 22.5452C54.277 23.0296 54.1493 23.6122 54.2844 24.4776ZM53.363 21.3135C53.7057 21.3173 54.0418 21.2186 54.3281 21.03C54.6144 20.8414 54.8378 20.5715 54.9697 20.2549C55.1016 19.9383 55.1359 19.5896 55.0684 19.2533C55.0008 18.9171 54.8343 18.6087 54.5904 18.3678C54.3464 18.1269 54.0361 17.9644 53.6992 17.9012C53.3623 17.838 53.0142 17.8769 52.6996 18.013C52.385 18.1491 52.1182 18.3762 51.9334 18.6651C51.7487 18.954 51.6544 19.2915 51.6627 19.6344C51.6679 20.0819 51.8494 20.5094 52.1677 20.8238C52.4861 21.1382 52.9157 21.3142 53.363 21.3135Z" fill="#0C4578"/>
<path d="M10.8587 33.8242L12.8735 33.8586C13.4854 33.8586 13.9203 34.1561 13.9104 34.7707C13.9006 35.3854 13.5173 35.7074 12.8858 35.705C11.446 35.705 10.0086 35.6853 8.57115 35.7222C8.23452 35.7222 7.70624 35.4296 7.5883 36.0295C7.47528 36.5605 7.5883 36.9514 8.20504 37.244C9.92501 38.0504 10.5835 39.85 9.95204 41.6521C9.44587 43.0928 7.9495 44.0344 6.26638 43.9656C5.53665 43.9257 4.8395 43.6502 4.27953 43.1804C3.71955 42.7105 3.32694 42.0716 3.1606 41.3596C2.78467 39.8845 3.2982 38.2077 4.65698 37.512C5.70616 36.976 5.8413 36.2827 5.67668 35.3313C5.77496 33.9594 5.88799 33.8562 7.28362 33.8562L10.8587 33.8242ZM8.30332 40.3639C8.29815 39.9154 8.11647 39.4871 7.79769 39.1718C7.47892 38.8566 7.04877 38.6798 6.60055 38.6798C6.14438 38.6886 5.7104 38.8783 5.39406 39.2073C5.07772 39.5363 4.90495 39.9775 4.91375 40.4339C4.92255 40.8904 5.11219 41.3246 5.44097 41.6411C5.76975 41.9576 6.21073 42.1305 6.66689 42.1217C7.11487 42.1 7.53666 41.9041 7.84235 41.5757C8.14805 41.2474 8.31346 40.8125 8.30332 40.3639Z" fill="#0C4578"/>
<path d="M18.2158 3.31211C18.9332 3.02447 19.69 3.1351 20.4272 3.13018C21.5181 3.50142 22.3928 4.12588 22.8376 5.22975C23.0096 5.66245 23.2897 5.72146 23.6902 5.72146C26.4225 5.65753 26.1473 5.76079 26.1473 8.26356C26.1473 9.70179 26.1473 11.1425 26.1473 12.5832C26.183 12.9502 26.1149 13.32 25.9507 13.6502C25.7466 13.8286 25.4847 13.9269 25.2136 13.9269C24.9425 13.9269 24.6806 13.8286 24.4765 13.6502C24.3161 13.3197 24.2506 12.9512 24.2873 12.5856C24.2873 11.2384 24.3094 9.88126 24.2725 8.54875C24.2725 8.22176 24.5747 7.69318 23.9212 7.59484C23.415 7.51863 23.0341 7.59484 22.7811 8.18734C22.5643 8.71349 22.2121 9.17273 21.7601 9.51825C21.3082 9.86376 20.7728 10.0832 20.2085 10.1542C19.3921 10.3127 18.5461 10.1797 17.8176 9.77833C17.0892 9.37696 16.5245 8.73265 16.222 7.9576C15.9194 7.18255 15.8982 6.32587 16.1619 5.53677C16.4257 4.74766 16.9577 4.07612 17.6654 3.6391C17.8423 3.52109 18.0315 3.42029 18.2158 3.31211ZM21.2994 6.65077C21.3092 6.31143 21.2177 5.97688 21.0366 5.68978C20.8556 5.40269 20.5931 5.17606 20.2828 5.03883C19.9725 4.90159 19.6283 4.85996 19.2942 4.91924C18.9602 4.97852 18.6513 5.13603 18.4071 5.37168C18.1628 5.60732 17.9943 5.91042 17.923 6.24231C17.8516 6.5742 17.8807 6.91983 18.0065 7.23512C18.1322 7.55041 18.349 7.82106 18.6292 8.01255C18.9094 8.20404 19.2402 8.30769 19.5795 8.31027C20.0268 8.31622 20.4585 8.14523 20.7806 7.83448C21.1026 7.52373 21.2891 7.09834 21.2994 6.65077Z" fill="#0C4578"/>
<path d="M35.4986 13.6293C35.2949 13.8088 35.0329 13.9077 34.7615 13.9077C34.4901 13.9077 34.228 13.8088 34.0243 13.6293C33.8695 13.3259 33.8015 12.9856 33.8278 12.6459C33.8278 10.7455 33.8278 8.84752 33.8278 6.94955C33.8278 5.94402 34.0735 5.7203 35.0735 5.69325C35.2256 5.67974 35.3785 5.67974 35.5306 5.69325C36.4249 5.81618 36.9852 5.5777 37.452 4.66559C38.1695 3.27162 39.9533 2.73566 41.4448 3.21015C41.9956 3.3816 42.4967 3.68394 42.9053 4.09133C43.3139 4.49872 43.6179 4.99905 43.7912 5.54955C43.9644 6.10005 44.0019 6.68435 43.9004 7.25251C43.7989 7.82067 43.5615 8.35578 43.2083 8.81212C42.8551 9.26846 42.3968 9.63244 41.8724 9.87296C41.348 10.1135 40.7733 10.2234 40.1972 10.1933C39.6212 10.1632 39.061 9.99397 38.5645 9.7001C38.0681 9.40624 37.6501 8.99645 37.3464 8.50579C37.2317 8.32477 37.137 8.13189 37.0638 7.9305C36.8746 7.37733 36.4176 7.58631 36.0564 7.57647C35.5527 7.56172 35.6903 7.97229 35.6878 8.24519C35.6878 9.68342 35.6878 11.1241 35.6878 12.5623C35.7231 12.9286 35.6577 13.2976 35.4986 13.6293ZM40.371 8.30911C40.8197 8.31374 41.2521 8.14098 41.5742 7.82839C41.8962 7.5158 42.082 7.08864 42.091 6.63978C42.1013 6.29739 42.0092 5.95973 41.8266 5.67001C41.6439 5.38029 41.379 5.1517 41.0658 5.01349C40.7526 4.87528 40.4052 4.83375 40.0683 4.89421C39.7313 4.95467 39.42 5.11436 39.1743 5.35286C38.9285 5.59136 38.7595 5.8978 38.6889 6.23296C38.6182 6.56813 38.6491 6.91677 38.7777 7.23425C38.9062 7.55173 39.1265 7.82362 39.4103 8.0151C39.6942 8.20658 40.0287 8.30895 40.371 8.30911Z" fill="#0C4578"/>
<path d="M5.67004 24.4846C5.81992 23.6094 5.69706 23.0095 4.72405 22.5375C3.31613 21.8491 2.77557 20.079 3.2375 18.5596C3.46834 17.8246 3.92771 17.1826 4.54868 16.7271C5.16965 16.2717 5.91977 16.0265 6.68973 16.0273C8.21068 16.0519 9.71688 17.2197 10.0854 18.658C10.2843 19.4207 10.2264 20.2278 9.92085 20.9544C9.61528 21.6809 9.07902 22.2866 8.39496 22.6776C8.14925 22.8153 7.84949 22.8792 7.67503 23.071C7.42932 23.334 7.53743 23.7176 7.59149 24.0347C7.66029 24.4355 8.02885 24.2806 8.27211 24.2806C9.74637 24.2806 11.2206 24.3076 12.6777 24.2806C13.3706 24.2658 13.889 24.5264 13.889 25.2074C13.889 25.8884 13.3976 26.1908 12.6924 26.154C11.9872 26.1171 11.3484 26.1687 10.6752 26.1785C9.60631 26.1785 8.53502 26.154 7.46372 26.149C5.80763 26.1466 5.77078 26.1171 5.67004 24.4846ZM8.30651 19.6266C8.31267 19.1789 8.14418 18.7464 7.8368 18.4209C7.52942 18.0954 7.10737 17.9027 6.66025 17.8835C6.20408 17.8767 5.76388 18.0514 5.43649 18.3693C5.10909 18.6872 4.92132 19.1222 4.91448 19.5787C4.90763 20.0351 5.08228 20.4755 5.4 20.8031C5.71772 21.1307 6.15248 21.3186 6.60865 21.3254C7.05717 21.3197 7.4857 21.1389 7.80288 20.8215C8.12006 20.5042 8.30078 20.0754 8.30651 19.6266Z" fill="#0C4578"/>
<path d="M30.7122 13.634C30.5135 13.8234 30.2496 13.929 29.9751 13.929C29.7007 13.929 29.4367 13.8234 29.238 13.634C29.0193 13.275 29.0439 12.8743 29.0463 12.4785C29.0463 10.8878 29.0463 9.29717 29.066 7.70651C29.066 7.21481 28.921 6.96896 28.4615 6.74032C27.7044 6.38933 27.0957 5.7817 26.7431 5.02492C26.3906 4.26814 26.3169 3.41099 26.5352 2.6051C27.0069 0.91856 28.5451 -0.12139 30.383 0.0113693C31.9998 0.126919 33.3315 1.44468 33.5772 3.16564C33.6548 3.88527 33.5074 4.61127 33.1554 5.24357C32.8033 5.87587 32.2639 6.38335 31.6115 6.69606C31.0341 6.97142 30.899 7.30824 30.9113 7.88844C30.9432 9.4496 30.9113 11.0083 30.9113 12.5596C30.9465 12.9293 30.8775 13.3015 30.7122 13.634ZM29.9038 5.20621C30.1236 5.22837 30.3456 5.2046 30.5557 5.13642C30.7658 5.06823 30.9595 4.95712 31.1244 4.81011C31.2894 4.66311 31.422 4.48342 31.5139 4.28245C31.6058 4.08147 31.6549 3.86358 31.6582 3.64259C31.6858 3.41616 31.6668 3.18647 31.6024 2.96766C31.5379 2.74885 31.4294 2.54555 31.2835 2.37028C31.1376 2.195 30.9574 2.05146 30.7539 1.94848C30.5505 1.84551 30.3282 1.78528 30.1006 1.7715C29.873 1.75772 29.6451 1.79068 29.4307 1.86836C29.2164 1.94604 29.0202 2.06679 28.8542 2.22318C28.6882 2.37957 28.556 2.56829 28.4656 2.77773C28.3753 2.98716 28.3287 3.21288 28.3288 3.44099C28.3122 3.66189 28.3403 3.88388 28.4116 4.09361C28.4829 4.30334 28.5958 4.49647 28.7437 4.66138C28.8915 4.82629 29.0711 4.95957 29.2718 5.0532C29.4724 5.14683 29.6899 5.19888 29.9112 5.20621H29.9038Z" fill="#0C4578"/>
<path d="M9.58144 29.0288C10.6429 29.0435 11.7044 29.073 12.7757 29.0706C13.4538 29.0706 13.96 29.3361 13.933 30.054C13.9109 30.703 13.4194 30.9464 12.7781 30.9391C11.7167 30.9391 10.6527 30.9538 9.58389 30.9636L8.84676 30.9341C7.81478 30.885 6.95971 30.8628 6.34298 32.0995C5.65499 33.4738 3.81953 33.8794 2.39195 33.3681C1.67285 33.1311 1.05038 32.6663 0.618619 32.044C0.186859 31.4217 -0.0307299 30.6757 -0.00126336 29.9188C0.00451759 29.1662 0.248535 28.4348 0.695741 27.8296C1.14295 27.2245 1.77033 26.7767 2.48778 26.5506C3.96204 26.1007 5.6943 26.5654 6.40195 27.9544C6.95725 29.0485 7.67227 29.164 8.65511 29.0681C8.95733 29.0337 9.26447 29.0386 9.58144 29.0288ZM3.52714 28.3134C3.0829 28.3192 2.6591 28.5011 2.34866 28.819C2.03821 29.137 1.86646 29.5652 1.87105 30.0097C1.88391 30.4554 2.07158 30.878 2.39345 31.1862C2.71532 31.4945 3.14552 31.6636 3.59102 31.6569C3.81251 31.6562 4.03156 31.6105 4.23488 31.5226C4.4382 31.4347 4.62158 31.3064 4.77389 31.1455C4.9262 30.9846 5.04428 30.7945 5.12098 30.5866C5.19767 30.3786 5.23139 30.1573 5.22008 29.936C5.22474 29.7144 5.18316 29.4944 5.098 29.2898C5.01283 29.0852 4.88595 28.9007 4.72547 28.748C4.56499 28.5953 4.37443 28.4778 4.16598 28.4029C3.95752 28.3281 3.73576 28.2976 3.51485 28.3134H3.52714Z" fill="#0C4578"/>
<path d="M34.0295 46.3693C34.3538 46.1873 34.6732 45.9857 35.0738 46.0742L35.4988 46.3717L35.6364 46.5758C35.6512 48.2254 35.6512 49.8776 35.6979 51.5297C35.6979 51.8345 35.4276 52.3361 36.0173 52.4246C36.5087 52.4959 36.8896 52.4738 37.1869 51.8739C38.4007 49.4154 41.5286 49.0761 43.1674 51.1609C44.4918 52.8474 44.1011 55.156 42.2878 56.368C41.884 56.634 41.429 56.8125 40.9521 56.892C40.4752 56.9715 39.987 56.9502 39.5188 56.8295C39.0506 56.7089 38.6129 56.4915 38.2337 56.1915C37.8545 55.8914 37.5423 55.5152 37.3171 55.0872C36.9756 54.4234 36.58 54.2119 35.9092 54.2832C35.5126 54.3152 35.1141 54.3152 34.7175 54.2832C34.1794 54.2513 33.8526 53.9464 33.8477 53.408C33.8477 51.2347 33.8477 49.0638 33.8477 46.8905C33.8807 46.7083 33.942 46.5324 34.0295 46.3693ZM40.418 51.6919C40.0898 51.6931 39.7693 51.7908 39.4963 51.973C39.2234 52.1552 39.0101 52.4138 38.883 52.7165C38.756 53.0192 38.7209 53.3527 38.782 53.6752C38.8432 53.9978 38.9979 54.2952 39.2268 54.5304C39.4558 54.7655 39.7489 54.928 40.0696 54.9976C40.3903 55.0671 40.7243 55.0407 41.0301 54.9215C41.3358 54.8023 41.5997 54.5957 41.7889 54.3274C41.978 54.0591 42.084 53.7411 42.0937 53.4129C42.097 52.9623 41.9222 52.5286 41.6075 52.2062C41.2927 51.8839 40.8634 51.6991 40.413 51.6919H40.418Z" fill="#0C4578"/>
<path d="M24.2666 46.7402C24.4754 46.3124 24.7408 45.9609 25.2936 46.0863C26.048 46.2534 26.1708 46.8238 26.1659 47.4753C26.1659 49.3118 26.1463 51.1483 26.1291 52.9848C26.1291 54.0125 25.8563 54.2657 24.817 54.2879C24.6027 54.3038 24.3875 54.3038 24.1732 54.2879C23.4361 54.1797 22.9864 54.4083 22.6154 55.1459C21.8783 56.5964 20.1583 57.2282 18.6079 56.7833C17.871 56.5612 17.2233 56.1114 16.7577 55.4984C16.292 54.8854 16.0322 54.1406 16.0156 53.3708C16.0156 51.8244 17.2221 50.2436 18.6742 49.9019C19.4373 49.7088 20.2427 49.7728 20.9658 50.0839C21.6889 50.395 22.2894 50.9359 22.6744 51.6228C22.7646 51.7824 22.8466 51.9465 22.9201 52.1145C23.1486 52.6333 23.6032 52.412 23.9644 52.4096C24.3943 52.4096 24.2764 52.0285 24.2789 51.7826C24.2813 50.1084 24.2715 48.4317 24.2666 46.7402ZM19.5612 55.0328C19.8896 55.0293 20.2096 54.9292 20.4814 54.7448C20.7531 54.5604 20.9646 54.3 21.0893 53.9961C21.214 53.6922 21.2465 53.3583 21.1827 53.036C21.1188 52.7137 20.9615 52.4174 20.7303 52.1841C20.4991 51.9508 20.2044 51.7908 19.8829 51.7241C19.5614 51.6574 19.2273 51.687 18.9225 51.8091C18.6177 51.9313 18.3556 52.1406 18.169 52.4109C17.9824 52.6812 17.8795 53.0006 17.8732 53.329C17.8776 53.777 18.0564 54.2056 18.3716 54.5237C18.6868 54.8419 19.1136 55.0245 19.5612 55.0328Z" fill="#0C4578"/>
<path d="M29.0224 47.475C29.1133 46.966 28.9413 46.3195 29.6489 46.1179C30.2337 45.9531 30.6318 46.2752 30.9193 46.7399C30.9193 48.6059 30.9193 50.4694 30.8971 52.3354C30.8696 52.5261 30.9088 52.7204 31.0083 52.8853C31.1077 53.0503 31.2612 53.1757 31.4426 53.2402C33.1282 54.0662 33.885 55.7651 33.4083 57.4369C32.9316 59.1086 31.4426 60.0945 29.6293 59.9912C28.0051 59.8978 26.7053 58.6292 26.435 56.8616C26.3396 56.1281 26.4828 55.3834 26.8435 54.7378C27.2042 54.0921 27.7632 53.5799 28.4376 53.2771C28.9609 53.0312 29.0887 52.7583 29.0789 52.242C29.0273 50.644 29.0322 49.0632 29.0224 47.475ZM28.3 56.4264C28.2887 56.6506 28.3228 56.8749 28.4 57.0857C28.4772 57.2965 28.5961 57.4895 28.7496 57.6534C28.903 57.8172 29.0879 57.9484 29.2931 58.0392C29.4984 58.13 29.7198 58.1785 29.9441 58.1818C30.1685 58.1851 30.3912 58.1431 30.5991 58.0584C30.8069 57.9737 30.9955 57.848 31.1537 57.6888C31.3119 57.5295 31.4364 57.34 31.5198 57.1316C31.6032 56.9232 31.6438 56.7001 31.6392 56.4756C31.6525 56.2541 31.6191 56.0323 31.5414 55.8246C31.4636 55.6168 31.3431 55.4277 31.1877 55.2694C31.0323 55.1112 30.8455 54.9873 30.6393 54.9058C30.433 54.8243 30.212 54.7871 29.9905 54.7964C28.9929 54.7841 28.3123 55.4332 28.3 56.4264Z" fill="#0C4578"/>
<path d="M50.0979 33.8566C51.0808 33.8566 52.0636 33.8763 53.0464 33.8566C53.8941 33.8321 54.3118 34.1935 54.275 35.0539C54.2627 35.2678 54.2947 35.4866 54.275 35.6981C54.189 36.4799 54.3364 36.9986 55.1841 37.419C56.6166 38.1172 57.2014 39.8284 56.7665 41.3526C56.5399 42.1177 56.0702 42.7879 55.4286 43.2617C54.787 43.7356 54.0085 43.9872 53.2111 43.9783C51.5329 43.9513 50.2896 42.9605 49.8694 41.3158C49.6558 40.5179 49.7331 39.67 50.0874 38.924C50.4417 38.178 51.05 37.5826 51.8031 37.2445C52.4371 36.947 52.5132 36.5438 52.4076 36.0152C52.3019 35.4866 51.8031 35.7276 51.4911 35.7202C50.0537 35.6882 48.6138 35.7202 47.1764 35.6956C46.5916 35.6833 46.0019 35.6341 46.024 34.7638C46.0412 34.1345 46.3115 33.8665 46.9037 33.8665H50.1176L50.0979 33.8566ZM53.3192 42.1123C53.6618 42.1251 54.0004 42.0351 54.2915 41.8539C54.5826 41.6727 54.813 41.4086 54.953 41.0954C55.0931 40.7823 55.1364 40.4345 55.0774 40.0965C55.0184 39.7586 54.8599 39.446 54.6221 39.1989C54.3843 38.9518 54.0781 38.7814 53.7428 38.7097C53.4075 38.6379 53.0585 38.6681 52.7405 38.7962C52.4225 38.9244 52.15 39.1447 51.958 39.4289C51.766 39.7132 51.6633 40.0483 51.6631 40.3914C51.6584 40.8382 51.8294 41.269 52.1392 41.5909C52.4489 41.9129 52.8727 42.1001 53.3192 42.1123Z" fill="#0C4578"/>
<path d="M46.0039 30.1886C46.0457 29.392 46.4683 29.0601 47.2546 29.07C48.9377 29.0921 50.6208 29.07 52.3039 29.0823C52.6799 29.0823 52.9551 29.065 53.1762 28.6274C54.0386 26.9286 55.4785 26.1984 57.1321 26.5254C58.685 26.8352 59.8177 28.2046 59.9996 29.9993C59.7956 31.9661 58.8054 33.1732 57.0928 33.515C55.4466 33.8444 54.0706 33.1314 53.1614 31.3957C52.9452 30.9778 52.67 30.9286 52.2867 30.9311C50.6675 30.9311 49.0483 30.9089 47.429 30.9311C46.7828 30.9532 46.2889 30.7983 46.0039 30.1886ZM56.395 31.6932C56.6198 31.7045 56.8445 31.6703 57.0558 31.5928C57.2671 31.5152 57.4606 31.3959 57.6248 31.2419C57.789 31.0879 57.9205 30.9024 58.0115 30.6965C58.1025 30.4905 58.1511 30.2683 58.1544 30.0432C58.1577 29.818 58.1156 29.5945 58.0307 29.386C57.9458 29.1774 57.8198 28.9882 57.6602 28.8294C57.5006 28.6707 57.3106 28.5457 57.1017 28.462C56.8928 28.3783 56.6691 28.3376 56.4441 28.3422C56.0101 28.3512 55.5964 28.5284 55.2903 28.8366C54.9842 29.1447 54.8096 29.5596 54.8033 29.994C54.7969 30.4284 54.9593 30.8483 55.2562 31.1652C55.5531 31.4822 55.9614 31.6715 56.395 31.6932Z" fill="#0C4578"/>
<path d="M22.8496 27.3909C22.8496 26.3659 22.8496 25.5317 22.8496 24.6975C22.8496 24.5002 22.9145 24.4316 23.0903 24.3908C24.6184 24.0373 26.0956 23.483 27.4852 22.7417C28.3438 22.2789 29.1747 21.7641 29.9736 21.1999C29.9911 21.1817 30.0119 21.1673 30.0349 21.1575C30.0579 21.1476 30.0826 21.1426 30.1075 21.1426C30.1324 21.1426 30.1571 21.1476 30.1801 21.1575C30.2031 21.1673 30.2239 21.1817 30.2414 21.1999C31.2398 21.9264 32.2987 22.5615 33.4058 23.0977C34.5931 23.6783 35.8426 24.1145 37.1289 24.3973C37.2712 24.4273 37.3382 24.483 37.3382 24.6567C37.3382 26.3401 37.3654 28.0257 37.3215 29.7091C37.2673 30.8484 37.0113 31.9682 36.5659 33.0137C35.957 34.5319 35.0137 35.8853 33.8097 36.968C32.7783 37.902 31.573 38.6125 30.2666 39.0567C30.1461 39.1007 30.0145 39.1007 29.894 39.0567C28.7583 38.6583 27.6968 38.0651 26.7548 37.3026C25.4383 36.2374 24.3941 34.8605 23.7119 33.2903C23.3303 32.3864 23.0711 31.4333 22.9417 30.4575C22.7764 29.3724 22.8936 28.2851 22.8496 27.3909ZM28.4835 33.91C28.5295 33.8693 28.5714 33.8371 28.607 33.7985L29.3541 33.0244C30.8777 31.4618 32.4026 29.8985 33.929 28.3345C34.0776 28.1844 34.0629 28.12 33.929 27.9763C33.6381 27.6997 33.3535 27.4102 33.0919 27.1186C32.9496 26.9599 32.87 26.9449 32.711 27.1186C31.3632 28.5125 30.005 29.9063 28.6551 31.2852C28.5295 31.416 28.4584 31.4203 28.337 31.2852C28.0419 30.9657 27.7259 30.6655 27.4287 30.3481C27.3387 30.2537 27.2864 30.2537 27.1964 30.3481C26.8783 30.6898 26.5553 31.025 26.2274 31.3539C26.1374 31.4439 26.1039 31.4997 26.2128 31.609C26.939 32.3424 27.6547 33.0823 28.3747 33.8178C28.4095 33.8503 28.4458 33.881 28.4835 33.91Z" fill="url(#paint0_linear_1_16633)"/>
<path d="M23.3348 20.4098L23.3348 20.4099L23.3425 20.4071C25.402 19.6652 27.3407 18.6232 29.0961 17.3149C29.4386 17.0967 29.7676 16.8583 30.0813 16.6008C30.2774 16.7632 30.4834 16.9134 30.6981 17.0505C32.3566 18.311 34.1723 19.3499 36.0991 20.1411L36.0991 20.1412L36.1084 20.1448C37.6787 20.7533 39.3189 21.1625 40.9907 21.3628V28.2834C40.9907 31.9171 39.8852 35.143 37.5591 37.9245L37.5574 37.9265C35.6277 40.259 33.0109 41.9218 30.0806 42.6774C24.4078 41.0053 20.9045 37.2902 19.495 31.5469C19.2629 30.5155 19.1551 29.46 19.174 28.4029L19.1741 28.4029V28.394V21.3654C20.5902 21.1918 21.9846 20.8716 23.3348 20.4098Z" stroke="#0C4578"/>
</g>
<defs>
<linearGradient id="paint0_linear_1_16633" x1="22.8496" y1="30.1161" x2="37.3465" y2="30.1161" gradientUnits="userSpaceOnUse">
<stop stop-color="#176AB4"/>
<stop offset="1" stop-color="#B1FFC7"/>
</linearGradient>
<clipPath id="clip0_1_16633">
<rect width="60" height="60" fill="white"/>
</clipPath>
</defs>
</svg>
