<svg width="60" height="60" viewBox="0 0 60 60" fill="none" xmlns="http://www.w3.org/2000/svg">
<g clip-path="url(#clip0_1_16611)">
<path d="M3.85048 59.9997C3.73102 59.9439 3.60747 59.8973 3.4809 59.8604C1.48267 59.4098 0.0450784 57.7326 0.0247203 55.6783C-0.0112979 51.7168 -0.00503385 47.7553 0.0247203 43.7875C0.0282447 42.8815 0.321402 42.0003 0.861435 41.2725C1.40147 40.5447 2.16013 40.0083 3.02676 39.7415C3.45271 39.6038 3.5592 39.4051 3.54354 38.9999C3.50282 37.9047 3.90059 37.0285 4.812 36.3839C4.87504 36.3177 4.92063 36.2368 4.94468 36.1486C4.96874 36.0604 4.9705 35.9676 4.94981 35.8786C4.10313 33.7831 3.23869 31.697 2.3565 29.6203C2.25843 29.4343 2.11384 29.2769 1.93681 29.1634C-0.203917 27.5988 -0.59855 24.9578 0.997211 22.8284C1.13551 22.6425 1.2414 22.4347 1.31041 22.2135C2.131 19.5538 2.96255 16.894 3.73772 14.2201C3.89432 13.6788 3.78001 13.0655 3.86927 12.4991C4.14802 10.7499 5.4572 9.57488 7.31448 9.36992C8.83821 9.19312 10.47 10.1866 11.0572 11.7277C11.2326 12.1877 11.4581 12.3145 11.9076 12.2847C12.4526 12.2503 13.0038 12.2941 13.5472 12.2722C13.934 12.255 14.1078 12.3661 14.1172 12.7901C14.1438 13.9635 14.1611 13.9635 12.9881 13.9635C12.8906 13.969 12.7928 13.969 12.6953 13.9635C11.8136 13.8634 11.1496 13.9635 10.7816 15.0071C10.5812 15.5766 9.85768 15.9584 9.38474 16.4402C9.22814 16.5967 9.04492 16.786 9.0277 16.9738C8.81472 19.1861 8.61427 21.4 8.4561 23.617C8.42791 24.0065 8.64089 24.4086 8.67534 24.8107C8.72546 25.3107 8.72546 25.8144 8.67534 26.3143C8.62367 26.7367 8.63933 27.0747 8.89772 27.4517C10.7581 30.1506 12.5841 32.873 14.4429 35.5719C14.6352 35.8291 14.8955 36.0274 15.1946 36.1445C15.7182 36.343 16.1691 36.6956 16.4877 37.1558C16.8062 37.616 16.9773 38.1619 16.9783 38.7214C16.9908 39.5287 16.9908 39.5303 17.8161 39.5303H42.238C43.0116 39.5303 43.0116 39.5303 43.021 38.784C43.0367 37.487 43.6928 36.5858 44.9159 36.1242C45.1461 36.0341 45.3455 35.8799 45.4906 35.6799C47.399 32.8949 49.295 30.1021 51.1783 27.3015C51.3184 27.0813 51.374 26.8179 51.3349 26.5599C51.1732 25.7536 51.2206 24.9193 51.4728 24.1364C51.5349 23.934 51.5588 23.7217 51.5432 23.5106C51.3678 21.3734 51.1893 19.2361 50.9779 17.0958C50.9324 16.8266 50.7827 16.5861 50.5613 16.4262C49.7783 15.9161 49.1723 15.2825 48.8857 14.3922C48.7745 14.0464 48.585 13.951 48.2452 13.962C47.6188 13.9839 46.9924 13.9526 46.366 13.9745C46.0074 13.987 45.8837 13.8493 45.8852 13.5051C45.8852 11.9984 45.8007 12.3207 47.0316 12.2863C47.0707 12.2839 47.1099 12.2839 47.149 12.2863C48.098 12.3911 48.762 12.2675 49.2631 11.1911C50.007 9.58114 52.0162 9.00068 53.7074 9.59991C54.5014 9.89215 55.1752 10.4405 55.6222 11.1583C56.0692 11.8761 56.2639 12.7223 56.1755 13.563C56.1513 13.7929 56.1731 14.0253 56.2397 14.2467C57.0425 16.9127 57.8537 19.5762 58.6733 22.237C58.6912 22.3523 58.7305 22.4631 58.7891 22.564C59.4234 23.3103 59.7554 24.1943 59.9965 25.1237V26.0624C59.9583 26.1087 59.929 26.1618 59.9104 26.2189C59.8148 26.8478 59.5848 27.4487 59.2359 27.9809C58.887 28.513 58.4276 28.9638 57.8887 29.3026C57.766 29.3952 57.6712 29.5197 57.6146 29.6625C56.7439 31.7486 55.8811 33.8347 55.026 35.9208C55.0034 36.0014 55.0008 36.0863 55.0186 36.1681C55.0363 36.2499 55.0738 36.3262 55.1278 36.3902C56.1238 37.0583 56.4981 38.0095 56.437 39.1595C56.4166 39.5365 56.5936 39.6461 56.9068 39.7478C58.4149 40.239 59.3576 41.2826 59.8102 42.7877C59.8697 42.9896 59.9308 43.1914 59.9903 43.3917V56.1571C59.9402 56.2994 59.8806 56.4387 59.8415 56.5826C59.378 58.313 58.2818 59.4083 56.5529 59.8682C56.4072 59.9058 56.2679 59.9668 56.1269 60.0169L3.85048 59.9997ZM29.9934 58.2708C38.4906 58.2708 46.9882 58.2708 55.4864 58.2708C57.0697 58.2708 58.2583 57.1584 58.2645 55.6439C58.2771 51.7011 58.2771 47.7584 58.2645 43.8157C58.2657 43.2346 58.072 42.6698 57.7144 42.2115C57.3567 41.7532 56.8557 41.4279 56.2914 41.2873C55.8315 41.1971 55.3629 41.1593 54.8945 41.1747C38.2948 41.1747 21.6904 41.1747 5.08136 41.1747C4.84646 41.1747 4.61156 41.1747 4.37822 41.1872C2.70103 41.3155 1.71601 42.3763 1.71601 44.0582C1.71601 47.7866 1.77082 51.515 1.69095 55.2418C1.6518 57.0551 2.98291 58.3099 4.73684 58.299C13.1541 58.2426 21.573 58.2724 29.9934 58.2708ZM12.6749 35.9959L7.5948 28.5188C6.76333 29.3743 5.63496 29.8783 4.44243 29.9269C4.43146 30.0333 4.40328 30.099 4.42207 30.1444C5.18471 32.0047 5.95049 33.8587 6.73349 35.7033C6.7694 35.7754 6.82139 35.8383 6.88547 35.8871C6.94955 35.936 7.024 35.9694 7.10307 35.985C8.89458 36.0022 10.6861 35.9959 12.6749 35.9959ZM47.3714 35.9036C47.4624 35.9412 47.5568 35.97 47.6533 35.9897C49.3759 35.9897 51.0859 36.0116 52.8023 35.9771C52.9886 35.9771 53.2502 35.708 53.3379 35.5078C54.0473 33.865 54.7254 32.2081 55.4081 30.5543C55.4849 30.3697 55.5334 30.1741 55.6133 29.9285C54.3949 29.903 53.2351 29.4014 52.3826 28.5313L47.3714 35.9036ZM7.0467 25.5304C7.04049 24.8215 6.75373 24.1439 6.24904 23.6455C5.74435 23.1471 5.06276 22.8686 4.35316 22.8707C3.81911 22.8707 3.29712 23.0293 2.85351 23.3265C2.40991 23.6236 2.06472 24.0457 1.86181 24.5393C1.65889 25.0328 1.60741 25.5755 1.71391 26.0984C1.8204 26.6212 2.08006 27.1006 2.4599 27.4757C2.83974 27.8508 3.3226 28.1046 3.84714 28.2049C4.37169 28.3051 4.91422 28.2474 5.40582 28.0389C5.89742 27.8304 6.31589 27.4806 6.60806 27.034C6.90023 26.5873 7.05291 26.064 7.0467 25.5304ZM58.2551 25.5789C58.2532 25.0547 58.0963 24.5427 57.8041 24.1073C57.5119 23.6719 57.0974 23.3324 56.6127 23.1316C56.128 22.9308 55.5947 22.8776 55.0798 22.9786C54.5649 23.0797 54.0914 23.3305 53.7187 23.6996C53.3461 24.0686 53.0909 24.5395 52.9852 25.053C52.8796 25.5665 52.9282 26.0998 53.1249 26.5858C53.3217 27.0718 53.6578 27.4889 54.091 27.7846C54.5243 28.0804 55.0353 28.2416 55.56 28.2481C56.2728 28.251 56.9578 27.9719 57.4651 27.4717C57.9725 26.9716 58.261 26.291 58.2677 25.5789H58.2551ZM5.29747 39.5193H14.1642C14.3787 39.5193 14.5949 39.5037 14.8078 39.5193C15.1617 39.5491 15.2776 39.4036 15.287 39.05C15.3043 38.0627 14.9409 37.6528 13.9324 37.6418C11.5505 37.6325 9.16707 37.6418 6.78517 37.6418C5.45563 37.6465 5.08919 38.0831 5.29747 39.5193ZM54.6893 39.4818C54.8773 38.1722 54.5249 37.6559 53.4365 37.6497C50.956 37.6361 48.4754 37.6361 45.9949 37.6497C45.0553 37.6497 44.7123 38.0533 44.6998 38.9921C44.6998 39.4036 44.8329 39.5272 45.2385 39.5256C48.2656 39.5115 51.2927 39.5256 54.3213 39.5162C54.4278 39.5162 54.5421 39.4959 54.6893 39.4818ZM4.94198 16.0397C4.42833 17.7388 3.90372 19.4677 3.34935 21.3014C4.65227 21.1089 5.78606 21.2685 6.89323 21.9507L7.30979 17.0442L4.94198 16.0397ZM52.6707 17.0379C52.8023 18.5853 52.9417 20.2187 53.0826 21.8678C53.6934 21.6534 54.2242 21.3859 54.7849 21.292C55.3455 21.1981 55.9625 21.2717 56.6312 21.2717L55.0339 16.046L52.6707 17.0379ZM9.63531 13.1108C9.63434 12.698 9.5106 12.2948 9.27981 11.9524C9.04901 11.6101 8.72157 11.3439 8.33907 11.1878C7.95657 11.0318 7.53628 10.9928 7.13155 11.0758C6.72683 11.1589 6.35595 11.3602 6.06601 11.6543C5.77606 11.9484 5.58014 12.322 5.50313 12.7275C5.42612 13.1331 5.47148 13.5524 5.63347 13.9321C5.79545 14.3119 6.06675 14.6349 6.4129 14.8603C6.75905 15.0857 7.16443 15.2032 7.57757 15.198C7.85081 15.1993 8.12156 15.146 8.37386 15.0411C8.62616 14.9363 8.85492 14.7821 9.04667 14.5876C9.23841 14.3931 9.38928 14.1623 9.49037 13.9087C9.59146 13.655 9.64074 13.3838 9.63531 13.1108ZM50.3515 13.1296C50.3483 13.4025 50.3999 13.6733 50.5031 13.9259C50.6063 14.1786 50.7591 14.4081 50.9525 14.6009C51.1459 14.7936 51.3759 14.9458 51.629 15.0483C51.8822 15.1509 52.1533 15.2017 52.4265 15.198C52.976 15.2013 53.5044 14.9867 53.8957 14.6013C54.287 14.2159 54.5094 13.6911 54.5139 13.1421C54.516 12.8638 54.4627 12.5879 54.3572 12.3303C54.2516 12.0727 54.0959 11.8387 53.8991 11.6417C53.7023 11.4448 53.4682 11.2889 53.2106 11.183C52.9529 11.0772 52.6768 11.0236 52.3983 11.0252C51.847 11.0327 51.3212 11.2585 50.9365 11.6531C50.5518 12.0477 50.3397 12.5788 50.3468 13.1296H50.3515Z" fill="#0C4578"/>
<path d="M23.8657 50.4858C24.8194 51.5482 24.7599 52.792 24.6706 54.0844H23.1046C23.0905 53.8074 23.0577 53.543 23.0655 53.2786C23.1187 51.5325 22.2496 50.7205 20.2467 51.1414V54.1141C19.7951 54.1308 19.343 54.1246 18.8921 54.0953C18.7809 54.0828 18.6055 53.845 18.6039 53.7104C18.5883 51.0507 18.6039 48.4018 18.5898 45.7483C18.5898 45.3728 18.8091 45.3603 19.0878 45.3619C20.123 45.3697 21.1597 45.3446 22.1932 45.3744C23.3521 45.4072 24.2087 45.9705 24.6863 47.0203C25.1639 48.0701 25.0152 49.073 24.3073 49.9852C24.1899 50.1526 24.0474 50.2871 23.8657 50.4858ZM21.4744 47.0719C21.2407 47.0837 21.0066 47.0837 20.7729 47.0719C20.361 47.0297 20.2169 47.2002 20.242 47.6055C20.2702 48.0748 20.2248 48.5442 20.2655 49.0058C20.2844 49.0856 20.3229 49.1595 20.3776 49.2207C20.4323 49.2819 20.5014 49.3285 20.5787 49.3562C21.123 49.3945 21.6693 49.3945 22.2136 49.3562C22.5093 49.3338 22.7843 49.1963 22.9797 48.9733C23.175 48.7504 23.275 48.4598 23.2581 48.164C23.2505 47.8773 23.1321 47.6046 22.9277 47.4031C22.7234 47.2016 22.449 47.0868 22.1619 47.0829C21.9427 47.0594 21.7078 47.0719 21.4744 47.0719Z" fill="#0C4578"/>
<path d="M39.7279 54.134V52.4724C38.7632 52.4724 37.8361 52.463 36.9091 52.4896C36.8323 52.4896 36.7102 52.7462 36.6992 52.8901C36.6695 53.275 36.6898 53.663 36.6898 54.0902H35.0784C35.0627 53.9134 35.0361 53.7444 35.0361 53.577C35.0361 51.917 35.0252 50.2585 35.0361 48.6001C35.0487 46.8133 36.3766 45.4193 38.0757 45.3817C39.8954 45.3426 41.3033 46.6193 41.3644 48.464C41.4207 50.1991 41.3769 51.9373 41.3894 53.674C41.3894 54.0338 41.2485 54.1575 40.9008 54.1434C40.5532 54.1293 40.1742 54.134 39.7279 54.134ZM36.7681 50.767C37.6701 50.767 38.5628 50.7764 39.4554 50.7545C39.52 50.7324 39.5779 50.6942 39.6236 50.6436C39.6694 50.5929 39.7015 50.5315 39.7169 50.465C39.7535 49.7638 39.7462 49.061 39.695 48.3607C39.6612 48.0163 39.503 47.6961 39.2499 47.4599C38.9968 47.2238 38.6662 47.0879 38.32 47.0777C37.5778 47.0386 36.8668 47.4611 36.79 48.1542C36.6977 48.9928 36.7681 49.8502 36.7681 50.7654V50.767Z" fill="#0C4578"/>
<path d="M28.459 51.0512V54.0944H26.8633V45.4141C28.2147 45.4141 29.5474 45.2999 30.8503 45.4438C32.3506 45.6096 33.2683 46.9755 33.143 48.537C33.0318 49.9216 31.8463 50.9793 30.3054 51.0403C29.7244 51.0732 29.1418 51.0512 28.459 51.0512ZM29.6633 49.3506C29.9355 49.3678 30.2085 49.3678 30.4808 49.3506C30.7646 49.3142 31.0252 49.1752 31.2133 48.9598C31.4015 48.7445 31.5041 48.4677 31.5018 48.1818C31.4905 47.8976 31.3735 47.6279 31.1737 47.4253C30.9738 47.2227 30.7055 47.102 30.4212 47.0866C30.13 47.0647 29.8356 47.0694 29.5443 47.0741C28.3197 47.0944 28.4763 46.8879 28.4669 48.1693C28.459 49.3631 28.4653 49.3631 29.6633 49.3506Z" fill="#0C4578"/>
<path d="M13.8594 50.583V48.9355H15.5037C15.5037 49.3908 15.5256 49.8336 15.488 50.2733C15.4648 50.3448 15.4239 50.4094 15.3692 50.4611C15.3145 50.5127 15.2476 50.5498 15.1748 50.569C14.7551 50.605 14.3292 50.583 13.8594 50.583Z" fill="#0C4578"/>
<path d="M46.1062 50.5451C45.9731 50.5608 45.8776 50.578 45.7836 50.5811C44.3899 50.6327 44.18 50.3496 44.5653 48.918H46.1062V50.5451Z" fill="#0C4578"/>
<path d="M4.46875 50.583V48.9434H6.07861C6.07861 49.3971 6.09583 49.8696 6.06451 50.3405C6.06451 50.4281 5.86406 50.5643 5.75131 50.5721C5.34571 50.6002 4.94168 50.583 4.46875 50.583Z" fill="#0C4578"/>
<path d="M9.19141 48.8987C9.63145 48.8987 10.0558 48.8846 10.4771 48.9081C10.5805 48.9081 10.759 49.0301 10.7637 49.1037C10.7919 49.5293 10.7919 49.9563 10.7637 50.3819C10.7637 50.4555 10.5726 50.5666 10.4646 50.5728C10.0605 50.5947 9.65338 50.5822 9.1961 50.5822L9.19141 48.8987Z" fill="#0C4578"/>
<path d="M50.821 48.8438V50.6258C50.2761 50.5679 49.6277 50.6743 49.2848 50.4005C49.0499 50.2112 49.0467 49.2787 49.2848 49.0659C49.5933 48.7921 50.2463 48.9048 50.821 48.8438Z" fill="#0C4578"/>
<path d="M55.5 50.5568H53.9434V48.9453H55.5V50.5568Z" fill="#0C4578"/>
<path fill-rule="evenodd" clip-rule="evenodd" d="M37.5028 23.9895C37.5181 23.9956 37.5337 24.0019 37.5497 24.0082C37.6628 23.9392 37.7707 23.8618 37.8723 23.7767L37.9485 23.7015C38.8013 22.8601 39.6492 22.0236 40.4734 21.1591C40.5319 21.0751 40.57 20.9787 40.585 20.8774C40.5999 20.7762 40.5912 20.6729 40.5596 20.5755C40.3346 19.9921 40.0633 19.4276 39.7484 18.8874C39.4242 18.3429 39.4868 17.8735 39.7045 17.3025C39.9504 16.6578 40.3153 16.2792 40.9808 16.1134C41.2532 16.0455 41.5167 15.9445 41.7803 15.8435C42.0092 15.7557 42.2381 15.6679 42.4732 15.6018C42.8772 15.4813 43.0401 15.2826 43.0198 14.8554C43.0011 14.4399 43.0052 14.0222 43.0093 13.6042C43.012 13.3187 43.0148 13.0331 43.0104 12.748C43.0077 12.5832 43.0193 12.4067 43.0311 12.2294C43.0607 11.7804 43.0907 11.3259 42.8898 11.041C42.6184 10.6563 41.9287 10.5062 41.3777 10.3862C41.3596 10.3823 41.3416 10.3784 41.3238 10.3745C40.3622 10.1664 39.7687 9.63445 39.5792 8.68319C39.5123 8.39583 39.5247 8.09569 39.6153 7.81485C39.8909 7.128 40.226 6.46618 40.5627 5.80593C40.6335 5.70449 40.6614 5.57921 40.6403 5.45733C40.6192 5.33545 40.5508 5.22682 40.4499 5.15507C40.1288 4.85386 39.8188 4.54096 39.5086 4.22795C39.3242 4.04181 39.1397 3.85563 38.9528 3.67185C38.8235 3.54258 38.6973 3.39148 38.5709 3.24021C38.263 2.87148 37.9542 2.5018 37.5967 2.44522C37.1236 2.37015 36.5479 2.72616 36.0453 3.03695C35.9823 3.07594 35.9204 3.11422 35.86 3.15084C35.1192 3.60144 34.4568 3.60926 33.6863 3.20717C33.2698 2.98969 33.0051 2.76439 32.8689 2.31692C32.7667 1.99016 32.6487 1.66891 32.5308 1.34784C32.4138 1.02939 32.2969 0.711117 32.1955 0.387796C32.1031 0.088962 31.9528 0.00291014 31.6521 0.00291014C30.4619 0.0216851 29.2686 0.0279434 28.0785 0.00291014C27.7136 -0.0111711 27.568 0.129641 27.463 0.458202C27.2391 1.16226 26.9854 1.8585 26.7114 2.54535C26.6286 2.75381 26.4837 2.93185 26.2964 3.0554C25.4726 3.54824 24.6442 3.76416 23.7657 3.11016C23.5409 2.94077 23.273 2.82886 23.0034 2.71628C22.8373 2.64689 22.6705 2.57724 22.5129 2.49372C22.2341 2.34665 22.04 2.35447 21.8019 2.60167C20.9605 3.47158 20.1044 4.3274 19.2337 5.16915C19.0082 5.38819 19.0066 5.56029 19.1381 5.82158C19.4811 6.49904 19.8037 7.18589 20.1169 7.88056C20.2068 8.06676 20.2327 8.2774 20.1905 8.47979C19.9243 9.4029 19.5328 10.2087 18.4115 10.3651C18.1806 10.3973 17.9637 10.4877 17.7425 10.5798C17.5663 10.6533 17.3873 10.7278 17.1963 10.775C16.7656 10.8814 16.6623 11.1302 16.6748 11.5354C16.6873 12.0298 16.6832 12.5242 16.679 13.0186C16.6769 13.2658 16.6748 13.513 16.6748 13.7602L16.6748 13.7939C16.6747 15.3961 16.6747 15.4626 18.2408 15.9288C19.2164 16.2229 19.9243 16.6719 20.12 17.7092C20.1838 17.9793 20.173 18.2616 20.0887 18.526C19.81 19.2112 19.4827 19.8793 19.1381 20.5333C18.98 20.8337 19.0301 21.0121 19.2666 21.2327C19.5751 21.5197 19.8716 21.8198 20.1684 22.1201C20.3522 22.3061 20.5361 22.4921 20.7229 22.6752C20.8539 22.8046 20.9796 22.956 21.1055 23.1075C21.4071 23.4706 21.7092 23.8342 22.0838 23.8971C22.5952 23.983 23.2416 23.5827 23.7657 23.2581C23.7857 23.2457 23.8056 23.2334 23.8252 23.2212C24.6176 22.7237 25.3552 22.7331 26.099 23.2212C26.3666 23.3824 26.5857 23.6126 26.7333 23.8878C27.0065 24.5336 27.2459 25.1932 27.4505 25.8638C27.5539 26.1846 27.6979 26.341 28.0675 26.3332C29.2592 26.3113 30.451 26.3144 31.6427 26.3332C31.9778 26.3379 32.1266 26.2174 32.2253 25.9045C32.3208 25.6181 32.4236 25.3346 32.5263 25.0513C32.6626 24.6754 32.7987 24.3 32.9174 23.9191C33.0333 23.5482 33.2698 23.3808 33.5987 23.1993C34.4098 22.7534 35.1553 22.7315 35.9383 23.2541C36.1972 23.4269 36.4887 23.5525 36.7805 23.6783C36.9035 23.7312 37.0265 23.7842 37.1472 23.8408C37.2569 23.8914 37.3679 23.9357 37.5028 23.9895ZM34.2225 16.1245C34.8099 15.2656 35.1301 14.2523 35.1428 13.2121C35.1551 12.5121 35.0272 11.8167 34.7664 11.1668C34.5056 10.517 34.1173 9.92584 33.6243 9.42823C33.1314 8.93061 32.5437 8.53659 31.896 8.26936C31.2483 8.00213 30.5536 7.86709 29.8528 7.87221C28.8116 7.87414 27.7941 8.18358 26.9284 8.76162C26.0627 9.33967 25.3874 10.1605 24.9873 11.121C24.5873 12.0814 24.4804 13.1386 24.68 14.1596C24.8797 15.1806 25.377 16.1198 26.1095 16.8592C26.842 17.5986 27.7769 18.1051 28.7967 18.3151C29.8165 18.5251 30.8757 18.4292 31.8411 18.0394C32.8065 17.6496 33.635 16.9834 34.2225 16.1245Z" fill="url(#paint0_linear_1_16611)"/>
</g>
<defs>
<linearGradient id="paint0_linear_1_16611" x1="16.6738" y1="13.1677" x2="43.0524" y2="13.1677" gradientUnits="userSpaceOnUse">
<stop stop-color="#176AB4"/>
<stop offset="1" stop-color="#B1FFC7"/>
</linearGradient>
<clipPath id="clip0_1_16611">
<rect width="60" height="60" fill="white"/>
</clipPath>
</defs>
</svg>
