<svg width="196" height="60" viewBox="0 0 196 60" fill="none" xmlns="http://www.w3.org/2000/svg">
<g clip-path="url(#clip0_4_13015)">
<path d="M91.4336 47.5508C91.4336 45.5807 93.0455 43.9688 95.1052 43.9688C97.0754 43.9688 98.7769 45.5807 98.7769 47.5508C98.7769 49.521 97.1649 51.2225 95.1052 51.2225C93.0455 51.2225 91.4336 49.521 91.4336 47.5508ZM97.8814 47.5508C97.8814 45.8493 96.6276 44.5956 95.1052 44.5956C93.5828 44.5956 92.3291 45.8493 92.3291 47.5508C92.3291 49.2523 93.5828 50.5061 95.1052 50.5061C96.6276 50.5061 97.8814 49.2523 97.8814 47.5508ZM93.6724 45.4911H95.1948C96.1799 45.4911 96.7172 45.8493 96.7172 46.6553C96.7172 47.3717 96.2694 47.7299 95.6426 47.7299L96.7172 49.521H95.9112L94.8366 47.7299H94.3888V49.521H93.5828V45.4911H93.6724ZM94.4784 47.2822H95.1948C95.6426 47.2822 96.0008 47.1926 96.0008 46.6553C96.0008 46.2076 95.553 46.118 95.1948 46.118H94.4784V47.2822Z" fill="white"/>
<path d="M19.4329 10.5664C13.9702 10.5664 9.40308 14.0589 7.79113 18.9843C7.79113 19.0739 7.70158 19.1634 7.70158 19.3425L7.43293 20.4172L0.626953 49.8798H17.7314C22.8359 49.8798 27.224 46.656 28.8359 42.0888L29.4628 39.3127L36.0896 10.656H19.4329V10.5664Z" fill="#0751A0"/>
<path d="M51.7618 0.804688C46.12 0.804688 41.4633 4.56588 39.9409 9.67036C39.8513 10.0286 39.7618 10.4763 39.6722 10.8345L28.3887 59.6405H45.1349C50.8663 59.6405 55.7021 55.7002 57.0454 50.4166L68.508 0.804688H51.7618Z" fill="#F37124"/>
<path d="M79.6107 10.5664C74.4166 10.5664 69.939 13.8798 68.148 18.447C68.0584 18.7157 67.7898 19.7007 67.7898 19.7007L60.8047 49.8798H77.551C83.2823 49.8798 88.1181 45.9395 89.4614 40.5664L96.3569 10.5664H79.6107Z" fill="#52B848"/>
<path d="M12.0004 21.4904C11.0153 22.2963 10.478 23.1918 10.2989 23.9978L6.7168 39.9381H6.8959C7.97053 39.9381 9.04516 39.5799 9.94068 38.7739C10.9258 37.968 11.4631 37.0724 11.7317 35.9978L12.6272 31.968H20.2392C21.3138 31.968 22.3884 31.6098 23.3735 30.8038C24.3586 29.9978 24.8959 29.1023 25.1646 27.9381V27.759H13.6123L14.3287 24.5351H25.3437C26.4183 24.5351 27.4929 24.1769 28.3884 23.3709C29.3735 22.565 29.9108 21.6695 30.1795 20.5053L30.269 20.3262H15.1347C13.9705 20.3262 12.8959 20.6844 12.0004 21.4904Z" fill="white"/>
<path d="M89.3723 21.2217C88.7454 20.5948 87.9394 20.3262 87.0439 20.3262H71.82V20.5053C71.7305 20.7739 71.7305 21.0426 71.7305 21.3113C71.7305 22.2068 71.9991 23.0127 72.626 23.6396C73.2529 24.2665 74.0588 24.5351 74.9543 24.5351H78.2678L74.9543 39.9381H75.223C76.2976 39.9381 77.3723 39.5799 78.2678 38.7739C79.1633 37.968 79.7902 37.0724 80.0588 35.9978L82.4767 24.5351H90.1782V24.4456C90.2678 24.1769 90.2678 23.9083 90.2678 23.5501C90.2678 22.6545 89.9096 21.8486 89.3723 21.2217Z" fill="white"/>
<path d="M56.0605 20.3262H45.8515H41.6426L37.4336 39.9381H37.6127C38.6873 39.9381 39.762 39.5799 40.6575 38.7739C41.553 37.968 42.1799 37.0724 42.4485 35.9978L43.344 31.968H53.7321C54.8067 31.968 55.8814 31.6098 56.7769 30.8038C57.6724 29.9978 58.2993 29.1023 58.5679 27.9381L59.3739 24.356C59.4635 24.0874 59.4635 23.8187 59.4635 23.4605C59.4635 22.565 59.1948 21.759 58.5679 21.1321C57.8515 20.5948 57.0455 20.3262 56.0605 20.3262ZM44.956 24.5351H55.0754L54.359 27.759H44.2396L44.956 24.5351Z" fill="white"/>
<path d="M153.584 50.9538C153.226 51.1329 152.868 51.1329 152.33 51.1329C150.45 51.1329 149.554 50.1479 149.554 48.1777V42.4464H148.211V40.924H149.554V38.5956L151.524 37.9688V40.924H153.584V42.4464H151.524V48.0881C151.524 48.8941 151.972 49.3419 152.868 49.3419C153.136 49.3419 153.315 49.3419 153.584 49.2523V50.9538Z" fill="white"/>
<path d="M115.97 33.5798V26.8633C115.97 25.6096 115.254 24.9827 113.821 24.9827C113.105 24.9827 112.478 25.0723 111.941 25.2514V33.5798H109.881V23.9977C111.045 23.5499 112.299 23.2812 113.732 23.2812C116.508 23.2812 117.941 24.4454 117.941 26.6842V33.5798H115.97Z" fill="white"/>
<path d="M193.076 33.5798V26.8633C193.076 25.6096 192.359 24.9827 190.927 24.9827C190.21 24.9827 189.583 25.0723 189.046 25.2514V33.5798H186.986V23.9977C188.151 23.5499 189.404 23.2812 190.837 23.2812C193.613 23.2812 195.046 24.4454 195.046 26.6842V33.5798H193.076Z" fill="white"/>
<path d="M163.073 45.9398L156.357 46.8354C156.536 48.6264 157.611 49.5219 159.402 49.5219C160.476 49.5219 161.461 49.3428 162.178 48.8951L162.805 50.4174C161.909 50.8652 160.745 51.1339 159.312 51.1339C157.7 51.1339 156.536 50.6861 155.64 49.701C154.745 48.8055 154.387 47.4622 154.387 45.8503C154.387 44.3279 154.834 43.0742 155.64 42.0891C156.446 41.104 157.611 40.6562 158.954 40.6562C160.208 40.6562 161.282 41.0145 161.999 41.8204C162.715 42.6264 163.073 43.701 163.073 45.0443C163.073 45.4921 163.073 45.7607 163.073 45.9398ZM161.103 44.8652C161.103 43.1637 160.387 42.2682 158.864 42.2682C158.058 42.2682 157.432 42.5368 156.984 43.1637C156.536 43.7906 156.267 44.5965 156.267 45.5816L161.103 44.8652Z" fill="white"/>
<path d="M140.418 25.0723C140.15 24.9827 139.792 24.9827 139.433 24.9827C138.806 24.9827 138.269 25.0723 137.821 25.2514V33.5798H135.762V23.9977C136.926 23.5499 138.18 23.2812 139.702 23.2812C140.239 23.2812 140.598 23.2812 140.866 23.3708L140.418 25.0723Z" fill="white"/>
<path d="M128.508 50.1475C127.702 50.8639 126.538 51.2221 125.105 51.2221C123.672 51.2221 122.508 50.8639 121.434 50.237L122.24 48.1773C123.046 48.7146 124.031 49.0729 125.016 49.0729C125.643 49.0729 126.18 48.8937 126.538 48.5355C126.896 48.1773 127.165 47.7296 127.165 47.1923C127.165 46.2967 126.449 45.5803 125.105 45.043C124.031 44.5952 123.314 44.1475 122.866 43.6997C122.15 42.9833 121.792 42.0878 121.792 41.0132C121.792 39.849 122.15 38.9534 122.866 38.3266C123.583 37.6102 124.657 37.252 125.911 37.252C127.254 37.252 128.419 37.6102 129.314 38.237L128.598 40.1176C127.881 39.5803 127.075 39.3117 126.18 39.3117C125.553 39.3117 125.105 39.4908 124.747 39.849C124.389 40.2072 124.21 40.5654 124.21 41.1027C124.21 41.64 124.389 42.0878 124.837 42.446C125.105 42.7146 125.553 42.9833 126.269 43.252C127.434 43.6997 128.15 44.1475 128.598 44.5952C129.314 45.3117 129.672 46.2072 129.672 47.3714C129.762 48.446 129.314 49.4311 128.508 50.1475Z" fill="white"/>
<path d="M175.165 21.312C174.896 21.4911 174.628 21.6702 174.269 21.6702C173.911 21.6702 173.642 21.5806 173.374 21.312C173.105 21.0433 173.016 20.7746 173.016 20.506C173.016 20.1478 173.105 19.8791 173.374 19.7C173.642 19.4314 173.911 19.3418 174.269 19.3418C174.628 19.3418 174.896 19.4314 175.165 19.7C175.434 19.9687 175.523 20.2373 175.523 20.506C175.523 20.8642 175.434 21.1328 175.165 21.312ZM173.284 33.5806V23.5508H175.344V33.5806H173.284Z" fill="white"/>
<path d="M172.119 33.4011C171.761 33.5802 171.403 33.5802 170.866 33.5802C168.985 33.5802 168.089 32.5951 168.089 30.625V24.8936H166.746V23.3712H168.089V21.0429L170.06 20.416V23.3712H172.119V24.8936H170.06V30.5354C170.06 31.3414 170.507 31.7891 171.403 31.7891C171.671 31.7891 171.851 31.7891 172.119 31.6996V33.4011Z" fill="white"/>
<path d="M134.865 55.2511H132.715L134.238 51.2213L130.477 41.1914H132.715L134.865 47.9974C135.044 48.4451 135.133 48.9825 135.223 49.5198C135.312 48.9825 135.402 48.4451 135.581 47.9974L137.82 41.1914H140.059L134.865 55.2511Z" fill="white"/>
<path d="M172.029 44.416V51.1324H172.119V45.0429C172.119 44.8638 172.119 44.5951 172.029 44.416Z" fill="white"/>
<path d="M178.926 44.1465V51.2212H176.867V44.3256C176.867 43.0719 176.15 42.3555 174.717 42.3555C174.001 42.3555 173.285 42.445 172.837 42.6242V51.1316H170.777V44.2361C170.777 44.057 170.777 43.9674 170.777 43.7883C170.598 42.8033 169.882 42.2659 168.628 42.2659C167.911 42.2659 167.195 42.3555 166.747 42.5346V51.0421H164.688V41.2809C165.852 40.8331 167.195 40.5645 168.628 40.5645C169.702 40.5645 170.598 40.7436 171.314 41.1018C172.389 40.7436 173.464 40.5645 174.717 40.5645C177.583 40.7436 178.926 41.8182 178.926 44.1465Z" fill="white"/>
<path d="M156.27 26.5059V33.5805H154.21V26.685C154.21 25.4313 153.494 24.7149 152.061 24.7149C151.345 24.7149 150.628 24.8044 150.18 24.9835V33.491H148.121V26.5955C148.121 26.4164 148.121 26.3268 148.121 26.1477C147.942 25.1626 147.225 24.6253 145.972 24.6253C145.255 24.6253 144.539 24.7149 144.091 24.894V33.4014H142.031V23.6402C143.195 23.1925 144.539 22.9238 145.972 22.9238C147.046 22.9238 147.942 23.1029 148.658 23.4611C149.733 23.1029 150.807 22.9238 152.061 22.9238C154.837 23.1029 156.27 24.2671 156.27 26.5059Z" fill="white"/>
<path d="M170.238 44.8633V51.2215V45.311C170.328 45.1319 170.328 44.9528 170.238 44.8633Z" fill="white"/>
<path d="M146.329 50.4147C145.702 50.952 144.717 51.2207 143.553 51.2207C142.388 51.2207 141.403 50.952 140.508 50.5043L141.135 48.9819C141.851 49.4296 142.568 49.6087 143.463 49.6087C144 49.6087 144.448 49.5192 144.717 49.2505C145.075 48.9819 145.165 48.7132 145.165 48.2654C145.165 47.6386 144.627 47.1013 143.463 46.6535C142.568 46.2953 141.941 46.0266 141.582 45.6684C140.956 45.2207 140.687 44.5043 140.687 43.6983C140.687 42.8923 140.956 42.2654 141.582 41.7281C142.209 41.1908 143.015 41.0117 144.09 41.0117C145.165 41.0117 146.15 41.2804 146.866 41.7281L146.239 43.0714C145.612 42.7132 144.985 42.5341 144.269 42.5341C143.732 42.5341 143.373 42.6237 143.105 42.8923C142.836 43.161 142.657 43.4296 142.657 43.7878C142.657 44.146 142.836 44.5043 143.105 44.7729C143.284 44.952 143.732 45.1311 144.269 45.3102C145.165 45.6684 145.791 45.9371 146.15 46.2953C146.776 46.7431 147.045 47.4595 147.045 48.2654C147.314 49.2505 146.956 49.8774 146.329 50.4147Z" fill="white"/>
<path d="M108.179 19.9688H106.299V33.5807H108.179V19.9688Z" fill="white"/>
<path d="M130.388 25.2523C131.821 25.2523 132.985 26.7747 132.985 28.5657C132.985 30.3568 131.821 31.8791 130.388 31.8791C128.956 31.8791 127.791 30.3568 127.791 28.5657C127.881 26.7747 129.045 25.2523 130.388 25.2523ZM130.388 23.5508C128.06 23.5508 126.09 25.7896 126.09 28.5657C126.09 31.3418 127.97 33.5806 130.388 33.5806C132.717 33.5806 134.687 31.3418 134.687 28.5657C134.687 25.7896 132.806 23.5508 130.388 23.5508Z" fill="white"/>
<path d="M181.256 25.2523C182.688 25.2523 183.853 26.7747 183.853 28.5657C183.853 30.3568 182.688 31.8791 181.256 31.8791C179.823 31.8791 178.659 30.3568 178.659 28.5657C178.659 26.7747 179.912 25.2523 181.256 25.2523ZM181.256 23.5508C178.927 23.5508 176.957 25.7896 176.957 28.5657C176.957 31.3418 178.838 33.5806 181.256 33.5806C183.584 33.5806 185.554 31.3418 185.554 28.5657C185.554 25.7896 183.673 23.5508 181.256 23.5508Z" fill="white"/>
<path d="M120.806 33.5802V24.8937H119.373V23.4608H120.806V23.0131C120.806 21.5802 121.075 20.3265 121.97 19.5205C122.686 18.8937 123.582 18.625 124.388 18.625C125.015 18.625 125.552 18.8041 125.91 18.8937L125.642 20.3265C125.373 20.2369 125.015 20.0578 124.478 20.0578C122.955 20.0578 122.507 21.4011 122.507 23.0131V23.5504H124.925V24.9832H122.507V33.6698H120.806V33.5802Z" fill="white"/>
<path d="M163.792 33.4007L163.613 32.1469H163.523C162.986 32.9529 161.911 33.6693 160.478 33.6693C158.419 33.6693 157.434 32.2365 157.434 30.8036C157.434 28.3857 159.583 27.0424 163.434 27.132V26.9529C163.434 26.1469 163.165 24.6245 161.195 24.6245C160.299 24.6245 159.314 24.8932 158.598 25.341L158.15 24.1768C158.956 23.6395 160.21 23.2812 161.463 23.2812C164.508 23.2812 165.225 25.341 165.225 27.4007V31.1619C165.225 32.0574 165.225 32.8633 165.404 33.5798H163.792V33.4007ZM163.523 28.2962C161.553 28.2962 159.314 28.5648 159.314 30.535C159.314 31.6992 160.12 32.2365 161.016 32.2365C162.359 32.2365 163.165 31.4305 163.434 30.535C163.523 30.3559 163.523 30.1768 163.523 29.9977V28.2962Z" fill="white"/>
</g>
<defs>
<clipPath id="clip0_4_13015">
<rect width="195.224" height="60" fill="white"/>
</clipPath>
</defs>
</svg>
