<svg width="176" height="54" viewBox="0 0 176 54" fill="none" xmlns="http://www.w3.org/2000/svg">
<g clip-path="url(#clip0_242_539)">
<path d="M82.2891 42.7981C82.2891 41.025 83.7398 39.5742 85.5935 39.5742C87.3667 39.5742 88.898 41.025 88.898 42.7981C88.898 44.5712 87.4473 46.1026 85.5935 46.1026C83.7398 46.1026 82.2891 44.5712 82.2891 42.7981ZM88.0921 42.7981C88.0921 41.2668 86.9637 40.1384 85.5935 40.1384C84.2234 40.1384 83.095 41.2668 83.095 42.7981C83.095 44.3294 84.2234 45.4578 85.5935 45.4578C86.9637 45.4578 88.0921 44.3294 88.0921 42.7981ZM84.304 40.9444H85.6741C86.5607 40.9444 87.0443 41.2668 87.0443 41.9921C87.0443 42.6369 86.6413 42.9593 86.0771 42.9593L87.0443 44.5712H86.3189L85.3518 42.9593H84.9488V44.5712H84.2234V40.9444H84.304ZM85.0294 42.5563H85.6741C86.0771 42.5563 86.3995 42.4757 86.3995 41.9921C86.3995 41.5891 85.9965 41.5085 85.6741 41.5085H85.0294V42.5563Z" fill="#007DC5"/>
<path d="M17.4898 9.51172C12.5734 9.51172 8.46296 12.655 7.01222 17.0878C7.01222 17.1684 6.93162 17.249 6.93162 17.4102L6.68983 18.3774L0.564453 44.8938H15.9585C20.5525 44.8938 24.5018 41.9923 25.9525 37.8819L26.5167 35.3834L32.4809 9.59231H17.4898V9.51172Z" fill="#0751A0"/>
<path d="M46.5866 0.726562C41.509 0.726562 37.3179 4.11164 35.9478 8.70567C35.8672 9.02805 35.7866 9.43104 35.706 9.75342L25.5508 53.6788H40.6224C45.7806 53.6788 50.1329 50.1325 51.3418 45.3773L61.6582 0.726562H46.5866Z" fill="#F37124"/>
<path d="M71.6519 9.51172C66.9773 9.51172 62.9475 12.4938 61.3355 16.6043C61.2549 16.846 61.0131 17.7326 61.0131 17.7326L54.7266 44.8938H69.7982C74.9564 44.8938 79.3087 41.3475 80.5176 36.5117L86.7236 9.51172H71.6519Z" fill="#52B848"/>
<path d="M10.8001 19.3446C9.91358 20.07 9.43 20.876 9.2688 21.6014L6.04492 35.9476H6.20612C7.17328 35.9476 8.14044 35.6252 8.94641 34.8999C9.83298 34.1745 10.3166 33.3685 10.5584 32.4013L11.3643 28.7745H18.2151C19.1822 28.7745 20.1494 28.4521 21.036 27.7267C21.9225 27.0014 22.4061 26.1954 22.6479 25.1476V24.9864H12.2509L12.8957 22.0849H22.8091C23.7763 22.0849 24.7434 21.7625 25.5494 21.0372C26.436 20.3118 26.9195 19.5058 27.1613 18.4581L27.2419 18.2969H13.621C12.5733 18.2969 11.6061 18.6193 10.8001 19.3446Z" fill="white"/>
<path d="M80.4362 19.1028C79.872 18.5387 79.1467 18.2969 78.3407 18.2969H64.6392V18.4581C64.5586 18.6999 64.5586 18.9417 64.5586 19.1834C64.5586 19.9894 64.8004 20.7148 65.3646 21.279C65.9287 21.8431 66.6541 22.0849 67.4601 22.0849H70.4422L67.4601 35.9476H67.7019C68.669 35.9476 69.6362 35.6252 70.4422 34.8999C71.2481 34.1745 71.8123 33.3685 72.0541 32.4013L74.2302 22.0849H81.1616V22.0043C81.2422 21.7626 81.2422 21.5208 81.2422 21.1984C81.2422 20.3924 80.9198 19.667 80.4362 19.1028Z" fill="white"/>
<path d="M50.4536 18.2969H41.2656H37.4775L33.6895 35.9476H33.8506C34.8178 35.9476 35.785 35.6252 36.5909 34.8999C37.3969 34.1745 37.9611 33.3685 38.2029 32.4013L39.0089 28.7745H48.3581C49.3253 28.7745 50.2924 28.4521 51.0984 27.7267C51.9044 27.0014 52.4686 26.1954 52.7104 25.1476L53.4357 21.9237C53.5163 21.6819 53.5163 21.4402 53.5163 21.1178C53.5163 20.3118 53.2745 19.5864 52.7104 19.0222C52.0656 18.5387 51.3402 18.2969 50.4536 18.2969ZM40.4596 22.0849H49.5671L48.9223 24.9864H39.8148L40.4596 22.0849Z" fill="white"/>
<path d="M138.223 45.8604C137.9 46.0216 137.578 46.0216 137.094 46.0216C135.402 46.0216 134.596 45.135 134.596 43.3619V38.2037H133.387V36.8335H134.596V34.738L136.369 34.1738V36.8335H138.223V38.2037H136.369V43.2813C136.369 44.0067 136.772 44.4096 137.578 44.4096C137.82 44.4096 137.981 44.4096 138.223 44.329V45.8604Z" fill="#007DC5"/>
<path d="M104.371 30.2257V24.1809C104.371 23.0526 103.726 22.4884 102.437 22.4884C101.792 22.4884 101.228 22.569 100.744 22.7302V30.2257H98.8906V21.6018C99.9384 21.1988 101.067 20.957 102.356 20.957C104.855 20.957 106.144 22.0048 106.144 24.0197V30.2257H104.371Z" fill="#007DC5"/>
<path d="M173.766 30.2257V24.1809C173.766 23.0526 173.121 22.4884 171.831 22.4884C171.187 22.4884 170.622 22.569 170.139 22.7302V30.2257H168.285V21.6018C169.333 21.1988 170.461 20.957 171.751 20.957C174.249 20.957 175.539 22.0048 175.539 24.0197V30.2257H173.766Z" fill="#007DC5"/>
<path d="M146.767 41.347L140.722 42.153C140.884 43.7649 141.851 44.5709 143.463 44.5709C144.43 44.5709 145.316 44.4097 145.961 44.0067L146.525 45.3769C145.719 45.7799 144.672 46.0216 143.382 46.0216C141.931 46.0216 140.884 45.6187 140.078 44.7321C139.272 43.9261 138.949 42.7172 138.949 41.2664C138.949 39.8963 139.352 38.7679 140.078 37.8813C140.803 36.9948 141.851 36.5918 143.06 36.5918C144.188 36.5918 145.155 36.9142 145.8 37.6396C146.445 38.3649 146.767 39.3321 146.767 40.541C146.767 40.944 146.767 41.1858 146.767 41.347ZM144.994 40.3799C144.994 38.8485 144.349 38.0425 142.979 38.0425C142.254 38.0425 141.69 38.2843 141.287 38.8485C140.884 39.4127 140.642 40.1381 140.642 41.0246L144.994 40.3799Z" fill="#007DC5"/>
<path d="M126.375 22.569C126.133 22.4884 125.81 22.4884 125.488 22.4884C124.924 22.4884 124.44 22.569 124.037 22.7302V30.2257H122.184V21.6018C123.231 21.1988 124.36 20.957 125.73 20.957C126.213 20.957 126.536 20.957 126.778 21.0376L126.375 22.569Z" fill="#007DC5"/>
<path d="M115.656 45.1353C114.931 45.78 113.883 46.1024 112.594 46.1024C111.304 46.1024 110.256 45.7801 109.289 45.2159L110.014 43.3621C110.74 43.8457 111.626 44.1681 112.513 44.1681C113.077 44.1681 113.561 44.0069 113.883 43.6845C114.205 43.3621 114.447 42.9591 114.447 42.4756C114.447 41.6696 113.802 41.0248 112.594 40.5412C111.626 40.1383 110.982 39.7353 110.579 39.3323C109.934 38.6875 109.611 37.8815 109.611 36.9144C109.611 35.8666 109.934 35.0606 110.579 34.4965C111.223 33.8517 112.191 33.5293 113.319 33.5293C114.528 33.5293 115.576 33.8517 116.382 34.4159L115.737 36.1084C115.092 35.6248 114.367 35.383 113.561 35.383C112.997 35.383 112.594 35.5442 112.271 35.8666C111.949 36.189 111.788 36.5114 111.788 36.995C111.788 37.4786 111.949 37.8815 112.352 38.2039C112.594 38.4457 112.997 38.6875 113.641 38.9293C114.689 39.3323 115.334 39.7353 115.737 40.1383C116.382 40.783 116.704 41.589 116.704 42.6368C116.785 43.6039 116.382 44.4905 115.656 45.1353Z" fill="#007DC5"/>
<path d="M157.647 19.1833C157.405 19.3445 157.164 19.5057 156.841 19.5057C156.519 19.5057 156.277 19.4251 156.035 19.1833C155.793 18.9415 155.713 18.6997 155.713 18.4579C155.713 18.1355 155.793 17.8937 156.035 17.7325C156.277 17.4908 156.519 17.4102 156.841 17.4102C157.164 17.4102 157.405 17.4908 157.647 17.7325C157.889 17.9743 157.97 18.2161 157.97 18.4579C157.97 18.7803 157.889 19.0221 157.647 19.1833ZM155.955 30.2251V21.1982H157.808V30.2251H155.955Z" fill="#007DC5"/>
<path d="M154.906 30.0635C154.584 30.2247 154.261 30.2247 153.778 30.2247C152.085 30.2247 151.279 29.3381 151.279 27.565V22.4068H150.07V21.0366H151.279V18.9411L153.052 18.377V21.0366H154.906V22.4068H153.052V27.4844C153.052 28.2098 153.455 28.6128 154.261 28.6128C154.503 28.6128 154.664 28.6128 154.906 28.5322V30.0635Z" fill="#007DC5"/>
<path d="M121.379 49.7299H119.445L120.815 46.103L117.43 37.0762H119.445L121.379 43.2016C121.54 43.6045 121.621 44.0881 121.701 44.5717C121.782 44.0881 121.863 43.6045 122.024 43.2016L124.039 37.0762H126.054L121.379 49.7299Z" fill="#007DC5"/>
<path d="M154.826 39.9785V46.0233H154.907V40.5427C154.907 40.3815 154.907 40.1397 154.826 39.9785Z" fill="#007DC5"/>
<path d="M161.032 39.7356V46.1028H159.178V39.8968C159.178 38.7684 158.533 38.1237 157.244 38.1237C156.599 38.1237 155.954 38.2043 155.551 38.3654V46.0222H153.697V39.8162C153.697 39.655 153.697 39.5744 153.697 39.4132C153.536 38.5266 152.891 38.0431 151.763 38.0431C151.118 38.0431 150.474 38.1237 150.071 38.2849V45.9416H148.217V37.1565C149.265 36.7535 150.474 36.5117 151.763 36.5117C152.73 36.5117 153.536 36.6729 154.181 36.9953C155.148 36.6729 156.115 36.5117 157.244 36.5117C159.823 36.6729 161.032 37.6401 161.032 39.7356Z" fill="#007DC5"/>
<path d="M140.641 23.8586V30.2258H138.787V24.0198C138.787 22.8915 138.143 22.2467 136.853 22.2467C136.208 22.2467 135.563 22.3273 135.16 22.4885V30.1452H133.307V23.9392C133.307 23.778 133.307 23.6974 133.307 23.5363C133.146 22.6497 132.501 22.1661 131.372 22.1661C130.728 22.1661 130.083 22.2467 129.68 22.4079V30.0646H127.826V21.2795C128.874 20.8766 130.083 20.6348 131.372 20.6348C132.34 20.6348 133.146 20.796 133.79 21.1183C134.758 20.796 135.725 20.6348 136.853 20.6348C139.352 20.796 140.641 21.8437 140.641 23.8586Z" fill="#007DC5"/>
<path d="M153.215 40.3809V46.1032V40.7838C153.295 40.6227 153.295 40.4615 153.215 40.3809Z" fill="#007DC5"/>
<path d="M131.696 45.3768C131.132 45.8603 130.245 46.1021 129.197 46.1021C128.15 46.1021 127.263 45.8603 126.457 45.4573L127.021 44.0872C127.666 44.4902 128.311 44.6514 129.117 44.6514C129.6 44.6514 130.003 44.5708 130.245 44.329C130.567 44.0872 130.648 43.8454 130.648 43.4424C130.648 42.8782 130.164 42.3947 129.117 41.9917C128.311 41.6693 127.747 41.4275 127.424 41.1051C126.86 40.7021 126.618 40.0573 126.618 39.332C126.618 38.6066 126.86 38.0424 127.424 37.5588C127.988 37.0753 128.714 36.9141 129.681 36.9141C130.648 36.9141 131.535 37.1558 132.179 37.5588L131.615 38.7678C131.051 38.4454 130.487 38.2842 129.842 38.2842C129.359 38.2842 129.036 38.3648 128.794 38.6066C128.553 38.8484 128.391 39.0902 128.391 39.4126C128.391 39.735 128.553 40.0573 128.794 40.2991C128.956 40.4603 129.359 40.6215 129.842 40.7827C130.648 41.1051 131.212 41.3469 131.535 41.6693C132.099 42.0723 132.341 42.717 132.341 43.4424C132.582 44.329 132.26 44.8932 131.696 45.3768Z" fill="#007DC5"/>
<path d="M97.3605 17.9746H95.668V30.2254H97.3605V17.9746Z" fill="#007DC5"/>
<path d="M117.349 22.7306C118.639 22.7306 119.686 24.1007 119.686 25.7127C119.686 27.3246 118.639 28.6947 117.349 28.6947C116.06 28.6947 115.012 27.3246 115.012 25.7127C115.092 24.1007 116.14 22.7306 117.349 22.7306ZM117.349 21.1992C115.254 21.1992 113.48 23.2141 113.48 25.7127C113.48 28.2112 115.173 30.2261 117.349 30.2261C119.445 30.2261 121.218 28.2112 121.218 25.7127C121.218 23.2141 119.525 21.1992 117.349 21.1992Z" fill="#007DC5"/>
<path d="M163.126 22.7306C164.416 22.7306 165.464 24.1007 165.464 25.7127C165.464 27.3246 164.416 28.6947 163.126 28.6947C161.837 28.6947 160.789 27.3246 160.789 25.7127C160.789 24.1007 161.918 22.7306 163.126 22.7306ZM163.126 21.1992C161.031 21.1992 159.258 23.2141 159.258 25.7127C159.258 28.2112 160.95 30.2261 163.126 30.2261C165.222 30.2261 166.995 28.2112 166.995 25.7127C166.995 23.2141 165.303 21.1992 163.126 21.1992Z" fill="#007DC5"/>
<path d="M108.725 30.2253V22.4074H107.436V21.1179H108.725V20.7149C108.725 19.4253 108.967 18.297 109.773 17.5716C110.418 17.0074 111.224 16.7656 111.949 16.7656C112.513 16.7656 112.997 16.9268 113.319 17.0074L113.077 18.297C112.836 18.2164 112.513 18.0552 112.03 18.0552C110.659 18.0552 110.256 19.2641 110.256 20.7149V21.1985H112.433V22.488H110.256V30.3059H108.725V30.2253Z" fill="#007DC5"/>
<path d="M147.41 30.0645L147.249 28.9361H147.168C146.685 29.6615 145.717 30.3063 144.428 30.3063C142.574 30.3063 141.688 29.0167 141.688 27.7272C141.688 25.5511 143.622 24.3421 147.087 24.4227V24.2615C147.087 23.5361 146.846 22.166 145.073 22.166C144.267 22.166 143.38 22.4078 142.735 22.8108L142.332 21.763C143.058 21.2794 144.186 20.957 145.314 20.957C148.055 20.957 148.699 22.8108 148.699 24.6645V28.0496C148.699 28.8555 148.699 29.5809 148.861 30.2257H147.41V30.0645ZM147.168 25.4705C145.395 25.4705 143.38 25.7123 143.38 27.4854C143.38 28.5332 144.105 29.0167 144.911 29.0167C146.12 29.0167 146.846 28.2914 147.087 27.4854C147.168 27.3242 147.168 27.163 147.168 27.0018V25.4705Z" fill="#007DC5"/>
</g>
<defs>
<clipPath id="clip0_242_539">
<rect width="175.701" height="54" fill="white"/>
</clipPath>
</defs>
</svg>
