<svg width="261" height="79" viewBox="0 0 261 79" fill="none" xmlns="http://www.w3.org/2000/svg">
<path d="M121.91 62.4031C121.91 59.7762 124.059 57.627 126.806 57.627C129.433 57.627 131.701 59.7762 131.701 62.4031C131.701 65.0299 129.552 67.2986 126.806 67.2986C124.059 67.2986 121.91 65.0299 121.91 62.4031ZM130.507 62.4031C130.507 60.1344 128.836 58.4628 126.806 58.4628C124.776 58.4628 123.104 60.1344 123.104 62.4031C123.104 64.6717 124.776 66.3434 126.806 66.3434C128.836 66.3434 130.507 64.6717 130.507 62.4031ZM124.895 59.6568H126.925C128.239 59.6568 128.955 60.1344 128.955 61.209C128.955 62.1643 128.358 62.6419 127.522 62.6419L128.955 65.0299H127.88L126.447 62.6419H125.85V65.0299H124.776V59.6568H124.895ZM125.97 62.0449H126.925C127.522 62.0449 128 61.9255 128 61.209C128 60.612 127.403 60.4926 126.925 60.4926H125.97V62.0449Z" fill="white"/>
<path d="M25.9106 13.0898C18.627 13.0898 12.5374 17.7466 10.3882 24.3137C10.3882 24.4331 10.2688 24.5525 10.2688 24.7913L9.91057 26.2242L0.835938 65.5077H23.6419C30.4479 65.5077 36.2986 61.2092 38.4479 55.1197L39.2837 51.4182L48.1195 13.2092H25.9106V13.0898Z" fill="#0751A0"/>
<path d="M69.0157 0.0742188C61.4933 0.0742188 55.2844 5.08914 53.2545 11.8951C53.1351 12.3727 53.0157 12.9697 52.8963 13.4473L37.8516 78.5219H60.1799C67.8217 78.5219 74.2694 73.2682 76.0605 66.2234L91.3441 0.0742188H69.0157Z" fill="#F37124"/>
<path d="M106.149 13.0898C99.2235 13.0898 93.2533 17.5077 90.8653 23.5973C90.7459 23.9555 90.3876 25.2689 90.3876 25.2689L81.0742 65.5077H103.403C111.044 65.5077 117.492 60.254 119.283 53.0898L128.477 13.0898H106.149Z" fill="#52B848"/>
<path d="M15.9999 27.6558C14.6864 28.7304 13.97 29.9244 13.7312 30.999L8.95508 52.2528H9.19388C10.6267 52.2528 12.0596 51.7752 13.2536 50.7005C14.567 49.6259 15.2834 48.4319 15.6416 46.999L16.8357 41.6259H26.9849C28.4178 41.6259 29.8506 41.1483 31.164 40.0737C32.4775 38.999 33.1939 37.805 33.5521 36.2528V36.014H18.1491L19.1043 31.7155H33.7909C35.2237 31.7155 36.6566 31.2378 37.8506 30.1632C39.164 29.0886 39.8804 27.8946 40.2387 26.3423L40.3581 26.1035H20.179C18.6267 26.1035 17.1939 26.5811 15.9999 27.6558Z" fill="white"/>
<path d="M119.163 27.2975C118.327 26.4617 117.253 26.1035 116.059 26.1035H95.76V26.3423C95.6406 26.7005 95.6406 27.0587 95.6406 27.417C95.6406 28.611 95.9988 29.6856 96.8347 30.5214C97.6705 31.3572 98.7451 31.7155 99.9391 31.7155H104.357L99.9391 52.2528H100.297C101.73 52.2528 103.163 51.7752 104.357 50.7005C105.551 49.6259 106.387 48.4319 106.745 46.999L109.969 31.7155H120.238V31.5961C120.357 31.2378 120.357 30.8796 120.357 30.402C120.357 29.208 119.879 28.1334 119.163 27.2975Z" fill="white"/>
<path d="M74.746 26.1035H61.134H55.5221L49.9102 52.2528H50.149C51.5818 52.2528 53.0146 51.7752 54.2087 50.7005C55.4027 49.6259 56.2385 48.4319 56.5967 46.999L57.7908 41.6259H71.6415C73.0743 41.6259 74.5072 41.1483 75.7012 40.0737C76.8952 38.999 77.7311 37.805 78.0893 36.2528L79.1639 31.4766C79.2833 31.1184 79.2833 30.7602 79.2833 30.2826C79.2833 29.0886 78.9251 28.014 78.0893 27.1781C77.134 26.4617 76.0594 26.1035 74.746 26.1035ZM59.94 31.7155H73.4326L72.4773 36.014H58.9848L59.94 31.7155Z" fill="white"/>
<path d="M204.776 66.9404C204.298 67.1792 203.82 67.1792 203.104 67.1792C200.596 67.1792 199.402 65.8658 199.402 63.2389V55.5971H197.611V53.5672H199.402V50.4628L202.029 49.627V53.5672H204.776V55.5971H202.029V63.1195C202.029 64.1941 202.626 64.7911 203.82 64.7911C204.178 64.7911 204.417 64.7911 204.776 64.6717V66.9404Z" fill="white"/>
<path d="M154.625 43.7763V34.821C154.625 33.1494 153.67 32.3136 151.76 32.3136C150.804 32.3136 149.969 32.433 149.252 32.6718V43.7763H146.506V31.0001C148.058 30.4031 149.73 30.0449 151.64 30.0449C155.342 30.0449 157.252 31.5972 157.252 34.5822V43.7763H154.625Z" fill="white"/>
<path d="M257.432 43.7763V34.821C257.432 33.1494 256.477 32.3136 254.566 32.3136C253.611 32.3136 252.775 32.433 252.059 32.6718V43.7763H249.312V31.0001C250.865 30.4031 252.536 30.0449 254.447 30.0449C258.148 30.0449 260.059 31.5972 260.059 34.5822V43.7763H257.432Z" fill="white"/>
<path d="M217.432 60.2538L208.476 61.4478C208.715 63.8358 210.148 65.0299 212.536 65.0299C213.969 65.0299 215.282 64.7911 216.238 64.1941L217.073 66.2239C215.879 66.8209 214.327 67.1791 212.417 67.1791C210.268 67.1791 208.715 66.5821 207.521 65.2687C206.327 64.0746 205.85 62.2836 205.85 60.1343C205.85 58.1045 206.447 56.4329 207.521 55.1194C208.596 53.806 210.148 53.209 211.939 53.209C213.611 53.209 215.044 53.6866 215.999 54.7612C216.954 55.8358 217.432 57.2687 217.432 59.0597C217.432 59.6567 217.432 60.015 217.432 60.2538ZM214.805 58.8209C214.805 56.5523 213.85 55.3582 211.82 55.3582C210.745 55.3582 209.909 55.7164 209.312 56.5523C208.715 57.3881 208.357 58.4627 208.357 59.7761L214.805 58.8209Z" fill="white"/>
<path d="M187.225 32.433C186.866 32.3136 186.389 32.3136 185.911 32.3136C185.075 32.3136 184.359 32.433 183.762 32.6718V43.7763H181.016V31.0001C182.568 30.4031 184.239 30.0449 186.269 30.0449C186.986 30.0449 187.463 30.0449 187.822 30.1643L187.225 32.433Z" fill="white"/>
<path d="M171.343 65.8659C170.268 66.8211 168.716 67.2987 166.806 67.2987C164.895 67.2987 163.343 66.8211 161.91 65.9853L162.985 63.239C164.059 63.9555 165.373 64.4331 166.686 64.4331C167.522 64.4331 168.239 64.1943 168.716 63.7167C169.194 63.239 169.552 62.642 169.552 61.9256C169.552 60.7316 168.597 59.7764 166.806 59.0599C165.373 58.4629 164.418 57.8659 163.821 57.2689C162.865 56.3137 162.388 55.1196 162.388 53.6868C162.388 52.1346 162.865 50.9405 163.821 50.1047C164.776 49.1495 166.209 48.6719 167.88 48.6719C169.671 48.6719 171.224 49.1495 172.418 49.9853L171.462 52.4928C170.507 51.7764 169.433 51.4181 168.238 51.4181C167.403 51.4181 166.806 51.657 166.328 52.1346C165.85 52.6122 165.612 53.0898 165.612 53.8062C165.612 54.5226 165.85 55.1196 166.447 55.5973C166.806 55.9555 167.403 56.3137 168.358 56.6719C169.91 57.2689 170.865 57.8659 171.462 58.4629C172.418 59.4181 172.895 60.6122 172.895 62.1644C173.015 63.5972 172.418 64.9107 171.343 65.8659Z" fill="white"/>
<path d="M233.551 27.4179C233.193 27.6567 232.835 27.8955 232.357 27.8955C231.88 27.8955 231.521 27.7761 231.163 27.4179C230.805 27.0597 230.686 26.7015 230.686 26.3433C230.686 25.8656 230.805 25.5074 231.163 25.2686C231.521 24.9104 231.88 24.791 232.357 24.791C232.835 24.791 233.193 24.9104 233.551 25.2686C233.909 25.6268 234.029 25.985 234.029 26.3433C234.029 26.8209 233.909 27.1791 233.551 27.4179ZM231.044 43.7761V30.403H233.79V43.7761H231.044Z" fill="white"/>
<path d="M229.492 43.538C229.015 43.7768 228.537 43.7768 227.821 43.7768C225.313 43.7768 224.119 42.4634 224.119 39.8365V32.1948H222.328V30.1649H224.119V27.0604L226.746 26.2246V30.1649H229.492V32.1948H226.746V39.7171C226.746 40.7918 227.343 41.3888 228.537 41.3888C228.895 41.3888 229.134 41.3888 229.492 41.2694V43.538Z" fill="white"/>
<path d="M179.82 72.672H176.954L178.984 67.2989L173.969 53.9258H176.954L179.82 63.0004C180.058 63.5974 180.178 64.3138 180.297 65.0303C180.417 64.3138 180.536 63.5974 180.775 63.0004L183.76 53.9258H186.745L179.82 72.672Z" fill="white"/>
<path d="M229.371 58.2246V67.1798H229.49V59.0604C229.49 58.8216 229.49 58.4634 229.371 58.2246Z" fill="white"/>
<path d="M238.567 57.866V67.2988H235.821V58.1048C235.821 56.4331 234.866 55.4779 232.955 55.4779C232 55.4779 231.045 55.5973 230.448 55.8361V67.1794H227.701V57.9854C227.701 57.7465 227.701 57.6272 227.701 57.3883C227.463 56.0749 226.507 55.3585 224.836 55.3585C223.881 55.3585 222.925 55.4779 222.328 55.7167V67.06H219.582V54.0451C221.134 53.448 222.925 53.0898 224.836 53.0898C226.269 53.0898 227.463 53.3286 228.418 53.8063C229.851 53.3286 231.284 53.0898 232.955 53.0898C236.776 53.3286 238.567 54.7615 238.567 57.866Z" fill="white"/>
<path d="M208.356 34.3425V43.7754H205.61V34.5813C205.61 32.9097 204.655 31.9545 202.744 31.9545C201.789 31.9545 200.834 32.0739 200.237 32.3127V43.656H197.49V34.4619C197.49 34.2231 197.49 34.1037 197.49 33.8649C197.252 32.5515 196.296 31.8351 194.625 31.8351C193.67 31.8351 192.714 31.9545 192.117 32.1933V43.5366H189.371V30.5216C190.923 29.9246 192.714 29.5664 194.625 29.5664C196.058 29.5664 197.252 29.8052 198.207 30.2828C199.64 29.8052 201.073 29.5664 202.744 29.5664C206.446 29.8052 208.356 31.3574 208.356 34.3425Z" fill="white"/>
<path d="M226.984 58.8203V67.2979V59.4173C227.104 59.1785 227.104 58.9397 226.984 58.8203Z" fill="white"/>
<path d="M195.105 66.2248C194.269 66.9412 192.956 67.2994 191.403 67.2994C189.851 67.2994 188.538 66.9412 187.344 66.3442L188.18 64.3144C189.135 64.9114 190.09 65.1502 191.284 65.1502C192 65.1502 192.597 65.0308 192.956 64.6726C193.433 64.3144 193.553 63.9562 193.553 63.3591C193.553 62.5233 192.836 61.8069 191.284 61.2099C190.09 60.7323 189.254 60.3741 188.777 59.8965C187.941 59.2994 187.583 58.3442 187.583 57.2696C187.583 56.195 187.941 55.3591 188.777 54.6427C189.612 53.9263 190.687 53.6875 192.12 53.6875C193.553 53.6875 194.866 54.0457 195.821 54.6427L194.986 56.4338C194.15 55.9562 193.314 55.7173 192.359 55.7173C191.642 55.7173 191.165 55.8368 190.806 56.195C190.448 56.5532 190.209 56.9114 190.209 57.389C190.209 57.8666 190.448 58.3442 190.806 58.7024C191.045 58.9412 191.642 59.18 192.359 59.4188C193.553 59.8965 194.389 60.2547 194.866 60.7323C195.702 61.3293 196.06 62.2845 196.06 63.3591C196.418 64.6726 195.941 65.5084 195.105 66.2248Z" fill="white"/>
<path d="M144.238 25.627H141.73V43.7762H144.238V25.627Z" fill="white"/>
<path d="M173.849 32.671C175.759 32.671 177.311 34.7009 177.311 37.0889C177.311 39.477 175.759 41.5068 173.849 41.5068C171.938 41.5068 170.386 39.477 170.386 37.0889C170.505 34.7009 172.057 32.671 173.849 32.671ZM173.849 30.4023C170.744 30.4023 168.117 33.3874 168.117 37.0889C168.117 40.7904 170.625 43.7755 173.849 43.7755C176.953 43.7755 179.58 40.7904 179.58 37.0889C179.58 33.3874 177.072 30.4023 173.849 30.4023Z" fill="white"/>
<path d="M241.671 32.671C243.581 32.671 245.133 34.7009 245.133 37.0889C245.133 39.477 243.581 41.5068 241.671 41.5068C239.76 41.5068 238.208 39.477 238.208 37.0889C238.208 34.7009 239.88 32.671 241.671 32.671ZM241.671 30.4023C238.566 30.4023 235.939 33.3874 235.939 37.0889C235.939 40.7904 238.447 43.7755 241.671 43.7755C244.775 43.7755 247.402 40.7904 247.402 37.0889C247.402 33.3874 244.895 30.4023 241.671 30.4023Z" fill="white"/>
<path d="M161.074 43.7762V32.1941H159.164V30.2837H161.074V29.6867C161.074 27.7762 161.433 26.1046 162.627 25.03C163.582 24.1941 164.776 23.8359 165.851 23.8359C166.686 23.8359 167.403 24.0747 167.88 24.1941L167.522 26.1046C167.164 25.9852 166.686 25.7464 165.97 25.7464C163.94 25.7464 163.343 27.5374 163.343 29.6867V30.4031H166.567V32.3135H163.343V43.8956H161.074V43.7762Z" fill="white"/>
<path d="M218.388 43.5375L218.149 41.8658H218.03C217.313 42.9404 215.88 43.8957 213.97 43.8957C211.224 43.8957 209.91 41.9852 209.91 40.0748C209.91 36.8509 212.776 35.0599 217.91 35.1793V34.9404C217.91 33.8658 217.552 31.836 214.925 31.836C213.731 31.836 212.418 32.1942 211.462 32.7912L210.865 31.239C211.94 30.5225 213.612 30.0449 215.283 30.0449C219.343 30.0449 220.298 32.7912 220.298 35.5375V40.5524C220.298 41.7464 220.298 42.821 220.537 43.7763H218.388V43.5375ZM218.03 36.7315C215.403 36.7315 212.418 37.0897 212.418 39.7166C212.418 41.2688 213.492 41.9852 214.686 41.9852C216.477 41.9852 217.552 40.9106 217.91 39.7166C218.03 39.4778 218.03 39.239 218.03 39.0001V36.7315Z" fill="white"/>
</svg>
