<svg width="62" height="65" viewBox="0 0 62 65" fill="none" xmlns="http://www.w3.org/2000/svg">
<path d="M34.9676 12.8348C34.1884 9.98232 32.6896 7.37774 30.6149 5.27071C28.9971 3.60455 27.0616 2.27979 24.9229 1.37481C22.7841 0.469822 20.4856 0.00299815 18.1633 0.00195488C15.841 0.000911604 13.542 0.46567 11.4025 1.36873C9.2629 2.2718 7.32621 3.59482 5.70696 5.25952C3.03107 7.98749 1.32966 11.5219 0.866396 15.315C0.403132 19.1081 1.20388 22.9481 3.14456 26.2399C4.20372 28.0421 5.58418 29.6349 7.21755 30.9395C8.00191 31.5837 8.8448 32.1531 9.73519 32.6403L10.8541 30.6821C10.066 30.2628 9.32026 29.7682 8.62743 29.2051C7.74266 28.4938 6.94292 27.6828 6.24406 26.7882H9.2988C9.42189 27.0903 9.55616 27.4036 9.70162 27.7393C10.1108 28.6799 10.6091 29.5792 11.1898 30.4248L13.0249 29.1492C12.5288 28.4262 12.1017 27.6582 11.7493 26.8553C11.5356 26.3471 11.3488 25.8279 11.1898 25.3C11.1227 25.0986 11.0779 24.886 11.0108 24.6846V24.5503C10.3345 22.2807 9.99148 19.925 9.99255 17.5568C9.99255 17.1092 9.99255 16.6952 9.99255 16.2812H27.437V15.1623L28.556 15.0727C28.556 14.4685 28.4329 13.8643 28.3434 13.2936C28.1232 11.9199 27.7825 10.5682 27.3251 9.25419C28.1444 8.75514 28.9294 8.20189 29.6749 7.59813C31.1363 9.28243 32.2062 11.2696 32.808 13.4167C32.9713 14.0391 33.0983 14.6706 33.1885 15.3077L35.4264 15.0168C35.3222 14.2801 35.1689 13.5511 34.9676 12.8348ZM8.22461 5.96446C9.4129 4.91404 10.7615 4.06033 12.2193 3.43563C11.268 4.51002 10.4765 5.71598 9.86947 7.01628C9.20928 6.63583 8.64981 6.26658 8.22461 5.96446ZM18.1609 2.7195C20.6114 2.7195 22.9388 4.75599 24.5278 8.20237C22.53 9.07854 20.3675 9.51594 18.1862 9.48506C16.005 9.45417 13.8558 8.95572 11.8836 8.02334C13.4277 4.68886 15.7552 2.7195 18.1609 2.7195ZM24.1026 3.44682C25.5732 4.06967 26.9306 4.93174 28.1196 5.99803C27.6037 6.40064 27.0658 6.77421 26.5083 7.11698C25.891 5.78207 25.0804 4.5454 24.1026 3.44682ZM6.64688 7.56457C7.41451 8.11158 8.21412 8.61227 9.04144 9.06396C8.49361 10.6796 8.11854 12.3487 7.92249 14.0433H3.35716C3.90291 11.6456 5.03302 9.41995 6.64688 7.56457ZM8.58267 24.5503H4.76704C3.59342 22.3536 2.97855 19.9019 2.97672 17.4114C2.97672 17.0309 2.97672 16.6617 2.97672 16.2924H7.68751C7.68751 16.7027 7.68751 17.1279 7.68751 17.568C7.67349 19.9249 7.97455 22.2731 8.58267 24.5503ZM26.1279 13.6405C26.1279 13.7748 26.1279 13.909 26.1279 14.0433H10.1492C10.3323 12.6938 10.6395 11.3641 11.0667 10.071C13.4685 11.133 16.0609 11.6964 18.6868 11.7271C20.9698 11.7201 23.2261 11.2361 25.311 10.306C25.675 11.393 25.9482 12.5083 26.1279 13.6405Z" fill="#0C4578"/>
<path d="M32.2023 24.5508H26.2383V26.7887H32.2023V24.5508Z" fill="#0C4578"/>
<path d="M53.1165 37.7307H37.8988V39.7337H34.5419V37.7307H27.6939C27.6939 38.4021 27.6939 39.0623 27.6939 39.7337H24.3371V37.7307H13.5727V37.63C13.3243 36.9007 13.224 36.1291 13.2778 35.3605C13.3316 34.5919 13.5384 33.8418 13.886 33.1542C14.0497 32.8291 14.2406 32.5184 14.4567 32.2255C15.3958 30.9649 16.6036 29.9291 17.9926 29.1931C17.1981 20.801 27.3694 21.6849 27.3694 21.6849C29.1992 19.3319 31.6535 17.5406 34.4524 16.5154L34.6426 16.4594C35.0091 16.3417 35.3829 16.2483 35.7616 16.1797C37.7933 17.2274 39.5815 18.6914 41.0095 20.4765C51.1248 19.917 50.3527 28.1301 50.3527 28.1301C57.6147 30.9163 53.1165 37.7307 53.1165 37.7307Z" fill="url(#paint0_linear_1_5454)"/>
<path d="M55.5446 31.8688C55.231 30.9473 54.7357 30.0982 54.088 29.3716C53.4402 28.6451 52.6533 28.056 51.7737 27.6391C51.7006 25.3112 50.8 23.0855 49.2337 21.3618C48.2208 20.4187 47.0243 19.6944 45.719 19.2343C44.4137 18.7742 43.0276 18.588 41.6472 18.6875C40.2015 16.8725 38.4197 15.3529 36.3993 14.2117C35.5935 13.7695 34.7418 13.4168 33.8593 13.1599C31.6697 12.5153 29.3261 12.6337 27.2127 13.4956C26.1424 13.9277 25.1341 14.4996 24.2139 15.1964C22.8802 16.211 21.6742 17.3832 20.622 18.6875C19.1003 18.6875 15.4077 18.9225 13.0132 21.2835C11.8204 22.4883 11.0845 24.0709 10.9319 25.7593C10.8562 26.2666 10.8262 26.7796 10.8424 27.2923L10.7081 27.3818C9.62483 28.1495 8.67585 29.0909 7.89954 30.168C7.32269 30.9747 6.89101 31.876 6.62393 32.8311C6.33656 34.0083 6.29556 35.2322 6.50352 36.4261C6.71148 37.6199 7.1639 38.7579 7.8324 39.7686L8.23522 40.4623H53.8885L54.3025 39.7798C54.4256 39.6119 56.7754 35.6397 55.5446 31.8688ZM9.91365 37.6314C9.23593 36.3913 9.04445 34.9432 9.37655 33.5696C9.56476 32.9066 9.86773 32.2817 10.2717 31.7233C10.7945 31.0083 11.4204 30.3747 12.1292 29.8435C12.4052 29.63 12.6928 29.432 12.9908 29.2504L13.8076 28.814L13.7293 27.8853C13.6595 27.1655 13.6821 26.4398 13.7964 25.7257C13.9512 24.8201 14.3809 23.9841 15.0273 23.3312C17.1421 21.2275 21.1256 21.5632 21.1591 21.5632L21.9312 21.6416L22.4124 21.0261C26.2839 16.0915 30.3122 14.525 34.4075 16.3937L34.609 16.4832L35.0677 16.7182C36.9251 17.8027 38.543 19.2531 39.8233 20.9814L40.2709 21.6416H41.0653C43.8403 21.4849 45.888 22.0891 47.2084 23.4207C48.4128 24.8355 49.033 26.6561 48.9427 28.5119L48.8532 29.5414L49.8043 29.9442C50.4944 30.1687 51.1257 30.5444 51.6522 31.0438C52.1788 31.5432 52.5872 32.1538 52.8479 32.8311C53.2329 34.4848 53.0188 36.2214 52.2436 37.7321L9.91365 37.6314Z" fill="#0C4578"/>
<path d="M8.00098 50.0295C7.99717 50.8182 7.7229 51.5818 7.22397 52.1928C6.72504 52.8037 6.03165 53.225 5.25954 53.3863C5.03399 51.9389 4.92176 50.4761 4.92386 49.0112C4.92386 48.2056 4.92386 47.3999 5.03575 46.6055C5.86024 46.7217 6.61477 47.1325 7.15985 47.7619C7.70494 48.3913 8.00373 49.1968 8.00098 50.0295Z" fill="url(#paint1_linear_1_5454)"/>
<path d="M16.66 60.4247C16.6512 61.1049 16.4413 61.7672 16.0568 62.3283C15.6723 62.8893 15.1303 63.3241 14.4992 63.5777C13.8681 63.8314 13.176 63.8926 12.5102 63.7537C11.8443 63.6148 11.2345 63.282 10.7574 62.7972C10.2803 62.3123 9.9574 61.6972 9.82928 61.0292C9.70115 60.3611 9.77356 59.6702 10.0374 59.0432C10.3012 58.4163 10.7446 57.8814 11.3119 57.506C11.8791 57.1306 12.5447 56.9315 13.2249 56.9336C13.6803 56.9351 14.1309 57.0267 14.5507 57.2034C14.9705 57.38 15.3511 57.6381 15.6705 57.9628C15.9899 58.2874 16.2419 58.6721 16.4117 59.0947C16.5816 59.5173 16.666 59.9693 16.66 60.4247Z" fill="url(#paint2_linear_1_5454)"/>
<path d="M52.4555 60.4239C52.4822 60.8923 52.4131 61.3611 52.2522 61.8018C52.0914 62.2425 51.8423 62.6457 51.5201 62.9867C51.198 63.3278 50.8096 63.5994 50.3788 63.7851C49.948 63.9708 49.4839 64.0666 49.0147 64.0666C48.5456 64.0666 48.0814 63.9708 47.6506 63.7851C47.2198 63.5994 46.8315 63.3278 46.5093 62.9867C46.1872 62.6457 45.9381 62.2425 45.7773 61.8018C45.6164 61.3611 45.5472 60.8923 45.574 60.4239C45.6241 59.5453 46.0084 58.7191 46.6482 58.1148C47.288 57.5105 48.1347 57.1738 49.0147 57.1738C49.8948 57.1738 50.7415 57.5105 51.3813 58.1148C52.021 58.7191 52.4054 59.5453 52.4555 60.4239Z" fill="url(#paint3_linear_1_5454)"/>
<path d="M60.5802 50.9352C60.5824 51.6178 60.3819 52.2856 60.0041 52.8541C59.6262 53.4226 59.0881 53.866 58.4579 54.1283C57.8277 54.3905 57.1338 54.4597 56.4643 54.3271C55.7947 54.1945 55.1796 53.866 54.6969 53.3833C54.2143 52.9007 53.8858 52.2856 53.7532 51.616C53.6206 50.9464 53.6897 50.2525 53.952 49.6223C54.2142 48.9921 54.6577 48.454 55.2261 48.0762C55.7946 47.6983 56.4625 47.4978 57.145 47.5C58.0561 47.5 58.9299 47.8619 59.5741 48.5062C60.2183 49.1504 60.5802 50.0241 60.5802 50.9352Z" fill="url(#paint4_linear_1_5454)"/>
<path d="M19.0218 51.1481C19.3185 51.1481 19.6031 51.0302 19.813 50.8203C20.0228 50.6105 20.1407 50.3259 20.1407 50.0291V39.1641H17.9028V48.9549H8.95118C8.72246 48.0865 8.24271 47.3049 7.57198 46.7078C6.90125 46.1107 6.06933 45.7247 5.18031 45.598C4.96805 45.581 4.75477 45.581 4.54251 45.598C3.37226 45.656 2.2691 46.1617 1.46136 47.0105C0.653616 47.8593 0.203125 48.9861 0.203125 50.1578C0.203125 51.3295 0.653616 52.4563 1.46136 53.3051C2.2691 54.1538 3.37226 54.6595 4.54251 54.7175C4.85416 54.716 5.16503 54.686 5.47124 54.628C6.30739 54.4504 7.07687 54.0415 7.6921 53.4481C8.30732 52.8546 8.74357 52.1004 8.95118 51.2711L19.0218 51.1481ZM5.01247 52.267C4.85255 52.2843 4.69123 52.2843 4.53132 52.267C3.94338 52.2262 3.39283 51.9638 2.99079 51.5329C2.58876 51.1019 2.36517 50.5345 2.36517 49.9452C2.36517 49.3558 2.58876 48.7884 2.99079 48.3575C3.39283 47.9266 3.94338 47.6642 4.53132 47.6234H4.85581C5.39478 47.7028 5.8888 47.9687 6.25184 48.3749C6.61488 48.7811 6.82392 49.3018 6.84256 49.8463C6.86119 50.3908 6.68824 50.9245 6.35383 51.3546C6.01942 51.7846 5.54474 52.0838 5.01247 52.1999V52.267Z" fill="#0C4578"/>
<path d="M26.0376 59.3049H17.6454C17.3724 58.2165 16.7109 57.2655 15.7855 56.631C14.8601 55.9964 13.7346 55.7221 12.621 55.8596C11.5074 55.9971 10.4825 56.5371 9.73925 57.3777C8.99604 58.2184 8.58582 59.3017 8.58582 60.4238C8.58582 61.5459 8.99604 62.6293 9.73925 63.4699C10.4825 64.3106 11.5074 64.8505 12.621 64.988C13.7346 65.1256 14.8601 64.8512 15.7855 64.2167C16.7109 63.5821 17.3724 62.6311 17.6454 61.5428H27.2013C27.498 61.5428 27.7826 61.4249 27.9925 61.215C28.2023 61.0052 28.3202 60.7206 28.3202 60.4238V39.7344H26.0823L26.0376 59.3049ZM13.2255 62.6617C12.7743 62.6758 12.3288 62.5583 11.9431 62.3237C11.5575 62.089 11.2484 61.7473 11.0536 61.34C10.8587 60.9328 10.7865 60.4778 10.8457 60.0302C10.9049 59.5827 11.093 59.1621 11.387 58.8195C11.681 58.477 12.0683 58.2273 12.5017 58.101C12.9351 57.9747 13.3959 57.9771 13.8279 58.108C14.2599 58.2389 14.6446 58.4926 14.935 58.8382C15.2254 59.1838 15.409 59.6064 15.4634 60.0546V60.614C15.4013 61.1684 15.1403 61.6813 14.7288 62.0579C14.3173 62.4344 13.7832 62.649 13.2255 62.6617Z" fill="#0C4578"/>
<path d="M49.0105 55.8802C48.0164 55.8867 47.0518 56.2184 46.2638 56.8245C45.4759 57.4306 44.9079 58.2779 44.6466 59.237H35.6949V39.6777H33.457V60.4231C33.457 60.7199 33.5749 61.0045 33.7848 61.2144C33.9946 61.4242 34.2792 61.5421 34.576 61.5421H44.6466C44.8423 62.3761 45.2693 63.1379 45.8785 63.7402C46.4877 64.3424 47.2545 64.7606 48.0907 64.9468C48.9268 65.1329 49.7986 65.0794 50.6057 64.7925C51.4129 64.5055 52.1227 63.9967 52.6538 63.3245C53.1848 62.6523 53.5155 61.844 53.6078 60.9923C53.7002 60.1407 53.5504 59.2803 53.1758 58.5099C52.8012 57.7395 52.2169 57.0904 51.49 56.6371C50.7631 56.1838 49.9231 55.9447 49.0664 55.9473L49.0105 55.8802ZM49.0105 62.7617C48.5506 62.7617 48.1011 62.6255 47.7186 62.3703C47.3361 62.115 47.0378 61.7522 46.8613 61.3276C46.6848 60.9029 46.6381 60.4355 46.727 59.9844C46.8159 59.5332 47.0365 59.1185 47.3608 58.7925C47.6852 58.4666 48.0989 58.2441 48.5496 58.153C49.0003 58.0619 49.468 58.1064 49.8934 58.2809C50.3189 58.4553 50.6832 58.7519 50.9402 59.1331C51.1973 59.5144 51.3357 59.9633 51.3379 60.4231C51.3394 60.7297 51.2803 61.0336 51.164 61.3172C51.0477 61.6009 50.8765 61.8588 50.6602 62.0761C50.4439 62.2934 50.1868 62.4659 49.9037 62.5835C49.6206 62.7012 49.3171 62.7617 49.0105 62.7617Z" fill="#0C4578"/>
<path d="M57.1451 46.381C56.1335 46.3843 55.1516 46.7234 54.3536 47.3452C53.5557 47.9669 52.9868 48.8361 52.7364 49.8162H43.7848V40.0254H41.5469V50.9352C41.5469 51.232 41.6648 51.5166 41.8746 51.7264C42.0845 51.9363 42.3691 52.0541 42.6658 52.0541H52.7364C52.946 52.8809 53.3835 53.6322 53.9991 54.2224C54.6147 54.8127 55.3837 55.2182 56.2185 55.3928C57.0534 55.5675 57.9204 55.5041 58.721 55.2101C59.5216 54.9161 60.2236 54.4031 60.7469 53.7297C61.2703 53.0562 61.594 52.2494 61.6812 51.401C61.7684 50.5525 61.6157 49.6967 61.2403 48.9308C60.8649 48.165 60.2821 47.52 59.558 47.0692C58.834 46.6184 57.998 46.3799 57.1451 46.381ZM57.1451 53.2626C56.6843 53.2648 56.2332 53.1302 55.849 52.8758C55.4648 52.6214 55.1647 52.2587 54.9869 51.8336C54.809 51.4085 54.7613 50.9402 54.8498 50.488C54.9384 50.0358 55.1592 49.6201 55.4842 49.2934C55.8092 48.9668 56.2239 48.7441 56.6757 48.6533C57.1275 48.5626 57.596 48.6081 58.022 48.7839C58.4479 48.9597 58.812 49.258 59.0683 49.641C59.3245 50.024 59.4613 50.4744 59.4613 50.9352C59.4613 51.5505 59.2176 52.1408 58.7836 52.577C58.3495 53.0131 57.7604 53.2596 57.1451 53.2626Z" fill="#0C4578"/>
<defs>
<linearGradient id="paint0_linear_1_5454" x1="13.2259" y1="27.9399" x2="54.4929" y2="27.9399" gradientUnits="userSpaceOnUse">
<stop stop-color="#176AB4"/>
<stop offset="1" stop-color="#B1FFC7"/>
</linearGradient>
<linearGradient id="paint1_linear_1_5454" x1="4.92386" y1="50.0071" x2="8.00098" y2="50.0071" gradientUnits="userSpaceOnUse">
<stop stop-color="#C21500"/>
<stop offset="0.52" stop-color="#F37429"/>
<stop offset="1" stop-color="#FFD1B0"/>
</linearGradient>
<linearGradient id="paint2_linear_1_5454" x1="9.77848" y1="60.3912" x2="16.66" y2="60.3912" gradientUnits="userSpaceOnUse">
<stop stop-color="#C21500"/>
<stop offset="0.52" stop-color="#F37429"/>
<stop offset="1" stop-color="#FFD1B0"/>
</linearGradient>
<linearGradient id="paint3_linear_1_5454" x1="45.574" y1="60.4463" x2="52.4555" y2="60.4463" gradientUnits="userSpaceOnUse">
<stop stop-color="#C21500"/>
<stop offset="0.52" stop-color="#F37429"/>
<stop offset="1" stop-color="#FFD1B0"/>
</linearGradient>
<linearGradient id="paint4_linear_1_5454" x1="53.6987" y1="50.9464" x2="60.5802" y2="50.9464" gradientUnits="userSpaceOnUse">
<stop stop-color="#C21500"/>
<stop offset="0.52" stop-color="#F37429"/>
<stop offset="1" stop-color="#FFD1B0"/>
</linearGradient>
</defs>
</svg>
