<svg width="65" height="65" viewBox="0 0 65 65" fill="none" xmlns="http://www.w3.org/2000/svg">
<path d="M41.9779 35.3891C41.4812 36.8833 40.5923 38.2166 39.4041 39.2497C39.1741 39.4565 38.9289 39.6458 38.6706 39.8159C37.1932 40.8526 35.4308 41.4056 33.626 41.3988C31.2824 41.3954 29.0356 40.4629 27.3784 38.8056C25.7212 37.1484 24.7886 34.9017 24.7852 32.558C24.7879 31.9432 24.8569 31.3305 24.9911 30.7306C25.145 29.9248 25.4228 29.1478 25.8147 28.4271C26.5354 28.4914 27.2818 28.5301 28.0153 28.5558C28.3127 28.5602 28.6013 28.4548 28.826 28.2598C29.6898 27.4696 30.4861 26.6087 31.2067 25.6861C31.5137 25.1773 31.9225 24.7375 32.4074 24.3943C32.8924 24.051 33.4431 23.8117 34.025 23.6914C34.4097 23.7017 34.7929 23.7448 35.1703 23.8201C35.3289 23.8689 35.4837 23.9291 35.6336 24.0003C37.2808 24.7981 37.744 26.3681 37.0234 28.6201C36.9333 28.8775 36.8818 29.1349 36.7403 29.6239C37.4094 29.6239 37.8985 29.6239 38.3875 29.6239C39.3338 29.6659 40.2291 30.065 40.893 30.7407C41.5568 31.4165 41.9399 32.3188 41.965 33.2657C41.965 33.9607 41.9779 34.6684 41.9779 35.3891Z" fill="url(#paint0_linear_1_5476)"/>
<path d="M42.4662 32.7759C42.4411 31.829 42.0581 30.9267 41.3942 30.2509C40.7304 29.5752 39.8351 29.1761 38.8887 29.1341C38.3997 29.1341 37.9107 29.1341 37.2415 29.1341C37.3831 28.6451 37.4346 28.3877 37.5246 28.1303C38.2453 25.8783 37.782 24.2697 36.1348 23.5105C35.9849 23.4393 35.8301 23.3791 35.6715 23.3303C35.3034 23.2059 34.9128 23.162 34.5262 23.2016C33.9444 23.3219 33.3937 23.5612 32.9087 23.9045C32.4237 24.2477 32.0149 24.6875 31.708 25.1963C30.9873 26.1189 30.191 26.9798 29.3273 27.77C29.1026 27.965 28.814 28.0704 28.5165 28.066C27.783 28.066 27.0366 27.9888 26.316 27.9373C25.5953 27.8858 25.0291 27.8472 24.3471 27.8472C24.0164 27.8018 23.6798 27.8326 23.3629 27.9374C23.046 28.0421 22.7573 28.2179 22.5188 28.4514C22.2804 28.6849 22.0985 28.9699 21.9871 29.2845C21.8757 29.5991 21.8378 29.935 21.8763 30.2665C21.8763 33.2692 21.8763 36.272 21.8763 39.2747C21.83 39.6077 21.8612 39.9469 21.9673 40.266C22.0734 40.585 22.2516 40.8753 22.4882 41.1143C22.7247 41.3533 23.0131 41.5346 23.331 41.6441C23.6489 41.7535 23.9878 41.7882 24.3213 41.7455C25.917 41.7455 27.6157 42.1959 29.0956 41.1406C29.1728 41.0763 29.3916 41.1406 29.5332 41.1406C32.5316 42.1959 35.6329 41.6811 38.6828 41.694C39.1887 41.7071 39.6918 41.6154 40.1605 41.4247C40.6292 41.234 41.0533 40.9483 41.4062 40.5857C41.7592 40.2231 42.0333 39.7914 42.2113 39.3177C42.3893 38.844 42.4673 38.3387 42.4405 37.8334C42.4405 36.8811 42.4405 35.9159 42.4405 34.9636C42.4662 34.1915 42.4662 33.458 42.4662 32.7759ZM27.2811 39.339H24.3213V30.2022H27.2811V39.339ZM39.1847 39.339C39.045 39.3918 38.8966 39.418 38.7472 39.4162C36.315 39.4162 33.8442 39.4162 31.4249 39.2618C29.7648 39.1331 29.6876 38.8886 29.6876 37.1771V34.3202C29.6941 34.2819 29.6941 34.2427 29.6876 34.2044C29.4302 31.888 29.6876 29.8419 31.9911 28.4778C32.8018 28.0145 33.278 26.9207 33.9471 26.1872C34.312 25.9311 34.7226 25.7476 35.1568 25.6467C35.2726 26.0585 35.5686 26.5475 35.4399 26.8563C35.1053 27.77 34.552 28.5936 34.153 29.4301C33.9857 29.7904 33.7541 30.3309 33.9214 30.5883C34.0456 30.7891 34.2105 30.9616 34.4056 31.0946C34.6007 31.2276 34.8215 31.3182 35.0538 31.3604C36.0833 31.4762 37.1515 31.3604 38.1938 31.3604C39.7123 31.3604 40.1499 31.7979 40.1499 33.2778C40.1499 34.7577 40.1499 36.1604 40.1499 37.5889C40.1678 37.9467 40.0877 38.3027 39.9182 38.6184C39.8548 38.7783 39.7558 38.9217 39.6287 39.0376C39.5016 39.1536 39.3498 39.239 39.1847 39.2875V39.339Z" fill="#0C4578"/>
<path d="M62.9401 27.6043V36.7411L58.0499 37.5132L54.1893 46.0452L58.0499 51.3471L50.9464 58.3348L46.5453 54.4742L38.1677 58.3348L38.3222 64.2673H37.7945C33.2382 62.8717 29.0655 60.4432 25.6014 57.171C22.1372 53.8988 19.4751 49.8712 17.8223 45.4017C20.2171 48.153 23.3601 50.1488 26.8686 51.1462C30.3771 52.1436 34.0999 52.0996 37.5839 51.0196C41.0679 49.9396 44.1629 47.8701 46.492 45.0631C48.8212 42.256 50.2842 38.8324 50.7029 35.209C51.1217 31.5855 50.4781 27.9185 48.8506 24.6542C47.223 21.3899 44.6817 18.6691 41.5358 16.8229C38.39 14.9767 34.7753 14.0848 31.1318 14.2557C27.4882 14.4266 23.9729 15.6529 21.0137 17.7854C24.8968 11.8567 30.7053 7.44807 37.46 5.30273V6.58961L45.1812 10.9907L50.5475 6.43518L57.0848 12.9339L53.5201 18.017L57.0848 27.6171L62.9401 27.6043Z" fill="url(#paint1_linear_1_5476)"/>
<path d="M63.1212 25.7375H58.1667L55.1426 17.6173L58.3211 13.1004C58.4982 12.8518 58.5812 12.5484 58.5553 12.2443C58.5293 11.9403 58.3962 11.6553 58.1796 11.4403L51.6294 4.96733C51.402 4.73949 51.0974 4.60517 50.7758 4.59088C50.4542 4.57659 50.1389 4.68336 49.8921 4.89012L45.1822 8.90517L38.9279 5.31479V1.28687C38.9279 0.945574 38.7924 0.618252 38.551 0.376917C38.3097 0.135581 37.9824 0 37.6411 0L27.3461 0C27.0048 0 26.6775 0.135581 26.4361 0.376917C26.1948 0.618252 26.0592 0.945574 26.0592 1.28687V5.88101L18.1063 9.00812L14.6318 5.392C14.5111 5.26886 14.3669 5.17123 14.2077 5.10491C14.0485 5.03859 13.8776 5.00493 13.7052 5.00594C13.5317 4.99667 13.3583 5.02655 13.1979 5.09338C13.0376 5.16021 12.8943 5.26227 12.7787 5.392L5.48209 12.8687C5.27722 13.0829 5.15254 13.3611 5.12909 13.6566C5.10564 13.952 5.18488 14.2464 5.35341 14.4902L8.8151 19.4704L5.14751 25.7375H1.28688C0.945584 25.7375 0.618263 25.8731 0.376927 26.1144C0.135592 26.3557 1.0605e-05 26.6831 1.0605e-05 27.0244V37.4094C-0.00129653 37.7316 0.118273 38.0425 0.335095 38.2808C0.551917 38.519 0.85022 38.6673 1.17107 38.6963L6.64028 39.211L8.87944 46.1602L5.45636 49.8921C5.23196 50.1308 5.10703 50.446 5.10703 50.7736C5.10703 51.1012 5.23196 51.4165 5.45636 51.6551L12.2897 58.7201C12.5085 58.9449 12.8018 59.082 13.1147 59.1057C13.4275 59.1294 13.7382 59.038 13.9883 58.8487L18.5825 55.3742L25.6088 58.9002L25.7375 63.4815C25.7375 63.8228 25.8731 64.1501 26.1144 64.3914C26.3557 64.6328 26.6831 64.7684 27.0244 64.7684L38.4518 65.0386C38.7912 65.0338 39.115 64.895 39.3526 64.6525C39.4773 64.5303 39.5759 64.384 39.6422 64.2225C39.7086 64.061 39.7414 63.8877 39.7387 63.7131L39.61 58.63L46.4562 55.4514L50.2138 58.7844C50.4525 59.0088 50.7678 59.1337 51.0953 59.1337C51.4229 59.1337 51.7382 59.0088 51.9768 58.7844L59.1962 51.7066C59.4142 51.4892 59.5471 51.2009 59.5707 50.894C59.5943 50.587 59.5071 50.2818 59.3249 50.0337L55.8503 45.3366L59.119 38.1301L63.3271 37.4609C63.6316 37.4116 63.9082 37.2545 64.1067 37.0183C64.3051 36.7821 64.412 36.4825 64.4081 36.174V27.0244C64.4081 26.6831 64.2725 26.3557 64.0311 26.1144C63.7898 25.8731 63.4625 25.7375 63.1212 25.7375ZM61.8343 35.0544L58.038 35.6721C57.827 35.7037 57.6271 35.7873 57.4563 35.9154C57.2856 36.0434 57.1494 36.2119 57.06 36.4057L53.1994 44.9376C53.1053 45.1444 53.0677 45.3724 53.0903 45.5984C53.1129 45.8244 53.1949 46.0405 53.3281 46.2245L56.5452 50.6256L51.076 55.9919L47.6143 52.9291C47.42 52.7622 47.1802 52.6571 46.9257 52.6273C46.6712 52.5975 46.4136 52.6443 46.1859 52.7618L37.8084 56.6225C37.581 56.7276 37.3892 56.8969 37.2566 57.1095C37.124 57.3221 37.0564 57.5688 37.062 57.8192L37.1778 62.4005L28.3112 62.1817L28.1697 58.0766C28.162 57.8456 28.0922 57.6209 27.9676 57.4261C27.8431 57.2314 27.6684 57.0738 27.4619 56.9699L19.0457 52.7618C18.8309 52.6552 18.5905 52.6108 18.3518 52.6335C18.113 52.6563 17.8854 52.7453 17.6945 52.8905L13.3706 56.1592L8.22313 50.7929L11.3374 47.3956C11.494 47.2252 11.6017 47.0157 11.6493 46.7893C11.6968 46.5628 11.6824 46.3277 11.6076 46.1087L8.82797 37.6411C8.75083 37.4009 8.60481 37.1887 8.40804 37.0308C8.21128 36.8729 7.97245 36.7764 7.72125 36.7531L2.57376 36.2641V28.3112H5.89389C6.12065 28.3121 6.34363 28.2531 6.54023 28.1401C6.73684 28.0271 6.90009 27.8642 7.01347 27.6678L11.4532 19.9465C11.5741 19.7346 11.6323 19.4925 11.6209 19.2487C11.6095 19.0049 11.529 18.7694 11.3888 18.5696L8.06871 13.8725L13.6924 8.08157L16.8452 11.3631C17.0233 11.546 17.2517 11.6718 17.5015 11.7245C17.7513 11.7772 18.0111 11.7544 18.2479 11.6591L27.7064 7.94001C27.9418 7.84631 28.1443 7.6852 28.2886 7.47687C28.4328 7.26855 28.5123 7.02229 28.5171 6.76896L28.5686 2.57375H36.3542V6.06118C36.3533 6.28794 36.4123 6.51091 36.5253 6.70751C36.6383 6.90412 36.8013 7.06738 36.9976 7.18076L44.7189 11.5819C44.9485 11.7114 45.2123 11.7672 45.4747 11.7419C45.737 11.7166 45.9853 11.6113 46.1859 11.4403L50.69 7.57969L55.593 12.5213L52.646 16.7294C52.5265 16.8995 52.4501 17.0961 52.4232 17.3023C52.3963 17.5085 52.4198 17.7182 52.4916 17.9133L56.0562 27.5134C56.1483 27.7597 56.3135 27.9719 56.5298 28.1214C56.7461 28.271 57.003 28.3507 57.2659 28.3498H61.8343V35.0544Z" fill="#0C4578"/>
<path d="M32.1718 12.3926C28.1943 12.3977 24.3075 13.582 21.0029 15.7958C17.6983 18.0096 15.1243 21.1535 13.6062 24.83C12.0882 28.5065 11.6943 32.5506 12.4743 36.4509C13.2544 40.3513 15.1733 43.9328 17.9886 46.7427C20.8039 49.5526 24.3891 51.4646 28.2909 52.2372C32.1928 53.0098 36.2361 52.6081 39.9097 51.083C43.5833 49.5579 46.7222 46.9779 48.9297 43.669C51.1371 40.3602 52.314 36.4711 52.3114 32.4936C52.3046 27.1578 50.1793 22.0432 46.4028 18.2739C42.6263 14.5046 37.5076 12.3892 32.1718 12.3926ZM32.1718 50.0336C28.7038 50.0286 25.3152 48.9955 22.4341 47.0651C19.5531 45.1347 17.3089 42.3935 15.9853 39.188C14.6617 35.9826 14.318 32.4566 14.9977 29.0559C15.6774 25.6552 17.3499 22.5322 19.804 20.0818C22.258 17.6313 25.3834 15.9633 28.7851 15.2886C32.1869 14.6139 35.7123 14.9628 38.9158 16.2911C42.1194 17.6194 44.8572 19.8676 46.7834 22.7515C48.7096 25.6354 49.7377 29.0255 49.7377 32.4936C49.736 34.7986 49.2803 37.0808 48.3966 39.2098C47.5129 41.3388 46.2186 43.2729 44.5874 44.9016C42.9563 46.5303 41.0203 47.8219 38.8901 48.7024C36.7598 49.583 34.4769 50.0353 32.1718 50.0336Z" fill="#0C4578"/>
<defs>
<linearGradient id="paint0_linear_1_5476" x1="24.7723" y1="32.5194" x2="41.9779" y2="32.5194" gradientUnits="userSpaceOnUse">
<stop stop-color="#C21500"/>
<stop offset="0.52" stop-color="#F37429"/>
<stop offset="1" stop-color="#FFD1B0"/>
</linearGradient>
<linearGradient id="paint1_linear_1_5476" x1="17.8223" y1="34.785" x2="62.9401" y2="34.785" gradientUnits="userSpaceOnUse">
<stop stop-color="#176AB4"/>
<stop offset="1" stop-color="#B1FFC7"/>
</linearGradient>
</defs>
</svg>
