<svg width="68" height="65" viewBox="0 0 68 65" fill="none" xmlns="http://www.w3.org/2000/svg">
<path d="M65.9946 26.9784C65.7167 25.1556 65.2756 23.3616 64.6764 21.6178C63.2271 17.3289 60.8634 13.406 57.7487 10.1205C57.3386 9.68116 56.9285 9.27107 56.4892 8.86097C51.7126 4.30461 45.6466 1.33297 39.1187 0.35151C38.042 0.17629 36.9566 0.0589521 35.8673 0L34.4026 0C33.4241 0.00444779 32.4465 0.0582189 31.4734 0.161109C30.7159 0.666797 29.9874 1.21444 29.2911 1.80149C28.9135 2.07375 28.5517 2.36714 28.2073 2.68026L27.8265 2.92925L27.68 3.03177C24.3897 5.92524 21.7022 9.43898 19.771 13.372C19.5074 13.8846 19.2731 14.4119 19.0387 14.9538L18.8483 15.3932C18.8402 15.4219 18.8402 15.4523 18.8483 15.4811C18.6306 15.9582 18.4399 16.4472 18.2771 16.9457C18.2039 17.1068 18.16 17.2826 18.1014 17.4437V17.5315C16.9496 20.948 16.3658 24.5301 16.3731 28.1354C16.3703 29.8422 16.5025 31.5464 16.7686 33.2323C16.7624 33.3054 16.7624 33.3789 16.7686 33.452C16.8711 34.1257 17.0029 34.8141 17.164 35.4732C17.164 35.5611 17.164 35.6489 17.164 35.7368C17.1796 35.8222 17.2041 35.9056 17.2372 35.9858C17.4759 37.0592 17.7841 38.116 18.16 39.1494C18.269 39.4927 18.3962 39.83 18.5408 40.16L18.6433 40.4529V40.5994C18.819 41.068 19.0241 41.5074 19.2291 41.9468C19.2291 42.0786 19.3609 42.2251 19.4195 42.3716C19.4742 42.4662 19.5231 42.564 19.566 42.6645L19.6539 42.8402C20.0303 43.6345 20.4508 44.4071 20.9134 45.1543C20.9618 45.2454 21.0156 45.3334 21.0746 45.418C21.1917 45.6377 21.3235 45.8281 21.4554 46.0478C21.7922 46.6043 22.173 47.1462 22.5538 47.6735L22.7589 47.9518C27.3991 54.2056 34.0757 58.6446 41.6379 60.5036C42.1505 60.6354 42.6631 60.7379 43.1904 60.8405H43.3954H43.6444C44.9896 61.0906 46.3497 61.2521 47.7161 61.3238H48.3458C48.9317 61.0162 49.5029 60.7086 50.0595 60.3571C50.6139 60.033 51.1516 59.6811 51.6705 59.3026L52.3296 58.8339L53.0473 58.2627C55.8112 56.0667 58.2734 53.5158 60.3704 50.676C62.8432 47.3019 64.6149 43.4665 65.5809 39.3964C66.5469 35.3262 66.6875 31.1038 65.9946 26.9784ZM33.436 2.75349C33.4949 2.62567 33.5823 2.51303 33.6915 2.42418C33.8006 2.33533 33.9286 2.27263 34.0658 2.24087H35.2961C36.3201 2.25845 37.3423 2.3367 38.3571 2.47521C43.98 3.25429 49.272 5.59335 53.6331 9.22713C52.7605 10.4419 51.7201 11.5268 50.5428 12.4493L50.2352 12.6543C49.1333 13.4481 47.8668 13.9837 46.5297 14.2215C45.0579 14.4402 43.6413 14.9373 42.3555 15.6861C41.3541 16.3136 40.5078 17.1598 39.8803 18.1613C39.3703 19.0178 38.9201 19.9084 38.5329 20.827C38.4157 21.0613 38.3132 21.281 38.2107 21.5153C38.0132 21.9599 37.7462 22.3703 37.4198 22.731H37.3465C37.2085 22.8696 37.0442 22.9791 36.8632 23.0532C36.5966 23.1711 36.3008 23.2068 36.0137 23.1557C35.4931 23.079 34.9942 22.8944 34.5491 22.6138C33.6383 22.1002 32.8654 21.3736 32.2966 20.4962C31.7278 19.6188 31.38 18.6166 31.283 17.5755C30.9284 13.8463 31.2862 10.0837 32.3375 6.48828C32.6451 5.18477 33.0259 3.96913 33.436 2.75349ZM51.3044 56.9446C50.5867 57.4572 49.8398 57.9405 49.0782 58.4092C48.9575 58.5042 48.8182 58.5728 48.6694 58.6107C48.5205 58.6485 48.3654 58.6547 48.214 58.6289C48.0079 58.5653 47.8248 58.4432 47.6868 58.2774C45.9439 56.4759 44.0984 54.7623 42.4288 52.9022C40.2904 50.5442 40.5248 47.9078 41.9894 45.3301C42.2862 44.8223 42.6139 44.3332 42.9707 43.8655C43.3823 43.311 43.8223 42.7782 44.2888 42.269C44.9017 41.6169 45.3972 40.8638 45.7535 40.0428C45.856 39.8231 45.9292 39.6034 46.0171 39.3837C46.4492 37.9011 46.4492 36.326 46.0171 34.8434C45.8706 34.3161 45.7388 33.7889 45.5924 33.2616C45.3096 32.4897 45.2546 31.6528 45.4337 30.8505C45.6129 30.0482 46.0187 29.3142 46.6029 28.7359C46.9729 28.3472 47.3913 28.0075 47.8479 27.7253L48.009 27.6082C49.4003 26.6845 51.0261 26.1765 52.6958 26.1435C53.1852 26.1291 53.6749 26.1536 54.1604 26.2168C54.7061 26.2661 55.2487 26.3444 55.7861 26.4511C56.3343 26.5761 56.8937 26.6448 57.4558 26.6562C59.4244 26.6665 61.3498 26.0792 62.9774 24.9718L63.3436 24.7668C63.9693 27.087 64.2748 29.4819 64.2517 31.8849C64.3429 38.4398 62.2852 44.8443 58.3932 50.1194C56.5352 52.5839 54.3186 54.7561 51.817 56.5638L51.3044 56.9446Z" fill="url(#paint0_linear_1_5489)"/>
<path d="M26.3621 22.746L26.8601 22.043C26.5797 22.7674 26.2055 23.4518 25.7469 24.0788C25.4394 24.5182 25.1318 24.9576 24.8535 25.397C24.8695 25.3052 24.8992 25.2163 24.9414 25.1333C25.367 24.31 25.8414 23.5128 26.3621 22.746Z" fill="url(#paint1_linear_1_5489)"/>
<path d="M30.3905 20.5043C30.1814 19.9115 30.015 19.3046 29.8925 18.6881C29.7518 17.9475 29.654 17.1992 29.5996 16.4473C30.17 16.935 30.5585 17.6013 30.7021 18.3379C30.8457 19.0745 30.7359 19.838 30.3905 20.5043Z" fill="url(#paint2_linear_1_5489)"/>
<path d="M58.0422 9.84227L57.6614 10.2524C57.3294 9.89109 56.9779 9.52494 56.6069 9.1539L56.475 9.32965L56.2846 9.62258C55.3145 10.8766 54.1471 11.9649 52.8281 12.8448C52.3152 12.9972 51.7913 13.1098 51.261 13.1816C49.9176 13.3668 48.6616 13.9539 47.658 14.8659C46.4228 15.0454 45.259 15.5552 44.2896 16.3415C43.3203 17.1278 42.5814 18.1614 42.151 19.333L41.7556 20.2704C41.7126 20.3444 41.6782 20.423 41.653 20.5047C41.5212 20.7977 41.3894 21.0906 41.243 21.3689C41.1999 21.4645 41.151 21.5575 41.0965 21.6471C41.0266 21.8069 40.9328 21.9551 40.8182 22.0865C40.5201 22.0497 40.226 21.986 39.9394 21.8961C39.5753 21.7748 39.2184 21.633 38.8703 21.4714L38.6945 21.3835C38.6406 21.371 38.5904 21.3459 38.548 21.3103C37.434 20.6975 36.4806 19.8302 35.7654 18.779C35.0502 17.7278 34.5935 16.5226 34.4325 15.2614C33.8573 11.6089 34.0569 7.8763 35.0183 4.30599C35.1208 3.77873 35.2526 3.26611 35.3845 2.73885C35.3845 2.59238 35.3845 2.44592 35.487 2.29946C35.6334 1.71361 35.7946 1.11311 35.9557 0.512618C35.9494 0.341609 35.9543 0.170371 35.9703 0L36.3072 0C37.44 0.0541259 38.5692 0.166563 39.6905 0.336863C46.6879 1.39696 53.1392 4.73849 58.0422 9.84227Z" fill="url(#paint3_linear_1_5489)"/>
<path d="M34.1841 30.4507C30.1114 30.2199 26.0625 31.2092 22.555 33.292C21.2866 33.7548 20.0614 34.3282 18.8935 35.0056C18.68 35.1217 18.4788 35.2591 18.293 35.4157C18.7092 33.9403 19.6457 32.6656 20.9293 31.8274L21.1929 31.6663C21.4273 31.5198 21.6762 31.388 21.9106 31.2708C25.8214 29.7478 30.1054 29.4615 34.1841 30.4507Z" fill="url(#paint4_linear_1_5489)"/>
<path d="M32.3972 39.0479C34.1899 36.3093 36.6494 34.0716 39.5446 32.5449L39.984 32.8378C40.1522 32.9335 40.2899 33.0748 40.3812 33.2455C40.4725 33.4161 40.5136 33.6091 40.4998 33.8021C40.4861 33.9951 40.4179 34.1803 40.3033 34.3363C40.1887 34.4922 40.0323 34.6125 39.8522 34.6833C39.4379 34.8877 39.0125 35.0686 38.578 35.2252C35.5472 36.4805 32.9183 38.5422 30.9766 41.1862L32.3972 39.0479Z" fill="url(#paint5_linear_1_5489)"/>
<path d="M43.7909 32.823C43.7259 32.2928 43.7259 31.7567 43.7909 31.2266C43.9152 31.3193 44.0161 31.4397 44.0856 31.5783C44.1551 31.7169 44.1913 31.8698 44.1913 32.0248C44.1913 32.1798 44.1551 32.3327 44.0856 32.4713C44.0161 32.6099 43.9152 32.7303 43.7909 32.823Z" fill="url(#paint6_linear_1_5489)"/>
<path d="M26.2604 44.5241C27.0161 44.5526 27.7663 44.3856 28.4386 44.0392C29.1108 43.6928 29.6823 43.1788 30.0977 42.5469C29.5997 43.3524 29.0871 44.1433 28.5452 44.9049C28.1237 45.4903 27.6318 46.0216 27.0805 46.4867C25.9386 46.6324 24.7783 46.5018 23.6973 46.1059C24.7113 45.8971 25.619 45.3369 26.2604 44.5241Z" fill="url(#paint7_linear_1_5489)"/>
<path d="M7.0583 32.5448C7.12809 33.3158 7.26034 34.0799 7.45375 34.8296C6.97652 35.7333 6.5984 36.686 6.32599 37.671C5.8866 36.6897 5.53509 35.6644 5.125 34.6538C5.62146 33.5803 6.22502 32.5597 6.92649 31.6074C7.00725 31.9136 7.0515 32.2282 7.0583 32.5448Z" fill="url(#paint8_linear_1_5489)"/>
<path d="M15.0702 41.0105C14.886 40.9264 14.7239 40.8005 14.5968 40.6429C14.4697 40.4853 14.381 40.3002 14.3379 40.1024C14.3379 39.7606 14.3379 39.4238 14.3379 39.0918L14.6015 39.3847C15.0556 39.8424 15.4765 40.3319 15.8611 40.8493C15.6259 40.9975 15.3447 41.0548 15.0702 41.0105Z" fill="url(#paint9_linear_1_5489)"/>
<path d="M16.9441 45.8873C16.9247 46.0319 16.8743 46.1706 16.7962 46.2939C16.7181 46.4172 16.6143 46.5221 16.4918 46.6014C16.3694 46.6807 16.2312 46.7326 16.0867 46.7535C15.9423 46.7743 15.7951 46.7636 15.6552 46.7221C15.516 46.6962 15.3823 46.6466 15.2598 46.5757C15.7131 45.4041 16.3083 44.2925 17.032 43.2656C17.2137 44.1339 17.1835 45.0332 16.9441 45.8873Z" fill="url(#paint10_linear_1_5489)"/>
<path d="M20.2402 42.7964L19.2736 43.9535C19.58 43.3071 19.9274 42.681 20.3134 42.0788C21.0641 40.9483 21.9172 39.8893 22.8619 38.9152C24.2199 37.5343 25.7805 36.3687 27.4901 35.4587H27.578C27.716 35.3818 27.8685 35.3344 28.0258 35.3195C28.1831 35.3046 28.3418 35.3225 28.4919 35.3721C28.6419 35.4216 28.78 35.5018 28.8975 35.6074C29.015 35.7131 29.1093 35.842 29.1744 35.9859C29.2563 36.1813 29.2792 36.3965 29.2401 36.6047C29.2011 36.8129 29.1019 37.0052 28.9547 37.1576L28.1638 37.597C25.4654 38.4992 23.0067 40.0015 20.9725 41.9909C20.8114 42.152 20.665 42.3278 20.5185 42.4889L20.2402 42.7964Z" fill="url(#paint11_linear_1_5489)"/>
<path d="M9.29957 48.3319C9.77025 49.1256 10.2836 49.8933 10.8374 50.6314C9.66658 50.7421 8.48758 50.5346 7.42485 50.0309H7.6299C7.08799 49.0203 6.51678 48.039 6.03346 46.9991C5.55013 45.9592 5.0961 44.7875 4.67136 43.6744C4.37843 42.9275 4.67136 42.3123 5.16933 42.0926C5.3782 42.0212 5.60489 42.0212 5.81376 42.0926C5.85608 43.348 6.03285 44.5951 6.34103 45.8128C6.55409 46.4646 6.94316 47.0448 7.46525 47.4893C7.98735 47.9339 8.62216 48.2255 9.29957 48.3319Z" fill="url(#paint12_linear_1_5489)"/>
<path d="M10.2516 41.2592C11.0322 43.4258 12.0697 45.491 13.342 47.4106C13.3489 47.4641 13.3489 47.5183 13.342 47.5717C13.3226 47.7164 13.2722 47.8551 13.1941 47.9784C13.1161 48.1016 13.0122 48.2065 12.8897 48.2859C12.7673 48.3652 12.6291 48.4171 12.4847 48.4379C12.3402 48.4587 12.193 48.448 12.0531 48.4066C11.9071 48.3902 11.7669 48.3402 11.6434 48.2606C11.5199 48.181 11.4165 48.0739 11.3413 47.9476C11.2661 47.8214 11.2212 47.6794 11.21 47.5329C11.1988 47.3864 11.2217 47.2393 11.2769 47.1031C11.4209 46.4601 11.4026 45.7914 11.2236 45.1573C11.0446 44.5232 10.7106 43.9436 10.2516 43.4708C9.57792 42.592 8.78702 41.7425 8.20117 40.8638C8.25728 40.7435 8.33865 40.6368 8.43976 40.5508C8.54086 40.4649 8.65931 40.4018 8.78702 40.3658C9.02198 40.2713 9.28437 40.2713 9.51933 40.3658C9.69559 40.4573 9.8514 40.5837 9.97729 40.7373C10.1032 40.8908 10.1965 41.0684 10.2516 41.2592Z" fill="url(#paint13_linear_1_5489)"/>
<path d="M17.0776 55.2169C16.1199 54.3543 15.2151 53.4348 14.3681 52.4634C14.2901 51.3321 14.3541 50.1955 14.5585 49.0801C15.1736 49.9003 15.8327 50.6765 16.5211 51.4381C16.5536 52.4221 16.6662 53.4017 16.8579 54.3674C16.9145 54.6546 16.9879 54.9382 17.0776 55.2169Z" fill="url(#paint14_linear_1_5489)"/>
<path d="M18.9364 44.7598C19.4426 45.2037 20.0225 45.5556 20.65 45.7996C20.4348 46.4583 20.278 47.1347 20.1814 47.8208C19.5172 47.5844 18.8791 47.2801 18.2773 46.9128C18.3672 46.4776 18.4797 46.0474 18.6142 45.6239C18.7022 45.329 18.8099 45.0403 18.9364 44.7598Z" fill="url(#paint15_linear_1_5489)"/>
<path d="M61.06 50.9987C58.963 53.8385 56.5008 56.3894 53.7369 58.5855C52.5106 59.6048 51.1916 60.507 49.7971 61.2804C49.5954 61.4117 49.3849 61.5292 49.1673 61.6319C48.8868 61.7929 48.5984 61.9395 48.3032 62.0713C45.2633 63.5056 42.0068 64.4261 38.6659 64.7955C36.2858 64.7955 33.9131 64.5302 31.5918 64.0046C34.2377 64.3224 36.9154 64.2632 39.5447 63.8288C41.185 63.5568 42.8011 63.1552 44.378 62.6278H44.5244C45.0224 62.4667 45.5057 62.2763 45.989 62.0859L46.6335 61.8077L46.3552 61.5147C46.8971 61.3683 47.4537 61.1925 47.9956 61.0168C48.5375 60.841 49.0794 60.636 49.6213 60.4309L50.2657 60.1526L50.0461 59.9329L49.8996 59.7718L48.8744 58.7173L45.4764 55.1583C45.3464 55.0135 45.2242 54.8619 45.1103 54.7042C43.9882 53.4594 43.2744 51.9007 43.0649 50.2379C42.8554 48.5752 43.1603 46.8881 43.9386 45.4039C44.1622 44.9005 44.4165 44.4114 44.7002 43.9393C44.7002 43.8074 44.8466 43.6903 44.9199 43.5585C45.305 42.9709 45.7206 42.4038 46.1648 41.8595C46.4284 41.5226 46.7067 41.2004 46.9996 40.8782L47.1315 40.7317C47.8157 39.9314 48.2352 38.9388 48.3324 37.8904C48.4001 37.1371 48.3307 36.3779 48.1274 35.6495C47.9224 34.8732 47.7466 34.1116 47.5269 33.35C47.2368 32.3155 47.2368 31.221 47.5269 30.1864C47.5721 30.0017 47.6309 29.8206 47.7027 29.6445C48.0418 28.8275 48.5396 28.0857 49.1673 27.4622C49.3271 27.2852 49.4983 27.1189 49.6799 26.9643C50.0262 26.6236 50.3984 26.3102 50.793 26.0269C52.0821 25.7182 53.4132 25.6241 54.7328 25.7486C56.2567 26.0032 57.8053 26.0769 59.3464 25.9683C60.6234 25.6122 61.8349 25.0534 62.9347 24.3133C63.7946 24.1324 64.6137 23.7948 65.3514 23.3174L65.6882 23.127C65.8347 23.537 65.9665 23.9471 66.0837 24.3719C66.2741 25.2067 66.4498 26.0562 66.5817 26.935C67.3401 31.1108 67.2417 35.3973 66.2926 39.534C65.3434 43.6707 63.5631 47.5713 61.06 50.9987Z" fill="url(#paint16_linear_1_5489)"/>
<path d="M66.5663 26.9639C66.4345 26.0852 66.2587 25.2357 66.0683 24.4009C65.8486 23.5367 65.6143 22.6872 65.336 21.8524C63.9438 17.5722 61.6403 13.6447 58.5841 10.3405C58.423 10.1647 58.2765 10.0036 58.1007 9.84249C53.1825 4.72732 46.7087 1.38487 39.6904 0.337081C38.5692 0.16678 37.4399 0.0543434 36.3072 0.000217508H35.443C34.3133 -0.00387909 33.184 0.0498942 32.0597 0.161326C31.3274 0.161326 30.5951 0.322435 29.8482 0.439605C27.8607 0.7771 25.9021 1.26675 23.9897 1.90423C23.4478 2.07998 22.9205 2.28503 22.3932 2.47543C18.3923 4.04288 14.769 6.44057 11.7622 9.51043C8.75547 12.5803 6.43356 16.2526 4.94956 20.2853C4.59805 21.1201 4.27583 21.9842 3.98291 22.863C3.55865 24.3042 3.23083 25.7721 3.00161 27.2569C2.96198 27.3819 2.94903 27.5139 2.96361 27.6442C2.97818 27.7746 3.01995 27.9004 3.08621 28.0136C3.15247 28.1268 3.24175 28.2248 3.34827 28.3014C3.4548 28.3779 3.5762 28.4312 3.70463 28.4579H3.88038C4.02226 28.4873 4.16868 28.4872 4.31052 28.4575C4.45235 28.4279 4.58655 28.3693 4.70474 28.2855C4.82292 28.2016 4.92257 28.0943 4.99745 27.9703C5.07233 27.8462 5.12084 27.7081 5.13996 27.5644C5.21319 27.2715 5.25713 26.9786 5.31571 26.6857C5.95989 23.2184 7.19865 19.8886 8.97727 16.8434C9.10305 16.6556 9.289 16.5161 9.50454 16.4479C9.59529 16.4207 9.69206 16.4207 9.78281 16.4479L11.8186 16.6383H12.1262C14.0888 16.8141 16.0514 17.0045 17.9847 17.356H18.2337L18.6438 17.4439L19.0392 17.5757C20.5983 17.9267 22.1228 18.4169 23.5942 19.0403C25.176 19.7141 25.3078 20.6221 24.3851 22.0575C23.8578 22.863 23.2427 23.5953 22.7154 24.3862C22.1798 25.1519 21.6907 25.9491 21.2508 26.7735C21.1719 26.899 21.122 27.0405 21.1047 27.1877C21.0874 27.3349 21.1032 27.4841 21.1509 27.6245C21.1986 27.7648 21.277 27.8927 21.3805 27.9989C21.4839 28.1051 21.6097 28.1868 21.7488 28.2382C21.8706 28.3124 22.0064 28.3608 22.1477 28.3803C22.2891 28.3998 22.4329 28.39 22.5703 28.3515C22.7076 28.313 22.8356 28.2467 22.9463 28.1567C23.0569 28.0666 23.1478 27.9548 23.2134 27.8281C23.7553 27.0225 24.2679 26.217 24.8245 25.4261C25.1028 24.9867 25.4104 24.5473 25.7179 24.1079C26.1764 23.4809 26.5507 22.7965 26.831 22.0721C27.7245 19.6994 26.6553 17.9565 23.5649 16.6969C22.3522 16.2036 21.0973 15.8212 19.8155 15.5545L19.4347 15.4666H19.0539C18.6584 15.3788 18.2337 15.3202 17.8236 15.247L15.7731 14.954C14.8944 14.8369 14.0156 14.749 13.0929 14.6465L10.7788 14.3096C12.6737 11.8671 14.9021 9.70274 17.3989 7.87989C19.4404 6.40528 21.666 5.20387 24.019 4.30621C25.3609 3.80187 26.736 3.39079 28.1346 3.07593H28.2664L28.8229 2.92947C29.7897 2.71107 30.7675 2.54484 31.7522 2.43149C31.2835 4.27692 30.8002 5.99053 30.4194 7.73343C29.7052 10.6052 29.4092 13.5649 29.5406 16.5212C29.5949 17.2732 29.6928 18.0214 29.8335 18.762C29.9784 19.3552 30.1644 19.9376 30.3901 20.505C30.7834 21.6605 31.4493 22.7044 32.3314 23.5482C33.2135 24.3921 34.2858 25.0111 35.4577 25.3529C35.9482 25.5295 36.4692 25.6062 36.9898 25.5785C37.5105 25.5509 38.0204 25.4194 38.4894 25.1917C39.0944 24.8957 39.6024 24.4333 39.9541 23.8589C40.0683 23.7242 40.1665 23.5768 40.247 23.4196C40.6027 22.7395 40.9205 22.0403 41.199 21.3251L41.2869 21.1054C41.3894 20.8858 41.4919 20.6661 41.6091 20.461C41.6343 20.3793 41.6687 20.3006 41.7116 20.2267C42.2159 19.2556 42.9486 18.4216 43.8467 17.7965C44.7448 17.1714 45.7813 16.7739 46.8671 16.6383C48.7107 16.36 50.4707 15.68 52.0226 14.6465C53.3363 13.7653 54.4987 12.6772 55.4644 11.4243C55.5816 11.2778 55.6695 11.1167 55.7866 10.9556C56.1577 11.3266 56.5092 11.6928 56.8412 12.0541C59.5722 14.9744 61.6933 18.41 63.0805 22.16C63.1081 22.2804 63.1065 22.4057 63.076 22.5254C63.0454 22.6452 62.9867 22.7559 62.9047 22.8484C61.8048 23.5884 60.5933 24.1472 59.3164 24.5034C57.7752 24.612 56.2267 24.5382 54.7028 24.2837C53.3832 24.1592 52.052 24.2532 50.763 24.562C48.748 25.0673 46.9251 26.1519 45.5196 27.6816C44.5555 28.6463 43.9376 29.9028 43.7621 31.2553C43.6971 31.7855 43.6971 32.3216 43.7621 32.8517C43.8034 33.0936 43.8571 33.3331 43.9232 33.5694C44.1429 34.331 44.3186 35.034 44.5237 35.8689C44.7333 36.5861 44.8127 37.3352 44.758 38.0804C44.6272 39.1235 44.177 40.1006 43.4692 40.8779C42.6625 41.7689 41.9233 42.7186 41.2576 43.7192C38.8995 47.4687 38.4894 51.1595 41.5066 54.8211C41.6205 54.9788 41.7427 55.1304 41.8727 55.2751C43.3373 56.8276 44.802 58.3655 46.3545 59.9473L46.662 60.2695L46.0176 60.5478C45.5196 60.7382 45.0363 60.9286 44.553 61.0897H44.4065L43.3666 61.4119C42.1225 61.7863 40.8553 62.0798 39.5733 62.2907C36.9063 62.7411 34.1884 62.8052 31.5032 62.4811C27.5537 61.9809 23.7333 60.7438 20.2402 58.8342C19.5009 58.4647 18.8437 57.9501 18.3077 57.321C17.7717 56.6919 17.3679 55.9612 17.1206 55.1726C17.0319 54.9036 16.9586 54.6297 16.9009 54.3524C16.7092 53.3868 16.5965 52.4071 16.564 51.4232C16.564 50.8666 16.564 50.3247 16.564 49.7681C16.5568 49.6804 16.5568 49.5922 16.564 49.5045C16.7599 48.4184 17.029 47.3468 17.3696 46.297L18.263 46.8828C18.8647 47.2502 19.5028 47.5545 20.167 47.7909C20.9628 48.067 21.7999 48.2057 22.6422 48.201C22.9201 48.2228 23.1992 48.2228 23.477 48.201C23.5987 48.2148 23.7215 48.2148 23.8432 48.201C25.0559 47.9773 26.1821 47.4193 27.0947 46.5899C27.6459 46.1247 28.1379 45.5935 28.5593 45.0081C29.1012 44.2465 29.6138 43.4556 30.1118 42.6501L30.229 42.4743C30.4047 42.1814 30.5951 41.9031 30.7855 41.6395L31.0345 41.288C32.9762 38.6439 35.6052 36.5823 38.6359 35.3269C39.0705 35.1703 39.4959 34.9894 39.9101 34.785C40.0902 34.7143 40.2466 34.5939 40.3613 34.438C40.4759 34.2821 40.544 34.0969 40.5578 33.9039C40.5716 33.7108 40.5304 33.5179 40.4392 33.3472C40.3479 33.1766 40.2102 33.0353 40.0419 32.9396L39.6026 32.6467L39.1339 32.3977C37.5735 31.6141 35.9335 31.0003 34.242 30.5669C30.1741 29.5793 25.9013 29.8604 21.9978 31.3725C20.5346 31.9199 19.123 32.5963 17.7797 33.3936H17.6625L17.3989 33.5547C17.1917 33.6847 16.9957 33.8316 16.813 33.9941C16.0751 34.6343 15.481 35.4232 15.0695 36.3092C14.6581 37.1952 14.4387 38.1582 14.4257 39.135C14.4257 39.4767 14.4257 39.8136 14.4257 40.1456C14.4688 40.3434 14.5575 40.5285 14.6846 40.6861C14.8117 40.8437 14.9738 40.9695 15.158 41.0536C15.4289 41.1067 15.7098 41.0599 15.9489 40.9218C16.0499 40.8654 16.1434 40.7965 16.2272 40.7168C16.419 40.4277 16.5021 40.08 16.4615 39.7355C16.4712 38.62 16.7797 37.5276 17.3549 36.5719C17.5045 36.3364 17.6761 36.1157 17.8675 35.9128C17.9689 35.7989 18.0818 35.6959 18.2044 35.6052L18.3802 35.4588C18.566 35.3022 18.7672 35.1648 18.9807 35.0487C20.1355 34.3836 21.3459 33.82 22.5983 33.3643C25.8317 32.1682 29.3276 31.8646 32.7188 32.4856C34.1145 32.7943 35.4931 33.1756 36.8491 33.628C36.6772 33.8767 36.4455 34.0782 36.1753 34.2138C33.2053 35.7404 30.6821 38.0113 28.8522 40.8046L26.7139 44.1C26.5999 44.2756 26.4726 44.4421 26.3331 44.598C25.6991 45.405 24.8027 45.9646 23.7993 46.1798C23.4153 46.2677 23.0203 46.2973 22.6276 46.2677H22.2028C21.8734 46.2312 21.5491 46.1575 21.2362 46.048C21.0591 46.0167 20.8867 45.9625 20.7236 45.8869C20.0961 45.6429 19.5161 45.2909 19.0099 44.847C18.9401 44.8014 18.8761 44.7472 18.8195 44.6859L19.3468 44.0415L19.8155 43.4703L20.3135 42.8844L20.5039 42.4743C20.6503 42.3132 20.7968 42.1374 20.9579 41.9763C22.992 39.987 25.4508 38.4847 28.1492 37.5825L28.3689 37.4946C28.5822 37.4196 28.777 37.2997 28.9401 37.1431C29.0872 36.9906 29.1865 36.7984 29.2255 36.5901C29.2646 36.3819 29.2417 36.1668 29.1598 35.9714C29.0947 35.8274 29.0004 35.6985 28.8829 35.5929C28.7654 35.4872 28.6273 35.4071 28.4772 35.3575C28.3272 35.308 28.1685 35.2901 28.0112 35.305C27.8539 35.3199 27.7014 35.3673 27.5633 35.4441H27.4755C24.5248 36.4983 21.8226 38.1485 19.5372 40.292L19.2296 40.5849L18.717 41.1269C18.1092 41.8005 17.5419 42.5097 17.0181 43.2506C16.2943 44.2774 15.6992 45.389 15.2459 46.5606C15.1451 46.7999 15.0571 47.0443 14.9822 47.2929C14.7912 47.8717 14.6443 48.4641 14.5428 49.0651C14.3385 50.1805 14.2745 51.3171 14.3524 52.4484C14.3524 52.7853 14.3524 53.1075 14.4696 53.4443C14.5868 53.7812 14.6014 54.2792 14.6893 54.909C14.3671 54.616 14.1474 54.4549 13.9716 54.2645C12.8442 53.1276 11.7969 51.914 10.8373 50.6323C10.2835 49.8941 9.77017 49.1265 9.29949 48.3328C8.22431 46.6214 7.33559 44.7998 6.64852 42.8991C6.58325 42.7083 6.47932 42.5332 6.34323 42.3845C6.20714 42.2358 6.04182 42.1168 5.85762 42.0349H5.76975C5.56087 41.9635 5.33419 41.9635 5.12531 42.0349C4.55411 42.2546 4.33442 42.8698 4.62734 43.6167C5.05208 44.7298 5.47682 45.8576 5.98944 46.9414C6.50206 48.0252 7.04397 48.9626 7.58588 49.9732H7.38083C6.41039 50.2251 5.38018 50.0932 4.50451 49.6049C3.62885 49.1166 2.97515 48.3095 2.67939 47.3515C2.13225 45.4212 1.97995 43.4003 2.2316 41.4097C2.48325 39.4192 3.13368 37.4998 4.14401 35.7663L4.72986 34.8583C4.84703 34.6972 4.9935 34.5653 5.02279 34.5214V34.5946C5.43288 35.6052 5.78439 36.6305 6.22378 37.6118C6.42632 38.1146 6.66115 38.6038 6.9268 39.0764C7.29628 39.699 7.70731 40.2959 8.15708 40.8632C8.81616 41.742 9.53383 42.5915 10.2076 43.4703C10.6537 43.9501 10.9741 44.5329 11.1403 45.1667C11.3064 45.8005 11.313 46.4655 11.1596 47.1025C11.1044 47.2387 11.0815 47.3858 11.0927 47.5323C11.1038 47.6789 11.1488 47.8208 11.224 47.9471C11.2991 48.0733 11.4025 48.1804 11.526 48.2601C11.6495 48.3397 11.7898 48.3897 11.9358 48.406C12.0757 48.4475 12.2229 48.4582 12.3673 48.4374C12.5118 48.4165 12.65 48.3646 12.7724 48.2853C12.8949 48.206 12.9987 48.1011 13.0768 47.9778C13.1549 47.8545 13.2053 47.7158 13.2247 47.5712C13.2316 47.5177 13.2316 47.4636 13.2247 47.4101C13.5488 46.3531 13.5334 45.2211 13.1807 44.1733C13.0794 43.9193 12.9569 43.6744 12.8146 43.441L12.5949 43.1041C12.1126 42.3655 11.574 41.6653 10.9838 41.0097C8.72879 38.7079 7.34161 35.6954 7.05862 32.4856C7.05181 32.169 7.00756 31.8544 6.9268 31.5482C6.88257 31.3823 6.79361 31.2317 6.66964 31.1129C6.54566 30.9941 6.39143 30.9116 6.22378 30.8745C5.43288 30.6401 5.03743 31.2406 4.5834 31.6947C4.41741 31.8509 4.27095 32.012 4.14401 32.178L3.80715 32.5881C2.25282 34.4891 1.12749 36.7034 0.508168 39.0796C-0.111154 41.4558 -0.209853 43.9377 0.218823 46.3556C0.218823 46.5753 0.218823 46.7949 0.321346 47.0146C0.520452 48.3252 1.11884 49.5424 2.03496 50.5004C2.33725 50.7994 2.6712 51.0646 3.0309 51.2913C3.81949 51.7905 4.70117 52.1245 5.62257 52.273C6.54397 52.4215 7.48592 52.3815 8.39142 52.1555C8.58963 52.0907 8.8041 52.0961 8.9988 52.1707C9.1935 52.2454 9.35657 52.3848 9.4606 52.5656C11.8162 55.6555 14.7328 58.2741 18.0579 60.2841C23.7349 63.7237 30.3264 65.3486 36.9516 64.9416L38.5334 64.8098C41.8742 64.4404 45.1308 63.5199 48.1706 62.0856H48.2585C48.5245 61.9685 48.7836 61.8365 49.0347 61.6902C49.2524 61.5874 49.4628 61.47 49.6645 61.3387C50.4101 60.9491 51.1338 60.5188 51.8322 60.0498L52.4912 59.5811C52.9306 59.2735 53.37 58.9367 53.7948 58.5998C56.5586 56.4037 59.0209 53.8528 61.1179 51.0131C63.6064 47.5819 65.3724 43.6812 66.309 39.5474C67.2455 35.4135 67.333 31.1326 66.5663 26.9639ZM40.4374 18.1762C39.8335 19.2205 39.2954 20.3016 38.8263 21.413C38.8211 21.4519 38.8211 21.4913 38.8263 21.5302C38.621 22.0099 38.328 22.447 37.9622 22.8191C37.8797 22.9045 37.7861 22.9784 37.6839 23.0387L37.4496 23.1559C37.3193 23.2122 37.1808 23.2468 37.0395 23.2584C36.3566 23.285 35.6835 23.0898 35.1208 22.7019C34.1984 22.1801 33.4182 21.4397 32.8487 20.546C32.2792 19.6522 31.9379 18.6322 31.8547 17.5757C31.5001 13.8465 31.8579 10.0839 32.9092 6.4885C33.2168 5.24357 33.5976 4.02793 34.0077 2.8123V2.70977C34.0718 2.60475 34.157 2.51412 34.2578 2.44355C34.3586 2.37298 34.4729 2.324 34.5935 2.29968H35.9117C36.8918 2.331 37.8696 2.41411 38.841 2.54866C44.4787 3.29525 49.7953 5.60352 54.1902 9.2127C53.202 10.6371 51.961 11.8683 50.5286 12.845L50.2211 13.05C49.2605 13.6227 48.2032 14.0149 47.1014 14.2071C45.3858 14.4536 43.7538 15.1064 42.3414 16.1111C41.5888 16.6863 40.9441 17.3905 40.4374 18.1908V18.1762ZM51.8761 56.8862L51.2903 57.2963L49.9135 58.1897L49.6059 58.3801C49.4639 58.4713 49.3115 58.545 49.1519 58.5998H48.9029C48.6324 58.5679 48.3853 58.4312 48.2145 58.219C46.4716 56.4175 44.6262 54.7039 42.9565 52.8438C40.8035 50.5297 41.0086 47.8934 42.4732 45.3157C43.0848 44.2656 43.8065 43.2836 44.6262 42.3864L44.7727 42.2107C45.3075 41.6476 45.7521 41.0054 46.0908 40.3067C46.1503 40.2023 46.2041 40.0947 46.2519 39.9844C46.9392 38.3284 47.0272 36.4844 46.5009 34.7704C46.3545 34.2431 46.2227 33.7159 46.0762 33.1886C45.7526 32.2854 45.7334 31.3012 46.0217 30.3862C46.3099 29.4711 46.8898 28.6756 47.6726 28.121L47.8337 28.0038C48.3574 27.6076 48.9221 27.2688 49.5181 26.9932C50.7663 26.4045 52.1373 26.1232 53.5165 26.173H54.5124C55.0581 26.2224 55.6008 26.3006 56.1382 26.4074C56.8203 26.5611 57.5189 26.6299 58.2179 26.6124C60.1022 26.5518 61.9306 25.9576 63.4906 24.8988L63.93 24.6352V24.8402C64.5267 27.0954 64.8173 29.4206 64.7941 31.7533C64.8853 38.3082 62.8276 44.7127 58.9356 49.9878C56.9661 52.6539 54.5828 54.9877 51.8761 56.9009V56.8862Z" fill="#0C4578"/>
<defs>
<linearGradient id="paint0_linear_1_5489" x1="16.3145" y1="30.845" x2="66.434" y2="30.845" gradientUnits="userSpaceOnUse">
<stop stop-color="#176AB4"/>
<stop offset="1" stop-color="#B1FFC7"/>
</linearGradient>
<linearGradient id="paint1_linear_1_5489" x1="24.8096" y1="23.7126" x2="26.8161" y2="23.7126" gradientUnits="userSpaceOnUse">
<stop stop-color="#C21500"/>
<stop offset="0.52" stop-color="#F37429"/>
<stop offset="1" stop-color="#FFD1B0"/>
</linearGradient>
<linearGradient id="paint2_linear_1_5489" x1="29.5996" y1="18.4684" x2="30.742" y2="18.4684" gradientUnits="userSpaceOnUse">
<stop stop-color="#C21500"/>
<stop offset="0.52" stop-color="#F37429"/>
<stop offset="1" stop-color="#FFD1B0"/>
</linearGradient>
<linearGradient id="paint3_linear_1_5489" x1="33.9784" y1="11.0286" x2="58.0422" y2="11.0286" gradientUnits="userSpaceOnUse">
<stop stop-color="#C21500"/>
<stop offset="0.52" stop-color="#F37429"/>
<stop offset="1" stop-color="#FFD1B0"/>
</linearGradient>
<linearGradient id="paint4_linear_1_5489" x1="18.293" y1="32.6476" x2="34.1841" y2="32.6476" gradientUnits="userSpaceOnUse">
<stop stop-color="#C21500"/>
<stop offset="0.52" stop-color="#F37429"/>
<stop offset="1" stop-color="#FFD1B0"/>
</linearGradient>
<linearGradient id="paint5_linear_1_5489" x1="31.0205" y1="36.8656" x2="40.5552" y2="36.8656" gradientUnits="userSpaceOnUse">
<stop stop-color="#C21500"/>
<stop offset="0.52" stop-color="#F37429"/>
<stop offset="1" stop-color="#FFD1B0"/>
</linearGradient>
<linearGradient id="paint6_linear_1_5489" x1="43.7177" y1="32.0175" x2="44.1717" y2="32.0175" gradientUnits="userSpaceOnUse">
<stop stop-color="#C21500"/>
<stop offset="0.52" stop-color="#F37429"/>
<stop offset="1" stop-color="#FFD1B0"/>
</linearGradient>
<linearGradient id="paint7_linear_1_5489" x1="23.7266" y1="44.5534" x2="30.0977" y2="44.5534" gradientUnits="userSpaceOnUse">
<stop stop-color="#C21500"/>
<stop offset="0.52" stop-color="#F37429"/>
<stop offset="1" stop-color="#FFD1B0"/>
</linearGradient>
<linearGradient id="paint8_linear_1_5489" x1="5.125" y1="34.6392" x2="7.45375" y2="34.6392" gradientUnits="userSpaceOnUse">
<stop stop-color="#C21500"/>
<stop offset="0.52" stop-color="#F37429"/>
<stop offset="1" stop-color="#FFD1B0"/>
</linearGradient>
<linearGradient id="paint9_linear_1_5489" x1="14.3379" y1="40.0584" x2="15.8611" y2="40.0584" gradientUnits="userSpaceOnUse">
<stop stop-color="#C21500"/>
<stop offset="0.52" stop-color="#F37429"/>
<stop offset="1" stop-color="#FFD1B0"/>
</linearGradient>
<linearGradient id="paint10_linear_1_5489" x1="15.2598" y1="45.0085" x2="17.1491" y2="45.0085" gradientUnits="userSpaceOnUse">
<stop stop-color="#C21500"/>
<stop offset="0.52" stop-color="#F37429"/>
<stop offset="1" stop-color="#FFD1B0"/>
</linearGradient>
<linearGradient id="paint11_linear_1_5489" x1="19.2736" y1="39.6182" x2="29.2769" y2="39.6182" gradientUnits="userSpaceOnUse">
<stop stop-color="#C21500"/>
<stop offset="0.52" stop-color="#F37429"/>
<stop offset="1" stop-color="#FFD1B0"/>
</linearGradient>
<linearGradient id="paint12_linear_1_5489" x1="4.53954" y1="46.3107" x2="10.8374" y2="46.3107" gradientUnits="userSpaceOnUse">
<stop stop-color="#C21500"/>
<stop offset="0.52" stop-color="#F37429"/>
<stop offset="1" stop-color="#FFD1B0"/>
</linearGradient>
<linearGradient id="paint13_linear_1_5489" x1="8.25976" y1="44.3642" x2="13.3566" y2="44.3642" gradientUnits="userSpaceOnUse">
<stop stop-color="#C21500"/>
<stop offset="0.52" stop-color="#F37429"/>
<stop offset="1" stop-color="#FFD1B0"/>
</linearGradient>
<linearGradient id="paint14_linear_1_5489" x1="14.3388" y1="52.1558" x2="17.0776" y2="52.1558" gradientUnits="userSpaceOnUse">
<stop stop-color="#C21500"/>
<stop offset="0.52" stop-color="#F37429"/>
<stop offset="1" stop-color="#FFD1B0"/>
</linearGradient>
<linearGradient id="paint15_linear_1_5489" x1="18.2773" y1="46.283" x2="20.65" y2="46.283" gradientUnits="userSpaceOnUse">
<stop stop-color="#C21500"/>
<stop offset="0.52" stop-color="#F37429"/>
<stop offset="1" stop-color="#FFD1B0"/>
</linearGradient>
<linearGradient id="paint16_linear_1_5489" x1="31.46" y1="43.9539" x2="67.021" y2="43.9539" gradientUnits="userSpaceOnUse">
<stop stop-color="#C21500"/>
<stop offset="0.52" stop-color="#F37429"/>
<stop offset="1" stop-color="#FFD1B0"/>
</linearGradient>
</defs>
</svg>
