<svg width="60" height="60" viewBox="0 0 60 60" fill="none" xmlns="http://www.w3.org/2000/svg">
<g clip-path="url(#clip0_469_18248)">
<path d="M28.3209 20.7001C28.2338 20.6146 28.1659 20.5115 28.122 20.3977C28.078 20.2838 28.0589 20.1619 28.0659 20.0401C28.0449 19.794 28.121 19.5495 28.278 19.3589C28.435 19.1682 28.6604 19.0466 28.9059 19.0201C29.6653 18.9751 30.4266 18.9751 31.1859 19.0201C31.4326 19.0466 31.6595 19.1677 31.8189 19.3579C31.9783 19.548 32.0579 19.7925 32.0409 20.0401C32.0376 20.286 31.9415 20.5216 31.7718 20.6996C31.6021 20.8776 31.3714 20.985 31.1259 21.0001H30.0009C29.6559 21.0001 29.2959 21.0001 28.9509 21.0001C28.8311 20.9954 28.7134 20.9664 28.6051 20.9148C28.4968 20.8632 28.4001 20.7902 28.3209 20.7001Z" fill="url(#paint0_linear_469_18248)"/>
<path d="M28.0655 24.1791C27.9605 23.4891 28.4255 22.9941 29.2205 22.9941H37.8305C38.5505 22.9941 39.0155 23.3841 39.0455 23.9841C39.0755 24.5841 38.5955 25.0041 37.8305 25.0041H29.2205C28.5005 25.0041 28.1405 24.7041 28.0655 24.1791Z" fill="url(#paint1_linear_469_18248)"/>
<path d="M28.1848 16.5009C28.1108 16.3517 28.0723 16.1874 28.0723 16.0209C28.0723 15.8544 28.1108 15.6901 28.1848 15.5409C28.2931 15.4076 28.4254 15.2957 28.5748 15.2109C28.728 15.0955 28.9092 15.023 29.0998 15.0009C33.0448 15.0009 37.0048 15.0009 40.9648 15.0009C41.101 14.9905 41.2378 15.0085 41.3667 15.0536C41.4956 15.0987 41.6138 15.17 41.7138 15.2629C41.8139 15.3559 41.8936 15.4686 41.9479 15.5939C42.0023 15.7192 42.0302 15.8543 42.0298 15.9909C42.03 16.1281 42.0022 16.2639 41.948 16.3899C41.8938 16.5159 41.8143 16.6295 41.7146 16.7236C41.6148 16.8178 41.4968 16.8905 41.3678 16.9373C41.2389 16.9842 41.1017 17.0041 40.9648 16.9959H34.9648C33.0148 16.9959 31.0648 16.9959 29.1298 16.9959C28.946 16.9654 28.7686 16.9046 28.6048 16.8159C28.4474 16.7364 28.3052 16.6298 28.1848 16.5009Z" fill="url(#paint2_linear_469_18248)"/>
<path d="M42.0002 20.0255C41.9989 20.1636 41.9687 20.2998 41.9116 20.4256C41.8545 20.5513 41.7717 20.6636 41.6686 20.7555C41.5654 20.8473 41.4443 20.9165 41.3128 20.9587C41.1813 21.0009 41.0425 21.0152 40.9052 21.0005H35.1602C34.4552 21.0005 34.0352 20.5955 34.0352 20.0105C34.0344 19.8692 34.0634 19.7293 34.1204 19.6C34.1773 19.4707 34.2609 19.3548 34.3656 19.26C34.4704 19.1652 34.5939 19.0935 34.7283 19.0496C34.8626 19.0058 35.0046 18.9907 35.1452 19.0055H40.9352C41.0739 18.9949 41.2133 19.0136 41.3443 19.0605C41.4753 19.1074 41.595 19.1814 41.6955 19.2776C41.796 19.3739 41.8751 19.4902 41.9275 19.6191C41.98 19.748 42.0048 19.8864 42.0002 20.0255Z" fill="url(#paint3_linear_469_18248)"/>
<path d="M57.54 51.1506C54.84 48.4806 52.155 45.7806 49.47 43.0806C49.32 42.9456 49.185 42.7806 49.035 42.6306L49.32 42.1956C51.3555 39.2013 52.7705 35.8295 53.4813 32.2792C54.1922 28.729 54.1846 25.0723 53.4589 21.5251C52.7333 17.9779 51.3043 14.612 49.2563 11.6262C47.2083 8.64032 44.5829 6.09505 41.535 4.14062C40.4251 4.24612 39.3229 4.42147 38.235 4.66562C37.2218 4.87816 36.2205 5.14352 35.235 5.46063C32.0835 6.50389 29.128 8.06529 26.49 10.0806C25.7019 10.6745 24.9505 11.3157 24.24 12.0006C23.2021 12.9759 22.2347 14.0235 21.345 15.1356C20.85 15.7356 20.385 16.3806 19.935 17.0256C21.2208 17.0057 22.4939 17.2829 23.655 17.8356C23.82 17.9106 24.03 18.1206 24.03 18.2706C24.03 20.2506 24.03 22.2306 24.03 24.2706L23.88 24.4056C23.1 23.9556 22.29 23.5356 21.555 23.0106C21.39 22.9056 21.24 22.8006 21.09 22.7256C20.6956 22.4944 20.2369 22.3971 19.7825 22.4485C19.3282 22.4999 18.9028 22.6971 18.57 23.0106C17.9027 23.5152 17.1713 23.9289 16.395 24.2406C16.135 25.0106 15.91 25.7906 15.72 26.5806C17.2411 26.1727 18.6713 25.4805 19.935 24.5406L22.545 25.8906L24.045 26.6406C24.0481 26.9819 24.0732 27.3226 24.12 27.6606C24.268 28.3172 24.6325 28.9049 25.1548 29.3293C25.6772 29.7537 26.327 29.9902 27 30.0006C27.675 30.0006 28.335 30.0006 29.055 30.0006C29.0716 30.237 28.9942 30.4704 28.8398 30.6502C28.6853 30.8299 28.4662 30.9415 28.23 30.9606C27.315 31.1406 27.135 31.3806 27.06 32.3256C27.0665 33.2064 26.8598 34.0757 26.4575 34.8593C26.0553 35.6429 25.4695 36.3175 24.75 36.8256C23.775 37.4556 22.77 38.0556 21.75 38.5956C21.2436 38.8534 20.6832 38.987 20.115 38.9856C19.5498 38.9761 18.9929 38.8484 18.48 38.6106C17.2144 38.1029 16.0392 37.3937 15 36.5106C15.105 37.5156 15.255 38.4906 15.45 39.5106C15.5598 39.5434 15.6655 39.5887 15.765 39.6456C16.562 40.1271 17.4195 40.5003 18.315 40.7556C18.615 40.8456 18.93 40.9056 19.23 40.9656C20.511 41.1084 21.8061 40.8847 22.965 40.3206C23.3512 40.1851 23.7152 39.993 24.045 39.7506C24.231 39.6005 24.458 39.5102 24.6962 39.4915C24.9345 39.4727 25.1728 39.5265 25.38 39.6456C26.737 40.2099 27.8983 41.1604 28.7197 42.3792C29.5411 43.5979 29.9863 45.031 30 46.5006C30 47.8506 30 47.8806 28.68 48.0006C24.8193 48.3495 20.9389 47.5953 17.49 45.8256C17.9357 46.779 18.4366 47.7055 18.99 48.6006C19.5242 49.5182 20.1101 50.4046 20.745 51.2556C21.3901 52.1262 22.0863 52.9577 22.83 53.7456H22.95C27.8216 54.5577 32.8241 53.9376 37.35 51.9606C39.18 51.1806 40.92 50.1606 42.69 49.2306L42.765 48.9906C42.8565 49.1881 42.9779 49.3702 43.125 49.5306C45.9 52.3356 48.69 55.0956 51.465 57.9156C52.3264 58.9169 53.4638 59.6421 54.735 60.0006H56.37C56.64 59.8956 56.91 59.8056 57.165 59.6856C57.7704 59.457 58.3181 59.0979 58.7691 58.6339C59.2202 58.1699 59.5636 57.6123 59.775 57.0006L60 56.4156V54.6156C59.5069 53.2602 58.657 52.0631 57.54 51.1506ZM27.285 28.0056C26.415 28.0056 26.055 27.6306 26.055 26.7456V13.2456C26.055 12.3306 26.385 11.9856 27.285 11.9856H41.205C41.5277 12.0024 41.8348 12.1295 42.075 12.3456C44.01 14.2956 44.01 14.3106 44.01 17.0406V26.5956C44.01 27.6606 43.695 27.9606 42.6 27.9606H37.275C37.0368 27.9586 36.8008 28.0055 36.5815 28.0983C36.3622 28.1912 36.1642 28.3281 36 28.5006C34.755 29.5806 33.51 30.6306 32.235 31.6506C31.9658 31.8091 31.6716 31.9207 31.365 31.9806C31.2386 31.7019 31.143 31.4101 31.08 31.1106C31.08 30.4806 31.08 29.8506 31.08 29.2356C31.103 29.0733 31.0877 28.9079 31.0353 28.7526C30.9829 28.5973 30.8948 28.4564 30.7782 28.3412C30.6615 28.226 30.5195 28.1397 30.3636 28.0893C30.2076 28.0388 30.042 28.0256 29.88 28.0506L27.285 28.0056Z" fill="url(#paint4_linear_469_18248)"/>
<path d="M2.08458 26.8794C2.04016 33.2978 4.48046 39.4846 8.89458 44.1444C7.8317 44.1289 6.77438 43.9879 5.74458 43.7244C3.31842 40.6381 1.6073 37.0519 0.734576 33.2244C-0.428661 28.3059 -0.210643 23.1618 1.36458 18.3594C2.25819 17.75 3.21965 17.2466 4.22958 16.8594C2.82215 20.0128 2.09143 23.4262 2.08458 26.8794Z" fill="url(#paint5_linear_469_18248)"/>
<path d="M23.219 30.0759C23.2289 33.3301 22.1044 36.4861 20.039 39.0009C19.5332 39.6217 18.9707 40.1941 18.359 40.7109C17.0359 41.8589 15.5096 42.7493 13.859 43.3359C13.0991 43.6109 12.3159 43.8168 11.519 43.9509C8.037 40.787 5.63436 36.6112 4.649 32.0109C3.4778 26.6608 4.22653 21.0693 6.764 16.2159C7.55152 16.0777 8.34946 16.0075 9.149 16.0059C6.9038 19.6373 5.85452 23.8816 6.149 28.1409C6.3474 32.2012 7.74648 36.1113 10.169 39.3759L10.484 39.7959C10.4909 39.8305 10.4909 39.8662 10.484 39.9009L13.349 37.8159L13.169 37.6059C12.0046 36.4872 11.2852 34.9844 11.144 33.3759C11.1328 33.2249 11.0809 33.0798 10.994 32.9559C10.9039 32.8379 10.7852 32.745 10.649 32.6859C10.2129 32.4903 9.83925 32.1782 9.56928 31.7838C9.2993 31.3894 9.14348 30.9282 9.119 30.4509C9.00888 28.4057 9.04899 26.3552 9.239 24.3159C9.43034 22.7981 9.95101 21.3405 10.7646 20.045C11.5781 18.7495 12.665 17.6474 13.949 16.8159C14.7251 17.0953 15.4734 17.4469 16.184 17.8659C18.1895 19.0229 19.8793 20.6559 21.104 22.6209C21.7393 23.6062 22.2436 24.6702 22.604 25.7859C23.0332 27.1747 23.2407 28.6224 23.219 30.0759Z" fill="url(#paint6_linear_469_18248)"/>
<path d="M57.5388 51.15C54.8388 48.48 52.1538 45.78 49.4688 43.08C49.3188 42.945 49.1838 42.78 49.0338 42.63L49.3188 42.195C51.3543 39.2006 52.7693 35.8288 53.4801 32.2786C54.191 28.7284 54.1834 25.0717 53.4577 21.5245C52.732 17.9773 51.3031 14.6114 49.2551 11.6255C47.2071 8.63969 44.5817 6.09443 41.5338 4.14C38.9175 2.46713 36.0291 1.26406 32.9988 0.585C31.9788 0.36 30.9588 0.195 29.9988 0H24.1488L23.8788 0.105C21.4801 0.370725 19.1315 0.976813 16.9038 1.905C13.2864 3.37363 10.0305 5.6093 7.36058 8.45787C4.69069 11.3064 2.67033 14.7001 1.43879 18.405C-0.136424 23.2074 -0.354442 28.3516 0.808795 33.27C1.68152 37.0975 3.39264 40.6837 5.81879 43.77C10.0663 49.1163 16.1715 52.667 22.9188 53.715H23.0388C27.9104 54.527 32.9129 53.9069 37.4388 51.93C39.2688 51.15 41.0088 50.13 42.7788 49.2L42.8538 48.96C42.9453 49.1574 43.0667 49.3396 43.2138 49.5C45.9888 52.305 48.7788 55.065 51.5538 57.885C52.3869 58.8827 53.4916 59.6174 54.7338 60H56.3688C56.6388 59.895 56.9088 59.805 57.1638 59.685C57.7692 59.4564 58.3168 59.0973 58.7679 58.6333C59.219 58.1692 59.5624 57.6116 59.7738 57L59.9988 56.415V54.615C59.5057 53.2596 58.6558 52.0625 57.5388 51.15ZM26.9988 51.975C24.8789 51.9723 22.7676 51.7052 20.7138 51.18C15.3506 49.774 10.6083 46.6224 7.23489 42.2223C3.86152 37.8223 2.04917 32.4243 2.08379 26.88C2.09484 23.4369 2.82546 20.0341 4.22879 16.89C6.19388 12.4494 9.40871 8.67661 13.4812 6.03175C17.5537 3.3869 22.3078 1.98429 27.1638 1.995C31.012 2.00526 34.804 2.91985 38.2338 4.665C43.2561 7.19394 47.2787 11.3428 49.6512 16.4408C52.0238 21.5388 52.6077 27.288 51.3085 32.759C50.0093 38.2299 46.9029 43.1027 42.4916 46.5897C38.0803 50.0767 32.6219 51.9741 26.9988 51.975ZM57.8988 55.89C57.8315 56.3244 57.6503 56.7333 57.3738 57.075C57.0937 57.4173 56.7254 57.6766 56.3088 57.825C55.8968 57.9774 55.4519 58.0188 55.0188 57.945C54.5867 57.8575 54.184 57.6613 53.8488 57.375C53.6833 57.2417 53.5278 57.0963 53.3838 56.94L44.6988 48.195C44.6144 48.1075 44.5185 48.0318 44.4138 47.97L47.9088 44.46L47.7888 44.295L48.1188 44.595L57.1188 53.595C57.4371 53.8782 57.6793 54.2366 57.8234 54.6375C57.9675 55.0384 58.0089 55.469 57.9438 55.89H57.8988Z" fill="#0C4578"/>
<path d="M49.604 22.6642C48.8595 18.8128 47.1489 15.2137 44.6329 12.2044C42.1168 9.19505 38.8775 6.87408 35.219 5.45916C33.9486 4.9838 32.6384 4.62237 31.304 4.37916C31.0431 4.31867 30.7689 4.36168 30.539 4.49916C30.3155 4.64202 30.1505 4.86019 30.074 5.11416C30.0401 5.24221 30.0319 5.37568 30.0498 5.50692C30.0677 5.63816 30.1113 5.76456 30.1783 5.87887C30.2452 5.99317 30.334 6.09312 30.4397 6.17298C30.5454 6.25283 30.6658 6.311 30.794 6.34416L31.139 6.43416L32.069 6.70416C33.089 6.98916 34.094 7.27416 35.069 7.63416C36.5393 8.17197 37.9009 8.96965 39.089 9.98916H38.459C34.769 9.98916 31.079 9.98916 27.404 9.98916C27.0859 9.98623 26.7687 10.0215 26.459 10.0942C25.9571 10.1958 25.4897 10.4243 25.1011 10.7577C24.7125 11.0912 24.4157 11.5186 24.239 11.9992C24.0779 12.4456 24.0115 12.9207 24.044 13.3942C24.044 14.1592 24.044 14.8942 24.044 15.7642L23.579 15.6292C22.8559 15.3774 22.1058 15.2112 21.344 15.1342C20.1696 14.984 18.9785 15.0296 17.819 15.2692C15.626 15.7089 13.6233 16.8178 12.0867 18.443C10.5501 20.0683 9.55519 22.13 9.239 24.3442C9.04898 26.3835 9.00888 28.434 9.119 30.4792C9.14881 30.963 9.31356 31.4289 9.59458 31.8239C9.8756 32.2189 10.2617 32.5273 10.709 32.7142C10.8451 32.7733 10.9639 32.8662 11.054 32.9842C11.1409 33.1081 11.1928 33.2532 11.204 33.4042C11.3452 35.0127 12.0646 36.5155 13.229 37.6342L13.409 37.8442L10.499 39.8992C10.5059 39.8645 10.5059 39.8288 10.499 39.7942L10.184 39.3742C7.76148 36.1096 6.3624 32.1995 6.164 28.1392C5.86952 23.8799 6.9188 19.6356 9.164 16.0042C9.89606 14.8351 10.74 13.7399 11.684 12.7342C13.6059 10.6205 15.9467 8.93006 18.5576 7.77053C21.1685 6.61099 23.9922 6.00774 26.849 5.99916C27.644 5.99916 28.064 5.59416 28.049 4.94916C28.0439 4.801 28.0061 4.65579 27.9384 4.52394C27.8706 4.3921 27.7744 4.27689 27.6569 4.18657C27.5393 4.09625 27.4032 4.03305 27.2584 4.00152C27.1135 3.96998 26.9635 3.97088 26.819 4.00416C25.0753 4.10703 23.341 4.33259 21.629 4.67916C18.4735 5.4343 15.5154 6.8538 12.952 8.84292C10.3887 10.832 8.27907 13.345 6.764 16.2142C4.22653 21.0676 3.4778 26.6591 4.649 32.0092C5.63495 36.6367 8.05462 40.8357 11.564 44.0092C13.7534 45.9931 16.2981 47.5454 19.064 48.5842C23.4517 50.2679 28.2565 50.5354 32.804 49.3492C38.4795 47.883 43.3801 44.3034 46.5031 39.3428C49.6261 34.3822 50.7354 28.4157 49.604 22.6642ZM27.284 11.9992H41.204C41.5267 12.0159 41.8338 12.143 42.074 12.3592C44.009 14.3092 44.009 14.3242 44.009 17.0542V26.6092C44.009 27.6742 43.694 27.9742 42.599 27.9742H37.274C37.0369 27.9702 36.8015 28.0147 36.5823 28.105C36.363 28.1953 36.1645 28.3294 35.999 28.4992C34.754 29.5792 33.509 30.6292 32.234 31.6492C31.9648 31.8076 31.6706 31.9192 31.364 31.9792C31.2376 31.7004 31.142 31.4087 31.079 31.1092C31.079 30.4792 31.079 29.8492 31.079 29.2342C31.102 29.0719 31.0867 28.9064 31.0343 28.7511C30.9819 28.5958 30.8938 28.4549 30.7772 28.3397C30.6605 28.2245 30.5185 28.1383 30.3626 28.0878C30.2066 28.0374 30.041 28.0241 29.879 28.0492H27.284C26.414 28.0492 26.054 27.6742 26.054 26.7892V13.2892C26.054 12.3592 26.384 11.9992 27.284 11.9992ZM11.039 26.9992C11.0556 26.0908 11.1257 25.1842 11.249 24.2842C11.6347 22.2991 12.6776 20.5018 14.2097 19.182C15.7418 17.8621 17.6737 17.0967 19.694 17.0092H19.934C21.2198 16.9893 22.4929 17.2665 23.654 17.8192C23.819 17.8942 24.029 18.1042 24.029 18.2542C24.029 20.2342 24.029 22.2142 24.029 24.2542L23.879 24.3892C23.099 23.9392 22.289 23.5192 21.554 22.9942C21.389 22.8892 21.239 22.7842 21.089 22.7092C20.6946 22.4779 20.2359 22.3807 19.7815 22.4321C19.3272 22.4834 18.9018 22.6807 18.569 22.9942C17.9017 23.4988 17.1703 23.9124 16.394 24.2242C15.6838 24.506 14.9441 24.7073 14.189 24.8242C13.5218 24.8655 12.8816 25.1024 12.3481 25.5052C11.8146 25.9079 11.4115 26.4588 11.189 27.0892L11.039 26.9992ZM13.079 32.2042C12.974 31.3342 12.824 31.1242 11.984 30.9592C11.7399 30.9439 11.5109 30.836 11.3436 30.6576C11.1764 30.4792 11.0835 30.2437 11.084 29.9992C11.0833 29.7531 11.1756 29.5158 11.3426 29.3349C11.5095 29.1541 11.7386 29.0431 11.984 29.0242C12.779 28.8742 12.944 28.7092 13.079 27.8992C13.1027 27.6247 13.2225 27.3673 13.4173 27.1725C13.6122 26.9777 13.8695 26.8579 14.144 26.8342C14.6811 26.7617 15.2124 26.6515 15.734 26.5042C17.2551 26.0962 18.6853 25.404 19.949 24.4642L22.559 25.8142L24.059 26.5642C24.0621 26.9054 24.0872 27.2461 24.134 27.5842C24.2666 28.2521 24.6224 28.8551 25.1431 29.294C25.6638 29.7329 26.3183 29.9815 26.999 29.9992C27.674 29.9992 28.334 29.9992 29.054 29.9992C29.0706 30.2356 28.9932 30.469 28.8388 30.6487C28.6843 30.8284 28.4652 30.94 28.229 30.9592C27.314 31.1392 27.134 31.3792 27.059 32.3242C27.0655 33.2049 26.8588 34.0742 26.4565 34.8578C26.0543 35.6414 25.4685 36.316 24.749 36.8242C23.774 37.4542 22.769 38.0542 21.749 38.5942C21.2426 38.8519 20.6822 38.9856 20.114 38.9842C19.5488 38.9746 18.9919 38.8469 18.479 38.6092C17.2134 38.1014 16.0382 37.3922 14.999 36.5092C14.8437 36.3967 14.6981 36.2712 14.564 36.1342C13.6007 35.0525 13.0717 33.6526 13.079 32.2042ZM28.724 47.9092C24.8633 48.258 20.9829 47.5038 17.534 45.7342C16.5183 45.1944 15.5454 44.5776 14.624 43.8892L13.904 43.3192C13.244 42.7792 12.599 42.1792 11.909 41.5792C12.7561 40.5733 13.8681 39.825 15.119 39.4192C15.2414 39.3829 15.3716 39.3829 15.494 39.4192C15.6038 39.452 15.7095 39.4973 15.809 39.5542C16.606 40.0356 17.4635 40.4089 18.359 40.6642C18.659 40.7542 18.974 40.8142 19.274 40.8742C20.555 41.0169 21.8501 40.7933 23.009 40.2292C23.3952 40.0936 23.7592 39.9015 24.089 39.6592C24.275 39.5091 24.502 39.4187 24.7402 39.4C24.9785 39.3813 25.2168 39.435 25.424 39.5542C26.7867 40.1313 27.9482 41.0986 28.7623 42.3345C29.5764 43.5703 30.0067 45.0193 29.999 46.4992C29.999 47.7892 30.074 47.8192 28.724 47.9092ZM46.949 33.4942C45.8615 36.8983 43.918 39.9661 41.3046 42.4035C38.6912 44.8409 35.4956 46.5663 32.024 47.4142C32.1901 45.4521 31.7726 43.4847 30.824 41.7592C29.8435 40.0538 28.3612 38.692 26.579 37.8592C27.9472 36.6646 28.8015 34.9881 28.964 33.1792C28.9785 33.1006 29.0102 33.0262 29.0569 32.9613C29.1036 32.8965 29.1641 32.8428 29.234 32.8042C29.234 32.8042 29.474 32.9092 29.564 33.0142C29.7802 33.2992 30.054 33.5355 30.3675 33.7078C30.681 33.8801 31.0273 33.9845 31.3838 34.0142C31.7403 34.0439 32.0991 33.9982 32.4368 33.8802C32.7745 33.7622 33.0836 33.5744 33.344 33.3292C34.514 32.3542 35.669 31.3492 36.854 30.4042C37.1533 30.1776 37.5141 30.0469 37.889 30.0292C39.524 30.0292 41.159 30.0292 42.794 30.0292C43.2299 30.0679 43.669 30.0108 44.0804 29.8619C44.4919 29.713 44.8659 29.4759 45.176 29.1672C45.4861 28.8584 45.725 28.4856 45.8758 28.0748C46.0266 27.664 46.0857 27.2252 46.049 26.7892V18.4642C47.999 20.4892 48.584 28.6792 46.949 33.4942Z" fill="#0C4578"/>
<path d="M41.9992 15.9891C41.9994 16.1263 41.9716 16.262 41.9174 16.388C41.8631 16.5141 41.7837 16.6276 41.6839 16.7218C41.5842 16.8159 41.4662 16.8887 41.3372 16.9355C41.2083 16.9823 41.0711 17.0023 40.9342 16.9941H34.9342C32.9842 16.9941 31.0342 16.9941 29.0992 16.9941C28.9154 16.9636 28.738 16.9028 28.5742 16.8141C28.4184 16.7197 28.2812 16.5977 28.1692 16.4541C28.0952 16.3049 28.0566 16.1406 28.0566 15.9741C28.0566 15.8075 28.0952 15.6433 28.1692 15.4941C28.2775 15.3608 28.4098 15.2488 28.5592 15.1641C28.7214 15.0622 28.9077 15.0052 29.0992 14.9991C33.0442 14.9991 37.0042 14.9991 40.9642 14.9991C41.0979 14.993 41.2315 15.0141 41.3569 15.0611C41.4822 15.1081 41.5967 15.1801 41.6935 15.2726C41.7902 15.3652 41.8672 15.4764 41.9197 15.5995C41.9723 15.7227 41.9993 15.8552 41.9992 15.9891Z" fill="#0C4578"/>
<path d="M39 23.9998C39 24.5848 38.55 25.0198 37.785 25.0198H29.22C28.545 25.0198 28.14 24.7198 28.065 24.1948C27.99 23.6698 28.425 23.0098 29.22 23.0098H37.83C38.55 23.0098 39 23.3848 39 23.9998Z" fill="#0C4578"/>
<path d="M42.0002 20.0255C41.9989 20.1636 41.9687 20.2998 41.9116 20.4256C41.8545 20.5513 41.7717 20.6636 41.6686 20.7555C41.5654 20.8473 41.4443 20.9165 41.3128 20.9587C41.1813 21.0009 41.0425 21.0152 40.9052 21.0005H35.1602C34.4552 21.0005 34.0352 20.5955 34.0352 20.0105C34.0344 19.8692 34.0634 19.7293 34.1204 19.6C34.1773 19.4707 34.2609 19.3548 34.3656 19.26C34.4704 19.1652 34.5939 19.0935 34.7283 19.0496C34.8626 19.0058 35.0046 18.9907 35.1452 19.0055H40.9352C41.0739 18.9949 41.2133 19.0136 41.3443 19.0605C41.4753 19.1074 41.595 19.1814 41.6955 19.2776C41.796 19.3739 41.8751 19.4902 41.9275 19.6191C41.98 19.748 42.0048 19.8864 42.0002 20.0255Z" fill="#0C4578"/>
<path d="M32.0403 20.0407C32.037 20.2866 31.9409 20.5222 31.7712 20.7002C31.6015 20.8783 31.3708 20.9856 31.1253 21.0007H30.0003C29.6553 21.0007 29.2953 21.0007 28.9503 21.0007C28.829 20.9999 28.7092 20.9742 28.5982 20.9252C28.4872 20.8762 28.3875 20.8049 28.3053 20.7157C28.2182 20.6303 28.1503 20.5272 28.1063 20.4133C28.0624 20.2995 28.0432 20.1775 28.0503 20.0557C28.0293 19.8096 28.1054 19.5651 28.2624 19.3745C28.4194 19.1838 28.6448 19.0622 28.8903 19.0357C29.6496 18.9907 30.411 18.9907 31.1703 19.0357C31.417 19.0586 31.6452 19.176 31.8074 19.3633C31.9695 19.5506 32.053 19.7933 32.0403 20.0407Z" fill="#0C4578"/>
</g>
<defs>
<linearGradient id="paint0_linear_469_18248" x1="28.0659" y1="19.9951" x2="32.0409" y2="19.9951" gradientUnits="userSpaceOnUse">
<stop stop-color="#176AB4"/>
<stop offset="1" stop-color="#B1FFC7"/>
</linearGradient>
<linearGradient id="paint1_linear_469_18248" x1="28.0505" y1="23.9991" x2="39.0455" y2="23.9991" gradientUnits="userSpaceOnUse">
<stop stop-color="#176AB4"/>
<stop offset="1" stop-color="#B1FFC7"/>
</linearGradient>
<linearGradient id="paint2_linear_469_18248" x1="28.0948" y1="16.0059" x2="42.0298" y2="16.0059" gradientUnits="userSpaceOnUse">
<stop stop-color="#176AB4"/>
<stop offset="1" stop-color="#B1FFC7"/>
</linearGradient>
<linearGradient id="paint3_linear_469_18248" x1="34.0352" y1="19.9955" x2="42.0302" y2="19.9955" gradientUnits="userSpaceOnUse">
<stop stop-color="#176AB4"/>
<stop offset="1" stop-color="#B1FFC7"/>
</linearGradient>
<linearGradient id="paint4_linear_469_18248" x1="15.045" y1="32.0706" x2="60" y2="32.0706" gradientUnits="userSpaceOnUse">
<stop stop-color="#176AB4"/>
<stop offset="1" stop-color="#B1FFC7"/>
</linearGradient>
<linearGradient id="paint5_linear_469_18248" x1="-0.000423905" y1="30.5244" x2="8.89458" y2="30.5244" gradientUnits="userSpaceOnUse">
<stop stop-color="#C21500"/>
<stop offset="0.52" stop-color="#F37429"/>
<stop offset="1" stop-color="#FFD1B0"/>
</linearGradient>
<linearGradient id="paint6_linear_469_18248" x1="4.109" y1="29.9709" x2="23.219" y2="29.9709" gradientUnits="userSpaceOnUse">
<stop stop-color="#C21500"/>
<stop offset="0.52" stop-color="#F37429"/>
<stop offset="1" stop-color="#FFD1B0"/>
</linearGradient>
<clipPath id="clip0_469_18248">
<rect width="60" height="60" fill="white"/>
</clipPath>
</defs>
</svg>
