<svg width="60" height="60" viewBox="0 0 60 60" fill="none" xmlns="http://www.w3.org/2000/svg">
<g clip-path="url(#clip0_469_18226)">
<path d="M33.2802 29.3412C33.1452 28.6774 32.8189 28.4524 32.1551 28.4187C31.6356 28.4275 31.1172 28.367 30.6137 28.2387C30.3933 28.1939 30.1871 28.096 30.013 27.9535C29.8389 27.8111 29.7021 27.6283 29.6146 27.4211C29.5271 27.2138 29.4914 26.9884 29.5106 26.7643C29.5298 26.5401 29.6034 26.3241 29.7249 26.1348C29.9803 25.6567 30.3023 25.2173 30.6813 24.8297C30.8001 24.7226 30.8963 24.5928 30.9639 24.4478C31.0315 24.3028 31.0693 24.1458 31.075 23.9859C29.3481 21.7041 26.9472 20.0234 24.2121 19.1818C23.8504 19.4649 23.4533 19.6994 23.0308 19.8794C22.8764 19.9663 22.7037 20.0155 22.5267 20.023C22.3498 20.0305 22.1735 19.9962 22.0123 19.9227C21.8511 19.8492 21.7096 19.7387 21.5992 19.6002C21.4888 19.4617 21.4126 19.2991 21.3769 19.1256C21.3141 18.9488 21.2615 18.7684 21.2194 18.5856C20.8481 18.5856 20.4769 18.5293 20.0943 18.5293C19.7118 18.5293 19.5318 18.5293 19.2618 18.5293C17.2944 18.6209 15.3723 19.1514 13.6364 20.0819C12.7776 20.5439 11.9769 21.1066 11.2513 21.7582C9.09725 23.5333 7.534 25.9215 6.76903 28.6059C6.00406 31.2902 6.07355 34.1437 6.96828 36.7876C7.86301 39.4315 9.54066 41.7408 11.7785 43.4089C14.0164 45.077 16.7087 46.0251 19.4981 46.1273C19.7042 46.1385 19.9107 46.1385 20.1168 46.1273C20.5602 46.1275 21.0033 46.105 21.4444 46.0598C21.5334 45.9063 21.6526 45.7725 21.7946 45.6662C21.9367 45.56 22.0987 45.4836 22.2711 45.4415C22.4434 45.3995 22.6225 45.3927 22.7975 45.4216C22.9725 45.4505 23.1399 45.5145 23.2895 45.6097C23.354 45.6348 23.4146 45.6689 23.4696 45.711C24.2403 45.5166 24.9931 45.2569 25.7197 44.9347C25.8065 44.9026 25.8895 44.8611 25.9672 44.8109C27.8975 43.9056 29.5919 42.5655 30.9175 40.8957C30.8467 40.7722 30.7597 40.6586 30.6588 40.5582C30.2384 40.1075 29.8894 39.5953 29.6237 39.0393C29.5365 38.8708 29.4889 38.6846 29.4845 38.4949C29.48 38.3052 29.5189 38.117 29.598 37.9446C29.6772 37.7721 29.7946 37.62 29.9414 37.4997C30.0881 37.3795 30.2604 37.2942 30.445 37.2505C30.9579 37.0824 31.4919 36.9877 32.0313 36.9692C32.8751 36.9692 33.1564 36.7329 33.3027 35.9229C33.7272 33.7488 33.7196 31.5124 33.2802 29.3412ZM9.42868 30.3763L14.5252 29.6225L16.7754 25.021L19.0255 29.6225L24.1108 30.3763L20.4319 33.9653L21.3769 39.0056L16.8204 36.6092L12.3201 39.0056L13.1977 33.9315L9.42868 30.3763Z" fill="url(#paint0_linear_469_18226)"/>
<path d="M59.0211 9.31544V22.6925C58.4574 23.3129 57.8358 23.878 57.1647 24.3801C56.4367 24.9396 55.6479 25.4151 54.8133 25.7977C54.191 26.1037 53.5436 26.3559 52.8782 26.5515C51.6068 26.9269 50.2886 27.1201 48.963 27.1253C47.3298 27.1281 45.7097 26.8346 44.1814 26.259C42.9758 25.7898 41.8402 25.1576 40.8062 24.3801C39.9149 23.6969 39.1068 22.9115 38.3986 22.04C37.9169 21.4549 37.4913 20.8258 37.1272 20.1611C36.6631 19.3874 36.2858 18.5649 36.0022 17.7085C35.8007 17.1071 35.6502 16.4899 35.5521 15.8634C35.42 15.1205 35.3523 14.3677 35.3496 13.6132C35.3496 13.2644 35.3496 12.8932 35.3496 12.4881C35.4034 11.8254 35.5049 11.1674 35.6534 10.5193C36.2764 7.80175 37.7222 5.3424 39.7936 3.47633C40.3173 3.02155 40.878 2.61134 41.47 2.25C41.5487 2.99255 41.7963 3.24006 42.5951 3.20631C43.0964 3.15712 43.602 3.23432 44.0659 3.43085C44.5297 3.62738 44.9369 3.93698 45.2502 4.33138C45.4368 4.49346 45.6783 4.57799 45.9253 4.56764H54.5096C55.5277 4.50595 56.5339 4.8132 57.3439 5.43309C58.1539 6.05298 58.7134 6.94399 58.9198 7.94286C59.0136 8.39397 59.0477 8.85545 59.0211 9.31544Z" fill="url(#paint1_linear_469_18226)"/>
<path d="M30.9167 40.8616C29.591 42.5314 27.8967 43.8715 25.9664 44.7768L25.7976 44.9568C25.7774 44.9308 25.75 44.9113 25.7188 44.9006C24.9922 45.2228 24.2394 45.4825 23.4687 45.6769C23.8934 45.9219 24.2929 46.2083 24.6613 46.5319C25.2013 47.0157 25.5051 47.0832 26.1014 46.6782C27.9533 45.4188 29.5492 43.8191 30.8042 41.9642C30.9488 41.8225 31.0392 41.6346 31.0598 41.4332C31.0803 41.2318 31.0297 41.0296 30.9167 40.8616ZM30.8042 23.3893C29.5482 21.5313 27.948 19.9312 26.0901 18.6752C25.5051 18.2702 25.1901 18.3377 24.65 18.8102L24.2 19.1815C26.9351 20.023 29.336 21.7037 31.0629 23.9855C31.0324 23.767 30.943 23.5608 30.8042 23.3893ZM30.9167 40.8616C29.591 42.5314 27.8967 43.8715 25.9664 44.7768L25.7976 44.9568C25.7774 44.9308 25.75 44.9113 25.7188 44.9006C24.9922 45.2228 24.2394 45.4825 23.4687 45.6769C23.8934 45.9219 24.2929 46.2083 24.6613 46.5319C25.2013 47.0157 25.5051 47.0832 26.1014 46.6782C27.9533 45.4188 29.5492 43.8191 30.8042 41.9642C30.9488 41.8225 31.0392 41.6346 31.0598 41.4332C31.0803 41.2318 31.0297 41.0296 30.9167 40.8616ZM30.8042 23.3893C29.5482 21.5313 27.948 19.9312 26.0901 18.6752C25.5051 18.2702 25.1901 18.3377 24.65 18.8102L24.2 19.1815C26.9351 20.023 29.336 21.7037 31.0629 23.9855C31.0324 23.767 30.943 23.5608 30.8042 23.3893ZM25.9664 44.7656L25.7976 44.9456C25.7774 44.9196 25.75 44.9 25.7188 44.8893C24.9922 45.2116 24.2394 45.4713 23.4687 45.6656C23.8934 45.9106 24.2929 46.1971 24.6613 46.5207C25.2013 47.0045 25.5051 47.072 26.1014 46.667C27.9533 45.4075 29.5492 43.8078 30.8042 41.9529C30.9545 41.8099 31.0486 41.6177 31.0693 41.4113C31.0899 41.2048 31.0358 40.9978 30.9167 40.8278C29.5949 42.51 27.9002 43.8619 25.9664 44.7768V44.7656ZM31.0629 23.9743C31.0324 23.7557 30.943 23.5496 30.8042 23.378C29.5482 21.5201 27.948 19.9199 26.0901 18.664C25.5051 18.2589 25.1901 18.3264 24.65 18.799L24.2 19.1702C26.9366 20.0148 29.3377 21.6996 31.0629 23.9855V23.9743ZM58.9084 8.05454C58.702 7.05568 58.1425 6.16467 57.3325 5.54478C56.5225 4.92489 55.5163 4.61764 54.4981 4.67933H45.9139C45.6669 4.68968 45.4254 4.60515 45.2388 4.44307C44.9254 4.04867 44.5183 3.73907 44.0545 3.54254C43.5906 3.34601 43.085 3.26881 42.5836 3.318C41.8074 3.318 41.5598 3.10423 41.4586 2.36169C41.4074 1.74302 41.1235 1.16678 40.6641 0.749191C40.2048 0.331604 39.6042 0.103737 38.9834 0.111548C37.3183 0.111548 35.6082 0.111548 33.9769 0.111548C33.3743 0.103496 32.7896 0.316582 32.3335 0.710493C31.8774 1.1044 31.5815 1.65182 31.5017 2.24918C31.3329 3.23924 31.2204 3.37425 30.2079 3.37425C29.8063 3.34118 29.4025 3.40112 29.0279 3.54941C28.6533 3.69771 28.3179 3.93036 28.0477 4.22931C27.8904 4.4316 27.6833 4.58972 27.4467 4.6883C27.2102 4.78687 26.9521 4.82254 26.6977 4.79184C23.8062 4.79184 20.9035 4.79184 18.0009 4.79184C17.0123 4.80973 16.0638 5.18563 15.3314 5.84978C14.599 6.51393 14.1323 7.42123 14.0181 8.40332C13.9409 9.08295 13.9146 9.76739 13.9394 10.4509C13.9394 12.3411 13.9394 14.2312 13.9394 16.0763C12.6343 16.5263 12.6568 16.5263 12.5668 17.9439C12.5387 18.3857 12.424 18.8177 12.2292 19.2152C12.1734 19.3746 12.0844 19.5203 11.9681 19.6427C11.8517 19.7651 11.7107 19.8614 11.5544 19.9252C11.398 19.9891 11.2299 20.0189 11.0611 20.0129C10.8924 20.0069 10.7268 19.9651 10.5754 19.8903C10.0025 19.6102 9.47221 19.2503 9.0003 18.8215C8.41526 18.3377 8.14525 18.2702 7.51521 18.6865C5.6676 19.9374 4.07218 21.5252 2.81241 23.3668C2.39614 23.9855 2.45239 24.3118 2.96992 24.8518C3.33776 25.2143 3.65218 25.6272 3.90373 26.0782C4.03028 26.2727 4.10629 26.4957 4.12489 26.7271C4.14349 26.9584 4.10408 27.1907 4.01024 27.403C3.9164 27.6152 3.77109 27.8007 3.58747 27.9427C3.40385 28.0846 3.18773 28.1785 2.95867 28.2158C2.53812 28.3397 2.10312 28.4078 1.66484 28.4183C0.742282 28.4183 0.461015 28.6433 0.292254 29.5434C-0.100022 31.6781 -0.100022 33.8665 0.292254 36.0013C0.438513 36.8001 0.764784 37.0251 1.59734 37.0364C2.09656 37.0332 2.59341 37.1053 3.07118 37.2501C3.27612 37.2965 3.46712 37.3909 3.62847 37.5255C3.78981 37.6602 3.9169 37.8312 3.99928 38.0245C4.08166 38.2178 4.11697 38.4279 4.10231 38.6375C4.08766 38.8471 4.02346 39.0503 3.91498 39.2302C3.63885 39.763 3.29055 40.2552 2.87992 40.6928C2.69524 40.8521 2.5784 41.076 2.5533 41.3186C2.52821 41.5612 2.59675 41.8042 2.74491 41.9979C4.02642 43.9038 5.66556 45.5429 7.57146 46.8245C7.66725 46.9077 7.77937 46.97 7.90064 47.0074C8.02191 47.0448 8.14966 47.0565 8.27569 47.0417C8.40173 47.0268 8.52328 46.9858 8.63256 46.9213C8.74184 46.8568 8.83644 46.7702 8.91029 46.667C9.12714 46.4293 9.36431 46.2109 9.61909 46.0144C10.9917 44.9906 12.218 45.4856 12.488 47.1395C12.488 47.3307 12.5443 47.4995 12.5555 47.6908C12.6118 49.0071 12.6343 49.0409 14.0406 49.3671C14.0406 51.3697 14.0406 53.3724 14.0406 55.3637C13.9919 55.98 14.077 56.5994 14.2901 57.1797C14.5032 57.7599 14.8393 58.2872 15.2754 58.7254C15.7114 59.1635 16.237 59.5022 16.8162 59.7182C17.3954 59.9341 18.0144 60.0223 18.6309 59.9765H54.4531C55.0654 60.0131 55.6785 59.9188 56.2515 59.7C56.8245 59.4812 57.3443 59.1429 57.7764 58.7076C58.2086 58.2722 58.543 57.7499 58.7576 57.1753C58.9722 56.6007 59.0619 55.987 59.0209 55.375C59.0209 44.4693 59.0209 33.5674 59.0209 22.6692V9.31462C59.0343 8.8916 58.9965 8.46851 58.9084 8.05454ZM29.1391 6.27693C29.1391 5.51189 29.4653 5.15186 30.2641 5.15186H30.9279C31.5447 5.13795 32.136 4.9032 32.5943 4.49028C33.0526 4.07736 33.3476 3.51369 33.4256 2.90172C33.5718 1.94541 33.6393 1.88916 34.6181 1.88916C36.002 1.88916 37.3858 1.88916 38.7809 1.88916C39.5235 1.88916 39.681 2.03542 39.771 2.78922C39.8032 3.02688 39.8598 3.26062 39.9397 3.48676C40.1129 3.98443 40.439 4.41459 40.8715 4.71569C41.3039 5.01678 41.8205 5.17339 42.3474 5.16311H42.8874C43.585 5.16311 43.9 5.45563 43.9225 6.16443C43.9225 7.2895 43.9225 8.41457 43.9225 9.59589C43.9225 10.2597 43.5512 10.5297 42.7974 10.5297H30.4441C29.4316 10.5297 29.1391 10.2372 29.1391 9.24712C29.1391 8.25706 29.1278 7.26699 29.1391 6.27693ZM28.014 11.576C28.2442 11.8863 28.5503 12.1321 28.9031 12.2897C29.2558 12.4474 29.6432 12.5116 30.0279 12.4761H42.9774C43.4537 12.4781 43.9223 12.3556 44.3367 12.1207C44.7511 11.8859 45.097 11.5469 45.3401 11.1372C45.394 11.0526 45.4648 10.9799 45.548 10.9238C45.6312 10.8676 45.7251 10.8292 45.8239 10.811C48.1415 10.811 50.4591 10.811 52.7768 10.811C52.8251 10.8206 52.871 10.8397 52.9118 10.8672V53.8787H20.1272V50.9197C20.1272 50.5822 20.1272 50.2334 20.1272 49.8959C20.1272 49.5584 20.1272 49.2096 20.5885 48.9733C20.8473 48.8271 20.9598 48.3208 21.0498 47.9495C21.0948 47.4355 21.1699 46.9246 21.2748 46.4194C21.3215 46.2825 21.3818 46.1506 21.4548 46.0257C21.5438 45.8722 21.663 45.7384 21.805 45.6321C21.9471 45.5259 22.1091 45.4495 22.2815 45.4074C22.4538 45.3654 22.6329 45.3586 22.8079 45.3875C22.9829 45.4164 23.1503 45.4804 23.2999 45.5756C23.3644 45.6007 23.425 45.6348 23.48 45.6769C23.9047 45.9219 24.3042 46.2083 24.6725 46.5319C25.2126 47.0157 25.5163 47.0832 26.1126 46.6782C27.9645 45.4188 29.5604 43.8191 30.8154 41.9642C30.9658 41.8212 31.0599 41.629 31.0805 41.4225C31.1012 41.216 31.047 41.009 30.9279 40.8391C30.8571 40.7156 30.7701 40.602 30.6692 40.5016C30.2488 40.0509 29.8998 39.5387 29.6341 38.9827C29.5469 38.8142 29.4993 38.628 29.4949 38.4383C29.4904 38.2486 29.5292 38.0604 29.6084 37.888C29.6876 37.7155 29.805 37.5634 29.9518 37.4431C30.0985 37.3229 30.2708 37.2376 30.4554 37.1939C30.9683 37.0258 31.5023 36.9311 32.0417 36.9126C32.8855 36.9126 33.1668 36.6763 33.3131 35.8663C33.7406 33.7046 33.7406 31.4801 33.3131 29.3184C33.1781 28.6546 32.8518 28.4296 32.188 28.3958C31.6685 28.4047 31.1501 28.3441 30.6467 28.2158C30.4262 28.171 30.22 28.0731 30.0459 27.9307C29.8718 27.7882 29.735 27.6054 29.6475 27.3982C29.56 27.191 29.5243 26.9655 29.5435 26.7414C29.5627 26.5173 29.6363 26.3012 29.7578 26.1119C30.0132 25.6338 30.3352 25.1944 30.7142 24.8068C30.833 24.6998 30.9292 24.5699 30.9968 24.425C31.0644 24.28 31.1022 24.1229 31.1079 23.963C31.0774 23.7445 30.988 23.5383 30.8492 23.3668C29.5932 21.5088 27.993 19.9087 26.1351 18.6527C25.5501 18.2477 25.2351 18.3152 24.695 18.7877L24.245 19.159C23.8833 19.442 23.4862 19.6765 23.0637 19.8565C22.9098 19.9504 22.7356 20.006 22.5557 20.0185C22.3759 20.0311 22.1957 20.0002 22.0302 19.9285C21.8648 19.8568 21.719 19.7464 21.6052 19.6066C21.4914 19.4668 21.4128 19.3017 21.3761 19.1252C21.3132 18.9484 21.2606 18.7681 21.2186 18.5852C21.1347 18.1845 21.0784 17.7785 21.0498 17.3701C21.0577 17.1347 20.9956 16.9022 20.8715 16.7019C20.7473 16.5017 20.5667 16.3427 20.3523 16.2451C20.2919 16.2227 20.2383 16.185 20.1969 16.1357C20.1555 16.0864 20.1276 16.0271 20.116 15.9638C20.116 14.2762 20.116 12.5886 20.116 10.811H26.1014C26.8777 10.7435 27.5415 10.7435 28.0365 11.576H28.014ZM15.897 9.32587C15.8525 8.95764 15.8929 8.58412 16.0151 8.23392C16.1373 7.88372 16.338 7.56614 16.6019 7.30551C16.8658 7.04487 17.1859 6.8481 17.5376 6.73027C17.8893 6.61243 18.2633 6.57667 18.6309 6.6257H27.1927V8.9096H19.5535C18.5071 8.9096 18.2596 9.15711 18.2596 10.1809V15.8738H15.9532C15.9532 15.6488 15.9532 15.4575 15.9532 15.2662C15.9082 13.2749 15.9082 11.2497 15.9195 9.26962L15.897 9.32587ZM14.4569 47.5783C13.5006 43.5168 11.3742 42.7517 7.80772 45.0019C6.75016 43.978 5.62509 42.8755 4.50002 41.7504C4.69128 41.5141 4.79254 41.3679 4.89379 41.2329C6.84016 38.6565 5.62509 35.6863 2.41864 35.2137C2.10362 35.2137 1.9011 35.1237 1.8561 34.7637C1.64022 33.3256 1.66684 31.8615 1.93486 30.4322C6.03011 29.4084 6.88517 27.3157 4.50002 23.783L7.87523 20.4866C8.32283 20.9154 8.85265 21.2491 9.43274 21.4676C10.0128 21.6861 10.6312 21.7849 11.2504 21.7579C11.7472 21.6935 12.2226 21.5161 12.64 21.2391C13.0575 20.9621 13.4057 20.593 13.6581 20.1603C14.0843 19.4617 14.3352 18.6704 14.3894 17.8539C15.3907 17.8539 16.4258 17.7414 17.4608 17.7414C17.9588 17.6635 18.4686 17.738 18.9234 17.9552C19.0975 18.132 19.2083 18.3614 19.2384 18.6077C19.2384 18.8215 19.3172 19.0352 19.3734 19.2265C19.5014 19.7151 19.7373 20.1687 20.0639 20.5539C20.3905 20.9392 20.7994 21.2462 21.2604 21.4525C21.7214 21.6587 22.2228 21.7588 22.7277 21.7455C23.2326 21.7321 23.728 21.6057 24.1775 21.3754C24.7604 21.0912 25.3275 20.7757 25.8764 20.4303C26.9339 21.4879 28.0365 22.5905 29.1278 23.6593C26.8214 27.327 27.744 29.6221 31.7042 30.3197C31.9912 31.8817 31.9912 33.483 31.7042 35.045C30.1179 35.2475 28.7115 35.765 28.059 37.2951C27.4065 38.8252 28.059 40.2428 29.1841 41.6154L25.9664 44.7768L25.7976 44.9568C25.7774 44.9308 25.75 44.9113 25.7188 44.9006L25.3476 44.6306C23.0074 42.8305 20.386 43.573 19.4972 46.0707C19.3829 46.4034 19.3 46.7462 19.2497 47.0945C19.2497 47.432 19.0922 47.567 18.7884 47.612C17.3569 47.8185 15.9011 47.7881 14.4794 47.522L14.4569 47.5783ZM57.1421 55.4538C57.1798 55.8221 57.1345 56.1942 57.0094 56.5426C56.8843 56.8911 56.6826 57.2071 56.4192 57.4672C56.1557 57.7274 55.8373 57.9252 55.4873 58.046C55.1373 58.1668 54.7647 58.2075 54.3969 58.1652H18.6534C18.2862 58.2119 17.9131 58.1746 17.5625 58.0559C17.2118 57.9373 16.8928 57.7405 16.6294 57.4804C16.366 57.2202 16.1652 56.9036 16.0422 56.5545C15.9193 56.2053 15.8773 55.8328 15.9195 55.465C15.9195 53.7099 15.9195 51.9548 15.9195 50.1997C15.9096 50.0123 15.9096 49.8245 15.9195 49.6371H18.2259V50.4134C18.2259 51.8648 18.2259 53.3161 18.2259 54.7675C18.2259 55.4875 18.5296 55.78 19.2497 55.8138H53.2943C54.5656 55.8138 54.8132 55.5663 54.8132 54.2949V10.4172C54.8132 9.19087 54.6219 8.9996 53.3731 8.9996H45.7451V6.59195H46.3639H54.4644C54.8285 6.55291 55.1968 6.59591 55.5422 6.71779C55.8875 6.83968 56.2012 7.03737 56.4602 7.29634C56.7191 7.55531 56.9168 7.86898 57.0387 8.21434C57.1606 8.5597 57.2036 8.92797 57.1646 9.29212L57.1421 55.4538ZM30.8042 23.3893C29.5482 21.5313 27.948 19.9312 26.0901 18.6752C25.5051 18.2702 25.1901 18.3377 24.65 18.8102L24.2 19.1815C26.9351 20.023 29.336 21.7037 31.0629 23.9855C31.0324 23.767 30.943 23.5608 30.8042 23.3893ZM30.9167 40.8616C29.591 42.5314 27.8967 43.8715 25.9664 44.7768L25.7976 44.9568C25.7774 44.9308 25.75 44.9113 25.7188 44.9006C24.9922 45.2228 24.2394 45.4825 23.4687 45.6769C23.8934 45.9219 24.2929 46.2083 24.6613 46.5319C25.2013 47.0157 25.5051 47.0832 26.1014 46.6782C27.9533 45.4188 29.5492 43.8191 30.8042 41.9642C30.9488 41.8225 31.0392 41.6346 31.0598 41.4332C31.0803 41.2318 31.0297 41.0296 30.9167 40.8616ZM30.8042 23.3893C29.5482 21.5313 27.948 19.9312 26.0901 18.6752C25.5051 18.2702 25.1901 18.3377 24.65 18.8102L24.2 19.1815C26.9351 20.023 29.336 21.7037 31.0629 23.9855C31.0324 23.767 30.943 23.5608 30.8042 23.3893ZM30.9167 40.8616C29.591 42.5314 27.8967 43.8715 25.9664 44.7768L25.7976 44.9568C25.7774 44.9308 25.75 44.9113 25.7188 44.9006C24.9922 45.2228 24.2394 45.4825 23.4687 45.6769C23.8934 45.9219 24.2929 46.2083 24.6613 46.5319C25.2013 47.0157 25.5051 47.0832 26.1014 46.6782C27.9533 45.4188 29.5492 43.8191 30.8042 41.9642C30.9488 41.8225 31.0392 41.6346 31.0598 41.4332C31.0803 41.2318 31.0297 41.0296 30.9167 40.8616Z" fill="#0C4578"/>
<path d="M39.7817 15.8516H47.9384C48.3997 15.8516 48.8497 15.9641 48.9172 16.4478C48.9477 16.8117 48.848 17.1745 48.636 17.4717C48.5122 17.6517 48.1297 17.7079 47.8709 17.7079H31.6249C30.8936 17.7079 30.4998 17.3817 30.5561 16.7741C30.6123 16.1666 30.9049 15.8516 31.6812 15.8516H39.7817Z" fill="#0C4578"/>
<path d="M39.4554 38.0611L35.5514 41.3238C34.9663 41.8188 34.4263 42.3138 33.7963 42.7976C33.5865 43.0004 33.3061 43.1138 33.0143 43.1138C32.7226 43.1138 32.4422 43.0004 32.2324 42.7976C32.1417 42.6788 32.0773 42.542 32.0433 42.3965C32.0093 42.2509 32.0066 42.0998 32.0353 41.953C32.064 41.8063 32.1235 41.6674 32.2098 41.5453C32.2962 41.4233 32.4074 41.3209 32.5362 41.245L38.0828 36.7447C37.9028 36.6097 37.6778 36.531 37.6215 36.3847C37.5652 36.2385 37.3515 35.6984 37.4527 35.4622C37.5325 35.3102 37.6459 35.1784 37.7843 35.077C37.9228 34.9756 38.0826 34.9073 38.2515 34.8771C39.1353 34.8735 40.0184 34.9261 40.8955 35.0346C41.0206 35.0561 41.1402 35.1026 41.247 35.1714C41.3537 35.2401 41.4456 35.3296 41.517 35.4346C41.5884 35.5397 41.6379 35.658 41.6626 35.7826C41.6872 35.9071 41.6865 36.0354 41.6605 36.1597C41.593 36.8797 41.503 37.5885 41.4017 38.3086C41.3005 39.0286 40.9742 39.3212 40.4792 39.2874C40.2349 39.2794 40.0025 39.1802 39.8276 39.0095C39.6527 38.8388 39.548 38.6088 39.5341 38.3648C39.5116 38.2523 39.4891 38.1736 39.4554 38.0611Z" fill="#0C4578"/>
<path d="M41.3243 22.0273C39.1529 22.0273 36.9703 22.0273 34.7989 22.0273C34.1014 22.0273 33.6738 21.6898 33.7414 21.0823C33.7322 20.972 33.745 20.861 33.7792 20.7557C33.8134 20.6505 33.8683 20.5531 33.9406 20.4693C34.0129 20.3855 34.1011 20.3169 34.2002 20.2677C34.2993 20.2184 34.4072 20.1893 34.5177 20.1822C34.6787 20.171 34.8404 20.171 35.0014 20.1822H47.7372C48.2773 20.1822 48.8623 20.1822 48.9636 20.8798C49.0648 21.5773 48.6823 22.0048 47.8385 22.0048C45.7009 22.0386 43.5182 22.0273 41.3243 22.0273Z" fill="#0C4578"/>
<path d="M42.3813 24.3793H47.8717C48.3892 24.3793 48.8505 24.4918 48.9968 25.0881C49.0283 25.2335 49.0246 25.3844 48.986 25.5282C48.9474 25.6719 48.875 25.8044 48.7748 25.9145C48.6746 26.0245 48.5496 26.1091 48.4101 26.161C48.2706 26.213 48.1207 26.2309 47.9729 26.2131C46.6116 26.2131 45.239 26.2131 43.8777 26.2131H36.7222C36.2497 26.2131 35.8334 26.1119 35.6647 25.6056C35.6039 25.4606 35.5816 25.3024 35.6 25.1464C35.6184 24.9903 35.6769 24.8416 35.7698 24.7148C35.8626 24.5879 35.9867 24.4873 36.1299 24.4226C36.2732 24.3579 36.4307 24.3313 36.5872 24.3455C37.7798 24.3455 38.9611 24.3455 40.1537 24.3455L42.3813 24.3793Z" fill="#0C4578"/>
<path d="M48.467 35.3262H44.5742V50.5146H48.467V35.3262Z" stroke="#0C4578" stroke-linejoin="round"/>
<path d="M44.6193 40.332H40.7266V50.5027H44.6193V40.332Z" stroke="#0C4578" stroke-linejoin="round"/>
<path d="M40.7287 43.2129H36.8359V50.5033H40.7287V43.2129Z" stroke="#0C4578" stroke-linejoin="round"/>
<path d="M36.8009 47.2188H32.9082V50.504H36.8009V47.2188Z" stroke="#0C4578" stroke-linejoin="round"/>
<path d="M16.7975 22.6016C14.7949 22.6016 12.8372 23.1954 11.172 24.308C9.50686 25.4207 8.20903 27.0021 7.44265 28.8523C6.67626 30.7025 6.47574 32.7384 6.86644 34.7026C7.25714 36.6668 8.22151 38.471 9.63761 39.8871C11.0537 41.3032 12.8579 42.2676 14.8221 42.6583C16.7863 43.049 18.8222 42.8484 20.6724 42.0821C22.5226 41.3157 24.104 40.0178 25.2167 38.3527C26.3293 36.6875 26.9231 34.7299 26.9231 32.7272C26.9231 30.0417 25.8563 27.4662 23.9574 25.5673C22.0585 23.6684 19.483 22.6016 16.7975 22.6016ZM21.3765 39.0051L16.82 36.6087L12.3197 39.0051L13.1973 33.931L9.4283 30.3758L14.5249 29.622L16.775 25.0205L19.0252 29.622L24.1105 30.3758L20.4315 33.9648L21.3765 39.0051Z" stroke="#0C4578" stroke-width="1.5" stroke-miterlimit="10"/>
</g>
<defs>
<linearGradient id="paint0_linear_469_18226" x1="6.35723" y1="32.3227" x2="33.6177" y2="32.3227" gradientUnits="userSpaceOnUse">
<stop stop-color="#176AB4"/>
<stop offset="1" stop-color="#B1FFC7"/>
</linearGradient>
<linearGradient id="paint1_linear_469_18226" x1="35.4284" y1="14.6933" x2="59.0211" y2="14.6933" gradientUnits="userSpaceOnUse">
<stop stop-color="#C21500"/>
<stop offset="0.52" stop-color="#F37429"/>
<stop offset="1" stop-color="#FFD1B0"/>
</linearGradient>
<clipPath id="clip0_469_18226">
<rect width="59.0324" height="60" fill="white"/>
</clipPath>
</defs>
</svg>
