<svg width="75" height="75" viewBox="0 0 75 75" fill="none" xmlns="http://www.w3.org/2000/svg">
<g clip-path="url(#clip0_1_5592)">
<path d="M73.218 20.1942C71.8754 18.074 69.8624 16.4636 67.4993 15.6192C65.6778 15.0709 63.7713 14.8612 61.8743 15.0004C61.4243 15.0004 61.1805 15.0004 61.1055 14.4004C60.8393 12.7184 60.1947 11.1188 59.2203 9.72223C58.2459 8.32561 56.9672 7.16843 55.4805 6.33791C53.9776 5.52731 52.3113 5.06588 50.6055 4.98791C48.899 4.91126 47.198 5.2322 45.6368 5.92541C44.9055 6.24416 44.2305 6.65666 43.4993 7.03166L43.0305 6.46916C40.9637 4.03228 38.2994 2.17395 35.2986 1.07616C32.2977 -0.0216257 29.0632 -0.321241 25.9118 0.206659C25.0814 0.32187 24.2605 0.497333 23.4555 0.731659C22.3999 1.97992 21.4527 3.31602 20.6243 4.72541C18.4695 8.27663 17.0953 12.2458 16.593 16.3692C16.477 17.3089 16.4082 18.2538 16.3868 19.2004C16.3868 19.4629 16.3868 19.7254 16.3868 19.9879C16.3798 23.3999 16.9634 26.7874 18.1118 30.0004C18.4023 30.8439 18.7403 31.6702 19.1243 32.4754C19.5233 33.3419 19.9676 34.1869 20.4555 35.0067C20.9618 35.8692 21.5055 36.6942 22.0868 37.5004H32.4555V42.5067H26.8305C27.8599 43.4194 28.9568 44.253 30.1118 45.0004H32.4743V46.3504C36.6647 48.515 41.3141 49.6404 46.0305 49.6317C48.8867 49.6291 51.7279 49.2187 54.468 48.4129L54.993 48.2442C55.8368 47.9817 56.6805 47.6817 57.4868 47.3442V37.5004H58.7993C61.0319 37.5665 63.2665 37.5101 65.493 37.3317C68.2594 36.9584 70.7732 35.5268 72.5055 33.3379C73.6486 31.097 74.4872 28.7134 74.9993 26.2504C74.9957 24.103 74.3776 22.0015 73.218 20.1942ZM33.843 19.9879C33.8283 20.6594 33.5512 21.2984 33.0711 21.768C32.5909 22.2377 31.9459 22.5006 31.2743 22.5004C30.7735 22.5168 30.2806 22.3722 29.868 22.0879C29.4601 21.813 29.1404 21.426 28.9475 20.9736C28.7545 20.5212 28.6966 20.0226 28.7805 19.5379C28.8778 19.0472 29.1194 18.5967 29.4743 18.2442C29.8167 17.8859 30.2624 17.6433 30.7493 17.5504C31.233 17.4525 31.7349 17.4981 32.193 17.6817C32.6552 17.8622 33.0488 18.1836 33.318 18.6004C33.5963 19.0098 33.7464 19.4929 33.7493 19.9879H33.843Z" fill="url(#paint0_linear_1_5592)"/>
<path d="M22.5 51.5625C22.5 55.95 22.5 60.3375 22.5 64.6875C22.5476 65.5522 22.4142 66.4173 22.1084 67.2276C21.8026 68.0378 21.3311 68.7753 20.724 69.3929C20.117 70.0106 19.3877 70.4948 18.5829 70.8145C17.7781 71.1343 16.9154 71.2826 16.05 71.25C14.175 71.25 12.3938 71.25 10.575 71.25C10.3669 71.2163 10.1537 71.2637 9.9794 71.3822C9.80505 71.5008 9.68271 71.6816 9.6375 71.8875C9.246 72.8896 8.53755 73.7361 7.62016 74.298C6.70277 74.86 5.62678 75.1065 4.55625 75C4.18437 74.9811 3.8176 74.9052 3.46875 74.775C3.6375 73.9313 3.8625 73.0875 4.10625 72.2625C4.56779 70.698 5.15728 69.1741 5.86875 67.7063C6.23125 66.9313 6.625 66.1812 7.05 65.4562C8.20156 65.9708 9.10886 66.9117 9.58125 68.0813C9.63916 68.3115 9.78065 68.512 9.97819 68.6437C10.1757 68.7754 10.4152 68.8288 10.65 68.7937C12.4125 68.7937 14.1938 68.7937 15.9563 68.7937C16.5028 68.8426 17.0534 68.7708 17.5692 68.5836C18.0851 68.3964 18.5535 68.0983 18.9415 67.7103C19.3295 67.3223 19.6277 66.8538 19.8149 66.338C20.0021 65.8222 20.0738 65.2716 20.025 64.725V52.7625C20.8312 52.3312 21.6562 51.9187 22.5 51.5625Z" fill="url(#paint1_linear_1_5592)"/>
<path d="M29.9996 73.4824V74.0262C29.9996 74.2748 29.9008 74.5133 29.725 74.6891C29.5492 74.8649 29.3107 74.9637 29.0621 74.9637H28.5371C28.2885 74.9637 28.05 74.8649 27.8742 74.6891C27.6984 74.5133 27.5996 74.2748 27.5996 74.0262V73.4824C27.5996 73.2338 27.6984 72.9953 27.8742 72.8195C28.05 72.6437 28.2885 72.5449 28.5371 72.5449H29.0621C29.3107 72.5449 29.5492 72.6437 29.725 72.8195C29.9008 72.9953 29.9996 73.2338 29.9996 73.4824Z" fill="url(#paint2_linear_1_5592)"/>
<path d="M44.2488 50.0441C41.8095 49.9754 39.3894 49.5909 37.0488 48.9004C39.4851 49.0007 41.9014 49.3845 44.2488 50.0441Z" fill="url(#paint3_linear_1_5592)"/>
<path d="M31.2383 22.6133C32.688 22.6133 33.8633 21.438 33.8633 19.9883C33.8633 18.5385 32.688 17.3633 31.2383 17.3633C29.7885 17.3633 28.6133 18.5385 28.6133 19.9883C28.6133 21.438 29.7885 22.6133 31.2383 22.6133Z" fill="url(#paint4_linear_1_5592)"/>
<path d="M61.2188 72.6191C62.6685 72.6191 63.8437 71.4439 63.8437 69.9941C63.8437 68.5444 62.6685 67.3691 61.2188 67.3691C59.769 67.3691 58.5938 68.5444 58.5938 69.9941C58.5938 71.4439 59.769 72.6191 61.2188 72.6191Z" fill="url(#paint5_linear_1_5592)"/>
<path d="M73.2185 20.1942C71.8759 18.074 69.8629 16.4636 67.4997 15.6192C65.6783 15.0709 63.7718 14.8612 61.8747 15.0004C61.4247 15.0004 61.181 15.0004 61.106 14.4004C60.8398 12.7184 60.1952 11.1188 59.2208 9.72223C58.2464 8.32561 56.9677 7.16843 55.481 6.33791C53.9781 5.52731 52.3118 5.06588 50.606 4.98791C48.8995 4.91126 47.1985 5.2322 45.6372 5.92541C44.906 6.24416 44.231 6.65666 43.4997 7.03166L43.031 6.46916C40.9642 4.03228 38.2999 2.17395 35.299 1.07616C32.2982 -0.0216257 29.0637 -0.321241 25.9123 0.206659C25.0819 0.32187 24.2609 0.497333 23.456 0.731659C20.3486 1.64642 17.5332 3.35527 15.2876 5.68973C13.0419 8.02419 11.4434 10.9036 10.6497 14.0442C10.6132 14.3575 10.4634 14.6466 10.2286 14.8572C9.99383 15.0679 9.69017 15.1855 9.37475 15.1879C6.60553 15.6991 4.12873 17.2303 2.4336 19.4789C0.738474 21.7276 -0.0516986 24.5302 0.219175 27.3331C0.490048 30.1361 1.80227 32.7355 3.89662 34.618C5.99097 36.5004 8.71514 37.5289 11.531 37.5004H32.456V42.5067H26.4935C25.6334 42.4666 24.7744 42.6065 23.9714 42.9174C23.1684 43.2283 22.4392 43.7034 21.8303 44.3122C21.2215 44.9211 20.7464 45.6503 20.4355 46.4533C20.1246 47.2563 19.9847 48.1153 20.0248 48.9754V64.6692C20.0736 65.2157 20.0018 65.7663 19.8146 66.2822C19.6274 66.798 19.3293 67.2664 18.9413 67.6544C18.5533 68.0425 18.0848 68.3406 17.569 68.5278C17.0532 68.715 16.5026 68.7867 15.956 68.7379C14.1935 68.7379 12.4123 68.7379 10.6497 68.7379C10.4149 68.773 10.1755 68.7195 9.97794 68.5878C9.7804 68.4561 9.63891 68.2557 9.581 68.0254C9.10861 66.8559 8.20131 65.915 7.04975 65.4004C6.46406 65.1329 5.83133 64.9836 5.18783 64.9611C4.54433 64.9386 3.90271 65.0433 3.29975 65.2692C2.10722 65.704 1.12343 66.574 0.546046 67.7044C-0.0313337 68.8348 -0.159518 70.1419 0.18725 71.3629C0.414083 72.1521 0.832265 72.8731 1.40467 73.4619C1.97708 74.0506 2.686 74.4889 3.4685 74.7379C3.81735 74.8681 4.18412 74.944 4.556 74.9629C5.62653 75.0694 6.70252 74.8229 7.61991 74.2609C8.5373 73.699 9.24575 72.8525 9.63725 71.8504C9.68246 71.6445 9.8048 71.4637 9.97915 71.3451C10.1535 71.2266 10.3666 71.1793 10.5747 71.2129C12.4497 71.2129 14.3248 71.2129 16.0498 71.2129C16.9085 71.2448 17.7646 71.0985 18.5641 70.7832C19.3635 70.4679 20.089 69.9906 20.695 69.3811C21.3009 68.7717 21.774 68.0434 22.0846 67.2422C22.3952 66.4409 22.5366 65.584 22.4998 64.7254C22.4998 60.3379 22.4998 55.9504 22.4998 51.6004V48.9567C22.4693 48.4259 22.5521 47.8948 22.7426 47.3985C22.933 46.9022 23.2268 46.4521 23.6045 46.0779C23.9822 45.7038 24.435 45.4143 24.9331 45.2285C25.4312 45.0427 25.9631 44.965 26.4935 45.0004H32.4747V46.3504C32.4747 47.2504 32.4747 48.2254 32.4747 49.0129C32.4747 49.8004 32.4747 51.1879 32.4747 52.2754C32.4534 52.76 32.5499 53.2425 32.756 53.6817C32.9762 54.1142 33.29 54.4921 33.6747 54.7879C34.248 55.2381 34.8785 55.6101 35.5497 55.8942C35.7815 55.9561 35.9823 56.1012 36.1137 56.3018C36.2452 56.5025 36.298 56.7445 36.2622 56.9817C36.2622 61.8692 36.2622 66.7629 36.2622 71.6629V72.5067H33.7497C33.4191 72.5067 33.1019 72.638 32.8681 72.8719C32.6342 73.1057 32.5029 73.4228 32.5029 73.7535C32.5029 74.0842 32.6342 74.4014 32.8681 74.6352C33.1019 74.869 33.4191 75.0004 33.7497 75.0004H37.031C38.3247 75.0004 38.6997 74.6254 38.6997 73.3317V56.9629L43.706 57.5442V69.5817C43.706 70.8379 44.081 71.2317 45.3185 71.2317C48.7122 71.2317 52.1248 71.2317 55.5373 71.2317C55.7721 71.1966 56.0115 71.2501 56.2091 71.3818C56.4066 71.5135 56.5481 71.7139 56.606 71.9442C56.8507 72.5483 57.2128 73.098 57.6713 73.5613C58.1298 74.0247 58.6756 74.3926 59.2771 74.6436C59.8787 74.8947 60.524 75.024 61.1759 75.0241C61.8277 75.0242 62.4731 74.8951 63.0747 74.6442C64.2973 74.1509 65.2747 73.1936 65.7935 71.9817C66.0351 71.385 66.1684 70.7501 66.1872 70.1067C66.1996 69.4655 66.0849 68.8282 65.8497 68.2317C65.5403 67.4546 65.0445 66.7657 64.406 66.2254L64.0872 65.9629C63.2798 65.407 62.3296 65.0946 61.3498 65.0629C60.3285 65.0223 59.3199 65.2999 58.4633 65.8575C57.6068 66.4151 56.9446 67.2251 56.5685 68.1754C56.5274 68.3848 56.4068 68.5701 56.232 68.6925C56.0572 68.8149 55.8418 68.8647 55.631 68.8317H46.256V57.5817C47.7747 57.3754 49.2185 57.2629 50.6623 57.0004C52.2751 56.7978 53.8344 56.2887 55.256 55.5004C55.565 55.3309 55.8598 55.1365 56.1372 54.9192C56.5657 54.6205 56.9111 54.2176 57.1407 53.7485C57.3703 53.2794 57.4767 52.7595 57.4497 52.2379C57.4497 51.5254 57.4497 50.7942 57.4497 50.0067H60.6372C62.0435 50.0067 62.5122 50.4004 62.5122 51.8817V61.2567C62.4844 61.4437 62.5004 61.6346 62.559 61.8143C62.6176 61.9941 62.7173 62.1577 62.85 62.2923C62.9828 62.4269 63.1451 62.5288 63.324 62.5898C63.503 62.6509 63.6936 62.6695 63.881 62.6442H68.6622C68.9954 62.6442 69.315 62.5118 69.5506 62.2762C69.7861 62.0406 69.9185 61.7211 69.9185 61.3879C69.9185 61.0547 69.7861 60.7352 69.5506 60.4996C69.315 60.264 68.9954 60.1317 68.6622 60.1317H64.9122V51.3942C64.9499 51.0891 64.9499 50.7805 64.9122 50.4754C64.7371 49.6266 64.2733 48.8646 63.5997 48.3192C62.9249 47.7777 62.0837 47.4862 61.2185 47.4942H57.4685V37.5004H58.781C61.0137 37.5665 63.2483 37.5101 65.4747 37.3317C68.2411 36.9584 70.7549 35.5268 72.4873 33.3379C73.8973 31.629 74.7713 29.5417 74.9997 27.3379C75.0198 26.9757 75.0198 26.6126 74.9997 26.2504C74.9962 24.103 74.3781 22.0015 73.2185 20.1942ZM6.731 71.7567C6.50307 71.9877 6.23161 72.1713 5.93231 72.2968C5.63301 72.4223 5.3118 72.4873 4.98725 72.4879C4.67714 72.4698 4.37547 72.38 4.106 72.2254C3.81839 72.0941 3.56255 71.9023 3.356 71.6629C2.93756 71.1939 2.7101 70.5851 2.7185 69.9567C2.72451 69.326 2.97291 68.7217 3.41225 68.2692C3.84463 67.8126 4.43457 67.5378 5.06225 67.5004C5.34019 67.4962 5.61558 67.5538 5.8685 67.6692C6.34617 67.8536 6.75724 68.1777 7.04819 68.599C7.33914 69.0204 7.49649 69.5196 7.49975 70.0317C7.46817 70.6825 7.19389 71.298 6.731 71.7567ZM58.9123 69.0567C59.092 68.5995 59.4057 68.2074 59.8122 67.9317C60.2897 67.606 60.8661 67.4577 61.4415 67.5125C62.0168 67.5673 62.5548 67.8217 62.9623 68.2317C63.4279 68.6961 63.7022 69.3184 63.731 69.9754C63.732 70.4688 63.5888 70.9517 63.3189 71.3648C63.0491 71.7779 62.6644 72.1031 62.2122 72.3004C61.7557 72.4892 61.2541 72.5413 60.7685 72.4504C60.2764 72.3688 59.8232 72.1324 59.4747 71.7754C59.1221 71.429 58.8803 70.9856 58.7802 70.5016C58.68 70.0175 58.726 69.5146 58.9123 69.0567ZM37.931 46.5567L37.556 46.4442C35.0435 45.6192 35.006 45.5629 35.006 42.9942V40.7254C41.4438 43.1727 48.5557 43.1727 54.9935 40.7254C54.9935 42.1317 54.9935 43.4442 54.9935 44.7754C54.9427 44.9815 54.8453 45.1732 54.7087 45.3357C54.5722 45.4983 54.4002 45.6273 54.206 45.7129C52.7703 46.2876 51.2905 46.7454 49.781 47.0817C45.8429 47.8022 41.7933 47.6292 37.931 46.5754V46.5567ZM54.956 37.1817C54.9084 37.3888 54.8146 37.5824 54.6814 37.7481C54.5483 37.9137 54.3793 38.047 54.1872 38.1379C52.723 38.7274 51.2113 39.1916 49.6685 39.5254C45.7405 40.2241 41.7065 40.0448 37.856 39.0004H37.631C35.081 38.1942 35.006 38.0817 35.006 35.4379V33.2254C41.4438 35.6727 48.5557 35.6727 54.9935 33.2254C54.9935 34.6129 55.0497 35.9442 54.956 37.2567V37.1817ZM53.756 30.8442C52.0157 31.4214 50.2361 31.8726 48.431 32.1942C44.8874 32.6932 41.2786 32.4441 37.8372 31.4629C36.6824 31.2478 35.6291 30.6619 34.8372 29.7942C35.4443 29.4301 36.0702 29.0984 36.7122 28.8004C39.9279 27.6404 43.3555 27.1864 46.7622 27.4692C48.9445 27.5197 51.104 27.925 53.156 28.6692C53.8309 28.9691 54.4882 29.3071 55.1247 29.6817V30.0004C54.7175 30.374 54.256 30.6837 53.756 30.9192V30.8442ZM49.7248 54.5629C45.7813 55.2961 41.7227 55.1229 37.856 54.0567H37.556C35.0435 53.2317 35.006 53.1754 35.006 50.5879V48.2254C35.681 48.4692 36.3747 48.6942 37.0497 48.9004C39.3903 49.591 41.8104 49.9754 44.2497 50.0442C47.7267 50.1239 51.1892 49.5712 54.4685 48.4129L54.9935 48.2254C54.9935 49.6504 54.9935 51.0192 54.9935 52.4067C54.9935 52.7067 54.4872 53.1004 54.1497 53.2317L52.7622 53.7004C51.7758 54.0728 50.7597 54.3613 49.7248 54.5629ZM71.9997 29.0254C71.4412 30.7173 70.3746 32.1958 68.9452 33.2595C67.5159 34.3231 65.7933 34.9201 64.0122 34.9692C61.8935 34.9692 59.756 34.9692 57.5435 34.9692V32.4942H60.8622C62.0997 32.4942 62.4935 32.1004 62.4935 30.8817V26.2504H62.831C63.0682 26.2318 63.2899 26.1254 63.4529 25.952C63.6158 25.7787 63.7083 25.5508 63.7122 25.3129V24.6942C63.7076 24.4452 63.608 24.2074 63.4336 24.0296C63.2593 23.8518 63.0236 23.7474 62.7747 23.7379C62.1504 23.6979 61.5241 23.6979 60.8997 23.7379C60.2247 23.7379 59.9435 24.3754 59.9435 25.0692V30.0004H57.5435C57.4575 29.3161 57.1845 28.6687 56.7545 28.1295C56.3245 27.5903 55.754 27.1802 55.106 26.9442C53.017 25.9516 50.7579 25.3661 48.4497 25.2192L46.256 25.0317V22.5004C46.2562 21.9983 46.1556 21.5013 45.9602 21.0389C45.7647 20.5764 45.4784 20.1579 45.1182 19.8082C44.758 19.4584 44.3312 19.1846 43.8631 19.0029C43.3951 18.8212 42.8953 18.7353 42.3935 18.7504H36.3185H36.1497C34.6872 15.7879 32.681 14.5692 30.206 15.1504C29.0908 15.3717 28.0869 15.973 27.3655 16.8517C26.644 17.7305 26.2497 18.8322 26.2498 19.9692C26.2327 21.1078 26.6029 22.2185 27.2998 23.1192C28.0102 24.0176 29.0112 24.6408 30.131 24.8817C32.6622 25.4817 34.6497 24.3004 36.1685 21.2629C38.231 21.2629 40.3122 21.2629 42.3935 21.2629C42.571 21.2494 42.7494 21.2738 42.9168 21.3345C43.0842 21.3952 43.2367 21.4907 43.3644 21.6148C43.492 21.7389 43.5918 21.8888 43.6572 22.0544C43.7226 22.22 43.752 22.3976 43.7435 22.5754C43.7435 23.3442 43.7435 24.1317 43.7435 24.9192C42.2781 25.0367 40.8199 25.2307 39.3747 25.5004C37.7367 25.8964 36.1368 26.436 34.5935 27.1129C33.9079 27.3852 33.3317 27.8769 32.9552 28.5113C32.5786 29.1456 32.4229 29.8869 32.5122 30.6192C32.606 32.0254 32.5122 33.4692 32.5122 34.9504H31.7997H11.5498C9.42807 34.9916 7.36392 34.2592 5.74265 32.89C4.12139 31.5208 3.05382 29.6084 2.73925 27.5098C2.42469 25.4111 2.88463 23.2697 4.03321 21.4854C5.18178 19.701 6.94049 18.3956 8.981 17.8129C10.2554 17.469 11.5906 17.4151 12.8885 17.6552C14.1864 17.8953 15.414 18.4234 16.481 19.2004C18.0739 20.3804 19.2072 22.0771 19.6873 24.0004C19.7998 24.4504 19.8748 24.9192 19.9498 25.4067C19.9852 25.6253 20.0969 25.8243 20.2651 25.9685C20.4332 26.1126 20.647 26.1926 20.8685 26.1942H21.5623C21.6844 26.197 21.8059 26.1744 21.9189 26.1278C22.0318 26.0812 22.1339 26.0116 22.2185 25.9234C22.3032 25.8353 22.3685 25.7305 22.4105 25.6157C22.4525 25.5009 22.4701 25.3786 22.4622 25.2567C22.2584 22.911 21.3127 20.6912 19.7623 18.9192C18.877 17.8761 17.8017 17.0108 16.5935 16.3692C15.4665 15.765 14.2517 15.3411 12.9935 15.1129C13.7622 11.6598 15.649 8.55689 18.3611 6.28549C21.0732 4.01409 24.4591 2.70117 27.9935 2.55041C31.6239 2.38501 35.2046 3.44513 38.1598 5.56037C41.115 7.6756 43.2731 10.7231 44.2873 14.2129C44.3706 14.4969 44.5575 14.7392 44.8109 14.892C45.0644 15.0448 45.366 15.0969 45.656 15.0379H45.9185C46.0778 15.0304 46.2332 14.9867 46.3731 14.9101C46.5129 14.8335 46.6335 14.7261 46.7257 14.596C46.8179 14.4659 46.8792 14.3165 46.905 14.1592C46.9308 14.0018 46.9205 13.8407 46.8747 13.6879C46.4342 12.1295 45.8046 10.6308 44.9997 9.22541C46.562 8.07768 48.4642 7.48717 50.4018 7.54835C52.3394 7.60954 54.2005 8.31889 55.6872 9.56291C59.1935 12.5254 59.681 16.5942 57.1497 21.4317C57.0942 21.5208 57.0731 21.6271 57.0904 21.7306C57.1076 21.8342 57.1621 21.9279 57.2435 21.9942L57.4123 22.1442C57.5911 22.3023 57.8024 22.4193 58.0314 22.4869C58.2604 22.5544 58.5014 22.5709 58.7374 22.5352C58.9734 22.4994 59.1987 22.4123 59.3974 22.2799C59.5961 22.1476 59.7633 21.9732 59.8872 21.7692C60.5996 20.4578 61.0696 19.0286 61.2747 17.5504C62.6903 17.3146 64.1392 17.3709 65.5322 17.7159C66.9252 18.061 68.2329 18.6874 69.3747 19.5567C70.7155 20.6866 71.6835 22.1953 72.152 23.885C72.6204 25.5746 72.5673 27.3664 71.9997 29.0254ZM33.7497 19.9879C33.7358 20.6435 33.4717 21.2689 33.0116 21.736C32.5514 22.2032 31.93 22.4766 31.2747 22.5004C30.774 22.5168 30.2811 22.3722 29.8685 22.0879C29.4606 21.813 29.1409 21.426 28.948 20.9736C28.755 20.5212 28.697 20.0226 28.781 19.5379C28.8783 19.0472 29.1199 18.5967 29.4748 18.2442C29.8172 17.8859 30.2629 17.6433 30.7497 17.5504C31.2335 17.4525 31.7353 17.4981 32.1935 17.6817C32.6557 17.8622 33.0493 18.1836 33.3185 18.6004C33.5968 19.0099 33.7469 19.4929 33.7497 19.9879Z" fill="#0C4578"/>
<path d="M72.5234 60.9746C72.5234 60.726 72.6222 60.4875 72.798 60.3117C72.9738 60.1359 73.2123 60.0371 73.4609 60.0371H73.9859C74.2346 60.0371 74.473 60.1359 74.6488 60.3117C74.8247 60.4875 74.9234 60.726 74.9234 60.9746V61.4996C74.9186 61.7467 74.8183 61.9824 74.6435 62.1572C74.4688 62.332 74.2331 62.4323 73.9859 62.4371H73.4609C73.2123 62.4371 72.9738 62.3383 72.798 62.1625C72.6222 61.9867 72.5234 61.7482 72.5234 61.4996V60.9746Z" fill="#0C4578"/>
<path d="M29.9996 73.4824V74.0262C29.9996 74.2748 29.9008 74.5133 29.725 74.6891C29.5492 74.8649 29.3107 74.9637 29.0621 74.9637H28.5371C28.2885 74.9637 28.05 74.8649 27.8742 74.6891C27.6984 74.5133 27.5996 74.2748 27.5996 74.0262V73.4824C27.5996 73.2338 27.6984 72.9953 27.8742 72.8195C28.05 72.6437 28.2885 72.5449 28.5371 72.5449H29.0621C29.3107 72.5449 29.5492 72.6437 29.725 72.8195C29.9008 72.9953 29.9996 73.2338 29.9996 73.4824Z" fill="#0C4578"/>
<path d="M67.9137 23.7759H67.3887C67.14 23.7759 66.9016 23.8747 66.7258 24.0505C66.5499 24.2263 66.4512 24.4648 66.4512 24.7134V25.2384C66.4512 25.487 66.5499 25.7255 66.7258 25.9013C66.9016 26.0771 67.14 26.1759 67.3887 26.1759H67.9137C68.1623 26.1759 68.4008 26.0771 68.5766 25.9013C68.7524 25.7255 68.8512 25.487 68.8512 25.2384V24.6946C68.8416 24.4508 68.7393 24.2198 68.565 24.049C68.3907 23.8782 68.1577 23.7805 67.9137 23.7759ZM20.9262 30.0009H11.5512C10.5999 30.0075 9.68163 29.6522 8.98243 29.0071C8.47953 28.5328 8.11752 27.9287 7.93641 27.2616C7.7553 26.5944 7.76212 25.8902 7.95613 25.2267C8.15014 24.5632 8.52379 23.9662 9.03578 23.5017C9.54778 23.0372 10.1782 22.7233 10.8574 22.5946C11.0392 22.5522 11.2013 22.4494 11.3171 22.3029C11.4329 22.1565 11.4956 21.9751 11.4949 21.7884V20.9259C11.5003 20.8112 11.4816 20.6967 11.4402 20.5896C11.3987 20.4826 11.3354 20.3853 11.2542 20.3041C11.173 20.223 11.0758 20.1596 10.9687 20.1182C10.8616 20.0767 10.7471 20.0581 10.6324 20.0634C9.04853 20.2738 7.60558 21.0835 6.60061 22.3257C5.59563 23.5678 5.10513 25.148 5.23007 26.741C5.355 28.3339 6.08587 29.8183 7.27221 30.8886C8.45855 31.9589 10.0101 32.5337 11.6074 32.4946H20.8137C20.962 32.4667 21.0971 32.3912 21.1986 32.2795C21.3001 32.1679 21.3625 32.0262 21.3762 31.8759V30.5634C21.3899 30.496 21.3887 30.4265 21.3726 30.3597C21.3565 30.2929 21.3259 30.2304 21.2829 30.1767C21.24 30.1231 21.1858 30.0795 21.1241 30.0491C21.0625 30.0187 20.9949 30.0023 20.9262 30.0009Z" fill="#0C4578"/>
</g>
<defs>
<linearGradient id="paint0_linear_1_5592" x1="16.368" y1="24.8254" x2="74.9993" y2="24.8254" gradientUnits="userSpaceOnUse">
<stop stop-color="#176AB4"/>
<stop offset="1" stop-color="#B1FFC7"/>
</linearGradient>
<linearGradient id="paint1_linear_1_5592" x1="3.46875" y1="63.2625" x2="22.5188" y2="63.2625" gradientUnits="userSpaceOnUse">
<stop stop-color="#C21500"/>
<stop offset="0.52" stop-color="#F37429"/>
<stop offset="1" stop-color="#FFD1B0"/>
</linearGradient>
<linearGradient id="paint2_linear_1_5592" x1="27.5434" y1="73.7637" x2="29.9434" y2="73.7637" gradientUnits="userSpaceOnUse">
<stop stop-color="#C21500"/>
<stop offset="0.52" stop-color="#F37429"/>
<stop offset="1" stop-color="#FFD1B0"/>
</linearGradient>
<linearGradient id="paint3_linear_1_5592" x1="37.0488" y1="49.4816" x2="44.2488" y2="49.4816" gradientUnits="userSpaceOnUse">
<stop stop-color="#C21500"/>
<stop offset="0.52" stop-color="#F37429"/>
<stop offset="1" stop-color="#FFD1B0"/>
</linearGradient>
<linearGradient id="paint4_linear_1_5592" x1="28.6133" y1="19.9883" x2="33.8633" y2="19.9883" gradientUnits="userSpaceOnUse">
<stop stop-color="#C21500"/>
<stop offset="0.52" stop-color="#F37429"/>
<stop offset="1" stop-color="#FFD1B0"/>
</linearGradient>
<linearGradient id="paint5_linear_1_5592" x1="58.5938" y1="69.9941" x2="63.8625" y2="69.9941" gradientUnits="userSpaceOnUse">
<stop stop-color="#C21500"/>
<stop offset="0.52" stop-color="#F37429"/>
<stop offset="1" stop-color="#FFD1B0"/>
</linearGradient>
<clipPath id="clip0_1_5592">
<rect width="75" height="75" fill="white"/>
</clipPath>
</defs>
</svg>
