<svg width="75" height="75" viewBox="0 0 75 75" fill="none" xmlns="http://www.w3.org/2000/svg">
<g clip-path="url(#clip0_1_5576)">
<path d="M35.4012 25.8746C35.2922 25.7678 35.2074 25.6389 35.1525 25.4966C35.0975 25.3543 35.0736 25.2019 35.0824 25.0496C35.0561 24.742 35.1513 24.4364 35.3475 24.1981C35.5438 23.9598 35.8255 23.8078 36.1324 23.7746C37.0816 23.7184 38.0333 23.7184 38.9824 23.7746C39.2908 23.8078 39.5744 23.9591 39.7736 24.1968C39.9729 24.4345 40.0723 24.7402 40.0512 25.0496C40.047 25.357 39.9269 25.6515 39.7147 25.874C39.5026 26.0965 39.2143 26.2307 38.9074 26.2496H37.5012C37.0699 26.2496 36.6199 26.2496 36.1887 26.2496C36.0388 26.2437 35.8918 26.2075 35.7564 26.143C35.621 26.0785 35.5002 25.9872 35.4012 25.8746Z" fill="url(#paint0_linear_1_5576)"/>
<path d="M35.0809 30.2254C34.9496 29.3629 35.5309 28.7441 36.5246 28.7441H47.2871C48.1871 28.7441 48.7684 29.2316 48.8059 29.9816C48.8434 30.7316 48.2434 31.2566 47.2871 31.2566H36.5246C35.6246 31.2566 35.1746 30.8816 35.0809 30.2254Z" fill="url(#paint1_linear_1_5576)"/>
<path d="M35.2305 20.6247C35.138 20.4382 35.0898 20.2328 35.0898 20.0247C35.0898 19.8165 35.138 19.6111 35.2305 19.4246C35.3659 19.258 35.5312 19.1181 35.718 19.0122C35.9096 18.8679 36.1361 18.7773 36.3743 18.7497C41.3055 18.7497 46.2555 18.7497 51.2055 18.7497C51.3757 18.7367 51.5468 18.7591 51.7079 18.8155C51.869 18.8719 52.0168 18.961 52.1418 19.0772C52.2668 19.1934 52.3665 19.3343 52.4344 19.4909C52.5024 19.6475 52.5372 19.8164 52.5368 19.9872C52.5371 20.1586 52.5023 20.3284 52.4345 20.4859C52.3667 20.6434 52.2674 20.7854 52.1427 20.9031C52.018 21.0207 51.8705 21.1117 51.7093 21.1702C51.5481 21.2287 51.3767 21.2536 51.2055 21.2434H43.7055C41.268 21.2434 38.8305 21.2434 36.4118 21.2434C36.182 21.2053 35.9603 21.1293 35.7555 21.0184C35.5587 20.919 35.381 20.7857 35.2305 20.6247Z" fill="url(#paint2_linear_1_5576)"/>
<path d="M52.4992 25.0319C52.4976 25.2045 52.4599 25.3748 52.3885 25.5319C52.3171 25.6891 52.2136 25.8296 52.0847 25.9443C51.9558 26.0591 51.8043 26.1457 51.64 26.1984C51.4757 26.2512 51.3021 26.2689 51.1305 26.2506H43.9492C43.068 26.2506 42.543 25.7444 42.543 25.0131C42.542 24.8365 42.5783 24.6617 42.6495 24.5C42.7207 24.3384 42.8251 24.1935 42.9561 24.075C43.087 23.9564 43.2414 23.8668 43.4093 23.812C43.5773 23.7572 43.7548 23.7384 43.9305 23.7569H51.168C51.3414 23.7436 51.5157 23.767 51.6794 23.8257C51.8432 23.8843 51.9928 23.9767 52.1184 24.097C52.244 24.2174 52.3428 24.3628 52.4085 24.5239C52.4741 24.6849 52.505 24.858 52.4992 25.0319Z" fill="url(#paint3_linear_1_5576)"/>
<path d="M71.925 63.9383C68.55 60.6008 65.1937 57.2258 61.8375 53.8508C61.65 53.682 61.4812 53.4758 61.2937 53.2883L61.65 52.7445C64.1944 49.0016 65.9631 44.7868 66.8517 40.349C67.7403 35.9113 67.7307 31.3404 66.8237 26.9064C65.9166 22.4724 64.1303 18.265 61.5704 14.5327C59.0104 10.8004 55.7286 7.61882 51.9188 5.17578C50.5313 5.30765 49.1536 5.52684 47.7937 5.83203C46.5273 6.0977 45.2756 6.4294 44.0437 6.82578C40.1044 8.12986 36.41 10.0816 33.1125 12.6008C32.1273 13.3432 31.1881 14.1447 30.3 15.0008C29.0026 16.2198 27.7933 17.5294 26.6812 18.9195C26.0625 19.6695 25.4812 20.4758 24.9187 21.282C26.526 21.2572 28.1173 21.6037 29.5688 22.2945C29.775 22.3883 30.0375 22.6508 30.0375 22.8383C30.0375 25.3133 30.0375 27.7883 30.0375 30.3383L29.85 30.507C28.875 29.9445 27.8625 29.4195 26.9437 28.7633C26.7375 28.632 26.55 28.5008 26.3625 28.407C25.8695 28.118 25.2961 27.9964 24.7282 28.0607C24.1603 28.1249 23.6285 28.3714 23.2125 28.7633C22.3784 29.394 21.4642 29.9111 20.4938 30.3008C20.1688 31.2633 19.8875 32.2383 19.65 33.2258C21.5514 32.7158 23.3391 31.8506 24.9187 30.6758L28.1812 32.3633L30.0563 33.3008C30.0602 33.7274 30.0915 34.1532 30.15 34.5758C30.335 35.3965 30.7906 36.1311 31.4435 36.6617C32.0964 37.1922 32.9088 37.4877 33.75 37.5008C34.5938 37.5008 35.4188 37.5008 36.3188 37.5008C36.3395 37.7963 36.2428 38.088 36.0497 38.3127C35.8567 38.5374 35.5828 38.6768 35.2875 38.7008C34.1437 38.9258 33.9188 39.2258 33.825 40.407C33.8331 41.508 33.5747 42.5946 33.0719 43.5741C32.5691 44.5536 31.8368 45.3969 30.9375 46.032C29.7188 46.8195 28.4625 47.5695 27.1875 48.2445C26.5545 48.5667 25.854 48.7338 25.1437 48.732C24.4373 48.7201 23.7411 48.5604 23.1 48.2633C21.5179 47.6286 20.049 46.7421 18.75 45.6383C18.8812 46.8945 19.0688 48.1133 19.3125 49.3883C19.4498 49.4293 19.5819 49.4859 19.7063 49.557C20.7025 50.1588 21.7744 50.6254 22.8938 50.9445C23.2688 51.057 23.6625 51.132 24.0375 51.207C25.6387 51.3855 27.2577 51.1059 28.7063 50.4008C29.189 50.2313 29.6439 49.9912 30.0563 49.6883C30.2887 49.5007 30.5725 49.3878 30.8703 49.3643C31.1681 49.3409 31.4661 49.4081 31.725 49.557C33.4213 50.2624 34.8729 51.4506 35.8996 52.9739C36.9263 54.4973 37.4828 56.2888 37.5 58.1258C37.5 59.8133 37.5 59.8508 35.85 60.0008C31.0241 60.4369 26.1736 59.4941 21.8625 57.282C22.4196 58.4737 23.0457 59.6319 23.7375 60.7508C24.4052 61.8977 25.1377 63.0058 25.9312 64.0695C26.7376 65.1577 27.6079 66.1971 28.5375 67.182H28.6875C34.777 68.1971 41.0302 67.4219 46.6875 64.9508C48.975 63.9758 51.15 62.7008 53.3625 61.5383L53.4562 61.2383C53.5706 61.4851 53.7224 61.7128 53.9062 61.9133C57.375 65.4195 60.8625 68.8695 64.3313 72.3945C65.408 73.6461 66.8297 74.5526 68.4188 75.0008H70.4625C70.8 74.8695 71.1375 74.757 71.4563 74.607C72.213 74.3212 72.8976 73.8724 73.4614 73.2924C74.0252 72.7123 74.4545 72.0153 74.7187 71.2508L75 70.5195V68.2695C74.3836 66.5753 73.3213 65.0788 71.925 63.9383ZM34.1063 35.007C33.0188 35.007 32.5688 34.5383 32.5688 33.432V16.557C32.5688 15.4133 32.9813 14.982 34.1063 14.982H51.5062C51.9096 15.003 52.2935 15.1619 52.5938 15.432C55.0125 17.8695 55.0125 17.8883 55.0125 21.3008V33.2445C55.0125 34.5758 54.6187 34.9508 53.25 34.9508H46.5938C46.296 34.9482 46.001 35.0068 45.7268 35.1229C45.4527 35.239 45.2053 35.4102 45 35.6258C43.4438 36.9758 41.8875 38.2883 40.2937 39.5633C39.9572 39.7613 39.5895 39.9008 39.2062 39.9758C39.0482 39.6273 38.9288 39.2627 38.85 38.8883C38.85 38.1008 38.85 37.3133 38.85 36.5445C38.8787 36.3417 38.8596 36.1349 38.7941 35.9407C38.7286 35.7466 38.6185 35.5705 38.4727 35.4265C38.3269 35.2825 38.1494 35.1747 37.9545 35.1116C37.7595 35.0485 37.5525 35.032 37.35 35.0633L34.1063 35.007Z" fill="url(#paint4_linear_1_5576)"/>
<path d="M2.60621 33.5992C2.55068 41.6223 5.60107 49.3557 11.1187 55.1805C9.79012 55.1611 8.46846 54.9849 7.18121 54.6555C4.14851 50.7976 2.00961 46.3149 0.918708 41.5305C-0.535338 35.3824 -0.262815 28.9522 1.70621 22.9492C2.82323 22.1875 4.02506 21.5583 5.28746 21.0742C3.52817 25.0159 2.61478 29.2827 2.60621 33.5992Z" fill="url(#paint5_linear_1_5576)"/>
<path d="M29.0238 37.5934C29.0361 41.6612 27.6305 45.6061 25.0488 48.7496C24.4165 49.5256 23.7134 50.2412 22.9488 50.8871C21.2949 52.3222 19.387 53.4351 17.3238 54.1684C16.3739 54.5122 15.3949 54.7695 14.3988 54.9371C10.0463 50.9823 7.04296 45.7626 5.81125 40.0121C4.34725 33.3246 5.28316 26.3351 8.455 20.2684C9.43941 20.0957 10.4368 20.0079 11.4363 20.0059C8.62974 24.5451 7.31815 29.8505 7.68625 35.1746C7.93425 40.25 9.6831 45.1377 12.7113 49.2184L13.105 49.7434C13.1136 49.7867 13.1136 49.8313 13.105 49.8746L16.6863 47.2684L16.4613 47.0059C15.0057 45.6075 14.1065 43.729 13.93 41.7184C13.9159 41.5297 13.8512 41.3483 13.7425 41.1934C13.6299 41.0459 13.4814 40.9297 13.3113 40.8559C12.7661 40.6115 12.2991 40.2213 11.9616 39.7283C11.6241 39.2353 11.4294 38.6587 11.3988 38.0621C11.2611 35.5056 11.3112 32.9425 11.5488 30.3934C11.7879 28.4962 12.4388 26.6741 13.4557 25.0548C14.4727 23.4354 15.8312 22.0578 17.4363 21.0184C18.4064 21.3677 19.3418 21.8071 20.23 22.3309C22.7369 23.7771 24.8491 25.8185 26.38 28.2746C27.1741 29.5063 27.8044 30.8363 28.255 32.2309C28.7915 33.9669 29.0509 35.7766 29.0238 37.5934Z" fill="url(#paint6_linear_1_5576)"/>
<path d="M71.925 63.9375C68.55 60.6 65.1937 57.225 61.8375 53.85C61.65 53.6812 61.4812 53.475 61.2937 53.2875L61.65 52.7437C64.1943 49.0008 65.963 44.786 66.8516 40.3483C67.7402 35.9105 67.7307 31.3397 66.8236 26.9056C65.9165 22.4716 64.1303 18.2642 61.5703 14.5319C59.0104 10.7996 55.7286 7.61803 51.9187 5.175C48.6483 3.08392 45.0378 1.58007 41.25 0.73125C39.975 0.45 38.7 0.24375 37.5 0H30.1875L29.85 0.13125C26.8516 0.463406 23.9159 1.22102 21.1312 2.38125C16.6094 4.21703 12.5395 7.01162 9.20219 10.5723C5.86483 14.133 3.33938 18.3752 1.79996 23.0063C-0.169066 29.0092 -0.441588 35.4395 1.01246 41.5875C2.10336 46.3719 4.24226 50.8546 7.27496 54.7125C12.5844 61.3954 20.2158 65.8337 28.65 67.1438H28.8C34.8894 68.1588 41.1426 67.3837 46.8 64.9125C49.0875 63.9375 51.2625 62.6625 53.475 61.5L53.5687 61.2C53.6831 61.4468 53.8349 61.6745 54.0187 61.875C57.4875 65.3812 60.975 68.8313 64.4437 72.3562C65.4851 73.6034 66.8659 74.5217 68.4187 75H70.4625C70.8 74.8688 71.1375 74.7562 71.4562 74.6063C72.213 74.3205 72.8975 73.8716 73.4614 73.2916C74.0252 72.7116 74.4545 72.0145 74.7187 71.25L75 70.5188V68.2688C74.3836 66.5745 73.3212 65.0781 71.925 63.9375ZM33.75 64.9688C31.1001 64.9653 28.461 64.6315 25.8937 63.975C19.1898 62.2175 13.2618 58.278 9.04508 52.7779C4.82836 47.2778 2.56293 40.5303 2.60621 33.6C2.62001 29.2961 3.53329 25.0427 5.28746 21.1125C7.74381 15.5618 11.7624 10.8458 16.853 7.53969C21.9436 4.23362 27.8863 2.48036 33.9562 2.49375C38.7665 2.50658 43.5065 3.64981 47.7937 5.83125C54.0716 8.99243 59.0998 14.1785 62.0655 20.551C65.0312 26.9235 65.7611 34.11 64.1371 40.9487C62.5131 47.7873 58.6301 53.8784 53.116 58.2372C47.6018 62.5959 40.7788 64.9676 33.75 64.9688ZM72.375 69.8625C72.2908 70.4055 72.0644 70.9166 71.7187 71.3438C71.3685 71.7716 70.9083 72.0957 70.3875 72.2812C69.8724 72.4718 69.3163 72.5235 68.775 72.4313C68.2348 72.3218 67.7315 72.0766 67.3125 71.7188C67.1056 71.5521 66.9113 71.3703 66.7312 71.175L55.875 60.2438C55.7694 60.1344 55.6496 60.0398 55.5187 59.9625L59.8875 55.575L59.7375 55.3688L60.15 55.7437L71.4 66.9938C71.7978 67.3477 72.1006 67.7957 72.2808 68.2969C72.4609 68.798 72.5126 69.3362 72.4312 69.8625H72.375Z" fill="#0C4578"/>
<path d="M62.005 28.3317C61.0743 23.5175 58.9362 19.0186 55.7911 15.257C52.646 11.4953 48.5969 8.59407 44.0238 6.82542C42.4358 6.23121 40.798 5.77943 39.13 5.47542C38.8039 5.3998 38.4611 5.45357 38.1738 5.62542C37.8944 5.80398 37.6882 6.0767 37.5925 6.39417C37.5502 6.55422 37.5399 6.72107 37.5622 6.88511C37.5846 7.04916 37.6392 7.20716 37.7228 7.35005C37.8065 7.49293 37.9175 7.61787 38.0496 7.71768C38.1817 7.8175 38.3322 7.89022 38.4925 7.93167L38.9238 8.04417L40.0863 8.38167C41.3612 8.73792 42.6175 9.09417 43.8363 9.54417C45.6741 10.2164 47.3761 11.2135 48.8612 12.4879H48.0737C43.4613 12.4879 38.8488 12.4879 34.255 12.4879C33.8574 12.4842 33.4608 12.5283 33.0738 12.6192C32.4464 12.7463 31.8621 13.0318 31.3763 13.4486C30.8906 13.8655 30.5196 14.3997 30.2988 15.0004C30.0974 15.5585 30.0144 16.1523 30.055 16.7442C30.055 17.7004 30.055 18.6192 30.055 19.7067L29.4738 19.5379C28.5699 19.2232 27.6322 19.0155 26.68 18.9192C25.212 18.7315 23.7231 18.7885 22.2738 19.0879C19.5325 19.6376 17.0291 21.0237 15.1084 23.0553C13.1876 25.0868 11.944 27.6639 11.5488 30.4317C11.3112 32.9808 11.2611 35.5439 11.3988 38.1004C11.436 38.7053 11.6419 39.2876 11.9932 39.7813C12.3445 40.2751 12.8271 40.6606 13.3863 40.8942C13.5564 40.968 13.7049 41.0842 13.8175 41.2317C13.9262 41.3866 13.9909 41.568 14.005 41.7567C14.1815 43.7673 15.0807 45.6458 16.5363 47.0442L16.7613 47.3067L13.1238 49.8754C13.1323 49.8321 13.1323 49.7875 13.1238 49.7442L12.73 49.2192C9.70185 45.1385 7.953 40.2509 7.705 35.1754C7.3369 29.8513 8.6485 24.5459 11.455 20.0067C12.3701 18.5453 13.425 17.1764 14.605 15.9192C17.0073 13.2771 19.9334 11.164 23.197 9.71462C26.4607 8.2652 29.9903 7.51114 33.5613 7.50042C34.555 7.50042 35.08 6.99417 35.0613 6.18792C35.0549 6.00271 35.0077 5.8212 34.9229 5.65639C34.8382 5.49159 34.7181 5.34758 34.5711 5.23467C34.4241 5.12177 34.254 5.04278 34.073 5.00336C33.8919 4.96394 33.7043 4.96507 33.5238 5.00667C31.3441 5.13526 29.1763 5.4172 27.0363 5.85042C23.0919 6.79434 19.3942 8.56871 16.19 11.0551C12.9858 13.5415 10.3488 16.6827 8.455 20.2692C5.28316 26.3359 4.34725 33.3254 5.81125 40.0129C7.04369 45.7974 10.0683 51.0461 14.455 55.0129C17.1917 57.4929 20.3726 59.4332 23.83 60.7317C29.3146 62.8363 35.3206 63.1707 41.005 61.6879C48.0993 59.8552 54.2251 55.3807 58.1289 49.18C62.0326 42.9792 63.4193 35.5211 62.005 28.3317ZM34.105 15.0004H51.505C51.9084 15.0214 52.2923 15.1802 52.5925 15.4504C55.0112 17.8879 55.0112 17.9067 55.0112 21.3192V33.2629C55.0112 34.5942 54.6175 34.9692 53.2487 34.9692H46.5925C46.2962 34.9642 46.0019 35.0198 45.7278 35.1327C45.4538 35.2455 45.2057 35.4132 44.9987 35.6254C43.4425 36.9754 41.8862 38.2879 40.2925 39.5629C39.956 39.761 39.5882 39.9005 39.205 39.9754C39.047 39.627 38.9275 39.2623 38.8488 38.8879C38.8488 38.1004 38.8488 37.3129 38.8488 36.5442C38.8775 36.3413 38.8584 36.1345 38.7928 35.9404C38.7273 35.7462 38.6173 35.5701 38.4715 35.4261C38.3257 35.2821 38.1482 35.1743 37.9532 35.1112C37.7583 35.0482 37.5513 35.0316 37.3488 35.0629H34.105C33.0175 35.0629 32.5675 34.5942 32.5675 33.4879V16.6129C32.5675 15.4504 32.98 15.0004 34.105 15.0004ZM13.7988 33.7504C13.8195 32.615 13.9071 31.4818 14.0613 30.3567C14.5434 27.8753 15.8471 25.6287 17.7622 23.9789C19.6773 22.3291 22.0922 21.3724 24.6175 21.2629H24.9175C26.5248 21.2381 28.1161 21.5846 29.5675 22.2754C29.7738 22.3692 30.0363 22.6317 30.0363 22.8192C30.0363 25.2942 30.0363 27.7692 30.0363 30.3192L29.8488 30.4879C28.8738 29.9254 27.8613 29.4004 26.9425 28.7442C26.7363 28.6129 26.5488 28.4817 26.3613 28.3879C25.8682 28.0988 25.2948 27.9773 24.7269 28.0415C24.159 28.1058 23.6273 28.3523 23.2113 28.7442C22.3772 29.3749 21.4629 29.892 20.4925 30.2817C19.6047 30.634 18.6802 30.8855 17.7363 31.0317C16.9023 31.0834 16.102 31.3795 15.4352 31.8829C14.7683 32.3864 14.2644 33.075 13.9863 33.8629L13.7988 33.7504ZM16.3488 40.2567C16.2175 39.1692 16.03 38.9067 14.98 38.7004C14.6749 38.6813 14.3886 38.5465 14.1796 38.3235C13.9705 38.1005 13.8544 37.8061 13.855 37.5004C13.8541 37.1928 13.9695 36.8962 14.1782 36.6702C14.3869 36.4441 14.6733 36.3053 14.98 36.2817C15.9738 36.0942 16.18 35.8879 16.3488 34.8754C16.3784 34.5323 16.5282 34.2106 16.7717 33.9671C17.0152 33.7236 17.3369 33.5738 17.68 33.5442C18.3514 33.4536 19.0155 33.3158 19.6675 33.1317C21.5689 32.6217 23.3566 31.7565 24.9363 30.5817L28.1988 32.2692L30.0738 33.2067C30.0777 33.6332 30.109 34.0591 30.1675 34.4817C30.3332 35.3166 30.778 36.0703 31.4289 36.6189C32.0797 37.1675 32.8978 37.4784 33.7488 37.5004C34.5925 37.5004 35.4175 37.5004 36.3175 37.5004C36.3382 37.7959 36.2416 38.0877 36.0485 38.3123C35.8554 38.537 35.5815 38.6765 35.2863 38.7004C34.1425 38.9254 33.9175 39.2254 33.8238 40.4067C33.8319 41.5076 33.5735 42.5942 33.0707 43.5737C32.5679 44.5532 31.8356 45.3965 30.9363 46.0317C29.7175 46.8192 28.4613 47.5692 27.1863 48.2442C26.5533 48.5663 25.8528 48.7334 25.1425 48.7317C24.436 48.7198 23.7398 48.5601 23.0988 48.2629C21.5167 47.6282 20.0477 46.7418 18.7488 45.6379C18.5546 45.4973 18.3727 45.3405 18.205 45.1692C17.0009 43.8171 16.3397 42.0672 16.3488 40.2567ZM35.905 59.8879C31.0791 60.324 26.2286 59.3812 21.9175 57.1692C20.6478 56.4945 19.4318 55.7235 18.28 54.8629L17.38 54.1504C16.555 53.4754 15.7488 52.7254 14.8863 51.9754C15.9451 50.7181 17.3352 49.7827 18.8988 49.2754C19.0517 49.2301 19.2145 49.2301 19.3675 49.2754C19.5048 49.3164 19.6369 49.3731 19.7613 49.4442C20.7575 50.046 21.8294 50.5125 22.9488 50.8317C23.3238 50.9442 23.7175 51.0192 24.0925 51.0942C25.6937 51.2726 27.3127 50.9931 28.7613 50.2879C29.244 50.1185 29.6989 49.8783 30.1113 49.5754C30.3437 49.3878 30.6275 49.2749 30.9253 49.2515C31.2231 49.2281 31.5211 49.2952 31.78 49.4442C33.4834 50.1656 34.9352 51.3748 35.9528 52.9195C36.9705 54.4643 37.5083 56.2756 37.4987 58.1254C37.4987 59.7379 37.5925 59.7754 35.905 59.8879ZM58.6862 41.8692C57.3269 46.1244 54.8975 49.9591 51.6307 53.0059C48.364 56.0526 44.3695 58.2093 40.03 59.2692C40.2376 56.8166 39.7157 54.3573 38.53 52.2004C37.3043 50.0687 35.4515 48.3664 33.2238 47.3254C34.934 45.8322 36.0019 43.7366 36.205 41.4754C36.2231 41.3772 36.2627 41.2842 36.3211 41.2031C36.3794 41.1221 36.4551 41.055 36.5425 41.0067C36.5425 41.0067 36.8425 41.1379 36.955 41.2692C37.2253 41.6254 37.5675 41.9208 37.9594 42.1362C38.3513 42.3515 38.7841 42.482 39.2297 42.5192C39.6754 42.5563 40.1238 42.4993 40.546 42.3517C40.9681 42.2042 41.3545 41.9695 41.68 41.6629C43.1425 40.4442 44.5863 39.1879 46.0675 38.0067C46.4416 37.7235 46.8926 37.56 47.3613 37.5379C49.405 37.5379 51.4488 37.5379 53.4925 37.5379C54.0374 37.5863 54.5862 37.515 55.1006 37.3288C55.6149 37.1427 56.0823 36.8463 56.47 36.4604C56.8577 36.0745 57.1562 35.6085 57.3448 35.095C57.5333 34.5815 57.6072 34.033 57.5613 33.4879V23.0817C59.9988 25.6129 60.73 35.8504 58.6862 41.8692Z" fill="#0C4578"/>
<path d="M52.5004 19.9868C52.5007 20.1583 52.4659 20.328 52.3982 20.4855C52.3304 20.6431 52.2311 20.785 52.1064 20.9027C51.9817 21.0204 51.8342 21.1113 51.673 21.1699C51.5118 21.2284 51.3404 21.2533 51.1692 21.2431H43.6692C41.2317 21.2431 38.7942 21.2431 36.3754 21.2431C36.1457 21.205 35.9239 21.1289 35.7192 21.0181C35.5245 20.9001 35.353 20.7476 35.2129 20.5681C35.1204 20.3816 35.0723 20.1762 35.0723 19.9681C35.0723 19.7599 35.1204 19.5546 35.2129 19.3681C35.3483 19.2014 35.5137 19.0615 35.7004 18.9556C35.9032 18.8282 36.1361 18.757 36.3754 18.7493C41.3067 18.7493 46.2567 18.7493 51.2067 18.7493C51.3739 18.7417 51.5408 18.7681 51.6975 18.8269C51.8542 18.8857 51.9974 18.9756 52.1183 19.0913C52.2393 19.207 52.3355 19.346 52.4011 19.4999C52.4668 19.6538 52.5006 19.8195 52.5004 19.9868Z" fill="#0C4578"/>
<path d="M48.7495 29.9992C48.7495 30.7305 48.187 31.2742 47.2307 31.2742H36.5245C35.6807 31.2742 35.1745 30.8992 35.0807 30.243C34.987 29.5867 35.5307 28.7617 36.5245 28.7617H47.287C48.187 28.7617 48.7495 29.2305 48.7495 29.9992Z" fill="#0C4578"/>
<path d="M52.4992 25.0319C52.4976 25.2045 52.4599 25.3748 52.3885 25.5319C52.3171 25.6891 52.2136 25.8296 52.0847 25.9443C51.9558 26.0591 51.8043 26.1457 51.64 26.1984C51.4757 26.2512 51.3021 26.2689 51.1305 26.2506H43.9492C43.068 26.2506 42.543 25.7444 42.543 25.0131C42.542 24.8365 42.5783 24.6617 42.6495 24.5C42.7207 24.3384 42.8251 24.1935 42.9561 24.075C43.087 23.9564 43.2414 23.8668 43.4093 23.812C43.5773 23.7572 43.7548 23.7384 43.9305 23.7569H51.168C51.3414 23.7436 51.5157 23.767 51.6794 23.8257C51.8432 23.8843 51.9928 23.9767 52.1184 24.097C52.244 24.2174 52.3428 24.3628 52.4085 24.5239C52.4741 24.6849 52.505 24.858 52.4992 25.0319Z" fill="#0C4578"/>
<path d="M40.0504 25.0504C40.0462 25.3578 39.9261 25.6523 39.714 25.8748C39.5019 26.0973 39.2135 26.2315 38.9066 26.2504H37.5004C37.0691 26.2504 36.6191 26.2504 36.1879 26.2504C36.0363 26.2494 35.8864 26.2173 35.7477 26.156C35.6091 26.0947 35.4844 26.0056 35.3816 25.8941C35.2727 25.7873 35.1879 25.6585 35.1329 25.5161C35.0779 25.3738 35.0541 25.2214 35.0629 25.0691C35.0366 24.7616 35.1318 24.4559 35.328 24.2176C35.5242 23.9793 35.806 23.8273 36.1129 23.7941C37.0621 23.7379 38.0137 23.7379 38.9629 23.7941C39.2712 23.8228 39.5566 23.9695 39.7592 24.2036C39.9619 24.4377 40.0662 24.7411 40.0504 25.0504Z" fill="#0C4578"/>
</g>
<defs>
<linearGradient id="paint0_linear_1_5576" x1="35.0824" y1="24.9933" x2="40.0512" y2="24.9933" gradientUnits="userSpaceOnUse">
<stop stop-color="#176AB4"/>
<stop offset="1" stop-color="#B1FFC7"/>
</linearGradient>
<linearGradient id="paint1_linear_1_5576" x1="35.0621" y1="30.0004" x2="48.8059" y2="30.0004" gradientUnits="userSpaceOnUse">
<stop stop-color="#176AB4"/>
<stop offset="1" stop-color="#B1FFC7"/>
</linearGradient>
<linearGradient id="paint2_linear_1_5576" x1="35.118" y1="20.0059" x2="52.5368" y2="20.0059" gradientUnits="userSpaceOnUse">
<stop stop-color="#176AB4"/>
<stop offset="1" stop-color="#B1FFC7"/>
</linearGradient>
<linearGradient id="paint3_linear_1_5576" x1="42.543" y1="24.9944" x2="52.5367" y2="24.9944" gradientUnits="userSpaceOnUse">
<stop stop-color="#176AB4"/>
<stop offset="1" stop-color="#B1FFC7"/>
</linearGradient>
<linearGradient id="paint4_linear_1_5576" x1="18.8062" y1="40.0883" x2="75" y2="40.0883" gradientUnits="userSpaceOnUse">
<stop stop-color="#176AB4"/>
<stop offset="1" stop-color="#B1FFC7"/>
</linearGradient>
<linearGradient id="paint5_linear_1_5576" x1="-4.15999e-05" y1="38.1555" x2="11.1187" y2="38.1555" gradientUnits="userSpaceOnUse">
<stop stop-color="#C21500"/>
<stop offset="0.52" stop-color="#F37429"/>
<stop offset="1" stop-color="#FFD1B0"/>
</linearGradient>
<linearGradient id="paint6_linear_1_5576" x1="5.13625" y1="37.4621" x2="29.0238" y2="37.4621" gradientUnits="userSpaceOnUse">
<stop stop-color="#C21500"/>
<stop offset="0.52" stop-color="#F37429"/>
<stop offset="1" stop-color="#FFD1B0"/>
</linearGradient>
<clipPath id="clip0_1_5576">
<rect width="75" height="75" fill="white"/>
</clipPath>
</defs>
</svg>
