<svg width="77" height="75" viewBox="0 0 77 75" fill="none" xmlns="http://www.w3.org/2000/svg">
<g clip-path="url(#clip0_1_5543)">
<path d="M73.1087 26.9554C73.1087 26.9554 73.1087 26.9554 73.1087 26.8617C72.79 24.3686 72.4526 21.8754 72.1152 19.3636C72.2464 19.2698 72.565 19.0824 72.8275 18.8762C73.4625 18.4488 73.9373 17.8223 74.1771 17.0954C74.4214 16.3719 74.4214 15.5882 74.1771 14.8647C73.5938 13.5342 72.8578 12.2761 71.9839 11.1156C71.52 10.6136 70.9213 10.2557 70.2594 10.0846C69.6883 9.91181 69.0843 9.87778 68.4974 9.98537C67.9105 10.093 67.3578 10.3391 66.8852 10.7032C65.244 8.94356 63.3485 7.43974 61.2616 6.24184C61.0554 6.24184 61.0179 5.71697 61.0554 5.47328C61.2697 4.6672 61.2004 3.81195 60.8592 3.05089C60.5179 2.28983 59.9253 1.66921 59.1809 1.29307C57.6985 0.744174 56.1755 0.311721 54.6258 -0.000352263C54.3626 -0.022553 54.0981 0.022604 53.8572 0.130865C53.1287 0.324222 52.4719 0.724586 51.9662 1.2835C51.4605 1.84242 51.1277 2.53592 51.0079 3.28008H50.6705C48.3673 3.23473 46.0712 3.551 43.866 4.21734C43.4161 4.34856 43.2849 4.06738 43.0974 3.76746C42.7227 3.06106 42.1131 2.50775 41.3738 2.20313C40.6345 1.89851 39.812 1.86172 39.0484 2.09912C37.5638 2.74003 36.1554 3.54482 34.8495 4.49852C34.4296 4.93641 34.1379 5.48102 34.0059 6.07313C33.8552 6.60325 33.8232 7.16008 33.9122 7.70397C34.0029 8.24405 34.2143 8.75667 34.5308 9.2036L29.8445 15.3708H29.6008C29.0931 15.2138 28.5579 15.1665 28.0305 15.232C27.5032 15.2976 26.9958 15.4745 26.5421 15.751C26.0883 16.0275 25.6985 16.3973 25.3985 16.8359C25.0985 17.2745 24.8952 17.7719 24.802 18.2951C24.577 18.9887 24.3896 19.7197 24.2209 20.432C24.0749 20.9048 24.0239 21.4017 24.0709 21.8942C24.1914 22.8688 24.6895 23.7573 25.4581 24.3686C25.8426 24.6841 26.2899 24.9141 26.7702 25.0434C27.3701 25.2308 27.5388 25.4933 27.3139 26.0744C24.7841 25.9828 22.2553 26.2799 19.8157 26.9554C19.647 26.9554 19.2721 26.7492 19.1409 26.5243C18.7395 25.8193 18.1128 25.2697 17.3615 24.9638C16.6102 24.6578 15.7779 24.6132 14.9982 24.8372C14.717 25.8494 14.4921 26.8804 14.3046 27.9302C13.2762 33.7272 13.6721 39.6873 15.4583 45.2974C17.2446 50.9075 20.3675 55.9993 24.5583 60.1346C25.4759 61.0395 26.4395 61.8967 27.4451 62.7027C30.9336 65.5095 34.9124 67.6451 39.1796 69.0012C40.1033 69.2995 41.0419 69.5497 41.9914 69.751C42.1122 69.5317 42.2066 69.2989 42.2726 69.0574C42.411 68.5702 42.4493 68.0601 42.3851 67.5578C42.3264 67.0562 42.167 66.5716 41.9165 66.1331C41.8618 66.0585 41.8235 65.9732 41.8041 65.8827C41.7847 65.7923 41.7847 65.6987 41.804 65.6082C41.8261 65.4183 41.92 65.2439 42.0664 65.1209C43.3973 63.4713 44.6908 61.803 45.9467 60.0596C46.0279 59.8909 46.1678 59.7576 46.3404 59.6847C46.5172 59.6287 46.7071 59.6287 46.884 59.6847C47.8408 59.9307 48.856 59.7891 49.709 59.2906C50.5619 58.7922 51.1837 57.9772 51.4391 57.0229C51.6453 56.2918 51.8327 55.542 52.0202 54.8109C52.1914 54.3412 52.2669 53.8419 52.2423 53.3426C52.2177 52.8432 52.0934 52.3538 51.8768 51.9031C51.6602 51.4525 51.3557 51.0497 50.9811 50.7185C50.6066 50.3873 50.1695 50.1344 49.6958 49.9747C49.4896 49.8622 49.3771 49.5435 49.2084 49.3186C49.4521 49.1874 49.677 48.9249 49.9207 48.9249C50.858 48.8312 51.7952 48.9249 52.8075 48.7375C54.1759 48.55 55.5256 48.2688 56.9127 48.0064C57.1519 48.554 57.5143 49.039 57.9717 49.4236C58.4291 49.8081 58.9692 50.0818 59.5498 50.2234C60.1304 50.3649 60.7358 50.3704 61.3189 50.2395C61.9019 50.1085 62.4469 49.8447 62.9112 49.4685L64.4858 48.55C64.9236 48.3059 65.3115 47.9816 65.6293 47.594C65.9309 47.1936 66.1593 46.743 66.3041 46.2631C66.439 45.7815 66.4709 45.2769 66.3978 44.7822C66.3367 44.2871 66.1774 43.8091 65.9292 43.3763C65.8221 43.2095 65.7758 43.0109 65.798 42.8139C65.8306 42.6179 65.9299 42.4391 66.0792 42.3078C67.3913 40.677 68.6473 39.0461 69.8282 37.3778C70.1282 36.9842 70.2969 36.7592 70.878 36.8904C71.8189 37.1227 72.8132 36.9816 73.6523 36.4968C74.4955 36.0059 75.1141 35.2057 75.3768 34.2661C75.6018 33.61 75.7705 32.9539 75.958 32.2978C76.1798 31.763 76.2803 31.1857 76.2523 30.6073C76.2243 30.029 76.0684 29.4641 75.796 28.9532C75.5235 28.4423 75.1412 27.9982 74.6765 27.6527C74.2118 27.3073 73.6764 27.0691 73.1087 26.9554ZM43.791 35.6157C41.9203 34.3626 40.465 32.5811 39.6104 30.498C38.7558 28.4149 38.5406 26.1245 38.9922 23.9187C39.421 21.7086 40.513 19.6816 42.1227 18.1076C43.7069 16.508 45.7347 15.4206 47.9437 14.9861C50.1527 14.5517 52.4413 14.7901 54.5133 15.6707C55.9811 16.2807 57.3048 17.1914 58.3991 18.3442C59.4934 19.497 60.334 20.8662 60.8668 22.3637C61.3997 23.8612 61.6128 25.4538 61.4926 27.0387C61.3723 28.6236 60.9214 30.1657 60.1688 31.5657C59.4161 32.9657 58.3785 34.1925 57.1229 35.167C55.8672 36.1415 54.4212 36.8421 52.8783 37.2236C51.3353 37.6052 49.7295 37.6592 48.1643 37.3823C46.5991 37.1054 45.1094 36.5036 43.791 35.6157Z" fill="url(#paint0_linear_1_5543)"/>
<path d="M73.1077 26.9554C73.1077 26.9554 73.1077 26.9554 73.1077 26.8617C72.789 24.3686 72.4516 21.8754 72.1142 19.3636C72.2454 19.2698 72.5641 19.0824 72.8265 18.8762C73.4615 18.4488 73.9364 17.8223 74.1762 17.0954C74.4205 16.3719 74.4205 15.5882 74.1762 14.8647C73.5929 13.5342 72.8569 12.2761 71.983 11.1156C71.519 10.6136 70.9203 10.2557 70.2584 10.0846C69.6874 9.91181 69.0833 9.87778 68.4964 9.98537C67.9096 10.093 67.3569 10.3391 66.8843 10.7032C65.2431 8.94356 63.3475 7.43974 61.2607 6.24184C61.0545 6.24184 61.017 5.71697 61.0545 5.47328C61.2688 4.6672 61.1995 3.81195 60.8582 3.05089C60.5169 2.28983 59.9244 1.66921 59.1799 1.29307C57.6975 0.744174 56.1745 0.311721 54.6248 -0.000352263C54.3616 -0.022553 54.0972 0.022604 53.8563 0.130865C53.1278 0.324222 52.4709 0.724586 51.9652 1.2835C51.4595 1.84242 51.1267 2.53592 51.007 3.28008H50.6696C48.3663 3.23473 46.0702 3.551 43.865 4.21734C43.4151 4.34856 43.2839 4.06738 43.0965 3.76746C42.7218 3.06106 42.1121 2.50775 41.3728 2.20313C40.6335 1.89851 39.811 1.86172 39.0475 2.09912C37.5628 2.74003 36.1544 3.54482 34.8485 4.49852C34.4287 4.93641 34.1369 5.48102 34.005 6.07313C33.8542 6.60325 33.8222 7.16008 33.9112 7.70397C34.0019 8.24405 34.2134 8.75667 34.5298 9.2036L29.8435 15.3708H29.5998C29.0922 15.2138 28.5569 15.1665 28.0296 15.232C27.5023 15.2976 26.9949 15.4745 26.5411 15.751C26.0873 16.0275 25.6975 16.3973 25.3975 16.8359C25.0975 17.2745 24.8942 17.7719 24.801 18.2951C24.5761 18.9887 24.3886 19.7197 24.2199 20.432C24.0739 20.9048 24.023 21.4017 24.07 21.8942C24.1904 22.8688 24.6885 23.7573 25.4571 24.3686C25.8417 24.6841 26.289 24.9141 26.7693 25.0434C27.3691 25.2308 27.5378 25.4933 27.3129 26.0744C24.7832 25.9828 22.2544 26.2799 19.8148 26.9554C19.6461 26.9554 19.2712 26.7492 19.1399 26.5243C18.7385 25.8193 18.1119 25.2697 17.3606 24.9638C16.6092 24.6578 15.7769 24.6132 14.9972 24.8372H14.8848C13.4277 25.4746 12.05 26.2799 10.7795 27.2366C10.3511 27.6635 10.0521 28.2029 9.91724 28.7925C9.79757 29.3295 9.79757 29.8863 9.91724 30.4233C9.99274 30.9759 10.1983 31.5027 10.5171 31.9604L5.77453 38.1464H5.62456C5.11405 37.9701 4.57148 37.9062 4.03399 37.9591C3.49649 38.0119 2.97676 38.1803 2.51037 38.4527C2.04399 38.725 1.64195 39.0949 1.33178 39.5371C1.02161 39.9792 0.810637 40.4832 0.713291 41.0144C0.507093 41.7642 0.31964 42.4953 0.132187 43.2263C-0.132974 44.1693 -0.0185939 45.1785 0.450857 46.0381C0.921044 46.8842 1.70021 47.5156 2.62531 47.8002C3.22516 48.0064 3.30014 48.2876 3.35638 48.8499C3.58132 50.8932 3.84376 52.9177 4.18118 54.9422C4.18118 55.4295 4.18118 55.6732 3.78752 55.9544C3.07742 56.32 2.52005 56.9257 2.21456 57.6637C1.90907 58.4017 1.87528 59.2241 2.11919 59.9847C2.79176 61.4901 3.62783 62.9171 4.61232 64.2398C4.95694 64.6025 5.39997 64.8566 5.887 64.9709C6.44094 65.1612 7.0331 65.2127 7.61157 65.1209C8.19625 65.0458 8.75499 64.8338 9.24241 64.5023L15.3721 69.2448C15.3721 69.2448 15.3721 69.4323 15.3721 69.6197C15.2686 70.1206 15.2686 70.6373 15.3721 71.1381C15.4472 71.6354 15.6192 72.113 15.8783 72.544C16.1412 72.9856 16.4921 73.3685 16.9092 73.6687C17.3235 73.9573 17.7874 74.167 18.2777 74.2873L20.1522 74.7935C20.6616 74.9839 21.2054 75.0646 21.7481 75.0303C22.2909 74.9961 22.8202 74.8475 23.3016 74.5945C23.7829 74.3414 24.2054 73.9895 24.5413 73.5619C24.8772 73.1342 25.119 72.6405 25.2509 72.1129C25.2952 72.0061 25.3641 71.9114 25.4521 71.8364C25.5401 71.7615 25.6446 71.7085 25.757 71.6817C28.1812 71.7267 30.5974 71.3914 32.9177 70.6882L33.1427 71.0631C33.3852 71.5373 33.7258 71.9543 34.1421 72.2865C34.5583 72.6186 35.0405 72.8583 35.5566 72.9895C36.0727 73.1208 36.6109 73.1406 37.1352 73.0476C37.6595 72.9546 38.1581 72.751 38.5976 72.4503L40.4721 71.3443C40.9201 71.1075 41.3155 70.7822 41.6343 70.3883C41.793 70.1904 41.9312 69.9768 42.0467 69.751C42.1675 69.5317 42.2619 69.2989 42.3279 69.0574C42.4663 68.5702 42.5045 68.0601 42.4404 67.5578C42.3817 67.0562 42.2223 66.5716 41.9717 66.1331C41.9072 66.0631 41.8587 65.9799 41.8296 65.8893C41.8004 65.7986 41.7914 65.7027 41.803 65.6082C41.8251 65.4183 41.919 65.2439 42.0655 65.1209C43.3964 63.4713 44.6898 61.803 45.9457 60.0596C46.0269 59.8909 46.1669 59.7576 46.3394 59.6847C46.5163 59.6287 46.7061 59.6287 46.883 59.6847C47.8398 59.9307 48.855 59.7891 49.708 59.2906C50.561 58.7922 51.1827 57.9772 51.4381 57.0229C51.6443 56.2918 51.8318 55.542 52.0192 54.8109C52.1904 54.3412 52.2659 53.8419 52.2413 53.3426C52.2167 52.8432 52.0924 52.3538 51.8759 51.9031C51.6593 51.4525 51.3547 51.0497 50.9802 50.7185C50.6056 50.3873 50.1686 50.1344 49.6948 49.9747C49.4886 49.8622 49.3761 49.5435 49.2074 49.3186C49.4511 49.1874 49.6761 48.9249 49.9197 48.9249C50.857 48.8312 51.7943 48.9249 52.8065 48.7375C54.1749 48.55 55.5246 48.2688 56.9118 48.0064C57.1509 48.554 57.5133 49.039 57.9707 49.4236C58.4282 49.8081 58.9682 50.0818 59.5488 50.2234C60.1294 50.3649 60.7348 50.3704 61.3179 50.2395C61.901 50.1085 62.4459 49.8447 62.9103 49.4685L64.4849 48.55C64.9226 48.3059 65.3105 47.9816 65.6283 47.594C65.9299 47.1936 66.1584 46.743 66.3032 46.2631C66.438 45.7815 66.4699 45.2769 66.3969 44.7822C66.3358 44.2871 66.1764 43.8091 65.9282 43.3763C65.8212 43.2095 65.7748 43.0109 65.797 42.8139C65.8296 42.6179 65.9289 42.4391 66.0782 42.3078C67.3904 40.677 68.6463 39.0461 69.8273 37.3778C70.1272 36.9842 70.2959 36.7592 70.877 36.8904C71.8179 37.1227 72.8122 36.9816 73.6513 36.4968C74.4945 36.0059 75.1132 35.2057 75.3759 34.2661C75.6008 33.61 75.7695 32.9539 75.957 32.2978C76.1788 31.763 76.2793 31.1857 76.2513 30.6073C76.2233 30.029 76.0675 29.4641 75.795 28.9532C75.5225 28.4423 75.1402 27.9982 74.6755 27.6527C74.2109 27.3073 73.6754 27.0691 73.1077 26.9554ZM49.2449 52.599C49.8073 52.9177 49.7698 53.5175 49.5636 54.1736C49.3574 54.8297 49.2262 55.4858 49.0387 56.1419C49.0032 56.3312 48.9264 56.5104 48.8138 56.6667C48.7093 56.8238 48.5677 56.9526 48.4014 57.0416C48.2336 57.1344 48.0486 57.1918 47.8578 57.2104C47.6666 57.208 47.477 57.1764 47.2954 57.1166L46.2269 56.8354C45.2147 56.5543 44.8023 56.7417 44.3524 57.7165C43.121 60.1561 41.4276 62.3333 39.3661 64.1274C38.5788 64.8022 38.5226 65.2708 39.0287 66.1894C39.0287 66.1894 39.0287 66.1894 39.0287 66.3393C39.9472 67.9139 40.0785 68.3263 39.0287 69.0012L38.1289 69.5635C37.754 69.7885 37.3791 70.0321 36.9855 70.2196C36.8389 70.3334 36.6638 70.4048 36.4794 70.4258C36.3004 70.4602 36.1159 70.4527 35.9402 70.404C35.7646 70.3552 35.6027 70.2664 35.4671 70.1446C35.3351 70.0292 35.2269 69.8891 35.1484 69.7322C34.9235 69.3573 34.7173 68.9449 34.4736 68.57C34.4082 68.4111 34.3089 68.2684 34.1826 68.1518C34.0563 68.0353 33.9062 67.9477 33.7425 67.8952C33.4242 67.765 33.0674 67.765 32.749 67.8952C30.0795 68.8299 27.248 69.2125 24.4261 69.0199C24.2494 68.988 24.068 68.9927 23.8931 69.0337C23.7183 69.0747 23.5537 69.1512 23.4096 69.2584C23.2655 69.3655 23.145 69.5012 23.0554 69.6568C22.9659 69.8125 22.9092 69.9849 22.889 70.1634C22.7578 70.5758 22.6828 70.9882 22.5516 71.3818C22.514 71.5616 22.4442 71.7331 22.3454 71.8879C22.2368 72.0414 22.0961 72.1693 21.933 72.2628C21.7707 72.3527 21.5924 72.41 21.4081 72.4315C21.2224 72.4675 21.0315 72.4675 20.8458 72.4315C20.1147 72.2816 19.3836 72.0754 18.6526 71.8504C18.4737 71.83 18.3045 71.7584 18.1652 71.6442C18.0662 71.5241 17.9957 71.3831 17.959 71.2318C17.8643 71.0785 17.8065 70.9052 17.7903 70.7257C17.745 70.5537 17.745 70.3729 17.7903 70.2009C18.2777 67.7827 18.2964 67.7827 16.1032 66.4518C14.1491 65.3456 12.394 63.92 10.9107 62.2341C10.0485 61.2593 9.67355 61.2218 8.58632 61.8404C6.59932 62.9839 6.4681 62.9464 5.30589 60.9407C4.14368 58.9349 4.0687 58.6912 6.18692 57.4165C7.0867 56.8729 7.27415 56.4418 6.93674 55.542C6.05084 52.9398 5.70015 50.1853 5.90574 47.444C5.94343 47.2625 5.94328 47.0751 5.90532 46.8935C5.86735 46.712 5.79238 46.5402 5.68509 46.389C5.5778 46.2377 5.44048 46.1102 5.28171 46.0143C5.12293 45.9185 4.94611 45.8564 4.76228 45.8319C4.29365 45.7007 3.84376 45.607 3.39387 45.4383C3.22892 45.4086 3.07415 45.3377 2.94398 45.2321C2.80833 45.1301 2.69374 45.0028 2.60657 44.8572C2.52617 44.7124 2.47521 44.5531 2.45661 44.3886C2.43924 44.2266 2.43924 44.0632 2.45661 43.9012C2.64406 43.1701 2.83151 42.4203 3.03771 41.6892C3.0582 41.499 3.12941 41.3177 3.24391 41.1644C3.35829 40.9626 3.53626 40.8044 3.75003 40.7145C3.91303 40.6082 4.09977 40.5438 4.29365 40.527C4.4921 40.5103 4.69162 40.5425 4.87475 40.6207C7.21792 41.1269 7.23666 41.1269 8.41762 39.0086C9.55449 37.0165 11.0256 35.2347 12.7665 33.7412C13.6663 32.9352 13.7038 32.5415 13.1227 31.473C11.998 29.4673 12.0167 29.3361 14.0037 28.1739L14.3036 28.0051C16.1782 26.9554 16.2719 27.0866 17.4716 29.0924C18.0152 30.0109 18.4464 30.1796 19.4961 29.8234C21.6659 29.066 23.9462 28.6733 26.2444 28.6612C26.6568 28.6612 27.0692 28.6612 27.4816 28.6612C27.819 29.9734 28.0815 31.1544 28.3251 32.4103C28.3103 32.644 28.2103 32.8641 28.044 33.0289C27.5601 33.569 27.047 34.0821 26.5068 34.566C26.3201 34.7564 26.0768 34.8813 25.8133 34.9222C23.1395 34.9763 20.5372 35.796 18.3151 37.2841C16.1321 38.7779 14.406 40.8478 13.3289 43.2638C12.2742 45.6925 11.9297 48.3704 12.3354 50.9869C12.7296 53.6321 13.8821 56.1063 15.6533 58.1101C17.105 59.7697 18.9329 61.0577 20.9842 61.8664C23.0354 62.6752 25.2504 62.9812 27.4441 62.759C28.3097 62.6622 29.1637 62.4801 29.9935 62.2153C32.533 61.4695 34.8075 60.0154 36.5504 58.0235C38.2934 56.0316 39.4326 53.5842 39.8348 50.9682C39.8348 50.7432 39.8348 50.4995 40.0035 50.1809C41.3153 51.2703 42.9333 51.9254 44.6336 52.0554C45.4075 52.1751 46.1989 52.1043 46.9392 51.8492C47.9515 51.5868 48.5513 52.2428 49.2449 52.599ZM24.5573 60.0971C23.0041 59.88 21.5125 59.3446 20.1757 58.5245C18.8389 57.7044 17.6857 56.6172 16.7884 55.331C15.891 54.0448 15.2688 52.5872 14.9606 51.0495C14.6524 49.5118 14.6648 47.927 14.9972 46.3943C15.1054 45.9176 15.2431 45.448 15.4096 44.9884C16.0115 43.3331 16.9864 41.8386 18.2589 40.6207C19.8863 39.0647 21.9433 38.0329 24.1637 37.659C25.9445 37.3028 25.9445 37.3028 26.8255 38.8587C27.088 39.3461 27.3691 39.8147 27.6691 40.3021C27.8958 40.7673 28.2222 41.1769 28.6251 41.5018C29.0296 41.8318 29.4943 42.0801 29.9935 42.2328C30.4979 42.3824 31.0287 42.4208 31.5493 42.3453C32.069 42.2908 32.5693 42.1176 33.0115 41.8392L33.3864 41.6705C34.4526 42.459 35.4497 43.337 36.3669 44.2948C36.8792 45.0625 37.1946 45.9445 37.2854 46.8629C37.5826 48.5206 37.5082 50.2236 37.0674 51.849C36.6267 53.4744 35.8306 54.9817 34.7367 56.2621C33.6428 57.5425 32.2783 58.5642 30.7416 59.2533C29.205 59.9424 27.5345 60.2818 25.8508 60.2471C25.4176 60.2375 24.9856 60.2 24.5573 60.1346V60.0971ZM73.6326 31.2106C73.4451 32.0166 73.2389 32.8039 72.9952 33.5725C72.9554 33.7433 72.8786 33.9032 72.7703 34.0411C72.6617 34.1726 72.5278 34.281 72.3766 34.3598C72.2275 34.4458 72.0609 34.4971 71.8893 34.5098C71.7225 34.5463 71.5499 34.5463 71.3831 34.5098C70.9145 34.416 70.4834 34.2473 70.0147 34.1349C69.7123 34.0229 69.3798 34.0229 69.0775 34.1349C68.7899 34.2718 68.5583 34.5034 68.4214 34.791C67.1833 37.3906 65.4145 39.7022 63.2289 41.5768C62.9654 41.7779 62.7906 42.0737 62.7415 42.4016C62.6865 42.7348 62.7602 43.0766 62.9477 43.3576C63.1914 43.77 63.4539 44.1636 63.6601 44.576C63.7521 44.7238 63.8097 44.8903 63.8288 45.0634C63.8663 45.2237 63.8663 45.3905 63.8288 45.5508C63.7778 45.7153 63.695 45.8681 63.5851 46.0007C63.4849 46.1403 63.3489 46.2504 63.1914 46.3193C62.5166 46.7505 61.8043 47.1629 61.0732 47.5378C60.9335 47.6322 60.7724 47.6901 60.6046 47.7065C60.4391 47.7529 60.264 47.7529 60.0985 47.7065C59.9322 47.6698 59.7777 47.5925 59.6486 47.4815C59.5227 47.3722 59.4206 47.2382 59.3486 47.0879C59.0862 46.6755 58.88 46.2631 58.6363 45.8507C58.4828 45.5555 58.2308 45.3234 57.924 45.1946C57.6104 45.0732 57.2628 45.0732 56.9492 45.1946C54.2603 46.1292 51.4104 46.5118 48.5701 46.3193C48.4025 46.2933 48.2315 46.3015 48.0671 46.3434C47.9028 46.3852 47.7487 46.46 47.6141 46.563C47.3408 46.7666 47.159 47.0697 47.1079 47.4066C46.9955 47.8377 46.883 48.2688 46.7518 48.7C46.7123 48.8766 46.6356 49.0427 46.5268 49.1874C46.429 49.3384 46.2933 49.4612 46.1332 49.5435C45.9823 49.641 45.8067 49.693 45.6271 49.6935C45.4541 49.7304 45.2752 49.7304 45.1022 49.6935C44.2962 49.506 43.5463 49.2998 42.7965 49.0749C42.62 49.0459 42.4529 48.9752 42.3091 48.8687C42.1688 48.7719 42.0533 48.6435 41.9717 48.4938C41.8797 48.346 41.822 48.1794 41.803 48.0064C41.7661 47.8334 41.7661 47.6545 41.803 47.4815C41.8967 47.0129 42.0467 46.5255 42.1592 46.0381C42.2623 45.7535 42.2623 45.4417 42.1592 45.1571C42.0421 44.8733 41.8207 44.6453 41.5406 44.5198C38.9473 43.2967 36.6414 41.5401 34.7735 39.3648C34.5628 39.0904 34.2535 38.9089 33.9112 38.8587C33.5697 38.8098 33.2221 38.89 32.9365 39.0836C32.5428 39.3086 32.1679 39.5523 31.7743 39.7585C31.6371 39.8642 31.4763 39.9349 31.3056 39.9647C31.1401 40.0111 30.965 40.0111 30.7995 39.9647C30.6305 39.9267 30.4721 39.8515 30.3358 39.7445C30.1996 39.6375 30.0891 39.5013 30.0122 39.3461C29.5506 38.6405 29.1312 37.9081 28.7563 37.1529C28.6668 37.0089 28.6033 36.8502 28.5688 36.6842C28.5409 36.5167 28.5409 36.3457 28.5688 36.1781C28.6209 36.0177 28.6967 35.8661 28.7938 35.7282C28.9031 35.6024 29.0371 35.5003 29.1874 35.4283C29.5623 35.1846 29.9747 34.9784 30.3496 34.7535C30.689 34.6127 30.9587 34.343 31.0994 34.0036C31.1359 33.8306 31.1359 33.6518 31.0994 33.4788C31.1002 33.2978 31.0619 33.1187 30.987 32.9539C30.0661 30.2563 29.7275 27.3941 29.9935 24.556C30.0486 24.2227 29.9748 23.881 29.7873 23.6C29.5916 23.3239 29.2955 23.1354 28.9625 23.0751L27.5378 22.6627C27.3698 22.625 27.2106 22.5549 27.0692 22.4565C26.9324 22.3484 26.8178 22.2147 26.7318 22.0629C26.654 21.9103 26.6033 21.7454 26.5818 21.5755C26.5453 21.4088 26.5453 21.2361 26.5818 21.0694C26.7318 20.2821 26.938 19.5323 27.1629 18.7637C27.2214 18.4646 27.3883 18.1976 27.6316 18.0139C27.8743 17.8301 28.1707 17.7313 28.4751 17.7327C28.925 17.8452 29.4311 17.9951 29.9372 18.0889C30.1162 18.163 30.3086 18.1994 30.5023 18.1957C30.696 18.192 30.8869 18.1483 31.0629 18.0673C31.2389 17.9863 31.3963 17.8698 31.5252 17.7252C31.654 17.5805 31.7516 17.4108 31.8118 17.2266C33.0607 14.7457 34.802 12.5453 36.9292 10.7595C37.0783 10.6617 37.2058 10.5346 37.3041 10.3859C37.4024 10.2373 37.4694 10.0701 37.5009 9.89473C37.5325 9.71933 37.528 9.53933 37.4877 9.36571C37.4475 9.1921 37.3722 9.02851 37.2667 8.88493C37.0605 8.51002 36.8168 8.11637 36.6106 7.72272C36.5162 7.583 36.4582 7.42191 36.4419 7.25408C36.4047 7.08743 36.4047 6.91462 36.4419 6.74796C36.4862 6.58455 36.5627 6.43161 36.6668 6.29807C36.7761 6.17222 36.9101 6.07014 37.0605 5.99815L39.1224 4.83594C39.2687 4.73387 39.4347 4.66362 39.6098 4.62974C39.7837 4.60173 39.9609 4.60173 40.1347 4.62974C40.3108 4.68012 40.4761 4.76275 40.6221 4.87343C40.7585 4.99212 40.8673 5.13929 40.9407 5.30457C41.1657 5.64199 41.3719 6.01689 41.5781 6.3918C41.6465 6.56804 41.7512 6.72795 41.8853 6.86115C42.0195 6.99436 42.1801 7.09789 42.3569 7.16505C42.5336 7.2322 42.7224 7.26148 42.9112 7.25099C43.1 7.24049 43.2844 7.19046 43.4526 7.10412C46.0959 6.17068 48.9067 5.80656 51.7006 6.03564C51.8698 6.06474 52.0432 6.05984 52.2106 6.02122C52.3779 5.9826 52.5359 5.91103 52.6753 5.8107C52.9596 5.61122 53.1547 5.3085 53.2189 4.96716C53.3689 4.47978 53.4439 3.9924 53.6126 3.52377C53.6608 3.36762 53.737 3.22153 53.8375 3.09262C53.9402 2.96765 54.0679 2.86549 54.2124 2.7927C54.3559 2.70984 54.5154 2.65861 54.6803 2.64244C54.8452 2.62628 55.0116 2.64555 55.1684 2.69897C55.8995 2.86768 56.6493 3.07388 57.3804 3.28008C57.5756 3.30394 57.7621 3.37468 57.924 3.48628C58.089 3.60092 58.2292 3.74753 58.3364 3.91742C58.4319 4.09642 58.4833 4.29565 58.4864 4.49852C58.5016 4.69691 58.4695 4.89609 58.3926 5.07963C57.8115 7.25408 57.6616 7.36656 59.8548 8.49128C61.9008 9.58132 63.7304 11.0361 65.2534 12.784C66.1532 13.7775 66.5094 13.8337 67.6341 13.1963C69.5086 12.0904 69.7148 12.1279 70.8583 14.0774C71.0832 14.4523 71.3269 14.8459 71.5331 15.2396C71.6226 15.3836 71.6861 15.5422 71.7205 15.7082C71.7581 15.8812 71.7581 16.0601 71.7205 16.2331C71.6696 16.3976 71.5868 16.5505 71.4769 16.683C71.3683 16.8145 71.2344 16.9228 71.0832 17.0016C70.6333 17.3016 70.1647 17.5265 69.7335 17.8077C69.4717 17.9462 69.2662 18.1715 69.1524 18.445C69.0399 18.7215 69.0399 19.0309 69.1524 19.3073C70.1255 22.0719 70.5211 25.0066 70.3146 27.9302C70.2817 28.2354 70.3617 28.5422 70.5396 28.7925C70.7303 29.0369 71.0035 29.2035 71.3082 29.2611C71.758 29.411 72.2267 29.5048 72.6766 29.636C72.8494 29.6771 73.0141 29.7468 73.1639 29.8422C73.311 29.9447 73.4328 30.0793 73.5201 30.2358C73.6125 30.3903 73.6701 30.563 73.6888 30.742C73.7008 30.9003 73.6817 31.0595 73.6326 31.2106Z" fill="#0C4578"/>
<path d="M63.0415 20.8445C62.012 18.298 60.2487 16.115 57.9757 14.573C55.7027 13.031 53.0226 12.1995 50.276 12.1841C48.2148 12.1662 46.1753 12.6059 44.3047 13.4717C42.4341 14.3374 40.779 15.6076 39.4588 17.1905C38.1385 18.7734 37.1861 20.6296 36.6701 22.6253C36.1542 24.6209 36.0877 26.7061 36.4753 28.7306C36.8629 30.7551 37.6951 32.6682 38.9117 34.3321C40.1283 35.996 41.6991 37.3691 43.5107 38.3524C45.3223 39.3356 47.3296 39.9045 49.3877 40.018C51.4458 40.1315 53.5034 39.7868 55.4122 39.0087C57.95 37.9667 60.1247 36.2004 61.6648 33.9301C63.205 31.6599 64.0424 28.9863 64.0725 26.2431C64.0909 24.3929 63.7404 22.5577 63.0415 20.8445ZM58.1115 34.1536C56.7844 35.4752 55.1516 36.4487 53.3579 36.9878C51.5643 37.5269 49.6653 37.6149 47.8295 37.2441C45.9937 36.8732 44.2779 36.0549 42.8342 34.8618C41.3905 33.6687 40.2637 32.1377 39.5536 30.4046C38.7043 28.3201 38.4891 26.0312 38.935 23.825C39.3638 21.6149 40.4558 19.5879 42.0655 18.0139C43.6497 16.4143 45.6775 15.3269 47.8865 14.8924C50.0956 14.4579 52.3842 14.6964 54.4562 15.577C56.1926 16.2834 57.7272 17.4085 58.9231 18.852C60.1191 20.2955 60.9393 22.0125 61.3105 23.8499C61.6817 25.6874 61.5924 27.5881 61.0506 29.3827C60.5087 31.1773 59.5312 32.8099 58.2052 34.1349L58.1115 34.1536Z" fill="#0C4578"/>
</g>
<defs>
<linearGradient id="paint0_linear_1_5543" x1="13.8172" y1="34.8847" x2="76.2579" y2="34.8847" gradientUnits="userSpaceOnUse">
<stop stop-color="#176AB4"/>
<stop offset="1" stop-color="#B1FFC7"/>
</linearGradient>
<clipPath id="clip0_1_5543">
<rect width="76.2559" height="75" fill="white"/>
</clipPath>
</defs>
</svg>
