<svg width="75" height="75" viewBox="0 0 75 75" fill="none" xmlns="http://www.w3.org/2000/svg">
<g clip-path="url(#clip0_1_5605)">
<path d="M55.9548 29.3364C56.1162 29.15 56.3227 29.008 56.5546 28.924C56.7926 28.8492 57.0478 28.8492 57.2857 28.924C59.37 29.413 61.5377 29.4259 63.6277 28.9618C65.7177 28.4977 67.6762 27.5686 69.3577 26.2434C71.8922 24.3072 73.712 21.5841 74.5314 18.5016C74.6149 18.2332 74.7151 17.9703 74.8313 17.7143V11.6783L74.3814 10.2349C74.3397 9.94176 74.2121 9.66749 74.0148 9.44672C73.8174 9.22594 73.5591 9.06854 73.2724 8.99436C72.9857 8.92018 72.6835 8.93254 72.4038 9.02989C72.1241 9.12724 71.8795 9.30521 71.7009 9.54136C69.8263 11.4159 68.083 13.2904 66.246 15.015C65.9194 15.2684 65.5312 15.4302 65.1213 15.4836C64.4081 15.6505 63.6604 15.586 62.9864 15.2995C62.3123 15.0131 61.747 14.5195 61.3722 13.8903V13.7778C59.7039 12.072 59.6851 12.072 59.8351 9.65384C59.8072 9.37635 59.8592 9.09667 59.985 8.84779C61.7283 6.97326 63.4904 5.28618 65.2525 3.48663C66.4522 2.24944 66.1335 1.06848 64.4652 0.59985C63.6216 0.356161 62.7406 0.187453 61.8596 0H58.8041C57.2003 0.34061 55.6268 0.810785 54.099 1.4059C51.8691 2.41481 49.935 3.97836 48.4812 5.94734C47.0275 7.91631 46.1026 10.225 45.7948 12.6531C45.5471 14.39 45.6298 16.1581 46.0385 17.8643C46.0663 18.0003 46.0663 18.1406 46.0385 18.2767C46.0026 18.4076 45.9386 18.5291 45.8511 18.6328C42.4269 22.082 38.9903 25.5249 35.5411 28.9615H35.3537L34.8476 28.4929C29.8488 23.4941 24.8501 18.4954 19.8513 13.4966L18.5391 16.3647L32.6731 30.4986C32.8793 30.6673 33.0855 30.836 33.3104 30.986L31.0235 33.1417C30.9033 32.9259 30.7586 32.7246 30.5924 32.5419C26.206 28.1555 21.8008 23.7503 17.4707 19.4201C17.077 20.4573 16.7391 21.5148 16.4584 22.5881C20.5074 26.6746 24.5689 30.7548 28.6429 34.8288C28.8354 34.9912 29.0425 35.1355 29.2615 35.2599C25.6811 38.8778 22.1945 42.3457 18.7078 45.8135C18.6093 45.8865 18.4972 45.9391 18.3781 45.968C18.259 45.997 18.1353 46.0018 18.0143 45.9823C17.0208 45.8698 16.046 45.6261 15.0525 45.6073H14.9963C15.165 46.6196 15.3337 47.6131 15.5586 48.6066C16.9894 55.4458 19.74 61.9404 23.6566 67.7268C24.219 68.5516 24.8001 69.3764 25.4187 70.1637C25.7561 69.7888 26.0748 69.3951 26.3934 68.9827C27.6389 67.3981 28.5225 65.5601 28.9824 63.5977C29.4422 61.6353 29.4671 59.5961 29.0553 57.6231C28.9424 57.2626 28.941 56.8764 29.0514 56.5152C29.1618 56.1539 29.3788 55.8344 29.6739 55.5986C32.2232 53.1242 34.7913 50.6123 37.4907 47.8943L39.3652 50.0125C37.9968 51.5871 37.7718 52.2244 38.4279 52.8993C39.6839 54.174 40.5274 53.0117 41.4272 52.2432L45.1762 56.3672C50.0125 61.6158 54.8301 66.8833 59.6851 72.0945C61.1836 73.76 63.2658 74.7847 65.4997 74.9557C67.7336 75.1267 69.9476 74.431 71.6821 73.013C73.1264 71.8007 74.1824 70.1906 74.7189 68.3829V63.8465C74.4795 63.1489 74.1586 62.4819 73.7628 61.8595C73.0135 60.8244 72.166 59.8639 71.2322 58.9915L52.6556 41.9333L52.1307 41.4459C53.4242 39.815 53.5741 39.2527 52.8993 38.5404C52.2245 37.828 51.5684 37.9967 49.8813 39.3652L47.8006 37.4906L48.3442 36.9095C50.9498 34.3602 53.4617 31.867 55.9548 29.3364ZM41.2397 47.8005L39.4777 45.926L45.7573 39.6463L47.7256 41.5209L41.2397 47.8005ZM50.1063 43.5829L52.8243 46.076L70.0138 61.8595C70.9014 62.6505 71.5288 63.6917 71.8132 64.8461C72.0976 66.0004 72.0258 67.2139 71.6071 68.3267C71.2011 69.4157 70.4677 70.3521 69.5077 71.0072C68.5591 71.6822 67.4287 72.0547 66.2647 72.0757C65.4422 72.0957 64.6247 71.9424 63.8653 71.6258C63.1487 71.294 62.51 70.815 61.9908 70.2199C55.9298 63.6341 49.8751 57.0607 43.8266 50.4999L43.6391 50.2749L50.1063 43.5829Z" fill="url(#paint0_linear_1_5605)"/>
<path d="M18.4644 62.4967C18.4644 63.3965 18.4644 64.3713 18.4644 65.2148C17.9544 63.6461 17.5597 62.0423 17.2834 60.416L17.8458 60.9971C18.1968 61.4242 18.4122 61.9464 18.4644 62.4967Z" fill="url(#paint1_linear_1_5605)"/>
<path d="M48.5143 20.3004C39.1041 29.6731 29.7315 39.0458 20.3963 48.4184C20.1134 48.7457 19.7394 48.9811 19.322 49.0946C18.9046 49.2082 18.4628 49.1946 18.0531 49.0557L17.1721 48.8496C17.2892 47.8653 17.4644 46.8888 17.697 45.9253H18.0906C18.2117 45.9449 18.3354 45.94 18.4545 45.9111C18.5736 45.8821 18.6857 45.8296 18.7842 45.7566C22.2708 42.2887 25.7575 38.8208 29.3378 35.203C29.1188 35.0785 28.9118 34.9342 28.7192 34.7718L24.8577 30.8915C25.4763 30.123 26.1324 29.3919 26.7322 28.6796C27.3833 27.9566 28.0782 27.2742 28.813 26.6364C29.5343 25.9707 30.2915 25.3449 31.0811 24.7618C32.3558 26.0178 33.6118 27.2924 34.8302 28.5109L35.3363 28.9795L35.5238 28.8858C38.9729 25.4491 42.4096 22.0063 45.8337 18.5571C45.9212 18.4534 45.9852 18.3319 46.0212 18.201C46.0493 18.0776 46.0493 17.9494 46.0212 17.8261C46.9987 17.6135 47.9875 17.4571 48.9829 17.3574L49.0954 17.7698C49.2836 18.198 49.3287 18.6755 49.224 19.1314C49.1193 19.5873 48.8704 19.9972 48.5143 20.3004Z" fill="url(#paint2_linear_1_5605)"/>
<path d="M61.5783 18.3148L61.2034 18.0898C61.7616 18.1833 62.3127 18.3149 62.853 18.4835H62.4406C62.1449 18.4835 61.8521 18.4262 61.5783 18.3148Z" fill="url(#paint3_linear_1_5605)"/>
<path d="M74.7383 63.8659V68.4023C74.2152 70.2372 73.1582 71.875 71.7016 73.1073C69.967 74.5254 67.753 75.2211 65.5192 75.05C63.2853 74.879 61.203 73.8544 59.7046 72.1888C54.8495 66.9776 50.032 61.7102 45.1957 56.4615L41.4466 52.3375C40.5468 53.1061 39.7033 54.2121 38.4474 52.9936C37.7913 52.3188 38.0162 51.6815 39.3846 50.1068L37.5101 47.9886C34.9045 50.613 32.3364 53.2186 29.7308 55.7492C29.4357 55.985 29.2188 56.3045 29.1084 56.6658C28.998 57.027 28.9993 57.4132 29.1122 57.7737C29.524 59.7467 29.4991 61.7859 29.0393 63.7483C28.5795 65.7107 27.6958 67.5487 26.4504 69.1333C26.1317 69.5457 25.813 69.9394 25.4756 70.3143C24.5133 71.4006 23.3876 72.3303 22.1389 73.0699C21.6103 72.222 21.1285 71.346 20.6956 70.4455C21.8511 69.7826 22.8743 68.912 23.7136 67.8774C24.9394 66.412 25.7844 64.6665 26.1735 62.796C26.5627 60.9255 26.4839 58.9878 25.9442 57.1551C25.7867 56.7494 25.758 56.305 25.862 55.8824C25.966 55.4598 26.1976 55.0795 26.5253 54.7932C35.973 45.358 45.4081 35.9229 54.8308 26.4878C55.1031 26.1809 55.4616 25.9631 55.8595 25.8628C56.2573 25.7625 56.6762 25.7843 57.0615 25.9254C59.4434 26.6515 61.9961 26.5895 64.34 25.7485C66.6839 24.9076 68.6937 23.3326 70.0707 21.2578C70.9705 21.7077 71.9452 22.1951 72.6951 22.7199C71.7973 24.0806 70.668 25.2734 69.3584 26.2441C67.691 27.5619 65.7499 28.49 63.6772 28.9603C61.6046 29.4306 59.453 29.4312 57.3801 28.9621C57.1422 28.8873 56.887 28.8873 56.6491 28.9621C56.4172 29.0461 56.2107 29.1881 56.0492 29.3745C53.5561 31.9052 51.0442 34.3983 48.5511 36.8727L48.0075 37.4538L50.0882 39.3283C51.7753 37.9599 52.4314 37.7912 53.1062 38.5035C53.781 39.2158 53.6311 39.7782 52.3377 41.409L52.8625 41.8964L71.4391 58.9546C72.3096 59.8475 73.0941 60.8203 73.7823 61.8602C74.1794 62.4885 74.5003 63.1618 74.7383 63.8659Z" fill="url(#paint4_linear_1_5605)"/>
<path d="M55.9735 29.3552C56.135 29.1687 56.3415 29.0267 56.5734 28.9428C56.8113 28.8679 57.0665 28.8679 57.3044 28.9428C59.3873 29.4262 61.5523 29.4346 63.6388 28.9673C65.7254 28.5 67.68 27.5691 69.3577 26.2434C70.6655 25.2543 71.7887 24.0423 72.6756 22.6631C73.5091 21.3797 74.1413 19.9763 74.5501 18.5016C74.6337 18.2332 74.7338 17.9703 74.8501 17.7143V11.6971L74.4002 10.2537C74.3585 9.96051 74.2309 9.68624 74.0335 9.46546C73.8362 9.24469 73.5778 9.08729 73.2911 9.01311C73.0044 8.93893 72.7022 8.95129 72.4225 9.04864C72.1429 9.14598 71.8983 9.32395 71.7196 9.56011C69.8451 11.4346 68.1017 13.3092 66.2647 15.0337C65.9381 15.2872 65.5499 15.449 65.14 15.5024C64.4269 15.6692 63.6791 15.6048 63.0051 15.3183C62.3311 15.0318 61.7657 14.5382 61.3909 13.909L61.2972 13.7966C59.6289 12.0907 59.6101 12.0907 59.7601 9.67258C59.7549 9.38772 59.8331 9.10756 59.985 8.86653C61.7283 6.992 63.4904 5.30492 65.2525 3.50537C66.4522 2.26818 66.1335 1.08723 64.4652 0.618595C63.7341 0.374906 62.7593 0.206198 61.8596 0H58.8228C57.219 0.34061 55.6455 0.810785 54.1177 1.4059C51.8879 2.41481 49.9537 3.97836 48.5 5.94734C47.0462 7.91631 46.1213 10.225 45.8136 12.6531C45.5658 14.39 45.6485 16.1581 46.0573 17.8643C46.0854 17.9877 46.0854 18.1158 46.0573 18.2392C46.0213 18.3701 45.9573 18.4916 45.8698 18.5954C42.4207 22.132 39.0028 25.6186 35.6161 29.0552L35.4287 29.149L34.9225 28.6803C33.6666 27.4057 32.4107 26.131 31.1735 24.9313C27.4244 21.1822 23.6753 17.4331 19.9263 13.6841L18.0518 11.8095C17.8495 11.6607 17.683 11.4686 17.5644 11.2472C17.4561 10.9997 17.411 10.7291 17.4332 10.4599C17.4332 9.69133 17.4332 8.94151 17.4332 8.1917C17.4683 7.80514 17.3826 7.41719 17.1879 7.08141C16.9931 6.74564 16.6989 6.4786 16.3459 6.31717L6.0735 0H5.19247C4.96235 0.132582 4.74298 0.283006 4.53638 0.449888C3.16797 1.87453 1.87455 3.16796 0.468649 4.55511C0.218082 4.79333 0.0613429 5.11356 0.0269414 5.45758C-0.00746009 5.80159 0.0827615 6.14653 0.281195 6.42964C2.28694 9.87878 4.33018 13.2529 6.35468 16.6271C6.49594 16.8846 6.7115 17.0937 6.97327 17.2269C7.22081 17.378 7.50856 17.45 7.79807 17.4331C8.66035 17.4331 9.50389 17.4331 10.3662 17.4331C10.6274 17.4166 10.8892 17.4549 11.1347 17.5456C11.3801 17.6425 11.5987 17.7967 11.7721 17.9955L16.4397 22.6631L24.7626 31.0235L28.6241 34.9038C28.8166 35.0662 29.0237 35.2105 29.2427 35.3349C25.6624 38.9528 22.1757 42.4206 18.6891 45.8885C18.5906 45.9615 18.4785 46.014 18.3594 46.043C18.2402 46.072 18.1165 46.0768 17.9955 46.0572H17.6019C16.7408 45.8847 15.871 45.7596 14.9963 45.6823C12.6988 45.6371 10.4229 46.1333 8.35278 47.1308C6.28265 48.1284 4.47641 49.5992 3.08019 51.4243C1.68397 53.2494 0.736989 55.3776 0.315863 57.6366C-0.105263 59.8956 0.0112936 62.222 0.656102 64.4276C1.16223 66.1522 2.32443 66.4521 3.59912 65.1587C5.36118 63.3779 7.12324 61.5784 8.90404 59.8163C9.17213 59.5945 9.49667 59.4517 9.84131 59.4039C10.5973 59.2214 11.3914 59.2785 12.1135 59.5674C12.8356 59.8562 13.45 60.3625 13.8715 61.016C13.9515 61.1395 14.0531 61.2474 14.1715 61.3347C14.7191 61.6948 15.147 62.2098 15.4008 62.814C15.6545 63.4183 15.7225 64.0845 15.5961 64.7276C15.5806 65.301 15.3536 65.8485 14.9588 66.2647C13.0842 67.9518 11.4347 69.6951 9.71009 71.4384C8.52913 72.6006 8.84781 73.8565 10.4412 74.2689C11.5206 74.6163 12.6321 74.8549 13.7591 74.9813C16.6459 75.1947 19.5307 74.542 22.0445 73.1067C23.2931 72.3672 24.4189 71.4375 25.3812 70.3512C25.7186 69.9763 26.0373 69.5826 26.3559 69.1702C27.6014 67.5855 28.485 65.7475 28.9449 63.7852C29.4047 61.8228 29.4296 59.7836 29.0178 57.8106C28.9049 57.4501 28.9035 57.0639 29.0139 56.7026C29.1243 56.3414 29.3413 56.0219 29.6364 55.7861C32.242 53.143 34.8101 50.6124 37.4906 47.913L39.3652 50.0312C37.9968 51.6059 37.7718 52.2432 38.4279 52.918C39.6838 54.1927 40.5274 53.0305 41.4272 52.2619L45.1762 56.3859C50.0125 61.6346 54.8301 66.902 59.6851 72.1132C61.1836 73.7788 63.2658 74.8034 65.4997 74.9744C67.7336 75.1455 69.9476 74.4498 71.6821 73.0317C73.1264 71.8195 74.1824 70.2094 74.7188 68.4017V63.8653C74.4868 63.162 74.1721 62.4887 73.7816 61.8595C73.055 60.8343 72.2327 59.8802 71.3259 59.0103L52.7493 41.952L52.2245 41.4646C53.5179 39.8338 53.6679 39.2714 52.993 38.5591C52.3182 37.8468 51.6621 38.0155 49.975 39.3839L47.8943 37.5094L48.4379 36.9283C50.9685 34.3789 53.4804 31.867 55.9735 29.3552ZM26.7121 28.8115C23.6129 25.7248 20.5261 22.6006 17.4519 19.4389L13.2904 15.3337C13.0277 15.0514 12.7083 14.8278 12.3532 14.6776C11.9972 14.531 11.6127 14.4669 11.2285 14.4901C10.3495 14.6573 9.44342 14.6123 8.58537 14.3589C7.89179 13.984 7.57312 12.9343 7.10449 12.1657C5.96103 10.2912 4.83631 8.41665 3.65535 6.4109C3.58536 6.33928 3.53171 6.25335 3.49808 6.15902C3.46445 6.06469 3.45165 5.9642 3.46056 5.86445C3.46947 5.76471 3.49987 5.66807 3.54967 5.58119C3.59948 5.49431 3.6675 5.41925 3.74908 5.36116C4.44266 4.72382 5.09874 4.03024 5.79232 3.31792L14.0965 8.30417C14.1987 8.3902 14.2872 8.49135 14.3589 8.6041C14.4136 8.72979 14.4514 8.86215 14.4714 8.99775C14.5305 9.7464 14.5305 10.4985 14.4714 11.2472C14.4495 11.6466 14.5173 12.0457 14.6697 12.4155C14.8222 12.7853 15.0555 13.1162 15.3524 13.3842L18.5579 16.5334L28.7928 26.7683C30.0862 28.0617 31.3797 29.3739 32.6918 30.6673C32.898 30.836 33.1042 31.0048 33.3292 31.1547L31.0423 33.3104C30.922 33.0946 30.7773 32.8933 30.6111 32.7106L26.7121 28.8115ZM41.3334 47.8193L39.5714 45.9448L45.8511 39.6651L47.8193 41.5396L41.3334 47.8193ZM50.2 43.6016L52.918 46.0947L70.0325 61.8595C70.9202 62.6505 71.5475 63.6917 71.8319 64.8461C72.1163 66.0005 72.0445 67.2139 71.6259 68.3267C71.2199 69.4157 70.4864 70.3521 69.5264 71.0073C68.5779 71.6822 67.4474 72.0547 66.2835 72.0757C65.461 72.0957 64.6435 71.9424 63.8841 71.6258C63.1674 71.294 62.5287 70.815 62.0095 70.2199C55.961 63.6466 49.9063 57.0732 43.8453 50.4999L43.6579 50.2749L50.2 43.6016ZM26.4309 54.7176C26.1031 55.0039 25.8715 55.3842 25.7676 55.8068C25.6636 56.2294 25.6923 56.6738 25.8498 57.0795C26.3895 58.9122 26.4682 60.8499 26.0791 62.7204C25.6899 64.5909 24.8449 66.3363 23.6191 67.8018C22.7854 68.8346 21.7687 69.7052 20.6199 70.3699C19.6398 70.9408 18.5866 71.376 17.4894 71.6633C16.1441 72.0553 14.7265 72.1322 13.3467 71.8883C13.909 71.3822 14.3589 71.0073 14.7713 70.5949L17.7893 67.6143C18.0329 67.4086 18.2201 67.1441 18.3329 66.8458C18.4658 66.5588 18.5238 66.2428 18.5016 65.9273V65.215C18.5016 64.3152 18.5016 63.3404 18.5016 62.4969C18.4548 61.9486 18.246 61.4266 17.9018 60.9973L17.3394 60.4161C16.271 59.2914 15.165 58.1855 14.0215 57.1357C13.6543 56.8002 13.1863 56.5958 12.6906 56.5546C11.4426 56.4637 10.1896 56.4637 8.94153 56.5546C8.3963 56.6105 7.88358 56.8405 7.4794 57.2107C6.01726 58.5604 4.61136 59.985 3.11174 61.4659C2.90191 59.5987 3.15854 57.7085 3.85863 55.9648C4.55873 54.2211 5.68042 52.6783 7.12324 51.4746C8.26173 50.4688 9.5943 49.707 11.0387 49.2363C12.4831 48.7656 14.0086 48.5959 15.5211 48.7378C16.0458 48.7745 16.5663 48.8561 17.077 48.9815L17.958 49.1877C18.3677 49.3266 18.8095 49.3401 19.2269 49.2266C19.6443 49.1131 20.0183 48.8776 20.3012 48.5504C29.6863 39.1402 39.0902 29.7676 48.5129 20.4324C48.8406 20.1458 49.0747 19.7675 49.185 19.3465C49.2953 18.9254 49.2766 18.4809 49.1315 18.0705L49.019 17.6581C48.2497 14.6679 48.6979 11.4946 50.2652 8.83434C51.8325 6.17411 54.391 4.24417 57.3794 3.46788C58.7323 3.08645 60.1508 2.997 61.5409 3.20545C60.4162 4.34891 59.4602 5.49238 58.3354 6.42964C57.7156 6.9302 57.2325 7.57938 56.931 8.3168C56.6295 9.05423 56.5193 9.85593 56.6109 10.6473C56.7608 14.0777 56.2922 13.103 58.5979 15.5586C59.3477 16.3647 60.135 17.1332 60.8848 17.9205L61.1847 18.2204L61.5596 18.4454C61.8335 18.5568 62.1263 18.6141 62.4219 18.6141H66.0023C66.3062 18.6173 66.607 18.5533 66.8833 18.4266C67.1633 18.3088 67.4131 18.1294 67.6144 17.9018L71.7196 13.7591C71.7196 13.7591 71.7196 13.7591 71.9071 13.7591C72.1357 15.7637 71.8115 17.7927 70.9698 19.6263C70.6917 20.2458 70.3526 20.8361 69.9575 21.3884C68.5805 23.4632 66.5707 25.0382 64.2268 25.8791C61.8829 26.7201 59.3302 26.7821 56.9483 26.056C56.563 25.9149 56.1441 25.8931 55.7463 25.9934C55.3484 26.0937 54.99 26.3115 54.7176 26.6183C45.3074 35.9285 35.8786 45.2949 26.4309 54.7176Z" fill="#0C4578"/>
</g>
<defs>
<linearGradient id="paint0_linear_1_5605" x1="14.94" y1="37.4906" x2="74.7376" y2="37.4906" gradientUnits="userSpaceOnUse">
<stop stop-color="#176AB4"/>
<stop offset="1" stop-color="#B1FFC7"/>
</linearGradient>
<linearGradient id="paint1_linear_1_5605" x1="17.3022" y1="62.8154" x2="18.5019" y2="62.8154" gradientUnits="userSpaceOnUse">
<stop stop-color="#C21500"/>
<stop offset="0.52" stop-color="#F37429"/>
<stop offset="1" stop-color="#FFD1B0"/>
</linearGradient>
<linearGradient id="paint2_linear_1_5605" x1="17.0784" y1="33.3847" x2="49.2641" y2="33.3847" gradientUnits="userSpaceOnUse">
<stop stop-color="#C21500"/>
<stop offset="0.52" stop-color="#F37429"/>
<stop offset="1" stop-color="#FFD1B0"/>
</linearGradient>
<linearGradient id="paint3_linear_1_5605" x1="61.2034" y1="18.2773" x2="62.853" y2="18.2773" gradientUnits="userSpaceOnUse">
<stop stop-color="#C21500"/>
<stop offset="0.52" stop-color="#F37429"/>
<stop offset="1" stop-color="#FFD1B0"/>
</linearGradient>
<linearGradient id="paint4_linear_1_5605" x1="20.6018" y1="48.0824" x2="74.7383" y2="48.0824" gradientUnits="userSpaceOnUse">
<stop stop-color="#C21500"/>
<stop offset="0.52" stop-color="#F37429"/>
<stop offset="1" stop-color="#FFD1B0"/>
</linearGradient>
<clipPath id="clip0_1_5605">
<rect width="74.7563" height="75" fill="white"/>
</clipPath>
</defs>
</svg>
