<svg width="342" height="342" viewBox="0 0 372 342" fill="none" xmlns="http://www.w3.org/2000/svg">
<rect x="15.5" y="0.5" width="341" height="341" rx="170.5" fill="white" stroke="#1D2742" stroke-dasharray="5 10"/>
<rect x="46" y="38" width="30" height="30" rx="15" fill="url(#paint0_linear_350_15174)"/>
<rect x="49" y="41" width="24" height="24" rx="12" fill="white"/>
<rect x="55" y="47" width="12" height="12" rx="6" fill="url(#paint1_linear_350_15174)"/>
<rect x="294" y="38" width="30" height="30" rx="15" fill="url(#paint2_linear_350_15174)"/>
<rect x="297" y="41" width="24" height="24" rx="12" fill="white"/>
<rect x="303" y="47" width="12" height="12" rx="6" fill="url(#paint3_linear_350_15174)"/>
<rect x="46" y="273" width="30" height="30" rx="15" fill="url(#paint4_linear_350_15174)"/>
<rect x="49" y="276" width="24" height="24" rx="12" fill="white"/>
<rect x="55" y="282" width="12" height="12" rx="6" fill="url(#paint5_linear_350_15174)"/>
<rect x="294" y="273" width="30" height="30" rx="15" fill="url(#paint6_linear_350_15174)"/>
<rect x="297" y="276" width="24" height="24" rx="12" fill="white"/>
<rect x="303" y="282" width="12" height="12" rx="6" fill="url(#paint7_linear_350_15174)"/>
<rect y="156" width="30" height="30" rx="15" fill="url(#paint8_linear_350_15174)"/>
<rect x="3" y="159" width="24" height="24" rx="12" fill="white"/>
<rect x="9" y="165" width="12" height="12" rx="6" fill="url(#paint9_linear_350_15174)"/>
<rect x="342" y="156" width="30" height="30" rx="15" fill="url(#paint10_linear_350_15174)"/>
<rect x="345" y="159" width="24" height="24" rx="12" fill="white"/>
<rect x="351" y="165" width="12" height="12" rx="6" fill="url(#paint11_linear_350_15174)"/>
<defs>
<linearGradient id="paint0_linear_350_15174" x1="61" y1="38" x2="61" y2="68" gradientUnits="userSpaceOnUse">
<stop stop-color="#448AF4"/>
<stop offset="1" stop-color="#0052CF"/>
</linearGradient>
<linearGradient id="paint1_linear_350_15174" x1="61" y1="47" x2="61" y2="59" gradientUnits="userSpaceOnUse">
<stop stop-color="#448AF4"/>
<stop offset="1" stop-color="#0052CF"/>
</linearGradient>
<linearGradient id="paint2_linear_350_15174" x1="309" y1="38" x2="309" y2="68" gradientUnits="userSpaceOnUse">
<stop stop-color="#448AF4"/>
<stop offset="1" stop-color="#0052CF"/>
</linearGradient>
<linearGradient id="paint3_linear_350_15174" x1="309" y1="47" x2="309" y2="59" gradientUnits="userSpaceOnUse">
<stop stop-color="#448AF4"/>
<stop offset="1" stop-color="#0052CF"/>
</linearGradient>
<linearGradient id="paint4_linear_350_15174" x1="61" y1="273" x2="61" y2="303" gradientUnits="userSpaceOnUse">
<stop stop-color="#448AF4"/>
<stop offset="1" stop-color="#0052CF"/>
</linearGradient>
<linearGradient id="paint5_linear_350_15174" x1="61" y1="282" x2="61" y2="294" gradientUnits="userSpaceOnUse">
<stop stop-color="#448AF4"/>
<stop offset="1" stop-color="#0052CF"/>
</linearGradient>
<linearGradient id="paint6_linear_350_15174" x1="309" y1="273" x2="309" y2="303" gradientUnits="userSpaceOnUse">
<stop stop-color="#448AF4"/>
<stop offset="1" stop-color="#0052CF"/>
</linearGradient>
<linearGradient id="paint7_linear_350_15174" x1="309" y1="282" x2="309" y2="294" gradientUnits="userSpaceOnUse">
<stop stop-color="#448AF4"/>
<stop offset="1" stop-color="#0052CF"/>
</linearGradient>
<linearGradient id="paint8_linear_350_15174" x1="15" y1="156" x2="15" y2="186" gradientUnits="userSpaceOnUse">
<stop stop-color="#448AF4"/>
<stop offset="1" stop-color="#0052CF"/>
</linearGradient>
<linearGradient id="paint9_linear_350_15174" x1="15" y1="165" x2="15" y2="177" gradientUnits="userSpaceOnUse">
<stop stop-color="#448AF4"/>
<stop offset="1" stop-color="#0052CF"/>
</linearGradient>
<linearGradient id="paint10_linear_350_15174" x1="357" y1="156" x2="357" y2="186" gradientUnits="userSpaceOnUse">
<stop stop-color="#448AF4"/>
<stop offset="1" stop-color="#0052CF"/>
</linearGradient>
<linearGradient id="paint11_linear_350_15174" x1="357" y1="165" x2="357" y2="177" gradientUnits="userSpaceOnUse">
<stop stop-color="#448AF4"/>
<stop offset="1" stop-color="#0052CF"/>
</linearGradient>
</defs>
</svg>
