<svg width="357" height="342" viewBox="0 0 357 342" fill="none" xmlns="http://www.w3.org/2000/svg">
<rect x="15.5" y="0.5" width="341" height="341" rx="170.5" fill="white" stroke="#1D2742" stroke-dasharray="5 10"/>
<rect x="48" y="43" width="30" height="30" rx="15" fill="url(#paint0_linear_354_15232)"/>
<rect x="51" y="46" width="24" height="24" rx="12" fill="white"/>
<rect x="57" y="52" width="12" height="12" rx="6" fill="url(#paint1_linear_354_15232)"/>
<rect x="316" y="73" width="30" height="30" rx="15" fill="url(#paint2_linear_354_15232)"/>
<rect x="319" y="76" width="24" height="24" rx="12" fill="white"/>
<rect x="325" y="82" width="12" height="12" rx="6" fill="url(#paint3_linear_354_15232)"/>
<rect x="51" y="282" width="30" height="30" rx="15" fill="url(#paint4_linear_354_15232)"/>
<rect x="54" y="285" width="24" height="24" rx="12" fill="white"/>
<rect x="60" y="291" width="12" height="12" rx="6" fill="url(#paint5_linear_354_15232)"/>
<rect x="316" y="246" width="30" height="30" rx="15" fill="url(#paint6_linear_354_15232)"/>
<rect x="319" y="249" width="24" height="24" rx="12" fill="white"/>
<rect x="325" y="255" width="12" height="12" rx="6" fill="url(#paint7_linear_354_15232)"/>
<rect y="156" width="30" height="30" rx="15" fill="url(#paint8_linear_354_15232)"/>
<rect x="3" y="159" width="24" height="24" rx="12" fill="white"/>
<rect x="9" y="165" width="12" height="12" rx="6" fill="url(#paint9_linear_354_15232)"/>
<defs>
<linearGradient id="paint0_linear_354_15232" x1="63" y1="43" x2="63" y2="73" gradientUnits="userSpaceOnUse">
<stop stop-color="#448AF4"/>
<stop offset="1" stop-color="#0052CF"/>
</linearGradient>
<linearGradient id="paint1_linear_354_15232" x1="63" y1="52" x2="63" y2="64" gradientUnits="userSpaceOnUse">
<stop stop-color="#448AF4"/>
<stop offset="1" stop-color="#0052CF"/>
</linearGradient>
<linearGradient id="paint2_linear_354_15232" x1="331" y1="73" x2="331" y2="103" gradientUnits="userSpaceOnUse">
<stop stop-color="#448AF4"/>
<stop offset="1" stop-color="#0052CF"/>
</linearGradient>
<linearGradient id="paint3_linear_354_15232" x1="331" y1="82" x2="331" y2="94" gradientUnits="userSpaceOnUse">
<stop stop-color="#448AF4"/>
<stop offset="1" stop-color="#0052CF"/>
</linearGradient>
<linearGradient id="paint4_linear_354_15232" x1="66" y1="282" x2="66" y2="312" gradientUnits="userSpaceOnUse">
<stop stop-color="#448AF4"/>
<stop offset="1" stop-color="#0052CF"/>
</linearGradient>
<linearGradient id="paint5_linear_354_15232" x1="66" y1="291" x2="66" y2="303" gradientUnits="userSpaceOnUse">
<stop stop-color="#448AF4"/>
<stop offset="1" stop-color="#0052CF"/>
</linearGradient>
<linearGradient id="paint6_linear_354_15232" x1="331" y1="246" x2="331" y2="276" gradientUnits="userSpaceOnUse">
<stop stop-color="#448AF4"/>
<stop offset="1" stop-color="#0052CF"/>
</linearGradient>
<linearGradient id="paint7_linear_354_15232" x1="331" y1="255" x2="331" y2="267" gradientUnits="userSpaceOnUse">
<stop stop-color="#448AF4"/>
<stop offset="1" stop-color="#0052CF"/>
</linearGradient>
<linearGradient id="paint8_linear_354_15232" x1="15" y1="156" x2="15" y2="186" gradientUnits="userSpaceOnUse">
<stop stop-color="#448AF4"/>
<stop offset="1" stop-color="#0052CF"/>
</linearGradient>
<linearGradient id="paint9_linear_354_15232" x1="15" y1="165" x2="15" y2="177" gradientUnits="userSpaceOnUse">
<stop stop-color="#448AF4"/>
<stop offset="1" stop-color="#0052CF"/>
</linearGradient>
</defs>
</svg>
