<svg width="357" height="342" viewBox="0 0 357 342" fill="none" xmlns="http://www.w3.org/2000/svg">
<rect x="0.5" y="0.5" width="341" height="341" rx="170.5" fill="white" stroke="#1D2742" stroke-dasharray="5 10"/>
<rect x="15" y="59" width="30" height="30" rx="15" fill="url(#paint0_linear_354_15223)"/>
<rect x="18" y="62" width="24" height="24" rx="12" fill="white"/>
<rect x="24" y="68" width="12" height="12" rx="6" fill="url(#paint1_linear_354_15223)"/>
<rect x="279" y="38" width="30" height="30" rx="15" fill="url(#paint2_linear_354_15223)"/>
<rect x="282" y="41" width="24" height="24" rx="12" fill="white"/>
<rect x="288" y="47" width="12" height="12" rx="6" fill="url(#paint3_linear_354_15223)"/>
<rect x="6" y="243" width="30" height="30" rx="15" fill="url(#paint4_linear_354_15223)"/>
<rect x="9" y="246" width="24" height="24" rx="12" fill="white"/>
<rect x="15" y="252" width="12" height="12" rx="6" fill="url(#paint5_linear_354_15223)"/>
<rect x="279" y="273" width="30" height="30" rx="15" fill="url(#paint6_linear_354_15223)"/>
<rect x="282" y="276" width="24" height="24" rx="12" fill="white"/>
<rect x="288" y="282" width="12" height="12" rx="6" fill="url(#paint7_linear_354_15223)"/>
<rect x="327" y="156" width="30" height="30" rx="15" fill="url(#paint8_linear_354_15223)"/>
<rect x="330" y="159" width="24" height="24" rx="12" fill="white"/>
<rect x="336" y="165" width="12" height="12" rx="6" fill="url(#paint9_linear_354_15223)"/>
<defs>
<linearGradient id="paint0_linear_354_15223" x1="30" y1="59" x2="30" y2="89" gradientUnits="userSpaceOnUse">
<stop stop-color="#448AF4"/>
<stop offset="1" stop-color="#0052CF"/>
</linearGradient>
<linearGradient id="paint1_linear_354_15223" x1="30" y1="68" x2="30" y2="80" gradientUnits="userSpaceOnUse">
<stop stop-color="#448AF4"/>
<stop offset="1" stop-color="#0052CF"/>
</linearGradient>
<linearGradient id="paint2_linear_354_15223" x1="294" y1="38" x2="294" y2="68" gradientUnits="userSpaceOnUse">
<stop stop-color="#448AF4"/>
<stop offset="1" stop-color="#0052CF"/>
</linearGradient>
<linearGradient id="paint3_linear_354_15223" x1="294" y1="47" x2="294" y2="59" gradientUnits="userSpaceOnUse">
<stop stop-color="#448AF4"/>
<stop offset="1" stop-color="#0052CF"/>
</linearGradient>
<linearGradient id="paint4_linear_354_15223" x1="21" y1="243" x2="21" y2="273" gradientUnits="userSpaceOnUse">
<stop stop-color="#448AF4"/>
<stop offset="1" stop-color="#0052CF"/>
</linearGradient>
<linearGradient id="paint5_linear_354_15223" x1="21" y1="252" x2="21" y2="264" gradientUnits="userSpaceOnUse">
<stop stop-color="#448AF4"/>
<stop offset="1" stop-color="#0052CF"/>
</linearGradient>
<linearGradient id="paint6_linear_354_15223" x1="294" y1="273" x2="294" y2="303" gradientUnits="userSpaceOnUse">
<stop stop-color="#448AF4"/>
<stop offset="1" stop-color="#0052CF"/>
</linearGradient>
<linearGradient id="paint7_linear_354_15223" x1="294" y1="282" x2="294" y2="294" gradientUnits="userSpaceOnUse">
<stop stop-color="#448AF4"/>
<stop offset="1" stop-color="#0052CF"/>
</linearGradient>
<linearGradient id="paint8_linear_354_15223" x1="342" y1="156" x2="342" y2="186" gradientUnits="userSpaceOnUse">
<stop stop-color="#448AF4"/>
<stop offset="1" stop-color="#0052CF"/>
</linearGradient>
<linearGradient id="paint9_linear_354_15223" x1="342" y1="165" x2="342" y2="177" gradientUnits="userSpaceOnUse">
<stop stop-color="#448AF4"/>
<stop offset="1" stop-color="#0052CF"/>
</linearGradient>
</defs>
</svg>
