<svg width="82" height="65" viewBox="0 0 82 65" fill="none" xmlns="http://www.w3.org/2000/svg">
<g clip-path="url(#clip0_619_15673)">
<path d="M68.1698 36.6197C67.535 36.6197 67.1118 36.2939 66.9891 35.6654C66.8748 35.0814 67.0906 34.6074 67.6514 34.3746C67.9492 34.2758 68.2626 34.2321 68.5761 34.2456C69.5092 34.2286 70.4445 34.2456 71.4073 34.2456C71.1201 29.7685 69.3411 25.5169 66.3543 22.1694C65.6136 22.9587 64.945 23.7014 64.2382 24.4103C63.6267 25.0261 62.939 25.0451 62.429 24.533C61.9191 24.0209 61.9614 23.3417 62.575 22.7259C63.2628 22.034 63.9759 21.3696 64.7799 20.5951C63.2554 19.2581 61.5447 18.1497 59.7015 17.3047C56.2499 18.7121 53.1261 20.8172 50.5261 23.4882C47.9261 26.1592 45.9058 29.3385 44.5918 32.8268C43.2779 36.315 42.6986 40.0371 42.8904 43.7597C43.0821 47.4823 44.0407 51.1251 45.7061 54.4599C47.2201 54.9201 48.7822 55.2041 50.3614 55.3064C50.3614 54.2483 50.3614 53.2729 50.3614 52.3016C50.3614 51.3727 50.8121 50.8521 51.5633 50.8648C52.3144 50.8775 52.7334 51.4002 52.7419 52.3355C52.7419 53.3067 52.7419 54.2758 52.7419 55.3148C57.2125 55.0311 61.4591 53.2572 64.8032 50.2766C64.0351 49.5444 63.322 48.8842 62.6279 48.1965C61.9741 47.5469 61.9275 46.8444 62.4587 46.3302C62.9898 45.816 63.6606 45.8647 64.3292 46.5418C64.9979 47.2189 65.675 47.9489 66.3839 48.6959C69.4394 45.1685 71.0878 41.2263 71.4116 36.6346C70.271 36.624 69.2194 36.6324 68.1698 36.6197ZM56.5317 31.6936C55.1668 33.086 53.8147 34.4931 52.3949 35.8305C52.1113 36.0971 51.4723 36.277 51.1506 36.1373C50.9447 36.0259 50.7675 35.8681 50.6331 35.6764C50.4986 35.4847 50.4107 35.2643 50.3762 35.0327C50.3127 32.1338 50.3317 29.2327 50.3487 26.3338C50.3406 26.1747 50.3658 26.0157 50.4225 25.8668C50.4792 25.718 50.5662 25.5826 50.678 25.4692C50.7898 25.3558 50.924 25.2668 51.072 25.208C51.2201 25.1492 51.3787 25.1219 51.5379 25.1276C51.6971 25.1289 51.8545 25.1623 52.0006 25.2257C52.1467 25.2892 52.2785 25.3814 52.3881 25.497C52.4977 25.6125 52.583 25.749 52.6386 25.8982C52.6943 26.0475 52.7194 26.2064 52.7123 26.3655C52.7398 27.8933 52.7123 29.4232 52.7123 30.9509V31.8904L52.9239 32.0132C53.5587 31.3487 54.1765 30.6737 54.8283 30.0283C55.48 29.3829 56.172 29.3322 56.6967 29.876C57.1898 30.3817 57.1432 31.0758 56.5401 31.6936H56.5317Z" fill="url(#paint0_linear_619_15673)"/>
<path d="M81.0924 37.406C80.83 38.9867 80.6501 40.58 80.2904 42.1417C78.9234 48.0369 75.9843 53.0349 71.5618 57.1654C70.8614 57.8193 70.125 57.8785 69.6214 57.3241C69.1178 56.7697 69.2363 56.0863 69.9071 55.4557C74.3782 51.2533 77.2856 46.1684 78.259 40.1018C79.8333 30.2919 76.9725 21.868 69.6172 15.2364C59.2211 5.87725 44.0577 5.92592 33.4966 15.1179C33.3781 15.2216 33.2639 15.3295 33.1369 15.429C32.5592 15.8733 31.8673 15.8522 31.4293 15.3697C31.322 15.2524 31.2399 15.1143 31.1879 14.964C31.136 14.8138 31.1153 14.6545 31.1272 14.4959C31.1391 14.3374 31.1833 14.1829 31.2571 14.0421C31.3309 13.9012 31.4327 13.777 31.5563 13.6769C32.4683 12.8771 33.3951 12.0878 34.3769 11.3789C37.1553 9.35695 40.284 7.86684 43.6049 6.98393C44.1445 6.84004 44.3772 6.63267 44.3497 6.03172C44.2947 4.81924 44.3222 3.60253 44.337 2.38793C44.3561 0.917296 45.2406 0.0201022 46.7154 0.0116381C49.9092 -0.00387938 53.103 -0.00387938 56.2968 0.0116381C57.8521 0.0116381 58.726 0.913064 58.7408 2.4895C58.7556 3.88819 58.7408 5.28477 58.7408 6.66865C60.2136 7.19554 61.6863 7.61874 63.0575 8.25355C73.553 13.0675 79.5498 21.1973 80.9485 32.6852C80.9837 32.89 81.0303 33.0928 81.0881 33.2924L81.0924 37.406ZM56.3116 6.04654V2.4493H46.7768V6.04654H56.3116Z" fill="#0C4578"/>
<path d="M29.2477 35.4238C29.2498 31.0167 30.5585 26.7092 33.0084 23.0457C35.4583 19.3823 38.9393 16.5275 43.0115 14.8422C47.0837 13.157 51.5641 12.7169 55.8863 13.5776C60.2086 14.4384 64.1786 16.5614 67.2944 19.6781C70.4103 22.7948 72.5321 26.7654 73.3916 31.0879C74.2512 35.4104 73.8098 39.8907 72.1234 43.9624C70.4369 48.0341 67.5811 51.5143 63.917 53.9632C60.2529 56.412 55.945 57.7195 51.5379 57.7204C48.6095 57.7226 45.7095 57.1473 43.0037 56.0276C40.2979 54.9078 37.8395 53.2654 35.7691 51.1944C33.6987 49.1235 32.0571 46.6646 30.9381 43.9585C29.819 41.2524 29.2446 38.3522 29.2477 35.4238ZM64.782 20.5905C61.2589 17.5413 57.321 15.8908 52.7313 15.5671C52.7313 16.6251 52.7313 17.5963 52.7313 18.5676C52.7207 19.4923 52.2742 20.0107 51.5209 20.0065C50.7676 20.0022 50.3571 19.4965 50.3508 18.5422C50.3444 17.5879 50.3508 16.6018 50.3508 15.5628C45.8866 15.8388 41.6438 17.603 38.3 20.5736C39.0364 21.2888 39.7453 21.9575 40.433 22.6494C41.1207 23.3413 41.1651 23.9846 40.6446 24.5221C40.124 25.0595 39.4321 25.0088 38.774 24.357C38.0821 23.6714 37.4113 22.9626 36.6728 22.2029C33.7036 25.5425 31.9394 29.7809 31.6621 34.241C32.7814 34.241 33.831 34.241 34.8784 34.241C35.5132 34.241 36.0295 34.5753 36.0549 35.1826C36.0718 35.6058 35.7735 36.0883 35.4857 36.4374C35.3334 36.6194 34.8996 36.6088 34.5927 36.6151C33.63 36.6363 32.6672 36.6151 31.6557 36.6151C32.0133 41.2492 33.649 45.1893 36.6707 48.6469C37.4303 47.8724 38.1032 47.1656 38.7973 46.4822C39.4321 45.8474 40.0796 45.8029 40.6107 46.3065C41.1418 46.8101 41.1249 47.5232 40.4626 48.175C39.7558 48.8712 39.0131 49.5292 38.245 50.2444C41.8211 53.3169 45.7569 54.9759 50.3508 55.2912C50.3508 54.2332 50.3508 53.2577 50.3508 52.2864C50.3508 51.3596 50.8015 50.8391 51.5527 50.8496C52.3039 50.8602 52.7228 51.385 52.7313 52.3308C52.7313 53.3 52.7313 54.2691 52.7313 55.3081C57.2022 55.0253 61.4491 53.2513 64.7926 50.2698C64.0245 49.5377 63.3114 48.8796 62.6152 48.1919C61.9635 47.5423 61.917 46.8398 62.4481 46.3235C62.9792 45.8072 63.65 45.8601 64.3186 46.5351C64.9873 47.2101 65.6623 47.9422 66.3733 48.6913C69.4288 45.1618 71.0772 41.2196 71.3989 36.6194C70.2731 36.6194 69.2215 36.63 68.1719 36.6194C67.5371 36.6194 67.1139 36.2956 66.9912 35.6672C66.8769 35.0831 67.0927 34.6092 67.6535 34.3764C67.9514 34.2779 68.2646 34.2335 68.5782 34.2452C69.5114 34.2304 70.4466 34.2452 71.4094 34.2452C71.1202 29.7693 69.3413 25.5189 66.3564 22.1712C65.6158 22.9583 64.9471 23.7032 64.2403 24.4099C63.6288 25.0257 62.9411 25.0447 62.4311 24.5348C61.9212 24.0248 61.9635 23.3413 62.5772 22.7256C63.2691 22.0294 63.978 21.3734 64.782 20.5905Z" fill="#0C4578"/>
<path d="M21.8437 35.3857C22.0215 28.8874 23.9449 23.0303 27.8067 17.8227C28.0183 17.5519 28.2426 17.1604 28.5092 17.116C28.9724 17.0272 29.452 17.0957 29.8719 17.3106C30.3628 17.6217 30.3903 18.2163 30.0835 18.7241C29.7767 19.232 29.3514 19.7568 28.9959 20.2794C18.5491 35.7264 26.6682 57.1532 44.737 61.7344C52.0563 63.5923 59.0159 62.5554 65.5417 58.7254C65.6771 58.645 65.8104 58.5562 65.9501 58.4821C66.6526 58.1076 67.3319 58.2493 67.6789 58.8376C68.0259 59.4258 67.8397 60.1072 67.1668 60.5304C64.4821 62.2129 61.541 63.4465 58.4594 64.1827C42.1871 68.1037 25.7626 57.6061 22.5589 41.1921C22.1759 39.2792 22.0722 37.3198 21.8437 35.3857Z" fill="#0C4578"/>
<path d="M8.81324 34.5287C11.2424 34.5287 13.6695 34.5287 16.0966 34.5287C17.0954 34.5287 17.618 34.9519 17.599 35.737C17.5842 36.4797 17.0615 36.9093 16.1177 36.9093C11.234 36.9093 6.35159 36.9093 1.47063 36.9093C0.550164 36.9093 0.0063458 36.4522 -0.0105824 35.72C-0.0275106 34.9879 0.520539 34.533 1.44101 34.5308C3.90618 34.5245 6.36076 34.5287 8.81324 34.5287Z" fill="#0C4578"/>
<path d="M12.0338 29.9487C10.1082 29.9487 8.18266 29.9487 6.25708 29.9487C5.33238 29.9487 4.77586 29.5065 4.76105 28.7828C4.74624 28.0591 5.30699 27.5703 6.27612 27.5703C10.0737 27.5703 13.8726 27.5703 17.673 27.5703C18.6803 27.5703 19.1966 27.9935 19.1923 28.7616C19.1881 29.5298 18.6506 29.9487 17.654 29.9508C15.7792 29.9537 13.9058 29.953 12.0338 29.9487Z" fill="#0C4578"/>
<path d="M11.9513 43.3063C10.0469 43.3063 8.15303 43.3063 6.25285 43.3063C5.32391 43.3063 4.77163 42.8683 4.77163 42.151C4.7547 41.3998 5.32603 40.9279 6.29093 40.9258C10.0899 40.9258 13.8882 40.9258 17.6857 40.9258C17.7915 40.9258 17.8973 40.9258 18.0031 40.9258C18.7543 40.9956 19.2071 41.4548 19.2008 42.1361C19.1944 42.8175 18.748 43.2873 17.9756 43.2957C15.9717 43.3169 13.9552 43.2957 11.9619 43.2957L11.9513 43.3063Z" fill="#0C4578"/>
<path d="M14.5667 50.2643C13.0622 50.2643 11.5577 50.2643 10.0532 50.2643C9.05234 50.2643 8.52545 49.8411 8.53815 49.0603C8.55085 48.3176 9.0735 47.8796 10.0194 47.8774C13.1342 47.869 16.2482 47.869 19.3616 47.8774C20.2821 47.8774 20.8026 48.343 20.792 49.0963C20.7815 49.8496 20.2821 50.258 19.3235 50.2622C17.7323 50.2707 16.1495 50.2643 14.5667 50.2643Z" fill="#0C4578"/>
<path d="M14.7254 20.6043C16.2828 20.6043 17.8381 20.6043 19.3955 20.6043C20.2757 20.6043 20.7751 21.0423 20.7836 21.7702C20.792 22.4981 20.2863 22.9763 19.4314 22.9784C16.2645 22.9897 13.0975 22.9897 9.9305 22.9784C9.06293 22.9784 8.54873 22.5256 8.53815 21.8062C8.52757 21.0529 9.04811 20.6085 9.97493 20.6022C11.5577 20.6 13.1426 20.6043 14.7254 20.6043Z" fill="#0C4578"/>
<path d="M56.3116 6.04646H46.7768V2.44922H56.3116V6.04646Z" fill="url(#paint1_linear_619_15673)"/>
<path d="M52.9323 32.0111C53.5671 31.3488 54.185 30.6738 54.8367 30.0263C55.4885 29.3788 56.1804 29.3301 56.7031 29.874C57.1919 30.3818 57.1474 31.0737 56.5444 31.6916C55.1795 33.0861 53.8274 34.4911 52.4075 35.8285C52.124 36.0951 51.485 36.2749 51.1633 36.1353C50.9574 36.0239 50.7802 35.8661 50.6458 35.6744C50.5113 35.4827 50.4234 35.2623 50.3889 35.0307C50.3254 32.1318 50.3444 29.2328 50.3613 26.3339C50.3537 26.1748 50.379 26.0158 50.4358 25.867C50.4926 25.7182 50.5796 25.5828 50.6913 25.4693C50.8031 25.3558 50.9371 25.2666 51.085 25.2075C51.2328 25.1483 51.3914 25.1205 51.5506 25.1256C51.7098 25.1269 51.8672 25.1602 52.0133 25.2237C52.1594 25.2872 52.2912 25.3794 52.4008 25.495C52.5104 25.6105 52.5956 25.747 52.6513 25.8962C52.707 26.0454 52.7321 26.2044 52.7249 26.3635C52.7503 27.8934 52.7249 29.4211 52.7249 30.951V31.8905L52.9323 32.0111Z" fill="black"/>
<path d="M50.3846 35.0309C50.3211 32.1319 50.3402 29.2308 50.3571 26.3319C50.3491 26.1728 50.3742 26.0138 50.4309 25.865C50.4876 25.7161 50.5747 25.5807 50.6865 25.4673C50.7983 25.3539 50.9325 25.265 51.0805 25.2062C51.2285 25.1474 51.3872 25.12 51.5463 25.1258C51.7056 25.127 51.863 25.1604 52.0091 25.2238C52.1552 25.2873 52.287 25.3796 52.3966 25.4951C52.5062 25.6107 52.5914 25.7471 52.6471 25.8964C52.7028 26.0456 52.7278 26.2045 52.7207 26.3636C52.7482 27.8914 52.7207 29.4213 52.7207 30.9491V31.8886L52.9323 32.0113C53.5671 31.3469 54.185 30.6719 54.8367 30.0265C55.4885 29.3811 56.1804 29.3303 56.7052 29.8741C57.194 30.3798 57.1474 31.0739 56.5444 31.6918C55.1795 33.0841 53.8274 34.4913 52.4075 35.8286C52.124 36.0952 51.485 36.2751 51.1633 36.1354C50.9566 36.0245 50.7786 35.867 50.6434 35.6752C50.5082 35.4835 50.4196 35.2628 50.3846 35.0309Z" fill="#0C4578"/>
</g>
<defs>
<linearGradient id="paint0_linear_619_15673" x1="42.8495" y1="36.3066" x2="71.4073" y2="36.3066" gradientUnits="userSpaceOnUse">
<stop stop-color="#176AB4"/>
<stop offset="1" stop-color="#B1FFC7"/>
</linearGradient>
<linearGradient id="paint1_linear_619_15673" x1="46.7768" y1="4.25207" x2="56.3116" y2="4.25207" gradientUnits="userSpaceOnUse">
<stop stop-color="#C21500"/>
<stop offset="0.52" stop-color="#F37429"/>
<stop offset="1" stop-color="#FFD1B0"/>
</linearGradient>
<clipPath id="clip0_619_15673">
<rect width="81.0924" height="65" fill="white"/>
</clipPath>
</defs>
</svg>
