<svg width="65" height="65" viewBox="0 0 65 65" fill="none" xmlns="http://www.w3.org/2000/svg">
<g clip-path="url(#clip0_619_15711)">
<path d="M47.0504 27.3267V24.1462C43.0335 23.9494 41.2077 19.4686 43.8576 16.6149L41.5557 14.3306C41.101 14.7753 40.5542 15.1148 39.9539 15.3249C39.3536 15.535 38.7145 15.6107 38.0817 15.5466C37.0901 15.4638 36.1585 15.0374 35.4479 14.3408C34.7372 13.6443 34.2922 12.7215 34.1896 11.7317C34.1439 11.2538 33.9928 11.0886 33.513 11.1114C32.768 11.1501 32.0212 11.0991 31.2779 11.1413C31.1145 11.1413 30.8316 11.3803 30.8281 11.5156C30.7437 14.9034 26.3209 17.049 23.425 14.3569L21.1161 16.6694C22.2846 17.9767 22.731 19.567 21.9947 21.3593C21.2584 23.1517 19.8421 23.9951 17.918 24.1111V27.3162C21.9455 27.52 23.7554 32.0131 21.0985 34.8615L23.4022 37.1459C23.8777 36.6713 24.4576 36.3145 25.0956 36.104C25.7336 35.8935 26.4119 35.8351 27.0765 35.9334C27.5579 35.9932 27.927 36.1864 28.0254 36.6609H36.9659C37.052 36.2444 37.4157 35.9861 38.0062 35.9229C38.6498 35.8446 39.3028 35.9124 39.9167 36.1211C40.5306 36.3297 41.0895 36.674 41.5522 37.1283L43.847 34.8264C41.4696 31.1767 42.7875 27.9699 47.0504 27.3267ZM32.4851 33.0341C31.0702 33.0344 29.687 32.6152 28.5103 31.8293C27.3337 31.0435 26.4166 29.9264 25.8749 28.6193C25.3332 27.3122 25.1913 25.8738 25.4671 24.4861C25.7429 23.0983 26.4241 21.8235 27.4244 20.8229C28.4248 19.8223 29.6994 19.1408 31.0871 18.8646C32.4748 18.5885 33.9132 18.73 35.2204 19.2714C36.5277 19.8128 37.645 20.7297 38.4311 21.9061C39.2172 23.0825 39.6368 24.4657 39.6368 25.8806C39.6368 27.7775 38.8834 29.5967 37.5422 30.9382C36.2011 32.2797 34.382 33.0336 32.4851 33.0341Z" fill="url(#paint0_linear_619_15711)"/>
<path d="M9.52572 19.1305L11.3954 18.0568C12.2019 17.593 12.7466 17.6351 13.0489 18.1834C13.3511 18.7316 13.1262 19.1814 12.288 19.6664C11.3409 20.2076 10.3779 20.7348 9.45367 21.3252C9.17739 21.503 8.98037 21.7806 8.90367 22.1001C7.78083 30.4661 10.2391 37.6073 16.4174 43.3621C17.8108 44.6624 19.5294 45.6148 21.1003 46.7235C21.1899 46.7868 21.2936 46.829 21.3867 46.8834C21.956 47.2208 22.1405 47.7111 21.8857 48.1961C21.631 48.681 21.1056 48.8146 20.5222 48.5071C18.4124 47.423 16.4715 46.0379 14.7604 44.3953C8.87029 38.6387 6.21342 31.6135 6.91103 23.4233C7.05863 21.6907 6.86534 20.2604 5.86726 18.9003C5.54799 18.4288 5.26091 17.9362 5.008 17.426C4.71455 16.8778 4.83228 16.3717 5.2786 16.1011C5.72493 15.8305 6.26262 15.9676 6.60528 16.5281C6.9778 17.1414 7.33099 17.7581 7.7615 18.5032C7.96358 17.9286 8.11294 17.4612 8.28866 17.0078C12.1545 7.31694 19.2236 1.53404 29.5734 0.203856C41.1849 -1.28799 52.22 5.53691 56.4882 16.4613C56.6409 16.8108 56.895 17.1064 57.2174 17.31C58.2173 17.9391 59.2611 18.5014 60.282 19.0971C60.9304 19.4749 61.1325 19.9933 60.8443 20.4923C60.5561 20.9913 60.0307 21.0669 59.3524 20.6838C58.7655 20.3517 58.1804 20.0143 57.6216 19.6963C57.8079 21.3867 58.089 23.0508 58.1593 24.7218C58.4159 30.7876 56.6885 36.2648 53.0775 41.1445C52.6417 41.7331 52.1427 41.8685 51.6806 41.5504C51.2184 41.2323 51.1534 40.6595 51.5962 40.0568C53.7069 37.2379 55.1682 33.9872 55.8754 30.5374C56.5826 27.0877 56.5182 23.5242 55.6869 20.1022C55.5743 20.2144 55.4709 20.3354 55.3777 20.4642C55.0754 20.972 54.7873 21.4886 54.4868 21.9965C54.102 22.6466 53.5959 22.8452 53.0916 22.5552C52.5873 22.2653 52.5187 21.7346 52.9 21.0687C53.4641 20.0794 54.0159 19.0813 54.6151 18.1148C54.7338 17.9478 54.8048 17.7515 54.8203 17.5472C54.8357 17.3428 54.7952 17.1381 54.7029 16.9551C51.2465 8.91949 45.2985 3.8342 36.6707 2.25625C25.0135 0.12654 13.8537 6.75815 9.9123 17.9233C9.79105 18.2747 9.68738 18.6262 9.52572 19.1305Z" fill="#0C4578"/>
<path d="M28.8565 50.2926V49.4245C28.8565 43.2217 28.8565 37.0182 28.8565 30.8142C28.8565 29.8214 29.0322 28.8989 29.6912 28.1134C30.1696 27.527 30.8189 27.1041 31.5487 26.9036C32.2785 26.7031 33.0527 26.7349 33.7636 26.9946C34.4745 27.2543 35.0869 27.729 35.5156 28.3528C35.9443 28.9765 36.1681 29.7183 36.1558 30.4751C36.1681 33.9894 36.1558 37.4898 36.1558 40.9971V41.7193C38.4402 41.1008 39.0851 41.2097 40.6876 42.4942C41.4485 41.7808 42.3376 41.3134 43.42 41.3204C44.5025 41.3274 45.3529 41.7773 46.1279 42.51C47.1664 41.5278 48.3472 41.0885 49.7529 41.4417C51.2483 41.8177 52.4414 43.1602 52.4678 44.696C52.5205 47.829 52.6294 50.9709 52.4678 54.0969C52.1427 60.5985 46.2192 65.5836 39.7282 64.9422C38.508 64.83 37.2944 64.654 36.0926 64.4151C34.0068 63.9881 32.2373 62.9109 30.6014 61.5807C28.9022 60.1978 27.1801 58.8431 25.4722 57.4707C24.635 56.814 24.0785 55.8638 23.9154 54.8124C23.7523 53.7609 23.9947 52.6868 24.5936 51.8073C25.372 50.6528 26.4632 50.1292 27.8444 50.203C28.1396 50.217 28.4436 50.2539 28.8565 50.2926ZM30.6963 40.9022V50.6985C30.6963 50.8953 30.6963 51.0939 30.6963 51.2907C30.6699 52.2466 30.2078 52.591 29.2905 52.3555C28.8499 52.2295 28.4014 52.1327 27.948 52.0656C26.7531 51.9215 25.9624 52.526 25.7498 53.7156C25.5741 54.7225 25.9378 55.5114 26.7338 56.13C27.7881 56.95 28.8424 57.7741 29.8967 58.6023C30.3097 58.9274 30.7297 59.249 31.1092 59.6109C33.6958 62.071 36.8411 63.0357 40.3309 63.1482C45.8116 63.3239 50.3469 59.3157 50.6421 53.8245C50.7967 50.8531 50.6649 47.8659 50.628 44.8857C50.6137 44.4305 50.4253 43.9982 50.1016 43.6778C49.778 43.3574 49.3437 43.1734 48.8884 43.1637C47.9624 43.1391 47.1997 43.8051 47.0732 44.7979C46.9977 45.3795 46.7938 45.8522 46.1472 45.8715C45.5005 45.8909 45.2686 45.4516 45.1843 44.8488C45.0402 43.8103 44.332 43.169 43.406 43.1637C42.4799 43.1584 41.7419 43.8262 41.6031 44.898C41.5258 45.4867 41.2517 45.8733 40.6648 45.8715C40.0779 45.8698 39.809 45.4498 39.7335 44.8787C39.5964 43.8244 38.8637 43.1426 37.9253 43.1637C37.0344 43.1848 36.2929 43.9087 36.1594 44.8875C36.0557 45.6361 35.7376 45.9805 35.1718 45.9576C34.606 45.9348 34.3073 45.5464 34.3073 44.7979C34.3073 42.5417 34.3073 40.2848 34.3073 38.0275C34.3073 35.5498 34.3213 33.0739 34.3073 30.5981C34.3073 29.2134 33.1827 28.3278 31.9597 28.7003C31.1408 28.9498 30.698 29.6633 30.6963 30.7773C30.6916 34.1558 30.6916 37.5308 30.6963 40.9022Z" fill="#0C4578"/>
<path d="M48.9271 27.211C48.913 28.369 48.1838 29.1439 47.0187 29.2177C45.9381 29.2862 45.1298 29.7448 44.6958 30.7605C44.2617 31.7761 44.4866 32.6705 45.186 33.5017C46.0347 34.5103 45.982 35.4803 45.063 36.4204C44.4199 37.0776 43.7697 37.7312 43.1108 38.3726C42.2322 39.2196 41.2007 39.2705 40.2887 38.471C39.9996 38.2024 39.6558 37.9994 39.281 37.876C38.9061 37.7525 38.509 37.7116 38.1169 37.7558C37.3859 37.8209 36.98 37.5046 36.9466 36.9247C36.9415 36.8359 36.9474 36.7467 36.9641 36.6594C37.0502 36.2429 37.414 35.9846 38.0044 35.9213C38.648 35.8431 39.301 35.9108 39.9149 36.1195C40.5288 36.3282 41.0878 36.6725 41.5504 37.1268L43.8453 34.8249C41.4731 31.1787 42.791 27.9718 47.0504 27.3287V24.1482C43.0335 23.9514 41.2077 19.4706 43.8576 16.6169L41.5557 14.3326C41.101 14.7773 40.5542 15.1167 39.9539 15.3269C39.3536 15.537 38.7145 15.6127 38.0817 15.5485C37.0901 15.4658 36.1585 15.0393 35.4479 14.3428C34.7372 13.6463 34.2922 12.7235 34.1896 11.7337C34.1439 11.2557 33.9927 11.0906 33.513 11.1134C32.768 11.1521 32.0212 11.1011 31.2779 11.1433C31.1145 11.1433 30.8316 11.3823 30.8281 11.5176C30.7437 14.9054 26.3209 17.0509 23.425 14.3589L21.1161 16.6714C22.2846 17.9787 22.731 19.569 21.9947 21.3613C21.2584 23.1536 19.8421 23.9971 17.918 24.1131V27.3182C21.9455 27.522 23.7554 32.0151 21.0985 34.8635L23.4022 37.1479C23.8777 36.6733 24.4576 36.3165 25.0956 36.106C25.7336 35.8955 26.4119 35.8371 27.0765 35.9354C27.5579 35.9951 27.9269 36.1884 28.0254 36.6629C28.0368 36.7138 28.0444 36.7655 28.0482 36.8175C28.0663 36.9496 28.0529 37.0841 28.0091 37.2101C27.9654 37.3361 27.8925 37.4499 27.7964 37.5424C27.7003 37.6349 27.5838 37.7034 27.4562 37.7423C27.3287 37.7812 27.1937 37.7895 27.0624 37.7664C26.6066 37.7056 26.1429 37.7472 25.7052 37.8883C25.2674 38.0293 24.8667 38.2662 24.5321 38.5817C23.7695 39.2477 22.7643 39.2055 22.0175 38.5149C21.2303 37.7875 20.4695 37.0248 19.7332 36.2394C18.9969 35.4539 18.9864 34.4523 19.7332 33.5685C20.2498 32.9535 20.5819 32.2892 20.473 31.4704C20.306 30.207 19.3835 29.3512 18.0955 29.2335C16.6687 29.1035 16.0414 28.4146 16.0396 26.9667C16.0396 26.067 16.0291 25.1691 16.0396 24.2694C16.0537 23.1115 16.7899 22.3137 17.9374 22.2504C19.0251 22.1889 19.8281 21.7233 20.2656 20.7182C20.7032 19.7131 20.4923 18.8081 19.7842 17.9787C18.9354 16.9859 18.9846 15.9843 19.8966 15.0583C20.5415 14.4011 21.1881 13.7439 21.8506 13.1043C22.7292 12.2556 23.7431 12.2029 24.6726 13.0006C25.5003 13.7035 26.4052 13.9442 27.4121 13.5401C28.419 13.1359 28.9004 12.3382 28.9936 11.247C29.1025 9.9361 29.8423 9.30351 31.1637 9.29297C32.0194 9.29297 32.8752 9.29297 33.7292 9.29297C35.1736 9.29297 35.8378 9.9115 36.0012 11.3629C36.1769 12.9444 37.3701 13.9354 38.8935 13.6789C39.3803 13.5683 39.8345 13.3457 40.2202 13.0287C41.2745 12.2187 42.248 12.2415 43.2074 13.1869C43.833 13.8019 44.4533 14.4222 45.0683 15.0477C45.9855 15.9808 46.0435 16.9806 45.1983 17.9682C44.4954 18.7958 44.2652 19.6937 44.701 20.7059C45.1368 21.718 45.9311 22.1872 47.0205 22.2487C48.1785 22.3137 48.9183 23.1009 48.9341 24.2536C48.9435 25.2388 48.9411 26.2246 48.9271 27.211Z" fill="#0C4578"/>
<path d="M32.4482 17.3203C36.0223 17.496 38.6914 19.1056 40.1323 22.381C41.5486 25.6037 40.9793 28.6278 38.7125 31.3198C38.1994 31.9313 37.6354 31.991 37.1996 31.5342C36.8288 31.1494 36.8482 30.6556 37.3156 30.1284C38.2567 29.079 38.8428 27.7594 38.9902 26.3575C39.3908 22.9292 36.7867 19.6802 33.2635 19.2321C29.8388 18.8016 26.5124 21.3091 26.0327 24.6689C25.7357 26.7476 26.2682 28.5663 27.6598 30.1407C28.1501 30.696 28.1747 31.2706 27.7442 31.6431C27.3137 32.0156 26.7584 31.926 26.2682 31.3462C23.9944 28.6629 23.411 25.6388 24.8167 22.4126C26.2453 19.1337 28.9074 17.5189 32.4482 17.3203Z" fill="#0C4578"/>
<path d="M12.1017 51.4575H1.38291C1.18604 51.4678 0.988664 51.4631 0.7925 51.4435C0.58112 51.4255 0.383676 51.3306 0.237606 51.1768C0.091536 51.0229 0.00699415 50.8208 1.00429e-05 50.6088C-0.0269062 50.3986 0.0257843 50.186 0.147722 50.0126C0.269659 49.8393 0.452022 49.7179 0.658954 49.6722C0.871823 49.6223 1.09089 49.6039 1.30911 49.6178C8.54168 49.6178 15.7743 49.6178 23.0068 49.6178C23.2034 49.6054 23.4007 49.619 23.5937 49.6582C24.0453 49.7829 24.3177 50.1027 24.2966 50.5719C24.3005 50.7962 24.2171 51.0133 24.064 51.1772C23.9109 51.3411 23.7 51.4391 23.476 51.4505C23.2797 51.4675 23.0825 51.4722 22.8856 51.4646L12.1017 51.4575Z" fill="#0C4578"/>
<path d="M61.8529 51.4547C59.247 51.4547 56.8572 51.4758 54.4727 51.4319C54.2763 51.4214 54.0841 51.3707 53.9081 51.2827C53.7322 51.1947 53.5762 51.0714 53.45 50.9205C53.0388 50.3073 53.5783 49.6202 54.4323 49.6167C56.6024 49.6061 58.7725 49.6167 60.9427 49.6167H61.6455L61.7492 49.441C61.0182 48.7381 60.2714 48.044 59.5598 47.3183C59.1345 46.8843 59.1486 46.3272 59.5598 45.9793C59.9955 45.6121 60.4384 45.6578 60.8583 46.0338C60.8917 46.0637 60.9216 46.0935 60.9532 46.1252C62.1621 47.3341 63.3764 48.5378 64.5783 49.7538C65.1476 50.3301 65.1458 50.7518 64.5695 51.3352C63.3676 52.5524 62.1586 53.7613 60.9427 54.962C60.4524 55.447 59.9551 55.4787 59.5475 55.0956C59.1398 54.7125 59.1644 54.1573 59.6564 53.6547C60.3276 52.9589 61.0253 52.2753 61.8529 51.4547Z" fill="#0C4578"/>
<path d="M30.6963 40.9044C30.6963 37.5283 30.6963 34.1533 30.6963 30.7796C30.6963 29.6655 31.1408 28.9521 31.9597 28.7026C33.1897 28.33 34.3003 29.2157 34.3073 30.6003C34.3196 33.0762 34.3073 35.5521 34.3073 38.0297C34.3073 40.2859 34.3073 42.5427 34.3073 44.8001C34.3073 45.5487 34.606 45.937 35.1718 45.9599C35.7376 45.9827 36.0504 45.6383 36.1594 44.8897C36.2929 43.911 37.0379 43.187 37.9253 43.1659C38.8637 43.1449 39.5964 43.8266 39.7335 44.881C39.809 45.452 40.0621 45.872 40.6648 45.8738C41.2675 45.8755 41.5258 45.4889 41.6031 44.9003C41.7419 43.8284 42.4641 43.1624 43.406 43.1659C44.3478 43.1695 45.0402 43.8126 45.1843 44.8511C45.2668 45.4538 45.5093 45.8878 46.1472 45.8738C46.785 45.8597 46.9977 45.3817 47.0732 44.8001C47.1997 43.8073 47.9624 43.1413 48.8884 43.1659C49.3437 43.1756 49.778 43.3596 50.1016 43.68C50.4253 44.0004 50.6137 44.4328 50.628 44.888C50.6649 47.8752 50.8037 50.8624 50.6421 53.8268C50.3539 59.318 45.8116 63.3279 40.3309 63.1504C36.8411 63.0379 33.6958 62.0697 31.1092 59.6132C30.7297 59.2512 30.3097 58.9296 29.8967 58.6046C28.8495 57.7752 27.7952 56.951 26.7338 56.1322C25.9378 55.5137 25.5706 54.7265 25.7498 53.7178C25.9624 52.5282 26.7531 51.9237 27.948 52.0678C28.4014 52.1349 28.8499 52.2318 29.2905 52.3578C30.2043 52.5932 30.6664 52.2488 30.6963 51.2929C30.6963 51.0961 30.6963 50.8976 30.6963 50.7007V40.9044Z" fill="url(#paint1_linear_619_15711)"/>
</g>
<defs>
<linearGradient id="paint0_linear_619_15711" x1="17.9163" y1="24.1286" x2="47.0504" y2="24.1286" gradientUnits="userSpaceOnUse">
<stop stop-color="#C21500"/>
<stop offset="0.52" stop-color="#F37429"/>
<stop offset="1" stop-color="#FFD1B0"/>
</linearGradient>
<linearGradient id="paint1_linear_619_15711" x1="25.7111" y1="45.8861" x2="50.7123" y2="45.8861" gradientUnits="userSpaceOnUse">
<stop stop-color="#176AB4"/>
<stop offset="1" stop-color="#B1FFC7"/>
</linearGradient>
<clipPath id="clip0_619_15711">
<rect width="64.9895" height="65" fill="white"/>
</clipPath>
</defs>
</svg>
