<svg width="66" height="65" viewBox="0 0 66 65" fill="none" xmlns="http://www.w3.org/2000/svg">
<g clip-path="url(#clip0_619_15744)">
<path d="M12.7718 58.3493C12.1358 59.0688 11.6649 59.8681 10.9662 60.3162C10.1976 60.7634 9.33742 61.0302 8.45061 61.0965C7.1216 61.2218 5.75272 61.1497 4.40282 61.125C1.68784 61.0775 0 59.3517 0 56.6254C0 50.6094 0 44.5921 0 38.5736C0 35.8624 1.72392 34.1404 4.4351 34.1214C5.6426 34.1119 6.852 34.1214 8.0595 34.1214C10.3758 34.1214 11.5092 34.8201 12.5933 36.9427C13.5008 36.675 14.4103 36.3731 15.3406 36.1377C22.447 34.4024 28.8547 35.7428 34.4518 40.5481C36.2877 42.1258 38.4938 42.6631 40.8139 42.8435C42.7239 42.9916 44.6453 43.0334 46.559 43.1397C47.1017 43.1749 47.6393 43.2658 48.1633 43.4112C50.1853 43.9656 51.0416 45.5775 50.3999 47.5767C50.0202 48.731 49.2607 49.5892 48.2962 50.2708C45.9325 51.9245 43.2327 52.5719 40.4171 52.7921C38.1937 52.9873 35.9534 52.7645 33.8119 52.1352C33.0848 51.9169 32.3063 51.8732 31.5507 51.7555L31.4767 51.9909C31.8302 52.1909 32.1976 52.3654 32.5759 52.513C34.4252 53.0978 36.2497 53.8534 38.1464 54.1553C39.5248 54.3755 41.0379 54.1439 42.4315 53.8401C47.7684 52.682 53.0769 51.3928 58.4062 50.2043C59.5113 49.9466 60.6434 49.823 61.7781 49.836C64.0298 49.8873 66.0252 51.9605 65.9759 54.0395C65.9729 54.5766 65.8404 55.1051 65.5895 55.5801C65.3387 56.0551 64.9769 56.4625 64.5349 56.7677C63.469 57.5474 62.3172 58.2022 61.1022 58.7195C54.4742 61.3775 47.6507 63.3805 40.5728 64.4153C36.1738 65.0608 31.7368 65.3759 27.3738 64.2823C25.236 63.745 23.1874 62.8223 21.1389 61.9756C18.4808 60.8744 15.8475 59.6726 13.2047 58.5163C13.0148 58.4309 12.8155 58.3664 12.7718 58.3493ZM12.7946 47.6052C12.7946 49.9252 12.8098 52.2472 12.7832 54.5692C12.7832 55.0685 12.9275 55.3115 13.3983 55.5185C16.6791 56.9234 19.9371 58.3872 23.2235 59.7846C24.6987 60.4111 26.1834 61.0775 27.7308 61.463C31.9399 62.511 36.1985 62.1958 40.4323 61.5712C46.3179 60.7035 52.0384 59.103 57.6183 57.0335C59.2236 56.4104 60.7941 55.7012 62.323 54.909C62.6818 54.7287 63.1375 54.123 63.0634 53.8458C62.9514 53.4262 62.4445 53.0731 62.0363 52.7921C61.8142 52.6383 61.4421 52.6307 61.1497 52.663C60.3501 52.7438 59.5554 52.8667 58.7688 53.0313C53.0921 54.2958 47.4267 55.6096 41.7442 56.838C40.2709 57.1551 38.7426 57.3335 37.237 56.9177C35.908 56.5513 34.596 56.1735 33.2879 55.7653C31.845 55.3115 30.3641 54.8995 29.2382 53.8078C28.4085 53.0047 27.9605 52.0194 28.325 50.8517C28.6668 49.7525 29.5667 49.3044 30.6242 49.0956C31.9095 48.8411 33.1778 48.9949 34.4119 49.3557C36.9921 50.1107 39.7187 50.217 42.3499 49.6651C44.0586 49.3215 45.7237 48.8392 47.0375 47.6223C47.3735 47.3109 47.5159 46.7926 47.7457 46.3692C47.3318 46.2401 46.9236 46.0236 46.504 45.9895C44.5674 45.8623 42.6233 45.8319 40.6867 45.6838C37.6831 45.4541 34.8922 44.651 32.5228 42.6461C26.7435 37.7458 20.2845 37.1686 13.3471 39.7431C12.8857 39.914 12.7775 40.176 12.7775 40.6412C12.8079 42.9612 12.7946 45.2832 12.7946 47.6052ZM9.94669 47.6526C9.94669 44.6149 9.94669 41.5904 9.94669 38.5603C9.94669 37.48 9.45686 36.9807 8.39365 36.9674C7.06717 36.9497 5.74133 36.9497 4.41611 36.9674C3.30354 36.9788 2.84598 37.4591 2.84598 38.5964C2.84598 44.6136 2.84598 50.6258 2.84598 56.6329C2.84598 57.7873 3.31873 58.26 4.48826 58.2733C5.69576 58.2885 6.90326 58.2733 8.11076 58.2733C9.50053 58.2733 9.94859 57.8215 9.95049 56.4488C9.95429 53.5224 9.95492 50.591 9.95239 47.6545L9.94669 47.6526Z" fill="#0C4578"/>
<path d="M16.7189 22.0547L18.9156 19.279C19.6105 18.4018 19.9769 18.2822 21.0667 18.5879C22.0919 18.8746 23.1229 19.1404 24.1367 19.4632C24.5487 19.5942 24.786 19.503 25.0366 19.1727C25.6916 18.3031 26.3979 17.4639 27.0434 16.5944C27.5807 15.8653 28.2282 15.6565 29.0901 15.9242C30.0831 16.2356 31.1045 16.4539 32.0899 16.7842C32.6348 16.9741 32.9385 16.845 33.2613 16.3874C33.791 15.628 34.4251 14.9502 34.9567 14.1984C35.3915 13.5851 35.9212 13.1636 36.6541 13.0156C37.068 12.932 37.2085 12.7004 37.2597 12.2865C38.1616 5.14401 44.6054 -0.29164 51.8105 0.0121343C59.8567 0.35388 65.9132 6.95716 65.5202 15.011C65.3886 17.8728 64.3612 20.621 62.5831 22.8673C62.2679 23.2736 62.2299 23.585 62.4198 24.071C63.3064 26.3379 63.6577 28.6732 63.147 31.0958C61.9186 36.9093 56.462 37.4636 53.0541 35.2974C50.7245 33.8165 49.479 31.5685 48.7785 28.9846C48.6171 28.3884 48.376 28.0941 47.7551 27.9422C45.231 27.3286 42.938 25.9988 41.1518 24.1128C40.7949 23.7426 40.5082 23.7084 40.0545 23.8584C31.4703 26.6683 22.8824 29.4649 14.2906 32.2482C13.7777 32.4009 13.2338 32.4166 12.7129 32.2938C11.2434 31.9426 9.79288 31.5002 8.34616 31.0768C7.25827 30.7597 6.89754 30.0876 7.25257 29.0225C7.95695 26.9151 8.6898 24.8153 9.39228 22.7059C9.59733 22.0946 10.0036 21.7775 10.5808 21.5003C12.5667 20.551 14.4596 20.4637 16.2766 21.8554C16.4171 21.9363 16.5652 22.003 16.7189 22.0547ZM60.5649 20.8206C60.7358 20.5757 60.88 20.3954 60.9997 20.1979C62.083 18.4522 62.6727 16.4454 62.7061 14.3912C62.7395 12.3369 62.2153 10.3121 61.1894 8.53205C60.1634 6.75203 58.674 5.28349 56.8797 4.28269C55.0854 3.28189 53.0534 2.78629 50.9998 2.84862C45.1142 3.05557 40.3127 7.66913 39.9728 13.4294C39.8931 14.7869 39.7374 15.0186 38.3989 15.4154C37.6854 15.595 37.0614 16.0274 36.6427 16.6324C36.0067 17.5437 35.2643 18.381 34.5922 19.2676C34.0815 19.9435 33.4531 20.1239 32.6557 19.8827C31.5906 19.5619 30.5103 19.2961 29.4489 18.9676C29.0502 18.8442 28.811 18.9088 28.5585 19.2524C27.9092 20.1258 27.1934 20.9516 26.5498 21.8288C25.9954 22.5882 25.3328 22.7914 24.4443 22.5085C23.4076 22.18 22.3444 21.9389 21.3078 21.6086C21.1596 21.5401 20.9911 21.5299 20.8357 21.5798C20.6803 21.6297 20.5493 21.7362 20.4686 21.8782C19.7813 22.7819 19.0732 23.6723 18.3612 24.559C17.7252 25.3488 17.1366 25.476 16.2424 25.0336C15.5285 24.6824 14.8089 24.3026 14.0989 23.9419C12.9597 23.3723 12.0465 23.7521 11.6307 24.9387C11.27 25.9905 10.9074 27.0404 10.5504 28.0922C10.4859 28.2821 10.446 28.4719 10.3871 28.6979C11.158 28.92 11.868 29.0947 12.561 29.3301C13.1224 29.5133 13.7297 29.4978 14.2811 29.2864C22.9311 26.4512 31.5855 23.6274 40.2443 20.8149C41.467 20.4181 41.7632 20.5055 42.5777 21.4832C44.0675 23.269 46.0682 24.5561 48.3109 25.1714C50.5536 25.7867 52.931 25.7009 55.1235 24.9254C56.394 24.5013 57.5664 23.8267 58.5714 22.9414C56.9177 20.832 54.2521 19.634 51.8105 19.8619C50.9262 19.9381 50.0364 19.8058 49.2125 19.4757C48.3886 19.1455 47.6536 18.6268 47.0666 17.961C46.4796 17.2953 46.057 16.5011 45.8326 15.6424C45.6083 14.7836 45.5885 13.8842 45.7748 13.0164C45.9612 12.1487 46.3485 11.3367 46.9056 10.6458C47.4628 9.95484 48.1742 9.40423 48.9828 9.03817C49.7913 8.67212 50.6745 8.50083 51.5613 8.53806C52.4481 8.57529 53.3138 8.82001 54.0888 9.25255C55.1269 9.81723 55.9577 10.6984 56.4603 11.7679C56.963 12.8374 57.1112 14.0394 56.8835 15.1989C56.7088 16.0381 56.3139 16.8336 56.0178 17.6671C57.7755 18.3174 59.3398 19.4023 60.5649 20.8206ZM59.9554 25.5291C57.5448 27.3357 54.6355 28.3547 51.6244 28.4473C51.6261 28.5325 51.6337 28.6175 51.6472 28.7017C51.6947 28.8593 51.7421 29.0187 51.8029 29.1725C52.5452 31.0255 53.5515 32.6526 55.564 33.3494C57.8613 34.1506 59.6877 33.1596 60.2972 30.8148C60.7414 29.0662 60.5231 27.3518 59.9459 25.5291H59.9554ZM48.4899 14.2401C48.4984 14.9935 48.8051 15.7127 49.3427 16.2404C49.8804 16.7682 50.6053 17.0613 51.3586 17.0557C52.8281 17.0311 54.1647 15.5654 54.1401 14.0085C54.1154 12.5903 52.8111 11.3771 51.3169 11.3866C50.9435 11.3871 50.574 11.4614 50.2295 11.6053C49.8849 11.7492 49.5723 11.9598 49.3096 12.2251C49.0468 12.4903 48.8391 12.8049 48.6984 13.1507C48.5577 13.4966 48.4869 13.8668 48.4899 14.2401Z" fill="#0C4578"/>
<path d="M9.95241 47.656C9.95241 50.5925 9.95241 53.529 9.95241 56.4654C9.95241 57.8381 9.50245 58.2843 8.11268 58.29C6.90518 58.29 5.69768 58.3014 4.49018 58.29C3.32065 58.2767 2.8479 57.8039 2.8479 56.6496C2.8479 50.6349 2.8479 44.6227 2.8479 38.613C2.8479 37.4739 3.30546 36.9954 4.41803 36.984C5.74324 36.9689 7.07226 36.9689 8.40506 36.984C9.46827 36.9973 9.95621 37.4967 9.95811 38.577C9.95811 41.5919 9.95241 44.6183 9.95241 47.656Z" fill="url(#paint0_linear_619_15744)"/>
<path d="M60.9902 20.1978C60.8725 20.3877 60.7282 20.5775 60.5573 20.8205C59.3365 19.4053 57.7775 18.3217 56.0254 17.6708C56.3254 16.8316 56.7184 16.038 56.8911 15.2026C57.1182 14.0431 56.9697 12.8413 56.4671 11.772C55.9645 10.7026 55.1341 9.82138 54.0964 9.25626C53.3209 8.82123 52.4541 8.5744 51.5657 8.53565C50.6773 8.4969 49.7923 8.66732 48.9818 9.03317C48.1714 9.39901 47.4582 9.95008 46.8996 10.642C46.3411 11.3339 45.9528 12.1473 45.7661 13.0166C45.5794 13.886 45.5995 14.7871 45.8247 15.6473C46.05 16.5075 46.4741 17.3028 47.0629 17.9691C47.6517 18.6355 48.3887 19.1542 49.2147 19.4836C50.0406 19.813 50.9324 19.9438 51.8181 19.8656C54.2616 19.6396 56.9253 20.8357 58.579 22.947C57.574 23.8323 56.4016 24.5069 55.1311 24.931C52.3721 25.9134 49.3397 25.7882 46.671 24.5816C44.7654 20.9189 44.2733 16.6832 45.2886 12.6812C46.304 8.6791 48.7557 5.19023 52.1769 2.87891C54.1244 3.02601 56.0011 3.67231 57.6262 4.75552C59.2512 5.83873 60.5699 7.3223 61.4549 9.06324C62.34 10.8042 62.7616 12.7438 62.6792 14.695C62.5968 16.6463 62.0132 18.5434 60.9845 20.2035L60.9902 20.1978Z" fill="url(#paint1_linear_619_15744)"/>
</g>
<defs>
<linearGradient id="paint0_linear_619_15744" x1="2.8441" y1="47.6256" x2="9.95431" y2="47.6256" gradientUnits="userSpaceOnUse">
<stop stop-color="#176AB4"/>
<stop offset="1" stop-color="#B1FFC7"/>
</linearGradient>
<linearGradient id="paint1_linear_619_15744" x1="44.7725" y1="14.2287" x2="62.6932" y2="14.2287" gradientUnits="userSpaceOnUse">
<stop stop-color="#C21500"/>
<stop offset="0.52" stop-color="#F37429"/>
<stop offset="1" stop-color="#FFD1B0"/>
</linearGradient>
<clipPath id="clip0_619_15744">
<rect width="65.9816" height="65" fill="white"/>
</clipPath>
</defs>
</svg>
