<svg width="66" height="65" viewBox="0 0 66 65" fill="none" xmlns="http://www.w3.org/2000/svg">
<g clip-path="url(#clip0_1295_14099)">
<path d="M12.7718 58.3493C12.1358 59.0688 11.6649 59.8681 10.9662 60.3162C10.1976 60.7634 9.33742 61.0302 8.45061 61.0965C7.1216 61.2218 5.75272 61.1497 4.40282 61.125C1.68784 61.0775 0 59.3517 0 56.6254C0 50.6094 0 44.5921 0 38.5736C0 35.8624 1.72392 34.1404 4.4351 34.1214C5.6426 34.1119 6.852 34.1214 8.0595 34.1214C10.3758 34.1214 11.5092 34.8201 12.5933 36.9427C13.5008 36.675 14.4103 36.3731 15.3406 36.1377C22.447 34.4024 28.8547 35.7428 34.4518 40.5481C36.2877 42.1258 38.4938 42.6631 40.8139 42.8435C42.7239 42.9916 44.6453 43.0334 46.559 43.1397C47.1017 43.1749 47.6393 43.2658 48.1633 43.4112C50.1853 43.9656 51.0416 45.5775 50.3999 47.5767C50.0202 48.731 49.2607 49.5892 48.2962 50.2708C45.9325 51.9245 43.2327 52.5719 40.4171 52.7921C38.1937 52.9873 35.9534 52.7645 33.8119 52.1352C33.0848 51.9169 32.3063 51.8732 31.5507 51.7555L31.4767 51.9909C31.8302 52.1909 32.1976 52.3654 32.5759 52.513C34.4252 53.0978 36.2497 53.8534 38.1464 54.1553C39.5248 54.3755 41.0379 54.1439 42.4315 53.8401C47.7684 52.682 53.0769 51.3928 58.4062 50.2043C59.5113 49.9466 60.6434 49.823 61.7781 49.836C64.0298 49.8873 66.0252 51.9605 65.9759 54.0395C65.9729 54.5766 65.8404 55.1051 65.5895 55.5801C65.3387 56.0551 64.9769 56.4625 64.5349 56.7677C63.469 57.5474 62.3172 58.2022 61.1022 58.7195C54.4742 61.3775 47.6507 63.3805 40.5728 64.4153C36.1738 65.0608 31.7368 65.3759 27.3738 64.2823C25.236 63.745 23.1874 62.8223 21.1389 61.9756C18.4808 60.8744 15.8475 59.6726 13.2047 58.5163C13.0148 58.4309 12.8155 58.3664 12.7718 58.3493ZM12.7946 47.6052C12.7946 49.9252 12.8098 52.2472 12.7832 54.5692C12.7832 55.0685 12.9275 55.3115 13.3983 55.5185C16.6791 56.9234 19.9371 58.3872 23.2235 59.7846C24.6987 60.4111 26.1834 61.0775 27.7308 61.463C31.9399 62.511 36.1985 62.1958 40.4323 61.5712C46.3179 60.7035 52.0384 59.103 57.6183 57.0335C59.2236 56.4104 60.7941 55.7012 62.323 54.909C62.6818 54.7287 63.1375 54.123 63.0634 53.8458C62.9514 53.4262 62.4445 53.0731 62.0363 52.7921C61.8142 52.6383 61.4421 52.6307 61.1497 52.663C60.3501 52.7438 59.5554 52.8667 58.7688 53.0313C53.0921 54.2958 47.4267 55.6096 41.7442 56.838C40.2709 57.1551 38.7426 57.3335 37.237 56.9177C35.908 56.5513 34.596 56.1735 33.2879 55.7653C31.845 55.3115 30.3641 54.8995 29.2382 53.8078C28.4085 53.0047 27.9605 52.0194 28.325 50.8517C28.6668 49.7525 29.5667 49.3044 30.6242 49.0956C31.9095 48.8411 33.1778 48.9949 34.4119 49.3557C36.9921 50.1107 39.7187 50.217 42.3499 49.6651C44.0586 49.3215 45.7237 48.8392 47.0375 47.6223C47.3735 47.3109 47.5159 46.7926 47.7457 46.3692C47.3318 46.2401 46.9236 46.0236 46.504 45.9895C44.5674 45.8623 42.6233 45.8319 40.6867 45.6838C37.6831 45.4541 34.8922 44.651 32.5228 42.6461C26.7435 37.7458 20.2845 37.1686 13.3471 39.7431C12.8857 39.914 12.7775 40.176 12.7775 40.6412C12.8079 42.9612 12.7946 45.2832 12.7946 47.6052ZM9.94669 47.6526C9.94669 44.6149 9.94669 41.5904 9.94669 38.5603C9.94669 37.48 9.45686 36.9807 8.39365 36.9674C7.06717 36.9497 5.74133 36.9497 4.41611 36.9674C3.30354 36.9788 2.84598 37.4591 2.84598 38.5964C2.84598 44.6136 2.84598 50.6258 2.84598 56.6329C2.84598 57.7873 3.31873 58.26 4.48826 58.2733C5.69576 58.2885 6.90326 58.2733 8.11076 58.2733C9.50053 58.2733 9.94859 57.8215 9.95049 56.4488C9.95429 53.5224 9.95492 50.591 9.95239 47.6545L9.94669 47.6526Z" fill="#0751A0"/>
<path d="M16.7194 22.0547L18.916 19.279C19.6109 18.4018 19.9773 18.2822 21.0671 18.5879C22.0924 18.8746 23.1233 19.1404 24.1371 19.4632C24.5491 19.5942 24.7864 19.503 25.0371 19.1727C25.6921 18.3031 26.3983 17.4639 27.0439 16.5944C27.5812 15.8653 28.2286 15.6565 29.0905 15.9242C30.0835 16.2356 31.1049 16.4539 32.0903 16.7842C32.6352 16.9741 32.939 16.845 33.2617 16.3874C33.7914 15.628 34.4256 14.9502 34.9572 14.1984C35.3919 13.5851 35.9217 13.1636 36.6545 13.0156C37.0684 12.932 37.2089 12.7004 37.2602 12.2865C38.162 5.14401 44.6058 -0.29164 51.8109 0.0121343C59.8571 0.35388 65.9136 6.95716 65.5206 15.011C65.389 17.8728 64.3616 20.621 62.5835 22.8673C62.2683 23.2736 62.2304 23.585 62.4202 24.071C63.3069 26.3379 63.6581 28.6732 63.1474 31.0958C61.919 36.9093 56.4625 37.4636 53.0545 35.2974C50.7249 33.8165 49.4795 31.5685 48.7789 28.9846C48.6175 28.3884 48.3764 28.0941 47.7555 27.9422C45.2315 27.3286 42.9384 25.9988 41.1523 24.1128C40.7953 23.7426 40.5086 23.7084 40.0549 23.8584C31.4707 26.6683 22.8828 29.4649 14.2911 32.2482C13.7782 32.4009 13.2342 32.4166 12.7133 32.2938C11.2438 31.9426 9.79331 31.5002 8.34658 31.0768C7.25869 30.7597 6.89796 30.0876 7.253 29.0225C7.95738 26.9151 8.69023 24.8153 9.39271 22.7059C9.59775 22.0946 10.0041 21.7775 10.5812 21.5003C12.5671 20.551 14.46 20.4637 16.277 21.8554C16.4175 21.9363 16.5657 22.003 16.7194 22.0547ZM60.5653 20.8206C60.7362 20.5757 60.8805 20.3954 61.0001 20.1979C62.0834 18.4522 62.6731 16.4454 62.7065 14.3912C62.7399 12.3369 62.2158 10.3121 61.1898 8.53205C60.1638 6.75203 58.6744 5.28349 56.8801 4.28269C55.0859 3.28189 53.0538 2.78629 51.0002 2.84862C45.1146 3.05557 40.3131 7.66913 39.9732 13.4294C39.8935 14.7869 39.7378 15.0186 38.3993 15.4154C37.6859 15.595 37.0618 16.0274 36.6431 16.6324C36.0071 17.5437 35.2647 18.381 34.5926 19.2676C34.0819 19.9435 33.4535 20.1239 32.6561 19.8827C31.591 19.5619 30.5107 19.2961 29.4494 18.9676C29.0507 18.8442 28.8114 18.9088 28.5589 19.2524C27.9096 20.1258 27.1939 20.9516 26.5502 21.8288C25.9958 22.5882 25.3332 22.7914 24.4447 22.5085C23.4081 22.18 22.3449 21.9389 21.3082 21.6086C21.16 21.5401 20.9915 21.5299 20.8361 21.5798C20.6807 21.6297 20.5497 21.7362 20.4691 21.8782C19.7818 22.7819 19.0736 23.6723 18.3616 24.559C17.7256 25.3488 17.137 25.476 16.2428 25.0336C15.5289 24.6824 14.8094 24.3026 14.0993 23.9419C12.9602 23.3723 12.0469 23.7521 11.6311 24.9387C11.2704 25.9905 10.9078 27.0404 10.5508 28.0922C10.4863 28.2821 10.4464 28.4719 10.3876 28.6979C11.1584 28.92 11.8685 29.0947 12.5614 29.3301C13.1229 29.5133 13.7302 29.4978 14.2816 29.2864C22.9315 26.4512 31.5859 23.6274 40.2447 20.8149C41.4674 20.4181 41.7636 20.5055 42.5781 21.4832C44.0679 23.269 46.0686 24.5561 48.3113 25.1714C50.5541 25.7867 52.9314 25.7009 55.124 24.9254C56.3944 24.5013 57.5668 23.8267 58.5718 22.9414C56.9181 20.832 54.2525 19.634 51.8109 19.8619C50.9266 19.9381 50.0368 19.8058 49.2129 19.4757C48.389 19.1455 47.6541 18.6268 47.0671 17.961C46.4801 17.2953 46.0574 16.5011 45.8331 15.6424C45.6087 14.7836 45.5889 13.8842 45.7753 13.0164C45.9616 12.1487 46.3489 11.3367 46.9061 10.6458C47.4632 9.95484 48.1746 9.40423 48.9832 9.03817C49.7918 8.67212 50.6749 8.50083 51.5617 8.53806C52.4485 8.57529 53.3142 8.82001 54.0892 9.25255C55.1273 9.81723 55.9581 10.6984 56.4607 11.7679C56.9634 12.8374 57.1116 14.0394 56.8839 15.1989C56.7093 16.0381 56.3144 16.8336 56.0182 17.6671C57.7759 18.3174 59.3403 19.4023 60.5653 20.8206ZM59.9559 25.5291C57.5452 27.3357 54.6359 28.3547 51.6249 28.4473C51.6265 28.5325 51.6341 28.6175 51.6476 28.7017C51.6951 28.8593 51.7426 29.0187 51.8033 29.1725C52.5457 31.0255 53.5519 32.6526 55.5644 33.3494C57.8617 34.1506 59.6882 33.1596 60.2976 30.8148C60.7419 29.0662 60.5235 27.3518 59.9464 25.5291H59.9559ZM48.4903 14.2401C48.4988 14.9935 48.8055 15.7127 49.3432 16.2404C49.8808 16.7682 50.6057 17.0613 51.3591 17.0557C52.8286 17.0311 54.1652 15.5654 54.1405 14.0085C54.1158 12.5903 52.8115 11.3771 51.3173 11.3866C50.9439 11.3871 50.5744 11.4614 50.2299 11.6053C49.8854 11.7492 49.5727 11.9598 49.31 12.2251C49.0472 12.4903 48.8395 12.8049 48.6988 13.1507C48.5582 13.4966 48.4873 13.8668 48.4903 14.2401Z" fill="#0751A0"/>
<path d="M9.95217 47.656C9.95217 50.5925 9.95217 53.529 9.95217 56.4654C9.95217 57.8381 9.5022 58.2843 8.11244 58.29C6.90494 58.29 5.69743 58.3014 4.48993 58.29C3.3204 58.2767 2.84766 57.8039 2.84766 56.6496C2.84766 50.6349 2.84766 44.6227 2.84766 38.613C2.84766 37.4739 3.30522 36.9954 4.41779 36.984C5.743 36.9689 7.07201 36.9689 8.40482 36.984C9.46803 36.9973 9.95596 37.4967 9.95786 38.577C9.95786 41.5919 9.95217 44.6183 9.95217 47.656Z" fill="url(#paint0_linear_1295_14099)"/>
<path d="M60.9896 20.1978C60.8719 20.3877 60.7276 20.5775 60.5567 20.8205C59.3358 19.4053 57.7769 18.3217 56.0248 17.6708C56.3247 16.8316 56.7178 16.038 56.8905 15.2026C57.1176 14.0431 56.9691 12.8413 56.4665 11.772C55.9639 10.7026 55.1335 9.82138 54.0958 9.25626C53.3203 8.82123 52.4534 8.5744 51.5651 8.53565C50.6767 8.4969 49.7917 8.66732 48.9812 9.03317C48.1708 9.39901 47.4575 9.95008 46.899 10.642C46.3405 11.3339 45.9522 12.1473 45.7655 13.0166C45.5788 13.886 45.5989 14.7871 45.8241 15.6473C46.0494 16.5075 46.4735 17.3028 47.0623 17.9691C47.6511 18.6355 48.3881 19.1542 49.214 19.4836C50.04 19.813 50.9317 19.9438 51.8175 19.8656C54.261 19.6396 56.9247 20.8357 58.5784 22.947C57.5734 23.8323 56.401 24.5069 55.1305 24.931C52.3715 25.9134 49.3391 25.7882 46.6704 24.5816C44.7648 20.9189 44.2727 16.6832 45.288 12.6812C46.3033 8.6791 48.7551 5.19023 52.1763 2.87891C54.1238 3.02601 56.0005 3.67231 57.6256 4.75552C59.2506 5.83873 60.5693 7.3223 61.4543 9.06324C62.3394 10.8042 62.761 12.7438 62.6786 14.695C62.5962 16.6463 62.0126 18.5434 60.9839 20.2035L60.9896 20.1978Z" fill="url(#paint1_linear_1295_14099)"/>
</g>
<defs>
<linearGradient id="paint0_linear_1295_14099" x1="2.84386" y1="47.6256" x2="9.95407" y2="47.6256" gradientUnits="userSpaceOnUse">
<stop stop-color="#176AB4"/>
<stop offset="1" stop-color="#B1FFC7"/>
</linearGradient>
<linearGradient id="paint1_linear_1295_14099" x1="44.7718" y1="14.2287" x2="62.6926" y2="14.2287" gradientUnits="userSpaceOnUse">
<stop stop-color="#D1320D"/>
<stop offset="1" stop-color="#FFCCA9"/>
</linearGradient>
<clipPath id="clip0_1295_14099">
<rect width="65.9816" height="65" fill="white"/>
</clipPath>
</defs>
</svg>
